<svg xmlns="http://www.w3.org/2000/svg" xmlns:xlink="http://www.w3.org/1999/xlink" id="Capa_1" x="0px" y="0px" viewBox="0 0 140 140" style="enable-background:new 0 0 140 140;" xml:space="preserve"><style type="text/css">	.st0{fill:#B5E7F3;}	.st1{fill:#151A6A;}	.st2{fill:none;stroke:#5FBCD3;stroke-width:2;}</style><path class="st0" d="M101.7,76.6c-0.3,0-0.6,0.1-0.8,0.3c-0.2,0.2-0.3,0.5-0.3,0.8H95c-0.4-2.5-1.4-4.9-2.9-7l4-4 c0.1,0.1,0.2,0.2,0.4,0.2c0.1,0.1,0.3,0.1,0.4,0.1s0.3,0,0.4-0.1c0.1-0.1,0.3-0.1,0.4-0.2c0.1-0.1,0.2-0.2,0.2-0.4 c0.1-0.1,0.1-0.3,0.1-0.4c0-0.1,0-0.3-0.1-0.4c-0.1-0.1-0.1-0.3-0.2-0.4l-3.1-3.1c-0.2-0.2-0.5-0.3-0.8-0.3c-0.3,0-0.6,0.1-0.8,0.3 c-0.2,0.2-0.3,0.5-0.3,0.8s0.1,0.6,0.3,0.8l-4,4c-2-1.5-4.4-2.5-7-2.9V58c0.3,0,0.6-0.1,0.8-0.3c0.2-0.2,0.3-0.5,0.3-0.8 s-0.1-0.6-0.3-0.8c-0.2-0.2-0.5-0.3-0.8-0.3h-4.4c-0.3,0-0.6,0.1-0.8,0.3c-0.2,0.2-0.3,0.5-0.3,0.8s0.1,0.6,0.3,0.8 c0.2,0.2,0.5,0.3,0.8,0.3v6.7c-2.5,0.4-4.9,1.4-7,2.9l-4-4c0.2-0.2,0.3-0.5,0.3-0.8s-0.1-0.6-0.3-0.8c-0.2-0.2-0.5-0.3-0.8-0.3 c-0.3,0-0.6,0.1-0.8,0.3l-3.1,3.1c-0.2,0.2-0.3,0.5-0.3,0.8c0,0.3,0.1,0.6,0.3,0.8c0.2,0.2,0.5,0.3,0.8,0.3s0.6-0.1,0.8-0.3l4,4 c-1.5,2-2.5,4.4-2.9,7h-5.6c0-0.3-0.1-0.6-0.3-0.8c-0.2-0.2-0.5-0.3-0.8-0.3c-0.3,0-0.6,0.1-0.8,0.3c-0.2,0.2-0.3,0.5-0.3,0.8V82 c0,0.3,0.1,0.6,0.3,0.8c0.2,0.2,0.5,0.3,0.8,0.3c0.3,0,0.6-0.1,0.8-0.3c0.2-0.2,0.3-0.5,0.3-0.8h5.6c0.4,2.5,1.4,4.9,2.9,7l-4,4 c-0.2-0.2-0.5-0.3-0.8-0.3c-0.3,0-0.6,0.1-0.8,0.3c-0.2,0.2-0.3,0.5-0.3,0.8c0,0.3,0.1,0.6,0.3,0.8l3.1,3.1c0.2,0.2,0.5,0.3,0.8,0.3 c0.3,0,0.6-0.1,0.8-0.3c0.2-0.2,0.3-0.5,0.3-0.8s-0.1-0.6-0.3-0.8l4-4c2,1.5,4.4,2.5,7,2.9v6.7c-0.3,0-0.6,0.1-0.8,0.3 c-0.2,0.2-0.3,0.5-0.3,0.8c0,0.3,0.1,0.6,0.3,0.8c0.2,0.2,0.5,0.3,0.8,0.3H82c0.3,0,0.6-0.1,0.8-0.3c0.2-0.2,0.3-0.5,0.3-0.8 c0-0.3-0.1-0.6-0.3-0.8c-0.2-0.2-0.5-0.3-0.8-0.3V95c2.5-0.4,4.9-1.4,7-2.9l4,4c-0.2,0.2-0.3,0.5-0.3,0.8s0.1,0.6,0.3,0.8 c0.2,0.2,0.5,0.3,0.8,0.3c0.3,0,0.6-0.1,0.8-0.3l3.1-3.1c0.1-0.1,0.2-0.2,0.2-0.4c0.1-0.1,0.1-0.3,0.1-0.4c0-0.1,0-0.3-0.1-0.4 c-0.1-0.1-0.1-0.3-0.2-0.4c-0.1-0.1-0.2-0.2-0.4-0.2c-0.1-0.1-0.3-0.1-0.4-0.1c-0.1,0-0.3,0-0.4,0.1c-0.1,0.1-0.3,0.1-0.4,0.2l-4-4 c1.5-2,2.5-4.4,2.9-7h5.6c0,0.3,0.1,0.6,0.3,0.8c0.2,0.2,0.5,0.3,0.8,0.3s0.6-0.1,0.8-0.3c0.2-0.2,0.3-0.5,0.3-0.8v-4.4 c0-0.3-0.1-0.6-0.3-0.8C102.3,76.7,102,76.6,101.7,76.6z M79.8,89.7c-0.4,0-0.9-0.1-1.2-0.4c-0.4-0.2-0.6-0.6-0.8-1 c-0.2-0.4-0.2-0.8-0.1-1.3c0.1-0.4,0.3-0.8,0.6-1.1c0.3-0.3,0.7-0.5,1.1-0.6c0.4-0.1,0.9,0,1.3,0.1c0.4,0.2,0.7,0.4,1,0.8 c0.2,0.4,0.4,0.8,0.4,1.2c0,0.6-0.2,1.1-0.6,1.5C81,89.5,80.4,89.7,79.8,89.7z M77.1,75.5c-0.5,0-1.1-0.2-1.5-0.5 c-0.4-0.3-0.8-0.7-1-1.2c-0.2-0.5-0.3-1-0.2-1.6c0.1-0.5,0.4-1,0.7-1.4c0.4-0.4,0.9-0.6,1.4-0.7c0.5-0.1,1.1-0.1,1.6,0.2 c0.5,0.2,0.9,0.6,1.2,1c0.3,0.4,0.5,1,0.5,1.5c0,0.4-0.1,0.7-0.2,1c-0.1,0.3-0.3,0.6-0.6,0.9s-0.6,0.5-0.9,0.6 C77.8,75.4,77.5,75.5,77.1,75.5z M88,80.9c-0.5,0-1.1-0.2-1.5-0.5c-0.4-0.3-0.8-0.7-1-1.2c-0.2-0.5-0.3-1-0.2-1.6s0.4-1,0.7-1.4 c0.4-0.4,0.9-0.6,1.4-0.7c0.5-0.1,1.1-0.1,1.6,0.2c0.5,0.2,0.9,0.6,1.2,1c0.3,0.4,0.5,1,0.5,1.5c0,0.7-0.3,1.4-0.8,1.9 C89.5,80.6,88.8,80.9,88,80.9z"></path><path class="st1" d="M88.6,77.8H73l-1.1-4.4h8.4c1,0,2-0.4,2.7-1.1c0.7-0.7,1.1-1.7,1.1-2.7s-0.4-2-1.1-2.7 c-0.7-0.7-1.7-1.1-2.7-1.1h-1.2c0.4-0.7,0.6-1.4,0.6-2.2c0-1.2-0.5-2.3-1.3-3.1c-0.8-0.8-1.9-1.3-3.1-1.3c-1.2,0-2.3,0.5-3.1,1.3 c-0.8,0.8-1.3,1.9-1.3,3.1c0,0.8,0.2,1.5,0.6,2.2H70c-0.1-0.1-0.2-3.3-3.3-3.3H52.5c-0.8,0-1.6,0.3-2.2,0.9c-0.6,0.6-1,1.4-1,2.2 l-0.9,2.8c-6.1-4.7-3.6-14.5,3.5-17.9l7.6,4.7c-0.2,0.8-0.1,1.5,0.3,2.2s1,1.2,1.7,1.5c0.7,0.3,1.5,0.3,2.2,0.1 c0.7-0.2,1.4-0.7,1.8-1.4l5.2-8.4c0.4-0.7,0.6-1.4,0.5-2.2c-0.1-0.8-0.5-1.5-1.1-2c-0.6-0.5-1.3-0.8-2.1-0.8c-0.8,0-1.5,0.2-2.1,0.7 L56,39c-0.7-0.4-1.6-0.7-2.4-0.8c-0.9,0-1.7,0.1-2.5,0.5c-0.2-0.2-0.4-0.4-0.6-0.6l-2.8-1.7c-0.5-0.3-1.1-0.4-1.7-0.3 c-0.6,0.1-1.1,0.5-1.4,1L43,39.9c-0.3,0.5-0.4,1.1-0.3,1.7c0.1,0.6,0.5,1.1,1,1.4l2.8,1.7c0.2,0.1,0.5,0.2,0.8,0.3 c0,0.9,0.2,1.7,0.6,2.4c0.4,0.7,1,1.4,1.7,1.8c-7.9,4.7-9.8,16.3-2.1,21.3c0,0,0,0,0.1,0l-2.4,7.3h-4.7c-0.9,0-1.7,0.3-2.3,1 c-0.6,0.6-1,1.4-1,2.3v6.6c0,0.9,0.3,1.7,1,2.3c0.6,0.6,1.4,1,2.3,1h48.1c0.9,0,1.7-0.3,2.3-1c0.6-0.6,1-1.4,1-2.3v-6.6 c0-0.9-0.3-1.7-1-2.3C90.3,78.2,89.5,77.8,88.6,77.8z M68.4,46.7c0.1,0.1,0.2,0.2,0.3,0.3c0.1,0.1,0.1,0.2,0.2,0.4 c0,0.1,0,0.3,0,0.4c0,0.1-0.1,0.3-0.1,0.4l-5.2,8.4c-0.1,0.1-0.2,0.2-0.3,0.3C63.2,56.9,63,57,62.9,57c-0.1,0-0.3,0-0.4,0 c-0.1,0-0.3-0.1-0.4-0.1c-0.1-0.1-0.2-0.2-0.3-0.3c-0.1-0.1-0.1-0.2-0.2-0.4c0-0.1,0-0.3,0-0.4c0-0.1,0.1-0.3,0.2-0.4l5.2-8.4 c0.1-0.1,0.2-0.2,0.3-0.3c0.1-0.1,0.2-0.1,0.4-0.2c0.1,0,0.3,0,0.4,0C68.1,46.5,68.3,46.6,68.4,46.7z M44.8,41.1l1.7-2.8l2.8,1.7 l-1.7,2.8L44.8,41.1z M49.9,43.3l1-1.6c0.4-0.7,1.1-1.1,1.8-1.3c0.8-0.2,1.5,0,2.2,0.4l9.6,6l-4,6.5l-9.6-6 c-0.3-0.2-0.6-0.5-0.8-0.8c-0.2-0.3-0.4-0.7-0.5-1c-0.1-0.4-0.1-0.8,0-1.1C49.5,44,49.7,43.7,49.9,43.3z M73.3,63.6 c0-0.4,0.1-0.9,0.4-1.2c0.2-0.4,0.6-0.6,1-0.8c0.4-0.2,0.8-0.2,1.3-0.1c0.4,0.1,0.8,0.3,1.1,0.6c0.3,0.3,0.5,0.7,0.6,1.1 c0.1,0.4,0,0.9-0.1,1.3c-0.2,0.4-0.4,0.7-0.8,1c-0.4,0.2-0.8,0.4-1.2,0.4c-0.6,0-1.1-0.2-1.5-0.6C73.5,64.7,73.3,64.2,73.3,63.6z  M80.4,68c0.4,0,0.9,0.2,1.2,0.5c0.3,0.3,0.5,0.7,0.5,1.2c0,0.4-0.2,0.9-0.5,1.2c-0.3,0.3-0.7,0.5-1.2,0.5h-9L70.6,68H80.4z  M51.4,66.1c0-0.1,0.1-0.2,0.1-0.3c0-0.3,0.1-0.6,0.3-0.8c0.2-0.2,0.5-0.3,0.8-0.3h14.2c0.3,0,0.6,0.1,0.8,0.3 c0.2,0.2,0.3,0.5,0.3,0.8c0,0.3-0.1-0.5,3,12H47.5L51.4,66.1z M89.7,87.7c0,0.3-0.1,0.6-0.3,0.8c-0.2,0.2-0.5,0.3-0.8,0.3H40.5 c-0.3,0-0.6-0.1-0.8-0.3c-0.2-0.2-0.3-0.5-0.3-0.8v-2.2h23c0.3,0,0.6-0.1,0.8-0.3c0.2-0.2,0.3-0.5,0.3-0.8c0-0.3-0.1-0.6-0.3-0.8 c-0.2-0.2-0.5-0.3-0.8-0.3h-23v-2.2c0-0.3,0.1-0.6,0.3-0.8c0.2-0.2,0.5-0.3,0.8-0.3h48.1c0.3,0,0.6,0.1,0.8,0.3 c0.2,0.2,0.3,0.5,0.3,0.8V87.7z"></path><path class="st1" d="M60.7,68.4c-0.8,0-1.5,0.2-2.1,0.6c-0.6,0.4-1.1,1-1.4,1.7c-0.3,0.7-0.4,1.5-0.2,2.2c0.1,0.7,0.5,1.4,1,2 c0.5,0.5,1.2,0.9,2,1s1.5,0.1,2.2-0.2c0.7-0.3,1.3-0.8,1.7-1.4s0.6-1.4,0.6-2.1c0-1-0.4-2-1.1-2.7C62.7,68.8,61.7,68.4,60.7,68.4z  M60.7,73.8c-0.3,0-0.6-0.1-0.9-0.3c-0.3-0.2-0.5-0.4-0.6-0.7c-0.1-0.3-0.2-0.6-0.1-0.9c0.1-0.3,0.2-0.6,0.4-0.8 c0.2-0.2,0.5-0.4,0.8-0.4c0.3-0.1,0.6,0,0.9,0.1c0.3,0.1,0.6,0.3,0.7,0.6c0.2,0.3,0.3,0.6,0.3,0.9c0,0.4-0.2,0.9-0.5,1.2 C61.6,73.7,61.1,73.8,60.7,73.8z"></path><circle class="st2" cx="70" cy="70" r="69"></circle></svg>