<svg xmlns="http://www.w3.org/2000/svg" width="70" height="70" viewBox="0 0 70 70" fill="none"><path d="M35.5469 21.875V17.5C35.5469 16.6298 35.2012 15.7952 34.5858 15.1798C33.9705 14.5645 33.1359 14.2188 32.2656 14.2188H31.1719V25.1562H32.2656C33.1359 25.1562 33.9705 24.8105 34.5858 24.1952C35.2012 23.5798 35.5469 22.7452 35.5469 21.875Z" fill="#B5E7F3"></path><path d="M62.8906 14.2188H53.0469V25.1562H59.6094V32.8125C59.6094 33.1026 59.7246 33.3808 59.9297 33.5859C60.1348 33.791 60.413 33.9062 60.7031 33.9062H61.7969V63.4375C61.7969 64.3077 61.4512 65.1423 60.8358 65.7577C60.2205 66.373 59.3859 66.7188 58.5156 66.7188H45.3906C44.5204 66.7188 43.6858 66.373 43.0704 65.7577C42.4551 65.1423 42.1094 64.3077 42.1094 63.4375V60.1562H56.3281C56.6182 60.1562 56.8964 60.041 57.1015 59.8359C57.3066 59.6308 57.4219 59.3526 57.4219 59.0625V28.4375C57.4219 28.1474 57.3066 27.8692 57.1015 27.6641C56.8964 27.459 56.6182 27.3438 56.3281 27.3438H25.7031C25.413 27.3438 25.1348 27.459 24.9297 27.6641C24.7246 27.8692 24.6094 28.1474 24.6094 28.4375V59.0625C24.6094 59.3526 24.7246 59.6308 24.9297 59.8359C25.1348 60.041 25.413 60.1562 25.7031 60.1562H39.9219V63.4375C39.9219 64.3077 39.5762 65.1423 38.9608 65.7577C38.3455 66.373 37.5109 66.7188 36.6406 66.7188H23.5156C22.6454 66.7188 21.8108 66.373 21.1954 65.7577C20.5801 65.1423 20.2344 64.3077 20.2344 63.4375V33.9062H21.3281C21.6182 33.9062 21.8964 33.791 22.1015 33.5859C22.3066 33.3808 22.4219 33.1026 22.4219 32.8125V25.1562H28.9844V14.2188H19.1406C18.2704 14.2188 17.4358 14.5645 16.8204 15.1798C16.2051 15.7952 15.8594 16.6298 15.8594 17.5V32.8125C15.8594 33.1026 15.9746 33.3808 16.1797 33.5859C16.3848 33.791 16.663 33.9062 16.9531 33.9062H18.0469V63.4375C18.0486 64.8874 18.6253 66.2774 19.6506 67.3026C20.6758 68.3278 22.0658 68.9045 23.5156 68.9062H36.6406C37.4928 68.9039 38.3325 68.7016 39.0923 68.3158C39.8521 67.93 40.5109 67.3714 41.0156 66.6848C41.5204 67.3714 42.1791 67.93 42.9389 68.3158C43.6988 68.7016 44.5385 68.9039 45.3906 68.9062H58.5156C59.9655 68.9045 61.3555 68.3278 62.3807 67.3026C63.4059 66.2774 63.9826 64.8874 63.9844 63.4375V33.9062H65.0781C65.3682 33.9062 65.6464 33.791 65.8515 33.5859C66.0566 33.3808 66.1719 33.1026 66.1719 32.8125V17.5C66.1719 16.6298 65.8262 15.7952 65.2108 15.1798C64.5955 14.5645 63.7609 14.2188 62.8906 14.2188ZM49.7656 56.3281H44.2969C44.0068 56.3281 43.7286 56.2129 43.5235 56.0078C43.3184 55.8027 43.2031 55.5245 43.2031 55.2344C43.2031 54.9443 43.3184 54.6661 43.5235 54.461C43.7286 54.2559 44.0068 54.1406 44.2969 54.1406H49.7656C50.0557 54.1406 50.3339 54.2559 50.539 54.461C50.7441 54.6661 50.8594 54.9443 50.8594 55.2344C50.8594 55.5245 50.7441 55.8027 50.539 56.0078C50.3339 56.2129 50.0557 56.3281 49.7656 56.3281ZM37.7344 56.3281H32.2656C31.9755 56.3281 31.6973 56.2129 31.4922 56.0078C31.2871 55.8027 31.1719 55.5245 31.1719 55.2344C31.1719 54.9443 31.2871 54.6661 31.4922 54.461C31.6973 54.2559 31.9755 54.1406 32.2656 54.1406H37.7344C38.0245 54.1406 38.3027 54.2559 38.5078 54.461C38.7129 54.6661 38.8281 54.9443 38.8281 55.2344C38.8281 55.5245 38.7129 55.8027 38.5078 56.0078C38.3027 56.2129 38.0245 56.3281 37.7344 56.3281ZM30.0781 50.3125C29.788 50.3125 29.5098 50.1973 29.3047 49.9921C29.0996 49.787 28.9844 49.5088 28.9844 49.2188V32.8125C28.9844 32.5224 29.0996 32.2442 29.3047 32.0391C29.5098 31.834 29.788 31.7188 30.0781 31.7188H51.9531C52.2432 31.7188 52.5214 31.834 52.7265 32.0391C52.9316 32.2442 53.0469 32.5224 53.0469 32.8125V49.2188C53.0469 49.5088 52.9316 49.787 52.7265 49.9921C52.5214 50.1973 52.2432 50.3125 51.9531 50.3125H30.0781Z" fill="#B5E7F3"></path><path d="M49.7656 25.1562H50.8594V14.2188H49.7656C48.8954 14.2188 48.0608 14.5645 47.4454 15.1798C46.8301 15.7952 46.4844 16.6298 46.4844 17.5V21.875C46.4844 22.7452 46.8301 23.5798 47.4454 24.1952C48.0608 24.8105 48.8954 25.1562 49.7656 25.1562Z" fill="#B5E7F3"></path><path d="M31.1719 33.9062H50.8594V48.125H31.1719V33.9062Z" fill="#B5E7F3"></path><path d="M40.892 7.22537C38.7814 5.1754 36.2759 3.57601 33.528 2.52439C30.78 1.47277 27.8469 0.990886 24.9069 1.10803C13.2847 1.52037 3.82812 11.549 3.82812 23.4654V44.2969C3.82969 47.2967 5.00494 50.1769 7.10256 52.3214C9.20017 54.4659 12.0536 55.7045 15.0527 55.7724C18.0517 55.8403 20.9583 54.732 23.1507 52.6846C25.3432 50.6371 26.6476 47.8131 26.7848 44.8165C31.0474 44.6058 35.1552 43.1528 38.6022 40.6366C42.0493 38.1204 44.685 34.6508 46.1848 30.6552C47.6845 26.6597 47.9827 22.3127 47.0426 18.1498C46.1026 13.9869 43.9654 10.1898 40.8942 7.22647L40.892 7.22537ZM25.7031 42.6563C25.413 42.6563 25.1348 42.7715 24.9297 42.9767C24.7246 43.1818 24.6094 43.46 24.6094 43.7501V44.2969C24.6094 46.7626 23.6299 49.1273 21.8864 50.8708C20.1429 52.6143 17.7782 53.5938 15.3125 53.5938C12.8468 53.5938 10.4821 52.6143 8.73862 50.8708C6.99511 49.1273 6.01562 46.7626 6.01562 44.2969V23.4654C6.01562 12.7138 14.525 3.6685 24.9845 3.29334C27.596 3.2021 30.1994 3.63162 32.6432 4.55686C35.0869 5.48211 37.322 6.88456 39.2181 8.68247C41.1143 10.4804 42.6336 12.6378 43.6874 15.0289C44.7412 17.4199 45.3085 19.9969 45.3562 22.6095C45.4039 25.2221 44.9311 27.818 43.9652 30.246C42.9993 32.6739 41.5598 34.8853 39.7305 36.7513C37.9013 38.6172 35.7189 40.1003 33.3105 41.1141C30.9022 42.1279 28.3161 42.6522 25.7031 42.6563Z" fill="#151A6A"></path><path d="M41.0156 21.875C40.7255 21.875 40.4473 21.9902 40.2422 22.1954C40.0371 22.4005 39.9219 22.6787 39.9219 22.9688C39.9175 26.7385 38.4181 30.3525 35.7525 33.0181C33.0869 35.6837 29.4728 37.1832 25.7031 37.1875C25.413 37.1875 25.1348 37.3027 24.9297 37.5079C24.7246 37.713 24.6094 37.9912 24.6094 38.2812C24.6094 38.5713 24.7246 38.8495 24.9297 39.0546C25.1348 39.2598 25.413 39.375 25.7031 39.375C30.0528 39.3701 34.223 37.64 37.2987 34.5643C40.3744 31.4886 42.1045 27.3184 42.1094 22.9688C42.1094 22.6787 41.9941 22.4005 41.789 22.1954C41.5839 21.9902 41.3057 21.875 41.0156 21.875Z" fill="#151A6A"></path><path d="M20.2344 43.2031C19.9443 43.2031 19.6661 43.3184 19.461 43.5235C19.2559 43.7286 19.1406 44.0068 19.1406 44.2969C19.1406 45.3122 18.7373 46.2859 18.0194 47.0038C17.3015 47.7217 16.3278 48.125 15.3125 48.125C15.0224 48.125 14.7442 48.2402 14.5391 48.4454C14.334 48.6505 14.2188 48.9287 14.2188 49.2188C14.2188 49.5088 14.334 49.787 14.5391 49.9921C14.7442 50.1973 15.0224 50.3125 15.3125 50.3125C16.9073 50.3105 18.4362 49.676 19.564 48.5483C20.6917 47.4206 21.3261 45.8917 21.3281 44.2969C21.3281 44.0068 21.2129 43.7286 21.0078 43.5235C20.8027 43.3184 20.5245 43.2031 20.2344 43.2031Z" fill="#151A6A"></path><path d="M35.7995 14.5851C35.985 14.8081 36.2516 14.9484 36.5405 14.9749C36.8294 15.0015 37.117 14.9122 37.3401 14.7267C37.5632 14.5412 37.7034 14.2747 37.73 13.9858C37.7565 13.6969 37.6672 13.4092 37.4817 13.1862C35.4697 10.7641 32.76 9.02123 29.7216 8.1949C26.6833 7.36858 23.4641 7.499 20.5025 8.56841C17.541 9.63781 14.9811 11.5942 13.1716 14.1711C11.3621 16.7479 10.391 19.8199 10.3906 22.9687C10.3906 23.2587 10.5059 23.5369 10.711 23.7421C10.9161 23.9472 11.1943 24.0624 11.4844 24.0624C13.2249 24.0624 14.8941 24.7538 16.1248 25.9845C17.3555 27.2152 18.0469 28.8844 18.0469 30.6249C18.0469 32.3654 17.3555 34.0346 16.1248 35.2653C14.8941 36.496 13.2249 37.1874 11.4844 37.1874C11.1943 37.1874 10.9161 37.3026 10.711 37.5078C10.5059 37.7129 10.3906 37.9911 10.3906 38.2812C10.3906 38.5712 10.5059 38.8494 10.711 39.0546C10.9161 39.2597 11.1943 39.3749 11.4844 39.3749C13.7087 39.3778 15.8507 38.5335 17.4748 37.0136C19.0989 35.4937 20.0832 33.4123 20.2275 31.1926C20.3718 28.9729 19.6653 26.7816 18.2517 25.0642C16.8381 23.3468 14.8235 22.2322 12.6175 21.9471C12.8203 19.342 13.796 16.8568 15.4197 14.8095C17.0434 12.7623 19.2412 11.2463 21.7317 10.4557C24.2221 9.66513 26.8919 9.63588 29.3991 10.3717C31.9063 11.1076 34.1368 12.575 35.805 14.5862L35.7995 14.5851Z" fill="#151A6A"></path></svg>