<svg xmlns="http://www.w3.org/2000/svg" width="70" height="70" viewBox="0 0 70 70" fill="none"><path d="M43.7501 22.9688V33.9613C43.7501 34.1151 43.7176 34.2672 43.6548 34.4077C43.592 34.5482 43.5003 34.6738 43.3856 34.7764C43.271 34.8789 43.1359 34.9562 42.9894 35.003C42.8428 35.0498 42.688 35.0652 42.5351 35.0481C41.8739 34.9699 41.2038 35.066 40.5913 35.3268C39.9788 35.5877 39.4451 36.0041 39.0433 36.5349C38.6414 37.0658 38.3854 37.6924 38.3006 38.3528C38.2158 39.0131 38.3052 39.6841 38.5599 40.2992C38.8145 40.9144 39.2257 41.4522 39.7524 41.8593C40.2792 42.2665 40.9032 42.5287 41.5627 42.6202C42.2221 42.7116 42.894 42.6289 43.5117 42.3805C44.1293 42.132 44.6712 41.7263 45.0836 41.2036C45.1898 41.0814 45.321 40.9834 45.4683 40.9162C45.6156 40.849 45.7757 40.8143 45.9376 40.8143C46.0995 40.8143 46.2595 40.849 46.4068 40.9162C46.5542 40.9834 46.6853 41.0814 46.7915 41.2036C47.1998 41.7177 47.7339 42.1178 48.3421 42.365C48.9503 42.6123 49.612 42.6984 50.2632 42.6151C50.9144 42.5318 51.5331 42.2818 52.0594 41.8893C52.5857 41.4969 53.0018 40.9752 53.2675 40.3748C53.5332 39.7745 53.6394 39.1157 53.5759 38.4623C53.5125 37.8088 53.2814 37.1828 52.9052 36.6448C52.5289 36.1068 52.0202 35.6749 51.4282 35.3911C50.8362 35.1073 50.181 34.981 49.5259 35.0246L49.3401 35.0481C49.1872 35.0652 49.0324 35.0498 48.8858 35.003C48.7392 34.9561 48.6042 34.8789 48.4895 34.7763C48.3749 34.6738 48.2831 34.5481 48.2203 34.4077C48.1575 34.2672 48.1251 34.1151 48.1251 33.9613V22.9688H43.7501Z" fill="#B5E7F3"></path><path d="M48.125 68.9063V57.9133C48.125 57.7594 48.1575 57.6073 48.2203 57.4668C48.2831 57.3264 48.3749 57.2007 48.4895 57.0981C48.6042 56.9955 48.7392 56.9182 48.8857 56.8713C49.0323 56.8244 49.187 56.809 49.34 56.8259L49.5296 56.8505C50.1862 56.8953 50.8433 56.7697 51.4372 56.4859C52.031 56.202 52.5415 55.7696 52.919 55.2304C53.2965 54.6913 53.5284 54.0637 53.5921 53.4086C53.6557 52.7535 53.5491 52.0931 53.2824 51.4913C53.0158 50.8896 52.5982 50.3669 52.0701 49.974C51.542 49.5811 50.9214 49.3313 50.2684 49.2489C49.6154 49.1664 48.9522 49.254 48.343 49.5033C47.7338 49.7525 47.1994 50.1549 46.7915 50.6715C46.6853 50.7937 46.5541 50.8917 46.4068 50.9589C46.2594 51.026 46.0994 51.0608 45.9375 51.0608C45.7756 51.0608 45.6156 51.026 45.4682 50.9589C45.3209 50.8917 45.1897 50.7937 45.0835 50.6715C44.6754 50.1575 44.1415 49.7575 43.5335 49.5102C42.9255 49.2628 42.264 49.1766 41.6129 49.2597C40.9618 49.3429 40.3432 49.5926 39.8168 49.9847C39.2905 50.3769 38.8743 50.8982 38.6083 51.4983C38.3424 52.0984 38.2358 52.757 38.2989 53.4103C38.3619 54.0636 38.5925 54.6896 38.9683 55.2278C39.344 55.766 39.8523 56.1981 40.4439 56.4823C41.0355 56.7666 41.6905 56.8934 42.3454 56.8505L42.535 56.8259C42.6879 56.809 42.8427 56.8245 42.9892 56.8714C43.1358 56.9183 43.2708 56.9956 43.3854 57.0982C43.5001 57.2008 43.5918 57.3264 43.6546 57.4669C43.7174 57.6073 43.7499 57.7594 43.75 57.9133V68.9063H48.125Z" fill="#B5E7F3"></path><path d="M65.625 22.9688H50.3125V32.8371C51.8542 32.9778 53.2823 33.7075 54.2997 34.8743C55.3171 36.0411 55.8456 37.5552 55.7751 39.1017C55.7047 40.6482 55.0408 42.108 53.9215 43.1774C52.8022 44.2469 51.3137 44.8437 49.7656 44.8438C48.3646 44.8439 47.0087 44.3486 45.9375 43.4456C44.8663 44.3486 43.5104 44.8439 42.1094 44.8438C40.5613 44.8437 39.0728 44.2469 37.9535 43.1774C36.8342 42.108 36.1703 40.6482 36.0999 39.1017C36.0294 37.5552 36.5579 36.0411 37.5753 34.8743C38.5927 33.7075 40.0208 32.9778 41.5625 32.8371V22.9688H26.25C25.38 22.9697 24.546 23.3157 23.9309 23.9309C23.3157 24.546 22.9697 25.38 22.9688 26.25V65.625C22.9697 66.4949 23.3157 67.329 23.9309 67.9441C24.546 68.5593 25.38 68.9053 26.25 68.9062H41.5625V59.0379C40.0208 58.8972 38.5927 58.1675 37.5753 57.0007C36.5579 55.8339 36.0294 54.3198 36.0999 52.7733C36.1703 51.2268 36.8342 49.767 37.9535 48.6976C39.0728 47.6281 40.5613 47.0313 42.1094 47.0312C43.5104 47.0311 44.8663 47.5264 45.9375 48.4294C47.0087 47.5264 48.3646 47.0311 49.7656 47.0312C51.3137 47.0313 52.8022 47.6281 53.9215 48.6976C55.0408 49.767 55.7047 51.2268 55.7751 52.7733C55.8456 54.3198 55.3171 55.8339 54.2997 57.0007C53.2823 58.1675 51.8542 58.8972 50.3125 59.0379V68.9062H65.625C66.4949 68.9053 67.329 68.5593 67.9441 67.9441C68.5593 67.329 68.9053 66.4949 68.9062 65.625V26.25C68.9053 25.38 68.5593 24.546 67.9441 23.9309C67.329 23.3157 66.4949 22.9697 65.625 22.9688Z" fill="#B5E7F3"></path><path d="M50.3125 35H44.3258C44.3033 34.9788 44.2801 34.9587 44.2574 34.9378L44.9025 34.2945C45.5429 33.6562 45.9229 32.8025 45.9686 31.8995C46.0143 30.9964 45.7224 30.1087 45.1497 29.409C44.577 28.7094 43.7645 28.2478 42.8702 28.1141C41.976 27.9804 41.064 28.1842 40.3117 28.6858L35.7626 31.7188L25.1562 31.7203V16.4062C25.1542 15.7299 24.9428 15.0708 24.5511 14.5193C24.1594 13.9679 23.6067 13.5513 22.9688 13.3265V2.1875C22.9688 1.89742 22.8535 1.61922 22.6484 1.4141C22.4433 1.20898 22.1651 1.09375 21.875 1.09375H4.375C4.08492 1.09375 3.80672 1.20898 3.6016 1.4141C3.39648 1.61922 3.28125 1.89742 3.28125 2.1875V13.3265C2.64331 13.5513 2.09056 13.9679 1.69889 14.5193C1.30722 15.0708 1.09583 15.7299 1.09375 16.4062V45.9375C1.09669 48.5473 2.13474 51.0494 3.98017 52.8948C5.82559 54.7403 8.32768 55.7783 10.9375 55.7812H36.0938C38.5631 55.7818 40.9721 55.0176 42.9896 53.5938H50.3125C51.1335 53.6383 51.9389 53.3567 52.5534 52.8105C53.1679 52.2642 53.5418 51.4973 53.5938 50.6767V37.917C53.5418 37.0965 53.1679 36.3296 52.5534 35.7833C51.9389 35.237 51.1335 34.9555 50.3125 35ZM43.7194 49.9645L36.38 42.4934L40.8912 35.1625C42.1468 35.8613 43.2338 36.8271 44.0755 37.9917C44.9173 39.1563 45.4933 40.4914 45.763 41.9028C46.0326 43.3143 45.9894 44.7677 45.6363 46.1606C45.2832 47.5535 44.6289 48.852 43.7194 49.9645ZM22.3749 53.5938L10.9078 40.362L18.262 34.4784L28.7757 53.5938H22.3749ZM3.28125 30.2721L22.9688 22.3971V27.9121L3.28125 43.6616V30.2721ZM22.9688 16.4062V20.0404L13.5236 23.8184L7.5694 15.3125H21.875C22.165 15.3129 22.4429 15.4282 22.648 15.6333C22.853 15.8383 22.9684 16.1163 22.9688 16.4062ZM25.8692 43.7719L31.7472 33.9062H36.0938C37.0269 33.9077 37.955 34.0424 38.85 34.3063L29.2463 49.912L25.8692 43.7719ZM48.0696 42.6562H51.4062V45.9375H47.916C48.0523 45.2162 48.1223 44.484 48.125 43.75C48.125 43.3808 48.1023 43.0171 48.0696 42.6562ZM51.4062 37.917V40.4688H47.6586C47.3291 39.3058 46.8254 38.1995 46.1645 37.1875H50.3125C50.9571 37.1875 51.4062 37.572 51.4062 37.917ZM41.5251 30.5059C41.8255 30.3056 42.1898 30.2242 42.5469 30.2776C42.904 30.3309 43.2285 30.5153 43.4572 30.7948C43.6858 31.0742 43.8024 31.4288 43.784 31.7894C43.7657 32.15 43.6138 32.4909 43.358 32.7458L42.5106 33.5907C42.0468 33.2964 41.5633 33.0343 41.0635 32.8062L41.0594 32.8024L41.0432 32.7964C40.4192 32.5147 39.7721 32.2873 39.1091 32.1166L41.5251 30.5059ZM29.2014 33.9062L24.6473 41.55L19.9953 33.0917L22.9688 30.7129V31.7188C22.9693 32.2987 23.2 32.8548 23.6101 33.2649C24.0202 33.675 24.5763 33.9057 25.1562 33.9062H29.2014ZM5.46875 3.28125H20.7812V13.125H5.46875V3.28125ZM4.375 15.3125H4.89931L11.4376 24.6528L3.28125 27.9154V16.4062C3.28163 16.1163 3.39698 15.8383 3.60202 15.6333C3.80705 15.4282 4.08504 15.3129 4.375 15.3125ZM3.30682 46.4429L9.19776 41.7301L19.4793 53.5938H10.9375C8.99625 53.5905 7.12861 52.8504 5.71212 51.523C4.29563 50.1956 3.43594 48.3799 3.30682 46.4429ZM31.2711 53.5938L30.4586 52.1162L35.1987 44.4132L42.1527 51.492C40.4265 52.8533 38.2922 53.5937 36.0938 53.5938H31.2711ZM50.3125 51.4062H45.3672C46.1777 50.4212 46.8265 49.3137 47.2894 48.125H51.4062V50.6767C51.4062 51.0217 50.9571 51.4062 50.3125 51.4062Z" fill="#151A6A"></path></svg>