<svg xmlns="http://www.w3.org/2000/svg" xmlns:xlink="http://www.w3.org/1999/xlink" id="Capa_1" x="0px" y="0px" viewBox="0 0 140 140" style="enable-background:new 0 0 140 140;" xml:space="preserve"><style type="text/css">	.st0{fill:none;stroke:#5FBCD3;stroke-width:2;}	.st1{fill:#B5E7F3;}	.st2{fill:#151A6A;}</style><circle class="st0" cx="70" cy="70" r="69"></circle><path class="st1" d="M79.8,90.9v13h4.4v-7.7c0-1.3-0.4-2.5-1.2-3.5C82.2,91.8,81.1,91.1,79.8,90.9z"></path><path class="st1" d="M73.3,96.3v7.7h4.4v-13c-1.2,0.3-2.3,0.9-3.1,1.9C73.7,93.8,73.3,95,73.3,96.3z"></path><path class="st1" d="M101.3,76.8L79.4,59.3c-0.2-0.2-0.4-0.2-0.7-0.2s-0.5,0.1-0.7,0.2L56.2,76.8c-0.2,0.1-0.3,0.3-0.4,0.6 c-0.1,0.2-0.1,0.4,0,0.7c0.1,0.2,0.2,0.4,0.4,0.5c0.2,0.1,0.4,0.2,0.6,0.2h4.4v24.1c0,0.1,0,0.3,0.1,0.4c0.1,0.1,0.1,0.3,0.2,0.4 c0.1,0.1,0.2,0.2,0.4,0.2c0.1,0.1,0.3,0.1,0.4,0.1h8.7v-7.7c0-2,0.8-4,2.2-5.4c1.4-1.4,3.4-2.2,5.4-2.2c2,0,4,0.8,5.4,2.2 c1.4,1.4,2.2,3.4,2.2,5.4v7.7h8.8c0.1,0,0.3,0,0.4-0.1c0.1-0.1,0.3-0.1,0.4-0.2c0.1-0.1,0.2-0.2,0.2-0.4c0.1-0.1,0.1-0.3,0.1-0.4 V78.7h4.4c0.2,0,0.4-0.1,0.6-0.2c0.2-0.1,0.3-0.3,0.4-0.5c0.1-0.2,0.1-0.4,0-0.7C101.6,77.1,101.5,76.9,101.3,76.8z M87.5,78.7H70 c-0.3,0-0.6-0.1-0.8-0.3s-0.3-0.5-0.3-0.8c0-0.3,0.1-0.6,0.3-0.8c0.2-0.2,0.5-0.3,0.8-0.3h17.5c0.3,0,0.6,0.1,0.8,0.3 c0.2,0.2,0.3,0.5,0.3,0.8c0,0.3-0.1,0.6-0.3,0.8S87.8,78.7,87.5,78.7z"></path><path class="st2" d="M84.2,62.9c0-2.9-0.9-5.8-2.6-8.1c-1.7-2.4-4.2-4.1-7-4.9c1.3-1,2.2-2.3,2.7-3.9c0.5-1.5,0.4-3.2-0.1-4.7 c-0.5-1.5-1.5-2.9-2.8-3.8c-1.3-0.9-2.9-1.4-4.5-1.4c-1.6,0-3.2,0.6-4.5,1.5c-1.3,1-2.2,2.3-2.7,3.9c-0.5,1.5-0.4,3.2,0.1,4.7 s1.5,2.8,2.9,3.8c-1.6,0.6-3.1,1.4-4.4,2.5c-1.3-1.1-2.8-1.9-4.4-2.5c1.3-0.9,2.3-2.2,2.9-3.8c0.5-1.5,0.6-3.2,0.1-4.7 s-1.4-2.9-2.7-3.9c-1.3-1-2.9-1.5-4.5-1.5c-1.6,0-3.2,0.5-4.5,1.4c-1.3,0.9-2.3,2.3-2.9,3.8c-0.5,1.5-0.6,3.2-0.1,4.7 c0.5,1.5,1.4,2.9,2.7,3.9c-2.8,0.8-5.3,2.6-7,4.9c-1.7,2.4-2.7,5.2-2.6,8.1c0.1,3.8,1.6,7.4,4.3,10l14.8,14.5c1,1,2.4,1.6,3.9,1.6 c1.4,0,2.8-0.6,3.9-1.6l14.8-14.5C82.6,70.3,84.2,66.7,84.2,62.9z M82,62.9c0,2.1-0.6,4.2-1.7,6l-3.2-3.2c0.4-0.9,0.6-1.8,0.6-2.7 c0-0.3-0.1-0.6-0.3-0.8c-0.2-0.2-0.5-0.3-0.8-0.3s-0.6,0.1-0.8,0.3c-0.2,0.2-0.3,0.5-0.3,0.8c0,0.6-0.1,1.3-0.4,1.9 c-0.3,0.6-0.6,1.1-1.1,1.6l-3.9,3.8c-1.3-1.2-2.8-2.1-4.5-2.7c1.2-0.8,2.1-2,2.7-3.4c0.6-1.4,0.7-2.8,0.4-4.3 c-0.3-1.4-0.9-2.8-1.9-3.8s-2.3-1.8-3.7-2.2C70.8,48,82.1,53.3,82,62.9z M55.8,61.2c0-1.1,0.3-2.1,0.9-3c0.6-0.9,1.5-1.6,2.5-2 c1-0.4,2.1-0.5,3.2-0.3c1.1,0.2,2,0.7,2.8,1.5s1.3,1.7,1.5,2.8c0.2,1.1,0.1,2.2-0.3,3.2c-0.4,1-1.1,1.9-2,2.5c-0.9,0.6-2,0.9-3,0.9 c-1.4,0-2.8-0.6-3.9-1.6S55.8,62.7,55.8,61.2z M64.5,43.7c0-1.1,0.3-2.1,0.9-3s1.5-1.6,2.5-2c1-0.4,2.1-0.5,3.2-0.3 c1.1,0.2,2,0.7,2.8,1.5s1.3,1.7,1.5,2.8c0.2,1.1,0.1,2.2-0.3,3.2c-0.4,1-1.1,1.9-2,2.5s-2,0.9-3,0.9c-1.4,0-2.8-0.6-3.9-1.6 S64.5,45.2,64.5,43.7z M47,43.7c0-1.1,0.3-2.1,0.9-3c0.6-0.9,1.5-1.6,2.5-2c1-0.4,2.1-0.5,3.2-0.3c1.1,0.2,2,0.7,2.8,1.5 c0.8,0.8,1.3,1.7,1.5,2.8c0.2,1.1,0.1,2.2-0.3,3.2c-0.4,1-1.1,1.9-2,2.5s-2,0.9-3,0.9c-1.4,0-2.8-0.6-3.9-1.6S47,45.2,47,43.7z  M52.1,51.4c2.6,0,5.2,0.9,7.2,2.4C58,54.2,56.7,55,55.7,56c-1,1.1-1.7,2.4-1.9,3.8c-0.3,1.4-0.1,2.9,0.4,4.3 c0.6,1.4,1.5,2.5,2.7,3.4c-1.7,0.6-3.2,1.5-4.5,2.7l-3.9-3.8c-0.5-0.5-0.8-1-1.1-1.6c-0.3-0.6-0.4-1.2-0.4-1.9 c0-0.3-0.1-0.6-0.3-0.8c-0.2-0.2-0.5-0.3-0.8-0.3c-0.3,0-0.6,0.1-0.8,0.3c-0.2,0.2-0.3,0.5-0.3,0.8c0,0.9,0.2,1.9,0.6,2.7l-3.2,3.2 c-1.1-1.8-1.7-3.9-1.7-6c0-1.5,0.3-3,0.9-4.4c0.6-1.4,1.5-2.7,2.5-3.8c1.1-1.1,2.4-1.9,3.8-2.5C49.1,51.6,50.6,51.4,52.1,51.4z  M43.5,70.7l3.1-3.1c0.4,0.5,0.5,0.5,7.2,7.1c0.4,0.4,0.7,1,0.7,1.5c0,0.6-0.2,1.1-0.6,1.6c-0.4,0.4-1,0.7-1.5,0.7 c-0.6,0-1.1-0.2-1.6-0.6C43.6,70.8,44.2,71.6,43.5,70.7z M63.6,85.9c-0.6,0.6-1.5,0.9-2.3,0.9c-0.9,0-1.7-0.3-2.3-0.9l-5.5-5.4 c0.8-0.2,1.5-0.6,2-1.2c0.8-0.8,1.2-1.9,1.2-3.1c0-1.1-0.5-2.2-1.3-3l-1.4-1.4c2-1.8,4.6-2.8,7.3-2.8c2.7,0,5.3,1,7.3,2.8l-1.4,1.4 c-0.8,0.8-1.3,1.9-1.3,3c0,1.1,0.4,2.3,1.2,3.1c0.6,0.6,1.3,1,2,1.2L63.6,85.9z M71.8,77.9c-0.4,0.4-1,0.6-1.6,0.6 c-0.6,0-1.1-0.2-1.5-0.7c-0.4-0.4-0.6-1-0.6-1.6c0-0.6,0.2-1.1,0.7-1.5c7.4-7.3,6.8-6.6,7.2-7.1l3.1,3.1 C78.3,71.6,78.9,70.8,71.8,77.9z"></path></svg>