<svg xmlns="http://www.w3.org/2000/svg" width="70" height="70" viewBox="0 0 70 70" fill="none"><path d="M65.625 26.7969H37.1875C36.3175 26.7978 35.4835 27.1438 34.8684 27.759C34.2532 28.3741 33.9072 29.2082 33.9062 30.0781V65.0781C33.9072 65.9481 34.2532 66.7821 34.8684 67.3973C35.4835 68.0124 36.3175 68.3584 37.1875 68.3594H57.9688C58.2594 68.3587 58.5379 68.243 58.7435 68.0375L68.5844 58.1966C68.7899 57.9911 68.9056 57.7125 68.9062 57.4219V30.0781C68.9053 29.2082 68.5593 28.3741 67.9441 27.759C67.329 27.1438 66.4949 26.7978 65.625 26.7969ZM62.3438 42.9405C62.3438 43.0842 62.3156 43.2264 62.2607 43.3592C62.2057 43.4919 62.1252 43.6125 62.0236 43.7141C61.922 43.8157 61.8014 43.8962 61.6687 43.9512C61.5359 44.0061 61.3937 44.0343 61.25 44.0343H51.4062C51.1162 44.0343 50.838 43.919 50.6329 43.7139C50.4277 43.5088 50.3125 43.2306 50.3125 42.9405C50.3125 42.6504 50.4277 42.3722 50.6329 42.1671C50.838 41.962 51.1162 41.8468 51.4062 41.8468H61.25C61.3937 41.8467 61.5359 41.8749 61.6687 41.9298C61.8014 41.9848 61.922 42.0653 62.0236 42.1669C62.1252 42.2685 62.2057 42.3891 62.2607 42.5218C62.3156 42.6546 62.3438 42.7968 62.3438 42.9405ZM44.8438 33.3594H57.9688C58.2588 33.3594 58.537 33.4746 58.7421 33.6797C58.9473 33.8848 59.0625 34.163 59.0625 34.4531C59.0625 34.7432 58.9473 35.0214 58.7421 35.2265C58.537 35.4316 58.2588 35.5469 57.9688 35.5469H44.8438C44.5537 35.5469 44.2755 35.4316 44.0704 35.2265C43.8652 35.0214 43.75 34.7432 43.75 34.4531C43.75 34.163 43.8652 33.8848 44.0704 33.6797C44.2755 33.4746 44.5537 33.3594 44.8438 33.3594ZM49.3501 50.4216L44.6248 56.7213C44.5199 56.8613 44.383 56.9741 44.2255 57.0502C44.068 57.1264 43.8945 57.1636 43.7197 57.1588C43.5448 57.1539 43.3736 57.1072 43.2206 57.0226C43.0675 56.9379 42.937 56.8178 42.84 56.6722L40.6525 53.3909C40.4944 53.1496 40.4382 52.8555 40.496 52.5729C40.5537 52.2902 40.7208 52.0419 40.9608 51.8818C41.2009 51.7218 41.4944 51.6631 41.7776 51.7185C42.0607 51.7739 42.3105 51.9389 42.4725 52.1776L43.8023 54.1728L47.6005 49.1099C47.7745 48.8779 48.0334 48.7245 48.3205 48.6835C48.6075 48.6424 48.8991 48.717 49.1311 48.891C49.3631 49.0649 49.5166 49.3239 49.5576 49.6109C49.5987 49.898 49.5241 50.1896 49.3501 50.4216ZM49.3501 40.5778L44.6248 46.8776C44.5199 47.0176 44.383 47.1304 44.2255 47.2065C44.068 47.2826 43.8945 47.3198 43.7197 47.315C43.5448 47.3102 43.3736 47.2635 43.2206 47.1788C43.0675 47.0942 42.937 46.974 42.84 46.8284L40.6525 43.5472C40.5714 43.4277 40.5147 43.2934 40.4858 43.1519C40.4569 43.0104 40.4563 42.8646 40.484 42.7229C40.5117 42.5812 40.5672 42.4463 40.6473 42.3262C40.7274 42.206 40.8305 42.1029 40.9507 42.0228C41.0708 41.9427 41.2057 41.8872 41.3474 41.8595C41.4891 41.8318 41.6349 41.8324 41.7764 41.8613C41.9179 41.8902 42.0522 41.9468 42.1717 42.0279C42.2912 42.109 42.3934 42.213 42.4725 42.3338L43.8023 44.3291L47.6005 39.2662C47.7745 39.0342 48.0334 38.8808 48.3205 38.8397C48.6075 38.7986 48.8991 38.8733 49.1311 39.0472C49.3631 39.2212 49.5166 39.4801 49.5576 39.7672C49.5987 40.0542 49.5241 40.3458 49.3501 40.5778ZM51.4062 53.878C51.1162 53.878 50.838 53.7628 50.6329 53.5577C50.4277 53.3525 50.3125 53.0743 50.3125 52.7843C50.3125 52.4942 50.4277 52.216 50.6329 52.0109C50.838 51.8057 51.1162 51.6905 51.4062 51.6905H61.25C61.5401 51.6905 61.8183 51.8057 62.0234 52.0109C62.2285 52.216 62.3438 52.4942 62.3438 52.7843C62.3438 53.0743 62.2285 53.3525 62.0234 53.5577C61.8183 53.7628 61.5401 53.878 61.25 53.878H51.4062ZM59.0625 64.6252V59.6094C59.0627 59.3194 59.178 59.0413 59.3831 58.8362C59.5881 58.6311 59.8662 58.5158 60.1562 58.5156H65.1721L59.0625 64.6252Z" fill="#B5E7F3"></path><path d="M23.5156 43.2032C25.2537 43.2357 26.9637 42.7622 28.4375 41.8403C29.9113 42.7622 31.6213 43.2357 33.3594 43.2032C38.8335 43.2032 42.6562 37.3564 42.6562 28.9845C42.6562 24.1828 40.0201 20.6938 35.6056 19.6513C33.4715 19.0942 31.2093 19.307 29.2165 20.2522C28.7963 18.999 28.0955 17.8584 27.1675 16.9173C26.2395 15.9762 25.1088 15.2595 23.8617 14.8218C23.5865 14.73 23.2861 14.7513 23.0266 14.881C22.7671 15.0107 22.5697 15.2382 22.478 15.5134C22.3862 15.7886 22.4075 16.089 22.5372 16.3485C22.6669 16.608 22.8943 16.8054 23.1696 16.8972C24.6432 17.453 25.8864 18.4895 26.6984 19.839C24.9413 19.2737 23.0614 19.2087 21.2694 19.6513C16.8549 20.6938 14.2188 24.1828 14.2188 28.9845C14.2188 37.3564 18.0415 43.2032 23.5156 43.2032ZM21.7714 21.7806C24.3498 21.1707 26.9475 21.8885 27.4591 22.9112C27.5049 23.0022 27.5653 23.0852 27.6379 23.1568C27.7383 23.2697 27.8614 23.3601 27.9992 23.422C28.1371 23.4839 28.2864 23.5159 28.4375 23.5159C28.5886 23.5159 28.7379 23.4839 28.8758 23.422C29.0136 23.3601 29.1367 23.2697 29.2371 23.1568C29.3097 23.0852 29.3701 23.0022 29.4159 22.9112C29.9275 21.8885 32.5262 21.1707 35.1036 21.7806C36.7165 22.1614 40.4688 23.6258 40.4688 28.9845C40.4688 36.0682 37.5453 41.0157 33.3594 41.0157C31.859 41.0943 30.3816 40.6226 29.2044 39.6891C28.9986 39.4909 28.7242 39.38 28.4385 39.3796C28.1528 39.3792 27.878 39.4893 27.6717 39.687C26.4952 40.6228 25.0168 41.0954 23.5156 41.0157C19.3297 41.0157 16.4062 36.0682 16.4062 28.9845C16.4062 23.6258 20.1585 22.1614 21.7714 21.7806Z" fill="#151A6A"></path><path d="M33.7492 25.9611C34.3238 25.9646 34.8763 26.1835 35.2973 26.5746C35.7184 26.9656 35.9774 27.5004 36.0232 28.0733C36.0717 28.3594 36.2318 28.6145 36.4683 28.7826C36.7049 28.9506 36.9986 29.0178 37.2847 28.9694C37.5708 28.921 37.8259 28.7608 37.994 28.5243C38.162 28.2877 38.2292 27.9941 38.1808 27.7079C38.0541 26.6683 37.5661 25.7063 36.8022 24.9899C36.0382 24.2735 35.0469 23.8482 34.0013 23.7885C33.7135 23.7558 33.4246 23.8385 33.1978 24.0186C32.971 24.1987 32.8248 24.4614 32.7915 24.749C32.7581 25.0367 32.8402 25.3258 33.0197 25.5531C33.1993 25.7803 33.4616 25.927 33.7492 25.9611Z" fill="#151A6A"></path><path d="M28.4375 56.3281C33.8456 56.3281 39.1322 54.7245 43.6289 51.7199C48.1255 48.7153 51.6302 44.4448 53.6998 39.4484C55.7694 34.452 56.3109 28.9541 55.2558 23.6499C54.2008 18.3457 51.5965 13.4735 47.7724 9.64944C43.9484 5.82534 39.0762 3.2211 33.772 2.16604C28.4678 1.11098 22.9699 1.65247 17.9735 3.72206C12.9771 5.79164 8.70657 9.29636 5.702 13.793C2.69743 18.2897 1.09375 23.5763 1.09375 28.9844C1.1019 36.2339 3.98537 43.1842 9.11156 48.3103C14.2377 53.4365 21.188 56.32 28.4375 56.3281ZM3.30895 30.0781H6.61791C6.89354 35.4858 9.16563 40.5988 12.9944 44.4275C16.8231 48.2563 21.9361 50.5283 27.3438 50.804V54.1129C21.0596 53.8321 15.1081 51.2097 10.6601 46.7618C6.21215 42.3138 3.58978 36.3623 3.30895 30.0781ZM10.9375 27.8906H8.80541C9.07865 23.0629 11.1195 18.5047 14.5387 15.0856C17.9578 11.6664 22.516 9.62553 27.3438 9.3523V12.5781C27.3438 12.8682 27.459 13.1464 27.6641 13.3515C27.8692 13.5567 28.1474 13.6719 28.4375 13.6719C28.7276 13.6719 29.0058 13.5567 29.2109 13.3515C29.416 13.1464 29.5312 12.8682 29.5312 12.5781V9.3523C34.359 9.62553 38.9172 11.6664 42.3363 15.0856C45.7555 18.5047 47.7964 23.0629 48.0696 27.8906H45.9375C45.6474 27.8906 45.3692 28.0059 45.1641 28.211C44.959 28.4161 44.8438 28.6943 44.8438 28.9844C44.8438 29.2745 44.959 29.5527 45.1641 29.7578C45.3692 29.9629 45.6474 30.0781 45.9375 30.0781H48.0696C47.7963 34.9058 45.7554 39.464 42.3362 42.8831C38.9171 46.3023 34.3589 48.3431 29.5312 48.6165V46.4844C29.5312 46.1943 29.416 45.9161 29.2109 45.711C29.0058 45.5059 28.7276 45.3906 28.4375 45.3906C28.1474 45.3906 27.8692 45.5059 27.6641 45.711C27.459 45.9161 27.3438 46.1943 27.3438 46.4844V48.6165C22.5161 48.3431 17.9579 46.3023 14.5388 42.8831C11.1196 39.464 9.07875 34.9058 8.80541 30.0781H10.9375C11.2276 30.0781 11.5058 29.9629 11.7109 29.7578C11.916 29.5527 12.0312 29.2745 12.0312 28.9844C12.0312 28.6943 11.916 28.4161 11.7109 28.211C11.5058 28.0059 11.2276 27.8906 10.9375 27.8906ZM29.5312 54.1129V50.804C34.9389 50.5283 40.0519 48.2563 43.8806 44.4275C47.7094 40.5988 49.9815 35.4858 50.2571 30.0781H53.566C53.2852 36.3623 50.6628 42.3138 46.2149 46.7618C41.7669 51.2097 35.8154 53.8321 29.5312 54.1129ZM53.566 27.8906H50.2571C49.9814 22.483 47.7093 17.37 43.8806 13.5413C40.0519 9.71261 34.9388 7.4405 29.5312 7.1648V3.85584C35.8153 4.13677 41.7668 6.75918 46.2148 11.2071C50.6627 15.6551 53.2851 21.6066 53.566 27.8906ZM27.3438 3.85584V7.1648C21.9362 7.4405 16.8231 9.71261 12.9944 13.5413C9.16572 17.37 6.89361 22.483 6.61791 27.8906H3.30895C3.58989 21.6066 6.2123 15.6551 10.6602 11.2071C15.1082 6.75918 21.0597 4.13677 27.3438 3.85584Z" fill="#151A6A"></path></svg>