<svg xmlns="http://www.w3.org/2000/svg" width="70" height="70" viewBox="0 0 70 70" fill="none"><path d="M35 68.3594C35.2901 68.3594 35.5683 68.2441 35.7734 68.039C35.9785 67.8339 36.0938 67.5557 36.0938 67.2656V66.1719H27.3438V67.2656C27.3438 67.5557 27.459 67.8339 27.6641 68.039C27.8692 68.2441 28.1474 68.3594 28.4375 68.3594H35Z" fill="#B5E7F3"></path><path d="M54.6875 68.3594H61.25C61.5401 68.3594 61.8183 68.2441 62.0234 68.039C62.2285 67.8339 62.3438 67.5557 62.3438 67.2656V66.1719H53.5938V67.2656C53.5938 67.5557 53.709 67.8339 53.9141 68.039C54.1192 68.2441 54.3974 68.3594 54.6875 68.3594Z" fill="#B5E7F3"></path><path d="M65.625 25.7031H24.0625C23.1923 25.7031 22.3577 26.0488 21.7423 26.6642C21.127 27.2795 20.7813 28.1141 20.7812 28.9844V60.7031C20.7813 61.5734 21.127 62.408 21.7423 63.0233C22.3577 63.6387 23.1923 63.9844 24.0625 63.9844H65.625C66.4952 63.9844 67.3298 63.6387 67.9452 63.0233C68.5605 62.408 68.9062 61.5734 68.9062 60.7031V28.9844C68.9062 28.1141 68.5605 27.2795 67.9452 26.6642C67.3298 26.0488 66.4952 25.7031 65.625 25.7031ZM28.4375 38.8281H37.6053L40.5781 32.8705C40.6792 32.701 40.8225 32.5606 40.9941 32.4631C41.1657 32.3657 41.3597 32.3144 41.557 32.3144C41.7544 32.3144 41.9483 32.3657 42.1199 32.4631C42.2915 32.5606 42.4349 32.701 42.5359 32.8705L48.125 44.0387L50.4219 39.433C50.5131 39.2503 50.6537 39.0969 50.8277 38.99C51.0016 38.8831 51.2021 38.827 51.4062 38.8281H61.25C61.5401 38.8281 61.8183 38.9434 62.0234 39.1485C62.2285 39.3536 62.3438 39.6318 62.3438 39.9219C62.3438 40.212 62.2285 40.4902 62.0234 40.6953C61.8183 40.9004 61.5401 41.0156 61.25 41.0156H52.0822L49.1094 46.9733C49.0187 47.1553 48.879 47.3084 48.7061 47.4154C48.5332 47.5224 48.3338 47.5791 48.1305 47.5791C47.9271 47.5791 47.7278 47.5224 47.5549 47.4154C47.3819 47.3084 47.2423 47.1553 47.1516 46.9733L41.5625 35.805L39.2656 40.4108C39.1744 40.5934 39.0338 40.7469 38.8598 40.8538C38.6859 40.9607 38.4854 41.0167 38.2812 41.0156H28.4375C28.1474 41.0156 27.8692 40.9004 27.6641 40.6953C27.459 40.4902 27.3438 40.212 27.3438 39.9219C27.3438 39.6318 27.459 39.3536 27.6641 39.1485C27.8692 38.9434 28.1474 38.8281 28.4375 38.8281ZM35 59.6094H28.4375C28.1474 59.6094 27.8692 59.4941 27.6641 59.289C27.459 59.0839 27.3438 58.8057 27.3438 58.5156C27.3438 58.2255 27.459 57.9473 27.6641 57.7422C27.8692 57.5371 28.1474 57.4219 28.4375 57.4219H35C35.2901 57.4219 35.5683 57.5371 35.7734 57.7422C35.9785 57.9473 36.0938 58.2255 36.0938 58.5156C36.0938 58.8057 35.9785 59.0839 35.7734 59.289C35.5683 59.4941 35.2901 59.6094 35 59.6094ZM42.6562 59.6094H40.4688C40.1787 59.6094 39.9005 59.4941 39.6954 59.289C39.4902 59.0839 39.375 58.8057 39.375 58.5156C39.375 58.2255 39.4902 57.9473 39.6954 57.7422C39.9005 57.5371 40.1787 57.4219 40.4688 57.4219H42.6562C42.9463 57.4219 43.2245 57.5371 43.4296 57.7422C43.6348 57.9473 43.75 58.2255 43.75 58.5156C43.75 58.8057 43.6348 59.0839 43.4296 59.289C43.2245 59.4941 42.9463 59.6094 42.6562 59.6094ZM49.2188 59.6094H47.0312C46.7412 59.6094 46.463 59.4941 46.2579 59.289C46.0527 59.0839 45.9375 58.8057 45.9375 58.5156C45.9375 58.2255 46.0527 57.9473 46.2579 57.7422C46.463 57.5371 46.7412 57.4219 47.0312 57.4219H49.2188C49.5088 57.4219 49.787 57.5371 49.9921 57.7422C50.1973 57.9473 50.3125 58.2255 50.3125 58.5156C50.3125 58.8057 50.1973 59.0839 49.9921 59.289C49.787 59.4941 49.5088 59.6094 49.2188 59.6094ZM61.25 59.6094H54.6875C54.3974 59.6094 54.1192 59.4941 53.9141 59.289C53.709 59.0839 53.5938 58.8057 53.5938 58.5156C53.5938 58.2255 53.709 57.9473 53.9141 57.7422C54.1192 57.5371 54.3974 57.4219 54.6875 57.4219H61.25C61.5401 57.4219 61.8183 57.5371 62.0234 57.7422C62.2285 57.9473 62.3438 58.2255 62.3438 58.5156C62.3438 58.8057 62.2285 59.0839 62.0234 59.289C61.8183 59.4941 61.5401 59.6094 61.25 59.6094ZM65.625 54.0805L24.0625 54.1406C23.7724 54.1406 23.4942 54.0254 23.2891 53.8203C23.084 53.6152 22.9688 53.337 22.9688 53.0469C22.9688 52.7568 23.084 52.4786 23.2891 52.2735C23.4942 52.0684 23.7724 51.9531 24.0625 51.9531L65.625 51.893C65.9151 51.893 66.1933 52.0082 66.3984 52.2133C66.6035 52.4184 66.7188 52.6966 66.7188 52.9867C66.7188 53.2768 66.6035 53.555 66.3984 53.7601C66.1933 53.9652 65.9151 54.0805 65.625 54.0805Z" fill="#B5E7F3"></path><path d="M27.9158 51.8208C28.0759 51.9077 28.2553 51.9532 28.4375 51.9532C28.6197 51.9532 28.7991 51.9077 28.9592 51.8208C52.2966 39.1694 55.7812 25.6867 55.7812 18.7764C55.7812 9.16672 49.5359 1.64062 41.5625 1.64062C39.032 1.66931 36.54 2.26371 34.2689 3.3803C31.9979 4.49688 30.0055 6.10736 28.4375 8.09375C26.8695 6.10736 24.8771 4.49688 22.6061 3.3803C20.335 2.26371 17.843 1.66931 15.3125 1.64062C7.33906 1.64063 1.09375 9.16672 1.09375 18.7764C1.09375 25.6867 4.57844 39.1694 27.9158 51.8208ZM3.28125 18.7764C3.28125 10.2539 8.45359 3.82812 15.3125 3.82812C23.2717 3.82812 27.4531 10.4409 27.5045 10.5252C27.6023 10.6847 27.7394 10.8164 27.9027 10.9078C28.0659 10.9992 28.2499 11.0472 28.437 11.0472C28.624 11.0472 28.808 10.9992 28.9713 10.9078C29.1345 10.8164 29.2716 10.6847 29.3694 10.5252C29.4109 10.4584 33.5923 3.82812 41.5625 3.82812C48.4214 3.82812 53.5938 10.2539 53.5938 18.7764C53.5766 21.1358 53.1701 23.4762 52.3906 25.7031H38.9572L35.9844 19.7455C35.8878 19.5517 35.7358 19.3909 35.5478 19.2836C35.3597 19.1762 35.144 19.1271 34.928 19.1424C34.712 19.1578 34.5054 19.2369 34.3344 19.3698C34.1634 19.5026 34.0357 19.6832 33.9675 19.8888L28.5873 36.0128L22.9359 13.4061C22.8767 13.1696 22.7401 12.9597 22.5479 12.8097C22.3556 12.6597 22.1188 12.5782 21.875 12.5782C21.6312 12.5782 21.3944 12.6597 21.2021 12.8097C21.0099 12.9597 20.8733 13.1696 20.8141 13.4061L17.7395 25.7031H4.48984C3.70849 23.4765 3.30013 21.1361 3.28125 18.7764ZM18.5938 27.8906C18.8376 27.8906 19.0744 27.8091 19.2666 27.6591C19.4589 27.5091 19.5954 27.2992 19.6547 27.0627L21.875 18.1814L27.3766 40.1877C27.434 40.4174 27.5645 40.6222 27.7483 40.7715C27.9321 40.9207 28.1594 41.0062 28.3961 41.0152C28.6327 41.0242 28.8658 40.9562 29.0605 40.8214C29.2551 40.6865 29.4007 40.4922 29.4755 40.2675L35.2023 23.0847L37.3023 27.2858C37.3936 27.4684 37.5342 27.6219 37.7082 27.7288C37.8821 27.8357 38.0825 27.8917 38.2867 27.8906H51.5211C48.6992 34.1972 42.3095 41.988 28.443 49.6136C14.5655 41.988 8.17578 34.1972 5.35391 27.8906H18.5938Z" fill="#151A6A"></path></svg>