<svg xmlns="http://www.w3.org/2000/svg" width="70" height="70" viewBox="0 0 70 70" fill="none"><path d="M45.9375 20.7812C41.3947 20.7812 36.9539 22.1283 33.1768 24.6522C29.3996 27.176 26.4556 30.7632 24.7172 34.9602C22.9787 39.1572 22.5238 43.7755 23.4101 48.231C24.2964 52.6865 26.4839 56.7791 29.6962 59.9914C32.9084 63.2036 37.001 65.3912 41.4565 66.2774C45.912 67.1637 50.5303 66.7088 54.7273 64.9704C58.9243 63.2319 62.5115 60.2879 65.0353 56.5108C67.5592 52.7336 68.9063 48.2928 68.9063 43.75C68.8996 37.6604 66.4775 31.822 62.1715 27.516C57.8655 23.21 52.0272 20.7879 45.9375 20.7812ZM63.4375 44.8438H59.0625C58.8137 44.8437 58.5723 44.7588 58.3783 44.6031C58.1842 44.4474 58.049 44.2302 57.995 43.9873L56.9308 39.2011L54.6656 50.5312C54.6176 50.7703 54.491 50.9865 54.306 51.1454C54.121 51.3043 53.8882 51.3968 53.6446 51.4083C53.401 51.4197 53.1606 51.3494 52.9615 51.2085C52.7625 51.0677 52.6162 50.8643 52.5459 50.6308L50.0577 42.3281L49.1094 44.2389C49.0181 44.4216 48.8775 44.575 48.7036 44.6819C48.5296 44.7888 48.3292 44.8449 48.125 44.8438H42.3511L39.3192 53.9394C39.2406 54.1754 39.0838 54.3776 38.8748 54.5126C38.6658 54.6476 38.417 54.7072 38.1695 54.6817C37.922 54.6562 37.6906 54.5471 37.5134 54.3724C37.3363 54.1977 37.224 53.9678 37.1952 53.7206L35.5349 39.6112L33.8374 44.1383C33.7584 44.3461 33.6181 44.5249 33.435 44.6509C33.2519 44.777 33.0348 44.8442 32.8125 44.8438H28.4375C28.1474 44.8438 27.8692 44.7285 27.6641 44.5234C27.459 44.3183 27.3438 44.0401 27.3438 43.75C27.3438 43.4599 27.459 43.1817 27.6641 42.9766C27.8692 42.7715 28.1474 42.6562 28.4375 42.6562H32.0545L35.0689 34.6161C35.1548 34.3862 35.3156 34.1918 35.5253 34.0643C35.735 33.9368 35.9815 33.8836 36.2251 33.9131C36.4688 33.9426 36.6954 34.0533 36.8686 34.2272C37.0417 34.4011 37.1514 34.6283 37.1799 34.872L38.7942 48.5953L40.5245 43.4044C40.5971 43.1865 40.7364 42.997 40.9227 42.8627C41.109 42.7284 41.3329 42.6562 41.5625 42.6562H47.4491L49.3336 38.8861C49.4315 38.6898 49.5862 38.5275 49.7775 38.4202C49.9688 38.313 50.1879 38.2657 50.4065 38.2846C50.625 38.3034 50.8328 38.3876 51.0029 38.526C51.173 38.6645 51.2975 38.8509 51.3603 39.0611L53.3816 45.7986L55.8031 33.6875C55.8527 33.4419 55.985 33.2208 56.178 33.0612C56.3711 32.9015 56.613 32.8129 56.8635 32.8102C57.114 32.8075 57.3578 32.8909 57.5542 33.0464C57.7506 33.2019 57.8877 33.4201 57.9425 33.6645L59.9375 42.6562H63.4375C63.7276 42.6562 64.0058 42.7715 64.2109 42.9766C64.416 43.1817 64.5313 43.4599 64.5313 43.75C64.5313 44.0401 64.416 44.3183 64.2109 44.5234C64.0058 44.7285 63.7276 44.8438 63.4375 44.8438Z" fill="#B5E7F3"></path><path d="M39.6628 3.2867C35.5249 3.17059 31.4976 4.63215 28.3972 7.37514C25.2992 4.6282 21.2703 3.16605 17.1316 3.2867C2.81111 3.62576 -4.49186 21.0087 6.18095 31.6662L26.0872 51.5419C26.7023 52.155 27.5353 52.4993 28.4038 52.4993C29.2722 52.4993 30.1053 52.155 30.7203 51.5419L50.6266 31.6662C61.2863 21.0109 53.9877 3.62576 39.6628 3.2867ZM49.0691 30.1186L29.1694 49.9942C28.9645 50.1979 28.6873 50.3123 28.3983 50.3123C28.1093 50.3123 27.8321 50.1979 27.6272 49.9942L7.72642 30.1186C-1.25436 21.1498 4.44517 5.77607 17.1852 5.4731C19.1181 5.41982 21.0415 5.76272 22.8369 6.4807C24.6323 7.19868 26.2618 8.27655 27.625 9.64795C27.8301 9.85299 28.1083 9.96818 28.3983 9.96818C28.6883 9.96818 28.9665 9.85299 29.1716 9.64795C30.534 8.27518 32.1632 7.19612 33.9588 6.47734C35.7543 5.75856 37.6781 5.4153 39.6114 5.46873C52.3525 5.77607 58.0477 21.152 49.0691 30.1186Z" fill="#151A6A"></path><path d="M38.2422 21.875H32.7734V16.4062C32.7734 16.1162 32.6582 15.838 32.4531 15.6329C32.248 15.4277 31.9698 15.3125 31.6797 15.3125H25.1172C24.8271 15.3125 24.5489 15.4277 24.3438 15.6329C24.1387 15.838 24.0234 16.1162 24.0234 16.4062V21.875H18.5547C18.2646 21.875 17.9864 21.9902 17.7813 22.1954C17.5762 22.4005 17.4609 22.6787 17.4609 22.9688V29.5312C17.4609 29.8213 17.5762 30.0995 17.7813 30.3046C17.9864 30.5098 18.2646 30.625 18.5547 30.625H24.0234V36.0938C24.0234 36.3838 24.1387 36.662 24.3438 36.8671C24.5489 37.0723 24.8271 37.1875 25.1172 37.1875H31.6797C31.9698 37.1875 32.248 37.0723 32.4531 36.8671C32.6582 36.662 32.7734 36.3838 32.7734 36.0938V30.625H38.2422C38.5323 30.625 38.8105 30.5098 39.0156 30.3046C39.2207 30.0995 39.3359 29.8213 39.3359 29.5312V22.9688C39.3359 22.6787 39.2207 22.4005 39.0156 22.1954C38.8105 21.9902 38.5323 21.875 38.2422 21.875ZM37.1484 28.4375H31.6797C31.3896 28.4375 31.1114 28.5527 30.9063 28.7579C30.7012 28.963 30.5859 29.2412 30.5859 29.5312V35H26.2109V29.5312C26.2109 29.2412 26.0957 28.963 25.8906 28.7579C25.6855 28.5527 25.4073 28.4375 25.1172 28.4375H19.6484V24.0625H25.1172C25.4073 24.0625 25.6855 23.9473 25.8906 23.7421C26.0957 23.537 26.2109 23.2588 26.2109 22.9688V17.5H30.5859V22.9688C30.5859 23.2588 30.7012 23.537 30.9063 23.7421C31.1114 23.9473 31.3896 24.0625 31.6797 24.0625H37.1484V28.4375Z" fill="#151A6A"></path></svg>