<svg xmlns="http://www.w3.org/2000/svg" width="70" height="70" viewBox="0 0 70 70" fill="none"><path d="M27.8626 60.4166L30.1879 58.0956C30.3942 57.8964 30.6705 57.7861 30.9572 57.7886C31.244 57.7911 31.5183 57.9062 31.7211 58.109C31.9239 58.3117 32.0389 58.5861 32.0414 58.8728C32.0439 59.1596 31.9337 59.4359 31.7345 59.6422L29.4146 61.9631C29.3131 62.065 29.1924 62.1459 29.0596 62.2012C28.9268 62.2565 28.7844 62.2851 28.6405 62.2854C28.35 62.2859 28.0711 62.1709 27.8653 61.9659C27.6595 61.7608 27.5436 61.4823 27.5431 61.1918C27.5426 60.9012 27.6575 60.6224 27.8626 60.4166ZM59.5715 58.0956C59.3652 57.8964 59.0889 57.7861 58.8021 57.7886C58.5154 57.7911 58.241 57.9062 58.0382 58.109C57.8355 58.3117 57.7204 58.5861 57.7179 58.8728C57.7154 59.1596 57.8257 59.4359 58.0249 59.6422L60.3448 61.9631C60.551 62.1624 60.8273 62.2726 61.1141 62.2701C61.4009 62.2676 61.6752 62.1526 61.878 61.9498C62.0808 61.747 62.1958 61.4727 62.1983 61.1859C62.2008 60.8991 62.0906 60.6228 61.8913 60.4166L59.5715 58.0956ZM44.877 35.747C45.7225 34.8559 46.74 34.1457 47.8681 33.6593C48.9961 33.173 50.2111 32.9206 51.4395 32.9175C55.7324 32.9175 59.0957 36.7598 59.0957 41.6675C59.0957 45.0975 57.314 51.7759 45.3801 57.9502C45.2247 58.0305 45.0524 58.0725 44.8775 58.0725C44.7026 58.0725 44.5303 58.0305 44.3749 57.9502C32.4399 51.7759 30.6582 45.0975 30.6582 41.6719C30.6582 36.7642 34.0215 32.9219 38.3145 32.9219C39.5425 32.9244 40.7573 33.1761 41.8853 33.6617C43.0133 34.1473 44.0311 34.8567 44.877 35.747ZM51.4395 39.48C52.0126 39.48 52.5332 40.5223 52.5332 41.6675C52.5332 41.9576 52.6484 42.2358 52.8536 42.4409C53.0587 42.646 53.3369 42.7612 53.6269 42.7612C53.917 42.7612 54.1952 42.646 54.4003 42.4409C54.6055 42.2358 54.7207 41.9576 54.7207 41.6675C54.7207 39.5456 53.5712 37.2925 51.4395 37.2925C51.1488 37.2925 50.87 37.408 50.6645 37.6135C50.459 37.819 50.3435 38.0978 50.3435 38.3884C50.3435 38.6791 50.459 38.9579 50.6645 39.1634C50.87 39.3689 51.1488 39.4844 51.4395 39.4844V39.48ZM60.3448 27.9333L58.0249 30.2542C57.8257 30.4605 57.7154 30.7368 57.7179 31.0236C57.7204 31.3103 57.8355 31.5847 58.0382 31.7875C58.241 31.9902 58.5154 32.1053 58.8021 32.1078C59.0889 32.1103 59.3652 32 59.5715 31.8008L61.8913 29.4798C62.0906 29.2736 62.2008 28.9973 62.1983 28.7105C62.1958 28.4237 62.0808 28.1494 61.878 27.9466C61.6752 27.7438 61.4009 27.6288 61.1141 27.6263C60.8273 27.6238 60.551 27.734 60.3448 27.9333ZM25.1895 46.0469C25.4795 46.0469 25.7577 45.9316 25.9629 45.7265C26.168 45.5214 26.2832 45.2432 26.2832 44.9531C26.2832 44.663 26.168 44.3848 25.9629 44.1797C25.7577 43.9746 25.4795 43.8594 25.1895 43.8594H21.9082C21.6181 43.8594 21.3399 43.9746 21.1348 44.1797C20.9297 44.3848 20.8145 44.663 20.8145 44.9531C20.8145 45.2432 20.9297 45.5214 21.1348 45.7265C21.3399 45.9316 21.6181 46.0469 21.9082 46.0469H25.1895ZM43.7832 64.6406V67.9219C43.7832 68.212 43.8984 68.4902 44.1036 68.6953C44.3087 68.9004 44.5869 69.0156 44.877 69.0156C45.167 69.0156 45.4452 68.9004 45.6504 68.6953C45.8555 68.4902 45.9707 68.212 45.9707 67.9219V64.6406C45.9707 64.3505 45.8555 64.0723 45.6504 63.8672C45.4452 63.6621 45.167 63.5469 44.877 63.5469C44.5869 63.5469 44.3087 63.6621 44.1036 63.8672C43.8984 64.0723 43.7832 64.3505 43.7832 64.6406ZM27.8626 29.4798L30.1879 31.8008C30.3942 32 30.6705 32.1103 30.9572 32.1078C31.244 32.1053 31.5183 31.9902 31.7211 31.7875C31.9239 31.5847 32.0389 31.3103 32.0414 31.0236C32.0439 30.7368 31.9337 30.4605 31.7345 30.2542L29.4146 27.9333C29.3131 27.8314 29.1924 27.7505 29.0596 27.6952C28.9268 27.6399 28.7844 27.6113 28.6405 27.611C28.35 27.6105 28.0711 27.7255 27.8653 27.9305C27.6595 28.1356 27.5436 28.4141 27.5431 28.7046C27.5426 28.9952 27.6575 29.274 27.8626 29.4798ZM43.7832 21.9844V25.2656C43.7832 25.5557 43.8984 25.8339 44.1036 26.039C44.3087 26.2441 44.5869 26.3594 44.877 26.3594C45.167 26.3594 45.4452 26.2441 45.6504 26.039C45.8555 25.8339 45.9707 25.5557 45.9707 25.2656V21.9844C45.9707 21.6943 45.8555 21.4161 45.6504 21.211C45.4452 21.0059 45.167 20.8906 44.877 20.8906C44.5869 20.8906 44.3087 21.0059 44.1036 21.211C43.8984 21.4161 43.7832 21.6943 43.7832 21.9844ZM67.8457 43.8594H64.5645C64.2744 43.8594 63.9962 43.9746 63.7911 44.1797C63.5859 44.3848 63.4707 44.663 63.4707 44.9531C63.4707 45.2432 63.5859 45.5214 63.7911 45.7265C63.9962 45.9316 64.2744 46.0469 64.5645 46.0469H67.8457C68.1358 46.0469 68.414 45.9316 68.6191 45.7265C68.8242 45.5214 68.9395 45.2432 68.9395 44.9531C68.9395 44.663 68.8242 44.3848 68.6191 44.1797C68.414 43.9746 68.1358 43.8594 67.8457 43.8594Z" fill="#B5E7F3"></path><path d="M37.1876 54.6875V16.9531C37.1876 13.3271 35.7472 9.84962 33.1832 7.28565C30.6192 4.72168 27.1417 3.28125 23.5157 3.28125C19.8897 3.28125 16.4122 4.72168 13.8483 7.28565C11.2843 9.84962 9.84386 13.3271 9.84386 16.9531V21.875C9.84352 22.091 9.77962 22.3021 9.66011 22.482L5.85933 28.1838L9.40636 30.8438C9.5422 30.9456 9.65246 31.0777 9.72839 31.2296C9.80433 31.3815 9.84386 31.549 9.84386 31.7188V33.7969C10.8953 33.584 11.8604 33.065 12.6176 32.305C12.8239 32.1058 13.1002 31.9955 13.387 31.998C13.6737 32.0005 13.9481 32.1155 14.1509 32.3183C14.3536 32.5211 14.4687 32.7954 14.4712 33.0822C14.4737 33.369 14.3634 33.6453 14.1642 33.8516C12.9971 35.0212 11.4802 35.7781 9.84386 36.0073V37.1875C9.84386 37.4776 9.9591 37.7558 10.1642 37.9609C10.3693 38.166 10.6475 38.2812 10.9376 38.2812H22.0403C22.3303 38.2812 22.6085 38.3965 22.8137 38.6016C23.0188 38.8067 23.134 39.0849 23.134 39.375C23.134 39.6651 23.0188 39.9433 22.8137 40.1484C22.6085 40.3535 22.3303 40.4688 22.0403 40.4688H17.6653V54.6875C17.6653 54.9776 17.55 55.2558 17.3449 55.4609C17.1398 55.666 16.8616 55.7812 16.5715 55.7812C16.2814 55.7812 16.0032 55.666 15.7981 55.4609C15.593 55.2558 15.4778 54.9776 15.4778 54.6875V40.4688H10.9376C10.0674 40.4688 9.23277 40.123 8.61742 39.5077C8.00206 38.8923 7.65636 38.0577 7.65636 37.1875V32.2656L3.71886 29.3125C3.49512 29.1447 3.34414 28.8976 3.29694 28.622C3.24975 28.3464 3.30993 28.0631 3.46511 27.8305L7.65636 21.5469V16.9531C7.65636 12.747 9.32726 8.71306 12.3015 5.73885C15.2757 2.76464 19.3096 1.09375 23.5157 1.09375C27.7219 1.09375 31.7558 2.76464 34.73 5.73885C37.7042 8.71306 39.3751 12.747 39.3751 16.9531V54.6875C39.3751 54.9776 39.2599 55.2558 39.0548 55.4609C38.8496 55.666 38.5714 55.7812 38.2814 55.7812C37.9913 55.7812 37.7131 55.666 37.508 55.4609C37.3028 55.2558 37.1876 54.9776 37.1876 54.6875ZM27.6173 9.84375C28.3197 9.8545 29.0129 10.0053 29.6563 10.2874C30.2997 10.5695 30.8803 10.9771 31.3642 11.4864C31.848 11.9957 32.2253 12.5964 32.4741 13.2534C32.7228 13.9104 32.8379 14.6105 32.8126 15.3125C32.8126 17.3906 31.6653 21.4167 23.9839 25.0469C23.8375 25.1162 23.6776 25.1521 23.5157 25.1521C23.3538 25.1521 23.1939 25.1162 23.0476 25.0469C15.3662 21.4167 14.2189 17.3906 14.2189 15.3125C14.1936 14.6105 14.3087 13.9104 14.5574 13.2534C14.8061 12.5964 15.1835 11.9957 15.6673 11.4864C16.1512 10.9771 16.7318 10.5695 17.3752 10.2874C18.0186 10.0053 18.7118 9.8545 19.4142 9.84375C20.9163 9.83702 22.3712 10.3682 23.5157 11.3411C24.6602 10.3682 26.1152 9.83702 27.6173 9.84375ZM27.6173 12.0312C27.0052 12.0291 26.4002 12.1626 25.8458 12.4223C25.2915 12.6819 24.8017 13.0613 24.4115 13.533C24.3059 13.669 24.1707 13.7791 24.0162 13.8552C23.8617 13.9312 23.692 13.9711 23.5198 13.9718C23.3476 13.9726 23.1775 13.9341 23.0224 13.8594C22.8672 13.7847 22.7311 13.6757 22.6243 13.5406C22.2369 13.0642 21.7471 12.6812 21.1914 12.4199C20.6357 12.1586 20.0282 12.0257 19.4142 12.0312C18.999 12.0424 18.5904 12.1369 18.2125 12.3092C17.8346 12.4815 17.4953 12.7281 17.2147 13.0342C16.934 13.3404 16.7178 13.6998 16.579 14.0912C16.4401 14.4826 16.3814 14.898 16.4064 15.3125C16.4064 17.8795 18.9898 20.6106 23.5157 22.8484C28.0417 20.6106 30.6251 17.8795 30.6251 15.3125C30.6501 14.898 30.5913 14.4826 30.4525 14.0912C30.3136 13.6998 30.0975 13.3404 29.8168 13.0342C29.5362 12.7281 29.1969 12.4815 28.819 12.3092C28.4411 12.1369 28.0324 12.0424 27.6173 12.0312Z" fill="#151A6A"></path></svg>