<svg xmlns="http://www.w3.org/2000/svg" width="70" height="70" viewBox="0 0 70 70" fill="none"><path d="M56.875 14.2188H39.375C38.7709 14.2188 38.2812 14.7084 38.2812 15.3125V19.6875C38.2812 20.2916 38.7709 20.7812 39.375 20.7812H56.875C57.4791 20.7812 57.9688 20.2916 57.9688 19.6875V15.3125C57.9688 14.7084 57.4791 14.2188 56.875 14.2188Z" fill="#B5E7F3"></path><path d="M65.625 17.5H60.1562V19.6875C60.1553 20.5575 59.8093 21.3915 59.1941 22.0066C58.579 22.6218 57.7449 22.9678 56.875 22.9688H39.375C38.505 22.9678 37.671 22.6218 37.0559 22.0066C36.4407 21.3915 36.0947 20.5575 36.0938 19.6875V17.5H30.625C29.755 17.5009 28.921 17.847 28.3059 18.4621C27.6907 19.0773 27.3447 19.9113 27.3438 20.7812V65.625C27.3447 66.4949 27.6907 67.329 28.3059 67.9441C28.921 68.5593 29.755 68.9053 30.625 68.9062H65.625C66.4949 68.9053 67.329 68.5593 67.9441 67.9441C68.5593 67.329 68.9053 66.4949 68.9062 65.625V20.7812C68.9053 19.9113 68.5593 19.0773 67.9441 18.4621C67.329 17.847 66.4949 17.5009 65.625 17.5ZM43.75 33.9062C43.75 33.7626 43.7782 33.6204 43.8332 33.4876C43.8881 33.3549 43.9687 33.2343 44.0703 33.1328C44.1718 33.0312 44.2924 32.9506 44.4251 32.8957C44.5579 32.8407 44.7001 32.8125 44.8438 32.8125H51.4062C51.5499 32.8125 51.6921 32.8407 51.8249 32.8957C51.9576 32.9506 52.0782 33.0312 52.1797 33.1328C52.2813 33.2343 52.3619 33.3549 52.4168 33.4876C52.4718 33.6204 52.5 33.7626 52.5 33.9062V47.0312C52.5 47.1749 52.4718 47.3171 52.4168 47.4499C52.3619 47.5826 52.2813 47.7032 52.1797 47.8047C52.0782 47.9063 51.9576 47.9869 51.8249 48.0418C51.6921 48.0968 51.5499 48.125 51.4062 48.125H44.8438C44.7001 48.125 44.5579 48.0968 44.4251 48.0418C44.2924 47.9869 44.1718 47.9063 44.0703 47.8047C43.9687 47.7032 43.8881 47.5826 43.8332 47.4499C43.7782 47.3171 43.75 47.1749 43.75 47.0312V33.9062ZM32.8125 39.375C32.8125 39.0849 32.9277 38.8067 33.1329 38.6016C33.338 38.3965 33.6162 38.2812 33.9062 38.2812H40.4688C40.6124 38.2812 40.7546 38.3095 40.8874 38.3644C41.0201 38.4194 41.1407 38.4999 41.2422 38.6015C41.3438 38.7031 41.4244 38.8237 41.4793 38.9564C41.5343 39.0891 41.5625 39.2314 41.5625 39.375V47.0312C41.5625 47.1749 41.5343 47.3171 41.4793 47.4499C41.4244 47.5826 41.3438 47.7032 41.2422 47.8047C41.1407 47.9063 41.0201 47.9869 40.8874 48.0418C40.7546 48.0968 40.6124 48.125 40.4688 48.125H33.9062C33.6162 48.125 33.338 48.0098 33.1329 47.8046C32.9277 47.5995 32.8125 47.3213 32.8125 47.0312V39.375ZM62.3438 64.5312H33.9062C33.6162 64.5312 33.338 64.416 33.1329 64.2109C32.9277 64.0058 32.8125 63.7276 32.8125 63.4375C32.8125 63.1474 32.9277 62.8692 33.1329 62.6641C33.338 62.459 33.6162 62.3438 33.9062 62.3438H62.3438C62.6338 62.3438 62.912 62.459 63.1171 62.6641C63.3223 62.8692 63.4375 63.1474 63.4375 63.4375C63.4375 63.7276 63.3223 64.0058 63.1171 64.2109C62.912 64.416 62.6338 64.5312 62.3438 64.5312ZM62.3438 59.0625H33.9062C33.6162 59.0625 33.338 58.9473 33.1329 58.7421C32.9277 58.537 32.8125 58.2588 32.8125 57.9688C32.8125 57.6787 32.9277 57.4005 33.1329 57.1954C33.338 56.9902 33.6162 56.875 33.9062 56.875H62.3438C62.6338 56.875 62.912 56.9902 63.1171 57.1954C63.3223 57.4005 63.4375 57.6787 63.4375 57.9688C63.4375 58.2588 63.3223 58.537 63.1171 58.7421C62.912 58.9473 62.6338 59.0625 62.3438 59.0625ZM62.3438 53.5938H40.4688C40.1787 53.5938 39.9005 53.4785 39.6954 53.2734C39.4902 53.0683 39.375 52.7901 39.375 52.5C39.375 52.2099 39.4902 51.9317 39.6954 51.7266C39.9005 51.5215 40.1787 51.4062 40.4688 51.4062H62.3438C62.6338 51.4062 62.912 51.5215 63.1171 51.7266C63.3223 51.9317 63.4375 52.2099 63.4375 52.5C63.4375 52.7901 63.3223 53.0683 63.1171 53.2734C62.912 53.4785 62.6338 53.5938 62.3438 53.5938ZM63.4375 47.0312C63.4375 47.1749 63.4093 47.3171 63.3543 47.4499C63.2994 47.5826 63.2188 47.7032 63.1172 47.8047C63.0157 47.9063 62.8951 47.9869 62.7624 48.0418C62.6296 48.0968 62.4874 48.125 62.3438 48.125H55.7812C55.6376 48.125 55.4954 48.0968 55.3626 48.0418C55.2299 47.9869 55.1093 47.9063 55.0078 47.8047C54.9062 47.7032 54.8256 47.5826 54.7707 47.4499C54.7157 47.3171 54.6875 47.1749 54.6875 47.0312V28.4375C54.6875 28.2939 54.7157 28.1516 54.7707 28.0189C54.8256 27.8862 54.9062 27.7656 55.0078 27.664C55.1093 27.5624 55.2299 27.4819 55.3626 27.4269C55.4954 27.372 55.6376 27.3437 55.7812 27.3438H62.3438C62.4874 27.3437 62.6296 27.372 62.7624 27.4269C62.8951 27.4819 63.0157 27.5624 63.1172 27.664C63.2188 27.7656 63.2994 27.8862 63.3543 28.0189C63.4093 28.1516 63.4375 28.2939 63.4375 28.4375V47.0312Z" fill="#B5E7F3"></path><path d="M45.9375 35H50.3125V45.9375H45.9375V35Z" fill="#B5E7F3"></path><path d="M35 40.4688H39.375V45.9375H35V40.4688Z" fill="#B5E7F3"></path><path d="M56.875 29.5312H61.25V45.9375H56.875V29.5312Z" fill="#B5E7F3"></path><path d="M37.1875 6.5625H36.0938V3.28125H37.1875C37.4776 3.28125 37.7558 3.16602 37.9609 2.9609C38.166 2.75578 38.2812 2.47758 38.2812 2.1875C38.2812 1.89742 38.166 1.61922 37.9609 1.4141C37.7558 1.20898 37.4776 1.09375 37.1875 1.09375H19.6875C19.3974 1.09375 19.1192 1.20898 18.9141 1.4141C18.709 1.61922 18.5938 1.89742 18.5938 2.1875C18.5938 2.47758 18.709 2.75578 18.9141 2.9609C19.1192 3.16602 19.3974 3.28125 19.6875 3.28125H20.7812V6.5625H19.6875C19.3974 6.5625 19.1192 6.67773 18.9141 6.88285C18.709 7.08797 18.5938 7.36617 18.5938 7.65625V12.0867C13.8646 12.3671 9.42058 14.4414 6.16853 17.8865C2.91647 21.3315 1.10144 25.8875 1.09375 30.625V51.4062C1.09375 51.6963 1.20898 51.9745 1.4141 52.1796C1.61922 52.3848 1.89742 52.5 2.1875 52.5H36.0938C36.2374 52.5 36.3796 52.4718 36.5124 52.4168C36.6451 52.3619 36.7657 52.2813 36.8672 52.1797C36.9688 52.0782 37.0494 51.9576 37.1043 51.8249C37.1593 51.6921 37.1875 51.5499 37.1875 51.4062C37.1856 49.6664 36.4936 47.9983 35.2633 46.768C34.033 45.5377 32.3649 44.8457 30.625 44.8438H8.75V41.5625H32.8125C33.1026 41.5625 33.3808 41.4473 33.5859 41.2421C33.791 41.037 33.9062 40.7588 33.9062 40.4688C33.9062 40.1787 33.791 39.9005 33.5859 39.6954C33.3808 39.4902 33.1026 39.375 32.8125 39.375H8.75V30.625C8.7467 28.7945 9.2069 26.9929 10.0877 25.3883C10.9685 23.7836 12.2413 22.428 13.7873 21.448C14.2436 22.3886 14.9177 23.2067 15.7536 23.8345C16.5896 24.4623 17.5632 24.8815 18.5938 25.0575V29.5312C18.6073 29.8177 18.7202 30.0905 18.9129 30.3028L18.9145 30.3049L24.383 35.7733C24.588 35.9784 24.8662 36.0937 25.1562 36.0938H31.7188C32.0088 36.0937 32.287 35.9784 32.492 35.7733L37.96 30.3053L37.9643 30.2998C38.1584 30.0897 38.2708 29.8171 38.2812 29.5312V7.65625C38.2813 7.51261 38.253 7.37036 38.1981 7.23765C38.1431 7.10493 38.0626 6.98434 37.961 6.88277C37.8594 6.7812 37.7388 6.70063 37.6061 6.64568C37.4734 6.59073 37.3311 6.56246 37.1875 6.5625ZM13.125 18.5938C13.1251 18.8147 13.1363 19.0356 13.1585 19.2555C11.1501 20.396 9.48098 22.0499 8.32197 24.0477C7.16296 26.0454 6.55574 28.3154 6.5625 30.625V45.9375C6.5625 46.2276 6.67773 46.5058 6.88285 46.7109C7.08797 46.916 7.36617 47.0312 7.65625 47.0312H30.625C31.5947 47.0326 32.5365 47.3553 33.3031 47.9491C34.0698 48.5428 34.6179 49.374 34.8617 50.3125H3.28125V30.625C3.28715 27.2648 4.3239 23.9873 6.25153 21.235C8.17917 18.4827 10.9049 16.388 14.0607 15.2339C13.4491 16.248 13.1256 17.4096 13.125 18.5938ZM22.9688 3.28125H33.9062V6.5625H22.9688V3.28125ZM15.3125 18.5938C15.3125 17.7285 15.5691 16.8826 16.0498 16.1631C16.5306 15.4437 17.2138 14.8829 18.0133 14.5518C18.8127 14.2206 19.6924 14.134 20.541 14.3028C21.3897 14.4716 22.1692 14.8883 22.7811 15.5002C23.3929 16.112 23.8096 16.8916 23.9784 17.7402C24.1472 18.5889 24.0606 19.4686 23.7295 20.268C23.3983 21.0674 22.8376 21.7507 22.1181 22.2314C21.3987 22.7122 20.5528 22.9688 19.6875 22.9688C18.5276 22.9674 17.4156 22.5061 16.5954 21.6859C15.7752 20.8657 15.3138 19.7537 15.3125 18.5938ZM31.2659 33.9062H25.6091L22.3279 30.625H34.5471L31.2659 33.9062ZM36.0938 28.4375H20.7812V25.0575C22.3099 24.8007 23.6982 24.0105 24.6994 22.8272C25.7006 21.6438 26.25 20.1438 26.25 18.5938C26.25 17.0437 25.7006 15.5437 24.6994 14.3604C23.6982 13.177 22.3099 12.3868 20.7812 12.13V8.75H36.0938V28.4375Z" fill="#151A6A"></path><path d="M20.7812 17.5H18.5938C18.3037 17.5 18.0255 17.6152 17.8204 17.8204C17.6152 18.0255 17.5 18.3037 17.5 18.5938C17.5 18.8838 17.6152 19.162 17.8204 19.3671C18.0255 19.5723 18.3037 19.6875 18.5938 19.6875H20.7812C21.0713 19.6875 21.3495 19.5723 21.5546 19.3671C21.7598 19.162 21.875 18.8838 21.875 18.5938C21.875 18.3037 21.7598 18.0255 21.5546 17.8204C21.3495 17.6152 21.0713 17.5 20.7812 17.5Z" fill="#151A6A"></path></svg>