<svg xmlns="http://www.w3.org/2000/svg" width="70" height="70" viewBox="0 0 70 70" fill="none"><path d="M65.625 30.0781H33.9062C33.0363 30.0791 32.2023 30.4251 31.5871 31.0402C30.972 31.6554 30.6259 32.4894 30.625 33.3594V65.0781C30.6259 65.9481 30.972 66.7821 31.5871 67.3973C32.2023 68.0124 33.0363 68.3584 33.9062 68.3594H65.625C66.4949 68.3584 67.329 68.0124 67.9441 67.3973C68.5593 66.7821 68.9053 65.9481 68.9062 65.0781V33.3594C68.9053 32.4894 68.5593 31.6554 67.9441 31.0402C67.329 30.4251 66.4949 30.0791 65.625 30.0781ZM64.5312 65.0781C64.4091 65.0781 34.8684 65.0758 34.9927 65.0767C34.7066 65.0671 34.4349 64.9488 34.233 64.7458C34.0311 64.5429 33.9143 64.2705 33.9062 63.9844V33.3594C33.9062 33.0693 34.0215 32.7911 34.2266 32.586C34.4317 32.3809 34.7099 32.2656 35 32.2656C35.2901 32.2656 35.5683 32.3809 35.7734 32.586C35.9785 32.7911 36.0938 33.0693 36.0938 33.3594V59.3509L39.4904 52.5577C39.5678 52.4026 39.6811 52.2682 39.8207 52.1655C39.9603 52.0628 40.1224 51.9948 40.2934 51.9671C40.4645 51.9393 40.6398 51.9527 40.8047 52.006C40.9696 52.0592 41.1195 52.151 41.242 52.2736L45.5209 56.5525L50.3851 43.9038C50.4425 43.755 50.5319 43.6204 50.6468 43.5097C50.7617 43.399 50.8994 43.3147 51.0503 43.2628C51.2012 43.2109 51.3617 43.1926 51.5204 43.2093C51.6791 43.2259 51.8323 43.2771 51.9691 43.3591L56.4248 46.0326L60.2507 38.3808C59.85 37.8988 59.6273 37.2937 59.6202 36.667C59.6131 36.0402 59.8219 35.4302 60.2115 34.9393C60.6012 34.4483 61.148 34.1065 61.7599 33.9712C62.3719 33.8359 63.0118 33.9154 63.5721 34.1963C64.1324 34.4771 64.5789 34.9423 64.8367 35.5136C65.0944 36.0849 65.1477 36.7276 64.9875 37.3335C64.8272 37.9394 64.4634 38.4718 63.9569 38.841C63.4505 39.2103 62.8324 39.394 62.2065 39.3612L57.8534 48.0674C57.7859 48.2021 57.6913 48.3215 57.5756 48.418C57.4598 48.5145 57.3254 48.5861 57.1807 48.6282C57.036 48.6703 56.8841 48.6821 56.7346 48.6628C56.5852 48.6435 56.4413 48.5935 56.3121 48.516L51.9595 45.9044L46.9586 58.9087C46.893 59.0786 46.786 59.2295 46.6473 59.3477C46.5087 59.4658 46.3427 59.5475 46.1645 59.5852C45.9863 59.623 45.8014 59.6157 45.6268 59.5639C45.4521 59.5122 45.2931 59.4176 45.1642 59.2889L40.7684 54.8936L36.7699 62.8906H64.5312C64.8213 62.8906 65.0995 63.0059 65.3046 63.211C65.5098 63.4161 65.625 63.6943 65.625 63.9844C65.625 64.2745 65.5098 64.5527 65.3046 64.7578C65.0995 64.9629 64.8213 65.0781 64.5312 65.0781ZM64.5312 60.7031H51.4062C51.1162 60.7031 50.838 60.5879 50.6329 60.3828C50.4277 60.1777 50.3125 59.8995 50.3125 59.6094C50.3125 59.3193 50.4277 59.0411 50.6329 58.836C50.838 58.6309 51.1162 58.5156 51.4062 58.5156H64.5312C64.8213 58.5156 65.0995 58.6309 65.3046 58.836C65.5098 59.0411 65.625 59.3193 65.625 59.6094C65.625 59.8995 65.5098 60.1777 65.3046 60.3828C65.0995 60.5879 64.8213 60.7031 64.5312 60.7031ZM64.5312 56.3281H54.6875C54.3974 56.3281 54.1192 56.2129 53.9141 56.0078C53.709 55.8027 53.5938 55.5245 53.5938 55.2344C53.5938 54.9443 53.709 54.6661 53.9141 54.461C54.1192 54.2559 54.3974 54.1406 54.6875 54.1406H64.5312C64.8213 54.1406 65.0995 54.2559 65.3046 54.461C65.5098 54.6661 65.625 54.9443 65.625 55.2344C65.625 55.5245 65.5098 55.8027 65.3046 56.0078C65.0995 56.2129 64.8213 56.3281 64.5312 56.3281Z" fill="#B5E7F3"></path><path d="M29.6148 10.4158C29.8732 8.59032 30.7812 6.91927 32.1722 5.70922C33.5632 4.49918 35.3438 3.8313 37.1875 3.82812C37.4776 3.82812 37.7558 3.71289 37.9609 3.50777C38.166 3.30266 38.2812 3.02446 38.2812 2.73438C38.2812 2.44429 38.166 2.16609 37.9609 1.96098C37.7558 1.75586 37.4776 1.64063 37.1875 1.64062C35.3778 1.643 33.6037 2.14402 32.0601 3.08868C30.5165 4.03333 29.2631 5.38508 28.4375 6.99548C27.6119 5.38508 26.3585 4.03333 24.8149 3.08868C23.2713 2.14402 21.4972 1.643 19.6875 1.64062C19.3974 1.64062 19.1192 1.75586 18.9141 1.96098C18.709 2.16609 18.5938 2.44429 18.5938 2.73438C18.5938 3.02446 18.709 3.30266 18.9141 3.50777C19.1192 3.71289 19.3974 3.82812 19.6875 3.82812C21.5312 3.8313 23.3118 4.49918 24.7028 5.70922C26.0938 6.91927 27.0018 8.59032 27.2602 10.4158C12.6384 10.9389 1.09375 21.1191 1.09375 33.3594C1.09375 46.024 13.36 56.3281 28.4375 56.3281C43.515 56.3281 55.7812 46.024 55.7812 33.3594C55.7812 21.1598 44.2741 10.9403 29.6148 10.4158ZM17.3265 14.7215C24.4582 11.8637 32.4169 11.8637 39.5486 14.7215C40.3394 15.6995 40.2403 16.4718 38.3663 16.8213C36.9513 17.0242 35.5089 16.9109 34.1429 16.4896C33.392 16.2774 32.6651 15.9876 31.9741 15.625C31.7903 15.528 31.5827 15.4854 31.3756 15.502C31.1685 15.5186 30.9703 15.5939 30.8044 15.7189C30.6384 15.844 30.5115 16.0137 30.4384 16.2083C30.3653 16.4028 30.3491 16.6141 30.3916 16.8175C30.5496 17.5817 30.6279 18.3603 30.625 19.1406C30.625 22.479 29.3294 24.6094 28.4375 24.6094C27.5456 24.6094 26.25 22.479 26.25 19.1406C26.2471 18.3603 26.3254 17.5817 26.4834 16.8175C26.5259 16.6141 26.5097 16.4028 26.4366 16.2083C26.3635 16.0138 26.2366 15.8441 26.0707 15.719C25.9047 15.5939 25.7066 15.5187 25.4995 15.502C25.2924 15.4854 25.0848 15.528 24.901 15.6249C24.21 15.9875 23.4831 16.2773 22.7322 16.4896C21.3663 16.9116 19.9238 17.0249 18.5088 16.8212C16.6458 16.4738 16.5297 15.7069 17.3265 14.7215ZM14.679 15.9749C14.8306 17.7154 16.3787 18.6492 18.1078 18.9719C19.8568 19.2404 21.6438 19.1108 23.3357 18.5927C23.5894 18.5196 23.8388 18.4405 24.0839 18.3556C24.0695 18.6152 24.0624 18.8769 24.0625 19.1407C24.0625 23.5055 25.9435 26.7969 28.4375 26.7969C30.9316 26.7969 32.8125 23.5055 32.8125 19.1407C32.8125 18.8769 32.8054 18.6152 32.7912 18.3556C33.0363 18.4405 33.2857 18.5196 33.5394 18.5927C35.2313 19.1108 37.0183 19.2404 38.7673 18.9719C40.4982 18.6489 42.0445 17.7142 42.1961 15.9749C48.7067 19.5031 53.1288 25.4535 53.5586 32.2656H3.31644C3.74621 25.4535 8.16839 19.5032 14.679 15.9749ZM28.4375 54.1406C15.0106 54.1406 4.00743 45.4054 3.31644 34.4531H7.65625V36.6406C7.65625 36.9307 7.77148 37.2089 7.9766 37.414C8.18172 37.6191 8.45992 37.7344 8.75 37.7344C9.04008 37.7344 9.31828 37.6191 9.5234 37.414C9.72852 37.2089 9.84375 36.9307 9.84375 36.6406V34.4531H14.2188V38.8281C14.2188 39.1182 14.334 39.3964 14.5391 39.6015C14.7442 39.8066 15.0224 39.9219 15.3125 39.9219C15.6026 39.9219 15.8808 39.8066 16.0859 39.6015C16.291 39.3964 16.4062 39.1182 16.4062 38.8281V34.4531H20.7812V36.6406C20.7812 36.9307 20.8965 37.2089 21.1016 37.414C21.3067 37.6191 21.5849 37.7344 21.875 37.7344C22.1651 37.7344 22.4433 37.6191 22.6484 37.414C22.8535 37.2089 22.9688 36.9307 22.9688 36.6406V34.4531H27.3438V38.8281C27.3438 39.1182 27.459 39.3964 27.6641 39.6015C27.8692 39.8066 28.1474 39.9219 28.4375 39.9219C28.7276 39.9219 29.0058 39.8066 29.2109 39.6015C29.416 39.3964 29.5312 39.1182 29.5312 38.8281V34.4531H33.9062V36.6406C33.9062 36.9307 34.0215 37.2089 34.2266 37.414C34.4317 37.6191 34.7099 37.7344 35 37.7344C35.2901 37.7344 35.5683 37.6191 35.7734 37.414C35.9785 37.2089 36.0938 36.9307 36.0938 36.6406V34.4531H40.4688V38.8281C40.4688 39.1182 40.584 39.3964 40.7891 39.6015C40.9942 39.8066 41.2724 39.9219 41.5625 39.9219C41.8526 39.9219 42.1308 39.8066 42.3359 39.6015C42.541 39.3964 42.6562 39.1182 42.6562 38.8281V34.4531H47.0312V36.6406C47.0312 36.9307 47.1465 37.2089 47.3516 37.414C47.5567 37.6191 47.8349 37.7344 48.125 37.7344C48.4151 37.7344 48.6933 37.6191 48.8984 37.414C49.1035 37.2089 49.2188 36.9307 49.2188 36.6406V34.4531H53.5586C52.8676 45.4054 41.8644 54.1406 28.4375 54.1406Z" fill="#151A6A"></path><path d="M29.4163 42.7139C29.3154 42.5444 29.1721 42.4041 29.0006 42.3067C28.8291 42.2092 28.6352 42.158 28.4379 42.158C28.2407 42.158 28.0468 42.2092 27.8753 42.3067C27.7038 42.4041 27.5605 42.5444 27.4596 42.7139L24.1783 49.2764C24.0952 49.4432 24.0561 49.6284 24.0646 49.8146C24.0731 50.0007 24.129 50.1816 24.227 50.3401C24.325 50.4987 24.4618 50.6295 24.6245 50.7204C24.7872 50.8113 24.9704 50.8591 25.1567 50.8594H31.7192C31.9055 50.8591 32.0887 50.8113 32.2514 50.7204C32.4141 50.6295 32.5509 50.4987 32.6489 50.3401C32.7469 50.1816 32.8027 50.0007 32.8113 49.8146C32.8198 49.6284 32.7807 49.4432 32.6976 49.2764L29.4163 42.7139ZM26.9266 48.6719L28.4379 45.6491L29.9493 48.6719H26.9266Z" fill="#151A6A"></path></svg>