<svg xmlns="http://www.w3.org/2000/svg" xmlns:xlink="http://www.w3.org/1999/xlink" id="Capa_1" x="0px" y="0px" viewBox="0 0 140 140" style="enable-background:new 0 0 140 140;" xml:space="preserve"><style type="text/css">	.st0{fill:#B5E7F3;}	.st1{fill:#151A6A;}	.st2{fill:none;stroke:#5FBCD3;stroke-width:2;}</style><g>	<path class="st0" d="M86.2,53.7c-4,0-7.8,1.4-10.8,4.1c-3-2.6-6.8-4.1-10.8-4.1c-9,0-16.4,7.4-16.4,16.4  c0,13.7,15.4,27.1,26.6,33.4c0.3,0.2,0.7,0.2,1.1,0c11.4-6.4,26.6-19.8,26.6-33.4C102.6,61.1,95.3,53.7,86.2,53.7z M75.4,92.8  c-8.4,0-15.2-6.8-15.2-15.2S67,62.4,75.4,62.4s15.2,6.8,15.2,15.2C90.6,86,83.8,92.8,75.4,92.8z"></path>	<ellipse class="st0" cx="75.8" cy="76.8" rx="16.6" ry="16.1"></ellipse>	<path class="st0" d="M77.1,64.7c1,0.6,1.6,1.6,1.6,2.8c0,1.1-0.6,2.1-1.5,2.6c-0.5,0.4-0.7,0.6-0.7,1c0,0.6-0.5,1.1-1.1,1.1  s-1.1-0.5-1.1-1.1c0-1.1,0.6-2.1,1.5-2.6c0.5-0.4,0.7-0.6,0.7-1c0-0.9-1.6-1.2-2.1-2.8c-7.2,0.5-12.5,6.8-12,14s6.8,12.5,14,12  c7.2-0.5,12.5-6.8,12-14C88,70.4,83.2,65.4,77.1,64.7L77.1,64.7z M82.6,84.7c-2.7,3.9-8.1,4.9-12.1,2.2c-0.8-0.6-1.6-1.3-2.2-2.2  c-0.3-0.5-0.2-1.2,0.3-1.5c0.5-0.3,1.2-0.2,1.5,0.3c2.1,3,6.1,3.7,9.1,1.6c0.6-0.4,1.2-1,1.6-1.6c0.3-0.5,1-0.6,1.5-0.3  C82.8,83.6,82.9,84.3,82.6,84.7z"></path>	<path class="st1" d="M89.2,68.1L83,63v-3.3c0-12.4-9.9-22.9-22-23.3c-12.6-0.5-23.2,9.3-23.6,21.9c-0.2,6.6,2.3,12.9,7.1,17.4  c1,1,1.6,2.4,1.6,3.8v10.1c0,0.6,0.5,1.1,1.1,1.1s1.1-0.5,1.1-1.1V79.5c0-2-0.8-4-2.2-5.4c-4.1-3.9-6.5-9.3-6.4-15  c0-11.4,9.2-20.6,20.6-20.6c0.3,0,0.5,0,0.8,0c11,0.4,19.9,9.9,19.9,21.2v3.8c0,0.3,0.1,0.6,0.4,0.8l4.2,3.5H82  c-0.6,0-1.1,0.5-1.1,1.1c0,0,0,0,0,0v4c0,2-1.6,3.6-3.6,3.6c-0.4,0-0.8-0.1-1.1-0.2l-9.1-3c-0.6-0.2-1.2,0.1-1.4,0.7  c-0.2,0.6,0.1,1.2,0.7,1.4l3.6,1.2v13c0,0.6,0.5,1.1,1.1,1.1c0.6,0,1.1-0.5,1.1-1.1V77.3l3.3,1.1c3,1,6.3-0.6,7.3-3.7  c0.2-0.6,0.3-1.2,0.3-1.8V70h5.4c0.6,0,1.1-0.5,1.1-1.1C89.6,68.6,89.4,68.3,89.2,68.1z"></path>	<path class="st1" d="M54.8,58c-0.6,0-1.1-0.5-1.1-1.1c0,0,0,0,0,0c0-1.2-1-2.2-2.2-2.2c-1.2,0-2.2,1-2.2,2.2c0,0.6-0.5,1.1-1.1,1.1  c0,0,0,0,0,0h-4.3c-0.6,0-1.1-0.5-1.1-1.1s0.5-1.1,1.1-1.1h3.4c0.6-2.3,3-3.7,5.3-3.1c1.5,0.4,2.7,1.6,3.1,3.1h3.4v-3.3  c0-0.6,0.5-1.1,1.1-1.1c0,0,0,0,0,0c1.2,0,2.2-1,2.2-2.2c0-1.2-1-2.2-2.2-2.2c0,0,0,0,0,0c-0.6,0-1.1-0.5-1.1-1.1c0,0,0,0,0,0v-4.3  c0-0.6,0.5-1.1,1.1-1.1s1.1,0.5,1.1,1.1v3.4c2.3,0.6,3.7,3,3.1,5.3c-0.4,1.5-1.6,2.7-3.1,3.1v2.3h4.3c0.6,0,1.1,0.5,1.1,1.1  c0,0,0,0,0,0c0,1.2,1,2.2,2.2,2.2s2.2-1,2.2-2.2c0-0.6,0.5-1.1,1.1-1.1c0,0,0,0,0,0h4.3c0.6,0,1.1,0.5,1.1,1.1S77.1,58,76.5,58  h-3.4c-0.6,2.3-3,3.7-5.3,3.1c-1.5-0.4-2.7-1.6-3.1-3.1h-3.4v3.3c0,0.6-0.5,1.1-1.1,1.1c0,0,0,0,0,0c-1.2,0-2.2,1-2.2,2.2  c0,1.2,1,2.2,2.2,2.2c0,0,0,0,0,0c0.6,0,1.1,0.5,1.1,1.1c0,0,0,0,0,0v4.3c0,0.6-0.5,1.1-1.1,1.1c-0.6,0-1.1-0.5-1.1-1.1v-3.4  c-2.3-0.6-3.7-3-3.1-5.3c0.4-1.5,1.6-2.7,3.1-3.1V58H54.8z"></path></g><circle class="st2" cx="70" cy="70" r="69"></circle></svg>