<svg xmlns="http://www.w3.org/2000/svg" xmlns:xlink="http://www.w3.org/1999/xlink" id="Capa_1" x="0px" y="0px" viewBox="0 0 140 140" style="enable-background:new 0 0 140 140;" xml:space="preserve"><style type="text/css">	.st0{fill:none;stroke:#5FBCD3;stroke-width:2;}	.st1{fill:#B5E7F3;}	.st2{fill:#151A6A;}</style><circle class="st0" cx="70" cy="70" r="69"></circle><path class="st1" d="M100.6,56.9H56.9c-0.9,0-1.7,0.3-2.3,1c-0.6,0.6-1,1.4-1,2.3v30.6c0,0.9,0.3,1.7,1,2.3c0.6,0.6,1.4,1,2.3,1 h43.8c0.9,0,1.7-0.3,2.3-1c0.6-0.6,1-1.4,1-2.3V60.2c0-0.9-0.3-1.7-1-2.3C102.3,57.2,101.5,56.9,100.6,56.9z M99.5,88.6 c0,0.1,0,0.3-0.1,0.4c-0.1,0.1-0.1,0.3-0.2,0.4c-0.1,0.1-0.2,0.2-0.4,0.2c-0.1,0.1-0.3,0.1-0.4,0.1H59.1c-0.1,0-0.3,0-0.4-0.1 c-0.1-0.1-0.3-0.1-0.4-0.2c-0.1-0.1-0.2-0.2-0.2-0.4C58,88.9,58,88.7,58,88.6V62.3c0-0.1,0-0.3,0.1-0.4c0.1-0.1,0.1-0.3,0.2-0.4 c0.1-0.1,0.2-0.2,0.4-0.2c0.1-0.1,0.3-0.1,0.4-0.1h39.4c0.1,0,0.3,0,0.4,0.1c0.1,0.1,0.3,0.1,0.4,0.2c0.1,0.1,0.2,0.2,0.2,0.4 c0.1,0.1,0.1,0.3,0.1,0.4V88.6z"></path><path class="st1" d="M60.2,63.4h37.2v24.1H60.2V63.4z"></path><path class="st1" d="M91.9,100.6h-5.6l-0.4-4.4H71.6l-0.4,4.4h-5.6c-0.3,0-0.6,0.1-0.8,0.3s-0.3,0.5-0.3,0.8s0.1,0.6,0.3,0.8 c0.2,0.2,0.5,0.3,0.8,0.3h26.2c0.3,0,0.6-0.1,0.8-0.3c0.2-0.2,0.3-0.5,0.3-0.8s-0.1-0.6-0.3-0.8S92.2,100.6,91.9,100.6z"></path><path class="st2" d="M83.1,37.2H39.4c-0.9,0-1.7,0.3-2.3,1c-0.6,0.6-1,1.4-1,2.3v43.8c0,0.9,0.3,1.7,1,2.3c0.6,0.6,1.4,1,2.3,1h43.8 c0.9,0,1.7-0.3,2.3-1c0.6-0.6,1-1.4,1-2.3V40.5c0-0.9-0.3-1.7-1-2.3C84.8,37.5,84,37.2,83.1,37.2z M84.2,40.5V44L72.9,55.4 c-0.1,0.1-0.2,0.2-0.2,0.4c-0.1,0.1-0.1,0.3-0.1,0.4c0,0.1,0,0.3,0.1,0.4c0.1,0.1,0.1,0.3,0.2,0.4c0.4,0.4,0.7,0.9,0.9,1.4 c0.2,0.5,0.3,1.1,0.3,1.7c0,0.6-0.1,1.1-0.3,1.7c-0.2,0.5-0.5,1-0.9,1.4c-0.8,0.8-1.9,1.2-3.1,1.2s-2.3-0.4-3.1-1.2 c-0.5-0.5-0.8-1.1-1.1-1.7c-0.2-0.6-0.3-1.3-0.2-2c0-0.2,0-0.3,0-0.5c-0.1-0.2-0.1-0.3-0.3-0.4c-0.1-0.1-0.3-0.2-0.4-0.3 c-0.2-0.1-0.3-0.1-0.5,0c-0.9,0.1-1.8,0-2.7-0.4c-0.8-0.4-1.5-1.1-1.9-1.9c-0.4-0.8-0.6-1.8-0.4-2.7c0.1-0.9,0.6-1.7,1.2-2.4 c0.8-0.8,1.9-1.2,3.1-1.2c1.2,0,2.3,0.4,3.1,1.2c0.1,0.1,0.2,0.2,0.4,0.2c0.1,0.1,0.3,0.1,0.4,0.1s0.3,0,0.4-0.1 c0.1-0.1,0.3-0.1,0.4-0.2l11.4-11.4h3.5c0.3,0,0.6,0.1,0.8,0.3C84.1,39.9,84.2,40.2,84.2,40.5z M38.3,84.2v-3.5l11.4-11.4 c0.1-0.1,0.2-0.2,0.2-0.4c0.1-0.1,0.1-0.3,0.1-0.4c0-0.1,0-0.3-0.1-0.4c-0.1-0.1-0.1-0.3-0.2-0.4c-0.4-0.4-0.7-0.9-0.9-1.4 c-0.2-0.5-0.3-1.1-0.3-1.7c0-0.6,0.1-1.1,0.3-1.7c0.2-0.5,0.5-1,0.9-1.4c0.8-0.8,1.9-1.2,3.1-1.2c1.2,0,2.3,0.4,3.1,1.2 c0.5,0.5,0.8,1.1,1.1,1.7c0.2,0.6,0.3,1.3,0.2,2c0,0.2,0,0.3,0,0.5c0.1,0.2,0.1,0.3,0.3,0.4c0.1,0.1,0.3,0.2,0.4,0.3 c0.2,0.1,0.3,0.1,0.5,0c0.9-0.1,1.8,0,2.7,0.4c0.8,0.4,1.5,1.1,1.9,1.9c0.4,0.8,0.6,1.8,0.4,2.7c-0.1,0.9-0.6,1.7-1.2,2.4 c-0.8,0.8-1.9,1.2-3.1,1.2c-1.2,0-2.3-0.4-3.1-1.2c-0.1-0.1-0.2-0.2-0.4-0.2c-0.1-0.1-0.3-0.1-0.4-0.1s-0.3,0-0.4,0.1 c-0.1,0.1-0.3,0.1-0.4,0.2L42.9,85.3h-3.5c-0.3,0-0.6-0.1-0.8-0.3C38.4,84.8,38.3,84.5,38.3,84.2z M83.1,85.3H46l9.1-9.1 c1.3,1,3,1.4,4.6,1.2c1.6-0.2,3.1-1,4.2-2.3c1.1-1.3,1.6-2.9,1.5-4.5c-0.1-1.6-0.8-3.2-1.9-4.4c-1.1-1.1-2.7-1.8-4.3-1.9 c-0.1-1.6-0.8-3.1-1.9-4.3c-1.2-1.2-2.7-1.8-4.4-1.9c-1.6-0.1-3.3,0.5-4.5,1.5c-1.3,1.1-2.1,2.6-2.3,4.2c-0.2,1.6,0.2,3.3,1.2,4.6 l-9.1,9.1V40.5c0-0.3,0.1-0.6,0.3-0.8c0.2-0.2,0.5-0.3,0.8-0.3h37.1l-9.1,9.1c-1.3-1-3-1.4-4.6-1.2c-1.6,0.2-3.1,1-4.2,2.3 c-1.1,1.3-1.6,2.9-1.5,4.5c0.1,1.6,0.8,3.2,1.9,4.4c1.1,1.1,2.7,1.8,4.3,1.9c0.1,1.6,0.8,3.1,1.9,4.3c1.2,1.2,2.7,1.8,4.4,1.9 c1.6,0.1,3.3-0.5,4.5-1.5c1.3-1.1,2.1-2.6,2.3-4.2c0.2-1.6-0.2-3.3-1.2-4.6l9.1-9.1v37.1c0,0.3-0.1,0.6-0.3,0.8 C83.7,85.2,83.4,85.3,83.1,85.3z"></path><path class="st2" d="M51.4,42.7h-8.8c-0.3,0-0.6,0.1-0.8,0.3c-0.2,0.2-0.3,0.5-0.3,0.8s0.1,0.6,0.3,0.8c0.2,0.2,0.5,0.3,0.8,0.3h8.8 c0.3,0,0.6-0.1,0.8-0.3c0.2-0.2,0.3-0.5,0.3-0.8s-0.1-0.6-0.3-0.8C52,42.8,51.7,42.7,51.4,42.7z"></path><path class="st2" d="M47,48.1h-4.4c-0.3,0-0.6,0.1-0.8,0.3c-0.2,0.2-0.3,0.5-0.3,0.8c0,0.3,0.1,0.6,0.3,0.8c0.2,0.2,0.5,0.3,0.8,0.3 H47c0.3,0,0.6-0.1,0.8-0.3c0.2-0.2,0.3-0.5,0.3-0.8c0-0.3-0.1-0.6-0.3-0.8C47.6,48.2,47.3,48.1,47,48.1z"></path><path class="st2" d="M79.8,79.8h-8.8c-0.3,0-0.6,0.1-0.8,0.3c-0.2,0.2-0.3,0.5-0.3,0.8s0.1,0.6,0.3,0.8c0.2,0.2,0.5,0.3,0.8,0.3h8.8 c0.3,0,0.6-0.1,0.8-0.3c0.2-0.2,0.3-0.5,0.3-0.8s-0.1-0.6-0.3-0.8C80.4,80,80.1,79.8,79.8,79.8z"></path><path class="st2" d="M79.8,74.4h-4.4c-0.3,0-0.6,0.1-0.8,0.3c-0.2,0.2-0.3,0.5-0.3,0.8c0,0.3,0.1,0.6,0.3,0.8 c0.2,0.2,0.5,0.3,0.8,0.3h4.4c0.3,0,0.6-0.1,0.8-0.3c0.2-0.2,0.3-0.5,0.3-0.8c0-0.3-0.1-0.6-0.3-0.8C80.4,74.5,80.1,74.4,79.8,74.4z "></path></svg>