<svg xmlns="http://www.w3.org/2000/svg" width="70" height="70" viewBox="0 0 70 70" fill="none"><path d="M54.6875 60.1562C57.7078 60.1562 60.1562 57.7078 60.1562 54.6875C60.1562 51.6672 57.7078 49.2188 54.6875 49.2188C51.6672 49.2188 49.2188 51.6672 49.2188 54.6875C49.2188 57.7078 51.6672 60.1562 54.6875 60.1562Z" fill="#B5E7F3"></path><path d="M65.625 33.9062H42.5786C42.3132 32.085 41.4016 30.4199 40.0102 29.2151C38.6188 28.0102 36.8405 27.346 35 27.3438C34.7099 27.3438 34.4317 27.459 34.2266 27.6641C34.0215 27.8692 33.9062 28.1474 33.9062 28.4375V33.9062H24.0625C23.1923 33.9062 22.3577 34.252 21.7423 34.8673C21.127 35.4827 20.7813 36.3173 20.7812 37.1875V65.625C20.7813 66.4952 21.127 67.3298 21.7423 67.9452C22.3577 68.5605 23.1923 68.9062 24.0625 68.9062H65.625C66.4952 68.9062 67.3298 68.5605 67.9452 67.9452C68.5605 67.3298 68.9062 66.4952 68.9062 65.625V37.1875C68.9062 36.3173 68.5605 35.4827 67.9452 34.8673C67.3298 34.252 66.4952 33.9062 65.625 33.9062ZM28.4375 40.4688C31.4759 40.4688 31.8467 42.6562 33.9062 42.6562C36.0019 42.6562 36.2863 40.4688 39.375 40.4688C42.4112 40.4688 42.7842 42.6562 44.8438 42.6562C46.9503 42.6562 47.2062 40.4688 50.3125 40.4688C51.5809 40.4589 52.8047 40.9362 53.7316 41.802C57.0522 44.4631 57.4798 40.4688 61.25 40.4688C61.5401 40.4688 61.8183 40.584 62.0234 40.7891C62.2285 40.9942 62.3438 41.2724 62.3438 41.5625C62.3438 41.8526 62.2285 42.1308 62.0234 42.3359C61.8183 42.541 61.5401 42.6562 61.25 42.6562C59.1084 42.6562 58.8984 44.8438 55.7812 44.8438C52.7089 44.8438 52.4016 42.6562 50.3125 42.6562C48.2234 42.6562 47.9511 44.8438 44.8438 44.8438C41.8075 44.8438 41.4345 42.6562 39.375 42.6562C37.2903 42.6562 36.9862 44.8438 33.9062 44.8438C30.8263 44.8438 30.5572 42.6562 28.4375 42.6562C28.1474 42.6562 27.8692 42.541 27.6641 42.3359C27.459 42.1308 27.3438 41.8526 27.3438 41.5625C27.3438 41.2724 27.459 40.9942 27.6641 40.7891C27.8692 40.584 28.1474 40.4688 28.4375 40.4688ZM28.4375 49.2188C31.4759 49.2188 31.8467 51.4062 33.9062 51.4062C36.0019 51.4062 36.2863 49.2188 39.375 49.2188C40.3853 49.1938 41.3759 49.5012 42.1947 50.0938C42.3161 50.1746 42.4201 50.2789 42.5006 50.4005C42.5811 50.5222 42.6364 50.6587 42.6634 50.802C42.6903 50.9453 42.6884 51.0926 42.6575 51.2352C42.6267 51.3778 42.5677 51.5127 42.484 51.6321C42.4002 51.7515 42.2934 51.853 42.1699 51.9305C42.0464 52.0081 41.9086 52.0601 41.7646 52.0836C41.6207 52.1071 41.4735 52.1016 41.3317 52.0673C41.1899 52.0331 41.0564 51.9708 40.9391 51.8842C40.4872 51.5518 39.9355 51.3832 39.375 51.4062C37.2903 51.4062 36.9862 53.5938 33.9062 53.5938C30.8263 53.5938 30.5572 51.4062 28.4375 51.4062C28.1474 51.4062 27.8692 51.291 27.6641 51.0859C27.459 50.8808 27.3438 50.6026 27.3438 50.3125C27.3438 50.0224 27.459 49.7442 27.6641 49.5391C27.8692 49.334 28.1474 49.2188 28.4375 49.2188ZM44.835 62.3438C41.7987 62.3438 41.4258 60.1562 39.3663 60.1562C37.2816 60.1562 36.9775 62.3438 33.8975 62.3438C30.8175 62.3438 30.5484 60.1562 28.4288 60.1562C28.1387 60.1562 27.8605 60.041 27.6554 59.8359C27.4502 59.6308 27.335 59.3526 27.335 59.0625C27.335 58.7724 27.4502 58.4942 27.6554 58.2891C27.8605 58.084 28.1387 57.9688 28.4288 57.9688C31.4672 57.9688 31.838 60.1562 33.8975 60.1562C35.9931 60.1562 36.2775 57.9688 39.3663 57.9688C42.4025 57.9688 42.7755 60.1562 44.835 60.1562C45.1251 60.1562 45.4033 60.2715 45.6084 60.4766C45.8135 60.6817 45.9288 60.9599 45.9288 61.25C45.9288 61.5401 45.8135 61.8183 45.6084 62.0234C45.4033 62.2285 45.1251 62.3438 44.835 62.3438ZM64.2108 64.2108C64.0057 64.4158 63.7275 64.531 63.4375 64.531C63.1475 64.531 62.8693 64.4158 62.6642 64.2108L59.2637 60.8125C57.7072 61.9766 55.7675 62.5078 53.835 62.2992C51.9025 62.0906 50.1208 61.1577 48.8486 59.6882C47.5763 58.2188 46.908 56.3219 46.9781 54.3795C47.0482 52.437 47.8516 50.5933 49.2265 49.2194C50.6014 47.8455 52.4457 47.0434 54.3881 46.9747C56.3306 46.9059 58.227 47.5756 59.6956 48.8489C61.1641 50.1222 62.0958 51.9045 62.303 53.8372C62.5103 55.7698 61.9777 57.7091 60.8125 59.2648L64.213 62.6642C64.4177 62.8696 64.5325 63.1479 64.5321 63.438C64.5317 63.728 64.4161 64.006 64.2108 64.2108Z" fill="#B5E7F3"></path><path d="M19.7906 5.08054C17.5663 5.80175 15.5547 7.06146 13.9346 8.74764C12.3146 10.4338 11.1363 12.4942 10.5046 14.7456C9.87295 16.997 9.80741 19.3696 10.3138 21.6524C10.8203 23.9352 11.883 26.0575 13.4075 27.8305L9.42843 31.8129L8.56108 30.9455C8.35598 30.7405 8.07783 30.6253 7.7878 30.6253C7.49778 30.6253 7.21963 30.7405 7.01452 30.9455L2.09265 35.8674C1.45244 36.5076 1.09277 37.3759 1.09277 38.2813C1.09277 39.1867 1.45244 40.055 2.09265 40.6952C2.73285 41.3354 3.60116 41.6951 4.50655 41.6951C5.41194 41.6951 6.28025 41.3354 6.92046 40.6952L11.8423 35.7734C12.0474 35.5682 12.1626 35.2901 12.1626 35.0001C12.1626 34.7101 12.0474 34.4319 11.8423 34.2268L10.975 33.3595L13.2566 31.0779V53.5938C13.2566 53.8839 13.3718 54.1621 13.5769 54.3672C13.782 54.5723 14.0602 54.6876 14.3503 54.6876C14.6404 54.6876 14.9186 54.5723 15.1237 54.3672C15.3288 54.1621 15.4441 53.8839 15.4441 53.5938V29.7774C17.1976 31.1524 19.2501 32.0956 21.4356 32.5308C23.6211 32.9659 25.8783 32.8808 28.0248 32.2823C30.1714 31.6839 32.147 30.5888 33.792 29.0856C35.4371 27.5824 36.7055 25.7134 37.4946 23.6294C38.2838 21.5454 38.5716 19.305 38.3348 17.0892C38.098 14.8734 37.3433 12.7444 36.1316 10.8743C34.9199 9.00409 33.2852 7.44522 31.3597 6.32361C29.4341 5.202 27.2717 4.54912 25.0472 4.41773C26.6245 3.75818 28.305 3.37951 30.0128 3.29883C32.0842 3.19669 34.1548 3.51669 36.0988 4.23937C38.0427 4.96206 39.8195 6.07236 41.3212 7.50283C42.8228 8.9333 44.0181 10.6541 44.8342 12.5607C45.6504 14.4673 46.0705 16.5199 46.0691 18.5938V25.1563C46.0688 25.3721 46.1328 25.583 46.2528 25.7623L51.4405 33.5443C51.5265 33.6733 51.584 33.8192 51.6094 33.9722C51.6347 34.1252 51.6272 34.2818 51.5874 34.4317C51.5475 34.5816 51.4763 34.7213 51.3784 34.8415C51.2805 34.9617 51.1581 35.0598 51.0194 35.1291L46.6728 37.297C46.4904 37.3884 46.3371 37.529 46.2304 37.703C46.1237 37.8769 46.0678 38.0773 46.0691 38.2813V41.5626C46.0691 41.8527 45.9538 42.1309 45.7487 42.336C45.5436 42.5411 45.2654 42.6563 44.9753 42.6563H37.3191C37.029 42.6563 36.7508 42.7716 36.5457 42.9767C36.3405 43.1818 36.2253 43.46 36.2253 43.7501V53.5938C36.2253 53.8839 36.3405 54.1621 36.5457 54.3672C36.7508 54.5723 37.029 54.6876 37.3191 54.6876C37.6091 54.6876 37.8873 54.5723 38.0925 54.3672C38.2976 54.1621 38.4128 53.8839 38.4128 53.5938V44.8438H44.9753C45.8455 44.8438 46.6801 44.4981 47.2955 43.8828C47.9109 43.2674 48.2566 42.4328 48.2566 41.5626V38.9573L51.9983 37.0859C52.4148 36.8782 52.7823 36.5844 53.0765 36.2238C53.3708 35.8633 53.5849 35.4443 53.7048 34.9946C53.8247 34.5449 53.8476 34.0749 53.7719 33.6157C53.6962 33.1566 53.5238 32.7187 53.2659 32.3313L48.2566 24.8282V18.5938C48.2584 16.224 47.7785 13.8786 46.8461 11.7C45.9137 9.52129 44.5483 7.55486 42.8327 5.92007C41.1171 4.28527 39.0871 3.01621 36.866 2.18995C34.645 1.36368 32.2791 0.997461 29.9122 1.11351C26.1939 1.28716 22.6366 2.68142 19.7906 5.08054ZM5.3739 39.1487C5.14003 39.3713 4.82947 39.4955 4.50655 39.4955C4.18363 39.4955 3.87308 39.3713 3.63921 39.1487C3.40958 38.9184 3.28063 38.6065 3.28063 38.2813C3.28063 37.9561 3.40958 37.6442 3.63921 37.414L7.7878 33.2654L9.52249 35.0001L5.3739 39.1487ZM36.2253 18.5938C36.2253 20.9734 35.5197 23.2995 34.1977 25.278C32.8757 27.2566 30.9966 28.7986 28.7982 29.7092C26.5998 30.6199 24.1807 30.8581 21.8469 30.3939C19.513 29.9297 17.3693 28.7838 15.6867 27.1012C14.0041 25.4186 12.8582 23.2748 12.394 20.941C11.9298 18.6072 12.168 16.1881 13.0786 13.9897C13.9892 11.7912 15.5313 9.91222 17.5098 8.59021C19.4884 7.2682 21.8145 6.56258 24.1941 6.56258C27.3838 6.56634 30.4418 7.83512 32.6973 10.0906C34.9528 12.3461 36.2215 15.4041 36.2253 18.5938Z" fill="#151A6A"></path><path d="M29.6078 25.5534C29.8129 25.7584 30.091 25.8736 30.3811 25.8736C30.6711 25.8736 30.9492 25.7584 31.1543 25.5534C32.9977 23.7061 34.0329 21.203 34.0329 18.5933C34.0329 15.9836 32.9977 13.4805 31.1543 11.6332C30.9481 11.434 30.6718 11.3237 30.385 11.3262C30.0982 11.3287 29.8239 11.4437 29.6211 11.6465C29.4183 11.8493 29.3033 12.1236 29.3008 12.4104C29.2983 12.6972 29.4085 12.9735 29.6078 13.1798C31.0416 14.6167 31.8469 16.5638 31.8469 18.5938C31.8469 20.6238 31.0416 22.5709 29.6078 24.0079C29.4031 24.213 29.2881 24.4909 29.2881 24.7806C29.2881 25.0704 29.4031 25.3483 29.6078 25.5534Z" fill="#151A6A"></path></svg>