<svg xmlns="http://www.w3.org/2000/svg" xmlns:xlink="http://www.w3.org/1999/xlink" id="Capa_1" x="0px" y="0px" viewBox="0 0 140 140" style="enable-background:new 0 0 140 140;" xml:space="preserve"><style type="text/css">	.st0{display:none;}	.st1{display:inline;opacity:0.2;fill:#FF9999;enable-background:new    ;}	.st2{fill:#B5E7F3;}	.st3{fill:#151A6A;}	.st4{fill:none;stroke:#5FBCD3;stroke-width:2;}</style><g id="Capa_2_00000137105293060588728540000000394128420639673021_" class="st0">	<rect x="-125" y="37" class="st1" width="70" height="70"></rect></g><g>	<path class="st2" d="M87.3,72.3H73.7c-0.3,0-0.6,0.2-0.8,0.4c-0.2,0.2-0.3,0.5-0.4,0.8c-0.7,4.3,0,8.8,2.1,12.7  c0.5,1.1,1.4,2,2.4,2.6c1,0.6,2.2,1,3.4,1c1.2,0,2.4-0.3,3.4-1c1-0.6,1.9-1.5,2.4-2.6c2.1-3.9,2.8-8.4,2.1-12.7  c0-0.3-0.1-0.6-0.4-0.8C87.8,72.5,87.6,72.4,87.3,72.3z"></path>	<path class="st2" d="M63,79.3c1.3,0,2.3-1,2.3-2.3c0-1.3-1-2.3-2.3-2.3s-2.3,1-2.3,2.3C60.7,78.3,61.7,79.3,63,79.3z"></path>	<path class="st2" d="M98,79.3c1.3,0,2.3-1,2.3-2.3c0-1.3-1-2.3-2.3-2.3s-2.3,1-2.3,2.3C95.6,78.3,96.7,79.3,98,79.3z"></path>	<path class="st2" d="M102.6,61.8H58.3c-0.9,0-1.8,0.4-2.5,1c-0.7,0.7-1,1.5-1,2.5v37.3c0,0.9,0.4,1.8,1,2.5c0.7,0.7,1.5,1,2.5,1  h44.3c0.9,0,1.8-0.4,2.5-1c0.7-0.7,1-1.5,1-2.5V65.3c0-0.9-0.4-1.8-1-2.5C104.4,62.2,103.6,61.8,102.6,61.8z M72.3,101.5h-14  c-0.3,0-0.6-0.1-0.8-0.3s-0.3-0.5-0.3-0.8c0-0.3,0.1-0.6,0.3-0.8c0.2-0.2,0.5-0.3,0.8-0.3h14c0.3,0,0.6,0.1,0.8,0.3  c0.2,0.2,0.3,0.5,0.3,0.8c0,0.3-0.1,0.6-0.3,0.8C72.9,101.3,72.6,101.5,72.3,101.5z M72.3,95.6h-14c-0.3,0-0.6-0.1-0.8-0.3  c-0.2-0.2-0.3-0.5-0.3-0.8c0-0.3,0.1-0.6,0.3-0.8c0.2-0.2,0.5-0.3,0.8-0.3h14c0.3,0,0.6,0.1,0.8,0.3c0.2,0.2,0.3,0.5,0.3,0.8  c0,0.3-0.1,0.6-0.3,0.8C72.9,95.5,72.6,95.6,72.3,95.6z M102.6,96.8h-3.5v3.5c0,0.3-0.1,0.6-0.3,0.8c-0.2,0.2-0.5,0.3-0.8,0.3  s-0.6-0.1-0.8-0.3s-0.3-0.5-0.3-0.8v-3.5h-3.5c-0.3,0-0.6-0.1-0.8-0.3c-0.2-0.2-0.3-0.5-0.3-0.8c0-0.3,0.1-0.6,0.3-0.8  c0.2-0.2,0.5-0.3,0.8-0.3h3.5V91c0-0.3,0.1-0.6,0.3-0.8s0.5-0.3,0.8-0.3s0.6,0.1,0.8,0.3c0.2,0.2,0.3,0.5,0.3,0.8v3.5h3.5  c0.3,0,0.6,0.1,0.8,0.3c0.2,0.2,0.3,0.5,0.3,0.8c0,0.3-0.1,0.6-0.3,0.8C103.2,96.7,102.9,96.8,102.6,96.8z M102.5,75.9  c0.1,0.4,0.1,0.7,0.1,1.1c0,1.1-0.4,2.1-1,3c-0.7,0.8-1.6,1.4-2.7,1.6c-1.1,0.2-2.2,0.1-3.1-0.4c-1-0.5-1.7-1.3-2.2-2.3  c-0.4-1-0.5-2.1-0.2-3.1c0.3-1,0.9-1.9,1.8-2.6c0.9-0.6,2-0.9,3-0.8c1.1,0.1,2.1,0.5,2.9,1.3c0.2-0.4,0.3-0.9,0.3-1.4  c0-4.4-5.7-4-9.5-1.7l-1.9,1.1c0.3,0.5,0.5,1,0.6,1.6c0.8,4.9,0,9.8-2.4,14.2c-0.7,1.2-1.6,2.3-2.8,3.1c-1.2,0.8-2.5,1.3-3.9,1.6  v8.2c0,0.3-0.1,0.6-0.3,0.8c-0.2,0.2-0.5,0.3-0.8,0.3c-0.3,0-0.6-0.1-0.8-0.3c-0.2-0.2-0.3-0.5-0.3-0.8v-8.2  c-1.4-0.2-2.7-0.7-3.9-1.6c-1.2-0.8-2.1-1.9-2.8-3.1c-2.3-4.3-3.2-9.3-2.4-14.2c0.1-0.6,0.3-1.1,0.6-1.6L69,70.5  c-3.7-2.2-9.5-2.7-9.5,1.7c0,0.5,0.1,0.9,0.3,1.4c0.8-0.8,1.9-1.3,3.1-1.3c1.2-0.1,2.3,0.3,3.2,1c0.9,0.7,1.5,1.7,1.8,2.9  c0.2,1.1,0,2.3-0.6,3.3c-0.6,1-1.5,1.8-2.6,2.1c-1.1,0.4-2.3,0.3-3.4-0.1c-1.1-0.4-2-1.3-2.5-2.3c-0.5-1-0.6-2.2-0.4-3.3  c-0.8-1-1.3-2.3-1.3-3.6c0-5.1,6-7.9,13-3.7l2.7,1.6c0.3-0.1,0.6-0.1,0.9-0.1h13.5c0.3,0,0.6,0,0.9,0.1l2.7-1.6  c7-4.2,13-1.4,13,3.7C103.8,73.6,103.3,74.9,102.5,75.9z"></path>	<path class="st3" d="M71.9,52.9l4,1.6c0.2,1.2,0.7,2.3,1.5,3.2c0.8,0.9,1.9,1.5,3.1,1.7V66l-0.3-0.3c-0.2-0.2-0.5-0.3-0.8-0.3  c-0.3,0-0.6,0.1-0.8,0.3c-0.2,0.2-0.3,0.5-0.3,0.8c0,0.3,0.1,0.6,0.3,0.8l2.3,2.3c0.1,0.1,0.2,0.2,0.4,0.3s0.3,0.1,0.4,0.1  c0.2,0,0.3,0,0.4-0.1c0.1-0.1,0.3-0.1,0.4-0.3l2.3-2.3c0.1-0.1,0.2-0.2,0.3-0.4c0.1-0.1,0.1-0.3,0.1-0.4c0-0.2,0-0.3-0.1-0.4  c-0.1-0.1-0.1-0.3-0.3-0.4c-0.1-0.1-0.2-0.2-0.4-0.3c-0.1-0.1-0.3-0.1-0.4-0.1c-0.2,0-0.3,0-0.4,0.1c-0.1,0.1-0.3,0.1-0.4,0.3  L82.8,66v-6.6c1.2-0.3,2.3-0.9,3.2-1.8c0.8-0.9,1.3-2.1,1.5-3.3c1.5-1.3,2.7-3,3.5-4.8c0.8-1.8,1.2-3.8,1.2-5.8  c0-1.2-0.3-2.4-1-3.4c-0.6-1-1.6-1.8-2.6-2.3c-1.1-0.5-2.3-0.7-3.5-0.5c-1.2,0.2-2.3,0.6-3.2,1.4c-2.5,2.1-5.4,3.4-8.6,4  c-1.1-5.1-5.2-9-10.2-9s-9.1,3.8-10.2,9c-3.2-0.6-6.1-2-8.6-4c-0.9-0.8-2-1.2-3.2-1.4c-1.2-0.2-2.4,0-3.5,0.5s-2,1.3-2.6,2.3  c-0.6,1-1,2.2-1,3.4c0,2,0.4,4,1.2,5.8s2,3.4,3.5,4.8c0.1,1.4,0.8,2.7,1.8,3.7s2.4,1.5,3.8,1.6c1.4,0,2.8-0.5,3.9-1.4  c1.1-0.9,1.8-2.2,2-3.6l4-1.6c0.9,3.8,1.2,7.7,0.8,11.6c-0.1,0.8-0.1,1.7-0.1,2.5c0,1,0.1,2,0.1,2.9h-5.5l0.3-0.3  c0.2-0.2,0.3-0.5,0.3-0.8c0-0.3-0.1-0.6-0.3-0.8c-0.2-0.2-0.5-0.3-0.8-0.3c-0.3,0-0.6,0.1-0.8,0.3l-2.3,2.3  c-0.1,0.1-0.2,0.2-0.3,0.4c-0.1,0.1-0.1,0.3-0.1,0.4s0,0.3,0.1,0.4c0.1,0.1,0.1,0.3,0.3,0.4l2.3,2.3c0.1,0.1,0.2,0.2,0.4,0.3  c0.1,0.1,0.3,0.1,0.4,0.1c0.2,0,0.3,0,0.4-0.1c0.1-0.1,0.3-0.1,0.4-0.3c0.1-0.1,0.2-0.2,0.3-0.4c0.1-0.1,0.1-0.3,0.1-0.4  c0-0.2,0-0.3-0.1-0.4c-0.1-0.1-0.1-0.3-0.3-0.4l-0.3-0.3h5.8c0.3,1.6,0.7,3.1,1.3,4.5c1.9,4.5,2.9,9.3,2.9,14.1  c0,0.2,0,0.3,0.1,0.4c0.1,0.1,0.1,0.3,0.3,0.4c0.1,0.1,0.2,0.2,0.4,0.3c0.1,0.1,0.3,0.1,0.4,0.1h4.7c0.3,0,0.6-0.1,0.8-0.4  c0.2-0.2,0.3-0.5,0.3-0.8c0.1-4.8,1.1-9.6,2.9-14.1c1.2-3.1,1.8-6.4,1.7-9.8c0-0.9,0-1.7-0.1-2.5C70.7,60.6,71,56.7,71.9,52.9z   M81.7,57.2c-0.7,0-1.4-0.2-1.9-0.6c-0.6-0.4-1-0.9-1.3-1.6c-0.3-0.6-0.3-1.3-0.2-2c0.1-0.7,0.5-1.3,1-1.8c0.5-0.5,1.1-0.8,1.8-1  c0.7-0.1,1.4-0.1,2,0.2c0.6,0.3,1.2,0.7,1.6,1.3c0.4,0.6,0.6,1.3,0.6,1.9c0,0.9-0.4,1.8-1,2.5C83.5,56.8,82.6,57.2,81.7,57.2z   M83.3,40.6c0.6-0.5,1.3-0.8,2-0.9c0.7-0.1,1.5,0,2.2,0.3c0.7,0.3,1.3,0.8,1.7,1.5c0.4,0.6,0.6,1.4,0.6,2.1c0,2.8-1,5.5-2.8,7.7  c-0.5-1.1-1.3-2-2.3-2.6c-1-0.6-2.2-0.9-3.4-0.8c-1.2,0.1-2.3,0.5-3.3,1.3c-0.9,0.8-1.6,1.8-1.9,2.9l-3.6-1.4c0.7-1.7,1-3.6,1-5.4  C77.1,44.5,80.5,43,83.3,40.6z M63,36.2c3.8,0,7,3,7.9,6.9c-1.2,0.1-14.5,0.1-15.8,0C56.1,39.2,59.2,36.2,63,36.2z M63,54.4  c-1.2-1.2-2.1-2.5-2.7-4.1c-0.6-1.5-0.9-3.2-0.8-4.8h7.1c0.1,1.6-0.2,3.3-0.8,4.8C65.1,51.9,64.1,53.3,63,54.4z M44.4,57.2  c-0.7,0-1.4-0.2-1.9-0.6c-0.6-0.4-1-0.9-1.3-1.6c-0.3-0.6-0.3-1.3-0.2-2c0.1-0.7,0.5-1.3,1-1.8c0.5-0.5,1.1-0.8,1.8-1  c0.7-0.1,1.4-0.1,2,0.2c0.6,0.3,1.2,0.7,1.6,1.3c0.4,0.6,0.6,1.3,0.6,1.9c0,0.9-0.4,1.8-1,2.5C46.2,56.8,45.3,57.2,44.4,57.2z   M49.9,52.1c-0.3-1.1-1-2.2-1.9-2.9c-0.9-0.8-2.1-1.2-3.3-1.3c-1.2-0.1-2.4,0.2-3.4,0.8c-1,0.6-1.8,1.5-2.3,2.6  c-1.8-2.1-2.8-4.8-2.8-7.7c0-0.8,0.2-1.5,0.6-2.1c0.4-0.6,1-1.1,1.7-1.5c0.7-0.3,1.4-0.4,2.2-0.3c0.7,0.1,1.5,0.4,2,0.9  c2.8,2.3,6.2,3.9,9.8,4.6c0,1.9,0.3,3.7,1,5.4L49.9,52.1z M68.7,64.7c0.1,0.8,0.1,1.6,0.1,2.4c0,3-0.5,6.1-1.6,8.9  c-1.8,4.4-2.9,9.1-3.1,13.8h-2.4c-0.2-4.7-1.3-9.4-3.1-13.8c-1.1-2.9-1.6-5.9-1.6-8.9c0-0.8,0-1.6,0.1-2.4  c0.9-11.1-2.4-15-2.4-19.2c0,0,0,0,0-0.1c1.5,0.1,1.4,0,2.2,0.1c-0.1,2.1,0.3,4.1,1.1,6s2.1,3.6,3.6,5v21.6c0,0.3,0.1,0.6,0.3,0.8  c0.2,0.2,0.5,0.3,0.8,0.3c0.3,0,0.6-0.1,0.8-0.3c0.2-0.2,0.3-0.5,0.3-0.8V56.5c1.5-1.4,2.7-3.1,3.5-5c0.8-1.9,1.2-3.9,1.1-6  c0.7,0,0.9,0,2.3-0.1C71.2,49.6,67.8,53.7,68.7,64.7z"></path>	<path class="st3" d="M88.6,72.3h-14c-0.2,0-0.3,0-0.4,0.1c-0.1,0.1-0.3,0.1-0.4,0.3c-0.1,0.1-0.2,0.2-0.3,0.4  c-0.1,0.1-0.1,0.3-0.1,0.4v7c0,0.2,0,0.3,0.1,0.4c0.1,0.1,0.1,0.3,0.3,0.4c0.1,0.1,0.2,0.2,0.4,0.3c0.1,0.1,0.3,0.1,0.4,0.1h14  c0.2,0,0.3,0,0.4-0.1c0.1-0.1,0.3-0.1,0.4-0.3c0.1-0.1,0.2-0.2,0.3-0.4c0.1-0.1,0.1-0.3,0.1-0.4v-7c0-0.2,0-0.3-0.1-0.4  c-0.1-0.1-0.1-0.3-0.3-0.4c-0.1-0.1-0.2-0.2-0.4-0.3C89,72.4,88.8,72.3,88.6,72.3z M87.5,79.3H75.8v-4.7h11.7V79.3z"></path>	<path class="st3" d="M42,63h-7c-0.2,0-0.3,0-0.4,0.1c-0.1,0.1-0.3,0.1-0.4,0.3c-0.1,0.1-0.2,0.2-0.3,0.4c-0.1,0.1-0.1,0.3-0.1,0.4  v14c0,0.2,0,0.3,0.1,0.4c0.1,0.1,0.1,0.3,0.3,0.4c0.1,0.1,0.2,0.2,0.4,0.3c0.1,0.1,0.3,0.1,0.4,0.1h7c0.2,0,0.3,0,0.4-0.1  c0.1-0.1,0.3-0.1,0.4-0.3c0.1-0.1,0.2-0.2,0.3-0.4s0.1-0.3,0.1-0.4v-14c0-0.2,0-0.3-0.1-0.4c-0.1-0.1-0.1-0.3-0.3-0.4  s-0.2-0.2-0.4-0.3C42.3,63,42.2,63,42,63z M40.9,77h-4.7V65.3h4.7V77z"></path></g><g id="Capa_1_00000024696074372211725500000001657489236144368790_">	<circle class="st4" cx="70" cy="70" r="69"></circle></g></svg>