<svg xmlns="http://www.w3.org/2000/svg" width="71" height="71" viewBox="0 0 71 71" fill="none"><g clip-path="url(#clip0_17_397)"><path d="M0.00662609 20.3347C-0.245123 13.5991 5.07562 7.22721 11.7504 6.06869L46.7979 0.208713C53.425 -1.16535 59.8412 4.43867 61.4606 10.4401L70.5371 47.5802C72.5784 54.2552 67.6386 61.1525 60.6849 61.8462L17.806 70.8517C11.0087 71.8216 3.0072 68.0901 2.36082 60.6203L0.00662609 20.3347Z" fill="#009FDA"></path><path d="M45.5 39C45.5 39.2967 45.412 39.5867 45.2472 39.8334C45.0824 40.08 44.8481 40.2723 44.574 40.3858C44.2999 40.4993 43.9983 40.5291 43.7074 40.4712C43.4164 40.4133 43.1491 40.2704 42.9393 40.0607C42.7296 39.8509 42.5867 39.5836 42.5288 39.2926C42.4709 39.0017 42.5007 38.7001 42.6142 38.426C42.7277 38.1519 42.92 37.9176 43.1666 37.7528C43.4133 37.588 43.7033 37.5 44 37.5C44.3978 37.5 44.7794 37.658 45.0607 37.9393C45.342 38.2206 45.5 38.6022 45.5 39ZM44.9312 43.9112C44.7116 45.3273 43.9932 46.6182 42.9057 47.5513C41.8181 48.4844 40.433 48.9982 39 49H36C34.4092 48.9983 32.884 48.3657 31.7592 47.2408C30.6343 46.116 30.0017 44.5908 30 43V37.9363C28.0669 37.6927 26.2891 36.7521 25.0003 35.2909C23.7115 33.8297 23.0002 31.9484 23 30V25C23 24.4696 23.2107 23.9609 23.5858 23.5858C23.9609 23.2107 24.4696 23 25 23H27C27.2652 23 27.5196 23.1054 27.7071 23.2929C27.8946 23.4804 28 23.7348 28 24C28 24.2652 27.8946 24.5196 27.7071 24.7071C27.5196 24.8946 27.2652 25 27 25H25V30C24.9999 30.7947 25.1577 31.5815 25.4643 32.3147C25.7708 33.0479 26.2199 33.713 26.7855 34.2712C27.3512 34.8294 28.0221 35.2697 28.7593 35.5664C29.4965 35.8632 30.2854 36.0106 31.08 36C34.3438 35.9575 37 33.2188 37 29.8962V25H35C34.7348 25 34.4804 24.8946 34.2929 24.7071C34.1054 24.5196 34 24.2652 34 24C34 23.7348 34.1054 23.4804 34.2929 23.2929C34.4804 23.1054 34.7348 23 35 23H37C37.5304 23 38.0391 23.2107 38.4142 23.5858C38.7893 23.9609 39 24.4696 39 25V29.8962C39 34.0012 35.9338 37.4325 32 37.935V43C32 44.0609 32.4214 45.0783 33.1716 45.8284C33.9217 46.5786 34.9391 47 36 47H39C39.9084 46.9985 40.7893 46.6884 41.4983 46.1207C42.2074 45.5529 42.7025 44.7611 42.9025 43.875C41.6948 43.6037 40.6306 42.8941 39.916 41.8835C39.2013 40.8729 38.8869 39.6331 39.0336 38.404C39.1803 37.1749 39.7776 36.0439 40.7101 35.2299C41.6426 34.4159 42.8439 33.9767 44.0815 33.9972C45.3191 34.0178 46.5051 34.4968 47.41 35.3414C48.3149 36.186 48.8743 37.3362 48.98 38.5694C49.0858 39.8027 48.7303 41.0314 47.9824 42.0177C47.2345 43.004 46.1473 43.6778 44.9312 43.9088V43.9112ZM47 39C47 38.4067 46.8241 37.8266 46.4944 37.3333C46.1648 36.8399 45.6962 36.4554 45.1481 36.2284C44.5999 36.0013 43.9967 35.9419 43.4147 36.0576C42.8328 36.1734 42.2982 36.4591 41.8787 36.8787C41.4591 37.2982 41.1734 37.8328 41.0576 38.4147C40.9419 38.9967 41.0013 39.5999 41.2284 40.1481C41.4554 40.6962 41.8399 41.1648 42.3333 41.4944C42.8266 41.8241 43.4067 42 44 42C44.7956 42 45.5587 41.6839 46.1213 41.1213C46.6839 40.5587 47 39.7956 47 39Z" fill="white"></path></g><defs><clipPath id="clip0_17_397"><rect width="71" height="71" fill="white"></rect></clipPath></defs></svg>