<svg xmlns="http://www.w3.org/2000/svg" width="71" height="71" viewBox="0 0 71 71" fill="none"><g clip-path="url(#clip0_17_385)"><path d="M0.00687023 20.3347C-0.244879 13.5991 5.07587 7.22721 11.7506 6.06869L46.7981 0.208713C53.4253 -1.16535 59.8415 4.43867 61.4608 10.4401L70.5374 47.5802C72.5786 54.2552 67.6389 61.1525 60.6852 61.8462L17.8062 70.8517C11.009 71.8216 3.00745 68.0901 2.36106 60.6203L0.00687023 20.3347Z" fill="#009FDA"></path><path d="M49.7499 32.3413L42.7499 24.3412C42.6563 24.2344 42.541 24.1486 42.4117 24.0898C42.2824 24.0309 42.142 24.0003 41.9999 24H27.9999C27.8579 24.0003 27.7175 24.0309 27.5882 24.0898C27.4588 24.1486 27.3435 24.2344 27.2499 24.3412L20.2499 32.3413C20.0866 32.5277 19.9984 32.7681 20.0023 33.016C20.0062 33.2638 20.1021 33.5013 20.2712 33.6825L34.2712 48.6825C34.3648 48.7828 34.478 48.8628 34.6038 48.9175C34.7296 48.9722 34.8653 49.0004 35.0024 49.0004C35.1396 49.0004 35.2753 48.9722 35.4011 48.9175C35.5269 48.8628 35.6401 48.7828 35.7337 48.6825L49.7337 33.6825C49.9021 33.5007 49.997 33.2628 50 33.015C50.0031 32.7672 49.9139 32.5271 49.7499 32.3413ZM46.7962 32H41.4999L36.9999 26H41.5462L46.7962 32ZM28.3224 34L32.0887 43.4163L23.3012 34H28.3224ZM39.5224 34L34.9999 45.3075L30.4774 34H39.5224ZM30.9999 32L34.9999 26.6663L38.9999 32H30.9999ZM41.6774 34H46.6987L37.9112 43.4163L41.6774 34ZM28.4537 26H32.9999L28.4999 32H23.2037L28.4537 26Z" fill="white"></path></g><defs><clipPath id="clip0_17_385"><rect width="71" height="71" fill="white"></rect></clipPath></defs></svg>