<svg xmlns="http://www.w3.org/2000/svg" width="151" height="44" viewBox="0 0 151 44" fill="none"><path d="M109.073 28.9456V7.28516H106.225L97.7332 14.8335L89.2416 7.28516H86.3938V28.9456H89.5982V12.1263L97.6379 19.1508H97.8258L105.868 12.1263V28.9456H109.07H109.073Z" fill="black"></path><path d="M69.3833 7.84196C68.2915 7.48264 67.099 7.28516 65.8113 7.28516C59.4214 7.28516 55 12.1428 55 18.3938C55 24.6448 59.4242 29.5024 65.8113 29.5024C67.099 29.5024 68.2915 29.3021 69.3833 28.9401V25.4649C68.3541 26.0244 67.1535 26.3481 65.8113 26.3481C61.2646 26.3481 58.2861 22.7906 58.2861 18.3965C58.2861 14.0024 61.2347 10.4449 65.8113 10.4449C67.1562 10.4449 68.3569 10.7659 69.3833 11.3227V7.84744V7.84196Z" fill="black"></path><path d="M136.617 7.84196C137.708 7.48264 138.901 7.28516 140.189 7.28516C146.579 7.28516 151 12.1428 151 18.3938C151 24.6448 146.576 29.5024 140.189 29.5024C138.901 29.5024 137.708 29.3021 136.617 28.9401V25.4649C137.646 26.0244 138.847 26.3481 140.189 26.3481C144.735 26.3481 147.714 22.7906 147.714 18.3965C147.714 14.0024 144.765 10.4449 140.189 10.4449C138.844 10.4449 137.643 10.7659 136.617 11.3227V7.84744V7.84196Z" fill="black"></path><path d="M76.2931 28.9456H79.4867V7.28516H76.2931V28.9456Z" fill="black"></path><path d="M115.781 28.9457H129.911V26.0053H118.945V19.2277H128.958V16.3175H118.945V10.2201H129.911V7.27979H115.781V28.9402V28.9457Z" fill="black"></path><path d="M79.5357 35.4077C81.6865 35.4077 82.5359 36.3979 82.8735 37.229L82.928 37.3661L81.8389 37.783L81.779 37.6706C81.2999 36.749 80.1809 36.6118 79.5602 36.6118C77.8613 36.6118 77.5836 37.2509 77.5373 37.4895C77.4829 37.7858 77.6571 38.2822 78.3622 38.4386C78.7216 38.5181 79.1082 38.5593 79.4812 38.6004C79.6364 38.6169 79.7997 38.6361 79.9577 38.6553C80.1401 38.68 80.3688 38.7046 80.5702 38.7293C80.8098 38.7568 80.9977 38.7787 81.0657 38.7897H81.0712C82.8436 39.1435 82.9225 40.4272 82.8735 40.962C82.8408 41.3268 82.5305 43.0027 79.6854 43.0027C77.5346 43.0027 76.6824 42.0125 76.3476 41.1814L76.2931 41.0443L77.3821 40.6274L77.442 40.7398C77.9212 41.6615 79.0402 41.7986 79.6609 41.7986C81.3598 41.7986 81.6375 41.1595 81.6838 40.9209C81.73 40.6713 81.6184 40.1501 80.8615 39.9718C80.5539 39.9115 80.0693 39.8457 79.5629 39.7963H79.5438C79.0619 39.7469 78.6427 39.7058 78.1553 39.6208C76.3775 39.2669 76.3013 37.9833 76.3503 37.4484C76.3829 37.0836 76.6933 35.4077 79.5384 35.4077M90.856 35.4927H92.1139L94.9344 42.9177H93.6576L92.9878 41.143H89.9794L89.3096 42.9177H88.0328L90.8533 35.4927H90.856ZM91.485 37.1604L90.434 39.9417H92.5331L91.4822 37.1604H91.485ZM100.63 35.4873H101.822V41.7136H105.92V42.9177H100.63V35.4873ZM111.349 35.4955H112.541V39.9691C112.541 41.1156 113.295 41.7986 114.561 41.7986C115.827 41.7986 116.581 41.1156 116.581 39.9691V35.4955H117.774V39.9691C117.774 41.8397 116.543 43 114.561 43C112.579 43 111.349 41.837 111.349 39.9691V35.4955ZM123.693 35.4927H126.745C127.779 35.4927 128.631 35.8356 129.214 36.4857C129.813 37.1577 130.118 37.975 130.118 39.2066C130.118 40.4381 129.813 41.2555 129.214 41.9275C128.634 42.5776 127.779 42.9204 126.745 42.9204H123.693V35.4955V35.4927ZM124.885 36.6941V41.7136H126.745C127.453 41.7136 127.992 41.5024 128.351 41.0854C128.732 40.6438 128.923 40.1062 128.923 39.2038C128.923 38.3014 128.73 37.7611 128.351 37.3222C127.992 36.9053 127.45 36.6941 126.745 36.6941H124.885Z" fill="black"></path><path d="M31.8672 11.1508C31.8672 11.1508 31.8719 11.1226 31.8719 11.1085C31.8719 4.95549 27.1999 0.698242 21.2589 0.698242C15.3179 0.698242 10.6506 4.9602 10.6506 11.1085C10.6506 11.1273 10.6647 11.1367 10.6647 11.1508H13.6822C13.6822 11.1508 13.6681 11.1226 13.6681 11.1085C13.6681 6.70073 17.0664 3.85943 21.2636 3.85943C25.4609 3.85943 28.8591 6.72895 28.8591 11.1085C28.8591 11.1273 28.845 11.1367 28.845 11.1508H31.8672Z" fill="#009FDA"></path><path d="M31.8672 32.8091C31.8672 32.8091 31.8719 32.8373 31.8719 32.8514C31.8719 39.0044 27.1999 43.2617 21.2589 43.2617C15.3179 43.2617 10.6506 38.9997 10.6506 32.8514C10.6506 32.8326 10.6647 32.8232 10.6647 32.8091H13.6822C13.6822 32.8091 13.6681 32.8373 13.6681 32.8514C13.6681 37.2592 17.0664 40.1005 21.2636 40.1005C25.4609 40.1005 28.8591 37.231 28.8591 32.8514C28.8591 32.8326 28.845 32.8232 28.845 32.8091H31.8672Z" fill="#009FDA"></path><path d="M10.4438 11.3616C10.4438 11.3616 10.4156 11.3569 10.4015 11.3569C4.25366 11.3569 0 16.0329 0 21.9789C0 27.9249 4.25836 32.5961 10.4015 32.5961C10.4203 32.5961 10.4297 32.582 10.4438 32.582V29.562C10.4438 29.562 10.4156 29.5761 10.4015 29.5761C5.99743 29.5761 3.15852 26.175 3.15852 21.9742C3.15852 17.7734 6.02563 14.3723 10.4015 14.3723C10.4203 14.3723 10.4297 14.3864 10.4438 14.3864V11.3616Z" fill="#009FDA"></path><path d="M32.0787 11.3616C32.0787 11.3616 32.1069 11.3569 32.121 11.3569C38.2688 11.3569 42.5225 16.0329 42.5225 21.9789C42.5225 27.9249 38.2641 32.5961 32.121 32.5961C32.1022 32.5961 32.0928 32.582 32.0787 32.582V29.562C32.0787 29.562 32.1069 29.5761 32.121 29.5761C36.5251 29.5761 39.364 26.175 39.364 21.9742C39.364 17.7734 36.4969 14.3723 32.121 14.3723C32.1022 14.3723 32.0928 14.3864 32.0787 14.3864V11.3616Z" fill="#009FDA"></path></svg>