<svg xmlns="http://www.w3.org/2000/svg" viewBox="0 0 352.61 244.27"><defs><style>.cls-1{fill:#fff;}</style></defs><g id="Capa_2" data-name="Capa 2"><g id="svg10"><g id="g18"><g id="g112"><g id="g20"><path id="path22" class="cls-1" d="M198.61,193v-79H188.15L157,141.58l-31.18-27.53H115.32v79h11.76V131.7l29.54,25.61h.69l29.54-25.61V193Z"></path></g><g id="g32"><path id="path34" class="cls-1" d="M52.83,116.09a42.05,42.05,0,0,0-13.12-2C16.25,114.05,0,131.76,0,154.55s16.25,40.51,39.71,40.51A42.05,42.05,0,0,0,52.83,193V180.33a27.36,27.36,0,0,1-13.12,3.22c-16.7,0-27.64-13-27.64-29s10.83-29,27.64-29a27.41,27.41,0,0,1,13.12,3.2Z"></path></g><g id="g36"><path id="path38" class="cls-1" d="M299.78,116.09a42.05,42.05,0,0,1,13.12-2c23.46,0,39.71,17.71,39.71,40.5s-16.25,40.51-39.71,40.51A42.05,42.05,0,0,1,299.78,193V180.33a27.36,27.36,0,0,0,13.12,3.22c16.69,0,27.64-13,27.64-29s-10.84-29-27.64-29a27.41,27.41,0,0,0-13.12,3.2Z"></path></g><path id="path40" class="cls-1" d="M78.21,193H89.94v-79H78.21Z"></path><g id="g42"><path id="path44" class="cls-1" d="M223.25,193h51.89V182.31H234.87V157.6h36.78V147H234.87V124.77h40.27V114.05H223.25Z"></path></g><g id="g46"><path id="path48" class="cls-1" d="M90.12,216.59c7.89,0,11,3.61,12.25,6.63l.21.5-4,1.52-.21-.41c-1.77-3.36-5.87-3.86-8.16-3.86-6.24,0-7.26,2.32-7.42,3.2-.2,1.08.43,2.89,3,3.46a39.86,39.86,0,0,0,4.11.59l1.75.2,2.25.27,1.83.22h0c6.52,1.29,6.8,6,6.62,7.92-.12,1.33-1.26,7.44-11.7,7.44-7.9,0-11-3.61-12.26-6.64l-.2-.5,4-1.51.21.41c1.77,3.35,5.87,3.85,8.16,3.85,6.24,0,7.26-2.32,7.42-3.19s-.24-2.81-3-3.46c-1.13-.23-2.91-.46-4.77-.64h-.07c-1.78-.17-3.31-.32-5.1-.64-6.53-1.28-6.81-6-6.63-7.92.12-1.33,1.26-7.43,11.71-7.43m41.56.3h4.62L146.66,244H142l-2.46-6.47h-11L126,244h-4.68ZM134,223l-3.86,10.14h7.72Zm33.59-6.1H172v22.71h15V244H167.58Zm39.37,0h4.38v16.31c0,4.18,2.77,6.67,7.42,6.67s7.42-2.49,7.42-6.67V216.9h4.38v16.31c0,6.82-4.52,11.06-11.8,11.06S207,240,207,233.21Zm45.33,0h11.21a11.77,11.77,0,0,1,9.07,3.62c2.21,2.45,3.32,5.43,3.32,9.92s-1.11,7.47-3.32,9.91a11.77,11.77,0,0,1-9.07,3.62H252.28Zm4.38,4.38v18.31h6.83a7.44,7.44,0,0,0,5.91-2.29c1.39-1.61,2.1-3.57,2.1-6.86s-.71-5.26-2.1-6.87a7.44,7.44,0,0,0-5.91-2.29Z"></path></g></g><g id="g50"><path id="path52" class="cls-1" d="M199.61,22.23s0-.06,0-.1C199.62,9.06,189.69,0,177.05,0s-22.58,9.06-22.58,22.13c0,0,0,.06,0,.1h6.41s0-.06,0-.1c0-9.36,7.24-15.4,16.17-15.4s16.16,6.1,16.16,15.4c0,0,0,.06,0,.1Z"></path></g><g id="g54"><path id="path56" class="cls-1" d="M199.61,68.27s0,0,0,.09c0,13.08-9.93,22.13-22.57,22.13s-22.58-9-22.58-22.13c0,0,0-.06,0-.09h6.41s0,0,0,.09c0,9.37,7.24,15.4,16.17,15.4s16.16-6.1,16.16-15.4c0,0,0-.06,0-.09Z"></path></g><g id="g58"><path id="path60" class="cls-1" d="M154,22.68h-.1c-13.07,0-22.13,9.94-22.13,22.58s9.06,22.57,22.13,22.57l.1,0V61.38s-.06,0-.1,0c-9.37,0-15.4-7.23-15.4-16.16s6.1-16.17,15.4-16.17c0,0,.06,0,.1,0Z"></path></g><g id="g62"><path id="path64" class="cls-1" d="M200.06,22.68h.1c13.08,0,22.13,9.94,22.13,22.58s-9,22.57-22.13,22.57l-.1,0V61.38s.06,0,.1,0c9.37,0,15.4-7.23,15.4-16.16s-6.1-16.17-15.4-16.17c0,0-.06,0-.1,0Z"></path></g></g></g></g></svg>