<svg xmlns="http://www.w3.org/2000/svg" xmlns:xlink="http://www.w3.org/1999/xlink" viewBox="0 0 504 698"><defs><style>.cls-1{fill:none;}.cls-2{clip-path:url(#clip-path);}.cls-3{fill:#d3d3d3;}.cls-4{fill:#009fda;}.cls-5{fill:#fff;}</style><clipPath id="clip-path"><rect class="cls-1" width="504" height="698"></rect></clipPath></defs><g id="Capa_2" data-name="Capa 2"><g id="Layer_1" data-name="Layer 1"><g class="cls-2"><rect class="cls-3" width="504" height="698"></rect><path class="cls-4" d="M458.11,540.46c2-11.88-3.27-24.61-3.27-24.61s-38.4-93.79-40-108.22-11.44-38.19-11.44-38.19c-15.52-15.71-40.45-26.74-56-39.05-18.3-12.3-28.19-13.58-32.69-19.09s-18.38-16.56-18.38-16.56L298,280.53a22.16,22.16,0,0,0,4.07,10,22.14,22.14,0,0,1-3.83-12.06l2.12-17.77c0-.13.07-.26.1-.39,3.22-3.7,4.66-10,5.3-16.62a62.75,62.75,0,0,0,1.76-24.5,1.89,1.89,0,0,1,.5.47,5.33,5.33,0,0,0,1.91,1.57,62.19,62.19,0,0,1-2.86,26.08c-3.73,12-8.46,30.75-.22,41.52-4.81-6.59-4.25-15.68-3.06-23.43a65,65,0,0,1,1.8-8c-2.51,10.82-3.61,23.38,2.56,31.45-4.81-6.59-4.25-15.68-3.06-23.43a82.24,82.24,0,0,1,3.32-13,36.42,36.42,0,0,0,.92,10.17C307.71,272,307.74,282,313,288.8c-4.81-6.59-4.26-15.68-3.06-23.43,0-.22.08-.43.11-.64a20,20,0,0,0,2.95,5.53,18.88,18.88,0,0,1-2.86-6,117.06,117.06,0,0,1,4.82-17,36.75,36.75,0,0,0,.42,5.07c-1.53,9.29-1.41,19,3.7,25.72-4.71-6.45-4.27-15.3-3.13-22.94a22.36,22.36,0,0,0,2,5.11,26.51,26.51,0,0,0,2.94,11.07,23.19,23.19,0,0,0,4.3,11.61,21.24,21.24,0,0,1-3.71-10.61c.3.47.61.93,1,1.38-.35-.48-.66-1-1-1.48a52.37,52.37,0,0,1,.67-12.73,66.06,66.06,0,0,1,1.92-8.5c-.46,7.2.51,14.18,4.45,19.34-4.81-6.59-4.25-15.69-3.06-23.44.05-.3.11-.6.16-.9,1.1-3.34,2.26-6.65,3.27-9.87a62.32,62.32,0,0,0,1.51-7.11c.62-1.85,1.24-3.69,1.8-5.49a61.76,61.76,0,0,0-.41-34.59,41.48,41.48,0,0,1,3.43,2.76c-5.31-6.79-2.86-14.43-9.8-18.67a7.47,7.47,0,0,1-.61-.46,58.4,58.4,0,0,0-6.4-32.81c1.15-.94,3.6.45,3.6.45-33.77-76.39-67-70.73-67-70.73-5-11-9.26,3.82-9.26,3.82-1.22-10.19-8.58-9.76-8.58-9.76,6.54,2.54,2.46,9.33,2.46,9.33s1.22-2.54-5.72-4.76c-3.85-1.23-8.05-.71-11.06,0a15.06,15.06,0,0,1,5.34,1.27c6.94,2.88-.82,3.92-.82,3.92-37.59,0-43.31,45-50.67,55.17s-9.39,34.37-9.39,34.37c11.44-22.49.81,27.16.81,27.16,3.27-6.79,4.91,7.22,4.91,7.22.41-4.25,3.27-2.13,3.27-2.13s6.53,13.59,9,25.89a20.46,20.46,0,0,0,3,7.72c-.74,11.33-2.35,22.72-5.84,33.44-4.85,13.62-3.28,28.72.51,42.35-3.14-13.6-4.08-28.58,1.24-41.66a134.87,134.87,0,0,0,7.15-31.14,7,7,0,0,0,3.74,1.17c1.64,14.43,11,32.26,11,32.26s-3.68,59.41-22.47,62-70.27,47.17-70.27,47.17C68.33,389.51,58.94,493.78,49.54,522.64S50.36,560,54,568.89s-4.49,19.53-4.49,19.53C26.66,638.92,58.94,698,58.94,698H456.07s4.08-3.49.41-17.07,4.49-14.85,2-27.58,2-44.14,2-44.14C467.1,605.39,456.07,552.34,458.11,540.46ZM327.36,186.76A57.75,57.75,0,0,1,331,218.88a58.85,58.85,0,0,0-4-21.25c-.16-.75-.32-1.51-.51-2.25a51,51,0,0,0-.36-5.88C325.8,187.46,326.36,186.74,327.36,186.76Zm.77,27.88a61.29,61.29,0,0,1-.5,17.47c-.84,2.9-1.67,6-2.33,9.32-2.57,8.26-5.6,19.75-4.52,29.6a24.3,24.3,0,0,1-2.27-9.77c.3.48.61.94.95,1.39-.35-.48-.66-1-1-1.48a57.62,57.62,0,0,1,.79-11c1.16-7.83,4.39-15.86,6.74-23.37A62.2,62.2,0,0,0,328.13,214.64Zm-3.45-6.09c.22-1.44.4-2.89.52-4.35a62.07,62.07,0,0,1-2.64,27.91c-2.42,7.76-5.26,18.41-4.69,27.88A21.13,21.13,0,0,1,316,254.2c1.21-7.71,4.36-15.61,6.67-23A62.52,62.52,0,0,0,324.68,208.55Zm-2.24-39c-1.32-3.15-1-7.46-1.2-12.17A58.35,58.35,0,0,1,322.44,169.52Zm-3.24,44.17c0-2,1.08-5.11,2.23-7.85.31,1.64.55,3.3.72,5a63.56,63.56,0,0,1-2.47,10.32c-.27.85-.54,1.74-.81,2.65a59.46,59.46,0,0,0-.57-7.05A6.73,6.73,0,0,0,319.2,213.69ZM318.71,230l.32.46-.32-.48c0-.25,0-.49.05-.74,1.15-3.79,2.47-7.54,3.67-11.2a63,63,0,0,1-3.19,18.42,124.5,124.5,0,0,0-3.6,14,44.61,44.61,0,0,1,.1-5.78c.31-.92.6-1.84.89-2.75A62.1,62.1,0,0,0,318.71,230Zm-2.43-5.51c0,.14,0,.28,0,.41a2.17,2.17,0,0,1-.07-.24Zm-1.32-4c0,.29.09.57.15.85-.29,1.44-.62,2.87-1,4.29,0-1.52,0-3-.14-4.57A7.75,7.75,0,0,0,315,220.5Zm-1.25,11.76c.81-2.44,1.64-4.85,2.4-7.22l.21.55a62.6,62.6,0,0,1-3.16,21.69,125.47,125.47,0,0,0-3.67,14.35,44.06,44.06,0,0,1,.12-12.87c.77-2.29,1.54-4.55,2.23-6.77A62.16,62.16,0,0,0,313.71,232.26Z"></path><path d="M218.69,69.3A28.91,28.91,0,0,1,222.75,68C219.83,68,218.69,69.3,218.69,69.3Z"></path><path class="cls-5" d="M203.12,496.38a12.82,12.82,0,0,0-5.76,1.13v-4.16h.72v-4.66h2s-.41-50.29-8.78-77.45-10-75.54,5.92-99.94a10.08,10.08,0,0,0-6.14,2.35s-12.65,8.25-12.65,39.66a304,304,0,0,0,6.32,59.41s11.14,70,6.33,76h1.44v4.66h1v6.51a20.24,20.24,0,0,0-3.39,3.72,4.9,4.9,0,0,0-.54,0c-5.78,0-10.47,6.48-10.47,14.48,0,6.94,3.53,12.73,8.24,14.15,2.78,6.48,7.82,10.9,13.74,11.17,9.4.42,17.45-9.75,18-22.71S212.51,496.81,203.12,496.38Z"></path><path class="cls-5" d="M417.8,482.08l-6.27-25.18c-8.44-53.18-27.37-57-27.37-57-22.47-63.66-57.61-85.3-62.24-89.55S308,304.41,308,304.41c55.56,46.4,69.18,95.49,69.18,95.49-13.07,6.93,3.27,52.2,3.27,52.2l1.88-.65,6,23.28S419.65,581.3,426.45,571a4.54,4.54,0,0,0,3.56,0C444.6,591.55,417.8,482.08,417.8,482.08Zm5.72,73.72a4.63,4.63,0,0,0-2.24,2.44c-6.12-13.26-16.56-39.4-28.81-84.64,0,0-2.63-14.74-4.08-20.94l1.35-4.68s-6.13-12.65-1.85-18.65c-2.27-1.4-4.27-1.17-5.48,2.1-3.1-11.93-5.44-25.33-.29-25.17,8.36.26,14.06,19,15.08,22.6-1.93-1.86-4-2.74-6.09-1.94a6.78,6.78,0,0,0-3.22,2.41c3.92,2.41,8.63,9.64,11.42,14.36l2.15,15.76c7.62,4.81,10.62,24.05,10.62,24.05s11.44,50.92,15.52,69.31c.3,1.32.55,2.52.77,3.63A5,5,0,0,0,423.52,555.8Z"></path><path class="cls-5" d="M210.52,698s-10.22-7.31-21.66-7.31l12.67-126.46s-2.86-11,11.44-9.76,160.16,21.21,160.16,21.21,7-.42,6,9.76-15,112.56-15,112.56Z"></path></g></g></g></svg>