<svg xmlns="http://www.w3.org/2000/svg" width="71" height="71" viewBox="0 0 71 71" fill="none"><g clip-path="url(#clip0_174_6)"><path d="M0.00662609 20.3347C-0.245123 13.5991 5.07562 7.22721 11.7504 6.06869L46.7979 0.208713C53.425 -1.16535 59.8412 4.43867 61.4606 10.4401L70.5371 47.5802C72.5784 54.2552 67.6386 61.1525 60.6849 61.8462L17.806 70.8517C11.0087 71.8216 3.0072 68.0901 2.36082 60.6203L0.00662609 20.3347Z" fill="#009FDA"></path><g clip-path="url(#clip1_174_6)"><path d="M46.7963 40.8077L40.9075 38.169L40.8913 38.1615C40.5856 38.0307 40.2521 37.9783 39.921 38.0088C39.5899 38.0394 39.2716 38.152 38.995 38.3365C38.9624 38.358 38.9311 38.3814 38.9013 38.4065L35.8588 41.0002C33.9313 40.064 31.9413 38.089 31.005 36.1865L33.6025 33.0977C33.6275 33.0665 33.6513 33.0352 33.6738 33.0015C33.8543 32.7256 33.9638 32.4094 33.9926 32.081C34.0214 31.7525 33.9686 31.4221 33.8388 31.119V31.104L31.1925 25.2052C31.0209 24.8093 30.7259 24.4795 30.3515 24.265C29.9771 24.0506 29.5433 23.9629 29.115 24.0152C27.4212 24.2381 25.8665 25.0699 24.7412 26.3554C23.6159 27.6408 22.9969 29.2918 23 31.0002C23 40.9252 31.075 49.0002 41 49.0002C42.7084 49.0033 44.3595 48.3844 45.6449 47.2591C46.9303 46.1338 47.7621 44.579 47.985 42.8852C48.0374 42.4571 47.95 42.0234 47.7357 41.649C47.5215 41.2746 47.1919 40.9795 46.7963 40.8077ZM41 47.0002C36.758 46.9956 32.691 45.3084 29.6914 42.3088C26.6918 39.3092 25.0046 35.2423 25 31.0002C24.9953 29.7796 25.4351 28.599 26.2372 27.6789C27.0393 26.7588 28.1489 26.1621 29.3588 26.0002C29.3583 26.0052 29.3583 26.0102 29.3588 26.0152L31.9838 31.8902L29.4 34.9827C29.3738 35.0129 29.35 35.0451 29.3288 35.079C29.1407 35.3676 29.0303 35.7 29.0084 36.0438C28.9865 36.3876 29.0538 36.7313 29.2038 37.0415C30.3363 39.3577 32.67 41.674 35.0113 42.8052C35.3237 42.9538 35.6694 43.0188 36.0144 42.9938C36.3595 42.9688 36.6922 42.8547 36.98 42.6627C37.0121 42.6411 37.043 42.6177 37.0725 42.5927L40.1113 40.0002L45.9863 42.6315C45.9863 42.6315 45.9963 42.6315 46 42.6315C45.8402 43.8431 45.2444 44.9549 44.3241 45.759C43.4038 46.5631 42.2221 47.0044 41 47.0002Z" fill="white"></path></g></g><defs><clipPath id="clip0_174_6"><rect width="71" height="71" fill="white"></rect></clipPath><clipPath id="clip1_174_6"><rect width="32" height="32" fill="white" transform="translate(19 20)"></rect></clipPath></defs></svg>