<svg xmlns="http://www.w3.org/2000/svg" width="35" height="35" viewBox="0 0 35 35" fill="none"><path d="M12.0705 27.4729L6.94345 30.2695C6.64258 30.4335 6.37219 30.6352 6.12061 30.855C9.10982 33.3754 12.9686 34.896 17.1846 34.896C21.3695 34.896 25.2036 33.3981 28.1843 30.9121C27.9094 30.6799 27.6111 30.4712 27.2805 30.3065L21.7903 27.5617C21.0809 27.207 20.6329 26.4821 20.6329 25.6891V23.535C20.7872 23.3593 20.9636 23.1336 21.1522 22.8671C21.9005 21.8102 22.4666 20.6476 22.8589 19.4279C23.5631 19.2107 24.0818 18.5604 24.0818 17.7874V15.4881C24.0818 14.9824 23.8568 14.5304 23.5073 14.214V10.8902C23.5073 10.8902 24.1901 5.71777 17.1852 5.71777C10.1804 5.71777 10.8631 10.8902 10.8631 10.8902V14.214C10.513 14.5304 10.2886 14.9824 10.2886 15.4881V17.7874C10.2886 18.3931 10.607 18.9261 11.0836 19.2341C11.6581 21.735 13.1624 23.535 13.1624 23.535V25.6359C13.1618 26.401 12.7429 27.1059 12.0705 27.4729Z" fill="#D7D7D7"></path><path d="M17.4783 0.532344C7.98995 0.370239 0.16613 7.9308 0.0040253 17.4191C-0.0880501 22.799 2.3098 27.6343 6.12769 30.8498C6.37733 30.6319 6.64513 30.4322 6.94275 30.2701L12.0698 27.4735C12.7422 27.1065 13.1611 26.4017 13.1611 25.6352V23.5343C13.1611 23.5343 11.6561 21.7343 11.0823 19.2334C10.6063 18.9254 10.2873 18.393 10.2873 17.7868V15.4875C10.2873 14.9817 10.5123 14.5298 10.8618 14.2133V10.8895C10.8618 10.8895 10.179 5.7171 17.1839 5.7171C24.1887 5.7171 23.506 10.8895 23.506 10.8895V14.2133C23.8561 14.5298 24.0805 14.9817 24.0805 15.4875V17.7868C24.0805 18.5597 23.5617 19.21 22.8575 19.4273C22.4653 20.6469 21.8992 21.8096 21.1509 22.8665C20.9622 23.133 20.7858 23.3586 20.6315 23.5343V25.6884C20.6315 26.4814 21.0796 27.207 21.7889 27.561L27.2791 30.3058C27.6085 30.4705 27.9061 30.6786 28.1804 30.9101C31.8829 27.8223 34.2749 23.2056 34.3637 18.0066C34.5271 8.51827 26.9672 0.694449 17.4783 0.532344Z" fill="white"></path><circle cx="17.1831" cy="17.7129" r="16.6831" stroke="white"></circle></svg>