<svg xmlns="http://www.w3.org/2000/svg" width="50" height="49" viewBox="0 0 50 49" fill="none"><rect x="1.00195" y="1.56958" width="47.5" height="46.5" rx="23.25" stroke="#FAFAFA" stroke-width="1.5"></rect><path d="M33.8035 28.3339C32.7945 27.3364 31.5333 27.3364 30.5242 28.3339C29.756 29.0907 28.9878 29.8589 28.231 30.6271C28.0247 30.845 27.8527 30.8794 27.6004 30.7418C27.1074 30.4666 26.5799 30.2487 26.0984 29.9506C23.874 28.5518 22.0165 26.7516 20.3654 24.7336C19.5513 23.7246 18.8174 22.6468 18.3129 21.4428C18.2097 21.2021 18.2327 21.0415 18.4276 20.8351C19.1958 20.0899 19.9411 19.3331 20.6979 18.5763C21.7527 17.5215 21.7527 16.2831 20.6979 15.2168C20.1016 14.6091 19.4939 14.0129 18.8977 13.4166C18.2785 12.7975 17.6708 12.1783 17.0402 11.5591C16.0312 10.5731 14.7699 10.5731 13.7609 11.5591C12.9927 12.3159 12.2474 13.0956 11.4563 13.8523C10.7224 14.5403 10.3555 15.3773 10.2753 16.3634C10.1491 17.9686 10.5505 19.4822 11.1008 20.9613C12.236 24.0112 13.9673 26.7287 16.0541 29.2168C18.8862 32.5763 22.2572 35.2479 26.213 37.1627C27.9903 38.0227 29.8363 38.6877 31.8428 38.8024C33.2188 38.8826 34.4227 38.5272 35.3858 37.4609C36.0394 36.727 36.7847 36.0505 37.4841 35.3511C38.5161 34.3077 38.5275 33.0464 37.4956 32.0145C36.2687 30.7876 35.0419 29.5608 33.8035 28.3339Z" fill="#FAFAFA"></path></svg>