<svg xmlns="http://www.w3.org/2000/svg" id="Capa_1" x="0px" y="0px" viewBox="0 0 140 140">
<style type="text/css">
.st0{fill:none;stroke:#5FBCD3;stroke-width:2;}
.st1{fill:#B5E7F3;}
.st2{fill:#151A6A;}
</style>
<circle class="st0" cx="70" cy="70" r="69"/>
<g transform="translate(35,35) scale(1)">
<svg xmlns="http://www.w3.org/2000/svg" width="70" height="70" viewBox="0 0 70 70" fill="none"><path d="M68.6528 42.6085L63.3998 36.3067L68.656 29.9327C68.7551 29.8123 68.8273 29.6721 68.8678 29.5215C68.9084 29.3709 68.9163 29.2134 68.891 29.0596C68.8657 28.9057 68.8078 28.759 68.7212 28.6293C68.6347 28.4996 68.5214 28.3899 68.3889 28.3075L53.0038 18.7554C52.8504 18.6603 52.6758 18.6047 52.4957 18.5934C52.3156 18.5822 52.1355 18.6156 51.9714 18.6908C51.8073 18.7659 51.6644 18.8805 51.5553 19.0243C51.4462 19.168 51.3743 19.3366 51.3461 19.5148L47.8459 41.754C47.8078 41.9953 47.8517 42.2424 47.9706 42.4557C48.0895 42.6691 48.2765 42.8365 48.5017 42.9311L53.5539 45.063L46.7489 61.5601C46.6558 61.7906 46.6439 62.046 46.7152 62.2842C46.7865 62.5224 46.9367 62.7293 47.1411 62.8708C47.3455 63.0123 47.592 63.0801 47.84 63.063C48.0881 63.0459 48.3229 62.9449 48.506 62.7766L68.5577 44.1092C68.7624 43.9187 68.8864 43.6569 68.904 43.3778C68.9217 43.0987 68.8318 42.8234 68.6528 42.6085Z" fill="#B5E7F3"></path><path d="M41.3763 22.9968L19.7929 28.2466C19.6164 28.2897 19.4533 28.3761 19.3185 28.498C19.1837 28.6199 19.0814 28.7734 19.0208 28.9447C18.9601 29.1161 18.9431 29.2998 18.9713 29.4793C18.9994 29.6589 19.0718 29.8286 19.182 29.9732L30.849 45.2563L25.031 48.1648C24.876 48.2423 24.7417 48.3556 24.639 48.4952C24.5364 48.6349 24.4684 48.7969 24.4407 48.9679C24.413 49.139 24.4262 49.3142 24.4795 49.4791C24.5327 49.644 24.6243 49.7939 24.7469 49.9165L43.4143 68.5829C43.5888 68.756 43.8166 68.8654 44.0608 68.8933C44.3051 68.9212 44.5516 68.8661 44.7607 68.7368C44.9698 68.6075 45.1293 68.4116 45.2135 68.1806C45.2977 67.9496 45.3016 67.697 45.2247 67.4635L39.7368 51.0017L45.7001 49.0129C45.9452 48.9313 46.1535 48.7655 46.288 48.5449C46.4225 48.3244 46.4746 48.0633 46.4349 47.808L42.7157 23.8913C42.6924 23.7417 42.6383 23.5986 42.5568 23.471C42.4753 23.3434 42.3683 23.2342 42.2424 23.1501C42.1165 23.066 41.9745 23.009 41.8254 22.9826C41.6764 22.9562 41.5234 22.961 41.3763 22.9968Z" fill="#B5E7F3"></path><path d="M53.5939 1.09375H30.6252C29.9406 1.09604 29.2739 1.31281 28.7189 1.71359C28.1639 2.11436 27.7485 2.679 27.531 3.32812C27.1049 3.29908 26.6773 3.28125 26.2502 3.28125C22.2659 3.26433 18.3826 4.53458 15.1785 6.9029C11.9744 9.27122 9.62087 12.611 8.46819 16.4249C6.71922 21.9755 4.29496 27.2902 1.24987 32.2496C1.1657 32.3901 1.11413 32.5476 1.09895 32.7107C1.08377 32.8737 1.10537 33.0381 1.16215 33.1917C1.21893 33.3453 1.30945 33.4842 1.42704 33.5981C1.54463 33.7121 1.68629 33.7982 1.84158 33.8502L7.80487 35.8379L10.0063 46.5955C10.1599 47.3352 10.5632 47.9996 11.1486 48.4773C11.734 48.9549 12.4658 49.2167 13.2213 49.2188H18.5522V54.6875C18.5522 54.9776 18.6675 55.2558 18.8726 55.4609C19.0777 55.666 19.3559 55.7812 19.646 55.7812C19.9361 55.7812 20.2143 55.666 20.4194 55.4609C20.6245 55.2558 20.7397 54.9776 20.7397 54.6875V49.2188H26.2502C26.5402 49.2188 26.8184 49.1035 27.0236 48.8984C27.2287 48.6933 27.3439 48.4151 27.3439 48.125C27.3439 47.8349 27.2287 47.5567 27.0236 47.3516C26.8184 47.1465 26.5402 47.0312 26.2502 47.0312H13.2213C12.9694 47.0308 12.7254 46.9437 12.5301 46.7846C12.3349 46.6255 12.2003 46.4041 12.1489 46.1575L11.1719 41.3819L13.1027 39.7371L15.3543 41.7793C15.5675 41.9721 15.8479 42.0734 16.1351 42.0612C16.4223 42.049 16.6932 41.9244 16.8892 41.7142L19.3939 39.0268C19.5916 38.8147 19.697 38.5326 19.6868 38.2428C19.6765 37.9529 19.5516 37.679 19.3394 37.4813C19.1272 37.2835 18.8452 37.1782 18.5554 37.1884C18.2655 37.1986 17.9916 37.3236 17.7939 37.5357L16.0251 39.4338L13.86 37.4706C13.663 37.292 13.4078 37.1914 13.142 37.1875C12.8762 37.1836 12.6181 37.2766 12.4159 37.4492L10.6714 38.9356L9.82142 34.7811C9.78312 34.5929 9.69592 34.4182 9.5686 34.2745C9.44127 34.1307 9.27833 34.0231 9.09617 33.9624L3.81762 32.2031C6.64036 27.4336 8.90267 22.354 10.5596 17.0653C11.5769 13.7001 13.6537 10.7534 16.481 8.66388C19.3082 6.57435 22.7346 5.4537 26.2502 5.46875C26.6147 5.46875 26.9801 5.48264 27.3439 5.50654V15.7867L22.406 18.7497C22.2443 18.847 22.1105 18.9845 22.0176 19.1488C21.9247 19.3131 21.8759 19.4987 21.8759 19.6875C21.8759 19.8762 21.9247 20.0618 22.0176 20.2261C22.1105 20.3904 22.2443 20.5279 22.406 20.6253L27.3439 23.5882V26.25C27.3449 27.1199 27.6909 27.954 28.306 28.5691C28.9212 29.1843 29.7552 29.5303 30.6252 29.5312H42.6564V54.6875C42.6564 54.9776 42.7717 55.2558 42.9768 55.4609C43.1819 55.666 43.4601 55.7812 43.7502 55.7812C44.0403 55.7812 44.3185 55.666 44.5236 55.4609C44.7287 55.2558 44.8439 54.9776 44.8439 54.6875V29.5312H53.5939C54.4639 29.5303 55.2979 29.1843 55.9131 28.5691C56.5282 27.954 56.8742 27.1199 56.8752 26.25V4.375C56.8742 3.50505 56.5282 2.671 55.9131 2.05585C55.2979 1.44071 54.4639 1.0947 53.5939 1.09375ZM54.6877 26.25C54.6874 26.54 54.5721 26.818 54.367 27.0231C54.162 27.2281 53.8839 27.3435 53.5939 27.3438H30.6252C30.3352 27.3435 30.0572 27.2281 29.8521 27.0231C29.647 26.818 29.5317 26.54 29.5314 26.25V22.9688C29.5313 22.7799 29.4824 22.5943 29.3894 22.43C29.2964 22.2657 29.1624 22.1282 29.0006 22.0309L25.0945 19.6875L29.0006 17.3441C29.1624 17.2468 29.2964 17.1093 29.3894 16.945C29.4824 16.7807 29.5313 16.5951 29.5314 16.4062V4.375C29.5317 4.08501 29.647 3.80698 29.8521 3.60192C30.0572 3.39687 30.3352 3.28154 30.6252 3.28125H53.5939C53.8839 3.28154 54.162 3.39687 54.367 3.60192C54.5721 3.80698 54.6874 4.08501 54.6877 4.375V26.25Z" fill="#151A6A"></path><path d="M46.4728 7.94883C45.4125 7.02256 44.171 6.32697 42.8274 5.90625C41.4838 5.48553 40.0674 5.34888 38.6681 5.50497C34.4469 5.83289 31.7189 8.1288 31.7189 11.3545C31.7073 12.1852 32.0248 12.9869 32.6023 13.5842C32.4634 13.8721 32.3406 14.161 32.2359 14.4472C31.3215 16.9295 31.6537 19.1801 33.1459 20.6225C33.4485 20.976 33.828 21.2555 34.2553 21.4398C34.6825 21.6241 35.1463 21.7082 35.6111 21.6859C36.9238 21.5401 37.6896 20.3731 38.5003 19.1379C39.562 17.5202 40.3588 16.4596 41.7036 16.4596C42.5809 16.4596 42.9194 17.9608 42.9853 18.8377C41.9746 18.8971 40.9771 19.0966 40.0213 19.4305C39.3481 19.6787 38.788 20.1629 38.4451 20.7931C38.1022 21.4233 37.9998 22.1565 38.157 22.8566C38.3143 23.5566 38.7204 24.1756 39.2999 24.5986C39.8794 25.0216 40.5928 25.2197 41.3074 25.1562C43.4244 25.1562 44.7029 23.1396 45.0768 20.8014C46.8427 20.646 48.5496 20.0886 50.067 19.172C52.9969 17.1998 53.0513 13.1217 51.4214 10.4738C50.9571 9.59445 50.2326 8.87992 49.3468 8.42796C48.461 7.97599 47.4573 7.80866 46.4728 7.94883ZM41.3074 22.9687C39.876 22.9687 40.1735 21.7399 40.8695 21.4471C41.4911 21.2389 42.1362 21.109 42.79 21.0605C42.5122 22.1355 41.9835 22.9687 41.3074 22.9687ZM45.6194 10.5588C45.6995 10.7611 45.7568 10.9718 45.7903 11.1868C45.9174 11.9932 45.6311 12.0738 45.5371 12.1001C45.3354 12.1457 45.1248 12.1337 44.9296 12.0654C44.7343 11.9972 44.5621 11.8754 44.4327 11.714C44.39 11.6103 44.5951 11.1473 45.6194 10.5588ZM48.8451 17.3573C47.7205 18.0294 46.4623 18.447 45.159 18.5808C44.968 16.3393 43.8716 14.2721 41.7037 14.2721C39.0782 14.2721 37.6876 16.3907 36.6718 17.9378C36.2937 18.5146 35.6603 19.4797 35.3687 19.5122C35.3153 19.509 35.0814 19.4508 34.6659 19.0492C33.5144 17.9368 33.9352 16.1621 34.2878 15.2029C34.355 15.0208 34.4287 14.8423 34.5089 14.6673C36.4849 15.2264 38.9682 14.7506 40.0385 13.5516C40.368 13.1976 40.5757 12.7473 40.631 12.2668C40.6864 11.7862 40.5865 11.3006 40.3461 10.8808C40.1159 10.353 39.7294 9.90837 39.2388 9.60683C38.7482 9.30529 38.177 9.1613 37.6021 9.19426C36.8643 9.31421 36.158 9.5809 35.5251 9.97855C34.8922 10.3762 34.3454 10.8967 33.9171 11.5094C33.9097 11.4581 33.9061 11.4063 33.9064 11.3545C33.9064 8.92936 36.5628 7.86285 38.8379 7.68608C40.6993 7.50405 42.5703 7.92071 44.1785 8.87544C41.8436 10.3729 42.1544 11.9281 42.4118 12.5508C42.7472 13.2115 43.2997 13.7367 43.9766 14.0381C44.6535 14.3395 45.4135 14.3987 46.1289 14.2058C46.8134 13.9987 47.3886 13.5302 47.7299 12.9017C48.0712 12.2733 48.1511 11.5357 47.9522 10.8488C47.9159 10.6177 47.8645 10.3891 47.7984 10.1647C48.5432 10.419 49.1693 10.937 49.5586 11.621C50.663 13.4154 50.6406 16.1487 48.8451 17.3573ZM35.7831 12.6886C36.2614 12.036 36.9535 11.572 37.7388 11.3775C37.8788 11.3705 38.1276 11.3513 38.4043 11.8859C38.4296 11.9294 38.4466 11.9772 38.4545 12.0269C38.0861 12.3283 37.6553 12.5441 37.1933 12.6585C36.7313 12.7729 36.2496 12.7832 35.7831 12.6886Z" fill="#151A6A"></path></svg>
</g>
</svg>
