<svg xmlns="http://www.w3.org/2000/svg" id="Capa_1" x="0px" y="0px" viewBox="0 0 140 140">
<style type="text/css">
.st0{fill:none;stroke:#5FBCD3;stroke-width:2;}
.st1{fill:#B5E7F3;}
.st2{fill:#151A6A;}
</style>
<circle class="st0" cx="70" cy="70" r="69"/>
<g transform="translate(35,35) scale(1)">
<svg xmlns="http://www.w3.org/2000/svg" width="70" height="70" viewBox="0 0 70 70" fill="none"><path d="M68.1863 26.3139C60.172 23.4054 51.3905 23.4054 43.3762 26.3139C43.1652 26.3907 42.9829 26.5305 42.8541 26.7144C42.7253 26.8984 42.6562 27.1175 42.6563 27.342V66.717C42.6563 66.8928 42.6987 67.0659 42.7799 67.2219C42.8611 67.3778 42.9787 67.5118 43.1227 67.6126C43.2667 67.7134 43.4329 67.7781 43.6071 67.801C43.7814 67.824 43.9586 67.8046 44.1238 67.7445C51.6553 65.0123 59.9072 65.0123 67.4387 67.7445C67.6039 67.8045 67.7811 67.8238 67.9553 67.8008C68.1296 67.7778 68.2957 67.7132 68.4397 67.6124C68.5836 67.5116 68.7012 67.3776 68.7824 67.2217C68.8636 67.0659 68.9061 66.8927 68.9062 66.717V27.342C68.9063 27.1175 68.8372 26.8984 68.7084 26.7144C68.5796 26.5305 68.3973 26.3907 68.1863 26.3139ZM46.7589 31.8302C49.7068 31.0743 52.738 30.6915 55.7812 30.6911C56.0713 30.6911 56.3495 30.8063 56.5546 31.0114C56.7598 31.2165 56.875 31.4947 56.875 31.7848C56.875 32.0749 56.7598 32.3531 56.5546 32.5582C56.3495 32.7633 56.0713 32.8786 55.7812 32.8786C52.9217 32.8787 50.0734 33.2385 47.3036 33.9494C47.0228 34.0211 46.7249 33.9784 46.4755 33.8307C46.2261 33.683 46.0455 33.4424 45.9734 33.1617C45.9012 32.881 45.9434 32.5831 46.0907 32.3334C46.238 32.0838 46.4783 31.9028 46.7589 31.8302ZM65.5908 59.4122C65.5184 59.693 65.3374 59.9337 65.0877 60.0812C64.838 60.2288 64.5399 60.2713 64.2589 60.1994C61.4891 59.4885 58.6408 59.1289 55.7812 59.1291C55.4912 59.1291 55.213 59.0139 55.0079 58.8088C54.8027 58.6037 54.6875 58.3255 54.6875 58.0354C54.6875 57.7453 54.8027 57.4671 55.0079 57.262C55.213 57.0569 55.4912 56.9416 55.7812 56.9416C58.8245 56.9417 61.8557 57.3242 64.8036 58.0802C65.0844 58.1528 65.325 58.3338 65.4725 58.5835C65.6201 58.8331 65.6627 59.1312 65.5908 59.4122ZM65.5908 50.6621C65.5184 50.943 65.3374 51.1837 65.0877 51.3312C64.838 51.4788 64.5399 51.5213 64.2589 51.4494C58.6967 50.0266 52.8658 50.0266 47.3036 51.4494C47.0227 51.5211 46.7249 51.4784 46.4755 51.3307C46.2261 51.183 46.0455 50.9424 45.9733 50.6617C45.9012 50.381 45.9434 50.0831 46.0907 49.8334C46.2379 49.5838 46.4783 49.4028 46.7589 49.3302C52.6784 47.8156 58.884 47.8156 64.8036 49.3302C65.0844 49.4028 65.325 49.5837 65.4725 49.8334C65.6201 50.0831 65.6627 50.3811 65.5908 50.6621ZM65.5908 41.9121C65.5184 42.193 65.3374 42.4337 65.0877 42.5812C64.838 42.7288 64.5399 42.7713 64.2589 42.6994C58.6967 41.2766 52.8658 41.2766 47.3036 42.6994C47.0227 42.7711 46.7249 42.7284 46.4755 42.5807C46.2261 42.433 46.0455 42.1924 45.9733 41.9117C45.9012 41.631 45.9434 41.3331 46.0907 41.0834C46.2379 40.8338 46.4783 40.6528 46.7589 40.5802C52.6784 39.0656 58.884 39.0656 64.8036 40.5802C65.0844 40.6528 65.325 40.8337 65.4725 41.0834C65.6201 41.3331 65.6627 41.6311 65.5908 41.9121Z" fill="#B5E7F3"></path><path d="M19.6875 33.7494V40.258C24.7341 39.1742 29.9534 39.1742 35 40.258V33.7494C29.9614 32.5926 24.7261 32.5926 19.6875 33.7494Z" fill="#B5E7F3"></path><path d="M39.7488 26.3142C31.7345 23.4057 22.953 23.4057 14.9387 26.3142C14.7277 26.391 14.5455 26.5309 14.4167 26.7148C14.288 26.8987 14.2188 27.1177 14.2188 27.3422V66.7172C14.2188 66.893 14.2613 67.0662 14.3425 67.222C14.4237 67.3779 14.5413 67.512 14.6853 67.6128C14.8292 67.7136 14.9954 67.7782 15.1697 67.8012C15.3439 67.8242 15.5211 67.8048 15.6863 67.7448C23.2178 65.0125 31.4697 65.0125 39.0012 67.7448C39.1663 67.8047 39.3436 67.8241 39.5178 67.8011C39.692 67.7781 39.8582 67.7134 40.0022 67.6126C40.1461 67.5118 40.2637 67.3778 40.3449 67.222C40.4261 67.0661 40.4686 66.893 40.4688 66.7172V27.3422C40.4688 27.1177 40.3997 26.8986 40.2709 26.7147C40.1421 26.5308 39.9598 26.3909 39.7488 26.3142ZM37.1534 59.4124C37.0809 59.6932 36.9001 59.9337 36.6505 60.0813C36.4008 60.2289 36.1029 60.2714 35.822 60.1996C30.2594 58.7769 24.4282 58.7769 18.8656 60.1996C18.7265 60.2353 18.5817 60.2432 18.4395 60.223C18.2973 60.2027 18.1604 60.1546 18.0368 60.0815C17.9132 60.0083 17.8051 59.9115 17.7189 59.7967C17.6327 59.6818 17.5699 59.551 17.5342 59.4119C17.4985 59.2727 17.4906 59.1279 17.5109 58.9857C17.5311 58.8435 17.5792 58.7066 17.6524 58.583C17.7255 58.4594 17.8223 58.3514 17.9372 58.2651C18.0521 58.1789 18.1828 58.1162 18.322 58.0805C24.2414 56.5659 30.4468 56.5659 36.3662 58.0805C36.647 58.153 36.8875 58.334 37.0351 58.5837C37.1826 58.8334 37.2252 59.1314 37.1534 59.4124ZM37.1534 50.6624C37.0809 50.9432 36.9001 51.1837 36.6505 51.3313C36.4008 51.4789 36.1029 51.5214 35.822 51.4496C30.2594 50.0269 24.4282 50.0269 18.8656 51.4496C18.7265 51.4853 18.5817 51.4932 18.4395 51.473C18.2973 51.4527 18.1604 51.4046 18.0368 51.3315C17.9132 51.2583 17.8051 51.1615 17.7189 51.0467C17.6327 50.9318 17.5699 50.801 17.5342 50.6619C17.4985 50.5227 17.4906 50.3779 17.5109 50.2357C17.5311 50.0935 17.5792 49.9566 17.6524 49.833C17.7255 49.7094 17.8223 49.6014 17.9372 49.5151C18.0521 49.4289 18.1828 49.3662 18.322 49.3305C24.2414 47.8159 30.4468 47.8159 36.3662 49.3305C36.647 49.403 36.8875 49.584 37.0351 49.8337C37.1826 50.0834 37.2252 50.3814 37.1534 50.6624ZM37.1875 41.64C37.1875 41.8068 37.1494 41.9714 37.076 42.1212C37.0027 42.271 36.896 42.402 36.7642 42.5043C36.6325 42.6065 36.479 42.6773 36.3157 42.7111C36.1524 42.745 35.9835 42.741 35.8219 42.6996C30.2593 41.2768 24.4282 41.2768 18.8656 42.6996C18.704 42.7409 18.5352 42.7447 18.3719 42.7108C18.2087 42.6769 18.0553 42.6061 17.9235 42.5039C17.7918 42.4017 17.6852 42.2707 17.6118 42.121C17.5383 41.9712 17.5001 41.8067 17.5 41.64V32.89C17.5 32.6472 17.5808 32.4113 17.7296 32.2195C17.8784 32.0277 18.0868 31.8908 18.3219 31.8304C24.2413 30.3158 30.4467 30.3158 36.3661 31.8304C36.6011 31.891 36.8093 32.028 36.958 32.2198C37.1067 32.4115 37.1874 32.6473 37.1875 32.89V41.64Z" fill="#B5E7F3"></path><path d="M27.147 2.20801C23.0847 2.02444 19.0736 3.1717 15.7228 5.47552C12.3719 7.77935 9.86459 11.1138 8.58155 14.9725C6.86262 20.6669 4.39717 26.1085 1.24948 31.1555C1.16807 31.2914 1.1171 31.4432 1.10008 31.6007C1.08307 31.7581 1.10043 31.9174 1.15094 32.0675C1.20146 32.2176 1.28395 32.3549 1.3927 32.47C1.50145 32.5851 1.63389 32.6753 1.78087 32.7342L6.64826 34.6809L7.92893 45.2386C8.02603 46.0343 8.41083 46.7671 9.01081 47.2987C9.61079 47.8303 10.3845 48.1241 11.1861 48.1247H19.5003L18.5604 55.6453C18.5255 55.9326 18.606 56.2219 18.784 56.45C18.9621 56.6781 19.2233 56.8263 19.5105 56.8622C19.7976 56.8981 20.0873 56.8187 20.316 56.6415C20.5447 56.4642 20.6939 56.2036 20.7308 55.9165L21.8245 47.1665C21.8437 47.0127 21.83 46.8565 21.7842 46.7083C21.7385 46.5602 21.6617 46.4234 21.5591 46.3072C21.4565 46.1909 21.3304 46.0978 21.189 46.034C21.0477 45.9703 20.8944 45.9372 20.7393 45.9372H11.1862C10.919 45.9371 10.6611 45.8393 10.4611 45.6623C10.2611 45.4852 10.1328 45.241 10.1004 44.9759L8.74178 33.774C8.7181 33.5794 8.64256 33.3946 8.52305 33.2391C8.40355 33.0836 8.24447 32.9631 8.06245 32.8902L3.78572 31.1801C6.68688 26.2971 8.99467 21.0852 10.6601 15.655C11.7874 12.2467 13.9991 9.30098 16.9575 7.26752C19.9159 5.23407 23.4586 4.22464 27.0445 4.39337C31.3193 4.65702 35.3278 6.559 38.2356 9.70345C41.1435 12.8479 42.7268 16.9926 42.656 21.2749V55.7809C42.656 56.071 42.7713 56.3492 42.9764 56.5543C43.1815 56.7594 43.4597 56.8747 43.7498 56.8747C44.0399 56.8747 44.3181 56.7594 44.5232 56.5543C44.7283 56.3492 44.8435 56.071 44.8435 55.7809V21.2749C44.9153 16.4299 43.1157 11.7438 39.8194 8.19222C36.523 4.64063 31.9839 2.49716 27.147 2.20801Z" fill="#151A6A"></path><path d="M33.9062 12.031H31.7188C31.4287 12.031 31.1505 12.1463 30.9454 12.3514C30.7403 12.5565 30.625 12.8347 30.625 13.1248V18.0466C30.6221 19.0139 30.2984 19.9529 29.7046 20.7165C29.1108 21.4801 28.2805 22.0252 27.3438 22.2663V13.1248C27.3438 12.8347 27.2285 12.5565 27.0234 12.3514C26.8183 12.1462 26.5401 12.031 26.25 12.031C25.9599 12.031 25.6817 12.1462 25.4766 12.3514C25.2715 12.5565 25.1562 12.8347 25.1562 13.1248V22.2663C24.2195 22.0252 23.3892 21.4801 22.7954 20.7165C22.2016 19.9529 21.8779 19.0139 21.875 18.0466V13.1248C21.875 12.8347 21.7597 12.5565 21.5546 12.3514C21.3495 12.1463 21.0713 12.031 20.7812 12.031H18.5938C18.3037 12.031 18.0255 12.1462 17.8204 12.3514C17.6152 12.5565 17.5 12.8347 17.5 13.1248C17.5 13.4148 17.6152 13.693 17.8204 13.8982C18.0255 14.1033 18.3037 14.2185 18.5938 14.2185H19.6875V18.0466C19.6901 19.596 20.2405 21.0946 21.2412 22.2774C22.242 23.4602 23.6287 24.2511 25.1562 24.5103V27.3435H22.9688C22.6787 27.3435 22.4005 27.4587 22.1954 27.6639C21.9902 27.869 21.875 28.1472 21.875 28.4373C21.875 28.7273 21.9902 29.0055 22.1954 29.2107C22.4005 29.4158 22.6787 29.531 22.9688 29.531H29.5312C29.8213 29.531 30.0995 29.4158 30.3046 29.2107C30.5098 29.0055 30.625 28.7273 30.625 28.4373C30.625 28.1472 30.5098 27.869 30.3046 27.6639C30.0995 27.4587 29.8213 27.3435 29.5312 27.3435H27.3438V24.5103C28.8713 24.2511 30.258 23.4602 31.2588 22.2774C32.2595 21.0946 32.8099 19.596 32.8125 18.0466V14.2185H33.9062C34.1963 14.2185 34.4745 14.1033 34.6796 13.8982C34.8848 13.693 35 13.4148 35 13.1248C35 12.8347 34.8848 12.5565 34.6796 12.3514C34.4745 12.1462 34.1963 12.031 33.9062 12.031Z" fill="#151A6A"></path></svg>
</g>
</svg>
