<svg xmlns="http://www.w3.org/2000/svg" id="Capa_1" x="0px" y="0px" viewBox="0 0 140 140">
<style type="text/css">
.st0{fill:none;stroke:#5FBCD3;stroke-width:2;}
.st1{fill:#B5E7F3;}
.st2{fill:#151A6A;}
</style>
<circle class="st0" cx="70" cy="70" r="69"/>
<g transform="translate(35,35) scale(1)">
<svg xmlns="http://www.w3.org/2000/svg" width="213" height="213" viewBox="0 0 213 213" fill="none"><g opacity="0.2"><path d="M188.039 123.141H88.1953C87.313 123.142 86.4671 123.493 85.8432 124.117C85.2193 124.741 84.8683 125.586 84.8672 126.469V189.703C84.8683 190.585 85.2193 191.431 85.8432 192.055C86.4671 192.679 87.313 193.03 88.1953 193.031H188.039C188.921 193.03 189.767 192.679 190.391 192.055C191.015 191.431 191.366 190.585 191.367 189.703V126.469C191.366 125.586 191.015 124.741 190.391 124.117C189.767 123.493 188.921 123.142 188.039 123.141ZM163.078 161.414H141.445V183.047C141.445 183.93 141.095 184.776 140.471 185.4C139.846 186.024 139 186.375 138.117 186.375C137.235 186.375 136.388 186.024 135.764 185.4C135.14 184.776 134.789 183.93 134.789 183.047V161.414H113.156C112.274 161.414 111.427 161.063 110.803 160.439C110.179 159.815 109.828 158.969 109.828 158.086C109.828 157.203 110.179 156.357 110.803 155.733C111.427 155.108 112.274 154.758 113.156 154.758H134.789V133.125C134.789 132.242 135.14 131.396 135.764 130.772C136.388 130.148 137.235 129.797 138.117 129.797C139 129.797 139.846 130.148 140.471 130.772C141.095 131.396 141.445 132.242 141.445 133.125V154.758H163.078C163.961 154.758 164.807 155.108 165.431 155.733C166.056 156.357 166.406 157.203 166.406 158.086C166.406 158.969 166.056 159.815 165.431 160.439C164.807 161.063 163.961 161.414 163.078 161.414Z" fill="#5FBCD3"></path><path d="M201.352 106.5H168.07V93.4654C168.063 87.2152 165.577 81.223 161.158 76.8034C156.738 72.3838 150.746 69.8978 144.496 69.8906H131.739C125.489 69.8978 119.496 72.3838 115.077 76.8034C110.657 81.223 108.171 87.2152 108.164 93.4654V106.5H74.8828C73.1175 106.5 71.4244 107.201 70.1761 108.45C68.9278 109.698 68.2266 111.391 68.2266 113.156V203.016C68.2266 204.781 68.9278 206.474 70.1761 207.722C71.4244 208.971 73.1175 209.672 74.8828 209.672H201.352C203.117 209.672 204.81 208.971 206.058 207.722C207.307 206.474 208.008 204.781 208.008 203.016V113.156C208.008 111.391 207.307 109.698 206.058 108.45C204.81 107.201 203.117 106.5 201.352 106.5ZM114.82 93.4654C114.825 88.9798 116.609 84.6793 119.781 81.5075C122.953 78.3358 127.253 76.5517 131.739 76.5469H144.496C148.981 76.5517 153.282 78.3358 156.453 81.5075C159.625 84.6793 161.409 88.9798 161.414 93.4654V106.5H114.82V93.4654ZM198.023 189.703C198.021 192.35 196.968 194.888 195.096 196.76C193.224 198.632 190.686 199.685 188.039 199.688H88.1953C85.5482 199.685 83.0103 198.632 81.1385 196.76C79.2667 194.888 78.2138 192.35 78.2109 189.703V126.469C78.2138 123.822 79.2667 121.284 81.1385 119.412C83.0103 117.54 85.5482 116.487 88.1953 116.484H188.039C190.686 116.487 193.224 117.54 195.096 119.412C196.968 121.284 198.021 123.822 198.023 126.469V189.703Z" fill="#5FBCD3"></path><path d="M161.414 149.766H157.473C157.867 148.7 158.075 147.574 158.086 146.438V143.109C158.08 141.051 157.436 139.046 156.245 137.368C155.053 135.69 153.371 134.422 151.43 133.738V46.5777C154.047 46.5355 156.543 45.4672 158.381 43.6028C160.218 41.7385 161.25 39.2271 161.255 36.6094V33.2812C161.252 30.6341 160.199 28.0962 158.327 26.2244C156.455 24.3526 153.918 23.2998 151.27 23.2969H121.477V13.3125C121.474 10.6654 120.421 8.12748 118.549 6.25567C116.677 4.38386 114.139 3.33101 111.492 3.32812H64.8984C62.2513 3.33101 59.7134 4.38386 57.8416 6.25567C55.9698 8.12748 54.917 10.6654 54.9141 13.3125V23.2969H25.1202C22.4731 23.2998 19.9352 24.3526 18.0634 26.2244C16.1916 28.0962 15.1387 30.6341 15.1358 33.2812V36.6094C15.1402 39.2271 16.1722 41.7385 18.0098 43.6028C19.8474 45.4672 22.3435 46.5355 24.9609 46.5777V133.738C23.0198 134.422 21.3378 135.69 20.146 137.368C18.9542 139.046 18.311 141.051 18.3047 143.109V146.438C18.316 147.574 18.5235 148.7 18.9182 149.766H14.9766C12.3294 149.769 9.79154 150.821 7.91973 152.693C6.04793 154.565 4.99508 157.103 4.99219 159.75V166.406C4.99508 169.053 6.04793 171.591 7.91973 173.463C9.79154 175.335 12.3294 176.388 14.9766 176.391H161.414C164.061 176.388 166.599 175.335 168.471 173.463C170.343 171.591 171.396 169.053 171.398 166.406V159.75C171.396 157.103 170.343 154.565 168.471 152.693C166.599 150.821 164.061 149.769 161.414 149.766ZM121.477 29.9531H151.27C152.153 29.9543 152.999 30.3053 153.623 30.9292C154.246 31.5531 154.597 32.3989 154.599 33.2812V36.6094C154.597 37.4917 154.246 38.3376 153.623 38.9615C152.999 39.5853 152.153 39.9364 151.27 39.9375H121.477V29.9531ZM61.5703 13.3125C61.5715 12.4302 61.9225 11.5843 62.5464 10.9604C63.1703 10.3365 64.0161 9.98552 64.8984 9.98438H111.492C112.375 9.98552 113.22 10.3365 113.844 10.9604C114.468 11.5843 114.819 12.4302 114.82 13.3125V56.5781C114.819 57.4604 114.468 58.3063 113.844 58.9302C113.22 59.5541 112.375 59.9051 111.492 59.9062H64.8984C64.0161 59.9051 63.1703 59.5541 62.5464 58.9302C61.9225 58.3063 61.5715 57.4604 61.5703 56.5781V13.3125ZM64.8984 66.5625H111.492C114.139 66.5596 116.677 65.5068 118.549 63.635C120.421 61.7631 121.474 59.2253 121.477 56.5781V46.5938H144.773V132.756H121.477V109.828C121.474 107.181 120.421 104.643 118.549 102.771C116.677 100.899 114.139 99.8466 111.492 99.8438H64.8984C62.2513 99.8466 59.7134 100.899 57.8416 102.771C55.9698 104.643 54.917 107.181 54.9141 109.828V132.756H31.6172V46.5938H54.9141V56.5781C54.917 59.2253 55.9698 61.7631 57.8416 63.635C59.7134 65.5068 62.2513 66.5596 64.8984 66.5625ZM114.82 109.828V132.756H61.5703V109.828C61.5715 108.946 61.9225 108.1 62.5464 107.476C63.1703 106.852 64.0161 106.501 64.8984 106.5H111.492C112.375 106.501 113.22 106.852 113.844 107.476C114.468 108.1 114.819 108.946 114.82 109.828ZM21.7921 36.6094V33.2812C21.7932 32.3989 22.1442 31.5531 22.7681 30.9292C23.392 30.3053 24.2379 29.9543 25.1202 29.9531H54.9141V39.9375H25.1202C24.2379 39.9364 23.392 39.5853 22.7681 38.9615C22.1442 38.3376 21.7932 37.4917 21.7921 36.6094ZM24.9609 143.109C24.9621 142.227 25.3131 141.381 25.937 140.757C26.5609 140.133 27.4067 139.782 28.2891 139.781H148.102C148.984 139.782 149.83 140.133 150.454 140.757C151.078 141.381 151.429 142.227 151.43 143.109V146.438C151.429 147.32 151.078 148.166 150.454 148.79C149.83 149.413 148.984 149.764 148.102 149.766H28.2891C27.4067 149.764 26.5609 149.413 25.937 148.79C25.3131 148.166 24.9621 147.32 24.9609 146.438V143.109ZM164.742 166.406C164.741 167.289 164.39 168.134 163.766 168.758C163.142 169.382 162.296 169.733 161.414 169.734H14.9766C14.0942 169.733 13.2484 169.382 12.6245 168.758C12.0006 168.134 11.6496 167.289 11.6484 166.406V159.75C11.6496 158.868 12.0006 158.022 12.6245 157.398C13.2484 156.774 14.0942 156.423 14.9766 156.422H161.414C162.296 156.423 163.142 156.774 163.766 157.398C164.39 158.022 164.741 158.868 164.742 159.75V166.406Z" fill="white"></path><path d="M74.8828 36.6094H84.8672V46.5938C84.8672 47.4764 85.2178 48.3229 85.842 48.9471C86.4661 49.5712 87.3126 49.9219 88.1953 49.9219C89.078 49.9219 89.9245 49.5712 90.5487 48.9471C91.1728 48.3229 91.5234 47.4764 91.5234 46.5938V36.6094H101.508C102.39 36.6094 103.237 36.2587 103.861 35.6346C104.485 35.0104 104.836 34.1639 104.836 33.2812C104.836 32.3986 104.485 31.5521 103.861 30.9279C103.237 30.3038 102.39 29.9531 101.508 29.9531H91.5234V19.9688C91.5234 19.0861 91.1728 18.2396 90.5487 17.6154C89.9245 16.9913 89.078 16.6406 88.1953 16.6406C87.3126 16.6406 86.4661 16.9913 85.842 17.6154C85.2178 18.2396 84.8672 19.0861 84.8672 19.9688V29.9531H74.8828C74.0001 29.9531 73.1536 30.3038 72.5295 30.9279C71.9053 31.5521 71.5547 32.3986 71.5547 33.2812C71.5547 34.1639 71.9053 35.0104 72.5295 35.6346C73.1536 36.2587 74.0001 36.6094 74.8828 36.6094Z" fill="white"></path></g></svg>
</g>
</svg>
