<svg xmlns="http://www.w3.org/2000/svg" id="Capa_1" x="0px" y="0px" viewBox="0 0 140 140">
<style type="text/css">
.st0{fill:none;stroke:#5FBCD3;stroke-width:2;}
.st1{fill:#B5E7F3;}
.st2{fill:#151A6A;}
</style>
<circle class="st0" cx="70" cy="70" r="69"/>
<g transform="translate(35,35) scale(1)">
<svg xmlns="http://www.w3.org/2000/svg" width="70" height="70" viewBox="0 0 70 70" fill="none"><path d="M27.5624 40.4687L30.6774 23.8601C30.7256 23.6039 30.8639 23.3733 31.0671 23.2099C31.2704 23.0466 31.5254 22.9613 31.786 22.9693C32.0466 22.9774 32.2958 23.0783 32.4886 23.2538C32.6815 23.4294 32.8052 23.6681 32.8375 23.9268L36.4863 53.1157L39.4394 41.3032C39.4972 41.0662 39.6326 40.8554 39.8241 40.7041C40.0155 40.5529 40.252 40.4701 40.496 40.4687H45.0624L48.1774 23.8601C48.2256 23.6039 48.3639 23.3733 48.5671 23.2099C48.7704 23.0466 49.0254 22.9613 49.286 22.9693C49.5466 22.9774 49.7958 23.0783 49.9886 23.2538C50.1815 23.4294 50.3052 23.6681 50.3375 23.9268L53.9863 53.1157L56.9394 41.3032C56.9972 41.0662 57.1326 40.8554 57.3241 40.7041C57.5155 40.5529 57.752 40.4701 57.996 40.4687H68.9061C68.6272 33.4109 65.6272 26.735 60.535 21.84C55.4428 16.9451 48.6536 14.2112 41.5903 14.2112C34.5269 14.2112 27.7377 16.9451 22.6455 21.84C17.5533 26.735 14.5534 33.4109 14.2744 40.4687H27.5624Z" fill="#B5E7F3"></path><path d="M58.8513 42.6562L54.6874 59.3271C54.6253 59.5744 54.4787 59.7923 54.273 59.943C54.0673 60.0937 53.8154 60.1679 53.5609 60.1526C53.3063 60.1372 53.0651 60.0335 52.879 59.8592C52.6928 59.6849 52.5734 59.451 52.5414 59.198L49.0414 31.1499L47.0508 41.7647C47.0036 42.0154 46.8704 42.2416 46.674 42.4044C46.4777 42.5672 46.2307 42.6562 45.9757 42.6562H41.3513L37.1819 59.3271C37.1198 59.5744 36.9733 59.7923 36.7676 59.943C36.5619 60.0937 36.31 60.1679 36.0554 60.1526C35.8009 60.1372 35.5597 60.0335 35.3735 59.8592C35.1874 59.6849 35.068 59.451 35.036 59.198L31.5305 31.1499L29.5399 41.7647C29.4927 42.0154 29.3594 42.2416 29.1631 42.4044C28.9668 42.5672 28.7198 42.6562 28.4647 42.6562H14.2744C14.5534 49.714 17.5533 56.3899 22.6455 61.2848C27.7377 66.1797 34.5269 68.9137 41.5903 68.9137C48.6536 68.9137 55.4428 66.1797 60.535 61.2848C65.6272 56.3899 68.6272 49.714 68.9061 42.6562H58.8513Z" fill="#B5E7F3"></path><path d="M47.6446 2.68518C40.8699 -0.891382 33.6293 1.66252 28.4373 9.32971C23.243 1.66034 16.0035 -0.892476 9.22992 2.68627C6.73966 4.0343 4.66534 6.03749 3.23127 8.4792C1.7972 10.9209 1.05796 13.7082 1.09351 16.5397V18.8125C1.09351 30.2532 12.696 42.8455 28.084 48.0977C28.3128 48.1769 28.5617 48.1769 28.7905 48.0977C44.1785 42.8455 55.781 30.2532 55.781 18.8125V16.5397C55.8168 13.708 55.0776 10.9205 53.6435 8.47858C52.2095 6.03665 50.135 4.03329 47.6446 2.68518ZM3.28101 16.5397C3.24494 14.1058 3.87535 11.7083 5.104 9.60689C6.33264 7.50549 8.11271 5.78021 10.2515 4.61784C17.0382 1.0369 23.5154 5.22377 27.4988 11.9296C27.6027 12.0832 27.7427 12.209 27.9065 12.2959C28.0703 12.3829 28.2529 12.4284 28.4384 12.4284C28.6238 12.4284 28.8064 12.3829 28.9702 12.2959C29.134 12.209 29.274 12.0832 29.3779 11.9296C33.9574 4.22299 40.5615 1.42956 46.623 4.61893C48.7612 5.78169 50.5409 7.5069 51.7694 9.60798C52.998 11.7091 53.6288 14.1061 53.5935 16.5397V18.8125C53.5873 20.0396 53.4453 21.2622 53.1702 22.458H27.3435C27.1282 22.4579 26.9177 22.5214 26.7383 22.6405C26.5589 22.7595 26.4186 22.9289 26.3351 23.1274L23.3174 30.2936L19.6643 12.9358C19.6151 12.6991 19.4889 12.4853 19.3054 12.3279C19.1219 12.1705 18.8914 12.0784 18.6499 12.0659C18.4085 12.0534 18.1697 12.1213 17.9709 12.2589C17.7721 12.3965 17.6245 12.596 17.5512 12.8264L14.5116 22.4514H3.70429C3.42966 21.2577 3.2877 20.0374 3.28101 18.8125V16.5397ZM28.4373 45.9069C16.7079 41.7977 7.36726 33.3135 4.33101 24.6411H15.3123C15.5448 24.6409 15.7713 24.5666 15.9587 24.4289C16.1462 24.2912 16.2848 24.0974 16.3546 23.8755L18.3824 17.4596L21.8977 34.1622C21.9458 34.3902 22.0654 34.5969 22.2392 34.7521C22.4129 34.9074 22.6317 35.0031 22.8637 35.0253C23.0956 35.0475 23.3286 34.9951 23.5286 34.8756C23.7287 34.7562 23.8854 34.576 23.9759 34.3613L28.0687 24.64H52.5435C49.5073 33.3135 40.1666 41.7977 28.4373 45.9069Z" fill="#151A6A"></path></svg>
</g>
</svg>
