<svg xmlns="http://www.w3.org/2000/svg" id="Capa_1" x="0px" y="0px" viewBox="0 0 140 140">
<style type="text/css">
.st0{fill:none;stroke:#5FBCD3;stroke-width:2;}
.st1{fill:#B5E7F3;}
.st2{fill:#151A6A;}
</style>
<circle class="st0" cx="70" cy="70" r="69"/>
<g transform="translate(35,35) scale(1)">
<svg xmlns="http://www.w3.org/2000/svg" width="70" height="70" viewBox="0 0 70 70" fill="none"><path d="M67.945 31.8224L55.1308 19.0082C54.8268 18.7026 54.4653 18.4603 54.0671 18.2953C53.6688 18.1303 53.2419 18.0458 52.8108 18.0469H34.6892C34.2581 18.0458 33.8312 18.1302 33.4329 18.2952C33.0347 18.4602 32.6732 18.7025 32.3692 19.0082L19.5551 31.8224C19.2494 32.1263 19.007 32.4878 18.842 32.886C18.677 33.2843 18.5926 33.7113 18.5938 34.1423V52.264C18.5926 52.695 18.677 53.122 18.842 53.5202C19.007 53.9185 19.2494 54.28 19.5551 54.5839L32.3692 67.3981C32.6732 67.7037 33.0347 67.9461 33.4329 68.1111C33.8312 68.2761 34.2581 68.3605 34.6892 68.3594H52.8108C53.2419 68.3604 53.6688 68.276 54.0671 68.111C54.4653 67.946 54.8268 67.7037 55.1308 67.3981L67.945 54.5839C68.2506 54.2799 68.4929 53.9184 68.6579 53.5202C68.8229 53.122 68.9073 52.695 68.9063 52.264V34.1423C68.9073 33.7113 68.8229 33.2843 68.6579 32.8861C68.4929 32.4879 68.2506 32.1263 67.945 31.8224ZM57.9688 46.4844C57.9688 46.628 57.9406 46.7703 57.8857 46.903C57.8307 47.0358 57.7502 47.1564 57.6486 47.258C57.547 47.3595 57.4264 47.4401 57.2937 47.495C57.1609 47.55 57.0187 47.5782 56.875 47.5781H48.125V56.3281C48.1251 56.4718 48.0969 56.6141 48.0419 56.7468C47.987 56.8795 47.9064 57.0001 47.8048 57.1017C47.7033 57.2033 47.5827 57.2839 47.4499 57.3388C47.3172 57.3937 47.1749 57.422 47.0313 57.4219H40.4688C40.3251 57.422 40.1828 57.3937 40.0501 57.3388C39.9174 57.2839 39.7968 57.2033 39.6952 57.1017C39.5936 57.0001 39.513 56.8795 39.4581 56.7468C39.4032 56.6141 39.3749 56.4718 39.375 56.3281V47.5781H30.625C30.4814 47.5782 30.3391 47.5499 30.2064 47.495C30.0737 47.44 29.9531 47.3594 29.8515 47.2579C29.75 47.1563 29.6694 47.0357 29.6144 46.903C29.5595 46.7703 29.5312 46.628 29.5313 46.4844V39.9219C29.5312 39.7782 29.5595 39.636 29.6144 39.5033C29.6694 39.3706 29.75 39.25 29.8515 39.1484C29.9531 39.0468 30.0737 38.9663 30.2064 38.9113C30.3391 38.8564 30.4814 38.8281 30.625 38.8281H39.375V30.0781C39.3749 29.9345 39.4032 29.7922 39.4581 29.6595C39.513 29.5267 39.5936 29.4061 39.6952 29.3046C39.7968 29.203 39.9174 29.1224 40.0501 29.0675C40.1828 29.0125 40.3251 28.9843 40.4688 28.9844H47.0313C47.1749 28.9843 47.3172 29.0125 47.4499 29.0675C47.5827 29.1224 47.7033 29.203 47.8048 29.3046C47.9064 29.4061 47.987 29.5267 48.0419 29.6595C48.0969 29.7922 48.1251 29.9345 48.125 30.0781V38.8281H56.875C57.0187 38.8281 57.1609 38.8563 57.2937 38.9112C57.4264 38.9662 57.547 39.0467 57.6486 39.1483C57.7502 39.2499 57.8307 39.3705 57.8857 39.5032C57.9406 39.636 57.9688 39.7782 57.9688 39.9219V46.4844Z" fill="#B5E7F3"></path><path d="M45.9375 39.9219V31.1719H41.5625V39.9219C41.5626 40.0655 41.5343 40.2078 41.4794 40.3405C41.4245 40.4733 41.3439 40.5939 41.2423 40.6955C41.1408 40.797 41.0201 40.8776 40.8874 40.9325C40.7547 40.9875 40.6124 41.0157 40.4688 41.0156H31.7188V45.3906H40.4688C40.6124 45.3905 40.7547 45.4188 40.8874 45.4737C41.0201 45.5287 41.1408 45.6092 41.2423 45.7108C41.3439 45.8124 41.4245 45.933 41.4794 46.0657C41.5343 46.1985 41.5626 46.3407 41.5625 46.4844V55.2344H45.9375V46.4844C45.9374 46.3407 45.9657 46.1985 46.0206 46.0657C46.0755 45.933 46.1561 45.8124 46.2577 45.7108C46.3592 45.6092 46.4799 45.5287 46.6126 45.4737C46.7453 45.4188 46.8876 45.3905 47.0312 45.3906H55.7812V41.0156H47.0312C46.8876 41.0157 46.7453 40.9875 46.6126 40.9325C46.4799 40.8776 46.3592 40.797 46.2577 40.6955C46.1561 40.5939 46.0755 40.4733 46.0206 40.3405C45.9657 40.2078 45.9374 40.0655 45.9375 39.9219Z" fill="#B5E7F3"></path><path d="M7.65625 23.5156C8.73787 23.5156 9.79519 23.1949 10.6945 22.594C11.5939 21.9931 12.2948 21.139 12.7087 20.1397C13.1226 19.1404 13.2309 18.0408 13.0199 16.98C12.8089 15.9191 12.2881 14.9447 11.5232 14.1799C10.7584 13.4151 9.78398 12.8942 8.72315 12.6832C7.66232 12.4722 6.56273 12.5805 5.56345 12.9944C4.56417 13.4083 3.71006 14.1093 3.10915 15.0086C2.50824 15.9079 2.1875 16.9653 2.1875 18.0469C2.1892 19.4968 2.76592 20.8868 3.79114 21.912C4.81636 22.9372 6.20637 23.5139 7.65625 23.5156ZM7.65625 14.7656C8.30522 14.7656 8.93962 14.9581 9.47922 15.3186C10.0188 15.6792 10.4394 16.1916 10.6877 16.7912C10.9361 17.3908 11.0011 18.0505 10.8745 18.687C10.7478 19.3235 10.4353 19.9082 9.97644 20.3671C9.51755 20.826 8.93289 21.1385 8.29639 21.2651C7.65989 21.3917 7.00014 21.3267 6.40057 21.0784C5.801 20.83 5.28854 20.4094 4.92799 19.8698C4.56744 19.3302 4.375 18.6958 4.375 18.0469C4.37595 17.1769 4.72196 16.3429 5.3371 15.7277C5.95225 15.1126 6.7863 14.7666 7.65625 14.7656Z" fill="#151A6A"></path><path d="M53.5944 50.8594H51.4069V43.3324L53.1052 44.1815C53.3646 44.3104 53.6646 44.3312 53.9393 44.2393C54.214 44.1474 54.441 43.9502 54.5705 43.6912C54.7001 43.4321 54.7215 43.1322 54.6303 42.8573C54.539 42.5824 54.3424 42.3549 54.0836 42.2247L51.4069 40.8864V37.837C52.1065 37.7964 52.781 37.5617 53.3547 37.1593C53.9284 36.7568 54.3787 36.2026 54.6551 35.5586C55.0466 34.6597 55.0785 33.6449 54.744 32.7232C54.4096 31.8015 53.7343 31.0433 52.8574 30.6047L51.4069 29.8795V2.73438C51.407 2.59072 51.3788 2.44846 51.3238 2.31572C51.2689 2.18298 51.1884 2.06237 51.0868 1.96079C50.9852 1.85921 50.8646 1.77865 50.7318 1.72372C50.5991 1.66878 50.4568 1.64054 50.3132 1.64063H27.3444C27.0544 1.64063 26.7762 1.75586 26.571 1.96098C26.3659 2.16609 26.2507 2.44429 26.2507 2.73438C26.2507 3.02446 26.3659 3.30266 26.571 3.50777C26.7762 3.71289 27.0544 3.82813 27.3444 3.82813H40.113L38.5511 9.29688H29.5319C29.3717 9.29688 29.2134 9.33209 29.0682 9.40001C28.923 9.46793 28.7946 9.56691 28.6919 9.68995L23.2231 16.2524C23.1306 16.3627 23.0608 16.4901 23.0176 16.6274C22.9745 16.7647 22.9588 16.9092 22.9716 17.0525C22.9843 17.1959 23.0253 17.3353 23.092 17.4628C23.1587 17.5903 23.25 17.7034 23.3605 17.7956C23.471 17.8878 23.5987 17.9573 23.7361 18C23.8735 18.0428 24.018 18.058 24.1613 18.0449C24.3046 18.0317 24.4439 17.9904 24.5713 17.9233C24.6986 17.8562 24.8114 17.7646 24.9033 17.6538L30.0441 11.4844H39.3757C39.6135 11.4843 39.8447 11.4068 40.0345 11.2636C40.2244 11.1205 40.3624 10.9194 40.4278 10.6908L42.3885 3.82813H49.2194V28.7858L38.315 23.3341C37.0454 22.6983 35.578 22.5823 34.2241 23.0104L22.7099 26.6441C22.519 26.7043 22.3153 26.7109 22.1209 26.6632C21.9266 26.6156 21.749 26.5155 21.6076 26.3739L19.0868 23.8531C18.6598 23.425 18.1525 23.0853 17.5941 22.8533C17.0356 22.6214 16.4369 22.5018 15.8322 22.5015C15.2275 22.5011 14.6286 22.6199 14.0699 22.8512C13.5111 23.0824 13.0034 23.4215 12.5758 23.8491C12.1482 24.2767 11.8091 24.7844 11.5779 25.3431C11.3467 25.9019 11.2278 26.5007 11.2282 27.1054C11.2286 27.7102 11.3482 28.3089 11.5801 28.8673C11.812 29.4258 12.1518 29.933 12.5799 30.3601L17.6748 35.455C18.47 36.2465 19.4887 36.7752 20.5936 36.97C21.6984 37.1648 22.8365 37.0163 23.8544 36.5445L35.6651 31.033C35.8139 30.9623 35.9771 30.9267 36.1419 30.9289C36.3067 30.9311 36.4688 30.9711 36.6157 31.0458L49.2194 37.3467V39.7926L36.5836 33.4747C36.4363 33.4008 36.2741 33.3612 36.1093 33.359C35.9444 33.3568 35.7812 33.392 35.6319 33.4619L19.92 40.7945L2.96147 23.8361C2.75575 23.6341 2.47857 23.5215 2.19024 23.5228C1.90191 23.5241 1.62576 23.6392 1.42188 23.8431C1.218 24.0469 1.10288 24.3231 1.10157 24.6114C1.10027 24.8998 1.21288 25.1769 1.41491 25.3827L18.9149 42.8827C19.0735 43.0416 19.2773 43.1477 19.4984 43.1867C19.7195 43.2257 19.9473 43.1956 20.1507 43.1006L20.7819 42.806V50.8594H18.5944C18.3044 50.8594 18.0262 50.9746 17.821 51.1797C17.6159 51.3848 17.5007 51.663 17.5007 51.9531C17.5007 52.2432 17.6159 52.5214 17.821 52.7265C18.0262 52.9316 18.3044 53.0469 18.5944 53.0469H31.7194C32.0095 53.0469 32.2877 52.9316 32.4928 52.7265C32.698 52.5214 32.8132 52.2432 32.8132 51.9531C32.8132 51.663 32.698 51.3848 32.4928 51.1797C32.2877 50.9746 32.0095 50.8594 31.7194 50.8594H29.5319V38.7225L36.0779 35.6676L42.6569 38.9572V50.8594H40.4694C40.1794 50.8594 39.9012 50.9746 39.696 51.1797C39.4909 51.3848 39.3757 51.663 39.3757 51.9531C39.3757 52.2432 39.4909 52.5214 39.696 52.7265C39.9012 52.9316 40.1794 53.0469 40.4694 53.0469H53.5944C53.8845 53.0469 54.1627 52.9316 54.3678 52.7265C54.573 52.5214 54.6882 52.2432 54.6882 51.9531C54.6882 51.663 54.573 51.3848 54.3678 51.1797C54.1627 50.9746 53.8845 50.8594 53.5944 50.8594ZM27.3444 50.8594H22.9694V41.7851L27.3444 39.7434V50.8594ZM49.2194 50.8594H44.8444V40.0509L49.2194 42.2385V50.8594ZM50.4115 35.4967L37.5951 29.089C37.1533 28.8661 36.6664 28.7468 36.1715 28.7401C35.6766 28.7334 35.1867 28.8396 34.739 29.0506L22.9294 34.5621C22.3187 34.8457 21.6357 34.9352 20.9726 34.8183C20.3095 34.7014 19.6983 34.3838 19.2214 33.9084L14.1265 28.8135C13.6738 28.3608 13.4195 27.7468 13.4195 27.1066C13.4195 26.4664 13.6738 25.8525 14.1265 25.3998C14.5792 24.9471 15.1932 24.6928 15.8334 24.6928C16.4736 24.6928 17.0875 24.9471 17.5402 25.3998L20.061 27.9205C20.485 28.3458 21.0178 28.6463 21.6011 28.7891C22.1845 28.9319 22.7959 28.9115 23.3684 28.7302L34.8821 25.0975C35.6942 24.839 36.5751 24.9084 37.3367 25.2908L51.879 32.5615C52.0718 32.6579 52.2436 32.7912 52.3848 32.954C52.526 33.1168 52.6337 33.3058 52.7019 33.5102C52.77 33.7146 52.7972 33.9305 52.7819 34.1454C52.7667 34.3603 52.7092 34.5702 52.6128 34.7629C52.5165 34.9556 52.3831 35.1275 52.2203 35.2686C52.0575 35.4098 51.8685 35.5176 51.6641 35.5857C51.4597 35.6538 51.2439 35.681 51.0289 35.6658C50.814 35.6505 50.6042 35.593 50.4115 35.4967Z" fill="#151A6A"></path></svg>
</g>
</svg>
