<svg xmlns="http://www.w3.org/2000/svg" width="70" height="70" viewBox="0 0 70 70" fill="none"><path d="M58.205 27.4871C56.5797 26.7685 55.1764 26.1473 54.5705 24.9453C51.602 19.0685 45.383 12.5017 32.55 14.6279C28.2986 15.6812 26.2664 16.9139 26.25 21.057C26.1636 22.0534 25.8748 29.7293 36.9753 31.9278C45.5634 33.6296 45.1926 38.6598 44.9225 42.3326C44.8809 42.9003 44.8437 43.4154 44.8437 43.854C44.8437 47.4918 48.4389 54.5837 55.603 55.766C55.864 55.8089 56.1317 55.7556 56.3565 55.6162C59.1767 53.717 61.4935 51.1615 63.1079 48.1693C64.7224 45.177 65.5861 41.8375 65.625 38.4378C65.625 30.7706 61.3364 28.8751 58.205 27.4871Z" fill="#B5E7F3"></path><path d="M55.2492 57.9239C47.1402 56.5862 42.6558 48.755 42.6558 43.8594C42.6558 43.3737 42.6941 42.805 42.74 42.1783C43.008 38.5426 43.2388 35.4047 36.5494 34.079C33.1186 33.5614 29.9267 32.0118 27.398 29.6362C26.5983 32.447 26.2115 35.3591 26.2495 38.2812C26.2495 40.2839 23.1466 43.5159 21.1909 45.0833C21.0139 45.2248 20.8852 45.418 20.8227 45.6359C20.7602 45.8538 20.7669 46.0857 20.842 46.2997C20.917 46.5136 21.0567 46.6989 21.2417 46.8299C21.4267 46.961 21.6478 47.0313 21.8745 47.0312H27.3433C27.3469 50.0318 28.47 52.923 30.4929 55.1392C32.5159 57.3553 35.293 58.7368 38.2808 59.0133V65.625C38.2808 66.4952 38.6265 67.3298 39.2418 67.9452C39.8572 68.5605 40.6918 68.9062 41.562 68.9062H53.5933C54.4635 68.9062 55.2981 68.5605 55.9135 67.9452C56.5288 67.3298 56.8745 66.4952 56.8745 65.625V57.7719C56.3551 57.9625 55.795 58.0149 55.2492 57.9239Z" fill="#B5E7F3"></path><path d="M47.6402 15.3464C45.8522 16.2649 43.8496 16.6843 41.8433 16.5605C37.1632 16.1886 32.821 12.9402 30.2496 7.84438C28.9367 5.10961 26.6346 2.9752 23.8085 1.87251C22.2542 1.29215 20.5987 1.03173 18.9413 1.10688C18.059 1.15063 17.1833 1.28254 16.3272 1.50063C14.5572 1.96629 12.97 2.95779 11.7751 4.34422C10.5802 5.73066 9.83386 7.44686 9.63458 9.26626C8.18271 9.48539 6.8562 10.2141 5.89249 11.3219C4.92878 12.4297 4.39076 13.8443 4.37474 15.3125V20.3656C4.33152 21.5153 4.53904 22.6607 4.98289 23.7222C5.42674 24.7836 6.09629 25.7358 6.94505 26.5125L6.95599 26.5213C6.15251 27.1284 5.5011 27.914 5.05315 28.816C4.60519 29.7179 4.37295 30.7117 4.37474 31.7188C4.37631 33.2685 4.92626 34.7676 5.92719 35.9507C6.92812 37.1338 8.31545 37.9245 9.84349 38.1828V40.4688C9.84349 44.5299 11.4568 48.4247 14.3284 51.2963C17.2001 54.168 21.0949 55.7813 25.156 55.7813C29.2171 55.7813 33.1119 54.168 35.9836 51.2963C38.8552 48.4247 40.4685 44.5299 40.4685 40.4688V38.1828C41.6884 37.9786 42.8256 37.4332 43.7484 36.6096C44.6712 35.786 45.3419 34.7179 45.6829 33.5289C46.0239 32.34 46.0213 31.0788 45.6753 29.8913C45.3293 28.7038 44.6541 27.6385 43.7279 26.8188C47.4575 23.1438 49.0872 16.975 49.1857 16.6031C49.239 16.3999 49.2327 16.1856 49.1674 15.9859C49.1022 15.7862 48.9808 15.6095 48.8178 15.4769C48.6548 15.3443 48.457 15.2615 48.2482 15.2384C48.0394 15.2153 47.8283 15.2528 47.6402 15.3464ZM6.56224 31.7188C6.55949 30.9142 6.78064 30.1246 7.20096 29.4385C7.62128 28.7524 8.22418 28.1968 8.94224 27.8338C9.23084 27.9784 9.5308 28.0991 9.83911 28.1947V35.9363C8.90388 35.6938 8.07522 35.1485 7.48244 34.3856C6.88965 33.6226 6.56609 32.6849 6.56224 31.7188ZM25.156 53.5938C21.6762 53.59 18.34 52.206 15.8794 49.7454C13.4188 47.2848 12.0348 43.9486 12.031 40.4688V27.3438C12.031 23.4391 15.0716 21.4594 21.0763 21.4594C24.3138 21.4594 26.4357 23.2859 28.6877 25.2328C31.1366 27.3438 33.6741 29.5313 37.721 29.5313C37.9069 29.5313 38.0918 29.5203 38.2777 29.5094V40.4688C38.2739 43.948 36.8904 47.2837 34.4305 49.7442C31.9706 52.2047 28.6352 53.5891 25.156 53.5938ZM43.7497 31.7188C43.7505 32.6885 43.4284 33.6309 42.8343 34.3973C42.2402 35.1638 41.4078 35.7106 40.4685 35.9516V29.0063C41.0059 28.8077 41.5166 28.5432 41.9888 28.2188C42.5382 28.6213 42.9843 29.1485 43.2904 29.7569C43.5965 30.3653 43.7539 31.0377 43.7497 31.7188ZM37.7243 27.3438C34.4868 27.3438 32.3649 25.5172 30.1118 23.5703C27.6618 21.4594 25.1254 19.2719 21.0785 19.2719C12.9519 19.2719 10.5785 22.7609 10.0108 25.6813C10.0108 25.6933 10.0108 25.7075 10.0032 25.7195C9.97109 25.771 9.94364 25.8251 9.92114 25.8814H9.91239C8.85475 25.4182 7.96562 24.6401 7.36613 23.6533C6.76663 22.6665 6.48592 21.5189 6.56224 20.3667V15.3125C6.58636 14.2444 7.03263 13.2294 7.80338 12.4896C8.57413 11.7498 9.60658 11.3455 10.6747 11.3652C10.9648 11.3652 11.243 11.2499 11.4481 11.0448C11.6533 10.8397 11.7685 10.5615 11.7685 10.2714C11.7652 8.75146 12.2659 7.27328 13.192 6.06808C14.1182 4.86288 15.4177 3.99863 16.8872 3.61048C17.5931 3.43306 18.3149 3.3268 19.0419 3.29329C20.4079 3.23613 21.7717 3.44795 23.056 3.91673C25.3612 4.83535 27.2357 6.58879 28.306 8.82766C31.2263 14.6125 36.2247 18.3094 41.6815 18.7469C43.2624 18.8605 44.8505 18.675 46.3627 18.2C44.8643 22.225 42.0118 27.3438 37.721 27.3438H37.7243Z" fill="#151A6A"></path><path d="M29.2228 45.2069C28.7118 45.7805 28.0853 46.2395 27.3844 46.5538C26.6834 46.8682 25.9239 47.0306 25.1557 47.0306C24.3875 47.0306 23.628 46.8682 22.9271 46.5538C22.2261 46.2395 21.5996 45.7805 21.0886 45.2069C20.895 44.9908 20.6234 44.8605 20.3337 44.8446C20.044 44.8287 19.7598 44.9285 19.5437 45.1221C19.3276 45.3158 19.1972 45.5873 19.1813 45.877C19.1654 46.1668 19.2653 46.451 19.4589 46.6671C20.1751 47.4694 21.0527 48.1115 22.0342 48.551C23.0158 48.9906 24.0791 49.2179 25.1546 49.2179C26.2301 49.2179 27.2935 48.9906 28.275 48.551C29.2566 48.1115 30.1342 47.4694 30.8503 46.6671C30.9489 46.5606 31.0253 46.4357 31.0751 46.2994C31.1249 46.1632 31.1472 46.0184 31.1405 45.8735C31.1338 45.7286 31.0984 45.5865 31.0362 45.4554C30.9741 45.3243 30.8865 45.2069 30.7786 45.11C30.6707 45.0131 30.5445 44.9386 30.4075 44.8909C30.2705 44.8432 30.1254 44.8232 29.9806 44.8321C29.8359 44.8411 29.6943 44.8787 29.5642 44.9428C29.4341 45.007 29.318 45.0975 29.2228 45.2069Z" fill="#151A6A"></path></svg>