<svg xmlns="http://www.w3.org/2000/svg" width="70" height="70" viewBox="0 0 70 70" fill="none"><path d="M67.8134 33.414H55.0855L64.4151 14.7875C64.4989 14.6208 64.5387 14.4354 64.5306 14.249C64.5225 14.0626 64.4669 13.8814 64.369 13.7225C64.2711 13.5637 64.1342 13.4326 63.9713 13.3416C63.8084 13.2506 63.625 13.2027 63.4384 13.2026H35.0009C34.7684 13.2029 34.5419 13.2772 34.3545 13.4149C34.167 13.5526 34.0284 13.7464 33.9586 13.9683L26.3023 38.0308C26.2508 38.1945 26.2386 38.3681 26.2666 38.5374C26.2946 38.7067 26.3621 38.8671 26.4636 39.0055C26.5651 39.144 26.6977 39.2566 26.8508 39.3343C27.0038 39.4119 27.173 39.4525 27.3447 39.4526H36.8198L29.9806 66.4081C29.914 66.6353 29.9229 66.8779 30.006 67.0996C30.089 67.3212 30.2418 67.51 30.4412 67.6374C30.6407 67.7649 30.8761 67.8242 31.1122 67.8065C31.3482 67.7887 31.5721 67.6949 31.7503 67.539L68.5331 35.3281C68.6995 35.1814 68.8173 34.9875 68.871 34.7722C68.9246 34.557 68.9115 34.3305 68.8334 34.1228C68.7554 33.9152 68.616 33.7362 68.4338 33.6096C68.2516 33.483 68.0353 33.4148 67.8134 33.414Z" fill="#B5E7F3"></path><path d="M20.8954 31.5931C20.6058 31.6067 20.3334 31.7347 20.1382 31.9491C19.9429 32.1634 19.8408 32.4464 19.8541 32.7361C19.8908 33.5584 19.673 34.372 19.2305 35.0661C18.788 35.7601 18.1422 36.3008 17.3811 36.6145L17.263 36.6626C16.3382 35.6682 15.0586 35.0787 13.7018 35.022C13.5578 35.0137 13.4136 35.0345 13.2778 35.0831C13.142 35.1318 13.0174 35.2072 12.9114 35.305C12.8054 35.4027 12.7201 35.5208 12.6607 35.6522C12.6012 35.7836 12.5688 35.9256 12.5654 36.0698C12.5535 36.3596 12.6572 36.6422 12.8537 36.8555C13.0502 37.0688 13.3234 37.1954 13.6132 37.2073C14.1712 37.2291 14.712 37.4066 15.1742 37.7199C15.6365 38.0332 16.0019 38.4696 16.2289 38.9799C16.4558 39.4901 16.5354 40.0537 16.4586 40.6068C16.3818 41.1599 16.1516 41.6805 15.7941 42.1095C15.6092 42.333 15.5206 42.6208 15.5479 42.9096C15.5752 43.1984 15.7161 43.4646 15.9396 43.6495C16.1631 43.8344 16.4509 43.923 16.7397 43.8957C17.0285 43.8684 17.2947 43.7275 17.4796 43.504C18.0385 42.8233 18.4151 42.0116 18.5741 41.1452C18.7331 40.2789 18.6692 39.3864 18.3885 38.5515C19.5194 38.0451 20.472 37.2107 21.123 36.1564C21.774 35.1022 22.0933 33.8766 22.0394 32.6387C22.0353 32.4942 22.0021 32.3519 21.9419 32.2205C21.8817 32.089 21.7957 31.971 21.689 31.8735C21.5823 31.7759 21.457 31.7008 21.3207 31.6527C21.1843 31.6045 21.0397 31.5842 20.8954 31.5931Z" fill="#151A6A"></path><path d="M18.3901 11.7611C18.6711 10.926 18.735 10.0333 18.576 9.16676C18.417 8.30022 18.0403 7.48835 17.4812 6.80746C17.2961 6.58396 17.0299 6.44312 16.741 6.41595C16.452 6.38877 16.1642 6.47747 15.9407 6.66254C15.7172 6.84761 15.5763 7.11389 15.5491 7.4028C15.522 7.69171 15.6107 7.97958 15.7957 8.20309C16.1513 8.63222 16.3798 9.15217 16.4556 9.70428C16.5314 10.2564 16.4514 10.8187 16.2246 11.3277C15.9978 11.8368 15.6333 12.2723 15.1722 12.5853C14.711 12.8982 14.1716 13.076 13.6148 13.0987C13.3247 13.1105 13.0512 13.237 12.8544 13.4504C12.6576 13.6638 12.5536 13.9467 12.5654 14.2368C12.5771 14.5268 12.7036 14.8004 12.917 14.9972C13.1305 15.194 13.4133 15.298 13.7034 15.2862C15.0599 15.2296 16.3393 14.64 17.2636 13.6456L17.3828 13.6937C18.1438 14.0071 18.7896 14.5475 19.2322 15.2414C19.6748 15.9353 19.8925 16.7489 19.8557 17.5711C19.8424 17.8611 19.9448 18.1446 20.1405 18.3592C20.3362 18.5737 20.6091 18.7018 20.8992 18.7151C21.1893 18.7285 21.4728 18.626 21.6873 18.4303C21.9019 18.2347 22.0299 17.9618 22.0432 17.6717C22.0965 16.4339 21.7767 15.2087 21.1253 14.1548C20.4739 13.1009 19.521 12.267 18.3901 11.7611Z" fill="#151A6A"></path><path d="M17.2 25.1563C17.2063 23.2815 16.687 21.4425 15.701 19.848C14.7151 18.2534 13.3019 16.9671 11.6219 16.135C11.3627 16.008 11.0639 15.9886 10.7905 16.081C10.5171 16.1734 10.2912 16.3701 10.1622 16.6283C10.0332 16.8864 10.0115 17.1851 10.1017 17.4592C10.192 17.7334 10.3869 17.9607 10.6441 18.0917C11.9562 18.7476 13.0597 19.7559 13.831 21.0037C14.6022 22.2515 15.0107 23.6894 15.0107 25.1563C15.0107 26.6232 14.6022 28.0611 13.831 29.3088C13.0597 30.5566 11.9562 31.5649 10.6441 32.2208C10.3869 32.3518 10.192 32.5792 10.1017 32.8533C10.0115 33.1274 10.0332 33.4261 10.1622 33.6843C10.2912 33.9424 10.5171 34.1391 10.7905 34.2315C11.0639 34.3239 11.3627 34.3045 11.6219 34.1775C13.3019 33.3454 14.7151 32.0591 15.701 30.4646C16.687 28.87 17.2063 27.031 17.2 25.1563Z" fill="#151A6A"></path><path d="M33.1899 31.593C33.3336 31.5993 33.4746 31.6339 33.6049 31.6948C33.7352 31.7557 33.8522 31.8417 33.9492 31.9479C34.0463 32.054 34.1214 32.1783 34.1703 32.3135C34.2193 32.4488 34.2411 32.5923 34.2345 32.736C34.1978 33.5583 34.4155 34.3719 34.8581 35.066C35.3006 35.76 35.9464 36.3008 36.7074 36.6144L36.8266 36.6626C37.7509 35.668 39.0303 35.0784 40.3868 35.0219C40.5308 35.0137 40.675 35.0345 40.8107 35.0831C40.9465 35.1317 41.0711 35.2071 41.1772 35.3049C41.2832 35.4027 41.3685 35.5207 41.4279 35.6521C41.4874 35.7835 41.5198 35.9256 41.5232 36.0697C41.5295 36.214 41.5072 36.3581 41.4575 36.4937C41.4078 36.6294 41.3317 36.7538 41.2337 36.8598C41.1357 36.9659 41.0176 37.0515 40.8864 37.1117C40.7551 37.1719 40.6132 37.2055 40.4688 37.2105C39.9117 37.2333 39.372 37.4115 38.9108 37.7248C38.4495 38.0381 38.0851 38.4742 37.8586 38.9837C37.6321 39.4932 37.5526 40.0559 37.629 40.6083C37.7055 41.1606 37.9348 41.6806 38.2912 42.1094C38.3827 42.2201 38.4516 42.3477 38.4939 42.485C38.5361 42.6223 38.5509 42.7666 38.5374 42.9096C38.5239 43.0526 38.4823 43.1915 38.4151 43.3185C38.3479 43.4454 38.2564 43.5579 38.1457 43.6494C38.035 43.741 37.9074 43.8099 37.7701 43.8521C37.6328 43.8944 37.4886 43.9092 37.3456 43.8956C37.2026 43.8821 37.0636 43.8406 36.9367 43.7734C36.8097 43.7062 36.6973 43.6146 36.6057 43.504C36.0468 42.8232 35.6702 42.0115 35.5112 41.1452C35.3522 40.2789 35.4161 39.3863 35.6968 38.5515C34.5658 38.0445 33.6131 37.2094 32.9623 36.1545C32.3116 35.0997 31.9927 33.8736 32.047 32.6354C32.0515 32.4912 32.085 32.3494 32.1453 32.2184C32.2056 32.0874 32.2916 31.9698 32.3982 31.8727C32.5047 31.7755 32.6297 31.7007 32.7657 31.6526C32.9017 31.6046 33.046 31.5843 33.1899 31.593Z" fill="#151A6A"></path><path d="M35.6967 11.7611C35.416 10.926 35.3521 10.0333 35.5111 9.16682C35.6701 8.30032 36.0467 7.48844 36.6056 6.80746C36.6972 6.69679 36.8098 6.60526 36.9368 6.53808C37.0638 6.4709 37.2028 6.4294 37.3458 6.41594C37.4889 6.40249 37.6332 6.41734 37.7705 6.45965C37.9078 6.50196 38.0355 6.5709 38.1461 6.66254C38.2568 6.75418 38.3483 6.86672 38.4155 6.99373C38.4827 7.12074 38.5242 7.25974 38.5376 7.4028C38.5511 7.54585 38.5363 7.69015 38.4939 7.82747C38.4516 7.96478 38.3827 8.09242 38.2911 8.20309C37.936 8.63202 37.7077 9.15158 37.632 9.70324C37.5562 10.2549 37.636 10.8168 37.8624 11.3255C38.0887 11.8343 38.4527 12.2697 38.9131 12.5828C39.3736 12.8959 39.9124 13.0742 40.4687 13.0976C40.7588 13.1094 41.0323 13.2359 41.2291 13.4493C41.4259 13.6627 41.5299 13.9456 41.5182 14.2357C41.5064 14.5257 41.3799 14.7993 41.1665 14.9961C40.9531 15.1929 40.6702 15.2969 40.3801 15.2851C39.0237 15.2283 37.7444 14.6388 36.82 13.6445L36.7018 13.6926C35.9414 14.0068 35.2963 14.548 34.8548 15.2423C34.4132 15.9366 34.1965 16.7502 34.2343 17.5721C34.2409 17.7158 34.2192 17.8593 34.1703 17.9945C34.1215 18.1298 34.0465 18.254 33.9496 18.3603C33.7539 18.5748 33.481 18.7029 33.1909 18.7162C33.0473 18.7228 32.9037 18.7011 32.7685 18.6522C32.6333 18.6033 32.509 18.5283 32.4028 18.4314C32.1882 18.2358 32.0602 17.9629 32.0468 17.6728C31.9931 16.4352 32.3123 15.21 32.9631 14.1559C33.6139 13.1019 34.5662 12.2675 35.6967 11.7611Z" fill="#151A6A"></path><path d="M36.8848 25.1563C36.8786 23.2816 37.3979 21.4426 38.3838 19.848C39.3698 18.2535 40.783 16.9672 42.4629 16.1351C42.5916 16.0695 42.7319 16.0301 42.8758 16.0191C43.0197 16.008 43.1644 16.0256 43.3015 16.0707C43.4387 16.1159 43.5655 16.1877 43.6747 16.2821C43.7839 16.3765 43.8733 16.4916 43.9379 16.6207C44.0024 16.7498 44.0407 16.8904 44.0506 17.0345C44.0606 17.1785 44.0419 17.323 43.9957 17.4598C43.9495 17.5965 43.8766 17.7228 43.7814 17.8312C43.6862 17.9397 43.5704 18.0283 43.4408 18.0918C42.1287 18.7477 41.0252 19.756 40.2539 21.0038C39.4826 22.2515 39.0741 23.6894 39.0741 25.1563C39.0741 26.6232 39.4826 28.0611 40.2539 29.3089C41.0252 30.5567 42.1287 31.565 43.4408 32.2209C43.5704 32.2844 43.6862 32.3729 43.7814 32.4814C43.8766 32.5899 43.9495 32.7161 43.9957 32.8529C44.0419 32.9896 44.0606 33.1342 44.0506 33.2782C44.0407 33.4222 44.0024 33.5628 43.9379 33.6919C43.8733 33.8211 43.7839 33.9361 43.6747 34.0305C43.5655 34.1249 43.4387 34.1968 43.3015 34.2419C43.1644 34.2871 43.0197 34.3046 42.8758 34.2936C42.7319 34.2825 42.5916 34.2431 42.4629 34.1776C40.783 33.3455 39.3698 32.0592 38.3838 30.4646C37.3979 28.8701 36.8786 27.0311 36.8848 25.1563Z" fill="#151A6A"></path><path d="M52.9923 25.1563C53 22.5842 52.0574 20.0999 50.3454 18.1803C50.8003 17.2033 51.025 16.1349 51.0021 15.0574C50.9793 13.9799 50.7095 12.9221 50.2136 11.9652C49.7177 11.0083 49.0088 10.178 48.1416 9.53812C47.2744 8.89824 46.2719 8.46585 45.2114 8.27424C44.4608 6.51849 43.2244 5.01361 41.6477 3.93661C40.071 2.85961 38.2195 2.25529 36.311 2.19474C34.4025 2.13419 32.5164 2.61993 30.8746 3.59482C29.2327 4.56971 27.9035 5.99319 27.0431 7.69783C26.1826 5.99326 24.8532 4.56986 23.2113 3.59504C21.5694 2.62022 19.6832 2.13452 17.7747 2.19506C15.8662 2.25561 14.0146 2.85988 12.4378 3.93681C10.861 5.01374 9.6245 6.51855 8.87373 8.27424C7.25234 8.57774 5.78731 9.43653 4.73041 10.703C3.67351 11.9695 3.09077 13.5646 3.08232 15.2141C3.08168 16.2389 3.30569 17.2514 3.73857 18.1803C2.03336 20.104 1.0918 22.5856 1.0918 25.1563C1.0918 27.7269 2.03336 30.2085 3.73857 32.1322C3.30569 33.0611 3.08168 34.0736 3.08232 35.0985C3.09101 36.7488 3.67453 38.3445 4.73252 39.611C5.7905 40.8776 7.25681 41.7359 8.8792 42.0383C9.62986 43.7941 10.8663 45.2989 12.443 46.376C14.0198 47.453 15.8713 48.0574 17.7798 48.1181C19.6883 48.1787 21.5745 47.6931 23.2165 46.7184C24.8584 45.7437 26.1879 44.3203 27.0486 42.6158C27.909 44.3204 29.2384 45.7438 30.8803 46.7186C32.5222 47.6934 34.4083 48.179 36.3168 48.1184C38.2253 48.0577 40.0768 47.4533 41.6534 46.3762C43.2301 45.2991 44.4664 43.7941 45.2169 42.0383C46.2774 41.8467 47.2799 41.4143 48.1471 40.7744C49.0143 40.1345 49.7232 39.3042 50.2191 38.3474C50.715 37.3905 50.9848 36.3326 51.0076 35.2551C51.0305 34.1776 50.8058 33.1092 50.3509 32.1322C52.0612 30.212 53.0019 27.7277 52.9923 25.1563ZM18.0951 45.9375C16.7279 45.9335 15.3854 45.5723 14.2008 44.8897C13.0161 44.2071 12.0304 43.2268 11.3412 42.046C12.2571 41.8914 13.1334 41.5568 13.9192 41.0616C14.0443 40.9865 14.1531 40.8872 14.2393 40.7695C14.3254 40.6518 14.3871 40.518 14.4208 40.3761C14.4545 40.2341 14.4594 40.0869 14.4353 39.943C14.4112 39.7991 14.3586 39.6615 14.2805 39.5383C14.2025 39.4151 14.1005 39.3087 13.9807 39.2255C13.8609 39.1422 13.7257 39.0838 13.583 39.0536C13.4403 39.0234 13.2929 39.022 13.1497 39.0496C13.0065 39.0772 12.8702 39.1332 12.7489 39.2142C11.8553 39.7816 10.7999 40.0391 9.74545 39.9471C8.49078 39.8473 7.32349 39.2656 6.48849 38.3238C5.65348 37.3821 5.21566 36.1535 5.26688 34.896C5.3181 33.6384 5.85438 32.4495 6.76321 31.5788C7.67203 30.7081 8.88277 30.2232 10.1414 30.2258C10.4315 30.2258 10.7097 30.1106 10.9148 29.9054C11.1199 29.7003 11.2351 29.4221 11.2351 29.1321C11.2351 28.842 11.1199 28.5638 10.9148 28.3587C10.7097 28.1535 10.4315 28.0383 10.1414 28.0383C9.18318 28.0341 8.23449 28.2283 7.35503 28.6087C6.47558 28.9892 5.68442 29.5476 5.03138 30.2488C3.89584 28.7935 3.27908 27.0005 3.27908 25.1546C3.27908 23.3087 3.89584 21.5158 5.03138 20.0605C5.68397 20.7617 6.47473 21.3201 7.35383 21.7006C8.23294 22.081 9.18131 22.2752 10.1392 22.271C10.4293 22.271 10.7075 22.1557 10.9126 21.9506C11.1177 21.7455 11.2329 21.4673 11.2329 21.1772C11.2329 20.8871 11.1177 20.6089 10.9126 20.4038C10.7075 20.1987 10.4293 20.0835 10.1392 20.0835C9.3836 20.0833 8.63841 19.9073 7.96253 19.5695C7.28665 19.2317 6.69861 18.7413 6.2449 18.1371C5.7912 17.5329 5.48426 16.8314 5.34835 16.0881C5.21244 15.3449 5.25129 14.5802 5.46183 13.8545C5.67237 13.1288 6.04883 12.4621 6.56144 11.9069C7.07405 11.3518 7.70876 10.9236 8.41539 10.656C9.12203 10.3884 9.88122 10.2889 10.6329 10.3653C11.3847 10.4417 12.1083 10.6919 12.7467 11.0961C12.9918 11.2513 13.2885 11.3028 13.5716 11.2392C13.8547 11.1756 14.1009 11.0022 14.2561 10.7571C14.4113 10.5119 14.4627 10.2152 14.3991 9.93214C14.3356 9.64908 14.1621 9.40287 13.917 9.24768C13.1312 8.75245 12.255 8.41788 11.339 8.2633C12.2069 6.77355 13.5419 5.61158 15.1371 4.95742C16.7323 4.30326 18.4987 4.19342 20.1627 4.64492C21.8266 5.09642 23.2953 6.08405 24.341 7.4548C25.3868 8.82556 25.9513 10.5029 25.9472 12.2271V38.0789C25.9457 40.1616 25.1182 42.1586 23.6462 43.6319C22.1741 45.1052 20.1778 45.9343 18.0951 45.9375ZM41.3373 39.2175C41.216 39.1365 41.0798 39.0805 40.9365 39.0529C40.7933 39.0253 40.6459 39.0267 40.5032 39.0569C40.3605 39.0871 40.2253 39.1455 40.1055 39.2287C39.9857 39.312 39.8838 39.4184 39.8057 39.5416C39.7276 39.6648 39.675 39.8024 39.6509 39.9463C39.6268 40.0902 39.6317 40.2374 39.6654 40.3794C39.6991 40.5213 39.7608 40.6551 39.8469 40.7728C39.9331 40.8905 40.0419 40.9898 40.167 41.0649C40.9525 41.5601 41.8283 41.8946 42.7439 42.0492C41.8763 43.5392 40.5416 44.7015 38.9465 45.3559C37.3513 46.0103 35.5849 46.1203 33.9209 45.6688C32.2569 45.2174 30.7883 44.2298 29.7426 42.859C28.6968 41.4882 28.1325 39.8107 28.1369 38.0866V12.2303C28.1322 10.5061 28.6964 8.82849 29.7421 7.45749C30.7877 6.08649 32.2563 5.09867 33.9204 4.64711C35.5844 4.19556 37.351 4.30549 38.9462 4.95986C40.5414 5.61424 41.8763 6.77653 42.7439 8.26658C41.8283 8.42119 40.9525 8.75576 40.167 9.25096C40.0456 9.3278 39.9406 9.4278 39.8579 9.54524C39.7751 9.66268 39.7164 9.79527 39.6849 9.93542C39.6534 10.0756 39.6498 10.2206 39.6744 10.3621C39.6989 10.5036 39.7511 10.639 39.8279 10.7603C39.9048 10.8817 40.0048 10.9868 40.1222 11.0695C40.2397 11.1522 40.3723 11.211 40.5124 11.2425C40.6526 11.274 40.7976 11.2775 40.9391 11.253C41.0806 11.2284 41.216 11.1762 41.3373 11.0994C41.9757 10.6952 42.6993 10.445 43.4511 10.3686C44.2028 10.2922 44.962 10.3917 45.6686 10.6593C46.3753 10.9268 47.01 11.3551 47.5226 11.9102C48.0352 12.4653 48.4116 13.1321 48.6222 13.8578C48.8327 14.5834 48.8716 15.3481 48.7357 16.0914C48.5998 16.8347 48.2928 17.5362 47.8391 18.1404C47.3854 18.7446 46.7974 19.235 46.1215 19.5728C45.4456 19.9106 44.7004 20.0865 43.9448 20.0867C43.6547 20.0867 43.3765 20.202 43.1714 20.4071C42.9663 20.6122 42.8511 20.8904 42.8511 21.1805C42.8511 21.4706 42.9663 21.7488 43.1714 21.9539C43.3765 22.159 43.6547 22.2742 43.9448 22.2742C44.9027 22.2785 45.8511 22.0843 46.7302 21.7038C47.6093 21.3234 48.4 20.765 49.0526 20.0638C50.1882 21.5191 50.8049 23.312 50.8049 25.1579C50.8049 27.0038 50.1882 28.7968 49.0526 30.2521C48.4 29.5508 47.6093 28.9923 46.7302 28.6117C45.8511 28.231 44.9028 28.0366 43.9448 28.0405C43.6547 28.0405 43.3765 28.1557 43.1714 28.3608C42.9663 28.566 42.8511 28.8442 42.8511 29.1342C42.8511 29.4243 42.9663 29.7025 43.1714 29.9076C43.3765 30.1128 43.6547 30.228 43.9448 30.228C44.7007 30.2279 45.4463 30.4036 46.1226 30.7414C46.7989 31.0791 47.3873 31.5695 47.8414 32.1739C48.2954 32.7783 48.6026 33.48 48.7387 34.2236C48.8747 34.9672 48.8359 35.7322 48.6253 36.4582C48.4147 37.1842 48.0381 37.8512 47.5252 38.4066C47.0123 38.9619 46.3773 39.3903 45.6703 39.6579C44.9633 39.9254 44.2038 40.0248 43.4518 39.9482C42.6997 39.8716 41.9758 39.6222 41.3373 39.2175Z" fill="#151A6A"></path></svg>