<svg xmlns="http://www.w3.org/2000/svg" xmlns:xlink="http://www.w3.org/1999/xlink" id="Capa_1" x="0px" y="0px" viewBox="0 0 140 140" style="enable-background:new 0 0 140 140;" xml:space="preserve"><style type="text/css">	.st0{fill:none;stroke:#5FBCD3;stroke-width:2;}	.st1{fill:#B5E7F3;}	.st2{fill:#151A6A;}</style><circle class="st0" cx="70" cy="70" r="69"></circle><path class="st1" d="M100.6,58H61.2c-0.9,0-1.7,0.3-2.3,1c-0.6,0.6-1,1.4-1,2.3v9.3c0,7.2,2.1,14.2,6.1,20.1 c4,5.9,9.7,10.5,16.4,13.2c0.3,0.1,0.6,0.1,0.8,0c6.7-2.6,12.4-7.2,16.4-13.2c4-5.9,6.2-13,6.1-20.1v-9.3c0-0.9-0.3-1.7-1-2.3 C102.3,58.3,101.5,58,100.6,58z M100.6,70.5c0,6.3-1.8,12.4-5.2,17.7c-3.4,5.3-8.3,9.5-14,12c-0.1,0.1-0.3,0.1-0.4,0.1 c-0.2,0-0.3,0-0.4-0.1c-5.7-2.6-10.6-6.8-14-12c-3.4-5.3-5.2-11.4-5.2-17.7v-8.2c0-0.1,0-0.3,0.1-0.4c0.1-0.1,0.1-0.3,0.2-0.4 c0.1-0.1,0.2-0.2,0.4-0.2c0.1-0.1,0.3-0.1,0.4-0.1h37.2c0.1,0,0.3,0,0.4,0.1c0.1,0.1,0.3,0.1,0.4,0.2c0.1,0.1,0.2,0.2,0.2,0.4 c0.1,0.1,0.1,0.3,0.1,0.4V70.5z"></path><path class="st1" d="M63.4,70.5c0,5.8,1.6,11.4,4.7,16.3c3.1,4.9,7.5,8.8,12.8,11.2c5.2-2.5,9.7-6.4,12.8-11.2 c3.1-4.9,4.7-10.5,4.7-16.3v-7.1h-35V70.5z M68.9,75.5c0-0.1,0-0.3,0.1-0.4c0.1-0.1,0.1-0.3,0.2-0.4c0.1-0.1,0.2-0.2,0.4-0.2 c0.1-0.1,0.3-0.1,0.4-0.1h6.6v-6.6c0-0.1,0-0.3,0.1-0.4c0.1-0.1,0.1-0.3,0.2-0.4c0.1-0.1,0.2-0.2,0.4-0.2c0.1-0.1,0.3-0.1,0.4-0.1 h6.6c0.1,0,0.3,0,0.4,0.1c0.1,0.1,0.3,0.1,0.4,0.2c0.1,0.1,0.2,0.2,0.2,0.4c0.1,0.1,0.1,0.3,0.1,0.4v6.6h6.6c0.1,0,0.3,0,0.4,0.1 c0.1,0.1,0.3,0.1,0.4,0.2c0.1,0.1,0.2,0.2,0.2,0.4c0.1,0.1,0.1,0.3,0.1,0.4V82c0,0.1,0,0.3-0.1,0.4c-0.1,0.1-0.1,0.3-0.2,0.4 c-0.1,0.1-0.2,0.2-0.4,0.2c-0.1,0.1-0.3,0.1-0.4,0.1h-6.6v6.6c0,0.1,0,0.3-0.1,0.4c-0.1,0.1-0.1,0.3-0.2,0.4 c-0.1,0.1-0.2,0.2-0.4,0.2c-0.1,0.1-0.3,0.1-0.4,0.1h-6.6c-0.1,0-0.3,0-0.4-0.1c-0.1-0.1-0.3-0.1-0.4-0.2c-0.1-0.1-0.2-0.2-0.2-0.4 c-0.1-0.1-0.1-0.3-0.1-0.4v-6.6H70c-0.1,0-0.3,0-0.4-0.1c-0.1-0.1-0.3-0.1-0.4-0.2c-0.1-0.1-0.2-0.2-0.2-0.4 c-0.1-0.1-0.1-0.3-0.1-0.4V75.5z"></path><path class="st1" d="M78.8,82v6.6h4.4V82c0-0.1,0-0.3,0.1-0.4c0.1-0.1,0.1-0.3,0.2-0.4c0.1-0.1,0.2-0.2,0.4-0.2 c0.1-0.1,0.3-0.1,0.4-0.1h6.6v-4.4h-6.6c-0.1,0-0.3,0-0.4-0.1c-0.1-0.1-0.3-0.1-0.4-0.2c-0.1-0.1-0.2-0.2-0.2-0.4 c-0.1-0.1-0.1-0.3-0.1-0.4v-6.6h-4.4v6.6c0,0.1,0,0.3-0.1,0.4c-0.1,0.1-0.1,0.3-0.2,0.4c-0.1,0.1-0.2,0.2-0.4,0.2 c-0.1,0.1-0.3,0.1-0.4,0.1h-6.6v4.4h6.6c0.1,0,0.3,0,0.4,0.1c0.1,0.1,0.3,0.1,0.4,0.2c0.1,0.1,0.2,0.2,0.2,0.4 C78.7,81.7,78.8,81.9,78.8,82z"></path><path class="st2" d="M45.7,42.8c-0.2-0.2-0.5-0.3-0.8-0.3c-0.3,0-0.6,0.1-0.8,0.3s-0.3,0.5-0.3,0.8c0,0.3,0.1,0.6,0.3,0.8 c0.2,0.2,0.4,0.4,0.5,0.7c0.1,0.3,0.2,0.5,0.2,0.8s-0.1,0.6-0.2,0.8c-0.1,0.3-0.3,0.5-0.5,0.7c-0.2,0.2-0.3,0.5-0.3,0.8 c0,0.3,0.1,0.6,0.3,0.8s0.5,0.3,0.8,0.3c0.3,0,0.6-0.1,0.8-0.3c0.4-0.4,0.7-0.9,0.9-1.4c0.2-0.5,0.3-1.1,0.3-1.7s-0.1-1.1-0.3-1.7 C46.5,43.7,46.2,43.3,45.7,42.8z"></path><path class="st2" d="M46.5,40.5c-0.1,0.1-0.2,0.2-0.2,0.4c-0.1,0.1-0.1,0.3-0.1,0.4s0,0.3,0.1,0.4c0.1,0.1,0.1,0.3,0.2,0.4 c0.5,0.5,0.9,1.1,1.2,1.8c0.3,0.7,0.4,1.4,0.4,2.1c0,0.7-0.1,1.4-0.4,2.1c-0.3,0.7-0.7,1.3-1.2,1.8c-0.1,0.1-0.2,0.2-0.2,0.4 c-0.1,0.1-0.1,0.3-0.1,0.4c0,0.1,0,0.3,0.1,0.4c0.1,0.1,0.1,0.3,0.2,0.4c0.1,0.1,0.2,0.2,0.4,0.2c0.1,0.1,0.3,0.1,0.4,0.1 s0.3,0,0.4-0.1c0.1-0.1,0.3-0.1,0.4-0.2c0.7-0.7,1.3-1.6,1.7-2.5c0.4-0.9,0.6-1.9,0.6-2.9c0-1-0.2-2-0.6-2.9 c-0.4-0.9-0.9-1.8-1.7-2.5c-0.1-0.1-0.2-0.2-0.4-0.2c-0.1-0.1-0.3-0.1-0.4-0.1s-0.3,0-0.4,0.1C46.7,40.3,46.6,40.4,46.5,40.5z"></path><path class="st2" d="M42.7,47c0.6,0,1.1-0.5,1.1-1.1s-0.5-1.1-1.1-1.1c-0.6,0-1.1,0.5-1.1,1.1S42.1,47,42.7,47z"></path><path class="st2" d="M82.6,46.4c-6.8-3.5-14-1-19.2,6.5c-1.9-2.9-4.5-5.2-7.7-6.8c0,0,0-0.1,0-0.1c0-1.6-0.4-3.1-1.1-4.5 c-0.7-1.4-1.8-2.6-3-3.5c-1.3-0.9-2.8-1.5-4.3-1.7c-1.6-0.2-3.1-0.1-4.6,0.5c-1.5,0.5-2.8,1.4-3.9,2.5c-1.1,1.1-1.9,2.5-2.3,4 c-0.4,1.5-0.5,3.1-0.2,4.6c0.3,1.5,1,3,2,4.2c-1.4,2.4-2.2,5.1-2.2,7.8v2.2c0,11.2,11.6,23.5,27,28.6c0.2,0.1,0.5,0.1,0.7,0 c15.4-5.1,27-17.4,27-28.6v-2.2c0-2.8-0.7-5.5-2.2-7.9C87.2,49.6,85.1,47.7,82.6,46.4z M45.9,38.3c1.5,0,3,0.4,4.3,1.3 c1.3,0.8,2.2,2,2.8,3.4c0.6,1.4,0.7,2.9,0.4,4.4c-0.3,1.5-1,2.8-2.1,3.9c-1.1,1.1-2.4,1.8-3.9,2.1c-1.5,0.3-3,0.1-4.4-0.4 c-1.4-0.6-2.6-1.6-3.4-2.8c-0.8-1.3-1.3-2.7-1.3-4.3c0-2,0.8-4,2.2-5.4C42,39.1,43.9,38.3,45.9,38.3z M88.6,62.1 c0,10.2-10.8,21.5-25.2,26.4C52.2,84.7,43.2,77,39.8,68.9h8.4c0.2,0,0.4-0.1,0.6-0.2c0.2-0.1,0.3-0.3,0.4-0.4l3.4-6.8l7.8,15.5 c0.1,0.2,0.2,0.3,0.4,0.4c0.2,0.1,0.4,0.2,0.6,0.2s0.4-0.1,0.6-0.2c0.2-0.1,0.3-0.3,0.4-0.4l4.1-8.1h3.2c1.4,2.6,3.8,4.6,6.7,5.4 c0.2,0.1,0.5,0.1,0.7,0c4.2-1.4,7.3-4.7,7.3-7.9v-0.6c0-0.9-0.2-1.8-0.7-2.6c-0.5-0.8-1.2-1.3-2-1.7c-0.8-0.3-1.8-0.4-2.6-0.2 c-0.9,0.2-1.7,0.7-2.3,1.4c-0.6-0.7-1.4-1.2-2.3-1.4c-0.9-0.2-1.8-0.1-2.6,0.2s-1.6,0.9-2,1.7c-0.5,0.8-0.7,1.7-0.7,2.6 c0,0.6,0,0.3,0,0.9h-3.3c-0.2,0-0.4,0.1-0.6,0.2c-0.2,0.1-0.3,0.3-0.4,0.4l-3.4,6.8l-7.8-15.5c-0.1-0.2-0.2-0.3-0.4-0.4 c-0.2-0.1-0.4-0.1-0.6-0.1s-0.4,0.1-0.6,0.1c-0.2,0.1-0.3,0.2-0.4,0.4l-4.1,8.1H39c-0.5-1.5-0.7-3-0.7-4.6v-2.2 c0-2.2,0.5-4.3,1.6-6.2c1.3,1,2.8,1.7,4.4,2c1.6,0.3,3.3,0.1,4.8-0.4c1.6-0.5,2.9-1.4,4.1-2.6c1.1-1.2,1.9-2.7,2.3-4.3 c2.9,1.7,5.4,4.1,7,7.1c0.1,0.2,0.2,0.3,0.4,0.4c0.2,0.1,0.3,0.1,0.5,0.1c0.2,0,0.4,0,0.5-0.1c0.2-0.1,0.3-0.2,0.4-0.4 c4.6-7.5,11.2-10.3,17.3-7.1c2.1,1.1,3.9,2.8,5.1,4.8s1.9,4.4,1.8,6.8V62.1z M71.1,66.4v-0.6c0-2.1,2.6-3.8,4.5-0.7 c0.1,0.2,0.2,0.3,0.4,0.4c0.2,0.1,0.3,0.1,0.5,0.1c0.2,0,0.4,0,0.5-0.1c0.2-0.1,0.3-0.2,0.4-0.4c1.8-3,4.5-1.5,4.5,0.7v0.6 c0,1.9-2,4.5-5.5,5.7C73.1,70.9,71.1,68.3,71.1,66.4z"></path></svg>