<svg xmlns="http://www.w3.org/2000/svg" id="Capa_1" x="0px" y="0px" viewBox="0 0 140 140">
<style type="text/css">
.st0{fill:none;stroke:#5FBCD3;stroke-width:2;}
.st1{fill:#B5E7F3;}
.st2{fill:#151A6A;}
</style>
<circle class="st0" cx="70" cy="70" r="69"/>
<g transform="translate(35,35) scale(1)">
<svg xmlns="http://www.w3.org/2000/svg" width="70" height="70" viewBox="0 0 70 70" fill="none"><path d="M64.5313 20.2344C64.3876 20.2344 64.2453 20.2626 64.1126 20.3175C63.9799 20.3725 63.8593 20.453 63.7577 20.5546C63.6561 20.6562 63.5755 20.7768 63.5206 20.9095C63.4657 21.0423 63.4374 21.1845 63.4375 21.3282V27.8907C63.4374 28.0344 63.4657 28.1766 63.5206 28.3094C63.5755 28.4421 63.6561 28.5627 63.7577 28.6643C63.8593 28.7659 63.9799 28.8464 64.1126 28.9014C64.2453 28.9563 64.3876 28.9845 64.5313 28.9844C65.3016 28.9801 66.0568 28.7701 66.7188 28.3761V41.0157C66.7171 43.1768 66.1339 45.2976 65.0302 47.1555C63.9265 49.0135 62.3431 50.5402 60.4461 51.5754C60.1574 51.3687 59.8227 51.2353 59.4709 51.1869C59.1192 51.1384 58.7609 51.1763 58.427 51.2974C56.0102 52.169 53.3649 52.169 50.9481 51.2974C50.6143 51.1758 50.256 51.1376 49.9041 51.186C49.5522 51.2345 49.2175 51.3682 48.929 51.5754C47.032 50.5402 45.4486 49.0136 44.3449 47.1556C43.2412 45.2976 42.6579 43.1768 42.6563 41.0157V28.3761C43.3182 28.7701 44.0734 28.9801 44.8438 28.9844C44.9874 28.9845 45.1297 28.9563 45.2624 28.9014C45.3952 28.8464 45.5158 28.7659 45.6173 28.6643C45.7189 28.5627 45.7995 28.4421 45.8544 28.3094C45.9094 28.1766 45.9376 28.0344 45.9375 27.8907V21.3282C45.9376 21.1845 45.9094 21.0423 45.8544 20.9095C45.7995 20.7768 45.7189 20.6562 45.6173 20.5546C45.5158 20.453 45.3952 20.3725 45.2624 20.3175C45.1297 20.2626 44.9874 20.2344 44.8438 20.2344C43.6838 20.2356 42.5717 20.6969 41.7514 21.5171C40.9312 22.3374 40.4699 23.4495 40.4688 24.6094V41.0157C40.4713 43.5977 41.1765 46.1304 42.5087 48.3423C43.8409 50.5541 45.7498 52.3617 48.031 53.5713C48.0708 53.9805 48.2253 54.3702 48.4768 54.6954C48.7284 55.0207 49.0666 55.2682 49.4527 55.4096C50.381 55.7441 51.3398 55.9873 52.3154 56.1357C52.2074 56.7293 52.0497 57.3129 51.8442 57.8802C51.7229 58.214 51.6849 58.5724 51.7333 58.9242C51.7817 59.2761 51.9152 59.6108 52.1221 59.8995C51.0869 61.7964 49.5602 63.3798 47.7023 64.4834C45.8443 65.5871 43.7235 66.1703 41.5625 66.1719H39.375C36.1852 66.1683 33.1271 64.8996 30.8716 62.6441C28.6161 60.3886 27.3474 57.3305 27.3438 54.1407C27.3455 52.6908 27.9222 51.3008 28.9474 50.2756C29.9726 49.2504 31.3626 48.6737 32.8125 48.6719C33.9728 48.6719 35.0856 48.211 35.9061 47.3905C36.7266 46.5701 37.1875 45.4573 37.1875 44.2969C37.1875 43.1366 36.7266 42.0238 35.9061 41.2034C35.0856 40.3829 33.9728 39.9219 32.8125 39.9219H29.5313C28.9513 39.9212 28.3954 39.6905 27.9853 39.2804C27.5752 38.8703 27.3445 38.3144 27.3438 37.7344V35.4596C29.2596 35.183 30.9995 34.1911 32.2135 32.6834C33.4274 31.1758 34.0252 29.2642 33.8866 27.3336C33.748 25.4029 32.8832 23.5963 31.4664 22.2776C30.0495 20.9588 28.1857 20.2256 26.25 20.2256C24.3144 20.2256 22.4505 20.9588 21.0337 22.2776C19.6168 23.5963 18.752 25.4029 18.6134 27.3336C18.4748 29.2642 19.0726 31.1758 20.2866 32.6834C21.5005 34.1911 23.2405 35.183 25.1563 35.4596V37.7344C25.1574 38.8944 25.6187 40.0065 26.4389 40.8268C27.2592 41.647 28.3713 42.1083 29.5313 42.1094H32.8125C33.3927 42.1094 33.9491 42.3399 34.3593 42.7502C34.7695 43.1604 35 43.7168 35 44.2969C35 44.8771 34.7695 45.4335 34.3593 45.8437C33.9491 46.254 33.3927 46.4844 32.8125 46.4844C30.7827 46.4869 28.8367 47.2943 27.4014 48.7296C25.9662 50.1649 25.1587 52.1109 25.1563 54.1407C25.1606 57.9104 26.6601 61.5245 29.3257 64.1901C31.9912 66.8556 35.6053 68.3551 39.375 68.3594H41.5625C44.1474 68.3568 46.6827 67.65 48.8961 66.3149C51.1096 64.9799 52.9174 63.067 54.1256 60.7818C54.5321 60.7434 54.9196 60.5911 55.2435 60.3423C55.5674 60.0935 55.8145 59.7584 55.9564 59.3755C56.328 58.3411 56.586 57.2694 56.7261 56.1793C57.8162 56.0392 58.8879 55.7812 59.9223 55.4096C60.3084 55.2682 60.6467 55.0207 60.8982 54.6954C61.1497 54.3702 61.3042 53.9805 61.344 53.5713C63.6252 52.3617 65.5342 50.5541 66.8664 48.3423C68.1985 46.1304 68.9037 43.5977 68.9063 41.0157V24.6094C68.9051 23.4495 68.4438 22.3374 67.6236 21.5171C66.8034 20.6969 65.6912 20.2356 64.5313 20.2344ZM26.25 30.6251C25.7092 30.6251 25.1805 30.4647 24.7309 30.1642C24.2812 29.8638 23.9307 29.4367 23.7238 28.9371C23.5168 28.4375 23.4627 27.8877 23.5682 27.3572C23.6737 26.8268 23.9341 26.3396 24.3165 25.9572C24.6989 25.5748 25.1861 25.3144 25.7166 25.2089C26.247 25.1034 26.7968 25.1575 27.2964 25.3645C27.7961 25.5714 28.2231 25.9219 28.5236 26.3716C28.824 26.8212 28.9844 27.3499 28.9844 27.8907C28.9844 28.6159 28.6963 29.3114 28.1835 29.8242C27.6707 30.337 26.9752 30.6251 26.25 30.6251Z" fill="#B5E7F3"></path><path d="M24.2622 21.3452C24.1058 21.3177 23.9452 21.3246 23.7917 21.3654C23.6382 21.4062 23.4954 21.4799 23.3732 21.5814C23.251 21.683 23.1524 21.8099 23.0843 21.9533C23.0161 22.0968 22.9799 22.2534 22.9784 22.4123C22.9637 24.1459 22.9624 26.116 22.965 28.042L21.86 27.3053V15.8594C21.86 15.5693 21.7448 15.2911 21.5397 15.086C21.3346 14.8809 21.0564 14.7656 20.7663 14.7656C20.4762 14.7656 20.198 14.8809 19.9929 15.086C19.7878 15.2911 19.6725 15.5693 19.6725 15.8594V27.3053L18.5922 28.0255C18.5947 26.1048 18.5935 24.141 18.5788 22.4123C18.5772 22.2534 18.5411 22.0968 18.4729 21.9533C18.4047 21.8099 18.3061 21.6829 18.184 21.5814C18.0618 21.4799 17.919 21.4061 17.7655 21.3654C17.6119 21.3246 17.4514 21.3177 17.2949 21.3452C12.8975 22.1228 7.65625 26.3557 7.65625 42.1094C7.65617 42.253 7.6844 42.3953 7.73934 42.528C7.79428 42.6608 7.87484 42.7814 7.97642 42.883C8.078 42.9845 8.19861 43.0651 8.33134 43.12C8.46408 43.175 8.60634 43.2032 8.75 43.2031C14.9045 43.2031 18.5788 39.9902 18.5788 34.6091L18.5852 31.3908L18.587 30.6582L20.7663 29.2055L22.9702 30.6746L22.972 31.3908L22.9784 34.6091C22.9784 39.9902 26.6527 43.2031 32.8072 43.2031C32.9509 43.2032 33.0931 43.175 33.2259 43.12C33.3586 43.0651 33.4792 42.9845 33.5808 42.883C33.6824 42.7814 33.7629 42.6608 33.8179 42.528C33.8728 42.3953 33.9011 42.253 33.901 42.1094C33.9009 26.3557 28.6597 22.1228 24.2622 21.3452ZM16.3913 34.6091C16.3913 39.5117 12.6871 40.7465 9.85336 40.9729C9.97619 33.9084 11.2964 25.8601 16.4009 23.8563C16.4088 25.6667 16.4068 27.6351 16.4026 29.4853L13.5971 31.3556C13.4763 31.4347 13.3724 31.5369 13.2914 31.6564C13.2103 31.7759 13.1537 31.9102 13.1248 32.0517C13.096 32.1931 13.0954 32.3389 13.1231 32.4806C13.1508 32.6223 13.2063 32.757 13.2864 32.8772C13.3665 32.9973 13.4696 33.1004 13.5897 33.1805C13.7098 33.2606 13.8446 33.3161 13.9863 33.3438C14.128 33.3716 14.2737 33.371 14.4152 33.3421C14.5566 33.3133 14.691 33.2567 14.8105 33.1756L16.3962 32.1185L16.3913 34.6091ZM25.1659 34.6091L25.1609 32.135L26.7221 33.1757C26.8416 33.2566 26.9759 33.3132 27.1173 33.342C27.2587 33.3708 27.4045 33.3713 27.5461 33.3435C27.6877 33.3157 27.8225 33.2602 27.9425 33.1801C28.0626 33.1 28.1656 32.997 28.2457 32.8769C28.3257 32.7568 28.3812 32.6221 28.409 32.4804C28.4367 32.3388 28.4361 32.1931 28.4073 32.0517C28.3785 31.9103 28.3219 31.776 28.241 31.6565C28.16 31.537 28.0562 31.4348 27.9355 31.3556L25.1547 29.5017C25.1504 27.6469 25.1483 25.6719 25.1562 23.8563C30.2608 25.8601 31.5809 33.9084 31.7038 40.9729C28.8701 40.7465 25.1659 39.5117 25.1659 34.6091Z" fill="#151A6A"></path><path d="M37.1725 4.92188H28.4225C28.4216 4.05192 28.0756 3.21788 27.4604 2.60273C26.8453 1.98758 26.0112 1.64157 25.1413 1.64062H16.3913C15.5213 1.64157 14.6873 1.98758 14.0722 2.60273C13.457 3.21788 13.111 4.05192 13.11 4.92188H4.375C3.50505 4.92282 2.671 5.26883 2.05585 5.88398C1.44071 6.49913 1.0947 7.33317 1.09375 8.20312V53.0469C1.0947 53.9168 1.44071 54.7509 2.05585 55.366C2.671 55.9812 3.50505 56.3272 4.375 56.3281H37.1725C38.0425 56.3272 38.8765 55.9812 39.4917 55.366C40.1068 54.7509 40.4528 53.9168 40.4538 53.0469V8.20312C40.4528 7.33317 40.1068 6.49913 39.4917 5.88398C38.8765 5.26883 38.0425 4.92282 37.1725 4.92188ZM15.2975 4.92188C15.2977 4.63185 15.413 4.35377 15.6181 4.14869C15.8232 3.94362 16.1013 3.82832 16.3913 3.82812H25.1413C25.4313 3.82832 25.7094 3.94362 25.9145 4.14869C26.1196 4.35377 26.2349 4.63185 26.235 4.92188V7.10938C26.2349 7.3994 26.1196 7.67748 25.9145 7.88256C25.7094 8.08763 25.4313 8.20293 25.1413 8.20312H16.3913C16.1013 8.20293 15.8232 8.08763 15.6181 7.88256C15.413 7.67748 15.2977 7.3994 15.2975 7.10938V4.92188ZM38.2663 53.0469C38.2661 53.3369 38.1508 53.615 37.9457 53.8201C37.7407 54.0251 37.4626 54.1404 37.1725 54.1406H4.375C4.08498 54.1404 3.80689 54.0251 3.60182 53.8201C3.39674 53.615 3.28144 53.3369 3.28125 53.0469V8.20312C3.28144 7.9131 3.39674 7.63502 3.60182 7.42994C3.80689 7.22487 4.08498 7.10957 4.375 7.10938H13.11C13.111 7.97933 13.457 8.81337 14.0722 9.42852C14.6873 10.0437 15.5213 10.3897 16.3913 10.3906H25.1413C26.0112 10.3897 26.8453 10.0437 27.4604 9.42852C28.0756 8.81337 28.4216 7.97933 28.4225 7.10938H37.1725C37.4626 7.10957 37.7407 7.22487 37.9457 7.42994C38.1508 7.63502 38.2661 7.9131 38.2663 8.20312V53.0469Z" fill="#151A6A"></path><path d="M33.8911 12.5781H27.3286C27.0385 12.5781 26.7603 12.6934 26.5552 12.8985C26.3501 13.1036 26.2349 13.3818 26.2349 13.6719C26.2349 13.962 26.3501 14.2402 26.5552 14.4453C26.7603 14.6504 27.0385 14.7656 27.3286 14.7656H33.8911C34.1812 14.7656 34.4594 14.6504 34.6645 14.4453C34.8696 14.2402 34.9849 13.962 34.9849 13.6719C34.9849 13.3818 34.8696 13.1036 34.6645 12.8985C34.4594 12.6934 34.1812 12.5781 33.8911 12.5781Z" fill="#151A6A"></path><path d="M33.8911 15.8594H30.6099C30.3198 15.8594 30.0416 15.9746 29.8365 16.1797C29.6313 16.3848 29.5161 16.663 29.5161 16.9531C29.5161 17.2432 29.6313 17.5214 29.8365 17.7265C30.0416 17.9316 30.3198 18.0469 30.6099 18.0469H33.8911C34.1812 18.0469 34.4594 17.9316 34.6645 17.7265C34.8696 17.5214 34.9849 17.2432 34.9849 16.9531C34.9849 16.663 34.8696 16.3848 34.6645 16.1797C34.4594 15.9746 34.1812 15.8594 33.8911 15.8594Z" fill="#151A6A"></path><path d="M26.2349 49.7656H15.2974C15.0073 49.7656 14.7291 49.8809 14.524 50.086C14.3188 50.2911 14.2036 50.5693 14.2036 50.8594C14.2036 51.1495 14.3188 51.4277 14.524 51.6328C14.7291 51.8379 15.0073 51.9531 15.2974 51.9531H26.2349C26.5249 51.9531 26.8031 51.8379 27.0083 51.6328C27.2134 51.4277 27.3286 51.1495 27.3286 50.8594C27.3286 50.5693 27.2134 50.2911 27.0083 50.086C26.8031 49.8809 26.5249 49.7656 26.2349 49.7656Z" fill="#151A6A"></path><path d="M22.9536 47.5781C23.2437 47.5781 23.5219 47.4629 23.727 47.2578C23.9321 47.0527 24.0474 46.7745 24.0474 46.4844C24.0474 46.1943 23.9321 45.9161 23.727 45.711C23.5219 45.5059 23.2437 45.3906 22.9536 45.3906H18.5786C18.2885 45.3906 18.0103 45.5059 17.8052 45.711C17.6001 45.9161 17.4849 46.1943 17.4849 46.4844C17.4849 46.7745 17.6001 47.0527 17.8052 47.2578C18.0103 47.4629 18.2885 47.5781 18.5786 47.5781H22.9536Z" fill="#151A6A"></path></svg>
</g>
</svg>
