<svg xmlns="http://www.w3.org/2000/svg" id="Capa_1" x="0px" y="0px" viewBox="0 0 140 140">
<style type="text/css">
.st0{fill:none;stroke:#5FBCD3;stroke-width:2;}
.st1{fill:#B5E7F3;}
.st2{fill:#151A6A;}
</style>
<circle class="st0" cx="70" cy="70" r="69"/>
<g transform="translate(35,35) scale(1)">
<svg xmlns="http://www.w3.org/2000/svg" width="70" height="70" viewBox="0 0 70 70" fill="none"><path d="M27.3438 63.4375C27.9478 63.4375 28.4375 62.9478 28.4375 62.3438C28.4375 61.7397 27.9478 61.25 27.3438 61.25C26.7397 61.25 26.25 61.7397 26.25 62.3438C26.25 62.9478 26.7397 63.4375 27.3438 63.4375Z" fill="#B5E7F3"></path><path d="M65.625 27.3438H22.9688C22.0985 27.3438 21.2639 27.6895 20.6486 28.3048C20.0332 28.9202 19.6875 29.7548 19.6875 30.625V65.625C19.6875 66.4952 20.0332 67.3298 20.6486 67.9452C21.2639 68.5605 22.0985 68.9062 22.9688 68.9062H65.625C66.4952 68.9062 67.3298 68.5605 67.9452 67.9452C68.5605 67.3298 68.9062 66.4952 68.9062 65.625V30.625C68.9062 29.7548 68.5605 28.9202 67.9452 28.3048C67.3298 27.6895 66.4952 27.3438 65.625 27.3438ZM27.3438 65.625C26.6948 65.625 26.0604 65.4326 25.5208 65.072C24.9812 64.7115 24.5606 64.199 24.3123 63.5994C24.0639 62.9999 23.9989 62.3401 24.1255 61.7036C24.2522 61.0671 24.5647 60.4824 25.0236 60.0236C25.4824 59.5647 26.0671 59.2522 26.7036 59.1255C27.3401 58.9989 27.9999 59.0639 28.5994 59.3123C29.199 59.5606 29.7115 59.9812 30.072 60.5208C30.4326 61.0604 30.625 61.6948 30.625 62.3438C30.625 63.214 30.2793 64.0486 29.6639 64.6639C29.0486 65.2793 28.214 65.625 27.3438 65.625ZM33.9062 63.4375C33.6899 63.4375 33.4785 63.3734 33.2986 63.2532C33.1187 63.133 32.9785 62.9622 32.8958 62.7623C32.813 62.5625 32.7913 62.3425 32.8335 62.1304C32.8757 61.9182 32.9799 61.7233 33.1329 61.5704C33.2858 61.4174 33.4807 61.3132 33.6929 61.271C33.905 61.2288 34.125 61.2505 34.3248 61.3333C34.5247 61.416 34.6955 61.5562 34.8157 61.7361C34.9359 61.916 35 62.1274 35 62.3438C35 62.6338 34.8848 62.912 34.6796 63.1171C34.4745 63.3223 34.1963 63.4375 33.9062 63.4375ZM43.75 63.4375H38.2812C37.9912 63.4375 37.713 63.3223 37.5079 63.1171C37.3027 62.912 37.1875 62.6338 37.1875 62.3438C37.1875 62.0537 37.3027 61.7755 37.5079 61.5704C37.713 61.3652 37.9912 61.25 38.2812 61.25H43.75C44.0401 61.25 44.3183 61.3652 44.5234 61.5704C44.7285 61.7755 44.8438 62.0537 44.8438 62.3438C44.8438 62.6338 44.7285 62.912 44.5234 63.1171C44.3183 63.3223 44.0401 63.4375 43.75 63.4375ZM53.5938 63.4375H48.125C47.8349 63.4375 47.5567 63.3223 47.3516 63.1171C47.1465 62.912 47.0312 62.6338 47.0312 62.3438C47.0312 62.0537 47.1465 61.7755 47.3516 61.5704C47.5567 61.3652 47.8349 61.25 48.125 61.25H53.5938C53.8838 61.25 54.162 61.3652 54.3671 61.5704C54.5723 61.7755 54.6875 62.0537 54.6875 62.3438C54.6875 62.6338 54.5723 62.912 54.3671 63.1171C54.162 63.3223 53.8838 63.4375 53.5938 63.4375ZM63.4375 63.4375H57.9688C57.6787 63.4375 57.4005 63.3223 57.1954 63.1171C56.9902 62.912 56.875 62.6338 56.875 62.3438C56.875 62.0537 56.9902 61.7755 57.1954 61.5704C57.4005 61.3652 57.6787 61.25 57.9688 61.25H63.4375C63.7276 61.25 64.0058 61.3652 64.2109 61.5704C64.416 61.7755 64.5312 62.0537 64.5312 62.3438C64.5312 62.6338 64.416 62.912 64.2109 63.1171C64.0058 63.3223 63.7276 63.4375 63.4375 63.4375ZM64.5312 54.6875C64.5312 54.9776 64.416 55.2558 64.2109 55.4609C64.0058 55.666 63.7276 55.7812 63.4375 55.7812H25.1562C24.8662 55.7812 24.588 55.666 24.3829 55.4609C24.1777 55.2558 24.0625 54.9776 24.0625 54.6875V47.0312H32.1366L34.0211 50.8014C34.1135 50.9814 34.2538 51.1325 34.4265 51.238C34.5992 51.3435 34.7976 51.3993 35 51.3993C35.2024 51.3993 35.4008 51.3435 35.5735 51.238C35.7462 51.1325 35.8865 50.9814 35.9789 50.8014L39.375 44.0081L42.7656 50.8014C42.8563 50.9834 42.996 51.1365 43.1689 51.2435C43.3418 51.3506 43.5412 51.4073 43.7445 51.4073C43.9479 51.4073 44.1472 51.3506 44.3201 51.2435C44.4931 51.1365 44.6327 50.9834 44.7234 50.8014L50.3125 39.6331L53.7031 46.4264C53.7944 46.6091 53.935 46.7625 54.1089 46.8694C54.2829 46.9763 54.4833 47.0324 54.6875 47.0312H64.5312V54.6875ZM64.5312 44.8438H55.3634L51.2969 36.6986C51.2006 36.5232 51.0589 36.3769 50.8867 36.275C50.7145 36.173 50.5181 36.1193 50.318 36.1193C50.1179 36.1193 49.9214 36.173 49.7492 36.275C49.577 36.3769 49.4354 36.5232 49.3391 36.6986L43.75 47.8669L40.3594 41.0736C40.2626 40.8988 40.1208 40.7531 39.9486 40.6516C39.7765 40.5501 39.5803 40.4966 39.3805 40.4966C39.1806 40.4966 38.9845 40.5501 38.8123 40.6516C38.6402 40.7531 38.4983 40.8988 38.4016 41.0736L35 47.8669L33.7969 45.4486C33.6985 45.2718 33.5562 45.1233 33.3838 45.0173C33.2114 44.9114 33.0147 44.8516 32.8125 44.8438H24.0625V32.8125C24.0625 32.5224 24.1777 32.2442 24.3829 32.0391C24.588 31.834 24.8662 31.7188 25.1562 31.7188H63.4375C63.7276 31.7188 64.0058 31.834 64.2109 32.0391C64.416 32.2442 64.5312 32.5224 64.5312 32.8125V44.8438Z" fill="#B5E7F3"></path><path d="M28.4375 9.09464C17.7647 -6.24411 1.09375 2.95323 1.09375 16.1231V18.3281C1.09375 29.4734 12.7006 41.7343 28.093 46.84C28.3167 46.9142 28.5583 46.9142 28.782 46.84C44.1744 41.731 55.7812 29.4734 55.7812 18.3281V16.1231C55.7812 3.01995 39.1562 -6.30646 28.4375 9.09464ZM28.4375 44.6481C17.255 40.8418 8.2425 33.1725 4.795 25.1673H7.65625C7.85939 25.1675 8.05857 25.1111 8.23147 25.0045C8.40437 24.8978 8.54415 24.7452 8.63516 24.5635L12.0312 17.7703L19.8023 33.3135C19.8931 33.4956 20.0327 33.6487 20.2056 33.7557C20.3786 33.8627 20.5779 33.9194 20.7812 33.9194C20.9846 33.9194 21.1839 33.8627 21.3569 33.7557C21.5298 33.6487 21.6694 33.4956 21.7602 33.3135L27.3438 22.1453L30.7398 28.9385C30.8322 29.1186 30.9725 29.2697 31.1452 29.3751C31.3179 29.4806 31.5164 29.5364 31.7188 29.5364C31.9211 29.5364 32.1196 29.4806 32.2923 29.3751C32.465 29.2697 32.6053 29.1186 32.6977 28.9385L34.5822 25.1673H38.2812C38.4853 25.1685 38.6857 25.1126 38.8596 25.0059C39.0336 24.8992 39.1742 24.746 39.2656 24.5635L42.6562 17.7703L46.0469 24.5635C46.1438 24.7415 46.2857 24.8909 46.4585 24.9968C46.6312 25.1028 46.8287 25.1616 47.0312 25.1673H52.0822C48.6325 33.1725 39.62 40.8418 28.4375 44.6481ZM53.5938 18.3281C53.5826 19.9052 53.3412 21.4723 52.8773 22.9798H47.7072L43.6406 14.8346C43.5463 14.6568 43.4054 14.508 43.2329 14.4042C43.0605 14.3005 42.863 14.2456 42.6617 14.2456C42.4604 14.2456 42.263 14.3005 42.0905 14.4042C41.918 14.508 41.7771 14.6568 41.6828 14.8346L37.6053 22.9798H33.9062C33.7055 22.9908 33.5108 23.0519 33.3398 23.1576C33.1688 23.2633 33.027 23.4101 32.9273 23.5846L31.7188 26.0029L28.3281 19.2096C28.2316 19.0345 28.0898 18.8885 27.9177 18.7868C27.7455 18.6851 27.5492 18.6315 27.3492 18.6315C27.1493 18.6315 26.953 18.6851 26.7808 18.7868C26.6086 18.8885 26.4669 19.0345 26.3703 19.2096L20.7812 30.3779L13.0156 14.8346C12.9191 14.6595 12.7773 14.5135 12.6052 14.4118C12.433 14.3101 12.2367 14.2565 12.0367 14.2565C11.8368 14.2565 11.6405 14.3101 11.4683 14.4118C11.2961 14.5135 11.1544 14.6595 11.0578 14.8346L6.98031 22.9798H3.99766C3.53378 21.4723 3.29244 19.9052 3.28125 18.3281V16.1231C3.28125 8.71729 9.23563 3.29776 15.2928 3.29776C19.7772 3.29776 24.1773 6.22354 27.5045 11.6682C27.6093 11.8187 27.7489 11.9417 27.9115 12.0265C28.074 12.1114 28.2547 12.1558 28.438 12.1558C28.6214 12.1558 28.8021 12.1114 28.9646 12.0265C29.1272 11.9417 29.2668 11.8187 29.3716 11.6682C38.6608 -3.53489 53.5938 4.56104 53.5938 16.1231V18.3281Z" fill="#151A6A"></path></svg>
</g>
</svg>
