<svg xmlns="http://www.w3.org/2000/svg" width="70" height="70" viewBox="0 0 70 70" fill="none"><path d="M51.4062 47.0312C51.2626 47.0312 51.1204 47.0595 50.9876 47.1144C50.8549 47.1694 50.7343 47.2499 50.6328 47.3515C50.5312 47.4531 50.4506 47.5737 50.3957 47.7064C50.3407 47.8391 50.3125 47.9814 50.3125 48.125V49.2188H48.0696C47.8407 46.213 46.6573 43.359 44.6922 41.0732L46.2804 39.4849L47.0537 40.2583C47.2588 40.4634 47.537 40.5787 47.827 40.5786C48.1171 40.5786 48.3953 40.4634 48.6003 40.2583C48.8054 40.0532 48.9207 39.7751 48.9207 39.485C48.9207 39.195 48.8054 38.9168 48.6003 38.7117L45.5071 35.6179C45.302 35.4128 45.0238 35.2976 44.7338 35.2976C44.4437 35.2976 44.1655 35.4128 43.9604 35.6179C43.7553 35.823 43.6401 36.1012 43.6401 36.3912C43.6401 36.6813 43.7553 36.9594 43.9604 37.1645L44.7339 37.9382L43.1455 39.5266C40.8597 37.5615 38.0057 36.3781 35 36.1492V33.9062H36.0938C36.3838 33.9062 36.662 33.791 36.8671 33.5859C37.0723 33.3808 37.1875 33.1026 37.1875 32.8125C37.1875 32.5224 37.0723 32.2442 36.8671 32.0391C36.662 31.834 36.3838 31.7188 36.0938 31.7188H31.7188C31.4287 31.7188 31.1505 31.834 30.9454 32.0391C30.7402 32.2442 30.625 32.5224 30.625 32.8125C30.625 33.1026 30.7402 33.3808 30.9454 33.5859C31.1505 33.791 31.4287 33.9062 31.7188 33.9062H32.8125V36.1492C29.8068 36.3781 26.9528 37.5615 24.667 39.5266L23.0786 37.9382L23.8521 37.1645C24.0572 36.9594 24.1724 36.6813 24.1724 36.3912C24.1724 36.1012 24.0572 35.823 23.8521 35.6179C23.647 35.4128 23.3688 35.2976 23.0788 35.2976C22.7887 35.2976 22.5105 35.4128 22.3054 35.6179L19.2122 38.7117C19.1106 38.8132 19.0301 38.9338 18.9751 39.0665C18.9202 39.1992 18.8919 39.3414 18.8919 39.485C18.8919 39.6286 18.9202 39.7708 18.9751 39.9035C19.0301 40.0362 19.1106 40.1568 19.2122 40.2583C19.3137 40.3599 19.4343 40.4404 19.567 40.4954C19.6997 40.5504 19.8419 40.5786 19.9855 40.5786C20.1291 40.5786 20.2713 40.5504 20.404 40.4954C20.5367 40.4404 20.6573 40.3599 20.7588 40.2583L21.5321 39.4849L23.1203 41.0732C21.1552 43.359 19.9718 46.213 19.7429 49.2188H17.5V48.125C17.5 47.8349 17.3848 47.5567 17.1796 47.3516C16.9745 47.1465 16.6963 47.0312 16.4062 47.0312C16.1162 47.0312 15.838 47.1465 15.6329 47.3516C15.4277 47.5567 15.3125 47.8349 15.3125 48.125V52.5C15.3125 52.7901 15.4277 53.0683 15.6329 53.2734C15.838 53.4785 16.1162 53.5938 16.4062 53.5938C16.6963 53.5938 16.9745 53.4785 17.1796 53.2734C17.3848 53.0683 17.5 52.7901 17.5 52.5V51.4062H19.7429C19.9718 54.412 21.1552 57.266 23.1203 59.5518L21.5321 61.1401L20.7588 60.3667C20.5537 60.1616 20.2755 60.0464 19.9855 60.0464C19.6954 60.0464 19.4172 60.1616 19.2122 60.3667C19.0071 60.5718 18.8918 60.8499 18.8918 61.14C18.8918 61.43 19.0071 61.7082 19.2122 61.9133L22.3054 65.0071C22.407 65.1087 22.5275 65.1892 22.6602 65.2442C22.7929 65.2991 22.9351 65.3274 23.0787 65.3274C23.2224 65.3274 23.3646 65.2991 23.4973 65.2442C23.6299 65.1892 23.7505 65.1087 23.8521 65.0071C23.9536 64.9056 24.0342 64.785 24.0891 64.6523C24.1441 64.5196 24.1724 64.3774 24.1724 64.2338C24.1724 64.0902 24.1441 63.948 24.0892 63.8153C24.0342 63.6826 23.9536 63.562 23.8521 63.4605L23.0786 62.6868L24.667 61.0984C26.9528 63.0635 29.8068 64.2469 32.8125 64.4758V66.7188H31.7188C31.4287 66.7188 31.1505 66.834 30.9454 67.0391C30.7402 67.2442 30.625 67.5224 30.625 67.8125C30.625 68.1026 30.7402 68.3808 30.9454 68.5859C31.1505 68.791 31.4287 68.9062 31.7188 68.9062H36.0938C36.3838 68.9062 36.662 68.791 36.8671 68.5859C37.0723 68.3808 37.1875 68.1026 37.1875 67.8125C37.1875 67.5224 37.0723 67.2442 36.8671 67.0391C36.662 66.834 36.3838 66.7188 36.0938 66.7188H35V64.4758C38.0057 64.2469 40.8597 63.0635 43.1455 61.0984L44.7339 62.6868L43.9604 63.4605C43.7553 63.6656 43.6401 63.9437 43.6401 64.2338C43.6401 64.5238 43.7553 64.802 43.9604 65.0071C44.1655 65.2122 44.4437 65.3274 44.7337 65.3274C45.0238 65.3274 45.302 65.2122 45.5071 65.0071L48.6003 61.9133C48.8054 61.7082 48.9206 61.43 48.9206 61.14C48.9206 60.8499 48.8054 60.5718 48.6003 60.3667C48.3952 60.1616 48.1171 60.0464 47.827 60.0464C47.5369 60.0464 47.2588 60.1616 47.0537 60.3667L46.2804 61.1401L44.6922 59.5518C46.6573 57.266 47.8407 54.412 48.0696 51.4062H50.3125V52.5C50.3125 52.7901 50.4277 53.0683 50.6329 53.2734C50.838 53.4785 51.1162 53.5938 51.4062 53.5938C51.6963 53.5938 51.9745 53.4785 52.1796 53.2734C52.3848 53.0683 52.5 52.7901 52.5 52.5V48.125C52.5 47.9814 52.4718 47.8391 52.4168 47.7064C52.3619 47.5737 52.2813 47.4531 52.1797 47.3515C52.0782 47.2499 51.9576 47.1694 51.8249 47.1144C51.6921 47.0595 51.5499 47.0312 51.4062 47.0312ZM32.8125 39.375C33.4615 39.375 34.0959 39.5674 34.6355 39.928C35.1751 40.2885 35.5956 40.801 35.844 41.4006C36.0923 42.0001 36.1573 42.6599 36.0307 43.2964C35.9041 43.9329 35.5916 44.5176 35.1327 44.9764C34.6738 45.4353 34.0891 45.7478 33.4526 45.8745C32.8161 46.0011 32.1564 45.9361 31.5568 45.6877C30.9572 45.4394 30.4448 45.0188 30.0842 44.4792C29.7237 43.9396 29.5312 43.3052 29.5312 42.6562C29.5322 41.7863 29.8782 40.9523 30.4934 40.3371C31.1085 39.722 31.9426 39.3759 32.8125 39.375ZM35 60.1562C33.9184 60.1562 32.8611 59.8355 31.9617 59.2346C31.0624 58.6337 30.3615 57.7796 29.9475 56.7803C29.5336 55.781 29.4253 54.6814 29.6363 53.6206C29.8473 52.5598 30.3682 51.5853 31.133 50.8205C31.8978 50.0557 32.8723 49.5348 33.9331 49.3238C34.9939 49.1128 36.0935 49.2211 37.0928 49.635C38.0921 50.049 38.9462 50.7499 39.5471 51.6492C40.148 52.5486 40.4688 53.6059 40.4688 54.6875C40.467 56.1374 39.8903 57.5274 38.8651 58.5526C37.8399 59.5778 36.4499 60.1545 35 60.1562Z" fill="#B5E7F3"></path><path d="M67.8125 24.0625C67.6689 24.0625 67.5266 24.0907 67.3939 24.1457C67.2612 24.2006 67.1406 24.2812 67.039 24.3828C66.9374 24.4843 66.8569 24.6049 66.8019 24.7376C66.747 24.8704 66.7187 25.0126 66.7188 25.1562V26.25H64.4439C64.262 24.986 63.7647 23.7882 62.998 22.7669L64.6089 21.1563L65.3825 21.93C65.5876 22.1351 65.8658 22.2503 66.1558 22.2503C66.4459 22.2503 66.724 22.1351 66.9291 21.93C67.1342 21.7249 67.2494 21.4467 67.2494 21.1567C67.2494 20.8666 67.1342 20.5885 66.9291 20.3834L65.383 18.837L65.3817 18.8357L63.8359 17.2896C63.7343 17.188 63.6138 17.1075 63.4811 17.0525C63.3484 16.9976 63.2062 16.9693 63.0625 16.9693C62.9189 16.9693 62.7767 16.9976 62.644 17.0525C62.5114 17.1075 62.3908 17.188 62.2892 17.2896C62.1877 17.3911 62.1071 17.5117 62.0522 17.6444C61.9972 17.7771 61.9689 17.9193 61.9689 18.0629C61.9689 18.2065 61.9972 18.3487 62.0522 18.4814C62.1071 18.6141 62.1877 18.7347 62.2892 18.8362L63.0624 19.6095L61.4512 21.2204C60.4301 20.4539 59.2325 19.9568 57.9688 19.7749V17.5H59.0625C59.3526 17.5 59.6308 17.3848 59.8359 17.1796C60.041 16.9745 60.1562 16.6963 60.1562 16.4062C60.1562 16.1162 60.041 15.838 59.8359 15.6329C59.6308 15.4277 59.3526 15.3125 59.0625 15.3125H54.6875C54.3974 15.3125 54.1192 15.4277 53.9141 15.6329C53.709 15.838 53.5938 16.1162 53.5938 16.4062C53.5938 16.6963 53.709 16.9745 53.9141 17.1796C54.1192 17.3848 54.3974 17.5 54.6875 17.5H55.7812V19.7749C54.5175 19.9568 53.3199 20.4539 52.2988 21.2204L50.6875 19.6095L51.4607 18.8362C51.5623 18.7347 51.6428 18.6141 51.6978 18.4814C51.7527 18.3488 51.781 18.2065 51.781 18.0629C51.781 17.9193 51.7527 17.7771 51.6978 17.6444C51.6428 17.5117 51.5623 17.3912 51.4607 17.2896C51.3592 17.1881 51.2386 17.1075 51.1059 17.0525C50.9732 16.9976 50.831 16.9693 50.6874 16.9693C50.5438 16.9693 50.4016 16.9976 50.2689 17.0525C50.1362 17.1075 50.0156 17.1881 49.9141 17.2896L48.3683 18.8357L48.3669 18.837L46.8208 20.3834C46.6157 20.5885 46.5005 20.8667 46.5005 21.1567C46.5005 21.4468 46.6157 21.7249 46.8208 21.93C47.0259 22.1351 47.3041 22.2504 47.5941 22.2504C47.8842 22.2504 48.1624 22.1351 48.3675 21.93L49.141 21.1563L50.752 22.767C49.9853 23.7882 49.4881 24.986 49.3061 26.25H47.0312V25.1562C47.0312 24.8662 46.916 24.588 46.7109 24.3829C46.5058 24.1777 46.2276 24.0625 45.9375 24.0625C45.6474 24.0625 45.3692 24.1777 45.1641 24.3829C44.959 24.588 44.8438 24.8662 44.8438 25.1562V29.5312C44.8438 29.8213 44.959 30.0995 45.1641 30.3046C45.3692 30.5098 45.6474 30.625 45.9375 30.625C46.2276 30.625 46.5058 30.5098 46.7109 30.3046C46.916 30.0995 47.0312 29.8213 47.0312 29.5312V28.4375H49.3061C49.4881 29.7015 49.9853 30.8993 50.7521 31.9206L49.1411 33.5312L48.3675 32.7575C48.266 32.6559 48.1454 32.5754 48.0127 32.5204C47.88 32.4655 47.7378 32.4372 47.5942 32.4372C47.4506 32.4372 47.3084 32.4655 47.1757 32.5204C47.043 32.5754 46.9224 32.6559 46.8209 32.7575C46.7193 32.859 46.6388 32.9796 46.5838 33.1123C46.5288 33.245 46.5006 33.3872 46.5006 33.5308C46.5006 33.6744 46.5288 33.8166 46.5838 33.9493C46.6388 34.082 46.7193 34.2026 46.8209 34.3041L48.367 35.8505L48.3683 35.8518L49.9141 37.3979C50.0157 37.4995 50.1362 37.58 50.2689 37.635C50.4016 37.6899 50.5438 37.7182 50.6875 37.7182C50.8311 37.7182 50.9733 37.6899 51.106 37.635C51.2386 37.58 51.3592 37.4995 51.4608 37.3979C51.5623 37.2964 51.6429 37.1758 51.6978 37.0431C51.7528 36.9104 51.7811 36.7682 51.7811 36.6246C51.7811 36.481 51.7528 36.3388 51.6978 36.2061C51.6429 36.0734 51.5623 35.9528 51.4608 35.8513L50.6876 35.078L52.2988 33.4671C53.3199 34.2336 54.5175 34.7307 55.7812 34.9126V37.1875H54.6875C54.3974 37.1875 54.1192 37.3027 53.9141 37.5079C53.709 37.713 53.5938 37.9912 53.5938 38.2812C53.5938 38.5713 53.709 38.8495 53.9141 39.0546C54.1192 39.2598 54.3974 39.375 54.6875 39.375H59.0625C59.3526 39.375 59.6308 39.2598 59.8359 39.0546C60.041 38.8495 60.1562 38.5713 60.1562 38.2812C60.1562 37.9912 60.041 37.713 59.8359 37.5079C59.6308 37.3027 59.3526 37.1875 59.0625 37.1875H57.9688V34.9126C59.2325 34.7307 60.4301 34.2336 61.4512 33.4671L63.0624 35.078L62.2893 35.8513C62.1877 35.9528 62.1071 36.0734 62.0522 36.2061C61.9972 36.3387 61.9689 36.481 61.9689 36.6246C61.9689 36.7682 61.9972 36.9104 62.0522 37.0431C62.1071 37.1758 62.1877 37.2963 62.2893 37.3979C62.3908 37.4994 62.5114 37.58 62.6441 37.635C62.7767 37.6899 62.919 37.7182 63.0626 37.7182C63.2062 37.7182 63.3484 37.6899 63.4811 37.635C63.6138 37.58 63.7343 37.4994 63.8359 37.3979L65.3817 35.8518L65.3831 35.8505L66.9291 34.3041C67.0307 34.2025 67.1113 34.082 67.1662 33.9493C67.2212 33.8166 67.2495 33.6744 67.2495 33.5308C67.2495 33.3872 67.2212 33.2449 67.1662 33.1123C67.1113 32.9796 67.0307 32.859 66.9291 32.7575C66.8276 32.6559 66.707 32.5754 66.5743 32.5204C66.4417 32.4654 66.2994 32.4371 66.1558 32.4371C66.0122 32.4371 65.87 32.4654 65.7373 32.5204C65.6046 32.5754 65.4841 32.6559 65.3825 32.7575L64.6089 33.5312L62.998 31.9205C63.7648 30.8993 64.262 29.7015 64.4439 28.4375H66.7188V29.5312C66.7188 29.8213 66.834 30.0995 67.0391 30.3046C67.2442 30.5098 67.5224 30.625 67.8125 30.625C68.1026 30.625 68.3808 30.5098 68.5859 30.3046C68.791 30.0995 68.9062 29.8213 68.9062 29.5312V25.1562C68.9063 25.0126 68.878 24.8704 68.8231 24.7376C68.7681 24.6049 68.6876 24.4843 68.586 24.3828C68.4844 24.2812 68.3638 24.2006 68.2311 24.1457C68.0984 24.0907 67.9561 24.0625 67.8125 24.0625ZM53.5938 24.0625C53.5938 23.6299 53.722 23.2069 53.9624 22.8472C54.2028 22.4875 54.5444 22.2071 54.9441 22.0415C55.3438 21.8759 55.7837 21.8326 56.208 21.917C56.6323 22.0014 57.0221 22.2098 57.328 22.5157C57.634 22.8216 57.8423 23.2114 57.9267 23.6357C58.0111 24.0601 57.9678 24.4999 57.8022 24.8996C57.6367 25.2993 57.3563 25.641 56.9966 25.8813C56.6368 26.1217 56.2139 26.25 55.7812 26.25C55.2013 26.2493 54.6453 26.0187 54.2352 25.6086C53.8251 25.1985 53.5944 24.6425 53.5938 24.0625ZM57.9688 32.8125C57.5361 32.8125 57.1132 32.6842 56.7534 32.4438C56.3937 32.2035 56.1133 31.8618 55.9478 31.4621C55.7822 31.0624 55.7389 30.6226 55.8233 30.1982C55.9077 29.7739 56.116 29.3841 56.422 29.0782C56.7279 28.7723 57.1177 28.5639 57.542 28.4795C57.9663 28.3951 58.4062 28.4384 58.8059 28.604C59.2056 28.7696 59.5472 29.05 59.7876 29.4097C60.028 29.7694 60.1562 30.1924 60.1562 30.625C60.1556 31.205 59.9249 31.761 59.5148 32.1711C59.1047 32.5812 58.5487 32.8118 57.9688 32.8125Z" fill="#B5E7F3"></path><path d="M44.7178 51.6038L41.6503 40.6658C41.4599 39.9836 41.0526 39.3819 40.4899 38.9517C39.9272 38.5215 39.2398 38.2861 38.5315 38.2812H7.4057C6.69735 38.2861 6.00984 38.5215 5.44715 38.9518C4.88446 39.3822 4.47719 39.984 4.28692 40.6663L1.21941 51.6038C1.07983 52.0889 1.05435 52.5997 1.14495 53.0962C1.23556 53.5928 1.43979 54.0617 1.74169 54.4662C2.04359 54.8707 2.43497 55.1999 2.88522 55.428C3.33547 55.6562 3.83239 55.7771 4.33712 55.7812H41.6001C42.1048 55.777 42.6017 55.6561 43.0519 55.4279C43.5022 55.1998 43.8935 54.8706 44.1954 54.4661C44.4973 54.0616 44.7016 53.5928 44.7922 53.0962C44.8828 52.5997 44.8574 52.0889 44.7178 51.6038ZM29.4321 40.4688C29.1754 41.9974 28.3852 43.3857 27.2019 44.3869C26.0186 45.3881 24.5187 45.9375 22.9686 45.9375C21.4185 45.9375 19.9186 45.3881 18.7353 44.3869C17.552 43.3857 16.7618 41.9974 16.5052 40.4688H29.4321ZM41.6001 53.5938H4.33712C4.17013 53.5894 4.00639 53.5466 3.85865 53.4686C3.7109 53.3907 3.58312 53.2797 3.48526 53.1443C3.3874 53.009 3.32209 52.8528 3.2944 52.6881C3.26672 52.5234 3.27742 52.3544 3.32566 52.1945L6.39316 41.2576C6.45339 41.034 6.58477 40.836 6.76745 40.6937C6.95012 40.5514 7.17417 40.4724 7.4057 40.4688H14.2949C14.5594 42.5827 15.5867 44.5273 17.1839 45.9371C18.7811 47.347 20.8382 48.125 22.9686 48.125C25.099 48.125 27.1561 47.347 28.7533 45.9371C30.3505 44.5273 31.3779 42.5827 31.6423 40.4688H38.5315C38.763 40.4724 38.9869 40.5513 39.1696 40.6935C39.3523 40.8358 39.4837 41.0335 39.544 41.257L42.6116 52.1945C42.6598 52.3544 42.6705 52.5233 42.6428 52.6881C42.6151 52.8528 42.5498 53.009 42.452 53.1443C42.3541 53.2797 42.2263 53.3907 42.0786 53.4686C41.9308 53.5466 41.7671 53.5894 41.6001 53.5938Z" fill="#151A6A"></path><path d="M22.9682 36.0938C26.448 36.0898 29.784 34.7057 32.2445 32.2451C34.705 29.7846 36.0889 26.4485 36.0927 22.9688V8.75C36.0904 6.7202 35.2831 4.77419 33.8478 3.33888C32.4126 1.90356 30.4666 1.09614 28.4368 1.09375H18.5934C17.7235 1.09472 16.8895 1.44073 16.2743 2.05588C15.6592 2.67103 15.3132 3.50507 15.3123 4.375C15.312 4.66499 15.1967 4.94302 14.9916 5.14808C14.7866 5.35313 14.5085 5.46846 14.2185 5.46875H13.1248C12.2549 5.46974 11.4209 5.81576 10.8058 6.43091C10.1907 7.04605 9.84468 7.88008 9.84375 8.75V22.9688C9.84757 26.4485 11.2315 29.7846 13.692 32.2451C16.1525 34.7057 19.4885 36.0898 22.9682 36.0938ZM12.0312 8.75C12.0315 8.46001 12.1468 8.18198 12.3518 7.97692C12.5569 7.77187 12.8349 7.65654 13.1249 7.65625H14.2187C15.0886 7.65528 15.9226 7.30927 16.5377 6.69412C17.1529 6.07897 17.4988 5.24493 17.4998 4.375C17.5001 4.08501 17.6154 3.80698 17.8205 3.60192C18.0255 3.39687 18.3035 3.28154 18.5935 3.28125H28.4369C29.8868 3.28298 31.2767 3.85971 32.3019 4.88493C33.3271 5.91015 33.9038 7.30015 33.9055 8.75V14.7849C33.0931 14.3733 32.3776 13.7938 31.8062 13.0848C31.2348 12.3757 30.8207 11.5533 30.5912 10.6721C30.5315 10.4643 30.4124 10.2785 30.2486 10.1375C30.0847 9.99655 29.8833 9.90651 29.6689 9.87848C29.4546 9.85046 29.2368 9.88567 29.0422 9.97978C28.8476 10.0739 28.6847 10.2228 28.5736 10.4082C28.5639 10.4243 27.5236 12.0312 22.9682 12.0312C18.446 12.0312 17.3876 10.4478 17.3844 10.4478C17.2841 10.2483 17.1253 10.0842 16.9291 9.97759C16.7329 9.87098 16.5089 9.82692 16.2869 9.85133C16.065 9.87575 15.8559 9.96746 15.6876 10.1142C15.5193 10.2609 15.3999 10.4556 15.3454 10.6721C15.1162 11.5534 14.7022 12.3759 14.1307 13.085C13.5593 13.7941 12.8436 14.3735 12.0312 14.7849V8.75ZM12.0312 17.1872C14.127 16.3889 15.8524 14.8418 16.8739 12.8452C18.7364 13.8653 20.8482 14.3412 22.9682 14.2188C25.0883 14.3413 27.2001 13.8653 29.0627 12.8452C30.0841 14.8418 31.8095 16.3888 33.9053 17.1872V22.9688C33.9053 25.8694 32.753 28.6513 30.7019 30.7024C28.6508 32.7535 25.8689 33.9058 22.9682 33.9058C20.0676 33.9058 17.2857 32.7535 15.2346 30.7024C13.1835 28.6513 12.0312 25.8694 12.0312 22.9688V17.1872Z" fill="#151A6A"></path><path d="M18.5937 28.4375H27.3433C27.487 28.4376 27.6292 28.4093 27.7619 28.3544C27.8947 28.2994 28.0152 28.2188 28.1168 28.1173C28.2184 28.0157 28.299 27.8951 28.3539 27.7624C28.4089 27.6297 28.4371 27.4874 28.4371 27.3438C28.4371 25.8934 27.8609 24.5025 26.8354 23.4769C25.8098 22.4514 24.4189 21.8752 22.9685 21.8752C21.5182 21.8752 20.1272 22.4514 19.1017 23.4769C18.0761 24.5025 17.5 25.8934 17.5 27.3438C17.5 27.4874 17.5282 27.6297 17.5832 27.7624C17.6381 27.8951 17.7187 28.0157 17.8202 28.1172C17.9218 28.2188 18.0424 28.2994 18.1751 28.3543C18.3078 28.4093 18.45 28.4376 18.5937 28.4375ZM22.9685 24.0625C23.6469 24.0634 24.3085 24.2741 24.8624 24.6657C25.4164 25.0573 25.8357 25.6107 26.0627 26.25H19.8743C20.1013 25.6107 20.5206 25.0573 21.0746 24.6657C21.6285 24.2741 22.2901 24.0634 22.9685 24.0625Z" fill="#151A6A"></path><path d="M5.95612 24.9726C6.19749 25.1297 6.49107 25.1852 6.77314 25.1272C7.05521 25.0691 7.30301 24.9022 7.46276 24.6626C7.6225 24.423 7.68129 24.13 7.62638 23.8473C7.57147 23.5646 7.40728 23.315 7.16945 23.1526L3.88833 20.9651C3.64696 20.8078 3.35325 20.752 3.07101 20.81C2.78877 20.8679 2.5408 21.0349 2.38097 21.2746C2.22114 21.5144 2.16237 21.8075 2.21742 22.0903C2.27246 22.3731 2.43689 22.6228 2.67496 22.7851L5.95612 24.9726Z" fill="#151A6A"></path><path d="M5.95637 31.9026L2.67525 34.0901C2.43742 34.2525 2.27323 34.5021 2.21831 34.7848C2.1634 35.0675 2.2222 35.3605 2.38194 35.6001C2.54168 35.8397 2.78948 36.0067 3.07156 36.0647C3.35363 36.1227 3.64721 36.0672 3.88858 35.9101L7.1697 33.7226C7.40753 33.5602 7.57172 33.3106 7.62663 33.0279C7.68155 32.7452 7.62275 32.4523 7.46301 32.2126C7.30326 31.973 7.05546 31.8061 6.77339 31.748C6.49132 31.69 6.19774 31.7455 5.95637 31.9026Z" fill="#151A6A"></path><path d="M3.28223 29.5312H6.56336C6.85344 29.5312 7.13164 29.416 7.33675 29.2109C7.54187 29.0058 7.65711 28.7276 7.65711 28.4375C7.65711 28.1474 7.54187 27.8692 7.33675 27.6641C7.13164 27.459 6.85344 27.3438 6.56336 27.3438H3.28223C2.99215 27.3438 2.71395 27.459 2.50883 27.6641C2.30371 27.8692 2.18848 28.1474 2.18848 28.4375C2.18848 28.7276 2.30371 29.0058 2.50883 29.2109C2.71395 29.416 2.99215 29.5312 3.28223 29.5312Z" fill="#151A6A"></path><path d="M39.9813 24.9726L43.2625 22.7851C43.5003 22.6227 43.6645 22.3731 43.7194 22.0904C43.7743 21.8077 43.7155 21.5148 43.5558 21.2751C43.396 21.0355 43.1482 20.8686 42.8662 20.8105C42.5841 20.7525 42.2905 20.808 42.0491 20.9651L38.768 23.1526C38.5302 23.315 38.366 23.5646 38.3111 23.8473C38.2562 24.13 38.315 24.423 38.4747 24.6626C38.6345 24.9022 38.8823 25.0692 39.1643 25.1272C39.4464 25.1852 39.74 25.1297 39.9813 24.9726Z" fill="#151A6A"></path><path d="M39.9813 31.9026C39.74 31.7455 39.4464 31.69 39.1643 31.748C38.8823 31.8061 38.6345 31.973 38.4747 32.2126C38.315 32.4523 38.2562 32.7452 38.3111 33.0279C38.366 33.3106 38.5302 33.5602 38.768 33.7226L42.0491 35.9101C42.2905 36.0675 42.5842 36.1232 42.8665 36.0653C43.1487 36.0073 43.3967 35.8403 43.5565 35.6006C43.7163 35.3608 43.7751 35.0677 43.72 34.7849C43.665 34.5021 43.5006 34.2524 43.2625 34.0901L39.9813 31.9026Z" fill="#151A6A"></path><path d="M39.374 29.5312H42.6552C42.9452 29.5312 43.2234 29.416 43.4286 29.2109C43.6337 29.0058 43.7489 28.7276 43.7489 28.4375C43.7489 28.1474 43.6337 27.8692 43.4286 27.6641C43.2234 27.459 42.9452 27.3438 42.6552 27.3438H39.374C39.0839 27.3438 38.8057 27.459 38.6006 27.6641C38.3955 27.8692 38.2803 28.1474 38.2803 28.4375C38.2803 28.7276 38.3955 29.0058 38.6006 29.2109C38.8057 29.416 39.0839 29.5312 39.374 29.5312Z" fill="#151A6A"></path></svg>