<svg xmlns="http://www.w3.org/2000/svg" id="Capa_1" x="0px" y="0px" viewBox="0 0 140 140">
<style type="text/css">
.st0{fill:none;stroke:#5FBCD3;stroke-width:2;}
.st1{fill:#B5E7F3;}
.st2{fill:#151A6A;}
</style>
<circle class="st0" cx="70" cy="70" r="69"/>
<g transform="translate(35,35) scale(1)">
<svg xmlns="http://www.w3.org/2000/svg" width="70" height="70" viewBox="0 0 70 70" fill="none"><path d="M37.8636 27.5777C37.6708 27.4261 37.4327 27.3438 37.1875 27.3438C36.9423 27.3438 36.7042 27.4261 36.5114 27.5777C35.8694 28.0823 20.7812 40.08 20.7812 52.5C20.7813 56.8512 22.5098 61.0242 25.5865 64.101C28.6633 67.1777 32.8363 68.9062 37.1875 68.9062C41.5387 68.9062 45.7117 67.1777 48.7885 64.101C51.8652 61.0242 53.5938 56.8512 53.5938 52.5C53.5938 40.08 38.5056 28.0823 37.8636 27.5777ZM37.1875 66.7188C36.8974 66.7188 36.6192 66.6035 36.4141 66.3984C36.209 66.1933 36.0938 65.9151 36.0938 65.625C36.0938 65.3349 36.209 65.0567 36.4141 64.8516C36.6192 64.6465 36.8974 64.5312 37.1875 64.5312C40.3773 64.5276 43.4354 63.2589 45.6909 61.0034C47.9464 58.7479 49.2151 55.6898 49.2188 52.5C49.2188 52.2099 49.334 51.9317 49.5391 51.7266C49.7442 51.5215 50.0224 51.4062 50.3125 51.4062C50.6026 51.4062 50.8808 51.5215 51.0859 51.7266C51.291 51.9317 51.4062 52.2099 51.4062 52.5C51.4019 56.2697 49.9025 59.8838 47.2369 62.5494C44.5713 65.215 40.9572 66.7144 37.1875 66.7188Z" fill="#B5E7F3"></path><path d="M53.1765 21.0152C52.9838 20.8636 52.7457 20.7812 52.5004 20.7812C52.2552 20.7812 52.0171 20.8636 51.8243 21.0152C48.7148 23.5485 45.8675 26.3877 43.3252 29.4899C48.28 34.2857 55.7817 43.097 55.7817 52.5C55.7788 54.2591 55.5252 56.0089 55.0285 57.6964C57.7168 57.1154 60.1253 55.6321 61.854 53.493C63.5828 51.3539 64.5276 48.6878 64.5317 45.9375C64.5317 45.6474 64.6469 45.3692 64.852 45.1641C65.0572 44.959 65.3354 44.8437 65.6254 44.8437C65.9155 44.8437 66.1937 44.959 66.3988 45.1641C66.604 45.3692 66.7192 45.6474 66.7192 45.9375C66.7139 49.4181 65.4334 52.7761 63.12 55.3766C60.8065 57.9771 57.6204 59.6398 54.164 60.0502C53.8115 60.8345 53.4049 61.5933 52.9471 62.3211C57.2159 62.2028 61.2705 60.4256 64.2503 57.3666C67.23 54.3077 68.9004 50.2079 68.9067 45.9375C68.9067 33.5175 53.8185 21.5198 53.1765 21.0152Z" fill="#B5E7F3"></path><path d="M2.1875 12.032H28.4375C28.6406 12.0319 28.8397 11.9754 29.0125 11.8686C29.1853 11.7618 29.325 11.6091 29.4159 11.4274L33.7909 2.67755C33.8551 2.54906 33.8934 2.40918 33.9036 2.26589C33.9138 2.12261 33.8957 1.97872 33.8502 1.84244C33.8048 1.70616 33.733 1.58016 33.6389 1.47164C33.5448 1.36312 33.4302 1.2742 33.3017 1.20996C33.1732 1.14572 33.0333 1.10742 32.89 1.09723C32.7467 1.08705 32.6029 1.10519 32.4666 1.15062C32.3303 1.19604 32.2043 1.26787 32.0958 1.36199C31.9873 1.45611 31.8983 1.57068 31.8341 1.69917L27.7614 9.8445H2.1875C1.89742 9.8445 1.61922 9.95973 1.4141 10.1648C1.20898 10.37 1.09375 10.6482 1.09375 10.9382C1.09375 11.2283 1.20898 11.5065 1.4141 11.7116C1.61922 11.9168 1.89742 12.032 2.1875 12.032Z" fill="#151A6A"></path><path d="M37.1872 12.0318H54.6872C54.9773 12.0318 55.2555 11.9165 55.4606 11.7114C55.6657 11.5063 55.781 11.2281 55.781 10.938C55.781 10.6479 55.6657 10.3697 55.4606 10.1646C55.2555 9.95949 54.9773 9.84425 54.6872 9.84425H38.9571L42.5406 2.6773C42.6703 2.41782 42.6917 2.11742 42.5999 1.84219C42.5082 1.56697 42.3109 1.33946 42.0514 1.20972C41.9229 1.14548 41.783 1.10717 41.6398 1.09699C41.4965 1.08681 41.3526 1.10495 41.2163 1.15037C40.9411 1.24212 40.7136 1.43944 40.5838 1.69892L36.2088 10.4488C36.1256 10.6156 36.0864 10.8009 36.0949 10.987C36.1034 11.1732 36.1592 11.3542 36.2572 11.5127C36.3552 11.6713 36.4921 11.8022 36.6548 11.893C36.8176 11.9838 37.0008 12.0316 37.1872 12.0318Z" fill="#151A6A"></path><path d="M19.6875 44.8438H2.1875C1.89742 44.8438 1.61922 44.959 1.4141 45.1641C1.20898 45.3692 1.09375 45.6474 1.09375 45.9375C1.09375 46.2276 1.20898 46.5058 1.4141 46.7109C1.61922 46.916 1.89742 47.0313 2.1875 47.0313H18.5938V54.6873C18.5938 54.9774 18.709 55.2556 18.9141 55.4607C19.1192 55.6659 19.3974 55.7811 19.6875 55.7811C19.9776 55.7811 20.2558 55.6659 20.4609 55.4607C20.666 55.2556 20.7812 54.9774 20.7812 54.6873V45.9375C20.7813 45.7938 20.7531 45.6516 20.6982 45.5188C20.6432 45.3861 20.5627 45.2655 20.4611 45.1639C20.3595 45.0623 20.2389 44.9818 20.1062 44.9268C19.9734 44.8719 19.8312 44.8437 19.6875 44.8438Z" fill="#151A6A"></path><path d="M41.4931 45.553C41.4147 45.3446 41.2747 45.1651 41.0917 45.0384C40.9086 44.9117 40.6913 44.8438 40.4688 44.8438H27.3438C27.2001 44.8437 27.0578 44.8719 26.9251 44.9268C26.7924 44.9818 26.6717 45.0623 26.5702 45.1639C26.4686 45.2655 26.388 45.3861 26.3331 45.5188C26.2782 45.6516 26.2499 45.7938 26.25 45.9375V54.6873C26.25 54.9774 26.3652 55.2556 26.5704 55.4607C26.7755 55.6659 27.0537 55.7811 27.3438 55.7811C27.6338 55.7811 27.912 55.6659 28.1171 55.4607C28.3223 55.2556 28.4375 54.9774 28.4375 54.6873V47.0312H39.7104L42.7257 55.0719C42.8289 55.3418 43.0347 55.56 43.2983 55.6787C43.5618 55.7974 43.8616 55.807 44.1322 55.7054C44.4028 55.6039 44.6222 55.3994 44.7425 55.1366C44.8628 54.8738 44.8742 54.574 44.7743 54.3028L41.4931 45.553Z" fill="#151A6A"></path><path d="M54.6878 44.8438H48.1253C47.9485 44.8438 47.7743 44.8866 47.6177 44.9686C47.4611 45.0506 47.3267 45.1694 47.226 45.3147C47.1253 45.46 47.0614 45.6275 47.0396 45.803C47.0178 45.9784 47.0389 46.1565 47.101 46.322L50.3822 55.0719C50.4854 55.3419 50.6913 55.56 50.9548 55.6787C51.2183 55.7974 51.5181 55.8071 51.7887 55.7055C52.0593 55.6039 52.2787 55.3994 52.399 55.1366C52.5193 54.8738 52.5307 54.5741 52.4308 54.3029L49.7039 47.0312H54.6878C54.9779 47.0312 55.2561 46.916 55.4612 46.7109C55.6663 46.5058 55.7815 46.2276 55.7815 45.9375C55.7815 45.6474 55.6663 45.3692 55.4612 45.1641C55.2561 44.959 54.9779 44.8438 54.6878 44.8438Z" fill="#151A6A"></path><path d="M17.823 21.0556C12.9517 17.9569 5.91537 17.3566 2.97516 21.979C0.384978 26.0495 2.83096 32.2584 8.42789 35.82C13.2026 38.858 20.2927 39.5877 23.2758 34.8966C25.8659 30.8261 23.42 24.6172 17.823 21.0556ZM21.4301 33.7228C19.1518 37.3036 13.2358 36.2875 9.60282 33.9743C5.0238 31.0606 2.87796 26.206 4.82087 23.1529C7.09896 19.5723 12.9913 20.5736 16.6481 22.9013C21.2271 25.8151 23.373 30.6696 21.4301 33.7228Z" fill="#151A6A"></path><path d="M55.5194 34.7662C54.9029 30.8249 50.1183 29.1895 46.0517 29.8284C41.9478 30.4695 37.9292 33.5002 38.5428 37.4215C39.1585 41.356 43.9274 42.9979 48.0106 42.3604C52.1144 41.7183 56.1327 38.6877 55.5194 34.7662ZM40.7047 37.084C40.2848 34.4037 43.7164 32.4078 46.3892 31.9891C49.0696 31.5719 52.9408 32.4277 53.3576 35.1042C53.7762 37.7749 50.3611 39.7791 47.6731 40.1986C44.9833 40.6213 41.12 39.7514 40.7047 37.084Z" fill="#151A6A"></path><path d="M49.1308 34.9223C48.5161 35.4236 47.7789 35.752 46.995 35.8737C46.2112 35.9953 45.4091 35.9058 44.6714 35.6144C44.5485 35.5397 44.4121 35.49 44.27 35.4681C44.1279 35.4462 43.9828 35.4525 43.8431 35.4867C43.7035 35.5209 43.5719 35.5824 43.456 35.6675C43.3401 35.7526 43.2421 35.8598 43.1677 35.9828C43.0932 36.1058 43.0438 36.2423 43.0222 36.3845C43.0006 36.5267 43.0072 36.6717 43.0417 36.8113C43.0762 36.9509 43.1379 37.0823 43.2233 37.1981C43.3087 37.3138 43.416 37.4115 43.5392 37.4857C44.7206 38.0471 46.0438 38.2394 47.3362 38.0376C48.6285 37.8359 49.8301 37.2494 50.7842 36.3546C50.8782 36.246 50.95 36.12 50.9953 35.9837C51.0407 35.8474 51.0587 35.7035 51.0485 35.5603C51.0382 35.417 50.9998 35.2772 50.9355 35.1487C50.8712 35.0203 50.7822 34.9058 50.6736 34.8117C50.5651 34.7177 50.4391 34.6459 50.3028 34.6006C50.1665 34.5553 50.0226 34.5372 49.8793 34.5475C49.736 34.5577 49.5962 34.5961 49.4678 34.6604C49.3393 34.7247 49.2248 34.8137 49.1308 34.9223Z" fill="#151A6A"></path><path d="M17.7411 31.3686C17.3876 31.8113 14.8444 32.1264 11.9509 30.2828C9.05628 28.4414 8.26374 26.0051 8.51155 25.5021C8.66629 25.2573 8.71768 24.9612 8.65447 24.6786C8.59126 24.3961 8.4186 24.1501 8.17434 23.9946C7.93008 23.8391 7.63414 23.7868 7.35137 23.8491C7.06861 23.9115 6.82209 24.0834 6.66585 24.3272C5.13472 26.7302 8.23568 30.5115 10.776 32.1285C13.244 33.6995 18.0462 34.9693 19.5836 32.5477C19.6611 32.4268 19.7139 32.2917 19.7391 32.1503C19.7644 32.0089 19.7615 31.8639 19.7307 31.7236C19.6999 31.5833 19.6418 31.4505 19.5596 31.3326C19.4775 31.2148 19.3729 31.1143 19.252 31.0369C19.131 30.9595 18.9959 30.9066 18.8545 30.8814C18.7131 30.8562 18.5682 30.859 18.4279 30.8898C18.2876 30.9206 18.1547 30.9788 18.0369 31.0609C17.9191 31.143 17.8186 31.2476 17.7411 31.3686Z" fill="#151A6A"></path><path d="M28.1148 20.0736C26.2259 23.8553 26.349 29.007 29.9798 30.8224C33.4723 32.5686 37.7443 29.7699 39.6975 25.8648C41.5864 22.083 41.4633 16.9313 37.8325 15.116C34.6432 13.5202 30.281 15.7419 28.1148 20.0736ZM36.8542 17.0727C39.3487 18.32 38.9973 22.3716 37.7407 24.8864C36.1417 28.0827 33.0324 29.9065 30.9582 28.8656C28.4637 27.6184 28.815 23.5667 30.0716 21.0519C31.4022 18.3919 34.4623 15.8769 36.8542 17.0727Z" fill="#151A6A"></path><path d="M32.8259 26.8698C35.2058 26.0575 37.1532 22.123 36.3784 19.7622C36.2874 19.4872 36.091 19.2595 35.8324 19.1291C35.5737 18.9987 35.2739 18.9762 34.9987 19.0666C34.7235 19.1569 34.4953 19.3528 34.3643 19.6111C34.2333 19.8695 34.2101 20.1692 34.2999 20.4447C34.7002 21.6671 33.3603 24.376 32.1188 24.7998C31.9818 24.8454 31.8551 24.9176 31.7462 25.0124C31.6372 25.1071 31.5481 25.2225 31.484 25.3518C31.4198 25.4812 31.3819 25.622 31.3725 25.766C31.363 25.9101 31.3822 26.0546 31.4288 26.1913C31.4755 26.3279 31.5488 26.454 31.6444 26.5621C31.74 26.6703 31.8561 26.7585 31.986 26.8216C32.1159 26.8846 32.257 26.9214 32.4011 26.9297C32.5453 26.938 32.6897 26.9176 32.8259 26.8698Z" fill="#151A6A"></path></svg>
</g>
</svg>
