<svg xmlns="http://www.w3.org/2000/svg" width="70" height="70" viewBox="0 0 70 70" fill="none"><path d="M41.9961 39.4044C49.1641 40.3625 56.3512 37.0497 62.0547 32.5078C59.8705 29.696 56.8202 27.6828 53.3762 26.7799C49.9321 25.8769 46.2865 26.1347 43.0037 27.5132C43.6349 25.3407 45.4299 22.0365 50.5774 20.749C50.717 20.7145 50.8484 20.6528 50.9642 20.5675C51.0799 20.4821 51.1776 20.3748 51.2518 20.2516C51.326 20.1284 51.3751 19.9918 51.3964 19.8495C51.4177 19.7073 51.4107 19.5623 51.3759 19.4228C51.341 19.2833 51.279 19.152 51.1933 19.0365C51.1077 18.921 51.0001 18.8235 50.8767 18.7497C50.7533 18.6758 50.6166 18.627 50.4743 18.6061C50.332 18.5852 50.187 18.5925 50.0476 18.6278C43.2431 20.3286 41.2796 25.1592 40.7089 27.7819C38.5789 26.7852 36.2579 26.2628 33.9062 26.2508C31.6568 26.2599 29.4332 26.7297 27.3722 27.631C25.3113 28.5323 23.4568 29.8461 21.923 31.4915C20.3891 33.1368 19.2085 35.0789 18.4539 37.1979C17.6992 39.3169 17.3865 41.5681 17.535 43.8126C25.0043 39.7562 33.5806 38.2107 41.9961 39.4044ZM24.3199 35.4364C25.4305 33.941 26.8762 32.7268 28.5411 31.8913C30.2059 31.0559 32.0435 30.6224 33.9062 30.6257C34.1963 30.6257 34.4745 30.7409 34.6796 30.9461C34.8847 31.1512 35 31.4294 35 31.7194C35 32.0095 34.8847 32.2877 34.6796 32.4928C34.4745 32.698 34.1963 32.8132 33.9062 32.8132C32.3826 32.8112 30.8797 33.1665 29.5183 33.8506C28.1569 34.5347 26.975 35.5286 26.0673 36.7523C25.8926 36.9836 25.6333 37.1361 25.3463 37.1763C25.0593 37.2165 24.7681 37.1411 24.5366 36.9668C24.3051 36.7925 24.1523 36.5334 24.1116 36.2465C24.071 35.9595 24.1459 35.6682 24.3199 35.4364Z" fill="#B5E7F3"></path><path d="M25.3516 63.8668C27.8169 66.8801 30.7321 68.9062 33.9063 68.9062C36.5773 68.9031 39.2066 68.2433 41.5625 66.9847C43.9185 68.2433 46.5478 68.9031 49.2188 68.9062C54.5 68.9062 59.0651 63.3029 62.0299 56.8618C41.4786 67.9636 41.741 55.4044 25.3516 63.8668Z" fill="#B5E7F3"></path><path d="M65.264 32.6636C61.2696 36.3016 56.5453 39.0461 51.4062 40.7139V47.0316C51.4062 47.3217 51.291 47.5999 51.0859 47.805C50.8808 48.0101 50.6026 48.1253 50.3125 48.1253C50.0224 48.1253 49.7442 48.0101 49.5391 47.805C49.334 47.5999 49.2188 47.3217 49.2188 47.0316V41.2627C46.7501 41.7884 44.2103 41.8931 41.7067 41.5725C39.1218 41.2259 36.5088 41.1364 33.9062 41.3055V47.0316C33.9062 47.3217 33.791 47.5999 33.5859 47.805C33.3808 48.0101 33.1026 48.1253 32.8125 48.1253C32.5224 48.1253 32.2442 48.0101 32.0391 47.805C31.834 47.5999 31.7188 47.3217 31.7188 47.0316V41.5093C25.9015 42.1765 20.3428 44.285 15.5464 47.6436C15.1347 47.9491 14.8002 48.3467 14.5696 48.8046C14.3391 49.2626 14.2189 49.7681 14.2188 50.2808V64.4011C14.2189 64.8101 14.3337 65.211 14.5502 65.558C14.7667 65.9051 15.0762 66.1845 15.4435 66.3645C15.8109 66.5445 16.2213 66.6178 16.6283 66.5763C17.0352 66.5347 17.4223 66.3798 17.7457 66.1292C19.4031 64.8518 21.1485 63.6926 22.9688 62.6603V55.7815C22.9688 55.4914 23.084 55.2132 23.2891 55.0081C23.4942 54.8029 23.7724 54.6877 24.0625 54.6877C24.3526 54.6877 24.6308 54.8029 24.8359 55.0081C25.041 55.2132 25.1562 55.4914 25.1562 55.7815V61.5171C29.5206 59.3908 34.9837 57.7811 40.4688 58.8692V53.594C40.4688 53.3039 40.584 53.0257 40.7891 52.8206C40.9942 52.6155 41.2724 52.5003 41.5625 52.5003C41.8526 52.5003 42.1308 52.6155 42.3359 52.8206C42.541 53.0257 42.6562 53.3039 42.6562 53.594V59.3004C47.8341 60.1333 53.3573 58.5326 57.9688 56.4326V50.3128C57.9688 50.0227 58.084 49.7445 58.2891 49.5394C58.4942 49.3343 58.7724 49.219 59.0625 49.219C59.3526 49.219 59.6308 49.3343 59.8359 49.5394C60.041 49.7445 60.1562 50.0227 60.1562 50.3128V55.3679C62.7408 54.0283 65.2192 52.4933 67.57 50.7763C67.9838 50.471 68.3202 50.0728 68.5523 49.6139C68.7843 49.155 68.9056 48.6481 68.9062 48.1339V34.2956C68.9074 33.8732 68.7861 33.4596 68.557 33.1047C68.3278 32.7499 68.0007 32.4691 67.6153 32.2964C67.2298 32.1237 66.8026 32.0665 66.3852 32.1316C65.9679 32.1968 65.5784 32.3815 65.264 32.6636Z" fill="#B5E7F3"></path><path d="M39.4539 26.1426C38.4211 15.7264 46.7833 2.91859 46.8677 2.79042C47.0276 2.5485 47.0849 2.25295 47.0269 1.96881C46.9689 1.68467 46.8004 1.4352 46.5585 1.27529C46.3166 1.11537 46.021 1.05811 45.7369 1.11611C45.4527 1.1741 45.2033 1.34259 45.0434 1.58452C44.6802 2.1346 36.1673 15.1624 37.2771 26.3584C37.762 31.2493 39.8534 33.8747 42.0676 36.6539C43.4517 38.2818 44.6528 40.0568 45.6494 41.947C33.739 45.7742 20.929 45.7742 9.01869 41.9469C10.0152 40.0567 11.2163 38.2818 12.6004 36.6539C14.8146 33.8747 16.906 31.2493 17.3909 26.3584C18.5007 15.1624 9.98784 2.1346 9.62467 1.58452C9.54565 1.46423 9.44365 1.36071 9.32454 1.27991C9.20543 1.19911 9.07154 1.14262 8.93056 1.11367C8.78957 1.08471 8.64425 1.08387 8.50294 1.11119C8.36162 1.13851 8.22709 1.19345 8.10705 1.27287C7.98701 1.35228 7.88383 1.45461 7.80342 1.57398C7.723 1.69335 7.66694 1.82742 7.63844 1.9685C7.60994 2.10958 7.60957 2.2549 7.63735 2.39612C7.66512 2.53735 7.7205 2.6717 7.8003 2.79149C7.88467 2.91859 16.248 15.7125 15.2141 26.1426C14.7932 30.3916 12.9839 32.6624 10.8893 35.291C7.83127 39.1298 4.36523 43.4803 4.36523 54.688C4.36523 54.9781 4.48047 55.2563 4.68559 55.4614C4.8907 55.6665 5.1689 55.7817 5.45898 55.7817C5.74906 55.7817 6.02726 55.6665 6.23238 55.4614C6.4375 55.2563 6.55273 54.9781 6.55273 54.688C6.537 52.5625 6.69543 50.4393 7.02645 48.3397C13.6098 50.3472 20.4514 51.3805 27.334 51.4067C34.2191 51.4137 41.0657 50.3785 47.641 48.3364C47.9724 50.4371 48.131 52.5614 48.1152 54.688C48.1152 54.9781 48.2305 55.2563 48.4356 55.4614C48.6407 55.6665 48.9189 55.7817 49.209 55.7817C49.4991 55.7817 49.7773 55.6665 49.9824 55.4614C50.1875 55.2563 50.3027 54.9781 50.3027 54.688C50.3027 43.4803 46.8367 39.1298 43.7787 35.291C41.6842 32.6624 39.8747 30.3916 39.4539 26.1426ZM27.334 49.2192C20.5996 49.1974 13.9059 48.1741 7.47256 46.183C7.65944 45.4328 7.88557 44.6929 8.15001 43.9663C14.3425 45.9954 20.8176 47.03 27.334 47.0317C33.8505 47.0302 40.3256 45.9956 46.518 43.9664C46.7822 44.6922 47.0082 45.4313 47.1949 46.1808C40.7691 48.2039 34.0708 49.2286 27.334 49.2192Z" fill="#151A6A"></path><path d="M7.96707 28.7584C7.86552 28.8599 7.78496 28.9805 7.73 29.1132C7.67504 29.2459 7.64675 29.3881 7.64675 29.5317C7.64675 29.6753 7.67503 29.8175 7.72999 29.9502C7.78495 30.0829 7.86551 30.2035 7.96706 30.305C8.17216 30.5101 8.45033 30.6253 8.74038 30.6253C8.884 30.6253 9.02621 30.5971 9.1589 30.5421C9.29158 30.4871 9.41214 30.4066 9.5137 30.305L12.7949 27.0238C12.8965 26.9222 12.9771 26.8017 13.0321 26.669C13.0871 26.5363 13.1154 26.3941 13.1154 26.2505C13.1154 26.1068 13.0871 25.9646 13.0321 25.8319C12.9771 25.6992 12.8965 25.5787 12.7949 25.4771L9.5137 22.1959C9.41214 22.0943 9.29158 22.0138 9.1589 21.9588C9.02621 21.9039 8.884 21.8756 8.74038 21.8756C8.59676 21.8756 8.45455 21.9039 8.32186 21.9588C8.18918 22.0138 8.06862 22.0943 7.96706 22.1959C7.86551 22.2974 7.78495 22.418 7.72999 22.5507C7.67503 22.6834 7.64675 22.8256 7.64675 22.9692C7.64675 23.1128 7.67504 23.255 7.73 23.3877C7.78496 23.5204 7.86552 23.641 7.96707 23.7425L9.36663 25.1421C6.38726 25.0679 4.47429 24.2998 3.70528 22.8378C2.1672 19.9155 5.11622 14.4937 6.38198 12.6512C6.54331 12.4122 6.60372 12.1191 6.55007 11.8358C6.49642 11.5525 6.33305 11.3018 6.0955 11.1383C5.85795 10.9748 5.56546 10.9118 5.28165 10.9629C4.99785 11.0139 4.7457 11.175 4.58008 11.4111C4.36325 11.7251 -0.695344 19.1635 1.7688 23.8536C2.94065 26.0851 5.51568 27.2449 9.39741 27.328L7.96707 28.7584Z" fill="#151A6A"></path><path d="M50.088 11.411C49.9223 11.1753 49.6702 11.0144 49.3865 10.9635C49.1029 10.9126 48.8106 10.9757 48.5732 11.139C48.3358 11.3024 48.1724 11.5529 48.1187 11.8361C48.0649 12.1192 48.1251 12.4121 48.2861 12.6511C49.5519 14.4936 52.5009 19.9154 50.9628 22.8377C50.1938 24.2997 48.2809 25.0678 45.3015 25.142L46.701 23.7424C46.9061 23.5373 47.0214 23.2592 47.0214 22.9691C47.0214 22.6791 46.9061 22.4009 46.7011 22.1958C46.496 21.9907 46.2178 21.8755 45.9277 21.8755C45.6377 21.8755 45.3595 21.9907 45.1544 22.1958L41.8732 25.477C41.7716 25.5786 41.691 25.6991 41.636 25.8318C41.581 25.9645 41.5527 26.1067 41.5527 26.2504C41.5527 26.394 41.581 26.5362 41.636 26.6689C41.691 26.8016 41.7716 26.9222 41.8732 27.0237L45.1544 30.3049C45.3595 30.51 45.6377 30.6253 45.9277 30.6253C46.2178 30.6253 46.496 30.51 46.7011 30.3049C46.9061 30.0998 47.0214 29.8217 47.0214 29.5316C47.0214 29.2416 46.9061 28.9634 46.701 28.7583L45.2707 27.328C49.1524 27.2449 51.7275 26.085 52.8993 23.8535C55.3635 19.1635 50.3049 11.7251 50.088 11.411Z" fill="#151A6A"></path></svg>