<svg xmlns="http://www.w3.org/2000/svg" id="Capa_1" x="0px" y="0px" viewBox="0 0 140 140">
<style type="text/css">
.st0{fill:none;stroke:#5FBCD3;stroke-width:2;}
.st1{fill:#B5E7F3;}
.st2{fill:#151A6A;}
</style>
<circle class="st0" cx="70" cy="70" r="69"/>
<g transform="translate(35,35) scale(1)">
<svg xmlns="http://www.w3.org/2000/svg" width="70" height="70" viewBox="0 0 70 70" fill="none"><path d="M53.457 32.2656C50.8122 32.2758 48.2292 33.0665 46.0318 34.5385C46.6861 28.0241 51.0488 22.9688 56.3281 22.9688C56.6182 22.9688 56.8964 22.8535 57.1015 22.6484C57.3066 22.4433 57.4219 22.1651 57.4219 21.875C57.4219 21.5849 57.3066 21.3067 57.1015 21.1016C56.8964 20.8965 56.6182 20.7812 56.3281 20.7812C51.9382 20.7812 48.0717 23.5623 45.8209 27.7606C45.5043 25.8149 44.5068 24.045 43.0063 22.7667C41.5058 21.4883 39.5999 20.7847 37.6286 20.7812H36.2305C35.9404 20.7812 35.6622 20.8965 35.4571 21.1016C35.252 21.3067 35.1367 21.5849 35.1367 21.875V23.2732C35.1392 25.4761 36.0153 27.588 37.573 29.1457C39.1307 30.7034 41.2427 31.5796 43.4456 31.582H44.3341C44.0761 32.5847 43.9031 33.6072 43.8169 34.6389C41.5846 33.1022 38.9405 32.275 36.2305 32.2656C27.7117 32.2656 20.7812 40.4842 20.7812 50.5859C20.7812 62.4853 30.2202 68.9062 39.1016 68.9062C41.1236 68.9344 43.113 68.3949 44.8438 67.3489C46.5745 68.3949 48.5639 68.9344 50.5859 68.9062C59.4673 68.9062 68.9062 62.4853 68.9062 50.5859C68.9062 40.4842 61.9758 32.2656 53.457 32.2656ZM59.9405 39.2148C59.7675 39.4476 59.5092 39.6023 59.2222 39.6446C58.9353 39.687 58.6433 39.6136 58.4104 39.4407C56.987 38.3517 55.2491 37.7531 53.457 37.7344C53.167 37.7344 52.8888 37.6191 52.6836 37.414C52.4785 37.2089 52.3633 36.9307 52.3633 36.6406C52.3633 36.3505 52.4785 36.0723 52.6836 35.8672C52.8888 35.6621 53.167 35.5469 53.457 35.5469C55.7191 35.5643 57.9147 36.3144 59.7146 37.6847C59.8299 37.7703 59.9273 37.8778 60.001 38.001C60.0748 38.1243 60.1236 38.2608 60.1446 38.4029C60.1656 38.545 60.1583 38.6899 60.1233 38.8292C60.0883 38.9685 60.0262 39.0995 59.9405 39.2148ZM63.5545 44.7482C63.4234 44.8069 63.282 44.8393 63.1384 44.8435C62.9948 44.8476 62.8518 44.8234 62.7176 44.7723C62.5833 44.7212 62.4604 44.6441 62.356 44.5455C62.2515 44.4469 62.1675 44.3286 62.1088 44.1975C61.8246 43.5611 61.4914 42.9478 61.1122 42.363C61.0334 42.2426 60.9792 42.1079 60.9525 41.9664C60.9259 41.825 60.9275 41.6797 60.9571 41.5389C60.9867 41.3981 61.0438 41.2645 61.1252 41.1458C61.2065 41.0271 61.3104 40.9256 61.4311 40.8471C61.5517 40.7686 61.6866 40.7147 61.8281 40.6885C61.9696 40.6622 62.1149 40.6642 62.2556 40.6942C62.3964 40.7242 62.5298 40.7816 62.6483 40.8633C62.7668 40.9449 62.868 41.0491 62.9462 41.17C63.3869 41.8499 63.7743 42.5628 64.1051 43.3025C64.2237 43.5672 64.2323 43.8682 64.129 44.1393C64.0258 44.4104 63.8191 44.6294 63.5545 44.7482Z" fill="#B5E7F3"></path><path d="M4.375 55.7812H39.375C40.2449 55.7803 41.079 55.4343 41.6941 54.8191C42.3093 54.204 42.6553 53.3699 42.6562 52.5V7.65625C42.6553 6.7863 42.3093 5.95225 41.6941 5.3371C41.079 4.72196 40.2449 4.37595 39.375 4.375H29.5312C29.5303 3.50505 29.1843 2.671 28.5691 2.05585C27.954 1.44071 27.1199 1.0947 26.25 1.09375H17.5C16.63 1.0947 15.796 1.44071 15.1809 2.05585C14.5657 2.671 14.2197 3.50505 14.2188 4.375H4.375C3.50505 4.37595 2.671 4.72196 2.05585 5.3371C1.44071 5.95225 1.0947 6.7863 1.09375 7.65625V52.5C1.0947 53.3699 1.44071 54.204 2.05585 54.8191C2.671 55.4343 3.50505 55.7803 4.375 55.7812ZM16.4062 4.375C16.4066 4.08504 16.522 3.80705 16.727 3.60202C16.9321 3.39698 17.21 3.28163 17.5 3.28125H26.25C26.54 3.28163 26.8179 3.39698 27.023 3.60202C27.228 3.80705 27.3434 4.08504 27.3438 4.375V6.5625C27.3434 6.85247 27.228 7.13045 27.023 7.33548C26.8179 7.54052 26.54 7.65587 26.25 7.65625H17.5C17.21 7.65587 16.9321 7.54052 16.727 7.33548C16.522 7.13045 16.4066 6.85247 16.4062 6.5625V4.375ZM17.5 9.84375H26.25C27.1199 9.8428 27.954 9.49679 28.5691 8.88165C29.1843 8.2665 29.5303 7.43245 29.5312 6.5625H35V48.125H8.75V6.5625H14.2188C14.2197 7.43245 14.5657 8.2665 15.1809 8.88165C15.796 9.49679 16.63 9.8428 17.5 9.84375ZM3.28125 7.65625C3.28163 7.36628 3.39698 7.0883 3.60202 6.88327C3.80705 6.67823 4.08504 6.56288 4.375 6.5625H6.5625V49.2188C6.5625 49.5088 6.67773 49.787 6.88285 49.9921C7.08797 50.1973 7.36617 50.3125 7.65625 50.3125H36.0938C36.3838 50.3125 36.662 50.1973 36.8671 49.9921C37.0723 49.787 37.1875 49.5088 37.1875 49.2188V6.5625H39.375C39.665 6.56288 39.9429 6.67823 40.148 6.88327C40.353 7.0883 40.4684 7.36628 40.4688 7.65625V52.5C40.4684 52.79 40.353 53.0679 40.148 53.273C39.9429 53.478 39.665 53.5934 39.375 53.5938H4.375C4.08504 53.5934 3.80705 53.478 3.60202 53.273C3.39698 53.0679 3.28163 52.79 3.28125 52.5V7.65625Z" fill="#151A6A"></path><path d="M13.125 19.6875H20.7812C21.0713 19.6875 21.3495 19.5723 21.5546 19.3671C21.7598 19.162 21.875 18.8838 21.875 18.5938C21.875 18.3037 21.7598 18.0255 21.5546 17.8204C21.3495 17.6152 21.0713 17.5 20.7812 17.5H13.125C12.8349 17.5 12.5567 17.6152 12.3516 17.8204C12.1465 18.0255 12.0312 18.3037 12.0312 18.5938C12.0312 18.8838 12.1465 19.162 12.3516 19.3671C12.5567 19.5723 12.8349 19.6875 13.125 19.6875Z" fill="#151A6A"></path><path d="M26.4338 21.3879C26.5362 21.5413 26.6756 21.6664 26.8393 21.7514C27.0029 21.8365 27.1854 21.8788 27.3698 21.8745C27.5541 21.8701 27.7344 21.8192 27.8938 21.7265C28.0533 21.6338 28.1867 21.5023 28.2816 21.3442L31.5629 15.8754C31.6368 15.7523 31.6858 15.6158 31.7069 15.4737C31.7281 15.3316 31.7211 15.1868 31.6862 15.0474C31.6514 14.9081 31.5895 14.7769 31.504 14.6615C31.4185 14.5461 31.3111 14.4486 31.188 14.3747C31.0648 14.3008 30.9283 14.2519 30.7863 14.2307C30.6442 14.2095 30.4993 14.2165 30.36 14.2514C30.2206 14.2862 30.0895 14.3481 29.9741 14.4336C29.8587 14.5191 29.7612 14.6265 29.6873 14.7496L27.2953 18.7363L26.0663 16.8933C25.9873 16.7723 25.8851 16.6681 25.7656 16.5868C25.6461 16.5055 25.5117 16.4487 25.3701 16.4196C25.2285 16.3906 25.0826 16.3899 24.9407 16.4176C24.7989 16.4453 24.6639 16.5009 24.5437 16.5811C24.4234 16.6612 24.3202 16.7644 24.2401 16.8847C24.16 17.005 24.1045 17.14 24.0768 17.2819C24.0492 17.4237 24.0499 17.5696 24.079 17.7112C24.1081 17.8528 24.165 17.9872 24.2463 18.1067L26.4338 21.3879Z" fill="#151A6A"></path><path d="M13.125 29.5312H20.7812C21.0713 29.5312 21.3495 29.416 21.5546 29.2109C21.7598 29.0058 21.875 28.7276 21.875 28.4375C21.875 28.1474 21.7598 27.8692 21.5546 27.6641C21.3495 27.459 21.0713 27.3438 20.7812 27.3438H13.125C12.8349 27.3438 12.5567 27.459 12.3516 27.6641C12.1465 27.8692 12.0312 28.1474 12.0312 28.4375C12.0312 28.7276 12.1465 29.0058 12.3516 29.2109C12.5567 29.416 12.8349 29.5312 13.125 29.5312Z" fill="#151A6A"></path><path d="M25.1562 32.2656H30.625C30.9151 32.2656 31.1933 32.1504 31.3984 31.9453C31.6035 31.7402 31.7188 31.462 31.7188 31.1719V25.7031C31.7188 25.413 31.6035 25.1348 31.3984 24.9297C31.1933 24.7246 30.9151 24.6094 30.625 24.6094H25.1562C24.8662 24.6094 24.588 24.7246 24.3829 24.9297C24.1777 25.1348 24.0625 25.413 24.0625 25.7031V31.1719C24.0625 31.462 24.1777 31.7402 24.3829 31.9453C24.588 32.1504 24.8662 32.2656 25.1562 32.2656ZM26.25 26.7969H29.5312V30.0781H26.25V26.7969Z" fill="#151A6A"></path><path d="M20.7812 37.1875H13.125C12.8349 37.1875 12.5567 37.3027 12.3516 37.5079C12.1465 37.713 12.0312 37.9912 12.0312 38.2812C12.0312 38.5713 12.1465 38.8495 12.3516 39.0546C12.5567 39.2598 12.8349 39.375 13.125 39.375H20.7812C21.0713 39.375 21.3495 39.2598 21.5546 39.0546C21.7598 38.8495 21.875 38.5713 21.875 38.2812C21.875 37.9912 21.7598 37.713 21.5546 37.5079C21.3495 37.3027 21.0713 37.1875 20.7812 37.1875Z" fill="#151A6A"></path><path d="M25.1562 42.1094H30.625C30.9151 42.1094 31.1933 41.9941 31.3984 41.789C31.6035 41.5839 31.7188 41.3057 31.7188 41.0156V35.5469C31.7188 35.2568 31.6035 34.9786 31.3984 34.7735C31.1933 34.5684 30.9151 34.4531 30.625 34.4531H25.1562C24.8662 34.4531 24.588 34.5684 24.3829 34.7735C24.1777 34.9786 24.0625 35.2568 24.0625 35.5469V41.0156C24.0625 41.3057 24.1777 41.5839 24.3829 41.789C24.588 41.9941 24.8662 42.1094 25.1562 42.1094ZM26.25 36.6406H29.5312V39.9219H26.25V36.6406Z" fill="#151A6A"></path></svg>
</g>
</svg>
