<svg xmlns="http://www.w3.org/2000/svg" xmlns:xlink="http://www.w3.org/1999/xlink" id="Capa_1" x="0px" y="0px" viewBox="0 0 140 140" style="enable-background:new 0 0 140 140;" xml:space="preserve"><style type="text/css">	.st0{fill:none;stroke:#5FBCD3;stroke-width:2;}	.st1{fill:#B5E7F3;}	.st2{fill:#151A6A;}</style><circle class="st0" cx="70" cy="70" r="69"></circle><g>	<g>		<path class="st1" d="M68.1,93.8l-5.9-5.9c-0.4-0.4-1.1-0.4-1.5,0c-0.4,0.4-0.4,1.1,0,1.5l2.2,2.2l-8.2,8.2c-0.4,0.4-0.4,1.1,0,1.5   c0.4,0.4,1.1,0.4,1.5,0l8.2-8.2l2.2,2.2c0.4,0.4,1.1,0.4,1.5,0C68.5,94.9,68.5,94.2,68.1,93.8L68.1,93.8z"></path>		<path class="st1" d="M96.3,68.5l-8.9-8.9c-1.2-1.2-3.2-1.2-4.5,0l-3.7,3.7L83,67c0.4,0.4,0.4,1.1,0,1.5c-0.4,0.4-1.1,0.4-1.5,0   l-3.7-3.7l-4.5,4.5L77,73c0.4,0.4,0.4,1.1,0,1.5c-0.4,0.4-1.1,0.4-1.5,0l-3.7-3.7l-4.5,4.5l3.7,3.7c0.4,0.4,0.4,1.1,0,1.5   c-0.4,0.4-1.1,0.4-1.5,0l-3.7-3.7l-2.2,2.2c-2,2.1-2,5.4,0,7.4l5.9,5.9c2.1,2,5.4,2,7.4,0L96.3,73C97.6,71.7,97.6,69.7,96.3,68.5   L96.3,68.5z"></path>		<path class="st1" d="M91.9,55.1l2.2,2.2l-3,3l4.5,4.5l3-3l2.2,2.2c0.4,0.4,1.1,0.4,1.5,0s0.4-1.1,0-1.5l-8.9-8.9   c-0.4-0.4-1.1-0.4-1.5,0S91.5,54.7,91.9,55.1L91.9,55.1z"></path>	</g>	<path class="st2" d="M89.7,55.7L77.4,40.5c-1.6-2-4.4-2.6-6.7-1.4l-7,3.5l-7-3.5c-2.3-1.2-5.1-0.5-6.7,1.4L37.6,55.7  c-0.3,0.4-0.3,1,0.1,1.4c2.5,2.5,4.4,6,6.2,9.3C48,74,52.2,81.8,63.7,77.4c10.5,4,14.8-1.8,19.8-11.1c1.8-3.3,3.7-6.8,6.2-9.3  C90.1,56.7,90.1,56.1,89.7,55.7L89.7,55.7z M51.6,41.8c1-1.2,2.7-1.6,4.1-0.9l7.5,3.7c0.3,0.1,0.6,0.1,0.9,0l7.5-3.7  c1.4-0.7,3.1-0.3,4.1,0.9l11.5,14.1c-3.8,1.5-15.5,5.3-22.9-0.4c-0.4-0.3-0.9-0.3-1.3,0c-7.4,5.7-19.1,1.9-22.9,0.4L51.6,41.8z   M70,60.2c-1.6,1.5-4.1,3.5-6.3,3.5c-2.4,0-4.9-2-6.4-3.4c2.3-0.4,4.4-1.3,6.4-2.6C65.6,58.9,67.7,59.8,70,60.2L70,60.2z   M81.6,65.4c-4.1,7.5-7.6,14-17.6,10c-0.3-0.1-0.5-0.1-0.8,0c-10,4-13.5-2.5-17.6-10c-1.2-2.3-2.5-4.5-3.9-6.6  c4.2,1.4,8.6,2.1,12.9,1.9c1.1,1.2,4.9,5.2,8.9,5.2c3.9,0,7.7-3.9,8.9-5.2c4.4,0.2,8.9-0.4,13-1.9C84.1,60.9,82.8,63.1,81.6,65.4  L81.6,65.4z"></path></g></svg>