<svg xmlns="http://www.w3.org/2000/svg" width="70" height="70" viewBox="0 0 70 70" fill="none"><path d="M56.3249 28.1501C50.759 28.1501 44.8438 32.084 44.8438 39.3749C44.8926 41.7115 45.6614 43.9761 47.0451 45.8595C48.4558 47.7863 49.2171 50.1119 49.2188 52.4999C49.1768 54.2221 49.0378 55.9406 48.8022 57.6471C48.1577 63.1339 47.649 68.9062 53.5938 68.9062C64.1713 68.9062 68.9062 56.2714 68.9062 43.7499C68.9062 38.8088 67.5519 34.7254 64.9905 31.9409C63.8917 30.7379 62.5527 29.7789 61.06 29.1259C59.5673 28.4729 57.9542 28.1405 56.3249 28.1501Z" fill="#B5E7F3"></path><path d="M50.5093 27.6824C51.366 27.3388 52.0524 26.6708 52.419 25.8236C52.7857 24.9765 52.803 24.0188 52.4671 23.159C52.3718 22.7034 52.1814 22.2732 51.9082 21.8964C51.635 21.5196 51.2853 21.2048 50.882 20.9726C50.4786 20.7404 50.0308 20.5961 49.5677 20.5491C49.1047 20.5021 48.637 20.5535 48.1952 20.6999C47.7535 20.8464 47.3476 21.0845 47.0044 21.3987C46.6611 21.713 46.3881 22.0962 46.2032 22.5233C46.0184 22.9505 45.926 23.4118 45.9319 23.8772C45.9379 24.3425 46.0421 24.8014 46.2378 25.2236C46.4792 26.1155 47.0645 26.8751 47.8652 27.3361C48.666 27.797 49.6168 27.9216 50.5093 27.6824Z" fill="#B5E7F3"></path><path d="M57.9688 26.25C59.7809 26.25 61.25 24.5361 61.25 22.4219C61.25 20.3077 59.7809 18.5938 57.9688 18.5938C56.1566 18.5938 54.6875 20.3077 54.6875 22.4219C54.6875 24.5361 56.1566 26.25 57.9688 26.25Z" fill="#B5E7F3"></path><path d="M65.625 29.5312C67.4372 29.5312 68.9062 27.8173 68.9062 25.7031C68.9062 23.5889 67.4372 21.875 65.625 21.875C63.8128 21.875 62.3438 23.5889 62.3438 25.7031C62.3438 27.8173 63.8128 29.5312 65.625 29.5312Z" fill="#B5E7F3"></path><path d="M31.1751 28.1501C29.5458 28.1405 27.9327 28.4729 26.44 29.1259C24.9473 29.7789 23.6083 30.7379 22.5095 31.9409C19.9481 34.7254 18.5938 38.8088 18.5938 43.7499C18.5938 56.2714 23.3287 68.9062 33.9062 68.9062C39.8461 68.9062 39.3401 63.1152 38.6978 57.6471C38.4622 55.9406 38.3232 54.2221 38.2812 52.4999C38.2829 50.1119 39.0442 47.7863 40.4549 45.8595C41.8386 43.9761 42.6074 41.7115 42.6562 39.3749C42.6562 32.084 36.741 28.1501 31.1751 28.1501Z" fill="#B5E7F3"></path><path d="M36.9908 27.6823C37.8833 27.9214 38.8341 27.7968 39.6348 27.3359C40.4355 26.875 41.0208 26.1153 41.2622 25.2236C41.5986 24.3639 41.5816 23.4062 41.2151 22.559C40.8486 21.7117 40.1622 21.0436 39.3054 20.7001C38.413 20.4635 37.4632 20.5892 36.6629 21.0497C35.8627 21.5103 35.2768 22.2683 35.033 23.1588C34.6971 24.0187 34.7143 24.9763 35.081 25.8235C35.4477 26.6706 36.1341 27.3387 36.9908 27.6823Z" fill="#B5E7F3"></path><path d="M29.5312 26.25C31.3434 26.25 32.8125 24.5361 32.8125 22.4219C32.8125 20.3077 31.3434 18.5938 29.5312 18.5938C27.7191 18.5938 26.25 20.3077 26.25 22.4219C26.25 24.5361 27.7191 26.25 29.5312 26.25Z" fill="#B5E7F3"></path><path d="M21.875 29.5312C23.6872 29.5312 25.1562 27.8173 25.1562 25.7031C25.1562 23.5889 23.6872 21.875 21.875 21.875C20.0628 21.875 18.5938 23.5889 18.5938 25.7031C18.5938 27.8173 20.0628 29.5312 21.875 29.5312Z" fill="#B5E7F3"></path><path d="M51.9297 23.8557C50.0092 21.2954 47.8313 18.3923 51.3806 2.42395C51.4122 2.28351 51.4158 2.13822 51.3911 1.99639C51.3665 1.85457 51.3141 1.719 51.237 1.59746C51.1598 1.47592 51.0595 1.3708 50.9416 1.28811C50.8238 1.20542 50.6908 1.1468 50.5503 1.1156C50.4098 1.08441 50.2645 1.08125 50.1227 1.1063C49.981 1.13136 49.8455 1.18415 49.7242 1.26163C49.6029 1.33911 49.4981 1.43978 49.4157 1.55785C49.3334 1.67592 49.2752 1.80908 49.2444 1.9497C45.4782 18.8996 47.8676 22.0869 50.179 25.1684C52.1083 27.7443 52.9988 30.4775 51.7715 33.4538C50.8198 35.7641 48.6985 37.4474 45.6373 38.3222C35.8524 41.1186 28.5753 44.4629 24.5934 47.9941C23.3932 49.032 21.9811 49.7957 20.4555 50.232C18.9299 50.6683 17.3275 50.7667 15.7601 50.5202C14.7545 50.3777 13.7359 50.3519 12.7245 50.4433L6.64262 50.9955C6.21431 51.0343 5.78262 50.983 5.37529 50.845C4.96796 50.7071 4.594 50.4854 4.27744 50.1943C3.96088 49.9031 3.70872 49.549 3.53716 49.1547C3.3656 48.7603 3.27844 48.3344 3.28127 47.9043C3.26705 47.5078 3.33284 47.1124 3.47472 46.7418C3.6166 46.3712 3.83166 46.033 4.10708 45.7473C4.3825 45.4616 4.71263 45.2343 5.07778 45.079C5.44294 44.9236 5.83564 44.8434 6.23247 44.8431H6.23356C8.50922 44.8508 10.7415 44.2207 12.6773 43.0244C14.6131 41.828 16.1751 40.1132 17.186 38.0744L34.8847 2.67607C35.0136 2.41668 35.0344 2.11674 34.9424 1.84205C34.8505 1.56736 34.6534 1.34034 34.3943 1.2108C34.1352 1.08125 33.8353 1.05976 33.5604 1.15103C33.2855 1.24231 33.058 1.43889 32.9279 1.69767L15.2292 37.0961C14.3989 38.7706 13.116 40.1791 11.5261 41.1617C9.93611 42.1444 8.10264 42.6619 6.23354 42.6556H6.23135C5.55652 42.6539 4.88802 42.7859 4.26451 43.044C3.64099 43.3021 3.07481 43.6813 2.59869 44.1595C1.63194 45.1664 1.09259 46.5085 1.09377 47.9043C1.09192 48.5981 1.22688 49.2855 1.49094 49.927C1.755 50.5686 2.14297 51.1518 2.63266 51.6433C3.12235 52.1348 3.70414 52.5249 4.34475 52.7912C4.98535 53.0576 5.6722 53.1951 6.36598 53.1958C6.79001 53.1958 6.52798 53.1954 12.9231 52.6222C13.7652 52.5453 14.6133 52.5668 15.4503 52.6863C17.3321 52.979 19.2551 52.8573 21.0849 52.3294C22.9147 51.8016 24.6071 50.8804 26.0439 49.6304C28.6511 47.319 34.2705 43.8444 46.2377 40.4264C50.947 39.0806 52.9465 36.3452 53.7946 34.288C55.3182 30.5893 54.3213 27.0426 51.9297 23.8557Z" fill="#151A6A"></path><path d="M38.2812 22.9683C37.9912 22.9683 37.713 23.0835 37.5079 23.2886C37.3027 23.4937 37.1875 23.7719 37.1875 24.062C37.1875 24.3521 37.3027 24.6303 37.5079 24.8354C37.713 25.0405 37.9912 25.1558 38.2812 25.1558C39.7317 25.1558 41.1227 24.5796 42.1482 23.554C43.1738 22.5284 43.75 21.1374 43.75 19.687C43.75 18.2366 43.1738 16.8456 42.1482 15.82C41.1227 14.7944 39.7317 14.2183 38.2812 14.2183C37.9912 14.2183 37.713 14.3335 37.5079 14.5386C37.3027 14.7437 37.1875 15.0219 37.1875 15.312C37.1875 15.6021 37.3027 15.8803 37.5079 16.0854C37.713 16.2905 37.9912 16.4058 38.2812 16.4058C39.1515 16.4058 39.9861 16.7515 40.6014 17.3668C41.2168 17.9822 41.5625 18.8168 41.5625 19.687C41.5625 20.5573 41.2168 21.3919 40.6014 22.0072C39.9861 22.6226 39.1515 22.9683 38.2812 22.9683Z" fill="#151A6A"></path></svg>