<svg xmlns="http://www.w3.org/2000/svg" id="Capa_1" x="0px" y="0px" viewBox="0 0 140 140">
<style type="text/css">
.st0{fill:none;stroke:#5FBCD3;stroke-width:2;}
.st1{fill:#B5E7F3;}
.st2{fill:#151A6A;}
</style>
<circle class="st0" cx="70" cy="70" r="69"/>
<g transform="translate(35,35) scale(1)">
<svg xmlns="http://www.w3.org/2000/svg" width="70" height="70" viewBox="0 0 70 70" fill="none"><path d="M53.1999 31.7188C52.8467 31.6325 52.5175 31.4677 52.2369 31.2366C51.9562 31.0055 51.7313 30.714 51.5789 30.384C51.4264 30.0539 51.3504 29.6937 51.3565 29.3302C51.3626 28.9666 51.4506 28.6092 51.614 28.2844C52.0072 27.498 52.1941 26.6246 52.1569 25.7462C52.1198 24.8678 51.8598 24.0133 51.4015 23.263C50.9433 22.5127 50.3017 21.8913 49.5372 21.4571C48.7727 21.023 47.9103 20.7904 47.0312 20.7813H43.8593C42.9755 20.7812 42.1064 21.007 41.3344 21.4373C40.5625 21.8676 39.9134 22.4881 39.4487 23.2399C38.984 23.9917 38.7193 24.8498 38.6796 25.7326C38.6399 26.6155 38.8265 27.4939 39.2218 28.2844C39.3848 28.6129 39.471 28.9742 39.4738 29.3409C39.4766 29.7076 39.3959 30.0702 39.2378 30.4011C39.0797 30.732 38.8484 31.0226 38.5614 31.2509C38.2744 31.4792 37.9392 31.6392 37.5812 31.7188C36.6077 32.1016 30.3843 32.3969 29.6733 38.2812H60.1562C59.653 32.4078 53.5937 31.8938 53.1999 31.7188Z" fill="#B5E7F3"></path><path d="M39.9219 49.2188H62.8906V60.1562H39.9219V49.2188Z" fill="#B5E7F3"></path><path d="M59.6094 40.4688H31.1719C30.3016 40.4688 29.467 40.8145 28.8517 41.4298C28.2363 42.0452 27.8906 42.8798 27.8906 43.75V65.625C27.8906 66.4952 28.2363 67.3298 28.8517 67.9452C29.467 68.5605 30.3016 68.9062 31.1719 68.9062H59.6094C60.4796 68.9062 61.3142 68.5605 61.9296 67.9452C62.5449 67.3298 62.8906 66.4952 62.8906 65.625V62.3438H38.8281C38.538 62.3438 38.2598 62.2285 38.0547 62.0234C37.8496 61.8183 37.7344 61.5401 37.7344 61.25V48.125C37.7344 47.8349 37.8496 47.5567 38.0547 47.3516C38.2598 47.1465 38.538 47.0312 38.8281 47.0312H62.8906V43.75C62.8906 42.8798 62.5449 42.0452 61.9296 41.4298C61.3142 40.8145 60.4796 40.4688 59.6094 40.4688Z" fill="#B5E7F3"></path><path d="M34.0484 34.9016C37.8599 33.4309 41.0368 30.6729 43.0283 27.1058C45.0199 23.5387 45.7006 19.3871 44.9526 15.3708C44.2046 11.3544 42.0749 7.72634 38.9327 5.11533C35.7905 2.50432 31.8339 1.07495 27.7484 1.07495C23.663 1.07495 19.7063 2.50432 16.5641 5.11533C13.4219 7.72634 11.2923 11.3544 10.5443 15.3708C9.79624 19.3871 10.477 23.5387 12.4685 27.1058C14.4601 30.6729 17.6369 33.4309 21.4484 34.9016C17.6802 36.1012 14.3325 38.351 11.7983 41.3869C9.26423 44.4228 7.64894 48.1187 7.14218 52.0407C7.07642 52.5057 7.11127 52.9795 7.24437 53.4299C7.37746 53.8803 7.6057 54.2969 7.91366 54.6515C8.22162 55.0061 8.60212 55.2905 9.02944 55.4854C9.45676 55.6803 9.92094 55.7812 10.3906 55.7813H45.1172C45.5896 55.786 46.0575 55.6885 46.4888 55.4957C46.9201 55.3029 47.3047 55.0192 47.6162 54.664C47.9278 54.3088 48.159 53.8906 48.294 53.4378C48.429 52.985 48.4646 52.5085 48.3984 52.0407C47.8882 48.1135 46.2664 44.4138 43.7241 41.3774C41.1818 38.341 37.8248 36.0942 34.0484 34.9016ZM12.4359 18.5938C12.4359 14.5327 14.0492 10.6379 16.9209 7.76623C19.7925 4.89458 23.6873 3.2813 27.7484 3.2813C29.1988 3.2813 30.5898 3.85747 31.6154 4.88306C32.641 5.90865 33.2172 7.29965 33.2172 8.75005C33.2172 9.76534 32.8139 10.739 32.0959 11.4569C31.378 12.1749 30.4043 12.5782 29.3891 12.5782C28.3738 12.5782 27.4001 12.1749 26.6822 11.4569C25.9642 10.739 25.5609 9.76534 25.5609 8.75005C25.5609 8.45997 25.4457 8.18177 25.2406 7.97666C25.0355 7.77154 24.7573 7.6563 24.4672 7.6563C24.1771 7.6563 23.8989 7.77154 23.6938 7.97666C23.4887 8.18177 23.3734 8.45997 23.3734 8.75005C23.3734 9.54004 23.529 10.3223 23.8313 11.0521C24.1337 11.782 24.5768 12.4451 25.1354 13.0037C25.694 13.5623 26.3571 14.0055 27.087 14.3078C27.8168 14.6101 28.5991 14.7657 29.3891 14.7657C30.179 14.7657 30.9613 14.6101 31.6911 14.3078C32.421 14.0055 33.0841 13.5623 33.6427 13.0037C34.2013 12.4451 34.6445 11.782 34.9468 11.0521C35.2491 10.3223 35.4047 9.54004 35.4047 8.75005C35.4136 7.34414 35.0351 5.96293 34.3109 4.75787C36.7868 5.93226 38.9021 7.74953 40.4362 10.0201C41.9704 12.2906 42.8671 14.9313 43.0329 17.6665C43.1987 20.4017 42.6274 23.1313 41.3787 25.5706C40.13 28.0098 38.2496 30.0692 35.9337 31.534C33.6178 32.9988 30.9513 33.8153 28.2123 33.8983C25.4733 33.9813 22.7622 33.3278 20.3619 32.0059C17.9615 30.6841 15.9599 28.7423 14.5657 26.3832C13.1716 24.0241 12.4361 21.3341 12.4359 18.5938ZM17.7078 48.8907C19.1074 47.9862 20.6233 47.2761 22.2141 46.7797L21.9297 47.8188C20.8359 48.2235 20.0922 48.836 20.0922 49.7657C20.1032 50.0679 20.1915 50.3622 20.3485 50.6207C20.5055 50.8791 20.726 51.0931 20.9891 51.2422L20.3547 53.5938H16.1437L17.7078 48.8907ZM39.375 53.5938H35.1531L34.4531 51.0454C34.6531 50.8965 34.8163 50.7037 34.93 50.4818C35.0438 50.26 35.1052 50.015 35.1094 49.7657C35.1094 48.9454 34.4969 48.3657 33.6109 47.961L33.2937 46.7797C34.881 47.2762 36.3933 47.9864 37.7891 48.8907L39.375 53.5938ZM22.9687 49.7657C24.4814 49.3673 26.0424 49.1832 27.6062 49.2188C29.1664 49.1838 30.7238 49.3679 32.2328 49.7657C30.7238 50.1635 29.1664 50.3476 27.6062 50.3126C26.0424 50.3482 24.4814 50.1641 22.9687 49.7657ZM30.8437 46.1126L31.1609 47.2938C29.9845 47.1155 28.7961 47.0278 27.6062 47.0313C26.5092 47.0304 25.4132 47.0998 24.325 47.2391L24.6312 46.1454C24.8174 45.4687 25.2206 44.8719 25.7788 44.4466C26.3369 44.0213 27.0193 43.7909 27.7211 43.7909C28.4229 43.7909 29.1052 44.0213 29.6634 44.4466C30.2216 44.8719 30.6247 45.4687 30.8109 46.1454L30.8437 46.1126ZM22.6187 53.5938L23.0453 52.0516C24.5457 52.3604 26.0744 52.5107 27.6062 52.5001C29.2326 52.513 30.8549 52.3368 32.4406 51.9751L32.8781 53.5938H22.6187ZM45.1172 53.5938H41.6609L38.6312 44.4938C38.5389 44.2204 38.3423 43.9945 38.0841 43.8654C37.826 43.7363 37.5273 43.7145 37.2531 43.8047C37.1155 43.8493 36.988 43.9207 36.8782 44.0148C36.7683 44.109 36.6782 44.224 36.6131 44.3531C36.548 44.4823 36.5092 44.6232 36.4989 44.7675C36.4886 44.9118 36.507 45.0567 36.5531 45.1938L36.7719 45.8282C35.3745 45.1578 33.9073 44.6443 32.3969 44.2969C31.9305 43.4685 31.2522 42.779 30.4315 42.2992C29.6108 41.8193 28.6772 41.5664 27.7266 41.5664C26.7759 41.5664 25.8423 41.8193 25.0216 42.2992C24.2009 42.779 23.5226 43.4685 23.0562 44.2969C21.5451 44.6418 20.0776 45.1554 18.6812 45.8282L18.8891 45.1938C18.935 45.0574 18.9537 44.9132 18.9439 44.7695C18.9341 44.6259 18.8962 44.4856 18.8322 44.3566C18.7682 44.2276 18.6795 44.1125 18.571 44.0178C18.4625 43.9231 18.3364 43.8507 18.2 43.8047C18.0635 43.7588 17.9194 43.7401 17.7757 43.7499C17.6321 43.7597 17.4917 43.7976 17.3628 43.8616C17.2338 43.9256 17.1186 44.0143 17.024 44.1228C16.9293 44.2313 16.8569 44.3574 16.8109 44.4938L13.8359 53.5938H10.3906C10.2299 53.5961 10.0707 53.563 9.9242 53.4968C9.77774 53.4306 9.64766 53.333 9.54324 53.2108C9.43881 53.0886 9.36259 52.9449 9.32001 52.7899C9.27743 52.635 9.26953 52.4725 9.29687 52.3141C9.86617 47.8237 12.0539 43.6952 15.4498 40.7026C18.8457 37.7101 23.2166 36.059 27.743 36.059C32.2693 36.059 36.6402 37.7101 40.0361 40.7026C43.432 43.6952 45.6198 47.8237 46.1891 52.3141C46.2161 52.4707 46.2086 52.6312 46.1673 52.7846C46.126 52.938 46.0517 53.0806 45.9497 53.2024C45.8477 53.3242 45.7204 53.4223 45.5766 53.4899C45.4328 53.5575 45.276 53.5929 45.1172 53.5938ZM33.6219 26.5672C33.6942 26.6921 33.7411 26.83 33.7599 26.973C33.7787 27.1161 33.769 27.2614 33.7314 27.4007C33.6938 27.54 33.629 27.6704 33.5407 27.7846C33.4525 27.8987 33.3425 27.9942 33.2172 28.0657C31.5545 29.0256 29.6684 29.531 27.7484 29.531C25.8285 29.531 23.9424 29.0256 22.2797 28.0657C22.1543 27.9942 22.0444 27.8987 21.9561 27.7846C21.8679 27.6704 21.8031 27.54 21.7655 27.4007C21.7279 27.2614 21.7182 27.1161 21.737 26.973C21.7558 26.83 21.8027 26.6921 21.875 26.5672C22.0211 26.3189 22.2593 26.1383 22.5378 26.0646C22.8163 25.9908 23.1127 26.03 23.3625 26.1735C24.6976 26.9268 26.2046 27.3226 27.7375 27.3226C29.2704 27.3226 30.7774 26.9268 32.1125 26.1735C32.2371 26.099 32.3753 26.0501 32.5191 26.0296C32.6628 26.009 32.8092 26.0173 32.9497 26.054C33.0902 26.0907 33.222 26.1549 33.3374 26.243C33.4528 26.3311 33.5495 26.4414 33.6219 26.5672Z" fill="#151A6A"></path></svg>
</g>
</svg>
