<svg xmlns="http://www.w3.org/2000/svg" id="Capa_1" x="0px" y="0px" viewBox="0 0 140 140">
<style type="text/css">
.st0{fill:none;stroke:#5FBCD3;stroke-width:2;}
.st1{fill:#B5E7F3;}
.st2{fill:#151A6A;}
</style>
<circle class="st0" cx="70" cy="70" r="69"/>
<g transform="translate(35,35) scale(1)">
<svg xmlns="http://www.w3.org/2000/svg" width="70" height="70" viewBox="0 0 70 70" fill="none"><path d="M65.625 20.7812H48.5779L42.3358 14.5392C42.1827 14.3867 41.9879 14.283 41.7759 14.241C41.5639 14.1991 41.3442 14.2208 41.1446 14.3035C40.9449 14.3862 40.7742 14.5262 40.6539 14.7057C40.5337 14.8852 40.4692 15.0964 40.4688 15.3125V20.7812H30.625C29.755 20.7822 28.921 21.1282 28.3059 21.7433C27.6907 22.3585 27.3447 23.1925 27.3438 24.0625V50.3125C27.3447 51.1824 27.6907 52.0165 28.3059 52.6316C28.921 53.2468 29.755 53.5928 30.625 53.5937H65.625C66.4949 53.5928 67.329 53.2468 67.9441 52.6316C68.5593 52.0165 68.9053 51.1824 68.9062 50.3125V24.0625C68.9053 23.1925 68.5593 22.3585 67.9441 21.7433C67.329 21.1282 66.4949 20.7822 65.625 20.7812ZM62.6439 47.0312H32.8125C32.5224 47.0312 32.2442 46.916 32.0391 46.7109C31.834 46.5058 31.7188 46.2276 31.7188 45.9375C31.7188 45.6474 31.834 45.3692 32.0391 45.1641C32.2442 44.959 32.5224 44.8437 32.8125 44.8437H62.6439C62.934 44.8437 63.2122 44.959 63.4173 45.1641C63.6224 45.3692 63.7376 45.6474 63.7376 45.9375C63.7376 46.2276 63.6224 46.5058 63.4173 46.7109C63.2122 46.916 62.934 47.0312 62.6439 47.0312ZM62.6439 38.2812H32.8125C32.5224 38.2812 32.2442 38.166 32.0391 37.9609C31.834 37.7558 31.7188 37.4776 31.7188 37.1875C31.7188 36.8974 31.834 36.6192 32.0391 36.4141C32.2442 36.209 32.5224 36.0937 32.8125 36.0937H62.6439C62.934 36.0937 63.2122 36.209 63.4173 36.4141C63.6224 36.6192 63.7376 36.8974 63.7376 37.1875C63.7376 37.4776 63.6224 37.7558 63.4173 37.9609C63.2122 38.166 62.934 38.2812 62.6439 38.2812ZM62.6439 29.5312H32.8125C32.5224 29.5312 32.2442 29.416 32.0391 29.2109C31.834 29.0058 31.7188 28.7276 31.7188 28.4375C31.7188 28.1474 31.834 27.8692 32.0391 27.6641C32.2442 27.459 32.5224 27.3437 32.8125 27.3437H62.6439C62.934 27.3437 63.2122 27.459 63.4173 27.6641C63.6224 27.8692 63.7376 28.1474 63.7376 28.4375C63.7376 28.7276 63.6224 29.0058 63.4173 29.2109C63.2122 29.416 62.934 29.5312 62.6439 29.5312Z" fill="#B5E7F3"></path><path d="M26.278 53.5938H20.7812C20.4912 53.5938 20.213 53.4785 20.0079 53.2734C19.8027 53.0683 19.6875 52.7901 19.6875 52.5C19.6875 52.2099 19.8027 51.9317 20.0079 51.7266C20.213 51.5215 20.4912 51.4062 20.7812 51.4062H25.2668C25.1933 51.0463 25.1563 50.6799 25.1562 50.3125V44.8438H20.7812C20.4912 44.8438 20.213 44.7285 20.0079 44.5234C19.8027 44.3183 19.6875 44.0401 19.6875 43.75C19.6875 43.4599 19.8027 43.1817 20.0079 42.9766C20.213 42.7715 20.4912 42.6562 20.7812 42.6562H25.1562V36.0938H17.5C16.63 36.0947 15.796 36.4407 15.1809 37.0559C14.5657 37.671 14.2197 38.505 14.2188 39.375V65.625C14.2197 66.4949 14.5657 67.329 15.1809 67.9441C15.796 68.5593 16.63 68.9053 17.5 68.9062H52.5C53.3699 68.9053 54.204 68.5593 54.8191 67.9441C55.4343 67.329 55.7803 66.4949 55.7812 65.625V55.7812H30.625C29.7804 55.7787 28.948 55.5798 28.1935 55.2001C27.4391 54.8205 26.7833 54.2705 26.278 53.5938ZM51.7064 61.25C51.7065 61.3937 51.6782 61.5359 51.6233 61.6687C51.5684 61.8014 51.4878 61.922 51.3862 62.0236C51.2846 62.1252 51.164 62.2057 51.0313 62.2607C50.8986 62.3156 50.7563 62.3438 50.6126 62.3438H20.7812C20.4912 62.3438 20.213 62.2285 20.0079 62.0234C19.8027 61.8183 19.6875 61.5401 19.6875 61.25C19.6875 60.9599 19.8027 60.6817 20.0079 60.4766C20.213 60.2715 20.4912 60.1562 20.7812 60.1562H50.6126C50.7563 60.1562 50.8986 60.1844 51.0313 60.2393C51.164 60.2943 51.2846 60.3748 51.3862 60.4764C51.4878 60.578 51.5684 60.6986 51.6233 60.8313C51.6782 60.9641 51.7065 61.1063 51.7064 61.25Z" fill="#B5E7F3"></path><path d="M49.2184 53.5938H44.8434V19.6875C44.8427 15.2334 43.2434 10.9274 40.3363 7.55279C37.4291 4.17816 33.4073 1.95906 29.0023 1.29907C24.5974 0.639087 20.1018 1.58207 16.3333 3.9565C12.5648 6.33094 9.77373 9.9791 8.46768 14.2375C6.7187 19.7881 4.29444 25.1028 1.24936 30.0621C1.16796 30.198 1.11702 30.3499 1.10005 30.5074C1.08308 30.6648 1.10048 30.8241 1.15105 30.9742C1.20162 31.1243 1.28416 31.2616 1.39297 31.3767C1.50178 31.4918 1.63426 31.5819 1.78128 31.6408L6.70206 33.6093L8.91199 44.4079C9.06559 45.1477 9.4689 45.8121 10.0543 46.2898C10.6397 46.7674 11.3715 47.0292 12.127 47.0313H18.5517V53.5938H14.2184C13.9283 53.5938 13.6501 53.709 13.445 53.9141C13.2399 54.1193 13.1247 54.3975 13.1247 54.6875C13.1247 54.9776 13.2399 55.2558 13.445 55.4609C13.6501 55.666 13.9283 55.7813 14.2184 55.7813H19.6455C19.7892 55.7814 19.9314 55.7531 20.0642 55.6982C20.1969 55.6433 20.3175 55.5627 20.4191 55.4611C20.5207 55.3595 20.6012 55.2389 20.6562 55.1062C20.7111 54.9735 20.7393 54.8312 20.7393 54.6875V47.0313H22.9684C23.112 47.0313 23.2543 47.003 23.3869 46.948C23.5196 46.893 23.6402 46.8124 23.7417 46.7108L27.0229 43.4296C27.2254 43.2239 27.3384 42.9466 27.3372 42.658C27.3361 42.3695 27.221 42.093 27.0169 41.889C26.8129 41.6849 26.5364 41.5698 26.2479 41.5687C25.9593 41.5676 25.682 41.6805 25.4763 41.883L22.5155 44.8438H12.1271C11.8752 44.8433 11.6312 44.7562 11.4359 44.5971C11.2407 44.438 11.1061 44.2166 11.0547 43.9701L8.72723 32.5936C8.69096 32.416 8.61117 32.2503 8.49502 32.1112C8.37887 31.9721 8.23001 31.8641 8.06179 31.7968L3.77757 30.083C6.61804 25.2937 8.89373 20.1912 10.5591 14.8778C11.7117 11.1205 14.1746 7.90177 17.4999 5.80687C20.8251 3.71196 24.7917 2.88008 28.6784 3.4625C32.5651 4.04492 36.1137 6.00297 38.6788 8.98054C41.2439 11.9581 42.6552 15.7574 42.6559 19.6875V54.6875C42.6558 54.8312 42.6841 54.9735 42.739 55.1062C42.7939 55.2389 42.8745 55.3595 42.9761 55.4611C43.0777 55.5627 43.1983 55.6433 43.331 55.6982C43.4637 55.7531 43.606 55.7814 43.7497 55.7813H49.2184C49.5085 55.7813 49.7867 55.666 49.9918 55.4609C50.1969 55.2558 50.3122 54.9776 50.3122 54.6875C50.3122 54.3975 50.1969 54.1193 49.9918 53.9141C49.7867 53.709 49.5085 53.5938 49.2184 53.5938Z" fill="#151A6A"></path><path d="M35.5474 28.5306C33.507 30.565 30.7425 31.7064 27.8612 31.7043C24.9798 31.7021 22.2171 30.5565 20.1797 28.5191C18.1423 26.4816 16.9968 23.7189 16.9947 20.8375C16.9927 17.9561 18.1342 15.1917 20.1687 13.1514C21.7107 11.6176 23.7981 10.7578 25.9731 10.7608C28.148 10.7637 30.2331 11.629 31.771 13.1669C33.3089 14.7048 34.1742 16.7898 34.1771 18.9648C34.1801 21.1398 33.3204 23.2271 31.7866 24.7692C30.7443 25.8088 29.3319 26.3922 27.8598 26.3913C26.3876 26.3903 24.976 25.8051 23.935 24.7642C22.894 23.7233 22.3087 22.3117 22.3077 20.8396C22.3067 19.3674 22.89 17.955 23.9295 16.9126C24.4812 16.3861 25.2145 16.0923 25.9771 16.0923C26.7397 16.0923 27.473 16.3861 28.0247 16.9126C28.2937 17.1814 28.5072 17.5006 28.6528 17.852C28.7984 18.2033 28.8734 18.5799 28.8734 18.9602C28.8734 19.3405 28.7984 19.7171 28.6528 20.0685C28.5072 20.4198 28.2937 20.739 28.0247 21.0078C27.8531 21.1717 27.6248 21.2631 27.3875 21.263C27.1501 21.2629 26.922 21.1713 26.7505 21.0073C26.5448 20.8041 26.2672 20.6906 25.9781 20.6915C25.689 20.6924 25.4121 20.8077 25.2077 21.0122C25.0034 21.2166 24.8883 21.4937 24.8876 21.7827C24.8868 22.0718 25.0005 22.3494 25.2038 22.5549C25.7923 23.1163 26.5744 23.4295 27.3877 23.4294C28.201 23.4293 28.983 23.1159 29.5714 22.5544C30.5246 21.6011 31.0601 20.3083 31.0601 18.9602C31.0601 17.6121 30.5246 16.3192 29.5714 15.366C28.6181 14.4127 27.3252 13.8772 25.9771 13.8772C24.6291 13.8772 23.3362 14.4127 22.3829 15.366C20.9309 16.8181 20.1152 18.7875 20.1152 20.841C20.1153 22.8946 20.9311 24.864 22.3832 26.316C23.8353 27.7681 25.8047 28.5838 27.8582 28.5837C29.9118 28.5837 31.8812 27.7679 33.3332 26.3158C34.2992 25.3498 35.0654 24.2031 35.5882 22.941C36.1109 21.679 36.38 20.3263 36.38 18.9602C36.38 17.5942 36.1109 16.2415 35.5882 14.9794C35.0654 13.7173 34.2992 12.5706 33.3332 11.6046C32.3673 10.6387 31.2205 9.87246 29.9585 9.34969C28.6964 8.82693 27.3437 8.55786 25.9776 8.55786C24.6116 8.55786 23.2589 8.82692 21.9968 9.34969C20.7348 9.87246 19.588 10.6387 18.6221 11.6046C16.1779 14.0553 14.8063 17.3759 14.8086 20.8371C14.8109 24.2983 16.1868 27.617 18.6342 30.0645C21.0816 32.512 24.4003 33.888 27.8615 33.8904C31.3227 33.8927 34.6433 32.5212 37.0941 30.0771C37.1967 29.9758 37.2782 29.8552 37.334 29.7222C37.3898 29.5893 37.4188 29.4466 37.4192 29.3024C37.4197 29.1582 37.3916 29.0153 37.3366 28.882C37.2817 28.7487 37.2009 28.6276 37.0989 28.5257C36.9969 28.4237 36.8758 28.3429 36.7425 28.2879C36.6092 28.233 36.4663 28.2049 36.3221 28.2054C36.1779 28.2058 36.0353 28.2348 35.9023 28.2906C35.7694 28.3464 35.6487 28.428 35.5474 28.5306Z" fill="#151A6A"></path></svg>
</g>
</svg>
