<svg xmlns="http://www.w3.org/2000/svg" xmlns:xlink="http://www.w3.org/1999/xlink" id="Capa_1" x="0px" y="0px" viewBox="0 0 140 140" style="enable-background:new 0 0 140 140;" xml:space="preserve"><style type="text/css">	.st0{fill:none;stroke:#5FBCD3;stroke-width:2;}	.st1{fill:#B5E7F3;}	.st2{fill:#151A6A;}</style><circle class="st0" cx="70" cy="70" r="69"></circle><g>	<path class="st1" d="M100.9,59.3c-0.3-2.3-2.1-4.2-4.4-4.5L85.6,53l-0.9-3.3c-0.1-0.5-0.5-0.8-1-0.8H73.2c-0.5,0-0.9,0.3-1,0.8  L71.3,53l-10.9,1.8c-2.3,0.4-4.1,2.2-4.4,4.5L54.2,73c-0.1,0.5,0.3,1.1,0.8,1.2l7.5,1.5c0.1-4-0.3-7.9-1.2-11.8  c-0.1-0.6,0.2-1.1,0.8-1.3c0.1,0,0.2,0,0.2,0h0c0.5,0,0.9,0.3,1,0.8c2.4,10.6,1,18.2-0.3,25.6c-0.9,4.1-1.4,8.3-1.5,12.5h33.7  c-0.1-4.2-0.6-8.4-1.5-12.5c-1.4-7.4-2.8-15-0.3-25.6c0.1-0.5,0.5-0.8,1-0.8h0c0.6,0,1.1,0.5,1,1.1c0,0.1,0,0.2,0,0.2  c-0.9,3.9-1.3,7.8-1.2,11.8l7.5-1.5c0.5-0.1,0.9-0.6,0.8-1.2L100.9,59.3z M79.5,97.3c0,0.6-0.5,1.1-1.1,1.1c-0.6,0-1.1-0.5-1.1-1.1  v-1.7c0-0.6,0.5-1.1,1.1-1.1c0.6,0,1.1,0.5,1.1,1.1V97.3z M79.5,90c0,0.6-0.5,1.1-1.1,1.1c-0.6,0-1.1-0.5-1.1-1.1v-1.7  c0-0.6,0.5-1.1,1.1-1.1c0.6,0,1.1,0.5,1.1,1.1V90z M79.5,82.6c0,0.6-0.5,1.1-1.1,1.1c-0.6,0-1.1-0.5-1.1-1.1v-1.7  c0-0.6,0.5-1.1,1.1-1.1c0.6,0,1.1,0.5,1.1,1.1V82.6z M79.5,75.2c0,0.6-0.5,1.1-1.1,1.1c-0.6,0-1.1-0.5-1.1-1.1v-1.7  c0-0.6,0.5-1.1,1.1-1.1c0.6,0,1.1,0.5,1.1,1.1V75.2z M79.5,67.9c0,0.6-0.5,1.1-1.1,1.1c-0.6,0-1.1-0.5-1.1-1.1v-1.7  c0-0.6,0.5-1.1,1.1-1.1c0.6,0,1.1,0.5,1.1,1.1V67.9z M79.5,60.5c0,0.6-0.5,1.1-1.1,1.1c-0.6,0-1.1-0.5-1.1-1.1v-1.7  c0-0.6,0.5-1.1,1.1-1.1c0.6,0,1.1,0.5,1.1,1.1V60.5z"></path>	<g>		<path class="st2" d="M63.7,52.1c0.6,0,1.1-0.5,1.1-1.1S64.3,50,63.7,50c-1.2,0-2.1-0.9-2.1-2.1c0-1.2,0.9-2.1,2.1-2.1   c0.6,0,1.1-0.5,1.1-1.1c0-0.6-0.5-1.1-1.1-1.1c-2.3,0-4.2,1.9-4.2,4.2C59.5,50.2,61.4,52.1,63.7,52.1z"></path>		<path class="st2" d="M77.4,52.1h1.1c2.3,0,4.2-1.9,4.2-4.2c0-0.1,0-0.1,0-0.2c-0.2-2.3-2.1-4-4.4-4h-0.9v-2.1   c0-1.7-1.4-3.2-3.2-3.2h-21c-1.7,0-3.2,1.4-3.2,3.2v2.1h-0.9c-2.3,0-4.2,1.7-4.4,4c-0.1,2.3,1.7,4.3,4,4.4c0.1,0,0.1,0,0.2,0H50   v2.1c0,0.8,0.3,1.5,0.8,2.1c-0.5,0.6-0.8,1.3-0.8,2.1v2.1h-0.9c-2.3,0-4.2,1.7-4.4,4c-0.1,2.3,1.7,4.3,4,4.4c0.1,0,0.1,0,0.2,0H50   V71c0,0.8,0.3,1.5,0.8,2.1c-0.5,0.6-0.8,1.3-0.8,2.1v2.1h-0.9c-2.3,0-4.2,1.7-4.4,4c-0.1,2.3,1.7,4.3,4,4.4c0.1,0,0.1,0,0.2,0H50   v2.1c0,1.7,1.4,3.2,3.2,3.2h21c1.7,0,3.2-1.4,3.2-3.2v-2.1h1.1c2.3,0,4.2-1.9,4.2-4.2c0-0.1,0-0.1,0-0.2c-0.2-2.3-2.1-4-4.4-4   h-0.9v-2.1c0-0.8-0.3-1.5-0.8-2.1c0.5-0.6,0.8-1.3,0.8-2.1v-2.1h1.1c2.3,0,4.2-1.9,4.2-4.2c0-0.1,0-0.1,0-0.2   c-0.2-2.3-2.1-4-4.4-4h-0.9v-2.1c0-0.8-0.3-1.5-0.8-2.1c0.5-0.6,0.8-1.3,0.8-2.1L77.4,52.1z M49,50c-1.2,0-2.1-1-2.1-2.1   c0-1.2,1-2.1,2.1-2.1c0,0,0.1,0,0.1,0h1.9c0.6,0,1.1-0.5,1.1-1.1c0,0,0,0,0,0v-3.2c0-0.6,0.5-1.1,1.1-1.1h21   c0.6,0,1.1,0.5,1.1,1.1v3.2c0,0.6,0.5,1.1,1.1,1.1c0,0,0,0,0,0h1.9c1.2,0,2.2,0.8,2.3,2c0.1,1.2-0.8,2.2-2,2.2c0,0-0.1,0-0.1,0   h-2.1c-0.6,0-1.1,0.5-1.1,1.1c0,0,0,0,0,0v3.2c0,0.6-0.5,1.1-1.1,1.1h-21c-0.6,0-1.1-0.5-1.1-1.1v-3.2c0-0.6-0.5-1.1-1.1-1.1   c0,0,0,0,0,0H49z M78.2,79.5c1.2,0,2.2,0.8,2.3,2c0.1,1.2-0.8,2.2-2,2.2c0,0-0.1,0-0.1,0h-2.1c-0.6,0-1.1,0.5-1.1,1.1c0,0,0,0,0,0   v3.2c0,0.6-0.5,1.1-1.1,1.1h-21c-0.6,0-1.1-0.5-1.1-1.1v-3.2c0-0.6-0.5-1.1-1.1-1.1c0,0,0,0,0,0H49c-1.2,0-2.1-0.9-2.1-2.1   c0,0,0-0.1,0-0.1c0.1-1.2,1.1-2,2.3-2h1.9c0.6,0,1.1-0.5,1.1-1.1c0,0,0,0,0,0v-3.2c0-0.6,0.5-1.1,1.1-1.1h21   c0.6,0,1.1,0.5,1.1,1.1v3.2c0,0.6,0.5,1.1,1.1,1.1c0,0,0,0,0,0H78.2z M78.2,62.6c1.2,0,2.2,0.8,2.3,2c0.1,1.2-0.8,2.2-2,2.2   c0,0-0.1,0-0.1,0h-2.1c-0.6,0-1.1,0.5-1.1,1.1c0,0,0,0,0,0V71c0,0.6-0.5,1.1-1.1,1.1h-21c-0.6,0-1.1-0.5-1.1-1.1v-3.2   c0-0.6-0.5-1.1-1.1-1.1c0,0,0,0,0,0H49c-1.2,0-2.1-0.9-2.1-2.1c0,0,0-0.1,0-0.1c0.1-1.2,1.1-2,2.3-2h1.9c0.6,0,1.1-0.5,1.1-1.1   c0,0,0,0,0,0v-3.2c0-0.6,0.5-1.1,1.1-1.1h21c0.6,0,1.1,0.5,1.1,1.1v3.2c0,0.6,0.5,1.1,1.1,1.1c0,0,0,0,0,0H78.2z"></path>		<path class="st2" d="M63.7,62.6c0.6,0,1.1-0.5,1.1-1.1c0-0.6-0.5-1.1-1.1-1.1c-2.3,0-4.2,1.9-4.2,4.2c0,2.3,1.9,4.2,4.2,4.2   c0.6,0,1.1-0.5,1.1-1.1c0-0.6-0.5-1.1-1.1-1.1c-1.2,0-2.1-0.9-2.1-2.1C61.6,63.6,62.5,62.6,63.7,62.6z"></path>		<path class="st2" d="M63.7,79.5c0.6,0,1.1-0.5,1.1-1.1c0-0.6-0.5-1.1-1.1-1.1c-2.3,0-4.2,1.9-4.2,4.2c0,2.3,1.9,4.2,4.2,4.2   c0.6,0,1.1-0.5,1.1-1.1s-0.5-1.1-1.1-1.1c-1.2,0-2.1-0.9-2.1-2.1C61.6,80.4,62.5,79.5,63.7,79.5z"></path>		<path class="st2" d="M41.1,55.4c-0.5-0.3-1.1-0.2-1.5,0.3c-0.3,0.5-0.2,1.1,0.3,1.5c0,0,0,0,0,0l3.2,2.1c0.5,0.3,1.1,0.2,1.5-0.3   c0.3-0.5,0.2-1.1-0.3-1.5c0,0,0,0,0,0L41.1,55.4z"></path>		<path class="st2" d="M43.1,70.2L40,72.3c-0.5,0.3-0.6,1-0.3,1.5c0.3,0.5,1,0.6,1.4,0.3l3.2-2.1c0.5-0.3,0.6-1,0.3-1.5   C44.3,70,43.6,69.8,43.1,70.2C43.1,70.2,43.1,70.2,43.1,70.2z"></path>		<path class="st2" d="M42.7,64.7c0-0.6-0.5-1.1-1.1-1.1c0,0,0,0,0,0h-3.2c-0.6,0-1.1,0.5-1.1,1.1c0,0.6,0.5,1.1,1.1,1.1h3.2   C42.2,65.8,42.7,65.3,42.7,64.7C42.7,64.7,42.7,64.7,42.7,64.7z"></path>		<path class="st2" d="M84.3,59.3l3.2-2.1c0.5-0.3,0.6-1,0.3-1.5c-0.3-0.5-1-0.6-1.4-0.3l-3.2,2.1c-0.5,0.3-0.6,1-0.3,1.5   C83.1,59.5,83.7,59.6,84.3,59.3C84.2,59.3,84.2,59.3,84.3,59.3z"></path>		<path class="st2" d="M84.3,70.2c-0.5-0.3-1.1-0.2-1.5,0.3c-0.3,0.5-0.2,1.1,0.3,1.4l3.2,2.1c0.5,0.3,1.1,0.2,1.5-0.3   c0.3-0.5,0.2-1.1-0.3-1.5c0,0,0,0,0,0L84.3,70.2z"></path>		<path class="st2" d="M88.9,63.7h-3.2c-0.6,0-1.1,0.5-1.1,1.1c0,0.6,0.5,1.1,1.1,1.1h3.2c0.6,0,1.1-0.5,1.1-1.1   C90,64.2,89.5,63.7,88.9,63.7z"></path>	</g></g></svg>