<svg xmlns="http://www.w3.org/2000/svg" id="Capa_1" x="0px" y="0px" viewBox="0 0 140 140">
<style type="text/css">
.st0{fill:none;stroke:#5FBCD3;stroke-width:2;}
.st1{fill:#B5E7F3;}
.st2{fill:#151A6A;}
</style>
<circle class="st0" cx="70" cy="70" r="69"/>
<g transform="translate(35,35) scale(1)">
<svg xmlns="http://www.w3.org/2000/svg" width="70" height="70" viewBox="0 0 70 70" fill="none"><path d="M67.7939 19.6875C65.1873 19.6954 62.6899 20.7356 60.8485 22.5805C59.0071 24.4254 57.9716 26.9247 57.9688 29.5313V40.4688C57.9687 41.339 58.3145 42.1736 58.9298 42.789C59.5452 43.4043 60.3798 43.75 61.25 43.75H68.9062V20.7813C68.9051 20.6364 68.8754 20.4932 68.8189 20.3598C68.7624 20.2264 68.6801 20.1055 68.5768 20.0039C68.4735 19.9023 68.3512 19.8221 68.2168 19.7678C68.0825 19.7135 67.9388 19.6862 67.7939 19.6875Z" fill="#B5E7F3"></path><path d="M45.9375 60.1562H54.6875C54.9776 60.1562 55.2558 60.041 55.4609 59.8359C55.666 59.6308 55.7812 59.3526 55.7812 59.0625C55.7812 58.7724 55.666 58.4942 55.4609 58.2891C55.2558 58.084 54.9776 57.9688 54.6875 57.9688H45.9375C45.093 57.9712 44.2606 58.1701 43.5062 58.5498C42.7518 58.9295 42.0961 59.4794 41.5909 60.1562H21.875C21.0048 60.1562 20.1702 60.502 19.5548 61.1173C18.9395 61.7327 18.5938 62.5673 18.5938 63.4375C18.5938 64.3077 18.9395 65.1423 19.5548 65.7577C20.1702 66.373 21.0048 66.7188 21.875 66.7188H41.5909C42.0961 67.3956 42.7518 67.9455 43.5062 68.3252C44.2606 68.7049 45.093 68.9038 45.9375 68.9062H54.6875C54.9776 68.9062 55.2558 68.791 55.4609 68.5859C55.666 68.3808 55.7812 68.1026 55.7812 67.8125C55.7812 67.5224 55.666 67.2442 55.4609 67.0391C55.2558 66.834 54.9776 66.7188 54.6875 66.7188H45.9375C45.2613 66.7159 44.6024 66.5043 44.0511 66.1127C43.4998 65.7211 43.0829 65.1688 42.8575 64.5312H54.6875C54.9776 64.5312 55.2558 64.416 55.4609 64.2109C55.666 64.0058 55.7812 63.7276 55.7812 63.4375C55.7812 63.1474 55.666 62.8692 55.4609 62.6641C55.2558 62.459 54.9776 62.3438 54.6875 62.3438H42.8575C43.0829 61.7062 43.4998 61.1539 44.0511 60.7623C44.6024 60.3707 45.2613 60.1591 45.9375 60.1562Z" fill="#B5E7F3"></path><path d="M35 15.3125C30.8899 15.3125 26.872 16.5313 23.4546 18.8148C20.0371 21.0982 17.3735 24.3438 15.8006 28.1411C14.2278 31.9384 13.8162 36.1168 14.6181 40.148C15.4199 44.1791 17.3991 47.882 20.3054 50.7883C23.2118 53.6946 26.9146 55.6738 30.9458 56.4757C34.977 57.2775 39.1554 56.866 42.9526 55.2931C46.7499 53.7202 49.9955 51.0567 52.279 47.6392C54.5625 44.2217 55.7813 40.2039 55.7813 36.0938C55.7752 30.5841 53.5838 25.3018 49.6879 21.4059C45.7919 17.51 40.5097 15.3186 35 15.3125ZM35.3577 47.7006C35.126 47.7808 34.8741 47.7808 34.6424 47.7006C22.1233 43.3628 23.0158 33.8713 22.9688 33.7619C22.9508 32.4561 23.2878 31.17 23.9437 30.0408C24.5996 28.9115 25.5498 27.9816 26.693 27.3503C29.5608 25.8125 32.6955 26.7203 35 29.6406C37.3034 26.7236 40.4359 25.8202 43.307 27.3536C44.4497 27.9847 45.3996 28.914 46.0555 30.0426C46.7114 31.1712 47.0486 32.4567 47.0313 33.7619C46.9842 33.8713 47.8636 43.3672 35.3577 47.7006Z" fill="#B5E7F3"></path><path d="M62.3438 53.5938C62.3438 54.464 62.6895 55.2986 63.3048 55.9139C63.9202 56.5293 64.7548 56.875 65.625 56.875C66.4952 56.875 67.3298 56.5293 67.9452 55.9139C68.5605 55.2986 68.9062 54.464 68.9062 53.5938V45.9375H62.3438V53.5938Z" fill="#B5E7F3"></path><path d="M55.7812 14.2188C55.7775 10.7389 54.3935 7.40273 51.9329 4.94213C49.4723 2.48153 46.1361 1.09751 42.6562 1.09375H31.7188C28.2389 1.09751 24.9027 2.48153 22.4421 4.94213C19.9815 7.40273 18.5975 10.7389 18.5938 14.2188C18.5974 14.5922 18.6655 14.9622 18.795 15.3125H12.0312C12.0312 14.4423 11.6855 13.6077 11.0702 12.9923C10.4548 12.377 9.62024 12.0312 8.75 12.0312H4.375C3.50476 12.0312 2.67016 12.377 2.05481 12.9923C1.43945 13.6077 1.09375 14.4423 1.09375 15.3125V31.7188C1.09375 32.589 1.43945 33.4236 2.05481 34.0389C2.67016 34.6543 3.50476 35 4.375 35H8.75C9.62024 35 10.4548 34.6543 11.0702 34.0389C11.6855 33.4236 12.0312 32.589 12.0312 31.7188H18.7819C19.0719 31.7188 19.3501 31.8341 19.5552 32.0392L27.6642 40.1483C27.843 40.3271 28.0783 40.4385 28.3299 40.4634C28.5816 40.4884 28.8341 40.4253 29.0445 40.285L51.9269 25.0305C53.0594 24.2722 53.845 23.0959 54.1116 21.7593C54.3781 20.4227 54.1038 19.035 53.3488 17.9003C53.2364 17.7433 53.1148 17.5932 52.9845 17.4508C53.7599 17.335 54.4683 16.9454 54.9813 16.3526C55.4943 15.7597 55.7781 15.0028 55.7812 14.2188ZM9.84375 31.7188C9.84375 32.0088 9.72852 32.287 9.5234 32.4921C9.31828 32.6973 9.04008 32.8125 8.75 32.8125H4.375C4.08492 32.8125 3.80672 32.6973 3.6016 32.4921C3.39648 32.287 3.28125 32.0088 3.28125 31.7188V15.3125C3.28125 15.0224 3.39648 14.7442 3.6016 14.5391C3.80672 14.334 4.08492 14.2188 4.375 14.2188H8.75C9.04008 14.2188 9.31828 14.334 9.5234 14.5391C9.72852 14.7442 9.84375 15.0224 9.84375 15.3125V31.7188ZM50.7128 23.2105L28.5764 37.9673L21.1017 30.4927C20.7979 30.1869 20.4364 29.9444 20.0382 29.7794C19.64 29.6144 19.2129 29.53 18.7819 29.5312H12.0312V17.5H26.273C26.5632 17.5006 26.8415 17.6158 27.0473 17.8205L30.2061 20.9814C30.4672 21.2337 30.6754 21.5355 30.8186 21.8691C30.9618 22.2028 31.0372 22.5616 31.0402 22.9247C31.0433 23.2878 30.974 23.6478 30.8364 23.9838C30.6988 24.3198 30.4957 24.625 30.2389 24.8817C29.9821 25.1384 29.6767 25.3413 29.3406 25.4787C29.0045 25.6161 28.6445 25.6852 28.2814 25.6819C27.9183 25.6787 27.5595 25.6031 27.226 25.4597C26.8924 25.3163 26.5908 25.1079 26.3386 24.8467L24.7866 23.2969C24.7746 23.2837 24.7618 23.2712 24.7483 23.2597C24.5608 23.0855 24.3181 22.9825 24.0625 22.9688H23.9531C23.7376 22.9727 23.5281 23.0401 23.3508 23.1627C23.1735 23.2853 23.0364 23.4576 22.9567 23.6578C22.8768 23.861 22.858 24.0832 22.9027 24.297C22.9474 24.5107 23.0536 24.7068 23.2083 24.8609C23.2752 24.9287 23.3514 24.9865 23.4347 25.0327L24.7931 26.3911C25.2502 26.8481 25.7928 27.2107 26.3899 27.458C26.9871 27.7054 27.6271 27.8327 28.2734 27.8327C28.9198 27.8327 29.5598 27.7054 30.157 27.458C30.7541 27.2107 31.2967 26.8481 31.7537 26.3911C31.8084 26.3364 31.8631 26.2817 31.9134 26.2237C31.9434 26.2121 31.9726 26.1986 32.0009 26.1833L47.7291 18.1202C48.4006 17.7723 49.18 17.6953 49.9067 17.9051C50.6333 18.1149 51.2517 18.5955 51.6345 19.2478C52.0172 19.9001 52.1351 20.6744 51.9638 21.4111C51.7926 22.1478 51.3452 22.7906 50.7139 23.2072L50.7128 23.2105ZM29.8189 17.5H44.147L33.1877 23.1208C33.2175 22.4404 33.1053 21.7613 32.8582 21.1267C32.6112 20.4921 32.2346 19.9159 31.7527 19.4348L29.8189 17.5ZM52.5 15.3125H21.875C21.5849 15.3125 21.3067 15.1973 21.1016 14.9921C20.8965 14.787 20.7812 14.5088 20.7812 14.2188C20.7847 11.5084 21.793 8.89556 23.6113 6.88557C25.4295 4.87558 27.9285 3.61123 30.625 3.33703V6.5625C30.625 6.85258 30.7402 7.13078 30.9454 7.3359C31.1505 7.54102 31.4287 7.65625 31.7188 7.65625C32.0088 7.65625 32.287 7.54102 32.4921 7.3359C32.6973 7.13078 32.8125 6.85258 32.8125 6.5625V3.28125H36.0938V6.5625C36.0938 6.85258 36.209 7.13078 36.4141 7.3359C36.6192 7.54102 36.8974 7.65625 37.1875 7.65625C37.4776 7.65625 37.7558 7.54102 37.9609 7.3359C38.166 7.13078 38.2812 6.85258 38.2812 6.5625V3.28125H41.5625V6.5625C41.5625 6.85258 41.6777 7.13078 41.8829 7.3359C42.088 7.54102 42.3662 7.65625 42.6562 7.65625C42.9463 7.65625 43.2245 7.54102 43.4296 7.3359C43.6348 7.13078 43.75 6.85258 43.75 6.5625V3.33703C46.4465 3.61123 48.9455 4.87558 50.7637 6.88557C52.582 8.89556 53.5903 11.5084 53.5938 14.2188C53.5938 14.5088 53.4785 14.787 53.2734 14.9921C53.0683 15.1973 52.7901 15.3125 52.5 15.3125Z" fill="#151A6A"></path></svg>
</g>
</svg>
