<svg xmlns="http://www.w3.org/2000/svg" width="70" height="70" viewBox="0 0 70 70" fill="none"><path d="M52.5043 49.8902C52.2492 50.4397 52.1058 51.0346 52.0825 51.64C52.0592 52.2455 52.1565 52.8496 52.3687 53.4172C52.5809 53.9847 52.9039 54.5044 53.3187 54.9461C53.7335 55.3878 54.232 55.7426 54.7852 55.9899L55.4993 56.315C56.6189 56.8249 57.8951 56.8744 59.0508 56.4529C60.2066 56.0314 61.1504 55.1727 61.6789 54.0618L62.1825 52.9818L53.0083 48.8096L52.5043 49.8902Z" fill="#B5E7F3"></path><path d="M68.6965 38.4292C68.256 36.7208 65.4071 30.9908 61.3274 31.9721C58.2331 32.7138 55.9949 36.7681 55.6176 40.2583C55.3243 42.4992 54.748 44.6938 53.9023 46.7896L63.1584 50.9991C64.2443 49.0176 65.5222 47.1476 66.9738 45.416C67.7725 44.4586 68.3426 43.3319 68.6411 42.1213C68.9395 40.9108 68.9585 39.6482 68.6965 38.4292Z" fill="#B5E7F3"></path><path d="M47.1932 52.4598C46.8716 48.9621 44.6976 44.8734 41.6154 44.0843C37.1578 42.9353 30.7693 51.3507 35.7563 57.4389C37.1793 59.1927 38.4269 61.0819 39.4811 63.0794L48.8016 59.0151C47.9891 56.9072 47.4486 54.7044 47.1932 52.4598Z" fill="#B5E7F3"></path><path d="M49.6662 61.0493L40.4258 65.0786L40.9116 66.1664C41.4225 67.2852 42.3527 68.1585 43.5015 68.5979C44.6504 69.0373 45.9258 69.0077 47.053 68.5154L47.0541 68.5143L47.7726 68.201C48.3299 67.9626 48.8342 67.6158 49.2563 67.1807C49.6784 66.7457 50.0098 66.2311 50.2312 65.6668C50.4527 65.1026 50.5598 64.4999 50.5463 63.8939C50.5328 63.2879 50.399 62.6907 50.1527 62.1368L49.6662 61.0493Z" fill="#B5E7F3"></path><path d="M41.6684 36.6216L50.9896 32.5581C50.1769 30.4498 49.6363 28.2465 49.3809 26.0014C49.0592 22.5048 46.8852 18.4161 43.803 17.6264C39.7353 16.5854 36.7998 22.2663 36.3325 23.9673C36.0507 25.1819 36.0493 26.4447 36.3285 27.6599C36.6077 28.8751 37.1602 30.0107 37.9439 30.9805C39.3667 32.7347 40.6142 34.6241 41.6684 36.6216Z" fill="#B5E7F3"></path><path d="M43.0983 39.7092C43.61 40.8274 44.5402 41.7001 45.6888 42.1394C46.8373 42.5787 48.1125 42.5495 49.2398 42.0582L49.2409 42.0571L49.9594 41.7439C50.516 41.5047 51.0197 41.1575 51.4412 40.7224C51.8627 40.2872 52.1938 39.7728 52.4151 39.2088C52.6365 38.6449 52.7438 38.0426 52.7308 37.4369C52.7178 36.8312 52.5848 36.2341 52.3394 35.6802L51.853 34.5925L42.6123 38.621L43.0983 39.7092Z" fill="#B5E7F3"></path><path d="M38.8403 5.51259C38.0261 5.39557 37.1961 5.45684 36.4079 5.69216C35.6197 5.92749 34.892 6.33124 34.2752 6.8755C30.4263 10.2849 29.9766 18.4597 31.7656 24.3937C33.1056 29.2777 33.825 34.3112 33.9067 39.3751V43.7501C33.9067 45.7807 34.7133 47.7281 36.1491 49.1639C37.585 50.5997 39.5324 51.4063 41.5629 51.4063C43.5935 51.4063 45.5409 50.5997 46.9767 49.1639C48.4125 47.7281 49.2192 45.7807 49.2192 43.7501V39.3751C49.3428 34.3436 49.995 29.339 51.1653 24.4439C51.6636 22.3416 51.7296 20.16 51.3593 18.0314C50.9889 15.9028 50.19 13.8717 49.0109 12.0612C47.5219 10.004 43.0092 5.97138 38.8403 5.51259ZM35.7257 8.51296C36.3664 7.94105 37.201 7.63473 38.0595 7.65634C38.2404 7.65666 38.4212 7.66682 38.601 7.68678C40.9549 8.1717 43.1295 9.29656 44.8853 10.9376H34.0879C34.4498 10.0193 35.0089 9.1916 35.7257 8.51296ZM33.3914 13.1251H47.0703C47.1302 13.2006 47.1914 13.277 47.24 13.3441C47.8946 14.2787 48.3943 15.3127 48.72 16.4063H32.9816C33.0222 15.3027 33.1593 14.2048 33.3914 13.1251ZM41.5629 49.2188C40.1131 49.2171 38.723 48.6404 37.6978 47.6152C36.6726 46.59 36.0959 45.2 36.0942 43.7501H47.0317C47.03 45.2 46.4533 46.59 45.428 47.6152C44.4028 48.6404 43.0128 49.2171 41.5629 49.2188ZM47.0317 39.3751V41.5626H36.0942V39.3751C36.0942 39.3069 36.0921 38.9105 36.0718 38.2813H47.0561C47.034 38.918 47.0317 39.3116 47.0317 39.3751ZM47.174 36.0938H35.9605C35.8417 34.3409 35.6145 32.0338 35.1879 29.5313H47.9275C47.5159 32.1265 47.2937 34.3885 47.174 36.0938ZM48.3089 27.3438H34.7675C34.5359 26.2559 34.2647 25.1549 33.9449 24.0626H49.0094C48.7401 25.1867 48.5098 26.2827 48.3089 27.3438ZM49.2259 18.5925C49.3796 19.6796 49.4163 20.7801 49.3353 21.8751H33.3978C33.1863 20.7922 33.0515 19.6957 32.9944 18.5938H49.2192L49.2259 18.5925Z" fill="#151A6A"></path><path d="M52.5 1.09375H4.375C3.50505 1.0947 2.671 1.44071 2.05585 2.05585C1.44071 2.671 1.0947 3.50505 1.09375 4.375V50.9683C1.09751 52.2429 1.60521 53.4642 2.50607 54.3659C3.40693 55.2676 4.62783 55.7764 5.9024 55.7812H52.5C53.3699 55.7803 54.204 55.4343 54.8191 54.8191C55.4343 54.204 55.7803 53.3699 55.7812 52.5V4.375C55.7803 3.50505 55.4343 2.671 54.8191 2.05585C54.204 1.44071 53.3699 1.0947 52.5 1.09375ZM5.9024 53.5916L5.89706 53.5905C5.37867 53.5904 4.87199 53.4364 4.44132 53.1478C4.01064 52.8593 3.67539 52.4494 3.4781 51.97C3.28081 51.4906 3.23037 50.9634 3.3332 50.4553C3.43602 49.9472 3.68747 49.4812 4.05562 49.1162L7.64428 45.5192C8.6194 46.9932 9.88164 48.2556 11.3556 49.2309L7.75772 52.8205C7.51476 53.0652 7.2257 53.2594 6.90725 53.3918C6.5888 53.5241 6.24727 53.592 5.9024 53.5916ZM7.96447 18.5919L7.97344 18.5938H24.1959C24.1388 19.6956 24.004 20.7921 23.7927 21.875H7.85545C7.77412 20.7799 7.81067 19.6792 7.96447 18.5919ZM23.801 13.125C24.0324 14.2048 24.1689 15.3027 24.2091 16.4062H8.47062C8.7969 15.3109 9.29752 14.2753 9.95323 13.3392C10.0006 13.2736 10.0606 13.1987 10.119 13.125H23.801ZM12.3024 10.9375C14.06 9.29591 16.2361 8.17057 18.5916 7.68509C19.1019 7.60303 19.624 7.63416 20.1208 7.77629C20.6177 7.91841 21.0773 8.16806 21.467 8.50754C22.1849 9.1876 22.7445 10.0172 23.1061 10.9375H12.3024ZM10.8595 30.547C12.3892 29.0173 14.3381 27.9756 16.4599 27.5536C18.5816 27.1315 20.7808 27.3481 22.7795 28.176C24.7781 29.0039 26.4864 30.4058 27.6882 32.2045C28.8901 34.0032 29.5316 36.118 29.5316 38.2812C29.5316 40.4445 28.8901 42.5593 27.6882 44.358C26.4864 46.1567 24.7781 47.5586 22.7795 48.3865C20.7808 49.2144 18.5816 49.431 16.4599 49.0089C14.3381 48.5869 12.3892 47.5452 10.8595 46.0155C8.81165 43.9624 7.66159 41.181 7.66159 38.2812C7.66159 35.3815 8.81165 32.6001 10.8595 30.547ZM8.1797 24.0625H23.2481C23.0721 24.6715 22.9126 25.2688 22.7695 25.8546C20.4231 25.0632 17.9005 24.9531 15.4941 25.5372C13.0878 26.1212 10.8963 27.3755 9.17377 29.1544C8.88805 27.4066 8.56734 25.6926 8.1797 24.0625ZM53.5938 52.5C53.5936 52.79 53.4783 53.0681 53.2732 53.2732C53.0681 53.4783 52.79 53.5936 52.5 53.5938H10.0795L13.3707 50.3101C16.475 51.6626 19.9821 51.7622 23.1582 50.5879C26.3342 49.4137 28.9331 47.0567 30.411 44.0102C31.889 40.9636 32.1314 37.4635 31.0877 34.2422C30.0439 31.0209 27.7949 28.3281 24.8111 26.7272C24.9906 25.9672 25.1901 25.1893 25.427 24.3883C27.2134 18.4533 26.7632 10.2779 22.917 6.86958C22.3001 6.32524 21.5721 5.92175 20.7836 5.68712C19.995 5.4525 19.1649 5.39238 18.3508 5.51094C14.1766 5.9729 9.66747 10.0024 8.18123 12.0569C7.00175 13.8669 6.20235 15.8976 5.83155 18.026C5.46075 20.1543 5.52628 22.3357 6.02417 24.4379C6.56364 26.6875 7.00062 29.0854 7.33802 31.5588C6.2742 33.3471 5.64949 35.362 5.51514 37.4385C5.38078 39.5149 5.74061 41.5936 6.5651 43.504L3.28125 46.7955V4.375C3.28163 4.08504 3.39698 3.80705 3.60202 3.60202C3.80705 3.39698 4.08504 3.28163 4.375 3.28125H52.5C52.79 3.28154 53.068 3.39687 53.2731 3.60192C53.4781 3.80698 53.5935 4.08501 53.5938 4.375V52.5Z" fill="#151A6A"></path><path d="M12.4067 44.4688C13.8381 45.9002 15.7216 46.791 17.7362 46.9894C19.7508 47.1878 21.7719 46.6815 23.455 45.5568C25.1382 44.4322 26.3793 42.7587 26.967 40.8215C27.5546 38.8843 27.4524 36.8033 26.6777 34.9331C25.903 33.0628 24.5039 31.519 22.7186 30.5647C20.9333 29.6105 18.8723 29.3047 16.8869 29.6996C14.9014 30.0945 13.1143 31.1656 11.8301 32.7304C10.5458 34.2952 9.84382 36.2569 9.84375 38.2812C9.8446 40.6018 10.7664 42.8273 12.4067 44.4688ZM13.9533 33.6408C15.027 32.567 16.4398 31.8987 17.9509 31.7498C19.4621 31.6009 20.9782 31.9805 22.2408 32.8241C23.5034 33.6677 24.4344 34.923 24.8753 36.3761C25.3161 37.8292 25.2394 39.3902 24.6584 40.7931C24.0773 42.196 23.0277 43.354 21.6885 44.0698C20.3493 44.7856 18.8034 45.015 17.3141 44.7187C15.8247 44.4224 14.4842 43.6189 13.5209 42.4451C12.5577 41.2712 12.0312 39.7997 12.0312 38.2812C12.0311 37.4194 12.2007 36.566 12.5305 35.7697C12.8603 34.9735 13.3438 34.2501 13.9533 33.6408Z" fill="#151A6A"></path></svg>