<svg xmlns="http://www.w3.org/2000/svg" width="70" height="70" viewBox="0 0 70 70" fill="none"><path d="M13.1729 48.4882C13.4321 48.6186 13.7324 48.6407 14.0078 48.5497C14.2832 48.4586 14.5112 48.2619 14.6416 48.0028C14.772 47.7436 14.7941 47.4433 14.703 47.1679C14.612 46.8925 14.4152 46.6645 14.1561 46.5341C14.1331 46.5224 11.8848 45.3453 11.8848 43.2032C11.8848 41.0675 14.1198 39.891 14.1556 39.8728C14.4141 39.7421 14.6102 39.5142 14.7009 39.2391C14.7916 38.964 14.7694 38.6641 14.6393 38.4053C14.5092 38.1465 14.2817 37.9498 14.0068 37.8585C13.7319 37.7672 13.432 37.7886 13.1729 37.9182C13.0309 37.9892 9.69727 39.6966 9.69727 43.2032C9.69727 46.7097 13.0309 48.4172 13.1729 48.4882Z" fill="#151A6A"></path><path d="M44.5797 37.1438C42.5814 37.5451 40.7326 38.4902 39.237 39.8749C35.1509 43.9615 35.756 48.0075 36.9726 52.8728C37.8161 56.0361 39.8256 58.763 42.5973 60.5055C43.0643 60.8019 43.5863 61.0013 44.132 61.0919C44.6777 61.1824 45.2361 61.1623 45.7738 61.0326C48.4324 60.1466 48.3191 57.5511 47.8428 53.692C47.3636 49.8323 47.3207 49.2745 49.666 45.5941C51.5438 42.6483 52.5853 40.7347 50.45 38.599C49.6756 37.8781 48.7303 37.3662 47.7032 37.1116C46.6762 36.857 45.6013 36.8681 44.5797 37.1438Z" fill="#B5E7F3"></path><path d="M44.8438 20.7812C40.0846 20.7812 35.4324 22.1925 31.4754 24.8365C27.5183 27.4805 24.4341 31.2386 22.6129 35.6354C20.7917 40.0323 20.3152 44.8704 21.2436 49.5381C22.1721 54.2058 24.4638 58.4933 27.829 61.8585C31.1942 65.2237 35.4817 67.5154 40.1494 68.4439C44.8171 69.3723 49.6552 68.8958 54.0521 67.0746C58.4489 65.2534 62.207 62.1692 64.851 58.2122C67.495 54.2551 68.9063 49.6029 68.9063 44.8438C68.8991 38.4642 66.3616 32.348 61.8506 27.837C57.3395 23.3259 51.2233 20.7885 44.8438 20.7812ZM49.3099 27.6172C49.8146 27.6172 50.3081 27.7668 50.7278 28.0473C51.1475 28.3277 51.4746 28.7263 51.6678 29.1926C51.8609 29.659 51.9115 30.1721 51.813 30.6672C51.7145 31.1622 51.4715 31.617 51.1145 31.9739C50.7576 32.3308 50.3029 32.5739 49.8078 32.6724C49.3127 32.7708 48.7996 32.7203 48.3333 32.5271C47.8669 32.3339 47.4683 32.0068 47.1879 31.5871C46.9075 31.1674 46.7578 30.674 46.7578 30.1692C46.7578 29.4924 47.0267 28.8433 47.5053 28.3647C47.9839 27.8861 48.633 27.6172 49.3099 27.6172ZM43.5677 28.5742C43.9463 28.5742 44.3163 28.6865 44.6311 28.8968C44.9459 29.1071 45.1912 29.4061 45.3361 29.7558C45.4809 30.1055 45.5188 30.4904 45.445 30.8617C45.3711 31.233 45.1888 31.574 44.9211 31.8417C44.6535 32.1094 44.3124 32.2917 43.9411 32.3656C43.5698 32.4394 43.185 32.4015 42.8352 32.2566C42.4855 32.1118 42.1865 31.8664 41.9762 31.5517C41.7659 31.2369 41.6536 30.8668 41.6536 30.4883C41.6536 29.9806 41.8553 29.4938 42.2142 29.1348C42.5732 28.7759 43.0601 28.5742 43.5677 28.5742ZM38.4636 30.8073C38.8421 30.8073 39.2122 30.9196 39.527 31.1299C39.8417 31.3402 40.0871 31.6392 40.2319 31.9889C40.3768 32.3386 40.4147 32.7235 40.3409 33.0948C40.267 33.4661 40.0847 33.8071 39.817 34.0748C39.5493 34.3425 39.2083 34.5248 38.837 34.5987C38.4657 34.6725 38.0808 34.6346 37.7311 34.4897C37.3813 34.3449 37.0824 34.0995 36.8721 33.7848C36.6618 33.47 36.5495 33.0999 36.5495 32.7214C36.5495 32.2137 36.7512 31.7269 37.1101 31.3679C37.4691 31.009 37.9559 30.8073 38.4636 30.8073ZM32.0833 36.5495C32.0833 36.1709 32.1956 35.8009 32.4059 35.4861C32.6162 35.1713 32.9152 34.926 33.2649 34.7811C33.6146 34.6363 33.9995 34.5984 34.3708 34.6722C34.7421 34.7461 35.0831 34.9284 35.3508 35.1961C35.6185 35.4637 35.8008 35.8048 35.8747 36.1761C35.9485 36.5474 35.9106 36.9322 35.7657 37.282C35.6209 37.6317 35.3755 37.9307 35.0608 38.141C34.746 38.3513 34.3759 38.4636 33.9974 38.4636C33.4897 38.4636 33.0029 38.2619 32.6439 37.903C32.285 37.544 32.0833 37.0571 32.0833 36.5495ZM51.5109 46.7701C49.4722 49.9691 49.5953 50.0277 50.0134 53.4239C50.4396 56.8697 51.0217 61.5891 46.4662 63.108C45.6432 63.3417 44.7805 63.4015 43.9332 63.2835C43.0858 63.1655 42.2722 62.8724 41.5444 62.4228C38.2378 60.3874 35.841 57.158 34.8505 53.4036C33.5613 48.2452 32.8077 43.2106 37.6906 38.3283C39.4915 36.6378 41.729 35.4845 44.1506 34.9984C45.5255 34.6499 46.9662 34.6556 48.3383 35.0147C49.7104 35.3739 50.9691 36.075 51.9969 37.0524C55.4833 40.5377 53.1868 44.1399 51.5109 46.7701ZM55.6902 36.5495C55.0592 36.5495 54.4424 36.3624 53.9178 36.0119C53.3932 35.6614 52.9843 35.1632 52.7428 34.5802C52.5013 33.9973 52.4381 33.3559 52.5612 32.7371C52.6843 32.1182 52.9881 31.5498 53.4343 31.1036C53.8804 30.6575 54.4488 30.3536 55.0677 30.2305C55.6865 30.1074 56.3279 30.1706 56.9109 30.4121C57.4938 30.6535 57.992 31.0624 58.3426 31.587C58.6931 32.1116 58.8802 32.7284 58.8802 33.3594C58.8802 34.2054 58.5441 35.0168 57.9459 35.6151C57.3476 36.2134 56.5362 36.5495 55.6902 36.5495Z" fill="#B5E7F3"></path><path d="M8.96519 55.7813H10.318C12.6572 55.7818 14.9812 55.4047 17.2004 54.6646C20.5661 53.5436 24.1731 53.3573 27.6364 54.1258C32.4331 55.2236 37.3381 55.779 42.2589 55.7813H42.3828C44.1952 55.7793 45.9327 55.0584 47.2143 53.7769C48.4958 52.4953 49.2167 50.7578 49.2187 48.9454C49.2176 47.8942 48.7995 46.8864 48.0562 46.1431C47.3129 45.3997 46.3051 44.9817 45.2539 44.9805H40.2476C39.6076 44.9617 38.9718 44.8696 38.3528 44.706C33.7539 43.7095 29.428 41.7208 25.6775 38.8789C24.9628 38.3329 24.3845 37.6286 23.9879 36.8214C23.5913 36.0142 23.3872 35.1261 23.3917 34.2267C23.4755 23.1648 23.9514 17.1972 24.3343 12.4019C24.6222 8.7933 24.8497 5.94305 24.8107 2.17634C24.8111 2.03217 24.7826 1.88938 24.7269 1.75639C24.6712 1.6234 24.5895 1.50291 24.4865 1.40201C24.3835 1.30112 24.2614 1.22187 24.1273 1.16893C23.9932 1.116 23.8498 1.09045 23.7057 1.0938C23.4156 1.09679 23.1386 1.21488 22.9356 1.4221C22.7326 1.62932 22.6202 1.90869 22.6232 2.19877C22.6611 5.86721 22.4373 8.67422 22.1537 12.2278C21.7682 17.0578 21.2886 23.0697 21.2042 34.2102C21.1979 35.4495 21.479 36.6733 22.0256 37.7856C22.5721 38.8979 23.3692 39.8682 24.3541 40.6205C28.36 43.6559 32.9804 45.78 37.8924 46.8444C38.6622 47.0437 39.4526 47.1523 40.2476 47.168H45.2539C45.7251 47.1685 46.1769 47.3559 46.5101 47.6891C46.8434 48.0223 47.0308 48.4741 47.0312 48.9454C47.0298 50.1778 46.5397 51.3593 45.6682 52.2308C44.7968 53.1022 43.6152 53.5924 42.3828 53.5938H42.2589C37.4991 53.5689 32.7558 53.0314 28.1112 51.9906C24.2609 51.1348 20.2505 51.3417 16.5088 52.5892C14.5127 53.2551 12.4222 53.5943 10.318 53.5938H8.96519C7.55684 53.6174 6.19118 53.1102 5.13973 52.1729C4.08827 51.2356 3.42804 49.937 3.2903 48.5352C3.2335 47.5556 3.44903 46.5794 3.913 45.7149C6.30977 41.5583 7.49213 36.8126 7.32563 32.0174C7.09844 28.2012 6.67383 24.3993 6.05351 20.627C5.04351 14.5361 4.59675 8.3652 4.71889 2.1924C4.72015 1.90233 4.60613 1.62363 4.40192 1.41761C4.19771 1.21159 3.92002 1.09513 3.62994 1.09384H3.62514C3.3359 1.09386 3.05843 1.20844 2.85346 1.41252C2.64848 1.61659 2.53268 1.89355 2.53139 2.18279C2.40727 8.46933 2.86243 14.754 3.8911 20.957C4.50056 24.6625 4.91822 28.397 5.14241 32.1456C5.28236 36.5354 4.18929 40.8765 1.98719 44.6767C1.33189 45.8967 1.02691 47.2743 1.106 48.657C1.25912 50.6233 2.15843 52.4566 3.61965 53.7811C5.08088 55.1057 6.99335 55.8214 8.96519 55.7813Z" fill="#151A6A"></path></svg>