<svg xmlns="http://www.w3.org/2000/svg" id="Capa_1" x="0px" y="0px" viewBox="0 0 140 140">
<style type="text/css">
.st0{fill:none;stroke:#5FBCD3;stroke-width:2;}
.st1{fill:#B5E7F3;}
.st2{fill:#151A6A;}
</style>
<circle class="st0" cx="70" cy="70" r="69"/>
<g transform="translate(35,35) scale(1)">
<svg xmlns="http://www.w3.org/2000/svg" width="70" height="70" viewBox="0 0 70 70" ><path d="M51.1946 37.1875H38.4925C38.2066 37.2173 37.9408 37.3483 37.743 37.5569C37.5452 37.7655 37.4284 38.0379 37.4137 38.325C36.7427 42.4061 37.4357 46.5945 39.3855 50.242C39.8969 51.2502 40.6776 52.0971 41.6409 52.6887C42.6043 53.2804 43.7127 53.5936 44.8432 53.5937C45.9738 53.5938 47.0822 53.2808 48.0457 52.6894C49.0092 52.0979 49.79 51.2512 50.3016 50.2431C52.2512 46.5952 52.9443 42.4064 52.2734 38.325C52.2587 38.0379 52.142 37.7655 51.9442 37.5569C51.7463 37.3483 51.4805 37.2173 51.1946 37.1875Z" fill="#B5E7F3"></path><path d="M28.4375 43.75C29.6456 43.75 30.625 42.7706 30.625 41.5625C30.625 40.3544 29.6456 39.375 28.4375 39.375C27.2294 39.375 26.25 40.3544 26.25 41.5625C26.25 42.7706 27.2294 43.75 28.4375 43.75Z" fill="#B5E7F3"></path><path d="M61.25 43.75C62.4581 43.75 63.4375 42.7706 63.4375 41.5625C63.4375 40.3544 62.4581 39.375 61.25 39.375C60.0419 39.375 59.0625 40.3544 59.0625 41.5625C59.0625 42.7706 60.0419 43.75 61.25 43.75Z" fill="#B5E7F3"></path><path d="M65.625 27.3438H24.0625C23.1925 27.3447 22.3585 27.6907 21.7434 28.3059C21.1282 28.921 20.7822 29.755 20.7812 30.625V65.625C20.7822 66.4949 21.1282 67.329 21.7434 67.9441C22.3585 68.5593 23.1925 68.9053 24.0625 68.9062H65.625C66.4949 68.9053 67.329 68.5593 67.9441 67.9441C68.5593 67.329 68.9053 66.4949 68.9062 65.625V30.625C68.9053 29.755 68.5593 28.921 67.9441 28.3059C67.329 27.6907 66.4949 27.3447 65.625 27.3438ZM37.1875 64.5312H24.0625C23.7724 64.5312 23.4942 64.416 23.2891 64.2109C23.084 64.0058 22.9688 63.7276 22.9688 63.4375C22.9688 63.1474 23.084 62.8692 23.2891 62.6641C23.4942 62.459 23.7724 62.3438 24.0625 62.3438H37.1875C37.4776 62.3438 37.7558 62.459 37.9609 62.6641C38.166 62.8692 38.2812 63.1474 38.2812 63.4375C38.2812 63.7276 38.166 64.0058 37.9609 64.2109C37.7558 64.416 37.4776 64.5312 37.1875 64.5312ZM37.1875 59.0625H24.0625C23.7724 59.0625 23.4942 58.9473 23.2891 58.7421C23.084 58.537 22.9688 58.2588 22.9688 57.9688C22.9688 57.6787 23.084 57.4005 23.2891 57.1954C23.4942 56.9902 23.7724 56.875 24.0625 56.875H37.1875C37.4776 56.875 37.7558 56.9902 37.9609 57.1954C38.166 57.4005 38.2812 57.6787 38.2812 57.9688C38.2812 58.2588 38.166 58.537 37.9609 58.7421C37.7558 58.9473 37.4776 59.0625 37.1875 59.0625ZM65.625 60.1562H62.3438V63.4375C62.3438 63.7276 62.2285 64.0058 62.0234 64.2109C61.8183 64.416 61.5401 64.5312 61.25 64.5312C60.9599 64.5312 60.6817 64.416 60.4766 64.2109C60.2715 64.0058 60.1562 63.7276 60.1562 63.4375V60.1562H56.875C56.5849 60.1562 56.3067 60.041 56.1016 59.8359C55.8965 59.6308 55.7812 59.3526 55.7812 59.0625C55.7812 58.7724 55.8965 58.4942 56.1016 58.2891C56.3067 58.084 56.5849 57.9688 56.875 57.9688H60.1562V54.6875C60.1562 54.3974 60.2715 54.1192 60.4766 53.9141C60.6817 53.709 60.9599 53.5938 61.25 53.5938C61.5401 53.5938 61.8183 53.709 62.0234 53.9141C62.2285 54.1192 62.3438 54.3974 62.3438 54.6875V57.9688H65.625C65.9151 57.9688 66.1933 58.084 66.3984 58.2891C66.6035 58.4942 66.7188 58.7724 66.7188 59.0625C66.7188 59.3526 66.6035 59.6308 66.3984 59.8359C66.1933 60.041 65.9151 60.1562 65.625 60.1562ZM65.4852 40.5187C65.5741 40.8596 65.621 41.2102 65.625 41.5625C65.6314 42.5773 65.2871 43.5631 64.6503 44.3532C64.0134 45.1433 63.1233 45.6892 62.1303 45.8985C61.1373 46.1078 60.1025 45.9677 59.201 45.5018C58.2994 45.0359 57.5865 44.2729 57.1828 43.3419C56.779 42.4109 56.7093 41.369 56.9854 40.3925C57.2615 39.4159 57.8664 38.5648 58.6979 37.9829C59.5293 37.4011 60.5362 37.1244 61.5482 37.1995C62.5602 37.2746 63.5152 37.697 64.2516 38.3953C64.4329 37.9915 64.5281 37.5543 64.5312 37.1117C64.5312 32.9439 59.1399 33.3862 55.6531 35.4774L53.8847 36.5385C54.1713 36.9838 54.3597 37.4851 54.4376 38.0089C55.1796 42.5652 54.3979 47.239 52.2137 51.3058C51.5791 52.4744 50.6819 53.4799 49.5929 54.243C48.5038 55.0062 47.2526 55.5062 45.9375 55.7039V63.4375C45.9375 63.7276 45.8223 64.0058 45.6171 64.2109C45.412 64.416 45.1338 64.5312 44.8438 64.5312C44.5537 64.5312 44.2755 64.416 44.0704 64.2109C43.8652 64.0058 43.75 63.7276 43.75 63.4375V55.7039C42.4348 55.5062 41.1835 55.006 40.0944 54.2427C39.0053 53.4793 38.1082 52.4737 37.4738 51.3048C35.2869 47.2392 34.5051 42.5648 35.2499 38.0089C35.3278 37.4851 35.5162 36.9839 35.8028 36.5385L34.0344 35.4775C30.5507 33.3881 25.1562 32.9415 25.1562 37.1117C25.1594 37.5543 25.2546 37.9915 25.4359 38.3953C26.2178 37.6394 27.2467 37.1919 28.3328 37.1353C29.4188 37.0786 30.4887 37.4168 31.345 38.0873C32.2012 38.7577 32.7861 39.7153 32.9915 40.7832C33.197 41.8512 33.0093 42.9574 32.463 43.8978C31.9167 44.8381 31.0487 45.5491 30.0192 45.8996C28.9897 46.25 27.8681 46.2163 26.8616 45.8045C25.855 45.3928 25.0313 44.6309 24.5426 43.6593C24.0538 42.6878 23.9329 41.5723 24.2023 40.5187C23.4093 39.5599 22.9733 38.3559 22.9688 37.1117C22.9688 32.3277 28.5756 29.6518 35.1602 33.6018L37.6899 35.1196C37.951 35.0441 38.221 35.0039 38.4927 35H51.1948C51.4665 35.0039 51.7365 35.0441 51.9976 35.1196L54.5273 33.6018C61.1121 29.6516 66.7188 32.3271 66.7188 37.1117C66.7142 38.3559 66.2782 39.5599 65.4852 40.5187Z" fill="#B5E7F3"></path><path d="M36.7827 18.9537L40.5468 20.4593C40.7042 21.573 41.2013 22.611 41.9702 23.4318C42.7392 24.2526 43.7427 24.8162 44.8438 25.0457V31.2659L44.5233 30.9454C44.3178 30.7422 44.0402 30.6287 43.7513 30.6295C43.4623 30.6303 43.1854 30.7455 42.9811 30.9498C42.7768 31.1542 42.6616 31.4311 42.6608 31.72C42.66 32.009 42.7736 32.2865 42.9767 32.492L45.1642 34.6795C45.2658 34.7811 45.3863 34.8617 45.519 34.9167C45.6517 34.9717 45.7939 35 45.9375 35C46.0812 35 46.2234 34.9717 46.3561 34.9167C46.4888 34.8617 46.6093 34.7811 46.7108 34.6795L48.8983 32.492C49.0009 32.3907 49.0825 32.2701 49.1383 32.1371C49.1941 32.0042 49.2231 31.8615 49.2235 31.7173C49.224 31.5731 49.1959 31.4302 49.1409 31.2969C49.086 31.1636 49.0052 31.0425 48.9032 30.9406C48.8012 30.8386 48.6801 30.7578 48.5468 30.7028C48.4135 30.6479 48.2706 30.6198 48.1264 30.6203C47.9822 30.6207 47.8396 30.6497 47.7066 30.7055C47.5736 30.7613 47.453 30.8429 47.3517 30.9455L47.0312 31.2659V25.0458C48.1769 24.8066 49.2155 24.2058 49.994 23.3318C50.7725 22.4579 51.2497 21.357 51.3553 20.1914C52.7427 18.9403 53.8532 17.4128 54.6154 15.7071C55.3776 14.0015 55.7747 12.1552 55.7812 10.287C55.7772 9.16514 55.4545 8.0675 54.8508 7.12189C54.2471 6.17629 53.3872 5.42162 52.3712 4.94576C51.3553 4.4699 50.225 4.29242 49.1121 4.43399C47.9992 4.57555 46.9494 5.03034 46.0849 5.74539C43.761 7.67583 40.9822 8.98007 38.0124 9.53422C36.9917 4.70471 33.0914 1.09375 28.4375 1.09375C23.7836 1.09375 19.8833 4.70465 18.8626 9.53422C15.8931 8.98021 13.1146 7.67597 10.7912 5.74547C9.92688 5.02953 8.87691 4.574 7.76363 4.43196C6.65036 4.28992 5.51964 4.46722 4.50328 4.94321C3.48692 5.4192 2.62678 6.17426 2.02312 7.12038C1.41946 8.06651 1.09715 9.16472 1.09375 10.287C1.10074 12.1551 1.49807 14.0012 2.26025 15.7068C3.02243 17.4124 4.13264 18.9399 5.51969 20.1913C5.63651 21.5235 6.23993 22.766 7.2147 23.6815C8.18947 24.597 9.46731 25.1214 10.8042 25.1546C12.1411 25.1877 13.4433 24.7273 14.4623 23.8612C15.4812 22.9951 16.1455 21.7841 16.3282 20.4593L20.0923 18.9537C20.9222 22.5309 21.1871 26.216 20.8774 29.8752C20.8133 30.6624 20.7812 31.4667 20.7812 32.2656C20.7812 33.1884 20.829 34.1027 20.914 35H15.7654L16.0858 34.6795C16.2888 34.474 16.4022 34.1965 16.4013 33.9077C16.4004 33.6188 16.2852 33.342 16.081 33.1378C15.8767 32.9335 15.5999 32.8184 15.3111 32.8175C15.0222 32.8166 14.7447 32.93 14.5392 33.133L12.3517 35.3205C12.2501 35.422 12.1695 35.5426 12.1146 35.6752C12.0596 35.8079 12.0313 35.9502 12.0313 36.0938C12.0313 36.2374 12.0596 36.3796 12.1146 36.5123C12.1695 36.645 12.2501 36.7656 12.3517 36.8671L14.5392 39.0546C14.6405 39.1572 14.7612 39.2387 14.8941 39.2946C15.0271 39.3504 15.1698 39.3793 15.3139 39.3798C15.4581 39.3802 15.601 39.3522 15.7343 39.2972C15.8676 39.2422 15.9887 39.1614 16.0907 39.0594C16.1927 38.9575 16.2734 38.8364 16.3284 38.7031C16.3834 38.5697 16.4114 38.4269 16.411 38.2827C16.4105 38.1385 16.3816 37.9958 16.3258 37.8629C16.2699 37.7299 16.1884 37.6093 16.0858 37.508L15.7653 37.1875H21.2063C21.4555 38.648 21.8553 40.0787 22.3994 41.4568C24.161 45.6485 25.0971 50.141 25.1562 54.6875C25.1562 54.8312 25.1844 54.9734 25.2393 55.1062C25.2943 55.2389 25.3748 55.3595 25.4764 55.4611C25.578 55.5627 25.6986 55.6432 25.8313 55.6982C25.9641 55.7531 26.1063 55.7813 26.25 55.7812H30.625C30.9192 55.7722 31.1983 55.6485 31.4026 55.4366C31.607 55.2247 31.7204 54.9413 31.7188 54.6469C31.7821 50.114 32.7181 45.6356 34.4756 41.4568C35.5835 38.5208 36.1323 35.4034 36.0938 32.2656C36.0938 31.4667 36.0617 30.6624 35.9976 29.8752C35.6879 26.216 35.9528 22.5309 36.7827 18.9537ZM45.9375 22.9688C45.2885 22.9688 44.6541 22.7763 44.1145 22.4158C43.5749 22.0552 43.1544 21.5427 42.906 20.9432C42.6577 20.3436 42.5927 19.6839 42.7193 19.0474C42.8459 18.4109 43.1584 17.8262 43.6173 17.3673C44.0762 16.9084 44.6609 16.5959 45.2974 16.4693C45.9339 16.3427 46.5936 16.4077 47.1932 16.656C47.7927 16.9044 48.3052 17.3249 48.6658 17.8645C49.0263 18.4041 49.2188 19.0385 49.2188 19.6875C49.2178 20.5574 48.8718 21.3915 48.2566 22.0066C47.6415 22.6218 46.8074 22.9678 45.9375 22.9688ZM47.4852 7.42656C48.0297 6.97589 48.691 6.68918 49.3921 6.59985C50.0933 6.51051 50.8054 6.62222 51.4455 6.92196C52.0856 7.2217 52.6274 7.69714 53.0077 8.29289C53.388 8.88865 53.5913 9.58021 53.5938 10.287C53.5985 12.9243 52.6513 15.4747 50.9261 17.4694C50.4752 16.4446 49.7191 15.5838 48.7611 15.0044C47.8031 14.4249 46.6897 14.155 45.5727 14.2314C44.4557 14.3079 43.3894 14.7269 42.5193 15.4315C41.6491 16.136 41.0174 17.0918 40.7102 18.1684L37.3601 16.8284C37.9907 15.1992 38.2987 13.4629 38.2669 11.7162C41.6591 11.1081 44.8354 9.63002 47.4852 7.42656ZM28.4375 3.28125C31.982 3.28125 34.9636 6.05301 35.8312 9.79688C34.6941 9.86614 22.1879 9.86656 21.0439 9.79688C21.9114 6.05301 24.893 3.28125 28.4375 3.28125ZM28.3927 20.386C27.2809 19.3064 26.4098 18.004 25.8366 16.5642C25.2634 15.1243 25.001 13.5796 25.0666 12.0312H31.7184C31.7841 13.5796 31.5219 15.1243 30.9487 16.5642C30.3756 18.004 29.5045 19.3065 28.3927 20.386ZM10.9375 22.9688C10.2885 22.9688 9.65413 22.7763 9.11454 22.4158C8.57494 22.0552 8.15437 21.5427 7.90602 20.9432C7.65767 20.3436 7.59269 19.6839 7.7193 19.0474C7.84591 18.4109 8.15841 17.8262 8.61731 17.3673C9.0762 16.9084 9.66086 16.5959 10.2974 16.4693C10.9339 16.3427 11.5936 16.4077 12.1932 16.656C12.7928 16.9044 13.3052 17.3249 13.6658 17.8645C14.0263 18.4041 14.2188 19.0385 14.2188 19.6875C14.2178 20.5574 13.8718 21.3915 13.2566 22.0066C12.6415 22.6218 11.8075 22.9678 10.9375 22.9688ZM16.1648 18.1684C15.8576 17.0918 15.2259 16.136 14.3558 15.4315C13.4856 14.7269 12.4194 14.3079 11.3023 14.2314C10.1853 14.155 9.07192 14.4249 8.1139 15.0044C7.15589 15.5838 6.39988 16.4446 5.94894 17.4694C4.22374 15.4747 3.27647 12.9243 3.28125 10.287C3.28327 9.57989 3.48628 8.88791 3.86661 8.29178C4.24694 7.69565 4.78891 7.21992 5.42932 6.92009C6.06973 6.62026 6.78219 6.50867 7.48361 6.59834C8.18502 6.68802 8.84649 6.97526 9.39087 7.42656C12.0402 9.63013 15.2162 11.1082 18.6081 11.7161C18.5796 13.4626 18.8875 15.1982 19.5149 16.8284L16.1648 18.1684ZM33.8166 30.0525C33.8764 30.7809 33.9062 31.5265 33.9062 32.2656C33.9455 35.1223 33.4511 37.9612 32.4483 40.6364C30.7309 44.7525 29.7501 49.1383 29.5505 53.5938H27.3256C27.1268 49.1381 26.1455 44.7521 24.4267 40.6364C23.4239 37.9612 22.9295 35.1223 22.9688 32.2656C22.9688 31.5265 22.9987 30.7809 23.0584 30.0525C23.9047 19.6366 20.7812 15.9585 20.7812 12.0312C20.7812 12.0116 20.7837 11.9926 20.7839 11.973C22.1849 12.0673 22.0565 12.017 22.8805 12.0312C22.8116 13.978 23.1763 15.9157 23.9482 17.7042C24.7201 19.4927 25.8799 21.0872 27.3438 22.3725V42.6562C27.3438 42.9463 27.459 43.2245 27.6641 43.4296C27.8692 43.6348 28.1474 43.75 28.4375 43.75C28.7276 43.75 29.0058 43.6348 29.2109 43.4296C29.416 43.2245 29.5312 42.9463 29.5312 42.6562V22.2969C30.9682 21.011 32.1048 19.4248 32.8607 17.6509C33.6166 15.8769 33.9732 13.9584 33.9052 12.0312C34.5473 12.0207 34.7544 12.063 36.0911 11.973C36.1177 15.8836 32.9761 19.7084 33.8166 30.0525Z" fill="#151A6A"></path><path d="M52.5 37.1875H39.375C39.2313 37.1874 39.0891 37.2157 38.9563 37.2706C38.8236 37.3255 38.703 37.4061 38.6014 37.5077C38.4998 37.6092 38.4193 37.7299 38.3643 37.8626C38.3094 37.9953 38.2812 38.1376 38.2813 38.2813V44.8438C38.2812 44.9874 38.3094 45.1297 38.3643 45.2624C38.4193 45.3951 38.4998 45.5158 38.6014 45.6173C38.703 45.7189 38.8236 45.7995 38.9563 45.8544C39.0891 45.9093 39.2313 45.9376 39.375 45.9375H52.5C52.6437 45.9376 52.7859 45.9093 52.9187 45.8544C53.0514 45.7995 53.172 45.7189 53.2736 45.6173C53.3752 45.5158 53.4557 45.3951 53.5107 45.2624C53.5656 45.1297 53.5938 44.9874 53.5938 44.8438V38.2813C53.5938 38.1376 53.5656 37.9953 53.5107 37.8626C53.4557 37.7299 53.3752 37.6092 53.2736 37.5077C53.172 37.4061 53.0514 37.3255 52.9187 37.2706C52.7859 37.2157 52.6437 37.1874 52.5 37.1875ZM51.4062 43.75H40.4688V39.375H51.4062V43.75Z" fill="#151A6A"></path><path d="M8.75 28.4375H2.1875C2.04384 28.4374 1.90158 28.4657 1.76884 28.5206C1.63611 28.5755 1.5155 28.6561 1.41392 28.7577C1.31234 28.8593 1.23178 28.9799 1.17684 29.1126C1.1219 29.2453 1.09367 29.3876 1.09375 29.5313V42.6562C1.09367 42.7999 1.1219 42.9422 1.17684 43.0749C1.23178 43.2076 1.31234 43.3283 1.41392 43.4298C1.5155 43.5314 1.63611 43.612 1.76884 43.6669C1.90158 43.7218 2.04384 43.7501 2.1875 43.75H8.75C8.89366 43.7501 9.03592 43.7218 9.16866 43.6669C9.30139 43.612 9.422 43.5314 9.52358 43.4298C9.62516 43.3283 9.70572 43.2076 9.76066 43.0749C9.8156 42.9422 9.84383 42.7999 9.84375 42.6562V29.5313C9.84383 29.3876 9.8156 29.2453 9.76066 29.1126C9.70572 28.9799 9.62516 28.8593 9.52358 28.7577C9.422 28.6561 9.30139 28.5755 9.16866 28.5206C9.03592 28.4657 8.89366 28.4374 8.75 28.4375ZM7.65625 41.5625H3.28125V30.625H7.65625V41.5625Z" fill="#151A6A"></path></svg>
</g>
</svg>
