<svg xmlns="http://www.w3.org/2000/svg" id="Capa_1" x="0px" y="0px" viewBox="0 0 140 140">
<style type="text/css">
.st0{fill:none;stroke:#5FBCD3;stroke-width:2;}
.st1{fill:#B5E7F3;}
.st2{fill:#151A6A;}
</style>
<circle class="st0" cx="70" cy="70" r="69"/>
<g transform="translate(35,35) scale(1)">
<svg xmlns="http://www.w3.org/2000/svg" width="70" height="70" viewBox="0 0 70 70" fill="none"><path d="M64.7047 29.9293H61.115C60.713 29.9266 60.3167 30.0242 59.9618 30.2131C59.6069 30.402 59.3047 30.6763 59.0824 31.0113C58.8601 31.3463 58.7247 31.7313 58.6885 32.1317C58.6523 32.5321 58.7164 32.9352 58.875 33.3046C59.5316 34.7884 59.8073 36.4127 59.677 38.0301C59.5467 39.6475 59.0146 41.2067 58.1289 42.5663C57.2433 43.9259 56.0321 45.0428 54.6054 45.8156C53.1786 46.5885 51.5815 46.9928 49.9588 46.9919C48.3362 46.991 46.7395 46.5849 45.3136 45.8105C43.8878 45.0361 42.6778 43.9178 41.7937 42.5573C40.9095 41.1967 40.3791 39.6369 40.2506 38.0194C40.1221 36.4019 40.3996 34.7779 41.0578 33.2947C41.2148 32.9253 41.2774 32.5226 41.24 32.1229C41.2025 31.7233 41.0662 31.3392 40.8434 31.0053C40.6205 30.6715 40.3181 30.3983 39.9633 30.2105C39.6086 30.0226 39.2127 29.926 38.8113 29.9293H34.13C33.1608 29.9293 32.2314 30.3143 31.5461 30.9996C30.8608 31.6849 30.4758 32.6143 30.4758 33.5835V40.9915C28.9948 40.1314 27.3134 39.6768 25.6008 39.6735C23.8882 39.6702 22.205 40.1184 20.7208 40.9728C19.2366 41.8271 18.0037 43.0576 17.1465 44.5402C16.2892 46.0228 15.8379 47.7051 15.8379 49.4177C15.8379 51.1303 16.2892 52.8126 17.1465 54.2952C18.0037 55.7778 19.2366 57.0083 20.7208 57.8627C22.205 58.7171 23.8882 59.1652 25.6008 59.1619C27.3134 59.1586 28.9948 58.7041 30.4758 57.844V65.2519C30.4758 66.2211 30.8608 67.1506 31.5461 67.8359C32.2314 68.5212 33.1608 68.9062 34.13 68.9062H64.7047C65.6739 68.9062 66.6033 68.5212 67.2886 67.8359C67.9739 67.1506 68.3589 66.2211 68.3589 65.2519V33.5835C68.3589 32.6143 67.9739 31.6849 67.2886 30.9996C66.6033 30.3143 65.6739 29.9293 64.7047 29.9293ZM64.5308 63.3007C64.5308 63.627 64.4011 63.94 64.1704 64.1708C63.9396 64.4015 63.6267 64.5312 63.3003 64.5312H52.6363C52.3099 64.5312 51.9969 64.4015 51.7662 64.1708C51.5354 63.94 51.4058 63.627 51.4058 63.3007V60.8058C50.908 61.0967 50.3417 61.25 49.7652 61.2499C49.2612 61.2511 48.7637 61.1361 48.3113 60.914C47.8589 60.6919 47.4637 60.3685 47.1564 59.969C46.8492 59.5695 46.6381 59.1045 46.5396 58.6103C46.441 58.116 46.4577 57.6056 46.5882 57.1188C46.7187 56.632 46.9597 56.1818 47.2923 55.8032C47.6249 55.4245 48.0403 55.1276 48.5062 54.9354C48.9721 54.7432 49.476 54.6609 49.9789 54.6949C50.4817 54.7289 50.97 54.8783 51.4058 55.1315V52.6366C51.4058 52.3103 51.5354 51.9973 51.7662 51.7666C51.9969 51.5358 52.3099 51.4062 52.6363 51.4062H54.2134C54.3485 51.4052 54.4817 51.4379 54.601 51.5012C54.7203 51.5645 54.8221 51.6565 54.897 51.7688C54.972 51.8812 55.0178 52.0105 55.0304 52.1449C55.043 52.2794 55.022 52.4149 54.9692 52.5393C54.7825 52.957 54.6864 53.4095 54.687 53.8671C54.6864 54.3558 54.795 54.8385 55.0047 55.2799C55.2145 55.7213 55.5203 56.1102 55.8996 56.4183C56.279 56.7264 56.7224 56.9459 57.1974 57.0607C57.6724 57.1756 58.1671 57.1828 58.6453 57.082C59.1235 56.9812 59.5731 56.7748 59.9614 56.4779C60.3496 56.1811 60.6666 55.8013 60.8892 55.3662C61.1119 54.9312 61.2345 54.4519 61.2482 53.9633C61.2619 53.4748 61.1664 52.9894 60.9684 52.5426C60.9153 52.4181 60.8939 52.2824 60.9063 52.1477C60.9186 52.013 60.9643 51.8834 61.0391 51.7707C61.114 51.658 61.2157 51.5656 61.3351 51.502C61.4545 51.4384 61.5878 51.4054 61.7231 51.4062H63.3003C63.6267 51.4062 63.9396 51.5358 64.1704 51.7666C64.4011 51.9973 64.5308 52.3103 64.5308 52.6366V63.3007Z" fill="#B5E7F3"></path><path d="M2.73429 55.7813C3.02437 55.7813 3.30257 55.666 3.50769 55.4609C3.71281 55.2558 3.82804 54.9776 3.82804 54.6875V19.0575C3.76187 15.0604 5.23954 11.1916 7.95355 8.25637C10.6676 5.32111 14.4089 3.5454 18.399 3.29877C20.4702 3.1971 22.5405 3.51743 24.4841 4.24031C26.4277 4.9632 28.2042 6.07355 29.7056 7.50396C31.207 8.93437 32.402 10.655 33.2181 12.5614C34.0342 14.4677 34.4543 16.5201 34.453 18.5938V25.1563C34.4534 25.3723 34.5173 25.5834 34.6368 25.7633L39.8244 33.5453C39.9104 33.6744 39.968 33.8202 39.9933 33.9732C40.0187 34.1262 40.0112 34.2829 39.9714 34.4327C39.9315 34.5826 39.8603 34.7223 39.7624 34.8425C39.6644 34.9628 39.5421 35.0608 39.4034 35.1302L35.0579 37.3035C34.8762 37.3942 34.7234 37.5338 34.6166 37.7065C34.5098 37.8792 34.4531 38.0782 34.453 38.2813V42.6563C34.453 42.9464 34.3378 43.2245 34.1327 43.4297C33.9276 43.6348 33.6494 43.75 33.3593 43.75H25.703C25.413 43.75 25.1348 43.8653 24.9296 44.0704C24.7245 44.2755 24.6093 44.5537 24.6093 44.8438V54.6875C24.6093 54.9776 24.7245 55.2558 24.9296 55.4609C25.1348 55.666 25.413 55.7813 25.703 55.7813C25.9931 55.7813 26.2713 55.666 26.4764 55.4609C26.6816 55.2558 26.7968 54.9776 26.7968 54.6875V45.9375H33.3593C34.2295 45.9375 35.0641 45.5918 35.6795 44.9765C36.2948 44.3611 36.6405 43.5265 36.6405 42.6563V38.9572L40.3823 37.0869C40.7985 36.8788 41.1656 36.5845 41.4594 36.2237C41.7532 35.8628 41.9668 35.4436 42.0862 34.9938C42.2056 34.5441 42.2279 34.0741 42.1518 33.615C42.0756 33.156 41.9027 32.7184 41.6444 32.3313L36.6405 24.8281V18.5938C36.6422 16.224 36.1622 13.8787 35.2298 11.7001C34.2974 9.5215 32.9319 7.55514 31.2163 5.92037C29.5008 4.2856 27.4708 3.01653 25.2498 2.19021C23.0288 1.3639 20.6631 0.997564 18.2962 1.11346C13.7443 1.38658 9.47302 3.40408 6.37081 6.74627C3.26861 10.0884 1.57437 14.498 1.64054 19.0575V54.6875C1.64054 54.9776 1.75577 55.2558 1.96089 55.4609C2.16601 55.666 2.44421 55.7813 2.73429 55.7813Z" fill="#151A6A"></path><path d="M26.7969 18.5938C27.375 18.5966 27.9416 18.7549 28.4375 19.052C28.6036 19.1479 28.792 19.1985 28.9838 19.1986C29.1756 19.1987 29.3641 19.1483 29.5303 19.0526C29.6965 18.9569 29.8346 18.8191 29.9308 18.6531C30.0269 18.4872 30.0777 18.2988 30.0781 18.107V14.2188C30.0781 13.3485 29.7324 12.5139 29.1171 11.8986C28.5017 11.2832 27.6671 10.9375 26.7969 10.9375H11.4844C10.6141 10.9375 9.77953 11.2832 9.16418 11.8986C8.54883 12.5139 8.20312 13.3485 8.20312 14.2188V29.5312C8.20312 30.4015 8.54883 31.2361 9.16418 31.8514C9.77953 32.4668 10.6141 32.8125 11.4844 32.8125H13.7813C13.707 33.1723 13.6704 33.5389 13.6719 33.9062C13.6719 35.3567 14.248 36.7477 15.2736 37.7732C16.2992 38.7988 17.6902 39.375 19.1406 39.375C20.591 39.375 21.982 38.7988 23.0076 37.7732C24.0332 36.7477 24.6094 35.3567 24.6094 33.9062C24.6109 33.5389 24.5742 33.1723 24.5 32.8125H26.7969C27.6671 32.8125 28.5017 32.4668 29.1171 31.8514C29.7324 31.2361 30.0781 30.4015 30.0781 29.5312V25.643C30.0777 25.4512 30.0269 25.2628 29.9308 25.0969C29.8346 24.9309 29.6965 24.7931 29.5303 24.6974C29.3641 24.6017 29.1756 24.5513 28.9838 24.5514C28.792 24.5515 28.6036 24.6021 28.4375 24.698C27.9416 24.9951 27.375 25.1534 26.7969 25.1562C25.9266 25.1562 25.092 24.8105 24.4767 24.1952C23.8613 23.5798 23.5156 22.7452 23.5156 21.875C23.5156 21.0048 23.8613 20.1702 24.4767 19.5548C25.092 18.9395 25.9266 18.5938 26.7969 18.5938ZM26.7969 27.3438C27.1643 27.3453 27.5308 27.3086 27.8906 27.2344V29.5312C27.8906 29.8213 27.7754 30.0995 27.5703 30.3046C27.3652 30.5098 27.087 30.625 26.7969 30.625H22.9086C22.7168 30.6254 22.5285 30.6762 22.3625 30.7724C22.1965 30.8685 22.0588 31.0066 21.963 31.1728C21.8673 31.339 21.817 31.5275 21.8171 31.7193C21.8172 31.9111 21.8677 32.0995 21.9636 32.2656C22.2609 32.7614 22.4192 33.3281 22.4219 33.9062C22.4219 34.7765 22.0762 35.6111 21.4608 36.2264C20.8455 36.8418 20.0109 37.1875 19.1406 37.1875C18.2704 37.1875 17.4358 36.8418 16.8204 36.2264C16.2051 35.6111 15.8594 34.7765 15.8594 33.9062C15.862 33.3281 16.0203 32.7614 16.3177 32.2656C16.4136 32.0995 16.4641 31.9111 16.4642 31.7193C16.4643 31.5275 16.4139 31.339 16.3182 31.1728C16.2225 31.0066 16.0847 30.8685 15.9188 30.7724C15.7528 30.6762 15.5645 30.6254 15.3727 30.625H11.4844C11.1943 30.625 10.9161 30.5098 10.711 30.3046C10.5059 30.0995 10.3906 29.8213 10.3906 29.5312V14.2188C10.3906 13.9287 10.5059 13.6505 10.711 13.4454C10.9161 13.2402 11.1943 13.125 11.4844 13.125H26.7969C27.087 13.125 27.3652 13.2402 27.5703 13.4454C27.7754 13.6505 27.8906 13.9287 27.8906 14.2188V16.5156C27.5308 16.4414 27.1643 16.4047 26.7969 16.4062C25.3465 16.4062 23.9555 16.9824 22.9299 18.008C21.9043 19.0336 21.3281 20.4246 21.3281 21.875C21.3281 23.3254 21.9043 24.7164 22.9299 25.742C23.9555 26.7676 25.3465 27.3438 26.7969 27.3438Z" fill="#151A6A"></path></svg>
</g>
</svg>
