<svg xmlns="http://www.w3.org/2000/svg" width="70" height="70" viewBox="0 0 70 70" fill="none"><path d="M46.4844 62.3438C49.4849 62.3401 52.3762 61.217 54.5923 59.194C56.8084 57.1711 58.1899 54.394 58.4665 51.4062H34.5023C34.7788 54.394 36.1603 57.1711 38.3764 59.194C40.5926 61.217 43.4838 62.3401 46.4844 62.3438Z" fill="#B5E7F3"></path><path d="M46.4844 25.1562C42.5693 25.1582 38.727 26.2149 35.3616 28.2153L22.9111 21.9903C22.7017 21.8864 22.4645 21.8523 22.2343 21.8929C22.0041 21.9335 21.7929 22.0467 21.6317 22.216C21.4704 22.3853 21.3676 22.6017 21.3383 22.8336C21.3089 23.0656 21.3546 23.3008 21.4686 23.5049L28.0669 35.2355C25.4477 39.3267 24.265 44.1735 24.7055 49.0113C25.146 53.8492 27.1845 58.4027 30.4995 61.9537C33.8144 65.5046 38.2173 67.851 43.0134 68.6225C47.8096 69.3941 52.7262 68.547 56.9876 66.2149C61.249 63.8828 64.6128 60.1983 66.5483 55.7427C68.4838 51.2871 68.881 46.3139 67.6771 41.6077C66.4731 36.9014 63.7367 32.7298 59.8994 29.751C56.062 26.7721 51.3422 25.1555 46.4844 25.1562ZM46.4844 64.5312C42.7146 64.527 39.1004 63.0276 36.4348 60.362C33.7692 57.6964 32.2698 54.0822 32.2656 50.3124C32.2656 50.0224 32.3809 49.7442 32.586 49.539C32.7911 49.3339 33.0693 49.2187 33.3594 49.2187H59.6094C59.8995 49.2187 60.1777 49.3339 60.3828 49.539C60.5879 49.7442 60.7031 50.0224 60.7031 50.3124C60.699 54.0822 59.1996 57.6964 56.5339 60.362C53.8683 63.0276 50.2541 64.527 46.4844 64.5312Z" fill="#B5E7F3"></path><path d="M16.9533 24.0625C13.9248 24.0625 10.9642 24.9606 8.44612 26.6431C5.92799 28.3257 3.96535 30.7172 2.80638 33.5152C1.64741 36.3132 1.34417 39.392 1.93501 42.3623C2.52585 45.3327 3.98422 48.0611 6.12571 50.2026C8.2672 52.3441 10.9956 53.8024 13.966 54.3933C16.9363 54.9841 20.0151 54.6809 22.8131 53.5219C25.6111 52.3629 28.0026 50.4003 29.6852 47.8822C31.3677 45.364 32.2658 42.4035 32.2658 39.375C32.2612 35.3153 30.6465 31.4231 27.7758 28.5524C24.9052 25.6818 21.013 24.067 16.9533 24.0625ZM16.9533 26.25C20.2425 26.2549 23.4102 27.4937 25.8301 29.7214C28.2501 31.9491 29.7463 35.0037 30.0228 38.2812H20.7814L17.8281 34.3436C17.7219 34.2144 17.5884 34.1103 17.4371 34.0388C17.2858 33.9674 17.1206 33.9303 16.9533 33.9303C16.786 33.9303 16.6208 33.9674 16.4696 34.0388C16.3183 34.1103 16.1848 34.2144 16.0786 34.3436L13.1252 38.2812H3.88375C4.16032 35.0037 5.65646 31.9491 8.07643 29.7214C10.4964 27.4937 13.6641 26.2549 16.9533 26.25ZM16.9533 52.5C13.6641 52.4951 10.4964 51.2563 8.07643 49.0286C5.65646 46.8009 4.16032 43.7463 3.88375 40.4688H13.672C13.8418 40.4689 14.0093 40.4294 14.1611 40.3535C14.313 40.2775 14.4451 40.1673 14.5468 40.0314L16.9533 36.8227L19.3597 40.0314C19.4615 40.1673 19.5936 40.2775 19.7454 40.3535C19.8973 40.4294 20.0647 40.4689 20.2345 40.4688H30.0228C29.7463 43.7463 28.2501 46.8009 25.8301 49.0286C23.4102 51.2563 20.2425 52.4951 16.9533 52.5Z" fill="#151A6A"></path><path d="M23.4752 45.2085C22.6544 46.1261 21.6492 46.8601 20.5254 47.3627C19.4016 47.8652 18.1844 48.125 16.9533 48.125C15.7222 48.125 14.505 47.8652 13.3811 47.3627C12.2573 46.8601 11.2521 46.1261 10.4314 45.2085C10.3356 45.1015 10.2196 45.0144 10.0902 44.9522C9.9607 44.8899 9.82024 44.8538 9.67682 44.8459C9.5334 44.838 9.38983 44.8584 9.25429 44.9059C9.11875 44.9535 8.9939 45.0273 8.88688 45.1231C8.77986 45.2189 8.69275 45.3348 8.63054 45.4643C8.56832 45.5937 8.53222 45.7342 8.52428 45.8776C8.51635 46.021 8.53674 46.1646 8.5843 46.3002C8.63185 46.4357 8.70564 46.5605 8.80144 46.6676C9.82741 47.8143 11.0838 48.7317 12.4885 49.3598C13.8932 49.9879 15.4146 50.3125 16.9533 50.3125C18.492 50.3125 20.0134 49.9879 21.4181 49.3598C22.8228 48.7317 24.0791 47.8143 25.1051 46.6676C25.2009 46.5605 25.2747 46.4357 25.3222 46.3002C25.3698 46.1646 25.3902 46.021 25.3823 45.8776C25.3743 45.7342 25.3382 45.5937 25.276 45.4643C25.2138 45.3348 25.1267 45.2189 25.0197 45.1231C24.9126 45.0273 24.7878 44.9535 24.6523 44.9059C24.5167 44.8584 24.3731 44.838 24.2297 44.8459C24.0863 44.8538 23.9458 44.8899 23.8164 44.9522C23.6869 45.0144 23.571 45.1015 23.4752 45.2085Z" fill="#151A6A"></path><path d="M47.5376 22.2398C46.7168 23.1573 45.7117 23.8914 44.5878 24.3939C43.464 24.8965 42.2468 25.1562 41.0157 25.1562C39.7846 25.1562 38.5674 24.8965 37.4436 24.3939C36.3197 23.8914 35.3146 23.1573 34.4938 22.2398C34.398 22.1327 34.2821 22.0456 34.1526 21.9834C34.0231 21.9212 33.8827 21.8851 33.7393 21.8772C33.5958 21.8692 33.4523 21.8896 33.3167 21.9372C33.1812 21.9847 33.0563 22.0585 32.9493 22.1543C32.8423 22.2501 32.7552 22.3661 32.693 22.4955C32.6308 22.625 32.5946 22.7655 32.5867 22.9089C32.5788 23.0523 32.5992 23.1959 32.6467 23.3314C32.6943 23.4669 32.7681 23.5918 32.8639 23.6988C33.8898 24.8456 35.1462 25.763 36.5509 26.391C37.9556 27.0191 39.477 27.3438 41.0157 27.3438C42.5544 27.3438 44.0758 27.0191 45.4805 26.391C46.8852 25.763 48.1416 24.8456 49.1675 23.6988C49.361 23.4827 49.4607 23.1985 49.4447 22.9089C49.4287 22.6192 49.2982 22.3478 49.0821 22.1543C48.8659 21.9608 48.5818 21.8611 48.2921 21.8772C48.0025 21.8932 47.7311 22.0236 47.5376 22.2398Z" fill="#151A6A"></path><path d="M50.5124 4.41697C47.8146 2.2656 44.4663 1.09399 41.0157 1.09399C37.5651 1.09399 34.2168 2.2656 31.519 4.41697C28.7513 4.59121 26.1548 5.8163 24.2605 7.84166C22.3662 9.86702 21.3172 12.5396 21.3283 15.3127V19.6877C21.3283 19.9778 21.4435 20.256 21.6486 20.4611C21.8538 20.6663 22.1319 20.7815 22.422 20.7815C23.7027 20.7787 24.9728 20.5508 26.1745 20.108C26.9963 23.4228 28.9042 26.367 31.594 28.4713C34.2837 30.5757 37.6006 31.719 41.0157 31.719C44.4308 31.719 47.7477 30.5757 50.4375 28.4713C53.1272 26.367 55.0351 23.4228 55.8569 20.108C57.0586 20.5508 58.3287 20.7787 59.6094 20.7815C59.8995 20.7815 60.1777 20.6663 60.3828 20.4611C60.5879 20.256 60.7031 19.9778 60.7031 19.6877V15.3127C60.7141 12.5396 59.6652 9.86703 57.7709 7.84167C55.8766 5.81631 53.2801 4.59122 50.5124 4.41697ZM54.0825 15.2585C45.1203 14.7028 36.3099 7.95783 36.2183 7.88667C35.9893 7.70863 35.6989 7.62887 35.411 7.66492C35.1232 7.70098 34.8615 7.84991 34.6834 8.07894C34.5054 8.30797 34.4256 8.59835 34.4617 8.8862C34.4977 9.17404 34.6466 9.43577 34.8757 9.61381C34.9158 9.64506 35.0695 9.76135 35.2788 9.91543C33.4502 12.3426 30.8884 14.1162 27.9729 14.9733C28.3272 11.7357 29.8731 8.74561 32.3099 6.58473C34.7467 4.42385 37.9003 3.2467 41.157 3.28227C44.4137 3.31785 47.5408 4.5636 49.9298 6.77719C52.3189 8.99077 53.7991 12.0139 54.0825 15.2585ZM23.5158 18.5246V15.3127C23.509 13.6144 23.9992 11.9513 24.9259 10.5281C25.8527 9.10496 27.1756 7.98405 28.7316 7.30349C26.7667 9.93172 25.7044 13.1249 25.7033 16.4065C25.7033 16.9169 25.7308 17.4208 25.7798 17.9185C25.0558 18.2214 24.2943 18.4252 23.5158 18.5246ZM41.0157 29.5315C37.687 29.526 34.4845 28.2566 32.0561 25.98C29.6276 23.7033 28.1544 20.5894 27.9344 17.2679C31.5954 16.3437 34.8256 14.1849 37.0799 11.1557C40.4175 13.3354 47.0986 17.0651 54.0878 17.4486C53.8237 20.736 52.3327 23.8037 49.9108 26.0423C47.489 28.2808 44.3136 29.5264 41.0157 29.5315ZM58.5156 18.5246C57.7371 18.4252 56.9756 18.2214 56.2516 17.9185C56.3006 17.4208 56.3281 16.9169 56.3281 16.4065C56.327 13.1249 55.2647 9.93172 53.2998 7.30349C54.8558 7.98405 56.1787 9.10496 57.1054 10.5281C58.0322 11.9512 58.5224 13.6144 58.5156 15.3127V18.5246Z" fill="#151A6A"></path><path d="M11.8953 12.8852C12.1219 13.065 12.4105 13.1478 12.698 13.1153C12.9855 13.0828 13.2484 12.9377 13.4291 12.7117C13.6098 12.4858 13.6936 12.1974 13.6622 11.9098C13.6308 11.6222 13.4866 11.3588 13.2613 11.1772L7.7926 6.80224C7.56599 6.62236 7.27733 6.53961 6.98984 6.57211C6.70235 6.60462 6.43946 6.74973 6.25874 6.97567C6.07802 7.20161 5.9942 7.48996 6.02565 7.77757C6.05709 8.06518 6.20123 8.3286 6.4265 8.51016L11.8953 12.8852Z" fill="#151A6A"></path><path d="M2.60588 17.4924L9.56036 18.3181C9.84846 18.3522 10.1383 18.2705 10.3662 18.0909C10.594 17.9114 10.7412 17.6486 10.7753 17.3605C10.8095 17.0724 10.7278 16.7826 10.5482 16.5547C10.3686 16.3269 10.1059 16.1797 9.81777 16.1455L2.86331 15.3199C2.72049 15.3027 2.57569 15.3138 2.43717 15.3526C2.29866 15.3914 2.16916 15.4571 2.05608 15.546C1.94301 15.6349 1.84858 15.7453 1.77821 15.8708C1.70784 15.9962 1.66291 16.1343 1.64598 16.2772C1.62905 16.42 1.64047 16.5648 1.67957 16.7032C1.71867 16.8417 1.7847 16.971 1.87386 17.0839C1.96302 17.1968 2.07357 17.291 2.19918 17.3611C2.32479 17.4312 2.463 17.4758 2.60588 17.4924Z" fill="#151A6A"></path><path d="M17.6444 9.24242C17.7169 9.5233 17.898 9.76386 18.1479 9.91119C18.2716 9.98414 18.4085 10.032 18.5508 10.052C18.693 10.0721 18.8378 10.0639 18.9768 10.028C19.1159 9.99211 19.2466 9.92916 19.3613 9.84277C19.4761 9.75637 19.5727 9.64822 19.6456 9.52449C19.7186 9.40076 19.7664 9.26387 19.7865 9.12164C19.8065 8.97941 19.7984 8.83462 19.7624 8.69555L18.0123 1.91408C17.9398 1.63321 17.7587 1.39265 17.5088 1.24532C17.2589 1.09799 16.9607 1.05596 16.6799 1.12848C16.399 1.201 16.1584 1.38213 16.0111 1.63202C15.8638 1.8819 15.8217 2.18008 15.8943 2.46096L17.6444 9.24242Z" fill="#151A6A"></path></svg>