<svg xmlns="http://www.w3.org/2000/svg" id="Capa_1" x="0px" y="0px" viewBox="0 0 140 140">
<style type="text/css">
.st0{fill:none;stroke:#5FBCD3;stroke-width:2;}
.st1{fill:#B5E7F3;}
.st2{fill:#151A6A;}
</style>
<circle class="st0" cx="70" cy="70" r="69"/>
<g transform="translate(35,35) scale(1)">
<svg xmlns="http://www.w3.org/2000/svg" width="70" height="70" viewBox="0 0 70 70" fill="none"><path d="M34.8177 58.3699C35.6657 58.8223 36.6402 58.9792 37.5873 58.8158C40.1766 58.3773 42.8017 58.1863 45.4272 58.2452C44.0629 56.7712 42.4878 55.5073 40.7532 54.4948C39.7445 53.8868 38.9583 52.9703 38.5108 51.8809C38.0633 50.7915 37.9782 49.587 38.2682 48.4455C38.9011 45.9194 39.385 43.0312 39.3898 43.0024C39.4123 42.8597 39.4628 42.7229 39.5385 42.5999C39.6142 42.4769 39.7135 42.37 39.8307 42.2856C39.9478 42.2011 40.0806 42.1407 40.2212 42.1079C40.3619 42.075 40.5076 42.0703 40.6501 42.0941C40.7926 42.1178 40.9289 42.1696 41.0513 42.2463C41.1736 42.3231 41.2796 42.4233 41.363 42.5412C41.4464 42.6591 41.5057 42.7924 41.5373 42.9333C41.569 43.0743 41.5724 43.2201 41.5474 43.3623C41.5271 43.4836 41.0442 46.3664 40.3906 48.9763C40.2156 49.6647 40.2667 50.3912 40.5365 51.0483C40.8063 51.7054 41.2804 52.2582 41.8886 52.625C44.2641 54.0671 46.9565 56.1201 48.3209 58.5799C48.7761 58.6717 49.2244 58.7953 49.6624 58.9499C53.7767 60.4447 53.5968 66.0475 53.5946 66.1014C53.5879 66.249 53.6112 66.3963 53.663 66.5346C53.7148 66.6729 53.7941 66.7993 53.896 66.9061C53.998 67.013 54.1205 67.0981 54.2562 67.1563C54.3919 67.2145 54.538 67.2446 54.6857 67.2448L67.8107 67.2656H67.8123C68.1024 67.2656 68.3805 67.1503 68.5856 66.9452C68.7907 66.7401 68.906 66.4619 68.9061 66.1719V60.6824H65.6248V61.7761C65.6248 62.0662 65.5096 62.3444 65.3045 62.5495C65.0994 62.7546 64.8212 62.8699 64.5311 62.8699C64.241 62.8699 63.9628 62.7546 63.7577 62.5495C63.5526 62.3444 63.4373 62.0662 63.4373 61.7761V60.6824H61.2498V61.7761C61.2498 62.0662 61.1346 62.3444 60.9295 62.5495C60.7244 62.7546 60.4462 62.8699 60.1561 62.8699C59.866 62.8699 59.5878 62.7546 59.3827 62.5495C59.1776 62.3444 59.0623 62.0662 59.0623 61.7761V60.6824H58.0199C57.7298 60.6824 57.4516 60.5671 57.2465 60.362C57.0413 60.1569 56.9261 59.8787 56.9261 59.5886C56.9261 59.2985 57.0413 59.0203 57.2465 58.8152C57.4516 58.6101 57.7298 58.4949 58.0199 58.4949H59.0623V57.4011C59.0623 57.111 59.1776 56.8328 59.3827 56.6277C59.5878 56.4226 59.866 56.3074 60.1561 56.3074C60.4462 56.3074 60.7244 56.4226 60.9295 56.6277C61.1346 56.8328 61.2498 57.111 61.2498 57.4011V58.4949H63.4373V57.4011C63.4373 57.111 63.5526 56.8328 63.7577 56.6277C63.9628 56.4226 64.241 56.3074 64.5311 56.3074C64.8212 56.3074 65.0994 56.4226 65.3045 56.6277C65.5096 56.8328 65.6248 57.111 65.6248 57.4011V58.4949H68.9061V54.7794C68.906 54.5663 68.8438 54.3578 68.7271 54.1796C68.6103 54.0013 68.444 53.861 68.2487 53.7759C65.8988 50.7879 68.7213 45.9637 68.7512 45.9135C68.8524 45.7437 68.9059 45.5498 68.9061 45.3522C68.9061 27.9457 60.0802 19.1199 42.6737 19.1199C29.9962 19.1199 22.7256 26.3905 22.7256 39.0675C22.7256 50.9833 31.9808 56.8542 34.8177 58.3699ZM53.5936 32.2449C55.3335 32.2468 57.0016 32.9388 58.2319 34.1691C59.4622 35.3994 60.1542 37.0675 60.1561 38.8074V41.7585C60.1551 42.716 59.7743 43.634 59.0973 44.311C58.4202 44.9881 57.5023 45.3689 56.5448 45.3699H53.5936C51.8531 45.3699 50.1839 44.6785 48.9532 43.4478C47.7225 42.2171 47.0311 40.5479 47.0311 38.8074C47.0311 37.0669 47.7225 35.3977 48.9532 34.167C50.1839 32.9363 51.8531 32.2449 53.5936 32.2449Z" fill="#B5E7F3"></path><path d="M55.7819 23.5156C55.7819 10.3089 48.2073 2.73438 35.0006 2.73438C26.8173 2.73438 7.83419 4.73977 7.65797 23.255L1.20977 36.1514C1.14551 36.2799 1.10719 36.4198 1.09699 36.5631C1.0868 36.7064 1.10494 36.8503 1.15036 36.9865C1.19579 37.1228 1.26762 37.2488 1.36175 37.3573C1.45588 37.4659 1.57046 37.5548 1.69896 37.619L7.79576 40.6674L9.86416 49.9734C10.0537 50.8066 10.55 51.538 11.2543 52.022C11.9585 52.506 12.8192 52.7072 13.6651 52.5854L24.5336 50.9646L27.4598 56.8173C27.5899 57.0761 27.8174 57.2727 28.0923 57.3639C28.3672 57.4552 28.6671 57.4337 28.9262 57.3042C29.1853 57.1746 29.3824 56.9476 29.4743 56.6729C29.5662 56.3982 29.5455 56.0983 29.4165 55.8389L26.1353 49.2764C26.0318 49.0703 25.866 48.902 25.6614 48.7956C25.4568 48.6892 25.2238 48.65 24.9956 48.6836L13.3425 50.4214C13.0436 50.4647 12.7394 50.3939 12.4905 50.2229C12.2416 50.052 12.0662 49.7936 11.9993 49.4991L9.8182 39.6847C9.78287 39.526 9.71263 39.3771 9.61259 39.2489C9.51254 39.1207 9.38521 39.0164 9.23982 38.9435L3.65571 36.1514L9.72902 24.0048C9.8049 23.8529 9.84439 23.6854 9.84438 23.5156C9.84438 17.9971 11.6802 14.0822 14.4697 11.3161C18.1826 22.2238 31.8303 27.5909 32.4206 27.818C32.6919 27.9134 32.9895 27.9015 33.2523 27.7846C33.5151 27.6677 33.7233 27.4548 33.8342 27.1894C33.9097 27.0769 34.725 24.6094 37.1881 24.6094C40.1495 24.6094 40.4694 28.4338 40.4694 30.0781C40.4694 31.7225 40.1495 35.5469 37.1881 35.5469C36.9 35.569 36.6105 35.5294 36.3388 35.4309C36.0672 35.3324 35.8197 35.1771 35.6127 34.9754C35.5147 34.8704 35.3969 34.7858 35.2661 34.7263C35.1354 34.6668 34.9942 34.6337 34.8506 34.6288C34.707 34.6238 34.5639 34.6473 34.4294 34.6977C34.2948 34.7481 34.1716 34.8245 34.0666 34.9225C33.9616 35.0206 33.8769 35.1383 33.8174 35.2691C33.758 35.3999 33.7248 35.541 33.7199 35.6846C33.715 35.8282 33.7384 35.9713 33.7888 36.1059C33.8392 36.2404 33.9156 36.3637 34.0136 36.4687C34.4249 36.8899 34.9199 37.2202 35.4667 37.4382C36.0135 37.6562 36.5999 37.7571 37.1881 37.7344C37.5493 37.7019 37.9127 37.7019 38.2739 37.7344C40.5457 38.003 42.7045 38.8739 44.5268 40.2569C43.4631 41.01 42.3293 41.6588 41.1412 42.1943C40.9001 42.2954 40.7031 42.4795 40.5859 42.7132C40.4686 42.9469 40.4389 43.2148 40.5019 43.4685L43.7832 56.5935C43.8543 56.8742 44.0338 57.1152 44.2823 57.2638C44.5308 57.4123 44.8281 57.4563 45.109 57.386C45.3898 57.3158 45.6314 57.137 45.7807 56.889C45.93 56.6409 45.9749 56.3437 45.9055 56.0626L42.8395 43.7986C45.8521 42.2333 55.7819 36.1145 55.7819 23.5156ZM46.3413 38.8659C44.7032 37.6377 42.8745 36.6871 40.9281 36.052C42.184 34.3235 42.7955 32.2102 42.6569 30.0781C42.6569 25.2839 40.6125 22.4219 37.1881 22.4219C36.1793 22.4258 35.1905 22.7031 34.3267 23.2242C33.4629 23.7454 32.7565 24.4908 32.2826 25.3814C29.1169 23.9586 18.7526 18.6847 16.2809 9.77059C21.7111 5.76522 29.4611 4.92188 35.0006 4.92188C41.945 4.92188 53.5944 7.33742 53.5944 23.5156C53.6107 26.4539 52.9675 29.3583 51.7122 32.015C50.4569 34.6717 48.6216 37.0128 46.3413 38.8659Z" fill="#151A6A"></path></svg>
</g>
</svg>
