<svg xmlns="http://www.w3.org/2000/svg" id="Capa_1" x="0px" y="0px" viewBox="0 0 140 140">
<style type="text/css">
.st0{fill:none;stroke:#5FBCD3;stroke-width:2;}
.st1{fill:#B5E7F3;}
.st2{fill:#151A6A;}
</style>
<circle class="st0" cx="70" cy="70" r="69"/>
<g transform="translate(35,35) scale(1)">
<svg xmlns="http://www.w3.org/2000/svg" width="70" height="70" viewBox="0 0 70 70" fill="none"><path d="M42.6563 18.5938C37.6808 18.5938 32.8171 20.0691 28.6802 22.8333C24.5433 25.5975 21.3189 29.5264 19.4149 34.1231C17.5109 38.7198 17.0127 43.7779 17.9834 48.6577C18.954 53.5376 21.3499 58.02 24.8681 61.5382C28.3863 65.0563 32.8687 67.4522 37.7485 68.4229C42.6284 69.3935 47.6864 68.8954 52.2831 66.9913C56.8798 65.0873 60.8087 61.863 63.5729 57.7261C66.3371 53.5891 67.8125 48.7254 67.8125 43.75C67.8049 37.0805 65.1521 30.6863 60.436 25.9702C55.72 21.2541 49.3258 18.6013 42.6563 18.5938ZM48.4919 56.0728C46.6173 57.2244 44.4565 57.8255 42.2565 57.8074C40.0565 57.7892 37.9059 57.1526 36.0505 55.9703C36.0158 55.9525 35.8029 55.8353 35.4923 55.6377C34.9706 56.8666 34.4906 58.1259 34.0665 59.4091C34.0217 59.5458 33.9503 59.6724 33.8565 59.7815C33.7627 59.8907 33.6483 59.9802 33.5198 60.045C33.3913 60.1099 33.2513 60.1487 33.1078 60.1594C32.9643 60.17 32.8201 60.1523 32.6835 60.1071C32.5468 60.0619 32.4205 59.9902 32.3116 59.8961C32.2027 59.8021 32.1134 59.6874 32.0489 59.5588C31.9844 59.4301 31.9459 59.29 31.9356 59.1465C31.9253 59.003 31.9435 58.8588 31.989 58.7223C32.4927 57.198 33.0787 55.72 33.7049 54.2789C32.3954 53.199 31.352 51.8322 30.6555 50.2843C29.9591 48.7364 29.6283 47.049 29.6888 45.3527C30.5294 29.9569 51.4559 27.3721 51.6674 27.3475C51.8985 27.3206 52.1322 27.3683 52.3343 27.4836C52.5365 27.5989 52.6965 27.7757 52.791 27.9884C52.8776 28.1828 61.3125 47.5081 48.4919 56.0728Z" fill="#B5E7F3"></path><path d="M31.873 45.4724C31.8271 46.7263 32.053 47.9754 32.535 49.1338C33.017 50.2923 33.7438 51.3329 34.6657 52.1842C38.121 45.1947 42.6143 38.7685 47.993 33.1239C48.1981 32.9188 48.4763 32.8035 48.7664 32.8034C49.0565 32.8033 49.3348 32.9185 49.5399 33.1236C49.7451 33.3287 49.8604 33.6069 49.8605 33.897C49.8605 34.1871 49.7453 34.4654 49.5402 34.6706C44.23 40.287 39.8006 46.6749 36.4023 53.6171C36.8044 53.8896 37.0876 54.0468 37.1356 54.0723C37.4155 54.2406 42.6364 57.353 47.2763 54.2539C57.213 47.6161 52.439 33.133 51.1022 29.6445C47.4194 30.271 32.5246 33.5399 31.873 45.4724Z" fill="#B5E7F3"></path><path d="M20.7813 1.09375H16.4063C15.5541 1.09608 14.7144 1.29826 13.9546 1.68405C13.1947 2.06984 12.536 2.62849 12.0313 3.31509C11.5266 2.62849 10.8678 2.06984 10.108 1.68405C9.34817 1.29826 8.50844 1.09608 7.65629 1.09375H3.28129C2.99121 1.09375 2.71301 1.20898 2.50789 1.4141C2.30277 1.61922 2.18754 1.89742 2.18754 2.1875V6.5625C2.18924 8.01238 2.76595 9.40239 3.79118 10.4276C4.8164 11.4528 6.20641 12.0295 7.65629 12.0312H10.9375V16.4062H5.46879C4.69548 16.4043 3.94646 16.6762 3.35451 17.1738C2.76255 17.6714 2.36589 18.3625 2.23485 19.1247C2.1038 19.8868 2.24683 20.6707 2.63858 21.3374C3.03033 22.0042 3.6455 22.5107 4.37504 22.7671V48.125C4.37504 50.1556 5.18167 52.103 6.6175 53.5388C8.05332 54.9746 10.0007 55.7812 12.0313 55.7812C14.0618 55.7812 16.0092 54.9746 17.4451 53.5388C18.8809 52.103 19.6875 50.1556 19.6875 48.125V22.7672C20.4171 22.5107 21.0322 22.0042 21.424 21.3375C21.8157 20.6707 21.9587 19.8868 21.8277 19.1247C21.6967 18.3626 21.3 17.6715 20.7081 17.1739C20.1161 16.6763 19.3671 16.4043 18.5938 16.4062H13.125V12.0312H16.4063C17.8562 12.0295 19.2462 11.4528 20.2714 10.4276C21.2966 9.40239 21.8733 8.01238 21.875 6.5625V2.1875C21.875 1.89742 21.7598 1.61922 21.5547 1.4141C21.3496 1.20898 21.0714 1.09375 20.7813 1.09375ZM5.46879 18.5938H10.9375V20.7812H5.46879C5.17871 20.7812 4.90051 20.666 4.69539 20.4609C4.49027 20.2558 4.37504 19.9776 4.37504 19.6875C4.37504 19.3974 4.49027 19.1192 4.69539 18.9141C4.90051 18.709 5.17871 18.5938 5.46879 18.5938ZM17.5 31.7188H13.125V22.9688H17.5V31.7188ZM10.9375 31.7188H6.56254V22.9688H10.9375V31.7188ZM12.0313 53.5938C10.5814 53.592 9.1914 53.0153 8.16618 51.9901C7.14095 50.9649 6.56424 49.5749 6.56254 48.125V33.9062H10.9375V48.125C10.9375 48.4151 11.0528 48.6933 11.2579 48.8984C11.463 49.1035 11.7412 49.2188 12.0313 49.2188C12.3214 49.2188 12.5996 49.1035 12.8047 48.8984C13.0098 48.6933 13.125 48.4151 13.125 48.125V33.9062H17.5V48.125C17.4983 49.5749 16.9216 50.9649 15.8964 51.9901C14.8712 53.0153 13.4812 53.592 12.0313 53.5938ZM18.5938 18.5938C18.8839 18.5938 19.1621 18.709 19.3672 18.9141C19.5723 19.1192 19.6875 19.3974 19.6875 19.6875C19.6875 19.9776 19.5723 20.2558 19.3672 20.4609C19.1621 20.666 18.8839 20.7812 18.5938 20.7812H13.125V18.5938H18.5938ZM4.37504 6.5625V3.28125H7.65629C8.52624 3.2822 9.36028 3.62821 9.97543 4.24335C10.5906 4.8585 10.9366 5.69255 10.9375 6.5625V9.84375H7.65629C6.78634 9.8428 5.95229 9.49679 5.33714 8.88165C4.72199 8.2665 4.37599 7.43245 4.37504 6.5625ZM19.6875 6.5625C19.6866 7.43245 19.3406 8.2665 18.7254 8.88165C18.1103 9.49679 17.2762 9.8428 16.4063 9.84375H13.125V6.5625C13.126 5.69255 13.472 4.8585 14.0871 4.24335C14.7023 3.62821 15.5363 3.2822 16.4063 3.28125H19.6875V6.5625Z" fill="#151A6A"></path><path d="M38.2813 12.0312C39.7312 12.0295 41.1212 11.4528 42.1464 10.4276C43.1716 9.40239 43.7483 8.01238 43.75 6.5625V2.1875C43.75 1.89742 43.6348 1.61922 43.4297 1.4141C43.2246 1.20898 42.9464 1.09375 42.6563 1.09375H38.2813C37.4291 1.09608 36.5894 1.29826 35.8296 1.68405C35.0698 2.06984 34.411 2.62849 33.9063 3.31509C33.4016 2.62849 32.7428 2.06984 31.983 1.68405C31.2232 1.29826 30.3834 1.09608 29.5313 1.09375H25.1563C24.8662 1.09375 24.588 1.20898 24.3829 1.4141C24.1778 1.61922 24.0625 1.89742 24.0625 2.1875V6.5625C24.0642 8.01238 24.641 9.40239 25.6662 10.4276C26.6914 11.4528 28.0814 12.0295 29.5313 12.0312H32.8125V16.4062H27.3438C26.5705 16.4043 25.8215 16.6762 25.2295 17.1738C24.6376 17.6714 24.2409 18.3625 24.1098 19.1247C23.9788 19.8868 24.1218 20.6707 24.5136 21.3374C24.9053 22.0042 25.5205 22.5107 26.25 22.7671V48.125C26.25 50.1556 27.0567 52.103 28.4925 53.5388C29.9283 54.9746 31.8757 55.7812 33.9063 55.7812C35.9369 55.7812 37.8842 54.9746 39.3201 53.5388C40.7559 52.103 41.5625 50.1556 41.5625 48.125V22.7672C42.2921 22.5107 42.9072 22.0042 43.299 21.3375C43.6907 20.6707 43.8337 19.8868 43.7027 19.1247C43.5717 18.3626 43.175 17.6715 42.5831 17.1739C41.9911 16.6763 41.2421 16.4043 40.4688 16.4062H35V12.0312H38.2813ZM27.3438 18.5938H32.8125V20.7812H27.3438C27.0537 20.7812 26.7755 20.666 26.5704 20.4609C26.3653 20.2558 26.25 19.9776 26.25 19.6875C26.25 19.3974 26.3653 19.1192 26.5704 18.9141C26.7755 18.709 27.0537 18.5938 27.3438 18.5938ZM39.375 31.7188H35V22.9688H39.375V31.7188ZM32.8125 31.7188H28.4375V22.9688H32.8125V31.7188ZM33.9063 53.5938C32.4564 53.592 31.0664 53.0153 30.0412 51.9901C29.016 50.9649 28.4392 49.5749 28.4375 48.125V33.9062H32.8125V48.125C32.8125 48.4151 32.9278 48.6933 33.1329 48.8984C33.338 49.1035 33.6162 49.2188 33.9063 49.2188C34.1964 49.2188 34.4746 49.1035 34.6797 48.8984C34.8848 48.6933 35 48.4151 35 48.125V33.9062H39.375V48.125C39.3733 49.5749 38.7966 50.9649 37.7714 51.9901C36.7462 53.0153 35.3562 53.592 33.9063 53.5938ZM40.4688 18.5938C40.7589 18.5938 41.0371 18.709 41.2422 18.9141C41.4473 19.1192 41.5625 19.3974 41.5625 19.6875C41.5625 19.9776 41.4473 20.2558 41.2422 20.4609C41.0371 20.666 40.7589 20.7812 40.4688 20.7812H35V18.5938H40.4688ZM38.2813 3.28125H41.5625V6.5625C41.5616 7.43245 41.2156 8.2665 40.6004 8.88165C39.9853 9.49679 39.1512 9.8428 38.2813 9.84375H35V6.5625C35.001 5.69255 35.347 4.8585 35.9621 4.24335C36.5773 3.62821 37.4113 3.2822 38.2813 3.28125ZM26.25 6.5625V3.28125H29.5313C30.4012 3.2822 31.2353 3.62821 31.8504 4.24335C32.4656 4.8585 32.8116 5.69255 32.8125 6.5625V9.84375H29.5313C28.6613 9.8428 27.8273 9.49679 27.2121 8.88165C26.597 8.2665 26.251 7.43245 26.25 6.5625Z" fill="#151A6A"></path></svg>
</g>
</svg>
