<svg xmlns="http://www.w3.org/2000/svg" width="70" height="70" viewBox="0 0 70 70" fill="none"><path d="M65.625 27.3437H35.4529L29.2108 21.1017C29.0577 20.9491 28.8629 20.8453 28.6509 20.8033C28.4389 20.7613 28.2191 20.7831 28.0194 20.8658C27.8198 20.9485 27.649 21.0885 27.5288 21.2681C27.4085 21.4477 27.3441 21.6588 27.3438 21.875V27.3437H24.0625C23.1925 27.3447 22.3585 27.6907 21.7434 28.3058C21.1282 28.921 20.7822 29.755 20.7812 30.625V65.625C20.7822 66.4949 21.1282 67.329 21.7434 67.9441C22.3585 68.5593 23.1925 68.9053 24.0625 68.9062H65.625C66.4949 68.9053 67.329 68.5593 67.9441 67.9441C68.5593 67.329 68.9053 66.4949 68.9062 65.625V30.625C68.9053 29.755 68.5593 28.921 67.9441 28.3058C67.329 27.6907 66.4949 27.3447 65.625 27.3437ZM42.6562 43.75C42.6537 44.9921 42.2287 46.1965 41.451 47.1651C40.6734 48.1337 39.5894 48.8089 38.3771 49.0798C38.6761 52.2155 39.375 59.6102 39.375 60.1562C39.375 60.7364 39.1445 61.2928 38.7343 61.703C38.3241 62.1133 37.7677 62.3437 37.1875 62.3437C36.6073 62.3437 36.0509 62.1133 35.6407 61.703C35.2305 61.2928 35 60.7364 35 60.1562C35 59.6102 35.6989 52.2155 35.9979 49.0798C34.7856 48.8089 33.7016 48.1337 32.924 47.1651C32.1463 46.1965 31.7213 44.9921 31.7188 43.75V35C31.7188 34.7099 31.834 34.4317 32.0391 34.2266C32.2442 34.0215 32.5224 33.9062 32.8125 33.9062C33.1026 33.9062 33.3808 34.0215 33.5859 34.2266C33.791 34.4317 33.9062 34.7099 33.9062 35V42.6559C33.9123 42.9441 34.0318 43.2183 34.2389 43.4188C34.446 43.6193 34.7238 43.73 35.0121 43.7268C35.3003 43.7236 35.5756 43.6067 35.7782 43.4017C35.9807 43.1966 36.0941 42.9198 36.0938 42.6315V35C36.0938 34.7099 36.209 34.4317 36.4141 34.2266C36.6192 34.0215 36.8974 33.9062 37.1875 33.9062C37.4776 33.9062 37.7558 34.0215 37.9609 34.2266C38.166 34.4317 38.2812 34.7099 38.2812 35V42.4566C38.2813 42.7115 38.3704 42.9584 38.5331 43.1546C38.6958 43.3508 38.9219 43.4841 39.1724 43.5314C39.4229 43.5786 39.682 43.537 39.905 43.4135C40.128 43.2901 40.301 43.0926 40.3939 42.8552C40.531 42.5047 40.4403 43.4982 40.4688 35C40.4688 34.7099 40.584 34.4317 40.7891 34.2266C40.9942 34.0215 41.2724 33.9062 41.5625 33.9062C41.8526 33.9062 42.1308 34.0215 42.3359 34.2266C42.541 34.4317 42.6562 34.7099 42.6562 35V43.75ZM55.8734 49.041C56.1702 52.1529 56.875 59.6078 56.875 60.1562C56.875 60.7364 56.6445 61.2928 56.2343 61.703C55.8241 62.1133 55.2677 62.3437 54.6875 62.3437C54.1073 62.3437 53.5509 62.1133 53.1407 61.703C52.7305 61.2928 52.5 60.7364 52.5 60.1562C52.5 59.6078 53.2048 52.1529 53.5016 49.041C51.0243 48.3013 49.2188 45.2833 49.2188 41.5625C49.2188 37.2692 51.6209 33.9062 54.6875 33.9062C57.7541 33.9062 60.1562 37.2692 60.1562 41.5625C60.1562 45.2833 58.3507 48.3013 55.8734 49.041Z" fill="#B5E7F3"></path><path d="M2.18751 55.7803C2.47758 55.7803 2.75577 55.6651 2.96089 55.4599C3.166 55.2548 3.28124 54.9766 3.28126 54.6866V18.5928C3.27954 16.519 3.69942 14.4664 4.51539 12.5599C5.33137 10.6533 6.52641 8.93249 8.02793 7.50201C9.52944 6.07152 11.3061 4.96121 13.2499 4.2385C15.1938 3.5158 17.2642 3.1958 19.3356 3.29793C23.3257 3.54423 27.0672 5.31981 29.7812 8.25509C32.4952 11.1904 33.9728 15.0592 33.9063 19.0564V28.4366C33.9063 28.6525 33.9703 28.8636 34.09 29.0433L37.8914 34.7449L34.3436 37.4055C34.2078 37.5073 34.0975 37.6394 34.0215 37.7912C33.9456 37.9431 33.9061 38.1105 33.9063 38.2803V42.6553C33.9059 42.9453 33.7905 43.2233 33.5855 43.4283C33.3805 43.6333 33.1025 43.7487 32.8125 43.7491H21.875C21.5849 43.7491 21.3067 43.8643 21.1016 44.0694C20.8965 44.2745 20.7813 44.5527 20.7813 44.8428V54.6866C20.7813 54.9766 20.8965 55.2548 21.1016 55.46C21.3067 55.6651 21.5849 55.7803 21.875 55.7803C22.1651 55.7803 22.4433 55.6651 22.6484 55.46C22.8535 55.2548 22.9688 54.9766 22.9688 54.6866V45.9366H32.8125C33.6825 45.9356 34.5165 45.5896 35.1317 44.9745C35.7468 44.3593 36.0928 43.5253 36.0938 42.6553V38.8272L40.0308 35.8738C40.2545 35.7062 40.4054 35.4592 40.4527 35.1837C40.5 34.9082 40.44 34.625 40.285 34.3924L36.0938 28.1054V19.0564C36.161 14.4966 34.4671 10.0865 31.3646 6.74416C28.2622 3.40179 23.9903 1.38463 19.4381 1.11257C17.0712 0.996429 14.7053 1.36259 12.4842 2.18882C10.2631 3.01504 8.23309 4.28409 6.51746 5.9189C4.80184 7.55371 3.43639 9.52017 2.50403 11.6989C1.57168 13.8775 1.09187 16.223 1.09376 18.5928V54.6866C1.09377 54.9766 1.20901 55.2548 1.41412 55.4599C1.61924 55.6651 1.89743 55.7803 2.18751 55.7803Z" fill="#151A6A"></path><path d="M8.75 19.6865H28.4375C28.7276 19.6865 29.0058 19.5713 29.2109 19.3662C29.416 19.161 29.5312 18.8828 29.5312 18.5928C29.5312 15.692 28.3789 12.91 26.3277 10.8588C24.2766 8.80761 21.4946 7.65527 18.5938 7.65527C15.6929 7.65527 12.9109 8.80761 10.8598 10.8588C8.80859 12.91 7.65625 15.692 7.65625 18.5928C7.65626 18.8828 7.7715 19.161 7.97662 19.3662C8.18173 19.5713 8.45992 19.6865 8.75 19.6865ZM18.5938 9.84277C20.7243 9.8456 22.7808 10.6244 24.3787 12.0335C25.9767 13.4427 27.0066 15.3856 27.2759 17.499H9.91156C10.1809 15.3856 11.2108 13.4427 12.8088 12.0335C14.4067 10.6244 16.4632 9.8456 18.5938 9.84277Z" fill="#151A6A"></path><path d="M7.65625 29.5303C7.6572 30.4002 8.00321 31.2343 8.61835 31.8494C9.2335 32.4646 10.0675 32.8106 10.9375 32.8115H26.25C27.1199 32.8106 27.954 32.4646 28.5691 31.8494C29.1843 31.2343 29.5303 30.4002 29.5312 29.5303V27.3428C29.5312 27.0527 29.416 26.7745 29.2109 26.5694C29.0058 26.3643 28.7276 26.249 28.4375 26.249H8.75C8.45992 26.249 8.18172 26.3643 7.9766 26.5694C7.77148 26.7745 7.65625 27.0527 7.65625 27.3428V29.5303ZM9.84375 28.4365H27.3438V29.5303C27.3434 29.8202 27.228 30.0982 27.023 30.3033C26.8179 30.5083 26.54 30.6236 26.25 30.624H10.9375C10.6475 30.6236 10.3696 30.5083 10.1645 30.3033C9.95948 30.0982 9.84413 29.8202 9.84375 29.5303V28.4365Z" fill="#151A6A"></path><path d="M8.75 22.9678C9.54625 22.9678 9.90992 24.9363 12.0259 24.9363C14.1425 24.9363 14.5118 22.9678 15.305 22.9678C16.1019 22.9678 16.4689 24.9363 18.5846 24.9363C20.7012 24.9363 21.0669 22.9678 21.8653 22.9678C22.6706 22.9678 23.0294 24.9363 25.1514 24.9363C27.2709 24.9363 27.6367 22.9678 28.4375 22.9678C28.7275 22.9678 29.0057 22.8525 29.2109 22.6474C29.416 22.4423 29.5312 22.1641 29.5312 21.874C29.5312 21.5839 29.416 21.3057 29.2109 21.1006C29.0057 20.8955 28.7275 20.7803 28.4375 20.7803C26.3188 20.7803 25.9519 22.7488 25.1514 22.7488C24.3468 22.7488 23.9857 20.7803 21.8653 20.7803C19.7475 20.7803 19.3829 22.7488 18.5846 22.7488C17.7899 22.7488 17.4178 20.7803 15.305 20.7803C13.1884 20.7803 12.8191 22.7488 12.0259 22.7488C11.2297 22.7488 10.866 20.7803 8.75 20.7803C8.45992 20.7803 8.18172 20.8955 7.9766 21.1006C7.77148 21.3057 7.65625 21.5839 7.65625 21.874C7.65625 22.1641 7.77148 22.4423 7.9766 22.6474C8.18172 22.8525 8.45992 22.9678 8.75 22.9678Z" fill="#151A6A"></path></svg>