<svg xmlns="http://www.w3.org/2000/svg" id="Capa_1" x="0px" y="0px" viewBox="0 0 140 140">
<style type="text/css">
.st0{fill:none;stroke:#5FBCD3;stroke-width:2;}
.st1{fill:#B5E7F3;}
.st2{fill:#151A6A;}
</style>
<circle class="st0" cx="70" cy="70" r="69"/>
<g transform="translate(35,35) scale(1)">
<svg xmlns="http://www.w3.org/2000/svg" width="70" height="70" viewBox="0 0 70 70" fill="none"><path d="M62.3438 33.9062C61.1838 33.9075 60.0717 34.3688 59.2515 35.189C58.4313 36.0092 57.97 37.1213 57.9688 38.2812V41.2698C57.9689 41.4585 57.9201 41.644 57.8273 41.8082C57.7345 41.9725 57.6007 42.1099 57.439 42.2071C55.6851 43.2619 53.5938 45.5241 53.5938 50.3125C53.5938 50.6026 53.4785 50.8808 53.2734 51.0859C53.0683 51.291 52.7901 51.4062 52.5 51.4062C52.2099 51.4062 51.9317 51.291 51.7266 51.0859C51.5215 50.8808 51.4062 50.6026 51.4062 50.3125C51.4062 44.7546 53.943 41.9668 55.7812 40.6776V28.9844C55.7812 28.2592 55.4932 27.5637 54.9804 27.0509C54.4676 26.5381 53.7721 26.25 53.0469 26.25C52.3217 26.25 51.6262 26.5381 51.1134 27.0509C50.6006 27.5637 50.3125 28.2592 50.3125 28.9844V39.375C50.3125 39.6651 50.1973 39.9433 49.9921 40.1484C49.787 40.3535 49.5088 40.4688 49.2188 40.4688C48.9287 40.4688 48.6505 40.3535 48.4454 40.1484C48.2402 39.9433 48.125 39.6651 48.125 39.375V23.5156C48.125 22.7904 47.8369 22.0949 47.3241 21.5821C46.8113 21.0693 46.1158 20.7812 45.3906 20.7812C44.6654 20.7812 43.9699 21.0693 43.4571 21.5821C42.9443 22.0949 42.6562 22.7904 42.6562 23.5156V39.375C42.6562 39.6651 42.541 39.9433 42.3359 40.1484C42.1308 40.3535 41.8526 40.4688 41.5625 40.4688C41.2724 40.4688 40.9942 40.3535 40.7891 40.1484C40.584 39.9433 40.4688 39.6651 40.4688 39.375V26.7969C40.4688 26.0717 40.1807 25.3762 39.6679 24.8634C39.1551 24.3506 38.4596 24.0625 37.7344 24.0625C37.0092 24.0625 36.3137 24.3506 35.8009 24.8634C35.2881 25.3762 35 26.0717 35 26.7969V39.375C35 39.6651 34.8848 39.9433 34.6796 40.1484C34.4745 40.3535 34.1963 40.4688 33.9062 40.4688C33.6162 40.4688 33.338 40.3535 33.1329 40.1484C32.9277 39.9433 32.8125 39.6651 32.8125 39.375V34.4531C32.8125 33.7279 32.5244 33.0324 32.0116 32.5196C31.4988 32.0068 30.8033 31.7188 30.0781 31.7188C29.3529 31.7188 28.6574 32.0068 28.1446 32.5196C27.6318 33.0324 27.3438 33.7279 27.3438 34.4531V50.3125C27.3438 55.2439 29.3027 59.9733 32.7897 63.4603C36.2767 66.9473 41.0061 68.9062 45.9375 68.9062C50.8689 68.9062 55.5983 66.9473 59.0853 63.4603C62.5723 59.9733 64.5312 55.2439 64.5312 50.3125V36.0938C64.5306 35.5138 64.2999 34.9578 63.8898 34.5477C63.4797 34.1376 62.9237 33.9069 62.3438 33.9062ZM51.4062 56.875H45.9375V62.3438C45.9375 62.6338 45.8223 62.912 45.6171 63.1171C45.412 63.3223 45.1338 63.4375 44.8438 63.4375C44.5537 63.4375 44.2755 63.3223 44.0704 63.1171C43.8652 62.912 43.75 62.6338 43.75 62.3438V56.875H38.2812C37.9912 56.875 37.713 56.7598 37.5079 56.5546C37.3027 56.3495 37.1875 56.0713 37.1875 55.7812C37.1875 55.4912 37.3027 55.213 37.5079 55.0079C37.713 54.8027 37.9912 54.6875 38.2812 54.6875H43.75V49.2188C43.75 48.9287 43.8652 48.6505 44.0704 48.4454C44.2755 48.2402 44.5537 48.125 44.8438 48.125C45.1338 48.125 45.412 48.2402 45.6171 48.4454C45.8223 48.6505 45.9375 48.9287 45.9375 49.2188V54.6875H51.4062C51.6963 54.6875 51.9745 54.8027 52.1796 55.0079C52.3848 55.213 52.5 55.4912 52.5 55.7812C52.5 56.0713 52.3848 56.3495 52.1796 56.5546C51.9745 56.7598 51.6963 56.875 51.4062 56.875Z" fill="#B5E7F3"></path><path d="M51.4062 29.5312H43.75V20.5714C43.7511 19.1209 43.3259 17.7021 42.5274 16.4912C41.7289 15.2804 40.5922 14.3308 39.2586 13.7605C38.4571 13.4166 37.7548 12.877 37.2159 12.1913C36.677 11.5056 36.3187 10.6956 36.174 9.8356C36.7389 9.81529 37.2739 9.57694 37.6668 9.17059C38.0597 8.76424 38.2799 8.22149 38.2812 7.65625V3.28125C38.2806 2.70129 38.0499 2.14528 37.6398 1.73519C37.2297 1.32509 36.6737 1.09441 36.0938 1.09375H20.7812C20.2013 1.09441 19.6453 1.32509 19.2352 1.73519C18.8251 2.14528 18.5944 2.70129 18.5938 3.28125V7.65625C18.5951 8.2215 18.8153 8.76425 19.2082 9.1706C19.6011 9.57695 20.1362 9.81529 20.7011 9.8356C20.5563 10.6956 20.1981 11.5056 19.6592 12.1913C19.1202 12.877 18.4179 13.4166 17.6164 13.7605C16.2828 14.3308 15.1461 15.2804 14.3476 16.4912C13.5491 17.7021 13.1239 19.1209 13.125 20.5714V36.2799C12.4017 36.1615 11.6704 36.0992 10.9375 36.0938H6.5625C6.41886 36.0937 6.27661 36.122 6.1439 36.1769C6.01118 36.2319 5.89059 36.3124 5.78902 36.414C5.68745 36.5156 5.60688 36.6362 5.55193 36.7689C5.49698 36.9016 5.46871 37.0439 5.46875 37.1875V41.5625C5.47302 45.3322 6.97243 48.9464 9.63804 51.612C12.3036 54.2776 15.9178 55.777 19.6875 55.7812H32.8125C38.0321 55.7753 43.0362 53.6992 46.7271 50.0083C50.4179 46.3175 52.494 41.3134 52.5 36.0938V30.625C52.5 30.4814 52.4718 30.3391 52.4168 30.2064C52.3619 30.0737 52.2813 29.9531 52.1797 29.8515C52.0782 29.7499 51.9576 29.6694 51.8249 29.6144C51.6921 29.5595 51.5499 29.5312 51.4062 29.5312ZM20.7812 3.28125H36.0938L36.0948 7.65625H20.7812V3.28125ZM15.3125 20.5714C15.3118 19.5492 15.6113 18.5492 16.174 17.6958C16.7366 16.8424 17.5375 16.173 18.4773 15.7708C19.6725 15.2595 20.7119 14.4426 21.4912 13.4022C22.2704 12.3617 22.762 11.1344 22.9164 9.84375H33.9586C34.113 11.1344 34.6046 12.3617 35.3838 13.4022C36.1631 14.4426 37.2025 15.2595 38.3977 15.7708C39.3375 16.173 40.1384 16.8424 40.701 17.6958C41.2637 18.5492 41.5632 19.5492 41.5625 20.5714V29.5867C37.4431 29.8203 33.5011 31.3417 30.2928 33.936C27.0845 36.5304 24.7719 40.0667 23.6814 44.0459C22.8402 42.3398 21.6666 40.8191 20.2294 39.5729C18.7923 38.3268 17.1206 37.3805 15.3125 36.7896V20.5714ZM7.65625 41.5625V38.2812H10.9375C14.1273 38.2849 17.1854 39.5536 19.4409 41.8091C21.6964 44.0646 22.9651 47.1227 22.9688 50.3125V52.0467L14.992 44.0705C14.7863 43.8684 14.5091 43.7558 14.2208 43.7571C13.9325 43.7584 13.6563 43.8736 13.4524 44.0774C13.2486 44.2813 13.1334 44.5575 13.1321 44.8458C13.1308 45.1341 13.2434 45.4113 13.4455 45.617L21.4221 53.5938H19.6875C16.4977 53.5901 13.4396 52.3214 11.1841 50.0659C8.92859 47.8104 7.65985 44.7523 7.65625 41.5625ZM50.3125 36.0938C50.3072 40.7334 48.4617 45.1815 45.181 48.4623C41.9003 51.743 37.4522 53.5884 32.8125 53.5938H27.0188L40.0864 42.393C40.3058 42.204 40.4413 41.9358 40.4632 41.6471C40.4851 41.3585 40.3916 41.0729 40.2033 40.853C40.015 40.6331 39.7471 40.4969 39.4585 40.4742C39.1698 40.4515 38.884 40.5443 38.6636 40.732L25.1562 52.3099V49.2188C25.1616 44.5791 27.007 40.131 30.2877 36.8502C33.5685 33.5695 38.0166 31.7241 42.6562 31.7188H50.3125V36.0938Z" fill="#151A6A"></path><path d="M22.9688 27.3438H27.3438V31.7188C27.3438 32.0088 27.459 32.287 27.6641 32.4921C27.8692 32.6973 28.1474 32.8125 28.4375 32.8125C28.7276 32.8125 29.0058 32.6973 29.2109 32.4921C29.416 32.287 29.5312 32.0088 29.5312 31.7188V27.3438H33.9062C34.1963 27.3438 34.4745 27.2285 34.6796 27.0234C34.8848 26.8183 35 26.5401 35 26.25C35 25.9599 34.8848 25.6817 34.6796 25.4766C34.4745 25.2715 34.1963 25.1562 33.9062 25.1562H29.5312V20.7812C29.5312 20.4912 29.416 20.213 29.2109 20.0079C29.0058 19.8027 28.7276 19.6875 28.4375 19.6875C28.1474 19.6875 27.8692 19.8027 27.6641 20.0079C27.459 20.213 27.3438 20.4912 27.3438 20.7812V25.1562H22.9688C22.6787 25.1562 22.4005 25.2715 22.1954 25.4766C21.9902 25.6817 21.875 25.9599 21.875 26.25C21.875 26.5401 21.9902 26.8183 22.1954 27.0234C22.4005 27.2285 22.6787 27.3438 22.9688 27.3438Z" fill="#151A6A"></path></svg>
</g>
</svg>
