<svg xmlns="http://www.w3.org/2000/svg" width="70" height="70" viewBox="0 0 70 70" fill="none"><path d="M44.8438 32.8125C42.4642 32.8125 40.1381 33.5181 38.1596 34.8401C36.181 36.1621 34.6389 38.0412 33.7283 40.2396C32.8177 42.438 32.5795 44.8571 33.0437 47.1909C33.5079 49.5248 34.6538 51.6685 36.3364 53.3511C38.019 55.0337 40.1627 56.1796 42.4966 56.6438C44.8304 57.1081 47.2495 56.8698 49.4479 55.9592C51.6463 55.0486 53.5254 53.5065 54.8474 51.528C56.1694 49.5494 56.875 47.2233 56.875 44.8438C56.8714 41.654 55.6027 38.5959 53.3472 36.3404C51.0916 34.0848 48.0335 32.8161 44.8438 32.8125ZM45.7073 50.9843C45.612 51.1067 45.4918 51.2073 45.3546 51.2797C45.2175 51.352 45.0665 51.3944 44.9118 51.404C44.757 51.4136 44.602 51.3902 44.4569 51.3353C44.3119 51.2805 44.1802 51.1954 44.0705 51.0858L38.6017 45.617C38.3997 45.4113 38.2871 45.1341 38.2884 44.8458C38.2897 44.5575 38.4048 44.2813 38.6087 44.0774C38.8126 43.8736 39.0887 43.7584 39.3771 43.7571C39.6654 43.7558 39.9426 43.8684 40.1483 44.0705L44.7412 48.6634L51.6364 39.7969C51.8146 39.5679 52.0765 39.419 52.3644 39.3831C52.6523 39.3471 52.9428 39.427 53.1718 39.6052C53.4009 39.7834 53.5497 40.0453 53.5857 40.3332C53.6216 40.6212 53.5417 40.9116 53.3635 41.1406L45.7073 50.9843Z" fill="#B5E7F3"></path><path d="M67.9063 63.0787L62.7965 57.9688C62.3858 57.5594 61.8297 57.3296 61.2498 57.3296C60.67 57.3296 60.1138 57.5594 59.7032 57.9688L59.6092 58.0628L57.9486 56.4022C60.9683 52.9806 62.5377 48.5181 62.3245 43.9596C62.1114 39.401 60.1323 35.1044 56.8065 31.9796C53.4806 28.8548 49.0692 27.1471 44.5062 27.2182C39.9432 27.2893 35.5871 29.1335 32.3602 32.3604C29.1333 35.5873 27.289 39.9435 27.218 44.5064C27.1469 49.0694 28.8545 53.4809 31.9794 56.8067C35.1042 60.1326 39.4008 62.1116 43.9593 62.3248C48.5178 62.5379 52.9804 60.9685 56.4019 57.9488L58.0626 59.6095L57.9686 59.7035C57.559 60.1139 57.3289 60.6702 57.3289 61.2501C57.3289 61.83 57.559 62.3862 57.9686 62.7967L63.0785 67.9066C63.5559 68.384 64.1642 68.7091 64.8264 68.8408C65.4886 68.9725 66.1749 68.9048 66.7987 68.6465C67.4225 68.3881 67.9556 67.9505 68.3307 67.3892C68.7058 66.8278 68.9061 66.1678 68.9061 65.4926C68.9037 64.5877 68.5445 63.7203 67.9063 63.0787ZM44.8436 59.0626C42.0314 59.0626 39.2823 58.2287 36.9441 56.6663C34.6058 55.1039 32.7834 52.8832 31.7072 50.2851C30.631 47.687 30.3494 44.8281 30.898 42.0699C31.4467 39.3117 32.8009 36.7782 34.7894 34.7897C36.7779 32.8011 39.3115 31.4469 42.0696 30.8983C44.8278 30.3497 47.6867 30.6312 50.2849 31.7074C52.883 32.7836 55.1037 34.6061 56.666 36.9443C58.2284 39.2826 59.0623 42.0316 59.0623 44.8438C59.0581 48.6136 57.5587 52.2277 54.893 54.8933C52.2274 57.5589 48.6133 59.0583 44.8436 59.0626Z" fill="#B5E7F3"></path><path d="M31.8911 9.95911C31.8683 9.95928 31.8458 9.95492 31.8248 9.94628C31.8037 9.93764 31.7846 9.92489 31.7685 9.90878C31.7525 9.89267 31.7398 9.87352 31.7312 9.85246C31.7226 9.83139 31.7184 9.80882 31.7186 9.78608V2.1875C31.7186 1.89742 31.6034 1.61922 31.3982 1.4141C31.1931 1.20898 30.9149 1.09375 30.6248 1.09375C30.3348 1.09375 30.0566 1.20898 29.8514 1.4141C29.6463 1.61922 29.5311 1.89742 29.5311 2.1875V9.78608C29.5308 10.0961 29.5917 10.4031 29.7102 10.6896C29.8287 10.9761 30.0025 11.2364 30.2217 11.4556C30.4409 11.6749 30.7012 11.8487 30.9876 11.9673C31.2741 12.0859 31.5811 12.1468 31.8911 12.1466C32.8571 12.1473 33.8108 12.3628 34.6832 12.7775C35.5557 13.1922 36.3249 13.7958 36.9353 14.5445C37.5457 15.2932 37.9819 16.1683 38.2123 17.1064C38.4428 18.0445 38.4617 19.0221 38.2677 19.9684C38.0143 21.2349 37.3865 22.3961 36.4655 23.3017C35.5446 24.2072 34.3729 24.8153 33.1023 25.0473C30.7439 25.37 28.3478 24.8401 26.3454 23.553C25.657 23.1058 24.8546 22.8656 24.0337 22.8608C23.2127 22.8561 22.4077 23.0871 21.7141 23.5263C19.4835 24.8212 16.8921 25.355 14.3313 25.0473C12.7383 24.7465 11.315 23.862 10.34 22.5668C9.365 21.2717 8.90859 19.6592 9.06013 18.0452C9.21167 16.4312 9.96024 14.9318 11.1593 13.8408C12.3583 12.7498 13.9214 12.1456 15.5425 12.1466C16.1684 12.146 16.7684 11.897 17.211 11.4545C17.6535 11.012 17.9024 10.4119 17.9031 9.78608V2.1875C17.9031 1.89742 17.7878 1.61922 17.5827 1.4141C17.3776 1.20898 17.0994 1.09375 16.8093 1.09375C16.5192 1.09375 16.241 1.20898 16.0359 1.4141C15.8308 1.61922 15.7156 1.89742 15.7156 2.1875V9.78608C15.7155 9.83194 15.6972 9.87591 15.6648 9.90834C15.6324 9.94077 15.5884 9.95903 15.5425 9.95911C13.3749 9.95826 11.285 10.7672 9.68287 12.2273C8.08069 13.6873 7.08171 15.6932 6.8818 17.8517C6.68189 20.0101 7.29547 22.1654 8.60224 23.8949C9.90901 25.6244 11.8147 26.8033 13.9457 27.2006C17.0358 27.5967 20.1702 26.9598 22.8607 25.3891C23.1968 25.1698 23.5886 25.0513 23.9899 25.0477C24.3912 25.0441 24.7851 25.1556 25.1251 25.3688C27.5995 26.9704 30.5705 27.6212 33.4879 27.2006C35.6189 26.8034 37.5246 25.6244 38.8314 23.8949C40.1383 22.1654 40.7519 20.0101 40.552 17.8517C40.352 15.6932 39.353 13.6872 37.7508 12.2272C36.1486 10.7671 34.0588 9.9582 31.8911 9.95911Z" fill="#151A6A"></path><path d="M31.8911 46.9158C31.8683 46.9156 31.8458 46.92 31.8248 46.9286C31.8037 46.9373 31.7846 46.95 31.7685 46.9661C31.7525 46.9823 31.7398 47.0014 31.7312 47.0225C31.7226 47.0435 31.7184 47.0661 31.7186 47.0888V54.6874C31.7186 54.9775 31.6034 55.2557 31.3982 55.4608C31.1931 55.6659 30.9149 55.7812 30.6248 55.7812C30.3348 55.7812 30.0566 55.6659 29.8514 55.4608C29.6463 55.2557 29.5311 54.9775 29.5311 54.6874V47.0888C29.5308 46.7788 29.5917 46.4718 29.7102 46.1853C29.8287 45.8988 30.0025 45.6385 30.2217 45.4193C30.4409 45.2001 30.7012 45.0262 30.9876 44.9076C31.2741 44.7891 31.5811 44.7281 31.8911 44.7283C32.8571 44.7277 33.8108 44.5122 34.6832 44.0974C35.5557 43.6827 36.3249 43.0791 36.9353 42.3304C37.5457 41.5817 37.9819 40.7066 38.2123 39.7685C38.4428 38.8304 38.4617 37.8528 38.2677 36.9065C38.0143 35.64 37.3865 34.4788 36.4655 33.5733C35.5446 32.6677 34.3729 32.0596 33.1023 31.8276C30.7439 31.5049 28.3478 32.0348 26.3454 33.3219C25.657 33.7691 24.8546 34.0094 24.0337 34.0141C23.2127 34.0188 22.4077 33.7879 21.7141 33.3486C19.4835 32.0538 16.8921 31.5199 14.3313 31.8276C12.7383 32.1284 11.315 33.0129 10.34 34.3081C9.365 35.6033 8.90859 37.2157 9.06013 38.8297C9.21167 40.4438 9.96024 41.9431 11.1593 43.0341C12.3583 44.1252 13.9214 44.7293 15.5425 44.7283C16.1684 44.729 16.7684 44.9779 17.211 45.4204C17.6535 45.863 17.9024 46.463 17.9031 47.0888V54.6874C17.9031 54.9775 17.7878 55.2557 17.5827 55.4608C17.3776 55.6659 17.0994 55.7812 16.8093 55.7812C16.5192 55.7812 16.241 55.6659 16.0359 55.4608C15.8308 55.2557 15.7156 54.9775 15.7156 54.6874V47.0888C15.7155 47.043 15.6972 46.999 15.6648 46.9666C15.6324 46.9342 15.5884 46.9159 15.5425 46.9158C13.3749 46.9167 11.285 46.1077 9.68287 44.6477C8.08069 43.1876 7.08171 41.1817 6.8818 39.0232C6.68189 36.8648 7.29547 34.7095 8.60224 32.9801C9.90901 31.2506 11.8147 30.0716 13.9457 29.6743C17.0358 29.2782 20.1702 29.9151 22.8607 31.4858C23.1968 31.7051 23.5886 31.8236 23.9899 31.8272C24.3912 31.8308 24.7851 31.7194 25.1251 31.5061C27.5995 29.9045 30.5705 29.2538 33.4879 29.6743C35.6189 30.0715 37.5246 31.2505 38.8314 32.98C40.1383 34.7095 40.7519 36.8648 40.552 39.0233C40.352 41.1817 39.353 43.1877 37.7508 44.6477C36.1486 46.1078 34.0588 46.9167 31.8911 46.9158Z" fill="#151A6A"></path><path d="M45.2471 27.3438H43.0596C42.7695 27.3438 42.4913 27.459 42.2862 27.6641C42.0811 27.8692 41.9658 28.1474 41.9658 28.4375C41.9658 28.7276 42.0811 29.0058 42.2862 29.2109C42.4913 29.416 42.7695 29.5312 43.0596 29.5312H45.2471C45.5372 29.5312 45.8154 29.416 46.0205 29.2109C46.2256 29.0058 46.3408 28.7276 46.3408 28.4375C46.3408 28.1474 46.2256 27.8692 46.0205 27.6641C45.8154 27.459 45.5372 27.3438 45.2471 27.3438Z" fill="#151A6A"></path><path d="M5.46875 28.4375C5.46879 28.2939 5.44052 28.1516 5.38557 28.0189C5.33062 27.8862 5.25005 27.7656 5.14848 27.664C5.04691 27.5624 4.92632 27.4819 4.7936 27.4269C4.66089 27.372 4.51864 27.3437 4.375 27.3438H2.1875C1.89742 27.3438 1.61922 27.459 1.4141 27.6641C1.20898 27.8692 1.09375 28.1474 1.09375 28.4375C1.09375 28.7276 1.20898 29.0058 1.4141 29.2109C1.61922 29.416 1.89742 29.5312 2.1875 29.5312H4.375C4.51864 29.5313 4.66089 29.503 4.7936 29.4481C4.92632 29.3931 5.04691 29.3126 5.14848 29.211C5.25005 29.1094 5.33062 28.9888 5.38557 28.8561C5.44052 28.7234 5.46879 28.5811 5.46875 28.4375Z" fill="#151A6A"></path><path d="M42.5407 25.576L44.5306 24.4545C44.7833 24.312 44.9691 24.075 45.047 23.7956C45.1249 23.5161 45.0886 23.2172 44.9461 22.9645C44.8036 22.7118 44.5666 22.5261 44.2872 22.4482C44.0077 22.3702 43.7088 22.4065 43.4561 22.549L41.4662 23.6705C41.2135 23.813 41.0278 24.05 40.9499 24.3295C40.8719 24.6089 40.9082 24.9079 41.0507 25.1605C41.1932 25.4132 41.4302 25.599 41.7097 25.6769C41.9891 25.7548 42.288 25.7185 42.5407 25.576Z" fill="#151A6A"></path><path d="M4.89306 31.299L2.90371 32.4205C2.77859 32.4911 2.66859 32.5856 2.58 32.6986C2.49141 32.8117 2.42595 32.9411 2.38737 33.0795C2.34878 33.2178 2.33783 33.3624 2.35513 33.505C2.37244 33.6476 2.41765 33.7854 2.48821 33.9105C2.55876 34.0357 2.65327 34.1457 2.76633 34.2343C2.8794 34.3228 3.00881 34.3883 3.14717 34.4269C3.28553 34.4655 3.43013 34.4764 3.57273 34.4591C3.71532 34.4418 3.85311 34.3966 3.97823 34.326L5.96759 33.2045C6.0927 33.134 6.2027 33.0395 6.2913 32.9264C6.37989 32.8133 6.44535 32.6839 6.48393 32.5456C6.52251 32.4072 6.53346 32.2626 6.51616 32.12C6.49886 31.9774 6.45364 31.8396 6.38309 31.7145C6.31253 31.5894 6.21802 31.4794 6.10496 31.3908C5.9919 31.3022 5.86249 31.2367 5.72413 31.1982C5.58577 31.1596 5.44116 31.1486 5.29857 31.1659C5.15597 31.1832 5.01818 31.2284 4.89306 31.299Z" fill="#151A6A"></path><path d="M5.96759 23.6705L3.97823 22.549C3.85311 22.4784 3.71532 22.4332 3.57273 22.4159C3.43013 22.3986 3.28553 22.4096 3.14717 22.4482C3.00881 22.4867 2.8794 22.5522 2.76633 22.6408C2.65327 22.7294 2.55876 22.8394 2.48821 22.9645C2.41765 23.0896 2.37244 23.2274 2.35513 23.37C2.33783 23.5126 2.34878 23.6572 2.38737 23.7956C2.42595 23.9339 2.49141 24.0633 2.58 24.1764C2.66859 24.2895 2.77859 24.384 2.90371 24.4545L4.89306 25.576C5.01818 25.6466 5.15597 25.6918 5.29857 25.7091C5.44116 25.7264 5.58577 25.7155 5.72413 25.6769C5.86249 25.6383 5.9919 25.5728 6.10496 25.4843C6.21802 25.3957 6.31253 25.2857 6.38309 25.1605C6.45364 25.0354 6.49886 24.8976 6.51616 24.755C6.53346 24.6124 6.52251 24.4678 6.48393 24.3295C6.44535 24.1911 6.37989 24.0617 6.2913 23.9486C6.2027 23.8356 6.0927 23.7411 5.96759 23.6705Z" fill="#151A6A"></path><path d="M44.5306 32.4205L42.5407 31.299C42.288 31.1565 41.9891 31.1202 41.7097 31.1982C41.4302 31.2761 41.1932 31.4618 41.0507 31.7145C40.9082 31.9672 40.8719 32.2661 40.9499 32.5456C41.0278 32.825 41.2135 33.062 41.4662 33.2045L43.4561 34.326C43.7088 34.4685 44.0077 34.5048 44.2872 34.4269C44.5666 34.349 44.8036 34.1632 44.9461 33.9105C45.0886 33.6579 45.1249 33.3589 45.047 33.0795C44.9691 32.8 44.7833 32.563 44.5306 32.4205Z" fill="#151A6A"></path></svg>