<svg xmlns="http://www.w3.org/2000/svg" id="Capa_1" x="0px" y="0px" viewBox="0 0 140 140">
<style type="text/css">
.st0{fill:none;stroke:#5FBCD3;stroke-width:2;}
.st1{fill:#B5E7F3;}
.st2{fill:#151A6A;}
</style>
<circle class="st0" cx="70" cy="70" r="69"/>
<g transform="translate(35,35) scale(1)">
<svg xmlns="http://www.w3.org/2000/svg" width="70" height="70" viewBox="0 0 70 70" fill="none"><path d="M22.5415 40.0698C23.4731 39.8905 34.2878 33.305 46.0147 40.6354C56.9651 47.4779 66.965 40.9629 68.3592 40.6732C68.083 36.8365 66.4814 33.2152 63.8287 30.4295C65.4211 27.4646 66.2422 24.1467 66.2165 20.7812C66.2165 20.4912 66.1012 20.213 65.8961 20.0079C65.691 19.8027 65.4128 19.6875 65.1227 19.6875H62.9352C62.6451 19.6875 62.3669 19.8028 62.1618 20.0079C61.9567 20.213 61.8415 20.4912 61.8415 20.7812C61.8543 23.0997 61.4093 25.3979 60.532 27.544C56.0906 24.5014 50.8184 22.9036 45.4352 22.9688C40.052 22.9036 34.7798 24.5014 30.3385 27.544C29.4611 25.3979 29.016 23.0997 29.029 20.7812C29.029 20.4912 28.9137 20.213 28.7086 20.0079C28.5035 19.8027 28.2253 19.6875 27.9352 19.6875H25.7477C25.4576 19.6875 25.1794 19.8028 24.9743 20.0079C24.7692 20.213 24.654 20.4912 24.654 20.7812C24.6282 24.1467 25.4493 27.4646 27.0417 30.4295C24.5318 33.0671 22.9516 36.452 22.5415 40.0698Z" fill="#B5E7F3"></path><path d="M44.8558 42.4896C33.9032 35.6487 23.8923 42.1665 22.5039 42.4549C22.8855 48.8912 27.3584 54.733 34.3877 57.8513C36.3437 58.689 38.015 60.0758 39.1993 61.8437C40.3835 63.6116 41.0299 65.6848 41.0602 67.8125C41.0602 67.9562 41.0885 68.0984 41.1434 68.2311C41.1984 68.3638 41.2789 68.4844 41.3805 68.586C41.4821 68.6876 41.6027 68.7681 41.7354 68.8231C41.8681 68.878 42.0103 68.9063 42.154 68.9063H48.7165C48.8601 68.9063 49.0024 68.878 49.1351 68.8231C49.2678 68.7681 49.3884 68.6876 49.49 68.586C49.5915 68.4844 49.6721 68.3638 49.727 68.2311C49.782 68.0984 49.8103 67.9562 49.8102 67.8125C49.8406 65.6848 50.487 63.6116 51.6712 61.8437C52.8554 60.0758 54.5267 58.689 56.4827 57.8513C63.2918 54.8307 67.7047 49.2546 68.3219 43.0582C67.4114 43.236 56.5596 49.8047 44.8558 42.4896Z" fill="#B5E7F3"></path><path d="M42.3444 7.65625C41.0224 7.60914 39.7182 7.97159 38.6102 8.69402C37.5021 9.41644 36.6443 10.4636 36.1541 11.6921C35.5407 13.201 35.3946 14.8593 35.7347 16.4522C34.9239 16.5284 34.1259 16.7059 33.3594 16.9806V2.1875C33.3594 1.89742 33.2441 1.61922 33.039 1.4141C32.8339 1.20898 32.5557 1.09375 32.2656 1.09375C31.9755 1.09375 31.6973 1.20898 31.4922 1.4141C31.2871 1.61922 31.1719 1.89742 31.1719 2.1875V18.0708C30.3463 18.626 29.6088 19.3022 28.9844 20.0767V2.1875C28.9844 1.89742 28.8691 1.61922 28.664 1.4141C28.4589 1.20898 28.1807 1.09375 27.8906 1.09375C27.6005 1.09375 27.3223 1.20898 27.1172 1.4141C26.9121 1.61922 26.7969 1.89742 26.7969 2.1875V20.0767C26.1724 19.3022 25.435 18.626 24.6094 18.0708V2.1875C24.6094 1.89742 24.4941 1.61922 24.289 1.4141C24.0839 1.20898 23.8057 1.09375 23.5156 1.09375C23.2255 1.09375 22.9473 1.20898 22.7422 1.4141C22.5371 1.61922 22.4219 1.89742 22.4219 2.1875V16.9806C21.6553 16.7059 20.8573 16.5284 20.0466 16.4522C20.3866 14.8593 20.2405 13.201 19.6271 11.6922C19.1369 10.4636 18.2791 9.41647 17.1711 8.69404C16.063 7.97161 14.7588 7.60915 13.4369 7.65625C6.27091 7.65625 1.64062 12.3789 1.64062 19.6875C1.64062 26.9961 6.27091 31.7188 13.4369 31.7188C14.7588 31.7659 16.063 31.4034 17.1711 30.681C18.2791 29.9586 19.1369 28.9114 19.6271 27.6829C20.2148 26.2388 20.3738 24.6559 20.0848 23.1238C20.7583 23.325 21.3492 23.7376 21.77 24.3006C22.1909 24.8636 22.4194 25.5471 22.4219 26.25V45.9375C22.4219 46.2276 22.5371 46.5058 22.7422 46.7109C22.9473 46.916 23.2255 47.0312 23.5156 47.0312C23.8057 47.0312 24.0839 46.916 24.289 46.7109C24.4941 46.5058 24.6094 46.2276 24.6094 45.9375V26.25C24.6062 24.831 24.0514 23.4688 23.0622 22.4514C22.0729 21.434 20.7268 20.8411 19.3085 20.7982C19.115 20.4099 18.8895 20.0384 18.6343 19.6875C18.8843 19.3442 19.1059 18.981 19.2968 18.6016C21.2984 18.6437 23.204 19.4677 24.6057 20.8971C26.0075 22.3266 26.794 24.2479 26.7969 26.25V45.9375C26.7969 46.2276 26.9121 46.5058 27.1172 46.7109C27.3223 46.916 27.6005 47.0312 27.8906 47.0312C28.1807 47.0312 28.4589 46.916 28.664 46.7109C28.8691 46.5058 28.9844 46.2276 28.9844 45.9375V26.25C28.9873 24.2479 29.7738 22.3266 31.1755 20.8971C32.5772 19.4677 34.4829 18.6437 36.4845 18.6016C36.6754 18.981 36.8969 19.3442 37.1469 19.6875C36.8917 20.0384 36.6663 20.4099 36.4728 20.7982C35.0544 20.8411 33.7083 21.434 32.7191 22.4514C31.7298 23.4688 31.175 24.831 31.1719 26.25V45.9375C31.1719 46.2276 31.2871 46.5058 31.4922 46.7109C31.6973 46.916 31.9755 47.0312 32.2656 47.0312C32.5557 47.0312 32.8339 46.916 33.039 46.7109C33.2441 46.5058 33.3594 46.2276 33.3594 45.9375V26.25C33.3618 25.5471 33.5904 24.8636 34.0113 24.3007C34.4321 23.7377 35.0229 23.325 35.6964 23.1238C35.4075 24.6559 35.5664 26.2388 36.1541 27.6829C36.6443 28.9114 37.5021 29.9586 38.6102 30.681C39.7182 31.4034 41.0224 31.7659 42.3444 31.7188C49.5103 31.7188 54.1406 26.9961 54.1406 19.6875C54.1406 12.3789 49.5103 7.65625 42.3444 7.65625ZM17.6105 26.8353C17.2837 27.6644 16.7054 28.3703 15.9568 28.8538C15.2083 29.3373 14.327 29.5742 13.4369 29.5312C6.35262 29.5312 3.82812 24.4465 3.82812 19.6875C3.82812 14.9285 6.35262 9.84375 13.4369 9.84375C14.327 9.80075 15.2083 10.0377 15.9568 10.5212C16.7054 11.0047 17.2837 11.7106 17.6105 12.5397C18.2045 14.014 18.1914 15.6634 17.5743 17.1281C17.1914 16.4486 16.7184 15.824 16.1681 15.2713C15.9636 15.0662 15.6862 14.9505 15.3966 14.9497C15.107 14.9488 14.8289 15.0629 14.6233 15.2668C14.4177 15.4707 14.3013 15.7479 14.2998 16.0375C14.2982 16.3271 14.4116 16.6055 14.615 16.8116C15.4555 17.549 15.9878 18.5756 16.1061 19.6875C15.9879 20.7994 15.4556 21.8261 14.615 22.5634C14.5135 22.6653 14.433 22.7862 14.3783 22.9192C14.3236 23.0522 14.2956 23.1948 14.296 23.3386C14.2965 23.4824 14.3252 23.6248 14.3808 23.7575C14.4363 23.8902 14.5174 24.0106 14.6196 24.1119C14.7217 24.2132 14.8428 24.2934 14.976 24.3478C15.1091 24.4022 15.2517 24.4298 15.3955 24.429C15.5394 24.4283 15.6816 24.3991 15.8142 24.3433C15.9468 24.2874 16.067 24.206 16.1681 24.1036C16.7184 23.551 17.1915 22.9264 17.5744 22.247C18.1915 23.7117 18.2045 25.361 17.6105 26.8353ZM42.3444 29.5312C41.4542 29.5742 40.573 29.3373 39.8244 28.8538C39.0758 28.3703 38.4975 27.6644 38.1707 26.8353C37.5768 25.361 37.5898 23.7117 38.2069 22.247C38.5898 22.9264 39.0628 23.551 39.6132 24.1036C39.8176 24.3088 40.095 24.4244 40.3846 24.4253C40.6742 24.4261 40.9523 24.3121 41.158 24.1082C41.3636 23.9042 41.4799 23.6271 41.4815 23.3375C41.483 23.0479 41.3697 22.7695 41.1662 22.5634C40.3256 21.8261 39.7933 20.7994 39.6751 19.6875C39.7934 18.5757 40.3257 17.549 41.1662 16.8116C41.2678 16.7097 41.3482 16.5888 41.4029 16.4558C41.4577 16.3228 41.4856 16.1802 41.4852 16.0364C41.4848 15.8926 41.456 15.7502 41.4005 15.6175C41.345 15.4848 41.2638 15.3644 41.1617 15.2631C41.0596 15.1618 40.9384 15.0816 40.8053 15.0272C40.6721 14.9728 40.5296 14.9452 40.3857 14.946C40.2419 14.9467 40.0996 14.9759 39.967 15.0317C39.8345 15.0876 39.7142 15.169 39.6132 15.2714C39.0629 15.8241 38.5898 16.4486 38.207 17.1281C37.5898 15.6633 37.5768 14.014 38.1707 12.5396C38.4975 11.7106 39.0759 11.0047 39.8244 10.5212C40.573 10.0377 41.4542 9.80075 42.3444 9.84375C49.4286 9.84375 51.9531 14.9285 51.9531 19.6875C51.9531 24.4465 49.4286 29.5312 42.3444 29.5312Z" fill="#151A6A"></path></svg>
</g>
</svg>
