<svg xmlns="http://www.w3.org/2000/svg" width="70" height="70" viewBox="0 0 70 70" fill="none"><path d="M33.0091 59.7583L26.8219 53.5711C26.7204 53.4695 26.5998 53.389 26.4671 53.334C26.3344 53.279 26.1922 53.2507 26.0485 53.2507C25.9049 53.2507 25.7627 53.279 25.63 53.334C25.4973 53.389 25.3767 53.4695 25.2751 53.5711C25.1736 53.6726 25.093 53.7932 25.038 53.9259C24.9831 54.0586 24.9548 54.2008 24.9548 54.3445C24.9548 54.4881 24.9831 54.6303 25.038 54.763C25.093 54.8957 25.1736 55.0163 25.2751 55.1179L27.5953 57.4381L19.0879 65.9455C18.8828 66.1506 18.7676 66.4288 18.7676 66.7189C18.7676 67.0089 18.8828 67.2871 19.0879 67.4923C19.2931 67.6974 19.5713 67.8126 19.8613 67.8126C20.1514 67.8126 20.4296 67.6974 20.6348 67.4923L29.1421 58.9849L31.4623 61.3051C31.5639 61.4066 31.6845 61.4872 31.8172 61.5422C31.9499 61.5971 32.0921 61.6254 32.2357 61.6254C32.3794 61.6254 32.5216 61.5971 32.6543 61.5422C32.787 61.4872 32.9076 61.4066 33.0091 61.3051C33.1107 61.2035 33.1912 61.0829 33.2462 60.9502C33.3012 60.8175 33.3295 60.6753 33.3295 60.5317C33.3295 60.388 33.3012 60.2458 33.2462 60.1131C33.1913 59.9804 33.1107 59.8598 33.0091 59.7583Z" fill="#B5E7F3"></path><path d="M62.3981 33.4625L53.1174 24.1817C52.5015 23.5673 51.6671 23.2222 50.7972 23.2222C49.9272 23.2222 49.0928 23.5673 48.477 24.1817L44.61 28.0487L48.477 31.9157C48.6821 32.1208 48.7973 32.399 48.7973 32.6891C48.7973 32.9792 48.6821 33.2574 48.477 33.4625C48.2719 33.6677 47.9937 33.7829 47.7036 33.7829C47.4135 33.7829 47.1353 33.6677 46.9302 33.4625L43.0632 29.5956L38.4228 34.2359L42.2898 38.1029C42.3913 38.2045 42.4719 38.3251 42.5269 38.4578C42.5818 38.5905 42.6101 38.7327 42.6101 38.8763C42.6101 39.02 42.5818 39.1622 42.5269 39.2949C42.4719 39.4276 42.3913 39.5482 42.2898 39.6497C42.1882 39.7513 42.0676 39.8319 41.9349 39.8868C41.8022 39.9418 41.66 39.9701 41.5164 39.9701C41.3727 39.9701 41.2305 39.9418 41.0978 39.8868C40.9651 39.8319 40.8445 39.7513 40.743 39.6497L36.876 35.7827L32.2356 40.4231L36.1026 44.2901C36.3077 44.4952 36.423 44.7734 36.423 45.0635C36.423 45.3536 36.3077 45.6318 36.1026 45.8369C36.001 45.9385 35.8805 46.019 35.7478 46.074C35.6151 46.129 35.4728 46.1573 35.3292 46.1573C35.0391 46.1573 34.7609 46.042 34.5558 45.8369L30.6888 41.9699L28.3686 44.2901C27.3446 45.3165 26.7695 46.7072 26.7695 48.1571C26.7695 49.607 27.3446 50.9977 28.3686 52.0241L34.5558 58.2113C35.5822 59.2353 36.9729 59.8104 38.4228 59.8104C39.8727 59.8104 41.2634 59.2353 42.2898 58.2113L62.3981 38.1029C63.0126 37.4871 63.3577 36.6527 63.3577 35.7827C63.3577 34.9128 63.0126 34.0784 62.3981 33.4625Z" fill="#B5E7F3"></path><path d="M57.7578 19.5415L60.078 21.8617L56.9844 24.9553L61.6247 29.5956L64.7183 26.5021L67.0385 28.8222C67.1401 28.9238 67.2606 29.0044 67.3933 29.0594C67.526 29.1143 67.6683 29.1426 67.8119 29.1426C67.9555 29.1426 68.0978 29.1143 68.2305 29.0594C68.3632 29.0044 68.4837 28.9238 68.5853 28.8223C68.6869 28.7207 68.7675 28.6001 68.8224 28.4674C68.8774 28.3347 68.9057 28.1925 68.9057 28.0489C68.9057 27.9052 68.8774 27.763 68.8224 27.6303C68.7675 27.4976 68.6869 27.377 68.5853 27.2755L59.3046 17.9947C59.0995 17.7896 58.8213 17.6743 58.5312 17.6743C58.2411 17.6743 57.9629 17.7896 57.7578 17.9947C57.5526 18.1998 57.4374 18.478 57.4374 18.7681C57.4374 19.0582 57.5526 19.3364 57.7578 19.5415Z" fill="#B5E7F3"></path><path d="M55.536 20.0918L42.701 4.29433C41.883 3.28708 40.746 2.58896 39.4776 2.31533C38.2093 2.04169 36.8856 2.2089 35.7251 2.78933L28.4373 6.43371L21.1491 2.78933C19.9888 2.20865 18.6652 2.04131 17.3969 2.31497C16.1287 2.58862 14.9918 3.28689 14.1742 4.29433L1.33875 20.0918C1.16806 20.3018 1.08129 20.5676 1.0952 20.8379C1.1091 21.1082 1.2227 21.3637 1.41404 21.5551C4.0117 24.1527 5.95621 27.7501 7.83609 31.2279C12.1037 39.1234 16.514 47.2881 28.4373 42.7369C39.3493 46.9043 43.837 40.8509 49.0386 31.2279C50.9185 27.7501 52.863 24.1527 55.4607 21.5551C55.652 21.3637 55.7656 21.1082 55.7795 20.8379C55.7934 20.5676 55.7067 20.3018 55.536 20.0918ZM15.872 5.67433C16.3838 5.06412 17.0841 4.64166 17.8626 4.47359C18.641 4.30552 19.4533 4.40141 20.1712 4.74613L27.9482 8.63511C28.1001 8.71097 28.2675 8.75046 28.4374 8.75046C28.6072 8.75046 28.7746 8.71097 28.9265 8.63511L36.703 4.74614C37.4211 4.40139 38.2335 4.30549 39.0121 4.47355C39.7907 4.64162 40.4912 5.06409 41.0032 5.67434L52.9138 20.3342C49.0025 21.8531 36.749 25.8606 29.1087 19.9187C28.9168 19.7692 28.6806 19.688 28.4374 19.688C28.1941 19.688 27.9579 19.7692 27.766 19.9187C20.1161 25.8669 7.89055 21.8651 3.96002 20.3352L15.872 5.67433ZM34.986 24.8423C33.3425 26.4503 30.7677 28.438 28.4373 28.438C25.9383 28.438 23.332 26.3234 21.8242 24.8592C24.1942 24.4237 26.4468 23.4972 28.4373 22.1393C30.4093 23.4844 32.6394 24.4048 34.986 24.8423ZM47.1144 30.1876C42.9002 37.9827 39.2589 44.715 28.8437 40.5472C28.5828 40.4433 28.2919 40.4433 28.0309 40.5472C17.6114 44.7161 13.9734 37.9827 9.76024 30.1876C8.52993 27.8052 7.16109 25.4969 5.66075 23.2746C9.98554 24.7751 14.5577 25.4333 19.1301 25.2137C20.2243 26.4513 24.2268 30.6255 28.4373 30.6255C32.5391 30.6255 36.4309 26.5934 37.6481 25.2078C42.2524 25.4248 46.8561 24.7679 51.2159 23.2717C49.7147 25.4948 48.3452 27.8041 47.1144 30.1876Z" fill="#151A6A"></path></svg>