<svg xmlns="http://www.w3.org/2000/svg" width="70" height="70" viewBox="0 0 70 70" fill="none"><path d="M65.625 26.7969H24.0625C23.1925 26.7978 22.3585 27.1438 21.7434 27.759C21.1282 28.3741 20.7822 29.2082 20.7812 30.0781V58.5156C20.7822 59.3856 21.1282 60.2196 21.7434 60.8348C22.3585 61.4499 23.1925 61.7959 24.0625 61.7969H40.4688V66.1719H38.2812C37.9912 66.1719 37.713 66.2871 37.5079 66.4922C37.3027 66.6973 37.1875 66.9755 37.1875 67.2656C37.1875 67.5557 37.3027 67.8339 37.5079 68.039C37.713 68.2441 37.9912 68.3594 38.2812 68.3594H51.4062C51.6963 68.3594 51.9745 68.2441 52.1796 68.039C52.3848 67.8339 52.5 67.5557 52.5 67.2656C52.5 66.9755 52.3848 66.6973 52.1796 66.4922C51.9745 66.2871 51.6963 66.1719 51.4062 66.1719H49.2188V61.7969H65.625C66.4949 61.7959 67.329 61.4499 67.9441 60.8348C68.5593 60.2196 68.9053 59.3856 68.9062 58.5156V30.0781C68.9053 29.2082 68.5593 28.3741 67.9441 27.759C67.329 27.1438 66.4949 26.7978 65.625 26.7969ZM59.0625 33.3594H63.4375C63.7276 33.3594 64.0058 33.4746 64.2109 33.6797C64.416 33.8848 64.5312 34.163 64.5312 34.4531C64.5312 34.7432 64.416 35.0214 64.2109 35.2265C64.0058 35.4316 63.7276 35.5469 63.4375 35.5469H59.0625C58.7724 35.5469 58.4942 35.4316 58.2891 35.2265C58.084 35.0214 57.9688 34.7432 57.9688 34.4531C57.9688 34.163 58.084 33.8848 58.2891 33.6797C58.4942 33.4746 58.7724 33.3594 59.0625 33.3594ZM59.0625 39.9219H63.4375C63.7276 39.9219 64.0058 40.0371 64.2109 40.2422C64.416 40.4473 64.5312 40.7255 64.5312 41.0156C64.5312 41.3057 64.416 41.5839 64.2109 41.789C64.0058 41.9941 63.7276 42.1094 63.4375 42.1094H59.0625C58.7724 42.1094 58.4942 41.9941 58.2891 41.789C58.084 41.5839 57.9688 41.3057 57.9688 41.0156C57.9688 40.7255 58.084 40.4473 58.2891 40.2422C58.4942 40.0371 58.7724 39.9219 59.0625 39.9219ZM59.0625 46.4844H63.4375C63.7276 46.4844 64.0058 46.5996 64.2109 46.8047C64.416 47.0098 64.5312 47.288 64.5312 47.5781C64.5312 47.8682 64.416 48.1464 64.2109 48.3515C64.0058 48.5566 63.7276 48.6719 63.4375 48.6719H59.0625C58.7724 48.6719 58.4942 48.5566 58.2891 48.3515C58.084 48.1464 57.9688 47.8682 57.9688 47.5781C57.9688 47.288 58.084 47.0098 58.2891 46.8047C58.4942 46.5996 58.7724 46.4844 59.0625 46.4844ZM53.5938 30.0781C53.5938 29.788 53.709 29.5098 53.9141 29.3047C54.1192 29.0996 54.3974 28.9844 54.6875 28.9844C54.9776 28.9844 55.2558 29.0996 55.4609 29.3047C55.666 29.5098 55.7812 29.788 55.7812 30.0781V54.1406C55.7812 54.4307 55.666 54.7089 55.4609 54.914C55.2558 55.1191 54.9776 55.2344 54.6875 55.2344C54.3974 55.2344 54.1192 55.1191 53.9141 54.914C53.709 54.7089 53.5938 54.4307 53.5938 54.1406V30.0781ZM33.7161 37.7509C33.8726 37.7234 34.0332 37.7302 34.1868 37.771C34.3404 37.8119 34.4833 37.8856 34.6054 37.9872C34.7276 38.0888 34.8262 38.2158 34.8944 38.3594C34.9625 38.5029 34.9985 38.6596 35 38.8185C35.0126 40.266 35.0127 41.5458 35.0097 42.7421L37.1875 40.5625V33.3594C37.1875 33.0693 37.3027 32.7911 37.5079 32.586C37.713 32.3809 37.9912 32.2656 38.2812 32.2656C38.5713 32.2656 38.8495 32.3809 39.0546 32.586C39.2598 32.7911 39.375 33.0693 39.375 33.3594V40.5625L41.5528 42.7421C41.5498 41.5458 41.5499 40.266 41.5625 38.8185C41.564 38.6596 41.6 38.5029 41.6681 38.3594C41.7363 38.2158 41.8349 38.0888 41.9571 37.9872C42.0792 37.8856 42.2221 37.8118 42.3757 37.771C42.5292 37.7302 42.6899 37.7234 42.8464 37.7509C48.0075 38.6631 50.3088 43.0429 50.3088 51.9531C50.3088 52.2432 50.1935 52.5214 49.9884 52.7265C49.7833 52.9316 49.5051 53.0469 49.215 53.0469C44.4234 53.0469 41.5625 50.5352 41.5625 46.3279L41.5613 45.8463L38.2812 42.5633L35.0012 45.8463L35 46.3279C35 50.5352 32.1391 53.0469 27.3475 53.0469C27.0574 53.0469 26.7792 52.9316 26.5741 52.7265C26.369 52.5214 26.2537 52.2432 26.2537 51.9531C26.2537 43.0429 28.555 38.6631 33.7161 37.7509ZM66.7188 58.5156C66.7184 58.8056 66.603 59.0836 66.398 59.2886C66.1929 59.4936 65.915 59.609 65.625 59.6094H24.0625C23.7725 59.609 23.4946 59.4936 23.2895 59.2886C23.0845 59.0836 22.9691 58.8056 22.9688 58.5156V57.4219H66.7188V58.5156Z" fill="#B5E7F3"></path><path d="M33.486 14.0644C33.1592 13.962 32.8124 13.9372 32.4746 13.9929C32.1367 14.0486 31.8165 14.1828 31.5399 14.3847C31.2633 14.5866 31.0379 14.8505 30.8818 15.1553C30.7257 15.4601 30.6432 15.7973 30.6411 16.1398C30.6374 16.8563 30.6363 17.5344 30.636 18.1976L29.5319 17.4615V9.29688C29.5319 9.00679 29.4166 8.7286 29.2115 8.52348C29.0064 8.31836 28.7282 8.20312 28.4381 8.20312C28.148 8.20312 27.8698 8.31836 27.6647 8.52348C27.4596 8.7286 27.3444 9.00679 27.3444 9.29688V17.4615L26.2654 18.1809C26.265 17.5226 26.2638 16.8497 26.2602 16.1387C26.2578 15.7964 26.1752 15.4594 26.019 15.1548C25.8628 14.8502 25.6373 14.5864 25.3608 14.3847C25.0842 14.1829 24.7642 14.0488 24.4264 13.9931C24.0887 13.9374 23.7425 13.9616 23.4158 14.0638C18.0069 15.7664 15.515 21.0178 15.3382 31.0901C15.333 31.3952 15.3916 31.6981 15.5104 31.9792C15.6291 32.2603 15.8052 32.5135 16.0275 32.7226C16.2499 32.9316 16.5134 33.0919 16.8013 33.1931C17.0892 33.2943 17.3951 33.3342 17.6993 33.3102C23.1338 32.8771 26.2506 29.763 26.2506 24.7659L26.2581 21.8291C26.2593 21.4956 26.2604 21.1542 26.2616 20.8123L28.4381 19.3612L30.6398 20.829C30.6409 21.1651 30.642 21.501 30.6432 21.829L30.6507 24.7658C30.6507 29.763 33.7675 32.8771 39.2036 33.3102C39.5078 33.3339 39.8135 33.2937 40.1012 33.1924C40.3889 33.091 40.6523 32.9307 40.8744 32.7216C41.0965 32.5126 41.2725 32.2594 41.3911 31.9784C41.5097 31.6973 41.5683 31.3946 41.5631 31.0896C41.3863 21.0178 38.895 15.767 33.486 14.0644ZM24.0769 19.6398L21.2689 21.5119C21.1479 21.5909 21.0437 21.6931 20.9624 21.8126C20.8811 21.9321 20.8243 22.0665 20.7953 22.2081C20.7662 22.3497 20.7656 22.4956 20.7933 22.6375C20.821 22.7793 20.8765 22.9143 20.9567 23.0345C21.0369 23.1548 21.1401 23.2579 21.2604 23.3381C21.3807 23.4182 21.5156 23.4737 21.6575 23.5013C21.7993 23.529 21.9453 23.5282 22.0869 23.4992C22.2284 23.4701 22.3628 23.4132 22.4823 23.3319L24.0695 22.2737L24.0631 24.7659C24.0631 29.5948 20.5079 30.892 17.5258 31.1281C17.7276 19.6165 21.1301 17.077 24.0722 16.1504L24.0728 16.1515C24.0791 17.3955 24.0791 18.5429 24.0769 19.6398ZM32.8383 24.7659L32.832 22.2906L34.394 23.3319C34.6353 23.4894 34.9291 23.5452 35.2114 23.4873C35.4938 23.4294 35.7418 23.2624 35.9017 23.0226C36.0616 22.7828 36.1203 22.4896 36.0652 22.2067C36.0101 21.9238 35.8455 21.6741 35.6073 21.5119L32.8244 19.6566C32.8222 18.5548 32.8222 17.4021 32.8286 16.1513C35.7707 17.0779 39.1737 19.6166 39.3761 31.1292C36.3934 30.892 32.8383 29.5948 32.8383 24.7659Z" fill="#151A6A"></path><path d="M52.5 1.64062H4.375C3.50505 1.64157 2.671 1.98758 2.05585 2.60273C1.44071 3.21788 1.0947 4.05192 1.09375 4.92188V39.9219C1.0947 40.7918 1.44071 41.6259 2.05585 42.241C2.671 42.8562 3.50505 43.2022 4.375 43.2031H52.5C53.3699 43.2022 54.204 42.8562 54.8191 42.241C55.4343 41.6259 55.7803 40.7918 55.7812 39.9219V4.92188C55.7803 4.05192 55.4343 3.21788 54.8191 2.60273C54.204 1.98758 53.3699 1.64157 52.5 1.64062ZM53.5938 39.9219C53.5934 40.2118 53.478 40.4898 53.273 40.6949C53.0679 40.8999 52.79 41.0152 52.5 41.0156H4.375C4.08504 41.0152 3.80705 40.8999 3.60202 40.6949C3.39698 40.4898 3.28163 40.2118 3.28125 39.9219V4.92188C3.28163 4.63191 3.39698 4.35393 3.60202 4.14889C3.80705 3.94386 4.08504 3.8285 4.375 3.82812H52.5C52.79 3.8285 53.0679 3.94386 53.273 4.14889C53.478 4.35393 53.5934 4.63191 53.5938 4.92188V39.9219Z" fill="#151A6A"></path><path d="M10.9375 6.01562H6.5625C6.27242 6.01562 5.99422 6.13086 5.7891 6.33598C5.58398 6.5411 5.46875 6.81929 5.46875 7.10938V11.4844C5.46875 11.7745 5.58398 12.0527 5.7891 12.2578C5.99422 12.4629 6.27242 12.5781 6.5625 12.5781C6.85258 12.5781 7.13078 12.4629 7.3359 12.2578C7.54102 12.0527 7.65625 11.7745 7.65625 11.4844V8.20312H10.9375C11.2276 8.20312 11.5058 8.08789 11.7109 7.88277C11.916 7.67765 12.0312 7.39946 12.0312 7.10938C12.0312 6.81929 11.916 6.5411 11.7109 6.33598C11.5058 6.13086 11.2276 6.01562 10.9375 6.01562Z" fill="#151A6A"></path><path d="M50.3125 32.2656C50.0224 32.2656 49.7442 32.3809 49.5391 32.586C49.334 32.7911 49.2188 33.0693 49.2188 33.3594V36.6406H45.9375C45.6474 36.6406 45.3692 36.7559 45.1641 36.961C44.959 37.1661 44.8438 37.4443 44.8438 37.7344C44.8438 38.0245 44.959 38.3027 45.1641 38.5078C45.3692 38.7129 45.6474 38.8281 45.9375 38.8281H50.3125C50.6026 38.8281 50.8808 38.7129 51.0859 38.5078C51.291 38.3027 51.4062 38.0245 51.4062 37.7344V33.3594C51.4062 33.0693 51.291 32.7911 51.0859 32.586C50.8808 32.3809 50.6026 32.2656 50.3125 32.2656Z" fill="#151A6A"></path><path d="M50.3125 6.01562H45.9375C45.6474 6.01562 45.3692 6.13086 45.1641 6.33598C44.959 6.5411 44.8438 6.81929 44.8438 7.10938C44.8438 7.39946 44.959 7.67765 45.1641 7.88277C45.3692 8.08789 45.6474 8.20312 45.9375 8.20312H49.2188V11.4844C49.2188 11.7745 49.334 12.0527 49.5391 12.2578C49.7442 12.4629 50.0224 12.5781 50.3125 12.5781C50.6026 12.5781 50.8808 12.4629 51.0859 12.2578C51.291 12.0527 51.4062 11.7745 51.4062 11.4844V7.10938C51.4062 6.81929 51.291 6.5411 51.0859 6.33598C50.8808 6.13086 50.6026 6.01562 50.3125 6.01562Z" fill="#151A6A"></path><path d="M10.9375 36.6406H7.65625V33.3594C7.65625 33.0693 7.54102 32.7911 7.3359 32.586C7.13078 32.3809 6.85258 32.2656 6.5625 32.2656C6.27242 32.2656 5.99422 32.3809 5.7891 32.586C5.58398 32.7911 5.46875 33.0693 5.46875 33.3594V37.7344C5.46875 38.0245 5.58398 38.3027 5.7891 38.5078C5.99422 38.7129 6.27242 38.8281 6.5625 38.8281H10.9375C11.2276 38.8281 11.5058 38.7129 11.7109 38.5078C11.916 38.3027 12.0312 38.0245 12.0312 37.7344C12.0312 37.4443 11.916 37.1661 11.7109 36.961C11.5058 36.7559 11.2276 36.6406 10.9375 36.6406Z" fill="#151A6A"></path></svg>