<svg xmlns="http://www.w3.org/2000/svg" id="Capa_1" x="0px" y="0px" viewBox="0 0 140 140">
<style type="text/css">
.st0{fill:none;stroke:#5FBCD3;stroke-width:2;}
.st1{fill:#B5E7F3;}
.st2{fill:#151A6A;}
</style>
<circle class="st0" cx="70" cy="70" r="69"/>
<g transform="translate(35,35) scale(1)">
<svg xmlns="http://www.w3.org/2000/svg" width="70" height="70" viewBox="0 0 70 70" fill="none"><path d="M40.4688 50.3137C39.1708 50.3137 37.902 50.6986 36.8228 51.4197C35.7436 52.1408 34.9025 53.1657 34.4058 54.3649C33.9091 55.564 33.7791 56.8835 34.0323 58.1565C34.2856 59.4295 34.9106 60.5988 35.8284 61.5166C36.7461 62.4344 37.9155 63.0594 39.1885 63.3126C40.4615 63.5658 41.781 63.4359 42.9801 62.9392C44.1793 62.4425 45.2042 61.6014 45.9253 60.5222C46.6464 59.443 47.0313 58.1742 47.0313 56.8762C47.0294 55.1363 46.3373 53.4682 45.107 52.2379C43.8767 51.0076 42.2087 50.3156 40.4688 50.3137ZM40.4688 58.2434C40.1983 58.2434 39.934 58.1632 39.7092 58.013C39.4844 57.8628 39.3091 57.6492 39.2056 57.3994C39.1022 57.1496 39.0751 56.8747 39.1278 56.6095C39.1806 56.3443 39.3108 56.1007 39.502 55.9095C39.6932 55.7183 39.9368 55.5881 40.202 55.5353C40.4672 55.4825 40.7421 55.5096 40.992 55.6131C41.2418 55.7166 41.4553 55.8918 41.6055 56.1167C41.7558 56.3415 41.8359 56.6058 41.8359 56.8762C41.8359 57.2388 41.6919 57.5866 41.4355 57.843C41.1791 58.0994 40.8314 58.2434 40.4688 58.2434Z" fill="#B5E7F3"></path><path d="M55.7812 40.47H41.5625V42.6575H58.861C58.6362 42.0195 58.2196 41.4668 57.6682 41.0751C57.1167 40.6834 56.4576 40.4721 55.7812 40.47Z" fill="#B5E7F3"></path><path d="M59.0625 44.845H41.5625V48.2022C43.4872 48.4475 45.276 49.325 46.648 50.697C48.02 52.069 48.8975 53.8578 49.1428 55.7825H59.0625V44.845Z" fill="#B5E7F3"></path><path d="M65.625 27.345H45.2966L39.0546 21.1029C38.9016 20.9502 38.7067 20.8462 38.4946 20.8041C38.2825 20.762 38.0627 20.7837 37.863 20.8665C37.6632 20.9492 37.4925 21.0893 37.3722 21.269C37.252 21.4487 37.1877 21.66 37.1875 21.8762V27.345H31.7188C30.8488 27.3459 30.0148 27.6919 29.3996 28.3071C28.7845 28.9222 28.4384 29.7563 28.4375 30.6262V65.6262C28.4384 66.4962 28.7845 67.3302 29.3996 67.9454C30.0148 68.5605 30.8488 68.9065 31.7188 68.9075H65.625C66.4949 68.9065 67.329 68.5605 67.9441 67.9454C68.5593 67.3302 68.9053 66.4962 68.9062 65.6262V30.6262C68.9053 29.7563 68.5593 28.9222 67.9441 28.3071C67.329 27.6919 66.4949 27.3459 65.625 27.345ZM60.7031 65.6262C59.8116 65.627 58.9366 65.3854 58.1717 64.9272C57.4069 64.4691 56.781 63.8116 56.361 63.0252C55.9411 62.2387 55.7428 61.3529 55.7874 60.4625C55.832 59.572 56.1179 58.7105 56.6144 57.97H49.1428C48.9388 59.5941 48.2832 61.1283 47.2504 62.3983C46.2177 63.6682 44.8493 64.6229 43.3009 65.1536C41.7525 65.6844 40.0862 65.77 38.4915 65.4007C36.8969 65.0314 35.4379 64.222 34.2804 63.0646C33.123 61.9071 32.3136 60.4481 31.9443 58.8535C31.575 57.2588 31.6606 55.5925 32.1913 54.0441C32.7221 52.4957 33.6767 51.1273 34.9467 50.0945C36.2166 49.0618 37.7509 48.4062 39.375 48.2022V37.1887C39.3741 36.3188 39.028 35.4847 38.4129 34.8696C37.7977 34.2544 36.9637 33.9084 36.0938 33.9075H35C34.7099 33.9075 34.4317 33.7922 34.2266 33.5871C34.0215 33.382 33.9062 33.1038 33.9062 32.8137C33.9062 32.5236 34.0215 32.2454 34.2266 32.0403C34.4317 31.8352 34.7099 31.72 35 31.72H36.0938C37.5436 31.7217 38.9336 32.2984 39.9589 33.3236C40.9841 34.3488 41.5608 35.7388 41.5625 37.1887V38.2825H55.7812C57.2311 38.2842 58.6211 38.8609 59.6464 39.8861C60.6716 40.9113 61.2483 42.3013 61.25 43.7512V55.8378C62.4995 55.9742 63.6491 56.5847 64.4618 57.5435C65.2745 58.5023 65.6885 59.7364 65.6183 60.9913C65.5482 62.2463 64.9994 63.4265 64.0849 64.2889C63.1705 65.1512 61.96 65.6298 60.7031 65.6262Z" fill="#B5E7F3"></path><path d="M60.7031 63.4387C62.2133 63.4387 63.4375 62.2145 63.4375 60.7043C63.4375 59.1942 62.2133 57.97 60.7031 57.97C59.193 57.97 57.9688 59.1942 57.9688 60.7043C57.9688 62.2145 59.193 63.4387 60.7031 63.4387Z" fill="#B5E7F3"></path><path d="M55.7812 7.29303C55.7812 1.50064 49.1914 -0.843712 44.8438 2.91585C41.6697 0.171146 36.5964 0.425377 34.5934 4.37756L31.0544 1.91616C30.2827 1.3914 29.3711 1.11072 28.4379 1.11052C27.5047 1.11033 26.593 1.39063 25.8212 1.91506L2.18002 18.3619C1.73921 18.6704 1.40808 19.1112 1.23463 19.6205C1.06117 20.1298 1.0544 20.6811 1.2153 21.1945C1.3762 21.7079 1.69641 22.1567 2.12951 22.4759C2.56261 22.7951 3.0861 22.9681 3.62412 22.9698H4.375V53.5948H2.1875C1.89742 53.5948 1.61922 53.71 1.4141 53.9151C1.20898 54.1202 1.09375 54.3984 1.09375 54.6885C1.09375 54.9786 1.20898 55.2568 1.4141 55.4619C1.61922 55.667 1.89742 55.7823 2.1875 55.7823H54.6875C54.9776 55.7823 55.2558 55.667 55.4609 55.4619C55.666 55.2568 55.7812 54.9786 55.7812 54.6885C55.7812 54.3984 55.666 54.1202 55.4609 53.9151C55.2558 53.71 54.9776 53.5948 54.6875 53.5948H52.5V22.9698H53.2509C53.7889 22.9681 54.3124 22.7952 54.7456 22.4761C55.1787 22.1569 55.499 21.7082 55.66 21.1948C55.8211 20.6814 55.8144 20.1301 55.6411 19.6208C55.4678 19.1114 55.1368 18.6705 54.696 18.3619L50.549 15.4769C54.9764 12.2355 55.7812 9.11144 55.7812 7.29303ZM17.6553 24.0635H26.0947C25.8562 25.0017 25.3118 25.8337 24.5476 26.4279C23.7834 27.0221 22.843 27.3448 21.875 27.3448C20.9069 27.3448 19.9665 27.0221 19.2023 26.4279C18.4381 25.8337 17.8938 25.0017 17.6553 24.0635ZM17.6973 21.876L18.2744 18.4143C18.3165 18.1587 18.4481 17.9265 18.6458 17.7592C18.8435 17.5918 19.0942 17.5003 19.3532 17.501H24.3968C24.6558 17.5003 24.9066 17.5918 25.1043 17.7592C25.3019 17.9265 25.4336 18.1587 25.4756 18.4143L26.0528 21.876H17.6973ZM28.4375 29.5323C29.0175 29.5329 29.5735 29.7636 29.9836 30.1737C30.3937 30.5838 30.6243 31.1398 30.625 31.7198V35.001C30.625 35.1446 30.6532 35.2869 30.7082 35.4196C30.7631 35.5523 30.8437 35.6729 30.9453 35.7745C31.0468 35.8761 31.1674 35.9566 31.3001 36.0116C31.4329 36.0665 31.5751 36.0948 31.7188 36.0948H32.8125V38.2823H30.625C30.045 38.2816 29.489 38.0509 29.0789 37.6408C28.6688 37.2307 28.4382 36.6747 28.4375 36.0948V33.9072C28.4375 33.6172 28.3223 33.339 28.1171 33.1339C27.912 32.9287 27.6338 32.8135 27.3438 32.8135C27.0537 32.8135 26.7755 32.9287 26.5704 33.1339C26.3652 33.339 26.25 33.6172 26.25 33.9072V40.4698H17.5V33.9072C17.5 33.6172 17.3848 33.339 17.1796 33.1339C16.9745 32.9287 16.6963 32.8135 16.4062 32.8135C16.1162 32.8135 15.838 32.9287 15.6329 33.1339C15.4277 33.339 15.3125 33.6172 15.3125 33.9072V39.376H13.125V31.7198C13.1257 31.1398 13.3563 30.5838 13.7664 30.1737C14.1765 29.7636 14.7325 29.5329 15.3125 29.5323H28.4375ZM36.0938 36.0948C36.3838 36.0948 36.662 36.21 36.8671 36.4151C37.0723 36.6202 37.1875 36.8984 37.1875 37.1885C37.1875 37.4786 37.0723 37.7568 36.8671 37.9619C36.662 38.167 36.3838 38.2823 36.0938 38.2823H35V36.0948H36.0938ZM17.5 42.6573H20.7812V49.2198H17.5V42.6573ZM22.9688 42.6573H26.25V49.2198H22.9688V42.6573ZM13.125 41.5635H15.3125V42.6573C15.3125 42.9473 15.1973 43.2255 14.9921 43.4307C14.787 43.6358 14.5088 43.751 14.2188 43.751C13.9287 43.751 13.6505 43.6358 13.4454 43.4307C13.2402 43.2255 13.125 42.9473 13.125 42.6573V41.5635ZM16.4062 51.4073H20.7812V53.5948H14.2188C14.2194 53.0148 14.4501 52.4588 14.8602 52.0487C15.2703 51.6386 15.8263 51.4079 16.4062 51.4073ZM22.9688 53.5948V51.4073H27.3438C27.9237 51.4079 28.4797 51.6386 28.8898 52.0487C29.2999 52.4588 29.5306 53.0148 29.5312 53.5948H22.9688ZM28.4375 49.3751V39.8613C29.0995 40.2553 29.8547 40.4654 30.625 40.4698H35.1553C35.057 40.8262 35.0048 41.1938 35 41.5635V42.6573C35 42.9474 35.1152 43.2256 35.3204 43.4307C35.5255 43.6358 35.8037 43.751 36.0938 43.751C36.3838 43.751 36.662 43.6358 36.8671 43.4307C37.0723 43.2256 37.1875 42.9474 37.1875 42.6573V41.5635C37.1875 40.9834 37.418 40.427 37.8282 40.0167C38.2384 39.6065 38.7948 39.376 39.375 39.376C39.9552 39.376 40.5116 39.6065 40.9218 40.0167C41.332 40.427 41.5625 40.9834 41.5625 41.5635V53.5948H31.7188C31.7159 52.6275 31.3922 51.6884 30.7985 50.9248C30.2047 50.1612 29.3743 49.6161 28.4375 49.3751ZM53.4474 20.1585C53.5069 20.2004 53.5516 20.2602 53.5749 20.3292C53.5982 20.3982 53.599 20.4728 53.5771 20.5422C53.5552 20.6116 53.5118 20.6723 53.4532 20.7155C53.3945 20.7586 53.3237 20.782 53.2509 20.7823H51.4062C51.2626 20.7822 51.1204 20.8105 50.9876 20.8655C50.8549 20.9204 50.7343 21.001 50.6328 21.1025C50.5312 21.2041 50.4506 21.3247 50.3957 21.4574C50.3407 21.5901 50.3125 21.7324 50.3125 21.876V53.5948H43.75V41.5635C43.7488 40.4036 43.2874 39.2915 42.4672 38.4713C41.647 37.6511 40.5349 37.1898 39.375 37.1885C39.3741 36.3186 39.028 35.4845 38.4129 34.8694C37.7977 34.2542 36.9637 33.9082 36.0938 33.9073H32.8125V31.7198C32.8113 30.5598 32.3499 29.4477 31.5297 28.6275C30.7095 27.8073 29.5974 27.346 28.4375 27.3448H26.7526C27.5818 26.4236 28.1319 25.2856 28.3387 24.0635H29.5312C29.8213 24.0635 30.0995 23.9483 30.3046 23.7432C30.5098 23.5381 30.625 23.2599 30.625 22.9698C30.625 22.6797 30.5098 22.4015 30.3046 22.1964C30.0995 21.9913 29.8213 21.876 29.5312 21.876H28.2702L27.6332 18.0554C27.5076 17.2883 27.1129 16.591 26.5199 16.0886C25.9268 15.5861 25.1741 15.3113 24.3968 15.3135H19.3532C18.5759 15.3113 17.8232 15.5861 17.2302 16.0886C16.6371 16.591 16.2424 17.2883 16.1168 18.0554L15.4798 21.876H14.2188C13.9287 21.876 13.6505 21.9912 13.4454 22.1964C13.2402 22.4015 13.125 22.6797 13.125 22.9698C13.125 23.2598 13.2402 23.538 13.4454 23.7432C13.6505 23.9483 13.9287 24.0635 14.2188 24.0635H15.4113C15.6181 25.2856 16.1682 26.4236 16.9974 27.3448H15.3125C14.1526 27.346 13.0405 27.8073 12.2203 28.6275C11.4001 29.4477 10.9387 30.5598 10.9375 31.7198V42.6573C10.9384 43.5272 11.2845 44.3613 11.8996 44.9764C12.5148 45.5915 13.3488 45.9376 14.2188 45.9385C14.5922 45.9348 14.9622 45.8666 15.3125 45.737V49.3751C14.3757 49.6161 13.5453 50.1612 12.9516 50.9248C12.3578 51.6884 12.0341 52.6274 12.0312 53.5948H6.5625V21.876C6.56254 21.7324 6.53427 21.5901 6.47932 21.4574C6.42437 21.3247 6.34381 21.2041 6.24223 21.1025C6.14066 21.0009 6.02007 20.9204 5.88736 20.8654C5.75464 20.8105 5.61239 20.7822 5.46875 20.7823H3.62412C3.55125 20.7821 3.48032 20.7587 3.42164 20.7155C3.36296 20.6723 3.31957 20.6115 3.29778 20.542C3.27599 20.4725 3.27693 20.3978 3.30047 20.3288C3.324 20.2598 3.3689 20.2002 3.42865 20.1585L27.0714 3.71059C27.4745 3.43671 27.9506 3.29037 28.438 3.29056C28.9253 3.29076 29.4013 3.43748 29.8042 3.71168L33.9452 6.59239C33.3717 12.0631 39.3576 16.1818 44.3866 18.4944C44.5299 18.5606 44.6859 18.5948 44.8438 18.5948C45.0016 18.5948 45.1576 18.5606 45.3009 18.4944C46.4247 17.9804 47.5201 17.4063 48.5821 16.7745L53.4474 20.1585ZM44.8438 16.293C28.3105 8.41563 39.4577 -0.873505 43.9604 5.13011C44.0672 5.26246 44.2023 5.36912 44.3558 5.4422C44.5094 5.51528 44.6774 5.5529 44.8474 5.55228C45.0175 5.55167 45.1852 5.51283 45.3382 5.43864C45.4912 5.36446 45.6256 5.25682 45.7313 5.1237C47.9636 2.08779 53.5938 2.75045 53.5938 7.29303C53.5938 10.3746 50.4124 13.6398 44.8438 16.293Z" fill="#151A6A"></path></svg>
</g>
</svg>
