<svg xmlns="http://www.w3.org/2000/svg" id="Capa_1" x="0px" y="0px" viewBox="0 0 140 140">
<style type="text/css">
.st0{fill:none;stroke:#5FBCD3;stroke-width:2;}
.st1{fill:#B5E7F3;}
.st2{fill:#151A6A;}
</style>
<circle class="st0" cx="70" cy="70" r="69"/>
<g transform="translate(35,35) scale(1)">
<svg xmlns="http://www.w3.org/2000/svg" width="70" height="70" viewBox="0 0 70 70" fill="none"><path d="M51.5156 48.3307C52.1308 47.7153 52.4763 46.8809 52.4763 46.0108C52.4763 45.1407 52.1308 44.3063 51.5156 43.691L41.9923 34.1677V22.4011C41.9923 21.5309 41.6466 20.6963 41.0313 20.0809C40.4159 19.4656 39.5813 19.1199 38.7111 19.1199C37.8409 19.1199 37.0063 19.4656 36.3909 20.0809C35.7755 20.6963 35.4298 21.5309 35.4298 22.4011V34.1677L25.9066 43.6899C25.6018 43.9946 25.3601 44.3563 25.1951 44.7545C25.0302 45.1526 24.9453 45.5793 24.9453 46.0103C24.9453 46.4412 25.0302 46.8679 25.1951 47.2661C25.3601 47.6642 25.6018 48.026 25.9066 48.3307C26.5315 48.9278 27.3626 49.261 28.227 49.261C29.0913 49.261 29.9224 48.9278 30.5473 48.3307L38.7111 40.1658L46.8759 48.3307C47.4913 48.9458 48.3257 49.2914 49.1958 49.2914C50.0659 49.2914 50.9003 48.9458 51.5156 48.3307Z" fill="#B5E7F3"></path><path d="M32.0886 49.8751C31.5832 50.3934 30.9798 50.8063 30.3136 51.0896C29.6473 51.373 28.9315 51.5212 28.2075 51.5258C27.4835 51.5303 26.7658 51.3911 26.0961 51.1161C25.4263 50.8411 24.8179 50.4358 24.3059 49.9239C23.794 49.4119 23.3889 48.8033 23.114 48.1336C22.8391 47.4638 22.6999 46.7461 22.7046 46.0221C22.7092 45.2981 22.8576 44.5823 23.141 43.9161C23.4245 43.2499 23.8374 42.6466 24.3558 42.1412L32.3227 34.1743C31.3278 32.9804 30.0631 32.0404 28.6331 31.4318C27.2032 30.8232 25.6489 30.5636 24.0988 30.6743C23.9894 30.7224 16.1964 31.032 14.8982 38.9059L11.9221 56.9429C11.6726 58.4568 11.7649 60.0072 12.192 61.4808C12.6191 62.9544 13.3703 64.3139 14.3906 65.4597C15.4109 66.6056 16.6745 67.5087 18.089 68.1032C19.5034 68.6976 21.0328 68.9683 22.5653 68.8954C25.9987 68.7177 29.2268 67.2062 31.5619 64.683C33.897 62.1598 35.1542 58.8244 35.0658 55.3876L34.8164 47.1495L32.0886 49.8751Z" fill="#B5E7F3"></path><path d="M65.4866 56.9428L62.5138 38.9058C61.2166 31.0308 53.4214 30.7223 53.312 30.6742C51.7617 30.562 50.207 30.8209 48.7768 31.4296C47.3466 32.0383 46.0821 32.9792 45.0881 34.1742L53.0572 42.1444C53.5756 42.6498 53.9884 43.2532 54.2718 43.9194C54.5551 44.5857 54.7034 45.3015 54.7079 46.0255C54.7124 46.7495 54.5732 47.4672 54.2982 48.1369C54.0232 48.8067 53.618 49.4151 53.106 49.927C52.594 50.439 51.9855 50.8441 51.3157 51.119C50.6459 51.3939 49.9282 51.5331 49.2042 51.5284C48.4802 51.5238 47.7644 51.3754 47.0982 51.092C46.432 50.8085 45.8287 50.3956 45.3233 49.8772L42.5966 47.1494L42.3461 55.3875C42.2582 58.8241 43.5157 62.1592 45.8507 64.6823C48.1856 67.2054 51.4135 68.7171 54.8466 68.8953C56.3788 68.9677 57.9079 68.6967 59.3219 68.102C60.7359 67.5073 61.9991 66.6041 63.0191 65.4583C64.039 64.3125 64.7899 62.9533 65.2168 61.4799C65.6438 60.0065 65.7359 58.4564 65.4866 56.9428Z" fill="#B5E7F3"></path><path d="M38.2812 29.5312H35.4244C35.4244 28.9511 35.1939 28.3947 34.7837 27.9845C34.3734 27.5742 33.817 27.3438 33.2369 27.3438H19.6875V7.96359C19.6884 7.67608 19.6324 7.39124 19.5228 7.12545C19.4131 6.85966 19.252 6.61817 19.0487 6.41487C18.8454 6.21156 18.6039 6.05047 18.3381 5.94084C18.0724 5.83122 17.7875 5.77523 17.5 5.77609V3.28125C17.5 2.70109 17.2695 2.14469 16.8593 1.73445C16.4491 1.32422 15.8927 1.09375 15.3125 1.09375H8.75C8.16984 1.09375 7.61344 1.32422 7.2032 1.73445C6.79297 2.14469 6.5625 2.70109 6.5625 3.28125V8.44266L6.03203 8.575C5.55861 8.69334 5.13835 8.96658 4.83809 9.35126C4.53784 9.73594 4.37483 10.21 4.375 10.698V35C4.37732 37.0299 5.1847 38.9759 6.62002 40.4112C8.05535 41.8466 10.0014 42.6539 12.0312 42.6562H33.2369C33.5241 42.6562 33.8086 42.5997 34.074 42.4897C34.3394 42.3798 34.5805 42.2187 34.7837 42.0155C34.9868 41.8124 35.1479 41.5713 35.2579 41.3059C35.3678 41.0405 35.4244 40.756 35.4244 40.4688H38.2812C38.8614 40.4688 39.4178 40.2383 39.828 39.828C40.2383 39.4178 40.4688 38.8614 40.4688 38.2812V31.7188C40.4688 31.1386 40.2383 30.5822 39.828 30.172C39.4178 29.7617 38.8614 29.5312 38.2812 29.5312ZM8.75 3.28125H15.3125V6.25516L8.75 7.89578V3.28125ZM17.5 40.4688H12.0312C10.5814 40.467 9.19139 39.8903 8.16618 38.8651C7.14096 37.8399 6.56424 36.4499 6.5625 35V17.2605L17.5 14.5261V40.4688ZM17.5 12.2708L6.5625 15.0052V10.698L17.5 7.96359V12.2708ZM33.2369 40.4688H19.6875V29.5312H33.2369V40.4688ZM38.2812 38.2812H35.4244V31.7188H38.2812V38.2812Z" fill="#151A6A"></path></svg>
</g>
</svg>
