<svg xmlns="http://www.w3.org/2000/svg" id="Capa_1" x="0px" y="0px" viewBox="0 0 140 140">
<style type="text/css">
.st0{fill:none;stroke:#5FBCD3;stroke-width:2;}
.st1{fill:#B5E7F3;}
.st2{fill:#151A6A;}
</style>
<circle class="st0" cx="70" cy="70" r="69"/>
<g transform="translate(35,35) scale(1)">
<svg xmlns="http://www.w3.org/2000/svg" width="70" height="70" viewBox="0 0 70 70" fill="none"><path d="M44.2969 20.7813H44.182C40.5684 20.8274 37.0501 21.9472 34.0746 23.9982C31.099 26.0492 28.8007 28.9388 27.4717 32.2995C26.2999 35.247 25.6997 38.3906 25.7031 41.5625C25.709 46.3732 27.5768 50.9948 30.915 54.4587C34.2533 57.9226 38.8028 59.9597 43.61 60.1431C47.6974 60.3229 51.7045 58.969 54.8452 56.347C57.9859 53.725 60.0336 50.0241 60.5866 45.9703C61.1396 41.9165 60.158 37.8024 57.8344 34.4349C55.5107 31.0675 52.0128 28.6897 48.0266 27.7681C39.5642 25.795 31.1719 31.7734 31.1719 40.4688C31.1756 43.9486 32.5597 47.2848 35.0203 49.7454C37.4809 52.206 40.8171 53.59 44.2969 53.5938C46.8041 53.6231 49.2434 52.7786 51.1957 51.2053C53.1481 49.6319 54.4917 47.4279 54.9959 44.9717C55.3067 43.5207 55.3195 42.0216 55.0337 40.5654C54.7479 39.1093 54.1694 37.7263 53.3333 36.5003C52.4971 35.2743 51.4208 34.2309 50.1694 33.4332C48.9181 32.6356 47.5178 32.1003 46.0534 31.8598C41.3295 31.0942 36.7281 34.4499 36.6472 39.235C36.6175 40.9836 37.1863 42.6898 38.2594 44.0708C39.3324 45.4518 40.8452 46.4245 42.5469 46.8278C46.0731 47.6591 49.7372 45.2386 49.7711 41.615C49.782 40.3176 49.332 39.0584 48.5011 38.0619C47.6702 37.0653 46.5125 36.3962 45.2342 36.1736C44.7714 36.0683 44.2919 36.0592 43.8254 36.1467C43.3589 36.2343 42.9153 36.4167 42.5222 36.6827C42.129 36.9487 41.7947 37.2926 41.5399 37.693C41.2851 38.0935 41.1152 38.542 41.0408 39.0108C40.9896 39.4692 41.0356 39.9332 41.1758 40.3726C41.316 40.8119 41.5473 41.2168 41.8545 41.5608C42.1618 41.9048 42.5381 42.1802 42.9589 42.3689C43.3798 42.5577 43.8357 42.6556 44.2969 42.6563C44.587 42.6563 44.8652 42.7715 45.0703 42.9766C45.2754 43.1817 45.3906 43.4599 45.3906 43.75C45.3906 44.0401 45.2754 44.3183 45.0703 44.5234C44.8652 44.7285 44.587 44.8438 44.2969 44.8438C43.5283 44.8428 42.7686 44.68 42.0671 44.366C41.3657 44.0521 40.7381 43.5939 40.2254 43.0214C39.7126 42.449 39.3261 41.7749 39.0911 41.0432C38.856 40.3115 38.7776 39.5385 38.8609 38.7745C38.9694 38.0224 39.2278 37.2998 39.6209 36.6494C40.0139 35.9991 40.5335 35.4343 41.1489 34.9885C41.7643 34.5427 42.463 34.2251 43.2034 34.0544C43.9439 33.8837 44.7111 33.8635 45.4595 33.9948C47.3854 34.2931 49.1254 35.3134 50.3259 36.8485C51.5263 38.3837 52.0972 40.3183 51.9225 42.2592C51.7997 43.309 51.4666 44.3234 50.9432 45.2416C50.4198 46.1599 49.7167 46.9633 48.8759 47.6039C48.0352 48.2444 47.074 48.709 46.0497 48.97C45.0255 49.2309 43.9591 49.2828 42.9144 49.1225C40.5639 48.7854 38.4139 47.6114 36.8595 45.8163C35.3051 44.0212 34.4507 41.7255 34.4531 39.3509C34.4684 32.9405 40.7269 28.4922 46.9995 29.8102C50.3708 30.5243 53.327 32.5331 55.2323 35.4045C57.1376 38.2759 57.8398 41.7804 57.1878 45.1642C56.6224 48.2039 54.992 50.9425 52.5893 52.8884C50.1866 54.8343 47.169 55.8599 44.0781 55.7813C42.0673 55.747 40.0828 55.317 38.2381 54.5158C36.3935 53.7147 34.7246 52.558 33.327 51.1119C31.9293 49.6658 30.8301 47.9585 30.0923 46.0876C29.3544 44.2167 28.9922 42.2188 29.0265 40.2079C29.0607 38.197 29.4907 36.2126 30.2919 34.3679C31.0931 32.5232 32.2497 30.8544 33.6959 29.4567C35.142 28.0591 36.8492 26.9599 38.7201 26.222C40.5911 25.4841 42.589 25.122 44.5998 25.1563C47.0441 25.2132 49.4532 25.7517 51.6891 26.7409C53.9251 27.7301 55.9439 29.1506 57.6302 30.921C59.3165 32.6914 60.6371 34.777 61.5163 37.0584C62.3955 39.3398 62.8162 41.7722 62.7542 44.2164C62.6922 46.6605 62.1488 49.0685 61.1551 51.3024C60.1613 53.5363 58.7367 55.5523 56.9629 57.2349C55.189 58.9176 53.1007 60.2339 50.8175 61.1084C48.5343 61.983 46.1011 62.3987 43.657 62.3317C38.2613 62.1592 33.1439 59.8962 29.3856 56.0208C25.6274 52.1454 23.5225 46.961 23.5156 41.5625C23.5117 36.8065 24.7563 32.1329 27.125 28.0088C23.0919 32.1128 20.6641 37.5271 20.2824 43.2685C19.9007 49.0099 21.5903 54.6979 25.0446 59.2997C28.4989 63.9016 33.4888 67.1123 39.1084 68.349C44.7281 69.5856 50.6049 68.7662 55.6719 66.0395L67.0053 68.8723C67.1886 68.9183 67.3807 68.9159 67.5628 68.8655C67.7449 68.8151 67.9108 68.7184 68.0444 68.5848C68.1781 68.4512 68.2748 68.2852 68.3252 68.1031C68.3756 67.921 68.3779 67.7289 68.332 67.5456L65.4927 56.2188C67.4633 52.5539 68.4494 48.4405 68.3544 44.2805C68.2594 40.1206 67.0866 36.0564 64.9507 32.4854C62.8148 28.9143 59.7889 25.9586 56.1687 23.9071C52.5485 21.8556 48.4579 20.7786 44.2969 20.7813Z" fill="#B5E7F3"></path><path d="M2.73438 55.7813C3.02446 55.7813 3.30266 55.6661 3.50778 55.461C3.7129 55.2559 3.82813 54.9777 3.82813 54.6876V19.0576C3.76196 15.0604 5.23963 11.1917 7.95364 8.25642C10.6677 5.32116 14.409 3.54546 18.3991 3.29883C20.4704 3.19684 22.5408 3.51695 24.4845 4.23972C26.4283 4.96249 28.2049 6.07283 29.7063 7.5033C31.2078 8.93377 32.4028 10.6545 33.2188 12.561C34.0348 14.4675 34.4548 16.52 34.4531 18.5938V25.1563C34.4531 25.3724 34.517 25.5836 34.6369 25.7634L39.8245 33.5454C39.9105 33.6744 39.9681 33.8203 39.9934 33.9733C40.0188 34.1263 40.0113 34.2829 39.9714 34.4328C39.9316 34.5827 39.8604 34.7224 39.7625 34.8426C39.6645 34.9628 39.5422 35.0609 39.4034 35.1302L35.058 37.3035C34.8763 37.3943 34.7235 37.5338 34.6167 37.7065C34.5099 37.8792 34.4532 38.0783 34.4531 38.2813V42.6563C34.4531 42.9464 34.3379 43.2246 34.1328 43.4297C33.9277 43.6348 33.6495 43.7501 33.3594 43.7501H25.7031C25.413 43.7501 25.1348 43.8653 24.9297 44.0704C24.7246 44.2755 24.6094 44.5537 24.6094 44.8438V54.6876C24.6094 54.9777 24.7246 55.2559 24.9297 55.461C25.1348 55.6661 25.413 55.7813 25.7031 55.7813C25.9932 55.7813 26.2714 55.6661 26.4765 55.461C26.6816 55.2559 26.7969 54.9777 26.7969 54.6876V45.9376H33.3594C34.2296 45.9376 35.0642 45.5919 35.6796 44.9765C36.2949 44.3612 36.6406 43.5266 36.6406 42.6563V38.9573L40.3824 37.087C40.7985 36.8788 41.1657 36.5846 41.4595 36.2237C41.7533 35.8629 41.9669 35.4436 42.0863 34.9939C42.2057 34.5441 42.228 34.0741 42.1518 33.6151C42.0757 33.156 41.9028 32.7184 41.6445 32.3313L36.6406 24.8282V18.5938C36.6424 16.224 36.1626 13.8786 35.2302 11.7C34.2978 9.52129 32.9324 7.55486 31.2168 5.92007C29.5012 4.28527 27.4712 3.01621 25.2501 2.18995C23.029 1.36368 20.6632 0.997461 18.2963 1.11351C13.7444 1.38663 9.47311 3.40414 6.37091 6.74632C3.2687 10.0885 1.57446 14.498 1.64063 19.0576V54.6876C1.64063 54.9777 1.75587 55.2559 1.96098 55.461C2.1661 55.6661 2.4443 55.7813 2.73438 55.7813Z" fill="#151A6A"></path><path d="M19.6875 18.0469C19.9776 18.0469 20.2558 17.9316 20.4609 17.7265C20.666 17.5214 20.7812 17.2432 20.7812 16.9531C20.7812 16.663 20.666 16.3848 20.4609 16.1797C20.2558 15.9746 19.9776 15.8594 19.6875 15.8594C18.9623 15.8594 18.2668 16.1475 17.754 16.6603C17.2412 17.173 16.9531 17.8685 16.9531 18.5938C16.9531 19.7541 17.4141 20.8669 18.2345 21.6873C19.055 22.5078 20.1678 22.9688 21.3281 22.9688C22.4884 22.9688 23.6012 22.5078 24.4217 21.6873C25.2422 20.8669 25.7031 19.7541 25.7031 18.5938C25.7031 16.8533 25.0117 15.1841 23.781 13.9534C22.5503 12.7227 20.8811 12.0312 19.1406 12.0312C17.4001 12.0312 15.7309 12.7227 14.5002 13.9534C13.2695 15.1841 12.5781 16.8533 12.5781 18.5938C12.5781 20.9144 13.5 23.14 15.1409 24.7809C16.7819 26.4219 19.0075 27.3438 21.3281 27.3438C23.6488 27.3438 25.8744 26.4219 27.5153 24.7809C29.1563 23.14 30.0781 20.9144 30.0781 18.5938C30.0781 15.6929 28.9258 12.9109 26.8746 10.8598C24.8234 8.80859 22.0414 7.65625 19.1406 7.65625C16.2398 7.65625 13.4578 8.80859 11.4066 10.8598C9.35547 12.9109 8.20313 15.6929 8.20312 18.5938V54.6875C8.20312 54.9776 8.31836 55.2558 8.52348 55.4609C8.7286 55.666 9.00679 55.7812 9.29688 55.7812C9.58696 55.7812 9.86515 55.666 10.0703 55.4609C10.2754 55.2558 10.3906 54.9776 10.3906 54.6875V18.5938C10.3906 16.2731 11.3125 14.0475 12.9534 12.4066C14.5944 10.7656 16.82 9.84375 19.1406 9.84375C21.4613 9.84375 23.6869 10.7656 25.3278 12.4066C26.9688 14.0475 27.8906 16.2731 27.8906 18.5938C27.8906 20.3342 27.1992 22.0034 25.9685 23.2341C24.7378 24.4648 23.0686 25.1562 21.3281 25.1562C19.5876 25.1562 17.9184 24.4648 16.6877 23.2341C15.457 22.0034 14.7656 20.3342 14.7656 18.5938C14.7656 17.4334 15.2266 16.3206 16.047 15.5002C16.8675 14.6797 17.9803 14.2188 19.1406 14.2188C20.3009 14.2188 21.4137 14.6797 22.2342 15.5002C23.0547 16.3206 23.5156 17.4334 23.5156 18.5938C23.5156 19.1739 23.2852 19.7303 22.8749 20.1405C22.4647 20.5508 21.9083 20.7812 21.3281 20.7812C20.748 20.7812 20.1916 20.5508 19.7813 20.1405C19.3711 19.7303 19.1406 19.1739 19.1406 18.5938C19.1406 18.4487 19.1982 18.3096 19.3008 18.2071C19.4034 18.1045 19.5425 18.0469 19.6875 18.0469Z" fill="#151A6A"></path></svg>
</g>
</svg>
