<svg xmlns="http://www.w3.org/2000/svg" xmlns:xlink="http://www.w3.org/1999/xlink" id="Capa_1" x="0px" y="0px" viewBox="0 0 140 140"  ><style type="text/css">	.st0{fill:none;stroke:#5FBCD3;stroke-width:2;}	.st1{fill:#B5E7F3;}	.st2{fill:#151A6A;}</style><circle class="st0" cx="70" cy="70" r="69"></circle><g>	<path class="st1" d="M99.9,62H72.1c-1.8,0-3.2,1.4-3.2,3.2v34.2c0,1.8,1.4,3.2,3.2,3.2h20.3c0.3,0,0.6-0.1,0.8-0.3l9.6-9.6  c0.2-0.2,0.3-0.5,0.3-0.8V65.2C103.1,63.4,101.7,62,99.9,62z M96.7,77.7c0,0.6-0.5,1.1-1.1,1.1c0,0,0,0,0,0H86  c-0.6,0-1.1-0.5-1.1-1.1c0-0.6,0.5-1.1,1.1-1.1h9.6C96.2,76.7,96.7,77.2,96.7,77.7C96.7,77.7,96.7,77.7,96.7,77.7z M79.6,68.4h12.8  c0.6,0,1.1,0.5,1.1,1.1c0,0.6-0.5,1.1-1.1,1.1H79.6c-0.6,0-1.1-0.5-1.1-1.1C78.5,68.9,79,68.4,79.6,68.4z M84,85.1l-4.6,6.2  c-0.4,0.5-1,0.6-1.5,0.2c-0.1-0.1-0.2-0.2-0.2-0.3L75.5,88c-0.3-0.5-0.2-1.2,0.3-1.5c0.5-0.3,1.1-0.2,1.5,0.3l1.3,1.9l3.7-4.9  c0.4-0.5,1-0.6,1.5-0.2C84.3,83.9,84.4,84.6,84,85.1L84,85.1z M84,75.4l-4.6,6.2c-0.4,0.5-1,0.6-1.5,0.2c-0.1-0.1-0.2-0.2-0.2-0.3  l-2.1-3.2c-0.3-0.5-0.2-1.2,0.3-1.5c0.5-0.3,1.2-0.2,1.5,0.3c0,0,0,0,0,0l1.3,1.9l3.7-4.9c0.4-0.5,1-0.6,1.5-0.2  C84.3,74.3,84.4,75,84,75.4L84,75.4z M86,88.4c-0.6,0-1.1-0.5-1.1-1.1c0-0.6,0.5-1.1,1.1-1.1h9.6c0.6,0,1.1,0.5,1.1,1.1  c0,0.6-0.5,1.1-1.1,1.1H86z M93.5,98.9V94c0-0.6,0.5-1.1,1.1-1.1h4.9L93.5,98.9z"></path>	<path class="st2" d="M58.8,78c1.7,0,3.4-0.4,4.8-1.3c1.4,0.9,3.1,1.4,4.8,1.3c5.3,0,9.1-5.7,9.1-13.9c0-4.7-2.6-8.1-6.9-9.1  c-2.1-0.5-4.3-0.3-6.2,0.6c-0.8-2.5-2.8-4.4-5.2-5.3c-0.6-0.2-1.2,0.1-1.4,0.7c-0.2,0.6,0.1,1.2,0.7,1.4c1.4,0.5,2.7,1.6,3.4,2.9  c-1.7-0.6-3.6-0.6-5.3-0.2c-4.3,1-6.9,4.4-6.9,9.1C49.7,72.3,53.4,78,58.8,78z M57.1,57.1c2.5-0.6,5.1,0.1,5.6,1.1  c0,0.1,0.1,0.2,0.2,0.2c0.4,0.4,1,0.5,1.5,0.1c0,0,0.1-0.1,0.1-0.1c0.1-0.1,0.1-0.2,0.2-0.2c0.5-1,3-1.7,5.6-1.1  c1.6,0.4,5.2,1.8,5.2,7c0,6.9-2.9,11.8-6.9,11.8c-1.5,0.1-2.9-0.4-4.1-1.3c-0.4-0.4-1.1-0.4-1.5,0c-1.1,0.9-2.6,1.4-4.1,1.3  c-4.1,0-6.9-4.8-6.9-11.8C51.8,58.9,55.5,57.4,57.1,57.1z"></path>	<path class="st2" d="M68.8,61.2c1.2,0,2.1,0.9,2.2,2.1c0.1,0.6,0.7,1,1.2,0.9c0.6-0.1,1-0.7,0.9-1.2c-0.3-2.1-2-3.7-4.1-3.8  c-0.6-0.1-1.1,0.4-1.2,0.9C67.8,60.6,68.2,61.1,68.8,61.2L68.8,61.2z"></path>	<path class="st2" d="M63.6,90.8c14.8,0,26.7-12,26.7-26.7s-12-26.7-26.7-26.7s-26.7,12-26.7,26.7C36.9,78.9,48.8,90.8,63.6,90.8z   M39,65.2h3.2c0.6,10.9,9.3,19.7,20.3,20.3v3.2C49.8,88.1,39.6,77.9,39,65.2z M46.5,63h-2.1c0.6-9.8,8.3-17.6,18.1-18.1v3.2  c0,0.6,0.5,1.1,1.1,1.1c0.6,0,1.1-0.5,1.1-1.1v-3.2c9.8,0.6,17.6,8.3,18.1,18.1h-2.1c-0.6,0-1.1,0.5-1.1,1.1c0,0.6,0.5,1.1,1.1,1.1  h2.1c-0.6,9.8-8.3,17.6-18.1,18.1v-2.1c0-0.6-0.5-1.1-1.1-1.1c-0.6,0-1.1,0.5-1.1,1.1v2.1c-9.8-0.6-17.6-8.3-18.1-18.1h2.1  c0.6,0,1.1-0.5,1.1-1.1C47.6,63.5,47.1,63,46.5,63z M64.7,88.7v-3.2c10.9-0.6,19.7-9.3,20.3-20.3h3.2  C87.6,77.9,77.4,88.1,64.7,88.7z M88.1,63h-3.2c-0.6-10.9-9.3-19.7-20.3-20.3v-3.2C77.4,40.1,87.6,50.3,88.1,63z M62.5,39.6v3.2  C51.6,43.3,42.8,52.1,42.3,63H39C39.6,50.3,49.8,40.1,62.5,39.6z"></path></g></svg>