<svg xmlns="http://www.w3.org/2000/svg" xmlns:xlink="http://www.w3.org/1999/xlink" id="Capa_1" x="0px" y="0px" viewBox="0 0 140 140"  ><style type="text/css">	.st0{fill:none;stroke:#5FBCD3;stroke-width:2;}	.st1{fill:#B5E7F3;}	.st2{fill:#151A6A;}</style><circle class="st0" cx="70" cy="70" r="69"></circle><g>	<path class="st1" d="M87,59.4c-1.7-0.4-3-0.2-7-0.3l-0.6,0.7c-3.3,3.9-2.9,9.7,1,13c0.3,0.3,0.7,0.5,1,0.8c0.5,0.3,0.6,0.9,0.3,1.4  s-0.9,0.6-1.4,0.3c-5.2-3.3-6.8-10.3-3.4-15.5c0.1-0.2,0.2-0.4,0.4-0.5c-4.5,0.8-7.5,5-6.7,9.5c0,0.1,0,0.2,0,0.3  c1,5.1,4.6,7,7,8.5c4,2.5,7.2,4.5,8.2,10.1c0.8,4.3,5,3.8,5.1,3.8c2.4,0,4.4-1.9,4.6-4.3l-5.3-5.7c-2.8-3-2.6-7.7,0.4-10.5  c1.3-1.2,3-1.9,4.9-2C95,64.4,91.6,60.5,87,59.4L87,59.4z"></path>	<path class="st1" d="M94.8,55.3c-3-2.1-6.6-3.2-10.2-3.2h-5.9c-8.5,0-15.4,6.9-15.3,15.4c0,1,0.1,2,0.3,3  c2.4,12.1,13.1,11,15.2,22.5c1.7,9.4,11.9,9.6,12.1,9.6c6.5,0,11.7-5.3,11.7-11.7V70.1C102.6,64.2,99.7,58.7,94.8,55.3L94.8,55.3z   M91.7,80.1l5.6,6c0.2,0.2,0.3,0.4,0.3,0.7c0,3.7-3,6.7-6.7,6.7c-0.1,0-6,0.5-7.1-5.5c-0.9-4.7-3.3-6.2-7.3-8.7  c-2.4-1.5-6.7-3.7-7.9-9.8c-1.1-5.6,2.5-11,8-12.1c0.7-0.1,1.4-0.2,2.1-0.2c5.2,0.1,6.7-0.2,8.8,0.3c5.9,1.4,10.1,6.6,10.1,12.6  c0,0.6-0.5,1-1,1c0,0,0,0,0,0c-0.1,0-4.7-0.7-6,3.8C90,76.8,90.4,78.7,91.7,80.1L91.7,80.1z"></path>	<path class="st2" d="M90.2,65l-7.6-10.4l0.1-0.1c1.2-1.2,1.2-3.2,0-4.5L72.3,39.6c-2.9-2.9-7.5-2.9-10.4,0c-2.9,2.9-2.9,7.5,0,10.4  l1.5,1.5l-4.3,4.3l-5.7,1.4c-0.2,0.1-0.3,0.2-0.5,0.3L39.6,70.8c-2.9,2.9-2.9,7.5,0,10.4c2.9,2.9,7.5,2.9,10.4,0l0,0  C60.6,70.5,60.1,71,63.4,67.8c0.1-0.1,0.2-0.3,0.3-0.5l1.4-5.7l4.3-4.3l3,3c1.2,1.2,3.2,1.2,4.5,0l0.1-0.1l10.4,7.6  c0.4,0.3,1,0.3,1.4-0.1l1.5-1.5C90.5,66,90.5,65.4,90.2,65L90.2,65z M59.3,57.8l3.6,3.6L62,65l-6.3-6.3L59.3,57.8z M55.2,73  c-0.1-0.1-2.4-2.4-2.2-2.2l2.2-2.2l2.2,2.2L55.2,73z M51.5,72.3l2.2,2.2l-2.2,2.2l-2.2-2.2L51.5,72.3z M58.9,69.3l-3-3  c-0.4-0.4-1.1-0.4-1.5,0L47,73.8c-0.4,0.4-0.4,1.1,0,1.5l3,3l-1.5,1.5c-2.1,2-5.4,2-7.4,0c-2-2-2-5.4,0-7.4l12.6-12.6l7.4,7.4  L58.9,69.3z M64.1,59.6l-3-3l3.7-3.7l3,3L64.1,59.6z M73.8,58.9L63.4,48.5c-2.1-2.1-2.1-5.4,0-7.4s5.4-2.1,7.4,0l10.4,10.4  c0.4,0.4,0.4,1.1,0,1.5L76,58.1l-0.7,0.7C74.8,59.3,74.2,59.3,73.8,58.9C73.8,58.9,73.8,58.9,73.8,58.9L73.8,58.9z M87.8,65.7  l-9.4-6.9l2.7-2.7l6.9,9.4L87.8,65.7z"></path></g></svg>