<svg xmlns="http://www.w3.org/2000/svg" xmlns:xlink="http://www.w3.org/1999/xlink" id="Capa_1" x="0px" y="0px" viewBox="0 0 140 140"  ><style type="text/css">	.st0{fill:none;stroke:#5FBCD3;stroke-width:2;}	.st1{fill:#B5E7F3;}	.st2{fill:#151A6A;}</style><circle class="st0" cx="70" cy="70" r="69"></circle><g>	<path class="st1" d="M90.2,62.6c-4.3,0-8.5,1.9-11.3,5.1c-2.9-3.3-7-5.1-11.3-5.1c-7,0-12.4,6.1-12.4,13.9c0,5.6,3,16.5,23.3,26.7  c0.3,0.2,0.7,0.2,1,0c20.3-10.2,23.3-21.1,23.3-26.7C102.6,68.7,97.1,62.6,90.2,62.6L90.2,62.6z M96.1,81.8h-5.4v5.4  c0,0.6-0.5,1.1-1.1,1.1c-0.6,0-1.1-0.5-1.1-1.1v-5.4h-5.4c-0.6,0-1.1-0.5-1.1-1.1c0-0.6,0.5-1.1,1.1-1.1h5.4v-5.4  c0-0.6,0.5-1.1,1.1-1.1c0.6,0,1.1,0.5,1.1,1.1v5.4h5.4c0.6,0,1.1,0.5,1.1,1.1C97.2,81.4,96.7,81.8,96.1,81.8z"></path>	<g>		<path class="st2" d="M86.3,53.9c-3-12.1-15.2-19.6-27.3-16.6c-8.2,2-14.6,8.4-16.6,16.6c-3,0.2-5.2,2.8-4.9,5.8   c0.2,2.6,2.3,4.7,4.9,4.9c3,12.1,15.2,19.6,27.3,16.6c8.2-2,14.6-8.4,16.6-16.6c3-0.2,5.2-2.8,4.9-5.8   C91,56.2,88.9,54.1,86.3,53.9z M85.8,62.5c0,0-0.3,0-0.3,0c-0.6-0.1-1.1,0.3-1.2,0.9c-2.2,11.1-13,18.2-24.1,16   c-8.1-1.6-14.4-7.9-16-16c-0.1-0.5-0.6-0.9-1.2-0.9c0,0-0.3,0-0.3,0c-1.8,0-3.2-1.4-3.2-3.2S41,56,42.8,56c0,0,0.3,0,0.3,0   c0.5,0.1,1.1-0.3,1.2-0.9c1.9-9.5,10.3-16.4,20-16.4c3,0,5.4,2.4,5.4,5.4c0,0,0,0.1,0,0.1c-0.1,2.8-2.3,5.1-5.1,5.3   c-2,0.1-3.9-0.9-4.9-2.6c-0.5-0.8-0.3-1.9,0.5-2.5c0.3-0.2,0.6-0.3,0.9-0.3c1.2,0,2.2,1,2.2,2.2c0,0.6,0.5,1.1,1.1,1.1   c0.6,0,1.1-0.5,1.1-1.1c0-2.4-2-4.3-4.3-4.3c0,0,0,0,0,0h0c-2.2,0.1-3.9,1.9-3.8,4.1c0,0.7,0.2,1.3,0.6,1.9   c1.4,2.4,4.1,3.8,6.9,3.6c3.9-0.3,7-3.5,7.1-7.4c0-1.6-0.5-3.2-1.5-4.5c7.1,2.2,12.5,8.1,14,15.4c0.1,0.5,0.6,0.9,1.2,0.9   c0,0,0.3,0,0.3,0c1.8,0,3.2,1.4,3.2,3.2S87.6,62.5,85.8,62.5z"></path>		<path class="st2" d="M70.8,66.8c-0.6,0-1.1,0.5-1.1,1.1c0,3-2.4,5.4-5.4,5.4c-3,0-5.4-2.4-5.4-5.4c0-0.6-0.5-1.1-1.1-1.1   c-0.6,0-1.1,0.5-1.1,1.1c0,4.2,3.4,7.5,7.5,7.5s7.5-3.4,7.5-7.5C71.8,67.3,71.4,66.8,70.8,66.8z"></path>	</g></g></svg>