<svg xmlns="http://www.w3.org/2000/svg" id="Capa_1" x="0px" y="0px" viewBox="0 0 140 140">
<style type="text/css">
.st0{fill:none;stroke:#5FBCD3;stroke-width:2;}
.st1{fill:#B5E7F3;}
.st2{fill:#151A6A;}
</style>
<circle class="st0" cx="70" cy="70" r="69"/>
<g transform="translate(35,35) scale(1)">
<svg xmlns="http://www.w3.org/2000/svg" width="70" height="70" viewBox="0 0 70 70" fill="none"><path d="M52.4619 42.6883C57.6133 45.0977 63.4804 45.4897 68.9065 43.787C68.991 39.4044 67.876 35.082 65.682 31.2872C58.5865 19.7542 44.1456 24.4684 39.887 26.1875C39.6948 26.2653 39.5045 26.0401 39.605 25.898C40.4296 24.6991 42.694 22.989 46.3373 20.8159C46.5393 20.6945 46.6967 20.5111 46.7861 20.293C46.8756 20.0749 46.8923 19.8338 46.8337 19.6055C46.7752 19.3772 46.6445 19.1739 46.4612 19.0257C46.2778 18.8776 46.0516 18.7926 45.8161 18.7833L40.5364 18.5943C40.3715 18.5862 40.207 18.6177 40.0568 18.6861C39.6413 18.8688 29.8926 23.2785 29.8926 33.8577C29.9672 36.8561 31.1552 39.7195 33.2253 41.8901C36.3242 40.7398 39.6212 40.218 42.9239 40.3551C46.2266 40.4921 49.4689 41.2852 52.4619 42.6883Z" fill="#B5E7F3"></path><path d="M51.5324 44.6685C46.3127 42.2233 40.3588 41.8531 34.8764 43.6327C35.7579 44.4865 36.6791 45.2918 37.571 46.071C41.0873 49.1428 44.125 51.7961 43.6902 55.7075C43.6981 56.1425 43.6064 56.5735 43.4222 56.9676C43.2381 57.3617 42.9662 57.7085 42.6275 57.9815C39.4499 59.9281 28.9314 52.9272 20.8091 52.9272C20.6654 52.9271 20.5232 52.9553 20.3904 53.0103C20.2577 53.0652 20.1371 53.1458 20.0355 53.2474C19.9339 53.3489 19.8534 53.4695 19.7984 53.6023C19.7435 53.735 19.7152 53.8773 19.7153 54.0209V58.1396C19.7153 58.4215 19.8242 58.6926 20.0192 58.8962C20.2142 59.0998 20.4804 59.2202 20.762 59.2322C36.4919 59.9058 35.0745 68.9062 44.7776 68.9062C53.9677 68.9062 61.3355 64.7768 65.5257 57.2787C67.4063 53.8253 68.5261 50.0095 68.8101 46.0876C63.0681 47.7128 56.9322 47.2088 51.5324 44.6685ZM48.9731 49.2187C48.9731 48.9483 49.0533 48.6839 49.2036 48.4591C49.3538 48.2343 49.5673 48.059 49.8171 47.9555C50.067 47.8521 50.3418 47.825 50.6071 47.8777C50.8723 47.9305 51.1159 48.0607 51.3071 48.2519C51.4983 48.4431 51.6285 48.6867 51.6812 48.9519C51.734 49.2171 51.7069 49.492 51.6034 49.7419C51.5 49.9917 51.3247 50.2052 51.0999 50.3554C50.8751 50.5057 50.6107 50.5859 50.3403 50.5859C49.9777 50.5859 49.63 50.4418 49.3736 50.1854C49.1172 49.929 48.9731 49.5813 48.9731 49.2187ZM51.4341 60.4296C51.1637 60.4296 50.8993 60.3494 50.6745 60.1992C50.4497 60.049 50.2744 59.8354 50.171 59.5856C50.0675 59.3358 50.0404 59.0609 50.0932 58.7957C50.1459 58.5305 50.2761 58.2869 50.4673 58.0957C50.6585 57.9045 50.9021 57.7743 51.1674 57.7215C51.4326 57.6687 51.7075 57.6958 51.9573 57.7993C52.2071 57.9028 52.4206 58.078 52.5709 58.3028C52.7211 58.5277 52.8013 58.792 52.8013 59.0624C52.8013 59.425 52.6572 59.7728 52.4008 60.0292C52.1444 60.2856 51.7967 60.4296 51.4341 60.4296ZM59.0903 53.8671C58.8199 53.8671 58.5556 53.7869 58.3308 53.6367C58.1059 53.4865 57.9307 53.2729 57.8272 53.0231C57.7237 52.7733 57.6967 52.4984 57.7494 52.2332C57.8022 51.968 57.9324 51.7244 58.1236 51.5332C58.3148 51.342 58.5584 51.2118 58.8236 51.159C59.0888 51.1062 59.3637 51.1333 59.6135 51.2368C59.8634 51.3403 60.0769 51.5155 60.2271 51.7403C60.3773 51.9652 60.4575 52.2295 60.4575 52.4999C60.4575 52.8625 60.3135 53.2103 60.0571 53.4667C59.8007 53.7231 59.4529 53.8671 59.0903 53.8671Z" fill="#B5E7F3"></path><path d="M43.5321 2.63511C39.1688 5.88045 33.8758 7.63309 28.438 7.63309C23.0002 7.63309 17.7072 5.88045 13.3439 2.63511C12.1926 1.77273 10.8216 1.25197 9.3881 1.13245C7.95455 1.01293 6.51631 1.29947 5.23804 1.95929C3.95976 2.6191 2.8931 3.62551 2.16017 4.86332C1.42723 6.10112 1.05765 7.52029 1.09372 8.95836V43.5311C1.08091 44.1333 1.24221 44.7263 1.55825 45.239C1.87429 45.7517 2.33163 46.1623 2.87534 46.4214C3.0378 46.4943 3.18051 46.6049 3.2916 46.7441C3.4027 46.8832 3.47898 47.0469 3.51409 47.2214L3.9392 49.3459C4.07916 50.1051 4.442 50.8055 4.98148 51.3577C5.52095 51.9099 6.21263 52.289 6.96837 52.4467C7.94132 52.6334 8.94859 52.4265 9.76918 51.8714C10.5898 51.3164 11.1567 50.4585 11.3456 49.4859L11.8017 47.2055C11.8488 47.0299 11.9329 46.8664 12.0484 46.726C12.1639 46.5856 12.3081 46.4716 12.4714 46.3916C12.9876 46.108 13.4182 45.6911 13.7184 45.1844C14.0187 44.6778 14.1774 44.0998 14.1782 43.5108L14.1817 40.9251C16.6239 42.9954 19.7736 44.0383 22.9687 43.8345V47.0409C22.9706 48.7808 23.6626 50.4489 24.8929 51.6792C26.1232 52.9095 27.7913 53.6015 29.5312 53.6034H31.7187V54.6972C31.7187 54.9873 31.834 55.2655 32.0391 55.4706C32.2442 55.6757 32.5224 55.7909 32.8125 55.7909C33.1026 55.7909 33.3807 55.6757 33.5859 55.4706C33.791 55.2655 33.9062 54.9873 33.9062 54.6972V52.5097C33.9063 52.366 33.8781 52.2238 33.8231 52.091C33.7682 51.9583 33.6876 51.8377 33.5861 51.7361C33.4845 51.6345 33.3639 51.554 33.2311 51.499C33.0984 51.4441 32.9561 51.4159 32.8125 51.4159H29.5312C28.3713 51.4148 27.2591 50.9535 26.4389 50.1332C25.6187 49.313 25.1574 48.2009 25.1562 47.0409V42.6659C25.1574 41.506 25.6187 40.3938 26.4389 39.5736C27.2591 38.7534 28.3713 38.2921 29.5312 38.2909H41.5934C42.0248 38.2912 42.452 38.2063 42.8505 38.0412C43.2491 37.8761 43.6111 37.634 43.9159 37.3288C44.2207 37.0235 44.4623 36.6611 44.6268 36.2623C44.7914 35.8636 44.8756 35.4362 44.8747 35.0049L44.8467 15.3208L46.5944 14.0095C46.8257 13.835 46.9785 13.5759 47.019 13.289C47.0595 13.002 46.9846 12.7108 46.8106 12.479C46.6366 12.2473 46.3778 12.0941 46.0909 12.053C45.8041 12.0119 45.5126 12.0863 45.2806 12.2599L43.5321 13.5726C39.1688 16.818 33.8758 18.5706 28.438 18.5706C23.0002 18.5706 17.7072 16.818 13.3439 13.5726L11.5944 12.2599C11.3623 12.0863 11.0709 12.0119 10.784 12.053C10.4972 12.0941 10.2384 12.2473 10.0644 12.479C9.89035 12.7108 9.81539 13.002 9.85593 13.289C9.89647 13.5759 10.0492 13.835 10.2806 14.0095L12.0284 15.3201L11.9907 43.5087C11.9902 43.7058 11.9369 43.8992 11.8364 44.0688C11.7359 44.2384 11.5919 44.3781 11.4192 44.4732C10.9751 44.705 10.5872 45.0314 10.2827 45.4292C9.97822 45.8271 9.76458 46.2868 9.6568 46.776L9.2007 49.0565C9.11986 49.4644 8.88071 49.8237 8.5356 50.0557C8.19049 50.2877 7.76753 50.3736 7.35928 50.2945C7.03424 50.2167 6.73957 50.0443 6.51256 49.799C6.28554 49.5538 6.13639 49.2467 6.08396 48.9166L5.65887 46.7921C5.555 46.2754 5.32927 45.791 5.00043 45.3791C4.6716 44.9672 4.24917 44.6398 3.7683 44.4241C3.61158 44.3359 3.48282 44.2054 3.3967 44.0475C3.31058 43.8896 3.27057 43.7106 3.28122 43.5311V8.95836C3.24543 7.92679 3.50201 6.90613 4.02135 6.01412C4.54069 5.12211 5.30163 4.39509 6.21639 3.91695C7.13114 3.4388 8.16244 3.22901 9.1913 3.31177C10.2202 3.39453 11.2047 3.76647 12.0312 4.38469C16.7737 7.91272 22.5271 9.81806 28.438 9.81806C34.3489 9.81806 40.1023 7.91272 44.8448 4.38469C45.6715 3.76528 46.6566 3.39254 47.6863 3.30957C48.7159 3.2266 49.748 3.4368 50.6632 3.91585C51.5784 4.3949 52.3393 5.12324 52.8579 6.01662C53.3765 6.91 53.6316 7.93193 53.5937 8.96423V39.3847C53.5913 41.4145 52.7838 43.3605 51.3485 44.7958C49.9132 46.2311 47.9673 47.0385 45.9375 47.0409H30.625C30.3349 47.0409 30.0567 47.1562 29.8516 47.3613C29.6465 47.5664 29.5312 47.8446 29.5312 48.1347C29.5312 48.4248 29.6465 48.703 29.8516 48.9081C30.0567 49.1132 30.3349 49.2284 30.625 49.2284H33.9062C34.4861 49.2292 35.0421 49.4599 35.4522 49.87C35.8623 50.2801 36.093 50.836 36.0937 51.4159V54.6972C36.0937 54.9873 36.209 55.2655 36.4141 55.4706C36.6192 55.6757 36.8974 55.7909 37.1875 55.7909C37.4775 55.7909 37.7557 55.6757 37.9609 55.4706C38.166 55.2655 38.2812 54.9873 38.2812 54.6972V51.4159C38.2822 50.6477 38.0795 49.8929 37.6938 49.2284H45.9375C48.5473 49.2256 51.0495 48.1876 52.8949 46.3421C54.7403 44.4967 55.7784 41.9945 55.7812 39.3847V8.96423C55.8178 7.52604 55.4486 6.10663 54.7161 4.86844C53.9835 3.63026 52.9172 2.62334 51.6391 1.96294C50.361 1.30254 48.9227 1.01534 47.489 1.13421C46.0553 1.25309 44.684 1.77323 43.5321 2.63511ZM26.2082 20.6636C26.3566 21.926 26.1672 24.6062 22.4377 26.1134C19.675 25.6516 16.8403 25.9006 14.2004 26.8371L14.2139 16.7832C17.8549 18.994 21.9623 20.3228 26.2082 20.6636ZM41.5934 36.1034H29.5312C27.97 36.1061 26.4608 36.6649 25.2744 37.6797C24.0879 38.6944 23.3018 40.0986 23.057 41.6405C20.9605 41.711 15.7447 41.4146 14.1869 36.9869L14.1974 29.1535C16.4677 28.2259 24.3331 25.7173 28.5753 33.3535C28.7177 33.6043 28.9533 33.7886 29.2309 33.8665C29.5086 33.9444 29.8057 33.9095 30.0578 33.7694C30.3098 33.6293 30.4963 33.3953 30.5767 33.1184C30.6571 32.8415 30.6249 32.5441 30.4871 32.2908C29.8998 31.2199 29.1753 30.2301 28.332 29.3466C30.4907 28.7315 34.2688 28.3379 36.209 32.2176C36.2733 32.3461 36.3622 32.4607 36.4707 32.5548C36.5792 32.6489 36.7052 32.7207 36.8415 32.7661C36.9778 32.8116 37.1217 32.8297 37.265 32.8195C37.4083 32.8093 37.5481 32.771 37.6766 32.7068C37.8051 32.6426 37.9197 32.5536 38.0138 32.4451C38.1079 32.3366 38.1797 32.2106 38.2252 32.0743C38.2706 31.938 38.2887 31.7941 38.2785 31.6509C38.2684 31.5076 38.2301 31.3677 38.1658 31.2392C37.6907 30.2602 37.0315 29.3818 36.2242 28.652C36.598 27.2202 37.4435 25.9561 38.6241 25.0639C39.8343 24.3222 41.279 24.0622 42.672 24.3353L42.6872 35.0086C42.6875 35.1524 42.6594 35.2948 42.6046 35.4277C42.5497 35.5606 42.4692 35.6813 42.3676 35.7831C42.266 35.8848 42.1453 35.9654 42.0124 36.0204C41.8796 36.0754 41.7372 36.1036 41.5934 36.1034ZM28.4375 20.7557C33.4529 20.7583 38.3729 19.3842 42.6612 16.7834L42.6689 22.1119C40.832 21.8362 38.9577 22.2417 37.399 23.2519C35.9555 24.2883 34.8765 25.7543 34.3159 27.4406C31.7311 26.486 28.8755 26.5799 26.3589 27.7022C26.0077 27.4703 25.6432 27.259 25.2674 27.0695C26.3038 26.3895 27.1414 25.4467 27.6947 24.3374C28.248 23.2281 28.4973 21.9919 28.4171 20.7549L28.4375 20.7557Z" fill="#151A6A"></path></svg>
</g>
</svg>
