<svg xmlns="http://www.w3.org/2000/svg" xmlns:xlink="http://www.w3.org/1999/xlink" id="Capa_1" x="0px" y="0px" viewBox="0 0 140 140"  ><style type="text/css">	.st0{fill:none;stroke:#5FBCD3;stroke-width:2;}	.st1{fill:#151A6A;}	.st2{fill:#B5E7F3;}</style><circle class="st0" cx="70" cy="70" r="69"></circle><g>	<path class="st1" d="M49,83c0.5,0.3,1.2,0.1,1.4-0.5s0.1-1.2-0.5-1.4c0,0-2.2-1.1-2.2-3.2c0-2.1,2.1-3.2,2.2-3.2  c0.5-0.3,0.7-0.9,0.5-1.4c-0.3-0.5-0.9-0.7-1.4-0.5c-0.1,0.1-3.3,1.7-3.3,5.1C45.7,81.3,48.9,82.9,49,83z"></path>	<path class="st2" d="M79.2,72.1c-1.9,0.4-3.7,1.3-5.1,2.6c-3.9,3.9-3.3,7.8-2.2,12.5c0.8,3,2.7,5.7,5.4,7.3c0.9,0.6,2,0.8,3.1,0.5  c2.6-0.9,2.4-3.3,2-7.1c-0.5-3.7-0.5-4.2,1.8-7.8c1.8-2.8,2.8-4.7,0.8-6.7C83.3,72.1,81.2,71.5,79.2,72.1L79.2,72.1z"></path>	<path class="st2" d="M79.5,56.3c-12.8,0-23.1,10.4-23.1,23.1s10.4,23.1,23.1,23.1s23.1-10.4,23.1-23.1  C102.6,66.7,92.2,56.3,79.5,56.3z M83.8,62.9c1.4,0,2.5,1.1,2.5,2.5s-1.1,2.5-2.5,2.5c-1.4,0-2.5-1.1-2.5-2.5c0,0,0,0,0,0  C81.3,64,82.4,62.9,83.8,62.9z M78.2,63.8c1,0,1.8,0.8,1.8,1.8c0,1-0.8,1.8-1.8,1.8s-1.8-0.8-1.8-1.8  C76.4,64.6,77.2,63.8,78.2,63.8z M73.3,66c1,0,1.8,0.8,1.8,1.8c0,1-0.8,1.8-1.8,1.8s-1.8-0.8-1.8-1.8C71.5,66.8,72.3,66,73.3,66z   M67.2,71.5c0-1,0.8-1.8,1.8-1.8c1,0,1.8,0.8,1.8,1.8s-0.8,1.8-1.8,1.8C68,73.3,67.2,72.5,67.2,71.5z M85.9,81.3  c-2,3.1-1.8,3.1-1.4,6.4c0.4,3.3,1,7.9-3.4,9.3c-1.6,0.5-3.3,0.2-4.7-0.7c-3.2-2-5.5-5.1-6.4-8.7c-1.2-5-2-9.8,2.7-14.5  c1.7-1.6,3.9-2.7,6.2-3.2c2.7-0.7,5.5,0.1,7.5,2C89.7,75.3,87.5,78.8,85.9,81.3L85.9,81.3z M89.9,71.5c-1.7,0-3.1-1.4-3.1-3.1  c0-1.7,1.4-3.1,3.1-3.1c1.7,0,3.1,1.4,3.1,3.1c0,0,0,0,0,0C93,70.1,91.6,71.5,89.9,71.5L89.9,71.5z"></path>	<path class="st1" d="M45,90h1.3c2.2,0,4.5-0.4,6.6-1.1c3.2-1.1,6.7-1.3,10-0.5C67.5,89.4,72.2,90,77,90h0.1c3.6,0,6.6-2.9,6.6-6.6  c0-2.1-1.7-3.8-3.8-3.8H75c-0.6,0-1.2-0.1-1.8-0.3c-4.4-1-8.6-2.9-12.2-5.6c-1.4-1.1-2.2-2.7-2.2-4.5c0.1-10.6,0.5-16.4,0.9-21  c0.3-3.5,0.5-6.2,0.5-9.8c0-0.6-0.5-1-1-1c0,0,0,0,0,0c-0.6,0-1,0.5-1,1.1c0,3.5-0.2,6.2-0.5,9.6c-0.4,4.6-0.8,10.4-0.9,21.1  c0,2.4,1.1,4.7,3,6.2c3.9,2.9,8.3,5,13,6c0.7,0.2,1.5,0.3,2.3,0.3h4.8c0.9,0,1.7,0.8,1.7,1.7c0,2.5-2,4.5-4.5,4.5H77  c-4.6,0-9.1-0.5-13.6-1.5c-3.7-0.8-7.6-0.6-11.2,0.6c-1.9,0.6-3.9,1-6,1H45c-2.8,0-5.2-2.1-5.5-4.9c-0.1-0.9,0.2-1.9,0.6-2.7  c2.3-4,3.4-8.6,3.3-13.2c-0.2-3.7-0.6-7.3-1.2-11c-1-5.9-1.4-11.8-1.3-17.7c0-0.6-0.5-1.1-1-1.1h0c-0.6,0-1,0.5-1.1,1  c-0.1,6,0.3,12.1,1.3,18c0.6,3.6,1,7.2,1.2,10.8c0.1,4.2-0.9,8.4-3,12c-0.6,1.2-0.9,2.5-0.8,3.8C37.7,87.1,41,90.1,45,90L45,90z"></path></g></svg>