<svg xmlns="http://www.w3.org/2000/svg" id="Capa_1" x="0px" y="0px" viewBox="0 0 140 140">
<style type="text/css">
.st0{fill:none;stroke:#5FBCD3;stroke-width:2;}
.st1{fill:#B5E7F3;}
.st2{fill:#151A6A;}
</style>
<circle class="st0" cx="70" cy="70" r="69"/>
<g transform="translate(35,35) scale(1)">
<svg xmlns="http://www.w3.org/2000/svg" width="70" height="70" viewBox="0 0 70 70" fill="none"><path d="M43.5908 43.3142C43.4862 43.4651 43.3466 43.5884 43.184 43.6736C43.0213 43.7588 42.8404 43.8033 42.6568 43.8033C42.4732 43.8033 42.2923 43.7588 42.1296 43.6736C41.9669 43.5884 41.8273 43.4651 41.7227 43.3142C37.2918 36.0403 30.625 40.1221 30.625 45.2667V46.3733C30.625 50.5486 35.117 56.3612 42.6562 59.0006C50.1955 56.3612 54.6875 50.5486 54.6875 46.3733V45.2667C54.6875 40.1153 48.0157 36.0493 43.5908 43.3142Z" fill="#B5E7F3"></path><path d="M63.4375 14.2188H48.4305C48.2085 14.2193 47.9919 14.2873 47.8095 14.4137C47.627 14.5402 47.4873 14.7191 47.4089 14.9268C47.3304 15.1344 47.317 15.361 47.3703 15.5765C47.4236 15.792 47.5412 15.9862 47.7074 16.1333C48.877 17.1603 49.7058 18.5194 50.0834 20.0295C50.4609 21.5395 50.3692 23.1288 49.8205 24.5854C49.2717 26.042 48.2921 27.2967 47.0121 28.1823C45.7321 29.068 44.2125 29.5424 42.656 29.5424C41.0995 29.5424 39.5799 29.068 38.2999 28.1823C37.0199 27.2967 36.0402 26.042 35.4915 24.5854C34.9428 23.1288 34.8511 21.5395 35.2286 20.0295C35.6061 18.5194 36.435 17.1603 37.6046 16.1333C37.7709 15.9863 37.8886 15.7921 37.942 15.5767C37.9954 15.3612 37.982 15.1345 37.9036 14.9268C37.8253 14.7191 37.6856 14.5402 37.5031 14.4137C37.3206 14.2872 37.104 14.2192 36.882 14.2188H21.875C20.4251 14.2205 19.0351 14.7972 18.0099 15.8224C16.9847 16.8476 16.408 18.2376 16.4062 19.6875V63.4375C16.408 64.8874 16.9847 66.2774 18.0099 67.3026C19.0351 68.3278 20.4251 68.9045 21.875 68.9062H63.4375C64.8874 68.9045 66.2774 68.3278 67.3026 67.3026C68.3278 66.2774 68.9045 64.8874 68.9062 63.4375V19.6875C68.9045 18.2376 68.3278 16.8476 67.3026 15.8224C66.2774 14.7972 64.8874 14.2205 63.4375 14.2188ZM56.875 46.3733C56.875 52.1881 50.9107 58.5594 43.0018 61.1945C42.7774 61.2686 42.5351 61.2686 42.3107 61.1945C34.4019 58.5594 28.4375 52.1881 28.4375 46.3733V45.2667C28.4375 38.3147 36.9684 33.5723 42.6557 40.8244C48.3372 33.5864 56.875 38.3049 56.875 45.2667V46.3733Z" fill="#B5E7F3"></path><path d="M50.7514 18.6114C49.5303 13.6147 46.6676 9.17253 42.6217 5.99633C38.5758 2.82013 33.581 1.09375 28.4374 1.09375C23.2937 1.09375 18.2989 2.82013 14.253 5.99633C10.2072 9.17253 7.34442 13.6147 6.12336 18.6114C4.75332 18.7216 3.47503 19.3437 2.54293 20.3538C1.61082 21.364 1.09326 22.688 1.09326 24.0625C1.09326 25.437 1.61082 26.761 2.54293 27.7712C3.47503 28.7813 4.75332 29.4034 6.12336 29.5136C7.34442 34.5103 10.2072 38.9525 14.253 42.1287C18.2989 45.3049 23.2937 47.0312 28.4374 47.0312C33.581 47.0312 38.5758 45.3049 42.6217 42.1287C46.6676 38.9525 49.5303 34.5103 50.7514 29.5136C52.1214 29.4034 53.3997 28.7813 54.3318 27.7712C55.2639 26.761 55.7815 25.437 55.7815 24.0625C55.7815 22.688 55.2639 21.364 54.3318 20.3538C53.3997 19.3437 52.1214 18.7216 50.7514 18.6114ZM50.3124 27.3437C50.2922 27.3437 49.998 27.3066 49.9887 27.3053C49.7184 27.2774 49.4474 27.3515 49.2289 27.5131C49.0104 27.6746 48.8601 27.9119 48.8074 28.1785C47.8571 32.8805 45.3095 37.109 41.5966 40.1465C37.8838 43.1841 33.2345 44.8437 28.4374 44.8437C23.6403 44.8437 18.991 43.1841 15.2781 40.1465C11.5653 37.109 9.01763 32.8805 8.06738 28.1785C8.01394 27.9123 7.86342 27.6755 7.64508 27.5141C7.42675 27.3527 7.1562 27.2783 6.88605 27.3053C6.87671 27.3066 6.58249 27.3437 6.56236 27.3437C5.69212 27.3437 4.85752 26.998 4.24217 26.3827C3.62681 25.7673 3.28111 24.9327 3.28111 24.0625C3.28111 23.1923 3.62681 22.3577 4.24217 21.7423C4.85752 21.1269 5.69212 20.7812 6.56236 20.7812C6.58249 20.7812 6.87671 20.8184 6.886 20.8197C7.1559 20.8453 7.42573 20.7703 7.64374 20.6091C7.86176 20.448 8.01261 20.212 8.06736 19.9465C9.02542 15.2484 11.5752 11.0247 15.2863 7.98851C18.9974 4.95235 23.6425 3.2897 28.4374 3.28125C29.1621 3.28127 29.8796 3.42534 30.5481 3.70507C31.2167 3.98481 31.823 4.39463 32.3318 4.91073C32.8406 5.42682 33.2417 6.0389 33.5119 6.71137C33.7821 7.38385 33.9159 8.10332 33.9056 8.82797C33.8675 10.2019 33.3209 11.5128 32.3716 12.5068C31.4224 13.5008 30.1381 14.1072 28.7674 14.2086C27.7709 14.2687 26.7769 14.055 25.8931 13.5906C25.0093 13.1262 24.2695 12.4289 23.7537 11.5741C23.5794 11.3073 23.4779 10.9997 23.4592 10.6816C23.4404 10.3636 23.5051 10.0461 23.6468 9.76076C23.7885 9.4754 24.0024 9.23201 24.2671 9.05472C24.5318 8.87743 24.8383 8.77238 25.1561 8.75C25.7361 8.75058 26.2922 8.98123 26.7023 9.39134C27.1124 9.80145 27.343 10.3575 27.3436 10.9375C27.3436 11.2276 27.4588 11.5058 27.664 11.7109C27.8691 11.916 28.1473 12.0312 28.4374 12.0312C28.7274 12.0312 29.0056 11.916 29.2108 11.7109C29.4159 11.5058 29.5311 11.2276 29.5311 10.9375C29.5289 10.3587 29.4122 9.786 29.1879 9.25241C28.9635 8.71883 28.6359 8.23486 28.2239 7.82833C27.8118 7.4218 27.3235 7.10073 26.7869 6.88358C26.2504 6.66644 25.6762 6.5575 25.0974 6.56303H25.0958C24.3952 6.59546 23.7154 6.81087 23.1241 7.18779C22.5327 7.56472 22.0504 8.09 21.7252 8.71133C21.4001 9.33266 21.2434 10.0283 21.2707 10.7291C21.2981 11.4298 21.5086 12.1112 21.8812 12.7052C22.6023 13.9016 23.6372 14.8777 24.8735 15.5278C26.1099 16.1778 27.5007 16.477 28.895 16.3929C30.8147 16.251 32.6135 15.4019 33.9432 14.0101C35.2728 12.6182 36.0389 10.7826 36.093 8.85841C36.1182 7.20136 35.6005 5.58158 34.619 4.24628C38.1717 5.35554 41.362 7.39721 43.8575 10.1586C46.3529 12.9199 48.0623 16.3 48.8074 19.9465C48.8609 20.2127 49.0114 20.4494 49.2298 20.6108C49.4481 20.7721 49.7186 20.8466 49.9887 20.8197C49.998 20.8184 50.2922 20.7812 50.3124 20.7812C51.1826 20.7812 52.0172 21.1269 52.6326 21.7423C53.2479 22.3577 53.5936 23.1923 53.5936 24.0625C53.5936 24.9327 53.2479 25.7673 52.6326 26.3827C52.0172 26.998 51.1826 27.3437 50.3124 27.3437Z" fill="#151A6A"></path><path d="M35 31.7188C34.7099 31.7188 34.4317 31.834 34.2266 32.0391C34.0215 32.2442 33.9062 32.5224 33.9062 32.8125C33.9062 34.2629 33.3301 35.6539 32.3045 36.6795C31.2789 37.7051 29.8879 38.2812 28.4375 38.2812C26.9871 38.2812 25.5961 37.7051 24.5705 36.6795C23.5449 35.6539 22.9688 34.2629 22.9688 32.8125C22.9688 32.5224 22.8535 32.2442 22.6484 32.0391C22.4433 31.834 22.1651 31.7188 21.875 31.7188C21.5849 31.7188 21.3067 31.834 21.1016 32.0391C20.8965 32.2442 20.7812 32.5224 20.7812 32.8125C20.7813 34.8431 21.5879 36.7905 23.0237 38.2263C24.4595 39.6621 26.4069 40.4688 28.4375 40.4688C30.4681 40.4688 32.4155 39.6621 33.8513 38.2263C35.2871 36.7905 36.0938 34.8431 36.0938 32.8125C36.0938 32.5224 35.9785 32.2442 35.7734 32.0391C35.5683 31.834 35.2901 31.7188 35 31.7188Z" fill="#151A6A"></path></svg>
</g>
</svg>
