<svg xmlns="http://www.w3.org/2000/svg" width="70" height="70" viewBox="0 0 70 70" fill="none"><path d="M43.9373 47.2033C43.7283 47.4009 43.4516 47.5109 43.164 47.5109C42.8764 47.5109 42.5997 47.4009 42.3906 47.2033L36.2031 41.0157L32.3359 44.8823L43.164 55.7108L61.7257 37.1491L57.858 33.2815L43.9373 47.2033Z" fill="#B5E7F3"></path><path d="M65.625 21.3281H26.25C25.38 21.3291 24.546 21.6751 23.9309 22.2902C23.3157 22.9054 22.9697 23.7394 22.9688 24.6094V63.9844C22.9697 64.8543 23.3157 65.6884 23.9309 66.3035C24.546 66.9187 25.38 67.2647 26.25 67.2656H65.625C66.4949 67.2647 67.329 66.9187 67.9441 66.3035C68.5593 65.6884 68.9053 64.8543 68.9062 63.9844V24.6094C68.9053 23.7394 68.5593 22.9054 67.9441 22.2902C67.329 21.6751 66.4949 21.3291 65.625 21.3281ZM64.0463 37.9224L43.938 58.0307C43.8364 58.1323 43.7159 58.2128 43.5832 58.2678C43.4505 58.3228 43.3083 58.3511 43.1647 58.3511C43.0211 58.3511 42.8788 58.3228 42.7462 58.2678C42.6135 58.2128 42.4929 58.1323 42.3914 58.0307L30.0167 45.6555C29.9151 45.554 29.8345 45.4334 29.7796 45.3007C29.7246 45.168 29.6963 45.0258 29.6963 44.8822C29.6963 44.7386 29.7246 44.5964 29.7796 44.4637C29.8345 44.331 29.9151 44.2104 30.0167 44.1089L35.4304 38.6957C35.5319 38.5941 35.6525 38.5135 35.7852 38.4585C35.9179 38.4035 36.0601 38.3752 36.2037 38.3752C36.3473 38.3752 36.4896 38.4035 36.6223 38.4585C36.755 38.5135 36.8755 38.5941 36.977 38.6957L43.1646 44.8833L57.0854 30.9615C57.2944 30.7639 57.5711 30.6538 57.8587 30.6538C58.1463 30.6538 58.423 30.7639 58.6321 30.9615L64.0463 36.3757C64.1479 36.4773 64.2285 36.5978 64.2835 36.7305C64.3385 36.8632 64.3668 37.0054 64.3668 37.149C64.3668 37.2927 64.3385 37.4349 64.2835 37.5676C64.2285 37.7003 64.1479 37.8208 64.0463 37.9224Z" fill="#B5E7F3"></path><path d="M55.7784 15.8273C55.7699 15.5429 55.6509 15.2729 55.4467 15.0747C55.2425 14.8765 54.9692 14.7657 54.6846 14.7656C41.7679 14.7656 41.5618 4.27139 41.5596 3.82813C41.5597 3.68447 41.5315 3.54221 41.4765 3.40947C41.4216 3.27673 41.341 3.15612 41.2394 3.05454C41.1379 2.95296 41.0173 2.8724 40.8845 2.81746C40.7518 2.76253 40.6095 2.73429 40.4659 2.73438H16.4098C16.1204 2.73502 15.8431 2.85003 15.6382 3.05431C15.4333 3.2586 15.3175 3.5356 15.316 3.82492C15.3133 4.27139 15.1072 14.7656 2.19102 14.7656C1.90645 14.7655 1.63305 14.8763 1.42891 15.0746C1.22476 15.2728 1.10598 15.5429 1.09779 15.8273C1.08658 16.2087 0.297777 54.006 28.2578 57.408C28.3159 57.4174 28.3746 57.4221 28.4335 57.4219H28.4426C28.5014 57.4221 28.5602 57.4174 28.6183 57.408C56.5773 54.0061 55.789 16.2087 55.7784 15.8273ZM28.4378 55.2258C5.05516 52.3088 3.38303 22.8705 3.28583 16.9296C14.8386 16.4276 17.0052 7.98096 17.4106 4.92188H39.465C39.8699 7.98096 42.0381 16.4276 53.5908 16.9296C53.4969 22.8705 51.8423 52.3067 28.4378 55.2258Z" fill="#151A6A"></path><path d="M39.4175 11.5132C38.7491 10.3749 38.2233 9.15886 37.8516 7.8923C37.7846 7.66611 37.6463 7.46765 37.4573 7.32654C37.2682 7.18544 37.0386 7.10926 36.8027 7.10938H20.0595C19.8256 7.10931 19.5978 7.1843 19.4097 7.3233C19.2215 7.46231 19.083 7.658 19.0143 7.88162C18.1935 10.7076 16.5764 13.2375 14.3563 15.1691C12.1361 17.1007 9.4068 18.3522 6.49442 18.7742C6.22957 18.8223 5.99175 18.9664 5.82643 19.1788C5.6611 19.3912 5.57987 19.6571 5.59826 19.9256C5.90543 24.7247 6.79548 29.4685 8.24879 34.0525C11.9375 45.2667 18.6784 51.6412 28.2834 52.9987C28.3853 53.013 28.4886 53.013 28.5905 52.9987C47.2051 50.3563 50.6572 28.9929 51.2778 19.931C51.2959 19.6621 51.2142 19.3958 51.0483 19.1834C50.8823 18.9709 50.6438 18.8271 50.3785 18.7796C48.1258 18.4606 45.9728 17.6427 44.0765 16.3855C42.1802 15.1284 40.5885 13.4638 39.4175 11.5132ZM28.4362 50.8102C19.8058 49.5327 13.7138 43.6656 10.3263 33.369C9.02187 29.2643 8.19203 25.0236 7.85305 20.73C10.8333 20.1351 13.6039 18.765 15.8856 16.7577C18.1674 14.7504 19.8795 12.177 20.8493 9.29688H36.0043C36.4002 10.4556 36.9129 11.5712 37.5344 12.6262C38.7719 14.7094 40.4345 16.5084 42.4138 17.906C44.3932 19.3036 46.6448 20.2684 49.022 20.7375C48.2679 29.6968 44.7292 48.3845 28.4362 50.8102Z" fill="#151A6A"></path><path d="M36.9048 23.1606L38.4956 21.5706C38.5971 21.469 38.6777 21.3485 38.7326 21.2158C38.7876 21.0831 38.8159 20.9409 38.8159 20.7973C38.8159 20.6537 38.7876 20.5114 38.7326 20.3788C38.6777 20.2461 38.5971 20.1255 38.4956 20.024C38.394 19.9224 38.2735 19.8418 38.1408 19.7869C38.0081 19.7319 37.8659 19.7036 37.7223 19.7036C37.5786 19.7036 37.4364 19.7319 37.3037 19.7869C37.1711 19.8418 37.0505 19.9224 36.9489 20.024L35.3583 21.6143C33.6983 20.2514 31.6723 19.4101 29.5352 19.1961V16.9531C29.5352 16.663 29.42 16.3848 29.2148 16.1797C29.0097 15.9746 28.7315 15.8594 28.4414 15.8594C28.1514 15.8594 27.8732 15.9746 27.668 16.1797C27.4629 16.3848 27.3477 16.663 27.3477 16.9531V19.1961C25.2106 19.4101 23.1846 20.2514 21.5246 21.6143L19.9339 20.0239C19.7288 19.8188 19.4507 19.7036 19.1606 19.7036C18.8706 19.7036 18.5924 19.8188 18.3873 20.0239C18.1822 20.229 18.067 20.5072 18.067 20.7972C18.067 21.0873 18.1822 21.3655 18.3873 21.5706L19.9779 23.1608C18.6148 24.8209 17.7733 26.8471 17.5593 28.9844H15.3164C15.0263 28.9844 14.7481 29.0996 14.543 29.3047C14.3379 29.5098 14.2227 29.788 14.2227 30.0781C14.2227 30.3682 14.3379 30.6464 14.543 30.8515C14.7481 31.0566 15.0263 31.1719 15.3164 31.1719H17.5593C17.7733 33.3092 18.6147 35.3354 19.9778 36.9954L18.3872 38.5857C18.2857 38.6872 18.2051 38.8078 18.1502 38.9405C18.0952 39.0732 18.0669 39.2154 18.0669 39.359C18.0669 39.5026 18.0952 39.6448 18.1502 39.7775C18.2051 39.9102 18.2857 40.0307 18.3872 40.1323C18.4888 40.2339 18.6094 40.3144 18.742 40.3694C18.8747 40.4243 19.0169 40.4526 19.1606 40.4526C19.3042 40.4526 19.4464 40.4243 19.5791 40.3694C19.7118 40.3144 19.8323 40.2338 19.9339 40.1323L21.5245 38.542C23.1845 39.9048 25.2105 40.7462 27.3476 40.9601V43.2031C27.3476 43.4932 27.4628 43.7714 27.668 43.9765C27.8731 44.1816 28.1513 44.2969 28.4414 44.2969C28.7314 44.2969 29.0096 44.1816 29.2148 43.9765C29.4199 43.7714 29.5351 43.4932 29.5351 43.2031V40.9601C31.6722 40.7462 33.6982 39.9048 35.3582 38.542L36.9489 40.1323C37.0504 40.2339 37.171 40.3144 37.3037 40.3694C37.4363 40.4243 37.5786 40.4526 37.7222 40.4526C37.8658 40.4526 38.008 40.4243 38.1407 40.3694C38.2734 40.3144 38.3939 40.2339 38.4955 40.1323C38.597 40.0308 38.6776 39.9102 38.7326 39.7775C38.7875 39.6448 38.8158 39.5026 38.8158 39.359C38.8158 39.2154 38.7875 39.0732 38.7326 38.9405C38.6776 38.8078 38.597 38.6872 38.4955 38.5857L36.9047 36.9957C38.2679 35.3356 39.1095 33.3093 39.3235 31.1719H41.5664C41.8565 31.1719 42.1347 31.0566 42.3398 30.8515C42.5449 30.6464 42.6602 30.3682 42.6602 30.0781C42.6602 29.788 42.5449 29.5098 42.3398 29.3047C42.1347 29.0996 41.8565 28.9844 41.5664 28.9844H39.3235C39.1095 26.847 38.268 24.8207 36.9048 23.1606ZM28.4414 38.8281C26.7108 38.8281 25.0191 38.3149 23.5802 37.3535C22.1412 36.392 21.0197 35.0255 20.3575 33.4266C19.6952 31.8278 19.5219 30.0684 19.8595 28.3711C20.1972 26.6738 21.0305 25.1146 22.2542 23.8909C23.4779 22.6672 25.037 21.8339 26.7344 21.4963C28.4317 21.1586 30.191 21.3319 31.7899 21.9942C33.3887 22.6564 34.7553 23.778 35.7168 25.2169C36.6782 26.6558 37.1914 28.3475 37.1914 30.0781C37.1888 32.398 36.266 34.622 34.6257 36.2624C32.9853 37.9027 30.7612 38.8255 28.4414 38.8281Z" fill="#151A6A"></path><path d="M27.3477 23.5156C26.4824 23.5156 25.6365 23.7722 24.917 24.2529C24.1976 24.7337 23.6368 25.417 23.3057 26.2164C22.9746 27.0158 22.8879 27.8955 23.0567 28.7441C23.2255 29.5928 23.6422 30.3724 24.2541 30.9842C24.8659 31.5961 25.6455 32.0128 26.4941 32.1816C27.3428 32.3504 28.2225 32.2637 29.0219 31.9326C29.8213 31.6015 30.5046 31.0407 30.9853 30.3212C31.4661 29.6018 31.7227 28.7559 31.7227 27.8906C31.7214 26.7307 31.2601 25.6186 30.4399 24.7984C29.6197 23.9782 28.5076 23.5169 27.3477 23.5156ZM27.3477 30.0781C26.915 30.0781 26.4921 29.9498 26.1323 29.7095C25.7726 29.4691 25.4922 29.1275 25.3267 28.7277C25.1611 28.328 25.1178 27.8882 25.2022 27.4639C25.2866 27.0395 25.4949 26.6498 25.8009 26.3438C26.1068 26.0379 26.4966 25.8296 26.9209 25.7452C27.3452 25.6608 27.7851 25.7041 28.1848 25.8696C28.5845 26.0352 28.9261 26.3156 29.1665 26.6753C29.4069 27.035 29.5352 27.458 29.5352 27.8906C29.5345 28.4706 29.3038 29.0266 28.8937 29.4367C28.4836 29.8468 27.9276 30.0775 27.3477 30.0781Z" fill="#151A6A"></path></svg>