<svg xmlns="http://www.w3.org/2000/svg" xmlns:xlink="http://www.w3.org/1999/xlink" id="Capa_1" x="0px" y="0px" viewBox="0 0 140 140"  ><style type="text/css">	.st0{fill:none;stroke:#5FBCD3;stroke-width:2;}	.st1{fill:#B5E7F3;}	.st2{fill:#151A6A;}</style><circle class="st0" cx="70" cy="70" r="69"></circle><g>	<path class="st1" d="M92.9,69c-0.6-7.7-7.2-13.4-14.9-12.9c-6.9,0.5-12.4,6-12.9,12.9c-5.9,0.6-10.2,5.8-9.6,11.7  c0.5,5.5,5.1,9.7,10.7,9.7h1.5l-2.4,4.9c-0.3,0.5,0,1.2,0.5,1.4c0.1,0.1,0.3,0.1,0.5,0.1h1.9l-0.9,5.2c-0.1,0.6,0.3,1.1,0.9,1.2  c0.3,0.1,0.6,0,0.9-0.2l7.5-6.4c0.4-0.4,0.5-1.1,0.1-1.5c-0.1-0.1-0.3-0.3-0.5-0.3L74.3,94l2.2-3.7h7.3l-2.4,4.9  c-0.3,0.5,0,1.2,0.5,1.4c0.1,0.1,0.3,0.1,0.5,0.1h1.9l-0.9,5.2c-0.1,0.6,0.3,1.1,0.9,1.2c0.3,0.1,0.6,0,0.9-0.2l7.5-6.4  c0.4-0.4,0.5-1.1,0.1-1.5c-0.1-0.1-0.3-0.3-0.5-0.3L90.3,94l2.2-3.7c5.9-0.3,10.4-5.4,10.1-11.3C102.3,73.7,98.2,69.5,92.9,69  L92.9,69z M72.3,95.6l1.4,0.5l-3.8,3.3l0.6-3.5c0.1-0.6-0.3-1.1-0.9-1.2c-0.1,0-0.1,0-0.2,0H68l2.1-4.3H74L71.8,94  c-0.3,0.5-0.1,1.2,0.4,1.5C72.2,95.5,72.3,95.6,72.3,95.6L72.3,95.6z M79.1,62.5c-0.6,0-1.1-0.5-1.1-1.1s0.5-1.1,1.1-1.1  c5.3,0,9.6,4.3,9.6,9.6c0,0.6-0.5,1.1-1.1,1.1c-0.6,0-1.1-0.5-1.1-1.1C86.6,65.9,83.2,62.5,79.1,62.5z M88.4,95.6l1.4,0.5L86,99.3  l0.6-3.5c0.1-0.6-0.3-1.1-0.9-1.2c-0.1,0-0.1,0-0.2,0H84l2.1-4.3H90L87.8,94c-0.3,0.5-0.1,1.2,0.4,1.5  C88.2,95.5,88.3,95.6,88.4,95.6L88.4,95.6z M97.2,80.7c-0.6,0-1.1-0.5-1.1-1.1c0-2.4-1.9-4.3-4.3-4.3c-0.6,0-1.1-0.5-1.1-1.1  s0.5-1.1,1.1-1.1c3.5,0,6.4,2.9,6.4,6.4C98.3,80.2,97.8,80.7,97.2,80.7z"></path>	<g>		<path class="st2" d="M64.1,90.3c0.6,0,1.1-0.5,1.1-1.1v-8.5h7.5c1.8,0,3.2-1.4,3.2-3.2v-3.7l3.1-1.8c1.5-0.9,2-2.8,1.2-4.3   l-4.2-7.6v-4c0-10.6-8.6-19.2-19.2-19.2s-19.2,8.6-19.2,19.2v33.1c0,0.6,0.5,1.1,1.1,1.1c0.6,0,1.1-0.5,1.1-1.1V56.1   c0-9.4,7.7-17.1,17.1-17.1s17.1,7.7,17.1,17.1v4.3c0,0.2,0,0.4,0.1,0.5l4.3,7.8c0.3,0.5,0.1,1.1-0.4,1.4l-3.6,2.1   c-0.3,0.2-0.5,0.5-0.5,0.9v4.3c0,0.6-0.5,1.1-1.1,1.1h-8.5c-0.6,0-1.1,0.5-1.1,1.1v9.6C63.1,89.8,63.5,90.3,64.1,90.3z"></path>		<path class="st2" d="M56.6,55c-0.6,0-1.1,0.5-1.1,1.1c0,0.6,0.5,1.1,1.1,1.1c1.8,0,3.2-1.4,3.2-3.2s-1.4-3.2-3.2-3.2   c-3,0-5.3,2.4-5.3,5.3s2.4,5.3,5.3,5.3c4.1,0,7.5-3.3,7.5-7.5s-3.3-7.5-7.5-7.5c-5.3,0-9.6,4.3-9.6,9.6s4.3,9.6,9.6,9.6   c6.5,0,11.8-5.3,11.8-11.8s-5.3-11.8-11.8-11.8c-7.7,0-13.9,6.2-13.9,13.9S49,70,56.6,70c0.6,0,1.1-0.5,1.1-1.1   c0-0.6-0.5-1.1-1.1-1.1c-6.5,0-11.8-5.3-11.8-11.8s5.3-11.8,11.8-11.8c5.3,0,9.6,4.3,9.6,9.6s-4.3,9.6-9.6,9.6   c-4.1,0-7.5-3.3-7.5-7.5s3.3-7.5,7.5-7.5c3,0,5.3,2.4,5.3,5.3s-2.4,5.3-5.3,5.3c-1.8,0-3.2-1.4-3.2-3.2s1.4-3.2,3.2-3.2   c0.6,0,1.1,0.5,1.1,1.1C57.7,54.6,57.2,55,56.6,55z"></path>	</g></g></svg>