<svg xmlns="http://www.w3.org/2000/svg" width="70" height="70" viewBox="0 0 70 70" fill="none"><path d="M56.875 29.5312C54.8078 29.5337 52.7645 29.9735 50.8795 30.8219C48.9944 31.6703 47.3102 32.908 45.9375 34.4537C44.5648 32.908 42.8806 31.6703 40.9955 30.8219C39.1105 29.9735 37.0672 29.5337 35 29.5312C28.2537 29.5312 22.9688 35.4566 22.9688 43.021C22.9752 44.3736 23.147 45.7204 23.4803 47.0312L24.1711 49.2188H31.0426L34.0216 43.2608C34.1219 43.0614 34.2808 42.8975 34.4769 42.7909C34.673 42.6844 34.897 42.6403 35.1188 42.6647C35.3407 42.689 35.5498 42.7806 35.7181 42.9271C35.8865 43.0737 36.006 43.2682 36.0606 43.4846L38.4319 52.9657L40.5254 46.6852C40.5954 46.4748 40.7278 46.2906 40.905 46.1572C41.0821 46.0238 41.2957 45.9474 41.5173 45.9382C41.7388 45.929 41.958 45.9874 42.1456 46.1057C42.3332 46.2239 42.4804 46.3964 42.5677 46.6003L44.9196 52.0894L46.0529 49.8233C46.1438 49.6417 46.2835 49.4889 46.4562 49.3821C46.629 49.2754 46.8281 49.2188 47.0312 49.2188H61.25C61.5401 49.2188 61.8183 49.334 62.0234 49.5391C62.2285 49.7442 62.3438 50.0224 62.3438 50.3125C62.3438 50.6026 62.2285 50.8808 62.0234 51.0859C61.8183 51.291 61.5401 51.4062 61.25 51.4062H47.7074L45.8221 55.1767C45.7289 55.3632 45.5842 55.5192 45.4052 55.6262C45.2262 55.7333 45.0203 55.7869 44.8118 55.7808C44.6033 55.7746 44.401 55.709 44.2285 55.5917C44.0561 55.4744 43.9208 55.3102 43.8386 55.1185L41.6907 50.1063L39.3183 57.2211C39.2434 57.4455 39.0977 57.6395 38.9031 57.7741C38.7086 57.9086 38.4756 57.9765 38.2392 57.9674C38.0028 57.9583 37.7757 57.8728 37.592 57.7237C37.4084 57.5746 37.278 57.3699 37.2205 57.1404L34.656 46.8838L32.6971 50.8017C32.6062 50.9833 32.4665 51.1361 32.2938 51.2429C32.121 51.3496 31.9219 51.4062 31.7188 51.4062H25.1536C27.8296 56.589 33.5663 62.8181 45.4462 68.7898C45.5986 68.8664 45.7669 68.9062 45.9375 68.9062C46.1081 68.9062 46.2764 68.8664 46.4288 68.7898C65.986 58.9589 68.9062 48.4251 68.9062 43.021C68.9062 35.4566 63.6213 29.5312 56.875 29.5312ZM63.4375 39.375H61.25V41.5625C61.25 41.8526 61.1348 42.1308 60.9296 42.3359C60.7245 42.541 60.4463 42.6562 60.1562 42.6562C59.8662 42.6562 59.588 42.541 59.3829 42.3359C59.1777 42.1308 59.0625 41.8526 59.0625 41.5625V39.375H56.875C56.5849 39.375 56.3067 39.2598 56.1016 39.0546C55.8965 38.8495 55.7812 38.5713 55.7812 38.2812C55.7812 37.9912 55.8965 37.713 56.1016 37.5079C56.3067 37.3027 56.5849 37.1875 56.875 37.1875H59.0625V35C59.0625 34.7099 59.1777 34.4317 59.3829 34.2266C59.588 34.0215 59.8662 33.9062 60.1562 33.9062C60.4463 33.9062 60.7245 34.0215 60.9296 34.2266C61.1348 34.4317 61.25 34.7099 61.25 35V37.1875H63.4375C63.7276 37.1875 64.0058 37.3027 64.2109 37.5079C64.416 37.713 64.5312 37.9912 64.5312 38.2812C64.5312 38.5713 64.416 38.8495 64.2109 39.0546C64.0058 39.2598 63.7276 39.375 63.4375 39.375Z" fill="#B5E7F3"></path><path d="M4.375 49.2188H7.65625V50.8594C7.65701 51.5843 7.94534 52.2794 8.45797 52.792C8.9706 53.3047 9.66566 53.593 10.3906 53.5938H13.6719C14.3968 53.593 15.0919 53.3047 15.6045 52.792C16.1172 52.2794 16.4055 51.5843 16.4062 50.8594V49.2188H40.4688V50.8594C40.4695 51.5843 40.7578 52.2794 41.2705 52.792C41.7831 53.3047 42.4782 53.593 43.2031 53.5938H46.4844C47.2093 53.593 47.9044 53.3047 48.417 52.792C48.9297 52.2794 49.218 51.5843 49.2188 50.8594V49.2188H52.5C53.3699 49.2178 54.204 48.8718 54.8191 48.2566C55.4343 47.6415 55.7803 46.8074 55.7812 45.9375V4.375C55.7803 3.50505 55.4343 2.671 54.8191 2.05585C54.204 1.44071 53.3699 1.0947 52.5 1.09375H4.375C3.50505 1.0947 2.671 1.44071 2.05585 2.05585C1.44071 2.671 1.0947 3.50505 1.09375 4.375V45.9375C1.0947 46.8074 1.44071 47.6415 2.05585 48.2566C2.671 48.8718 3.50505 49.2178 4.375 49.2188ZM14.2188 50.8594C14.2186 51.0044 14.1609 51.1433 14.0584 51.2459C13.9558 51.3484 13.8169 51.4061 13.6719 51.4062H10.3906C10.2456 51.4061 10.1067 51.3484 10.0041 51.2459C9.90162 51.1433 9.84394 51.0044 9.84375 50.8594V49.2188H14.2188V50.8594ZM47.0312 50.8594C47.0311 51.0044 46.9734 51.1433 46.8709 51.2459C46.7683 51.3484 46.6294 51.4061 46.4844 51.4062H43.2031C43.0581 51.4061 42.9192 51.3484 42.8166 51.2459C42.7141 51.1433 42.6564 51.0044 42.6562 50.8594V49.2188H47.0312V50.8594ZM52.5 47.0312H4.375C4.08501 47.031 3.80698 46.9156 3.60192 46.7106C3.39687 46.5055 3.28154 46.2275 3.28125 45.9375V36.0938H53.5938V45.9375C53.5935 46.2275 53.4781 46.5055 53.2731 46.7106C53.068 46.9156 52.79 47.031 52.5 47.0312ZM4.375 3.28125H52.5C52.79 3.28154 53.068 3.39687 53.2731 3.60192C53.4781 3.80698 53.5935 4.08501 53.5938 4.375V33.9062H3.28125V4.375C3.28154 4.08501 3.39687 3.80698 3.60192 3.60192C3.80698 3.39687 4.08501 3.28154 4.375 3.28125Z" fill="#151A6A"></path><path d="M48.125 40.4688H41.5625C41.2724 40.4688 40.9942 40.584 40.7891 40.7891C40.584 40.9942 40.4688 41.2724 40.4688 41.5625C40.4688 41.8526 40.584 42.1308 40.7891 42.3359C40.9942 42.541 41.2724 42.6562 41.5625 42.6562H48.125C48.4151 42.6562 48.6933 42.541 48.8984 42.3359C49.1035 42.1308 49.2188 41.8526 49.2188 41.5625C49.2188 41.2724 49.1035 40.9942 48.8984 40.7891C48.6933 40.584 48.4151 40.4688 48.125 40.4688Z" fill="#151A6A"></path><path d="M31.7188 40.4688H25.1562C24.8662 40.4688 24.588 40.584 24.3829 40.7891C24.1777 40.9942 24.0625 41.2724 24.0625 41.5625C24.0625 41.8526 24.1777 42.1308 24.3829 42.3359C24.588 42.541 24.8662 42.6562 25.1562 42.6562H31.7188C32.0088 42.6562 32.287 42.541 32.4921 42.3359C32.6973 42.1308 32.8125 41.8526 32.8125 41.5625C32.8125 41.2724 32.6973 40.9942 32.4921 40.7891C32.287 40.584 32.0088 40.4688 31.7188 40.4688Z" fill="#151A6A"></path><path d="M15.3125 40.4688H8.75C8.45992 40.4688 8.18172 40.584 7.9766 40.7891C7.77148 40.9942 7.65625 41.2724 7.65625 41.5625C7.65625 41.8526 7.77148 42.1308 7.9766 42.3359C8.18172 42.541 8.45992 42.6562 8.75 42.6562H15.3125C15.6026 42.6562 15.8808 42.541 16.0859 42.3359C16.291 42.1308 16.4062 41.8526 16.4062 41.5625C16.4062 41.2724 16.291 40.9942 16.0859 40.7891C15.8808 40.584 15.6026 40.4688 15.3125 40.4688Z" fill="#151A6A"></path><path d="M8.75 13.1251H18.5938C18.8232 13.1252 19.0469 13.053 19.2331 12.9188C19.4193 12.7846 19.5584 12.5952 19.6309 12.3774L19.7804 11.9288L20.8592 14.6253C20.9382 14.8204 21.0717 14.9887 21.2438 15.11C21.4159 15.2312 21.6193 15.3004 21.8296 15.3091C22.04 15.3178 22.2484 15.2658 22.4299 15.1592C22.6115 15.0526 22.7585 14.896 22.8534 14.7081L24.0625 12.2893L26.3654 16.8956C26.4654 17.0953 26.6242 17.2596 26.8203 17.3664C27.0165 17.4732 27.2407 17.5174 27.4627 17.493C27.6848 17.4687 27.894 17.3769 28.0623 17.2301C28.2307 17.0833 28.3501 16.8885 28.4044 16.6718L29.292 13.1251H36.0938C36.3109 13.1251 36.5231 13.0604 36.7034 12.9395C36.8837 12.8185 37.0239 12.6467 37.1063 12.4458L38.3229 16.7071C38.3841 16.9185 38.5075 17.1066 38.6771 17.2469C38.8468 17.3871 39.0547 17.473 39.2739 17.4934C39.4931 17.5137 39.7133 17.4676 39.9058 17.3609C40.0984 17.2543 40.2543 17.0921 40.3534 16.8956L42.2386 13.1251H48.125C48.4151 13.1251 48.6933 13.0099 48.8984 12.8048C49.1035 12.5996 49.2188 12.3214 49.2188 12.0314C49.2188 11.7413 49.1035 11.4631 48.8984 11.258C48.6933 11.0529 48.4151 10.9376 48.125 10.9376H41.5625C41.3594 10.9376 41.1603 10.9942 40.9875 11.101C40.8147 11.2078 40.675 11.3605 40.5841 11.5422L39.6538 13.4023L38.2396 8.44945C38.1735 8.22657 38.0383 8.03044 37.8535 7.88936C37.6687 7.74827 37.4439 7.66953 37.2115 7.66448C36.9791 7.65943 36.7511 7.72833 36.5603 7.86125C36.3696 7.99418 36.226 8.18425 36.1503 8.40404L35.3055 10.9376H28.4375C28.1937 10.9377 27.9568 11.0192 27.7647 11.1693C27.5725 11.3194 27.436 11.5294 27.3769 11.7659L26.9998 13.2725L25.0409 9.35471C24.9399 9.18524 24.7967 9.04491 24.6252 8.94745C24.4537 8.85 24.2598 8.79876 24.0625 8.79876C23.8653 8.79876 23.6714 8.85 23.4999 8.94745C23.3284 9.04491 23.1851 9.18524 23.0841 9.35471L21.9861 11.5512L20.7033 8.3437C20.6202 8.13551 20.4752 7.95787 20.2878 7.83486C20.1004 7.71185 19.8798 7.6494 19.6557 7.65599C19.4317 7.66258 19.2151 7.73787 19.0352 7.87168C18.8554 8.00548 18.721 8.19133 18.6504 8.40404L17.8055 10.9376H8.75C8.45992 10.9376 8.18172 11.0529 7.9766 11.258C7.77148 11.4631 7.65625 11.7413 7.65625 12.0314C7.65625 12.3214 7.77148 12.5996 7.9766 12.8048C8.18172 13.0099 8.45992 13.1251 8.75 13.1251Z" fill="#151A6A"></path><path d="M8.75 26.25H14.2188C14.4219 26.25 14.621 26.1934 14.7938 26.0866C14.9666 25.9798 15.1062 25.8271 15.1971 25.6454L15.8807 24.2788L16.4212 27.5237C16.4576 27.7398 16.558 27.9401 16.7094 28.0985C16.8609 28.2569 17.0565 28.3662 17.2708 28.4122C17.4851 28.4581 17.7082 28.4387 17.9114 28.3564C18.1145 28.274 18.2882 28.1326 18.41 27.9504L19.2261 26.7264L19.7206 28.7029C19.7723 28.9082 19.8824 29.0941 20.0376 29.2381C20.1928 29.382 20.3865 29.4779 20.595 29.514C20.8036 29.5501 21.0182 29.5249 21.2128 29.4416C21.4074 29.3582 21.5736 29.2201 21.6913 29.0442L23.5541 26.25H31.7188C31.8624 26.25 32.0046 26.2217 32.1373 26.1667C32.27 26.1117 32.3905 26.0311 32.492 25.9295L33.2344 25.1872L33.9276 28.6522C33.9711 28.8684 34.079 29.0665 34.2371 29.2204C34.3952 29.3742 34.5961 29.4767 34.8135 29.5144C35.0309 29.552 35.2545 29.5231 35.4552 29.4314C35.6558 29.3396 35.824 29.1894 35.9378 29.0004L38.1936 25.2401L38.3966 25.6454C38.4875 25.8271 38.6271 25.9798 38.7999 26.0866C38.9728 26.1934 39.1719 26.25 39.375 26.25H48.125C48.4151 26.25 48.6933 26.1347 48.8984 25.9296C49.1035 25.7245 49.2188 25.4463 49.2188 25.1562C49.2188 24.8661 49.1035 24.5879 48.8984 24.3828C48.6933 24.1777 48.4151 24.0625 48.125 24.0625H40.0511L39.2596 22.4795C39.1719 22.3043 39.0387 22.1559 38.874 22.0497C38.7093 21.9435 38.5191 21.8836 38.3233 21.876C38.1275 21.8685 37.9333 21.9137 37.7609 22.0069C37.5885 22.1001 37.4443 22.2379 37.3434 22.4058L35.5179 25.4489L34.9785 22.754C34.9395 22.5601 34.8486 22.3804 34.7155 22.234C34.5824 22.0876 34.4122 21.9801 34.2228 21.9228C34.0335 21.8655 33.8321 21.8605 33.6402 21.9086C33.4483 21.9566 33.273 22.0557 33.133 22.1954L31.2659 24.0625H22.9688C22.7887 24.0625 22.6114 24.107 22.4527 24.1919C22.294 24.2769 22.1586 24.3997 22.0587 24.5495L21.2427 25.7736L20.7482 23.797C20.6964 23.5918 20.5863 23.406 20.4311 23.262C20.2759 23.1181 20.0823 23.0223 19.8737 22.9862C19.6651 22.9501 19.4506 22.9752 19.256 23.0586C19.0615 23.1419 18.8952 23.2799 18.7775 23.4558L18.1238 24.4358L17.4851 20.6013C17.4467 20.3737 17.3374 20.1641 17.1728 20.0024C17.0082 19.8407 16.7967 19.7352 16.5686 19.7009C16.3404 19.6666 16.1072 19.7053 15.9023 19.8115C15.6975 19.9176 15.5314 20.0858 15.4279 20.292L13.5426 24.0625H8.75C8.45992 24.0625 8.18172 24.1777 7.9766 24.3828C7.77148 24.5879 7.65625 24.8661 7.65625 25.1562C7.65625 25.4463 7.77148 25.7245 7.9766 25.9296C8.18172 26.1347 8.45992 26.25 8.75 26.25Z" fill="#151A6A"></path></svg>