<svg xmlns="http://www.w3.org/2000/svg" id="Capa_1" x="0px" y="0px" viewBox="0 0 140 140">
<style type="text/css">
.st0{fill:none;stroke:#5FBCD3;stroke-width:2;}
.st1{fill:#B5E7F3;}
.st2{fill:#151A6A;}
</style>
<circle class="st0" cx="70" cy="70" r="69"/>
<g transform="translate(35,35) scale(1)">
<svg xmlns="http://www.w3.org/2000/svg" width="70" height="70" viewBox="0 0 70 70" fill="none"><path d="M41.5625 35H27.3438V38.2812H41.5625V35Z" fill="#B5E7F3"></path><path d="M51.6402 37.6564C52.1192 37.6565 52.5875 37.5146 52.9858 37.2485C53.3842 36.9825 53.6947 36.6043 53.8781 36.1618C54.0615 35.7193 54.1096 35.2323 54.0162 34.7625C53.9229 34.2926 53.6923 33.861 53.3537 33.5223C53.015 33.1835 52.5835 32.9527 52.1137 32.8591C51.6439 32.7656 51.1569 32.8134 50.7144 32.9967C50.2718 33.1799 49.8934 33.4902 49.6272 33.8885C49.361 34.2867 49.2189 34.7549 49.2188 35.2339C49.2193 35.8761 49.4746 36.4917 49.9285 36.9459C50.3825 37.4 50.998 37.6556 51.6402 37.6564Z" fill="#B5E7F3"></path><path d="M62.3836 38.2812C62.5768 38.2811 62.7656 38.2237 62.9262 38.1163C63.0867 38.0089 63.2119 37.8563 63.2857 37.6777C63.3595 37.4992 63.3788 37.3028 63.341 37.1134C63.3032 36.9239 63.2101 36.7499 63.0734 36.6134C62.9367 36.4768 62.7626 36.3839 62.5731 36.3463C62.3836 36.3087 62.1872 36.3282 62.0088 36.4022C61.8303 36.4762 61.6778 36.6015 61.5706 36.7622C61.4633 36.9229 61.4061 37.1118 61.4063 37.305C61.4065 37.564 61.5096 37.8123 61.6929 37.9953C61.8761 38.1784 62.1246 38.2812 62.3836 38.2812Z" fill="#B5E7F3"></path><path d="M57.5777 37.6564C57.8404 37.6565 58.0972 37.5787 58.3157 37.4329C58.5342 37.287 58.7045 37.0796 58.8051 36.837C58.9057 36.5943 58.9321 36.3273 58.881 36.0696C58.8298 35.8119 58.7034 35.5752 58.5178 35.3894C58.3321 35.2036 58.0955 35.077 57.8378 35.0256C57.5802 34.9743 57.3131 35.0005 57.0704 35.1009C56.8277 35.2013 56.6202 35.3715 56.4741 35.5899C56.3281 35.8082 56.2501 36.065 56.25 36.3277C56.2504 36.6798 56.3903 37.0174 56.6392 37.2664C56.8881 37.5155 57.2256 37.6558 57.5777 37.6564Z" fill="#B5E7F3"></path><path d="M65.625 21.875H25.1562C24.2868 21.8775 23.4537 22.2241 22.8389 22.8389C22.2241 23.4537 21.8775 24.2868 21.875 25.1562V65.625C21.8775 66.4945 22.2241 67.3276 22.8389 67.9424C23.4537 68.5572 24.2868 68.9037 25.1562 68.9062H65.625C66.4945 68.9037 67.3276 68.5572 67.9424 67.9424C68.5572 67.3276 68.9037 66.4945 68.9062 65.625V25.1562C68.9037 24.2868 68.5572 23.4537 67.9424 22.8389C67.3276 22.2241 66.4945 21.8775 65.625 21.875ZM49.2188 65.625H26.25C25.9599 65.625 25.6817 65.5098 25.4766 65.3046C25.2715 65.0995 25.1562 64.8213 25.1562 64.5312C25.1562 64.2412 25.2715 63.963 25.4766 63.7579C25.6817 63.5527 25.9599 63.4375 26.25 63.4375H49.2188C49.5088 63.4375 49.787 63.5527 49.9921 63.7579C50.1973 63.963 50.3125 64.2412 50.3125 64.5312C50.3125 64.8213 50.1973 65.0995 49.9921 65.3046C49.787 65.5098 49.5088 65.625 49.2188 65.625ZM49.2188 59.0625H26.25C25.9599 59.0625 25.6817 58.9473 25.4766 58.7421C25.2715 58.537 25.1562 58.2588 25.1562 57.9688C25.1562 57.6787 25.2715 57.4005 25.4766 57.1954C25.6817 56.9902 25.9599 56.875 26.25 56.875H49.2188C49.5088 56.875 49.787 56.9902 49.9921 57.1954C50.1973 57.4005 50.3125 57.6787 50.3125 57.9688C50.3125 58.2588 50.1973 58.537 49.9921 58.7421C49.787 58.9473 49.5088 59.0625 49.2188 59.0625ZM26.25 43.75H42.6562C42.9463 43.75 43.2245 43.8652 43.4296 44.0704C43.6348 44.2755 43.75 44.5537 43.75 44.8438C43.75 45.1338 43.6348 45.412 43.4296 45.6171C43.2245 45.8223 42.9463 45.9375 42.6562 45.9375H26.25C25.9599 45.9375 25.6817 45.8223 25.4766 45.6171C25.2715 45.412 25.1562 45.1338 25.1562 44.8438C25.1562 44.5537 25.2715 44.2755 25.4766 44.0704C25.6817 43.8652 25.9599 43.75 26.25 43.75ZM25.1562 39.375V33.9062C25.1562 33.7626 25.1844 33.6203 25.2393 33.4876C25.2943 33.3549 25.3748 33.2343 25.4764 33.1327C25.578 33.0311 25.6986 32.9505 25.8313 32.8956C25.9641 32.8407 26.1063 32.8124 26.25 32.8125H42.6562C42.7999 32.8124 42.9422 32.8407 43.0749 32.8956C43.2076 32.9505 43.3283 33.0311 43.4298 33.1327C43.5314 33.2343 43.612 33.3549 43.6669 33.4876C43.7218 33.6203 43.7501 33.7626 43.75 33.9062V39.375C43.7501 39.5187 43.7218 39.6609 43.6669 39.7937C43.612 39.9264 43.5314 40.047 43.4298 40.1486C43.3283 40.2502 43.2076 40.3307 43.0749 40.3857C42.9422 40.4406 42.7999 40.4688 42.6562 40.4688H26.25C26.1063 40.4688 25.9641 40.4406 25.8313 40.3857C25.6986 40.3307 25.578 40.2502 25.4764 40.1486C25.3748 40.047 25.2943 39.9264 25.2393 39.7937C25.1844 39.6609 25.1562 39.5187 25.1562 39.375ZM26.25 50.3125H45.9375C46.2276 50.3125 46.5058 50.4277 46.7109 50.6329C46.916 50.838 47.0312 51.1162 47.0312 51.4062C47.0312 51.6963 46.916 51.9745 46.7109 52.1796C46.5058 52.3848 46.2276 52.5 45.9375 52.5H26.25C25.9599 52.5 25.6817 52.3848 25.4766 52.1796C25.2715 51.9745 25.1562 51.6963 25.1562 51.4062C25.1562 51.1162 25.2715 50.838 25.4766 50.6329C25.6817 50.4277 25.9599 50.3125 26.25 50.3125ZM63.6895 40.1784C64.1848 40.9824 64.4491 41.9074 64.4533 42.8517V60.4297C64.4533 61.8076 63.9059 63.129 62.9316 64.1033C61.9573 65.0776 60.6358 65.625 59.258 65.625C57.8801 65.625 56.5586 65.0776 55.5843 64.1033C54.61 63.129 54.0627 61.8076 54.0627 60.4297V53.9633C54.0611 53.4442 53.9259 52.9342 53.6702 52.4824C53.4145 52.0307 53.0468 51.6523 52.6025 51.3838L50.7248 50.258C49.9575 49.7943 49.3224 49.1409 48.8808 48.3606C48.4391 47.5804 48.2057 46.6996 48.203 45.803V42.8517C48.2062 41.5484 48.7026 40.2946 49.5924 39.3422C48.9332 39.0155 48.3621 38.5353 47.927 37.9421C47.4918 37.3489 47.2054 36.6599 47.0918 35.9331C46.9781 35.2062 47.0405 34.4627 47.2738 33.7649C47.5071 33.0672 47.9044 32.4356 48.4323 31.9233C48.9603 31.4109 49.6035 31.0328 50.3079 30.8205C51.0123 30.6083 51.7573 30.5682 52.4805 30.7036C53.2036 30.839 53.8837 31.1459 54.4636 31.5986C55.0435 32.0513 55.5063 32.6366 55.8131 33.3053C56.2166 33.0633 56.6652 32.9061 57.1315 32.8434C57.5979 32.7807 58.0721 32.8137 58.5252 32.9405C58.9783 33.0674 59.4008 33.2853 59.7668 33.5809C60.1328 33.8766 60.4347 34.2438 60.6539 34.6601C61.018 34.4209 61.4277 34.2595 61.8571 34.1862C62.2866 34.1129 62.7266 34.1292 63.1494 34.2341C63.5723 34.3391 63.9689 34.5303 64.3142 34.7959C64.6596 35.0615 64.9463 35.3957 65.1563 35.7774C65.3663 36.1592 65.495 36.5802 65.5345 37.0141C65.5739 37.448 65.5231 37.8853 65.3854 38.2987C65.2476 38.712 65.0258 39.0924 64.734 39.4158C64.4421 39.7393 64.0865 39.9989 63.6895 40.1784ZM66.7188 28.4375H24.0625V25.1562C24.0634 24.8664 24.1789 24.5887 24.3838 24.3838C24.5887 24.1789 24.8664 24.0634 25.1562 24.0625H65.625C65.9148 24.0634 66.1925 24.1789 66.3974 24.3838C66.6024 24.5887 66.7179 24.8664 66.7188 25.1562V28.4375Z" fill="#B5E7F3"></path><path d="M59.2581 39.844H53.3984C52.601 39.8448 51.8364 40.162 51.2725 40.7259C50.7086 41.2898 50.3914 42.0543 50.3906 42.8518V45.8031C50.3922 46.3222 50.5273 46.8322 50.7831 47.2839C51.0388 47.7357 51.4065 48.114 51.8508 48.3826L53.7285 49.5084C54.4959 49.9721 55.1309 50.6256 55.5726 51.4058C56.0143 52.1861 56.2477 53.0669 56.2503 53.9635V60.4298C56.2503 61.2275 56.5672 61.9925 57.1313 62.5566C57.6954 63.1207 58.4604 63.4376 59.2582 63.4376C60.0559 63.4376 60.8209 63.1207 61.385 62.5566C61.9491 61.9925 62.266 61.2275 62.266 60.4298V42.8518C62.2652 42.0543 61.948 41.2897 61.3841 40.7258C60.8202 40.1619 60.0556 39.8448 59.2581 39.844Z" fill="#B5E7F3"></path><path d="M1.09375 4.375V53.5938C1.0947 54.4637 1.44071 55.2977 2.05585 55.9129C2.671 56.528 3.50505 56.8741 4.375 56.875H52.5C53.3699 56.8741 54.204 56.528 54.8191 55.9129C55.4343 55.2977 55.7803 54.4637 55.7812 53.5938V4.375C55.7803 3.50505 55.4343 2.671 54.8191 2.05585C54.204 1.44071 53.3699 1.0947 52.5 1.09375H4.375C3.50505 1.0947 2.671 1.44071 2.05585 2.05585C1.44071 2.671 1.0947 3.50505 1.09375 4.375ZM53.5938 4.375V5.46875H3.28125V4.375C3.28144 4.08498 3.39674 3.80689 3.60182 3.60182C3.80689 3.39674 4.08498 3.28144 4.375 3.28125H52.5C52.79 3.28144 53.0681 3.39674 53.2732 3.60182C53.4783 3.80689 53.5936 4.08498 53.5938 4.375ZM3.28125 53.5938V7.65625H53.5938V53.5938C53.5936 53.8838 53.4783 54.1619 53.2732 54.3669C53.0681 54.572 52.79 54.6873 52.5 54.6875H4.375C4.08498 54.6873 3.80689 54.572 3.60182 54.3669C3.39674 54.1619 3.28144 53.8838 3.28125 53.5938Z" fill="#151A6A"></path><path d="M48.1249 15.3124C47.6846 15.3121 47.2487 15.4009 46.8435 15.5736C46.6052 14.793 46.1232 14.1092 45.4681 13.6225C44.813 13.1357 44.0192 12.8715 43.2031 12.8686C42.548 12.8728 41.9052 13.0472 41.3378 13.3746C41.1109 12.596 40.6946 11.8858 40.1261 11.3074C39.5576 10.729 38.8546 10.3006 38.08 10.0603C37.3054 9.82011 36.4833 9.77558 35.6873 9.93075C34.8913 10.0859 34.1461 10.4359 33.5184 10.9495C32.8908 11.4631 32.4002 12.1242 32.0905 12.8738C31.7808 13.6233 31.6618 14.4379 31.7439 15.2448C31.8261 16.0516 32.1069 16.8255 32.5613 17.4972C33.0156 18.169 33.6294 18.7177 34.3477 19.0942C33.361 20.1075 32.81 21.4667 32.8124 22.8811V24.0624H30.6249C30.3349 24.0624 30.0567 24.1776 29.8515 24.3828C29.6464 24.5879 29.5312 24.8661 29.5312 25.1562C29.5312 25.4462 29.6464 25.7244 29.8515 25.9296C30.0567 26.1347 30.3349 26.2499 30.6249 26.2499H32.8691C32.9989 27.2002 33.3789 28.0989 33.9703 28.8539C34.5617 29.609 35.3432 30.1933 36.2347 30.5469C36.8401 30.7867 37.3593 31.2033 37.7243 31.7425C38.0894 32.2818 38.2835 32.9185 38.2812 33.5697V36.154L28.4374 40.3725L18.5937 36.154V33.5697C18.5914 32.9185 18.7855 32.2818 19.1505 31.7425C19.5156 31.2033 20.0347 30.7867 20.6402 30.5469C21.5317 30.1933 22.3132 29.609 22.9046 28.8539C23.4959 28.0989 23.876 27.2002 24.0058 26.2499H26.2499C26.54 26.2499 26.8182 26.1347 27.0233 25.9296C27.2285 25.7244 27.3437 25.4462 27.3437 25.1562C27.3437 24.8661 27.2285 24.5879 27.0233 24.3828C26.8182 24.1776 26.54 24.0624 26.2499 24.0624H24.0624V22.8811C24.0649 21.4667 23.5139 20.1075 22.5271 19.0942C23.2448 18.7175 23.858 18.1688 24.3119 17.4972C24.7657 16.8256 25.0461 16.052 25.128 15.2456C25.2099 14.4392 25.0907 13.625 24.7811 12.8759C24.4715 12.1268 23.9811 11.4661 23.3537 10.9528C22.7264 10.4395 21.9817 10.0896 21.1861 9.93441C20.3906 9.77921 19.5689 9.82354 18.7947 10.0634C18.0204 10.3033 17.3177 10.7313 16.7492 11.3091C16.1807 11.8869 15.7643 12.5966 15.5371 13.3746C14.9697 13.0472 14.3269 12.8728 13.6718 12.8686C12.8557 12.8715 12.0619 13.1357 11.4068 13.6225C10.7517 14.1092 10.2697 14.7929 10.0313 15.5735C9.24368 15.2366 8.35537 15.2218 7.55691 15.5322C6.75845 15.8426 6.11342 16.4536 5.76015 17.234C5.40688 18.0145 5.37351 18.9023 5.66718 19.7071C5.96085 20.5118 6.55818 21.1695 7.33108 21.539C6.83123 22.3725 6.56568 23.3255 6.56244 24.2974V42.6818C6.56405 44.1249 7.13803 45.5084 8.15847 46.5289C9.1789 47.5493 10.5624 48.1233 12.0055 48.1249H13.1506C14.5937 48.1233 15.9772 47.5493 16.9977 46.5289C18.0181 45.5084 18.5921 44.1249 18.5937 42.6818V38.5332L28.007 42.5676C28.143 42.626 28.2894 42.6562 28.4374 42.6562C28.5854 42.6562 28.7319 42.626 28.8679 42.5676L38.2812 38.5332V42.6818C38.2828 44.1249 38.8568 45.5085 39.8772 46.5289C40.8977 47.5493 42.2812 48.1233 43.7243 48.1249H44.8693C46.3124 48.1233 47.696 47.5493 48.7164 46.5289C49.7368 45.5084 50.3108 44.1249 50.3124 42.6818V24.2974C50.3092 23.3255 50.0437 22.3725 49.5438 21.5391C50.2143 21.2188 50.7559 20.6799 51.0795 20.0109C51.4031 19.342 51.4895 18.5829 51.3244 17.8583C51.1593 17.1338 50.7526 16.487 50.1711 16.0243C49.5896 15.5616 48.868 15.3106 48.1249 15.3124ZM20.2343 12.0312C20.7751 12.0312 21.3038 12.1915 21.7534 12.492C22.2031 12.7924 22.5536 13.2195 22.7605 13.7191C22.9675 14.2188 23.0217 14.7686 22.9161 15.299C22.8106 15.8294 22.5502 16.3166 22.1678 16.699C21.7854 17.0814 21.2982 17.3419 20.7678 17.4474C20.2373 17.5529 19.6876 17.4987 19.1879 17.2918C18.6883 17.0848 18.2612 16.7343 17.9608 16.2847C17.6603 15.835 17.4999 15.3063 17.4999 14.7655C17.5006 14.0405 17.7889 13.3454 18.3016 12.8328C18.8142 12.3201 19.5093 12.0318 20.2343 12.0312ZM13.6718 15.0561C13.9963 15.0561 14.3135 15.1523 14.5833 15.3326C14.8531 15.5128 15.0634 15.7691 15.1876 16.0689C15.3117 16.3686 15.3442 16.6985 15.2809 17.0168C15.2176 17.335 15.0614 17.6273 14.8319 17.8568C14.6025 18.0862 14.3101 18.2425 13.9919 18.3058C13.6736 18.3691 13.3438 18.3366 13.044 18.2124C12.7442 18.0883 12.488 17.878 12.3077 17.6082C12.1274 17.3384 12.0312 17.0212 12.0312 16.6967C12.0317 16.2617 12.2047 15.8447 12.5122 15.5371C12.8198 15.2295 13.2368 15.0565 13.6718 15.0561ZM8.74994 17.4999C8.96626 17.4999 9.17773 17.5641 9.35759 17.6842C9.53746 17.8044 9.67765 17.9752 9.76043 18.1751C9.84321 18.375 9.86487 18.5949 9.82267 18.807C9.78047 19.0192 9.6763 19.2141 9.52333 19.3671C9.37037 19.52 9.17548 19.6242 8.96332 19.6664C8.75115 19.7086 8.53123 19.6869 8.33138 19.6042C8.13152 19.5214 7.9607 19.3812 7.84052 19.2013C7.72033 19.0214 7.65619 18.81 7.65619 18.5937C7.65638 18.3036 7.77168 18.0256 7.97675 17.8205C8.18183 17.6154 8.45992 17.5001 8.74994 17.4999ZM16.4062 42.6818C16.4053 43.545 16.0621 44.3726 15.4517 44.9829C14.8413 45.5933 14.0138 45.9366 13.1506 45.9374H12.0055C11.1424 45.9366 10.3148 45.5933 9.70443 44.9829C9.09407 44.3726 8.75079 43.545 8.74994 42.6818V24.2974C8.75304 23.5532 9.00961 22.8323 9.47735 22.2535C9.94509 21.6747 10.5961 21.2726 11.323 21.1133C18.3868 19.6007 18.1264 19.6244 18.6247 19.6244C19.4873 19.6261 20.314 19.9699 20.9234 20.5805C21.5327 21.1911 21.875 22.0185 21.8749 22.8811V24.0624H18.5937C18.3036 24.0624 18.0254 24.1776 17.8203 24.3828C17.6152 24.5879 17.4999 24.8661 17.4999 25.1562C17.4999 25.4462 17.6152 25.7244 17.8203 25.9296C18.0254 26.1347 18.3036 26.2499 18.5937 26.2499H21.7779C21.6596 26.7567 21.4205 27.2273 21.0811 27.6218C20.7416 28.0162 20.3119 28.3228 19.8284 28.5154C18.8162 28.9164 17.9482 29.6131 17.3378 30.5147C16.7273 31.4163 16.4027 32.4809 16.4062 33.5697V35.2165L13.5554 33.9948C13.4233 33.9378 13.2813 33.9074 13.1374 33.9053C12.9936 33.9033 12.8507 33.9296 12.7171 33.9829C12.5834 34.0361 12.4616 34.1153 12.3586 34.2157C12.2556 34.3161 12.1734 34.4359 12.1167 34.5682C12.0601 34.7004 12.0301 34.8425 12.0285 34.9864C12.0269 35.1303 12.0537 35.273 12.1074 35.4065C12.1611 35.54 12.2405 35.6616 12.3413 35.7643C12.442 35.867 12.5621 35.9488 12.6945 36.005L16.4062 37.5958V42.6818ZM48.1249 17.4999C48.3413 17.4999 48.5527 17.5641 48.7326 17.6842C48.9125 17.8044 49.0526 17.9752 49.1354 18.1751C49.2182 18.375 49.2399 18.5949 49.1977 18.807C49.1555 19.0192 49.0513 19.2141 48.8983 19.3671C48.7454 19.52 48.5505 19.6242 48.3383 19.6664C48.1262 19.7086 47.9062 19.6869 47.7064 19.6042C47.5065 19.5214 47.3357 19.3812 47.2155 19.2013C47.0953 19.0214 47.0312 18.81 47.0312 18.5937C47.0314 18.3036 47.1467 18.0256 47.3518 17.8205C47.5568 17.6154 47.8349 17.5001 48.1249 17.4999ZM43.2031 15.0561C43.5275 15.0561 43.8447 15.1523 44.1145 15.3326C44.3843 15.5128 44.5946 15.7691 44.7188 16.0689C44.843 16.3686 44.8755 16.6985 44.8122 17.0168C44.7489 17.335 44.5926 17.6273 44.3632 17.8568C44.1337 18.0862 43.8414 18.2425 43.5231 18.3058C43.2049 18.3691 42.875 18.3366 42.5752 18.2124C42.2754 18.0883 42.0192 17.878 41.8389 17.6082C41.6587 17.3384 41.5624 17.0212 41.5624 16.6967C41.5629 16.2617 41.7359 15.8447 42.0435 15.5371C42.3511 15.2295 42.7681 15.0565 43.2031 15.0561ZM36.6406 12.0312C37.1814 12.0312 37.71 12.1915 38.1597 12.492C38.6094 12.7924 38.9598 13.2195 39.1668 13.7191C39.3738 14.2188 39.4279 14.7686 39.3224 15.299C39.2169 15.8294 38.9565 16.3166 38.5741 16.699C38.1917 17.0814 37.7044 17.3419 37.174 17.4474C36.6436 17.5529 36.0938 17.4987 35.5942 17.2918C35.0945 17.0848 34.6675 16.7343 34.367 16.2847C34.0666 15.835 33.9062 15.3063 33.9062 14.7655C33.9069 14.0405 34.1952 13.3454 34.7078 12.8328C35.2205 12.3201 35.9156 12.0318 36.6406 12.0312ZM48.1249 42.6818C48.1241 43.545 47.7808 44.3726 47.1704 44.9829C46.5601 45.5933 45.7325 45.9366 44.8693 45.9374H43.7243C42.8611 45.9366 42.0335 45.5933 41.4232 44.9829C40.8128 44.3726 40.4695 43.545 40.4687 42.6818V37.5958L44.1804 36.005C44.4461 35.8903 44.6554 35.6749 44.7626 35.406C44.8697 35.1372 44.8659 34.8368 44.752 34.5708C44.638 34.3047 44.4233 34.0947 44.1548 33.9868C43.8862 33.8788 43.5859 33.8817 43.3195 33.9948L40.4687 35.2165V33.5697C40.4722 32.4809 40.1475 31.4163 39.5371 30.5147C38.9266 29.6131 38.0587 28.9164 37.0464 28.5154C36.563 28.3228 36.1332 28.0162 35.7938 27.6218C35.4544 27.2273 35.2153 26.7567 35.0969 26.2499H38.2812C38.5713 26.2499 38.8495 26.1347 39.0546 25.9296C39.2597 25.7244 39.3749 25.4462 39.3749 25.1562C39.3749 24.8661 39.2597 24.5879 39.0546 24.3828C38.8495 24.1776 38.5713 24.0624 38.2812 24.0624H34.9999V22.8811C34.9999 22.0185 35.3422 21.1911 35.9515 20.5805C36.5609 19.9699 37.3876 19.6261 38.2502 19.6244C38.6017 19.6244 40.322 19.961 45.5508 21.1133C46.2779 21.2723 46.9292 21.6744 47.3971 22.2532C47.8651 22.832 48.1218 23.5531 48.1249 24.2974V42.6818Z" fill="#151A6A"></path><path d="M21.875 48.125H26.25C26.5401 48.125 26.8183 48.0098 27.0234 47.8046C27.2285 47.5995 27.3438 47.3213 27.3438 47.0312C27.3438 46.7412 27.2285 46.463 27.0234 46.2579C26.8183 46.0527 26.5401 45.9375 26.25 45.9375H21.875C21.5849 45.9375 21.3067 46.0527 21.1016 46.2579C20.8965 46.463 20.7812 46.7412 20.7812 47.0312C20.7812 47.3213 20.8965 47.5995 21.1016 47.8046C21.3067 48.0098 21.5849 48.125 21.875 48.125Z" fill="#151A6A"></path><path d="M35 48.125H30.625C30.3349 48.125 30.0567 48.0098 29.8516 47.8046C29.6465 47.5995 29.5312 47.3213 29.5312 47.0312C29.5312 46.7412 29.6465 46.463 29.8516 46.2579C30.0567 46.0527 30.3349 45.9375 30.625 45.9375H35C35.2901 45.9375 35.5683 46.0527 35.7734 46.2579C35.9785 46.463 36.0938 46.7412 36.0938 47.0312C36.0938 47.3213 35.9785 47.5995 35.7734 47.8046C35.5683 48.0098 35.2901 48.125 35 48.125Z" fill="#151A6A"></path></svg>
</g>
</svg>
