<svg xmlns="http://www.w3.org/2000/svg" id="Capa_1" x="0px" y="0px" viewBox="0 0 140 140">
<style type="text/css">
.st0{fill:none;stroke:#5FBCD3;stroke-width:2;}
.st1{fill:#B5E7F3;}
.st2{fill:#151A6A;}
</style>
<circle class="st0" cx="70" cy="70" r="69"/>
<g transform="translate(35,35) scale(1)">
<svg xmlns="http://www.w3.org/2000/svg" width="70" height="70" viewBox="0 0 70 70" fill="none"><path d="M49.2188 28.4375C45.3249 28.4375 41.5186 29.5922 38.281 31.7554C35.0434 33.9187 32.52 36.9935 31.0299 40.5909C29.5398 44.1883 29.1499 48.1468 29.9095 51.9658C30.6692 55.7848 32.5442 59.2928 35.2976 62.0462C38.0509 64.7995 41.5589 66.6746 45.3779 67.4342C49.1969 68.1939 53.1554 67.804 56.7528 66.3139C60.3503 64.8238 63.425 62.3004 65.5883 59.0628C67.7516 55.8252 68.9063 52.0188 68.9063 48.125C68.9003 42.9054 66.8242 37.9012 63.1334 34.2104C59.4425 30.5195 54.4384 28.4434 49.2188 28.4375ZM49.2188 63.4375C45.1922 63.4322 41.3295 61.8423 38.4659 59.0116C35.6022 56.1809 33.9677 52.3369 33.9157 48.3107C33.2659 46.1906 33.413 43.9062 34.3293 41.887C35.2455 39.8677 36.8678 38.2527 38.8911 37.3456C39.0199 37.282 39.1599 37.2445 39.3032 37.2351C39.4465 37.2256 39.5902 37.2445 39.7262 37.2906C39.8622 37.3368 39.9878 37.4092 40.0957 37.5039C40.2037 37.5985 40.292 37.7135 40.3555 37.8423C40.4191 37.971 40.4566 38.1111 40.4661 38.2543C40.4755 38.3976 40.4566 38.5414 40.4105 38.6773C40.3644 38.8133 40.2919 38.9389 40.1973 39.0469C40.1026 39.1549 39.9876 39.2431 39.8589 39.3067C38.3954 39.937 37.197 41.0571 36.4694 42.4746C35.7417 43.8922 35.5302 45.5189 35.8712 47.0754C39.7713 47.2991 43.4386 49.0044 46.123 51.8426C48.8074 54.6807 50.3061 58.4372 50.3125 62.3438C50.3125 62.4874 50.2843 62.6296 50.2293 62.7624C50.1744 62.8951 50.0938 63.0157 49.9922 63.1172C49.8907 63.2188 49.7701 63.2994 49.6374 63.3543C49.5046 63.4093 49.3624 63.4375 49.2188 63.4375ZM59.5464 58.9044C59.4176 58.968 59.2776 59.0055 59.1343 59.0149C58.991 59.0244 58.8473 59.0055 58.7113 58.9594C58.5753 58.9132 58.4497 58.8408 58.3418 58.7461C58.2338 58.6515 58.1455 58.5365 58.082 58.4077C58.0184 58.279 57.9809 58.1389 57.9714 57.9957C57.962 57.8524 57.9809 57.7086 58.027 57.5727C58.0731 57.4367 58.1456 57.3111 58.2402 57.2031C58.3349 57.0951 58.4499 57.0069 58.5787 56.9433C60.0421 56.313 61.2405 55.1929 61.9681 53.7754C62.6958 52.3578 62.9073 50.7311 62.5663 49.1746C58.6662 48.9509 54.9989 47.2456 52.3145 44.4074C49.6301 41.5693 48.1314 37.8128 48.125 33.9062C48.125 33.7626 48.1532 33.6204 48.2082 33.4876C48.2631 33.3549 48.3437 33.2343 48.4453 33.1328C48.5468 33.0312 48.6674 32.9506 48.8002 32.8957C48.9329 32.8407 49.0751 32.8125 49.2188 32.8125C53.2453 32.8178 57.108 34.4077 59.9716 37.2384C62.8353 40.0691 64.4698 43.9131 64.5218 47.9393C65.1716 50.0594 65.0245 52.3438 64.1082 54.363C63.192 56.3823 61.5697 57.9973 59.5464 58.9044Z" fill="#B5E7F3"></path><path d="M55.1897 38.403C57.5543 39.728 59.6813 41.438 61.4834 43.4627C60.6045 41.1589 59.0957 39.1485 57.1292 37.6609C55.1628 36.1733 52.8178 35.2682 50.3618 35.0491C50.6221 37.9633 51.847 40.7074 53.8428 42.8469C55.8385 44.9864 58.4909 46.399 61.3799 46.861C59.4835 44.1928 57.0285 41.9699 54.1856 40.347C53.9278 40.2138 53.7335 39.9837 53.6454 39.7073C53.5572 39.4309 53.5825 39.1307 53.7157 38.873C53.8488 38.6152 54.0789 38.4208 54.3554 38.3327C54.6318 38.2446 54.9319 38.2699 55.1897 38.403Z" fill="#B5E7F3"></path><path d="M37.0576 49.3889C38.954 52.0571 41.4091 54.28 44.2519 55.903C44.3795 55.9689 44.493 56.0593 44.5857 56.1691C44.6784 56.2788 44.7485 56.4058 44.7922 56.5426C44.8358 56.6795 44.8521 56.8236 44.84 56.9668C44.8279 57.1099 44.7878 57.2493 44.7219 57.377C44.6559 57.5046 44.5655 57.618 44.4558 57.7107C44.346 57.8034 44.2191 57.8736 44.0822 57.9172C43.8057 58.0054 43.5056 57.9801 43.2478 57.8469C40.8833 56.5219 38.7562 54.8119 36.9541 52.7872C37.8331 55.091 39.3419 57.1014 41.3083 58.589C43.2748 60.0766 45.6197 60.9817 48.0757 61.2008C47.8155 58.2867 46.5905 55.5426 44.5948 53.4031C42.5991 51.2636 39.9467 49.851 37.0576 49.3889Z" fill="#B5E7F3"></path><path d="M39.1237 2.20826C36.7568 2.09215 34.391 2.4583 32.1699 3.2845C29.9488 4.1107 27.9189 5.37971 26.2033 7.01445C24.4876 8.6492 23.1222 10.6156 22.1898 12.7942C21.2574 14.9728 20.7775 17.3182 20.7793 19.688V25.9194L15.7752 33.4261C15.5172 33.8132 15.3444 34.2508 15.2683 34.7098C15.1922 35.1688 15.2146 35.6388 15.334 36.0884C15.4534 36.5381 15.6671 36.9573 15.9608 37.3181C16.2545 37.6789 16.6216 37.9732 17.0377 38.1813L20.7794 40.0516V47.0318C20.7803 47.9017 21.1263 48.7358 21.7415 49.3509C22.3566 49.9661 23.1907 50.3121 24.0606 50.313H33.9044V55.7818C33.9044 56.0718 34.0196 56.35 34.2247 56.5552C34.4298 56.7603 34.708 56.8755 34.9981 56.8755C35.2882 56.8755 35.5664 56.7603 35.7715 56.5552C35.9766 56.35 36.0919 56.0718 36.0919 55.7818V49.2193C36.0919 49.0756 36.0636 48.9334 36.0087 48.8007C35.9537 48.6679 35.8732 48.5474 35.7716 48.4458C35.67 48.3442 35.5494 48.2637 35.4167 48.2087C35.284 48.1537 35.1418 48.1255 34.9981 48.1255H24.0606C23.7706 48.1252 23.4926 48.0099 23.2875 47.8048C23.0825 47.5998 22.9671 47.3218 22.9669 47.0318V39.3755C22.9668 39.1724 22.9103 38.9733 22.8035 38.8005C22.6967 38.6277 22.544 38.488 22.3623 38.3971L18.0161 36.2245C17.8772 36.1554 17.7546 36.0574 17.6566 35.9372C17.5585 35.8169 17.4871 35.6771 17.4473 35.5271C17.4075 35.3772 17.4001 35.2204 17.4256 35.0674C17.4511 34.9143 17.509 34.7684 17.5953 34.6395L22.7831 26.8572C22.9029 26.6775 22.9668 26.4664 22.9669 26.2505V19.688C22.9623 17.6211 23.377 15.5747 24.186 13.6726C29.7628 18.9574 37.1588 21.8945 44.8419 21.8755C46.8056 21.8755 48.1231 24.09 48.1231 26.2505C48.1231 30.1098 44.6309 31.9717 42.602 29.4335C42.5124 29.3208 42.4015 29.227 42.2755 29.1573C42.1496 29.0877 42.0112 29.0436 41.8681 29.0275C41.7251 29.0114 41.5803 29.0237 41.4421 29.0637C41.3038 29.1037 41.1748 29.1706 41.0625 29.2606C40.9501 29.3505 40.8566 29.4617 40.7873 29.5879C40.718 29.714 40.6743 29.8526 40.6587 29.9957C40.643 30.1387 40.6558 30.2835 40.6962 30.4216C40.7366 30.5598 40.8039 30.6886 40.8941 30.8007C41.6122 31.7246 42.6156 32.3851 43.7481 32.6795V32.813C43.7516 35.5234 44.76 38.1362 46.5782 40.1462C48.3964 42.1562 50.8954 43.4207 53.5919 43.695V55.7817C53.5919 56.0718 53.7071 56.35 53.9122 56.5551C54.1174 56.7603 54.3955 56.8755 54.6856 56.8755C54.9757 56.8755 55.2539 56.7603 55.459 56.5551C55.6641 56.35 55.7794 56.0718 55.7794 55.7817V20.1515C55.8465 15.5918 54.1525 11.1819 51.0501 7.8396C47.9476 4.49735 43.6758 2.48029 39.1237 2.20826ZM53.5918 41.487C51.4792 41.2192 49.5366 40.1908 48.1274 38.5943C46.7182 36.9978 45.939 34.9425 45.9356 32.813V32.6795C48.6793 32.0067 50.3106 29.1471 50.3106 26.2505C50.3106 22.4182 47.7048 19.688 44.8418 19.688C37.5076 19.7068 30.4639 16.8226 25.2491 11.6654C26.6766 9.325 28.7099 7.41374 31.1341 6.13373C33.5583 4.85371 36.2834 4.25249 39.0211 4.39364C43.0112 4.63981 46.7527 6.41526 49.4667 9.35045C52.1808 12.2856 53.6583 16.1544 53.5919 20.1515L53.5918 41.487Z" fill="#151A6A"></path><path d="M33.6357 29.3448C31.4781 28.4716 28.1675 28.3937 24.0605 32.2529V31.7192C24.0605 31.4292 23.9453 31.151 23.7402 30.9458C23.5351 30.7407 23.2569 30.6255 22.9668 30.6255C22.6767 30.6255 22.3985 30.7407 22.1934 30.9458C21.9883 31.151 21.873 31.4292 21.873 31.7192V35.0005C21.8855 35.2866 22.0047 35.5576 22.2072 35.7601C22.4096 35.9626 22.6807 36.0818 22.9668 36.0942H26.248C26.5381 36.0942 26.8163 35.979 27.0214 35.7739C27.2266 35.5688 27.3418 35.2906 27.3418 35.0005C27.3418 34.7104 27.2266 34.4322 27.0214 34.2271C26.8163 34.022 26.5381 33.9067 26.248 33.9067H25.4968C27.6234 31.8923 30.2592 30.3402 32.8153 31.3732C37.796 33.3876 41.2294 44.3048 40.4695 55.7091C40.4599 55.8524 40.4786 55.9962 40.5246 56.1323C40.5706 56.2684 40.643 56.3941 40.7376 56.5022C40.8321 56.6103 40.9471 56.6987 41.0758 56.7624C41.2046 56.8261 41.3446 56.8638 41.4879 56.8734C41.5125 56.8744 41.5371 56.8755 41.5616 56.8755C41.8389 56.8752 42.1057 56.7695 42.3081 56.58C42.5104 56.3904 42.6332 56.131 42.6516 55.8544C43.3811 44.9115 40.2083 32.0034 33.6357 29.3448Z" fill="#151A6A"></path><path d="M4.60303 46.8088C8.50821 45.9353 12.1001 44.0104 14.9901 41.2425C15.1932 41.037 15.3068 40.7595 15.3061 40.4706C15.3053 40.1817 15.1903 39.9048 14.9861 39.7004C14.7819 39.496 14.5051 39.3807 14.2162 39.3796C13.9273 39.3786 13.6497 39.4919 13.444 39.6948C11.101 41.8887 8.28178 43.5102 5.20725 44.4322C5.38627 44.217 5.47518 43.9409 5.45542 43.6617C5.43566 43.3825 5.30876 43.1217 5.10122 42.9338C4.89368 42.746 4.62158 42.6456 4.34177 42.6537C4.06196 42.6617 3.79609 42.7776 3.59973 42.9771L1.41315 45.1637C1.20858 45.3694 1.09375 45.6478 1.09375 45.9379C1.09375 46.2281 1.20858 46.5064 1.41315 46.7122L3.59972 48.8987C3.70128 49.0003 3.82184 49.0808 3.95452 49.1358C4.08721 49.1908 4.22942 49.219 4.37304 49.219C4.51665 49.219 4.65887 49.1908 4.79155 49.1358C4.92424 49.0808 5.0448 49.0003 5.14635 48.8987C5.2479 48.7972 5.32846 48.6766 5.38342 48.5439C5.43838 48.4112 5.46667 48.269 5.46667 48.1254C5.46667 47.9818 5.43838 47.8396 5.38342 47.7069C5.32846 47.5742 5.2479 47.4537 5.14635 47.3521L4.60303 46.8088Z" fill="#151A6A"></path><path d="M16.8149 41.8021C13.5534 44.7963 11.5152 48.8914 11.0928 53.2987L10.615 52.8208C10.4099 52.6157 10.1317 52.5005 9.84168 52.5005C9.55163 52.5005 9.27346 52.6157 9.06836 52.8208C8.86327 53.0259 8.74805 53.3041 8.74805 53.5941C8.74805 53.8842 8.86327 54.1623 9.06836 54.3674L11.2551 56.5542C11.4606 56.7591 11.739 56.8742 12.0292 56.8742C12.3194 56.8742 12.5977 56.7591 12.8032 56.5542L14.99 54.3674C15.1951 54.1623 15.3103 53.8842 15.3103 53.5941C15.3103 53.3041 15.1951 53.0259 14.99 52.8208C14.7849 52.6157 14.5067 52.5005 14.2167 52.5005C13.9266 52.5005 13.6485 52.6157 13.4434 52.8208L13.3342 52.93C13.7966 49.3184 15.5128 45.9841 18.1831 43.509C18.2952 43.4191 18.3885 43.3081 18.4576 43.1822C18.5268 43.0563 18.5705 42.918 18.5862 42.7753C18.6019 42.6325 18.5894 42.488 18.5492 42.3501C18.5091 42.2122 18.4422 42.0835 18.3524 41.9714C18.2626 41.8593 18.1515 41.7661 18.0256 41.6969C17.8997 41.6277 17.7615 41.5841 17.6187 41.5683C17.4759 41.5526 17.3314 41.5652 17.1935 41.6053C17.0556 41.6454 16.9269 41.7123 16.8149 41.8021Z" fill="#151A6A"></path></svg>
</g>
</svg>
