<svg xmlns="http://www.w3.org/2000/svg" id="Capa_1" x="0px" y="0px" viewBox="0 0 140 140">
<style type="text/css">
.st0{fill:none;stroke:#5FBCD3;stroke-width:2;}
.st1{fill:#B5E7F3;}
.st2{fill:#151A6A;}
</style>
<circle class="st0" cx="70" cy="70" r="69"/>
<g transform="translate(35,35) scale(1)">
<svg xmlns="http://www.w3.org/2000/svg" width="70" height="70" viewBox="0 0 70 70" fill="none"><path d="M41.5626 53.0468C43.9889 53.0514 46.3688 52.3821 48.437 51.1135C50.5052 49.8449 52.1805 48.0268 53.2761 45.8619C54.3716 43.697 54.8444 41.2704 54.6418 38.8526C54.4392 36.4348 53.569 34.1207 52.1284 32.1684L42.4806 47.0782C42.3822 47.2305 42.2474 47.3559 42.0885 47.4432C41.9295 47.5304 41.7513 47.5767 41.57 47.578C41.3887 47.5793 41.2099 47.5354 41.0498 47.4504C40.8896 47.3654 40.7531 47.2419 40.6525 47.0911L34.09 37.2473C33.9316 37.0059 33.8751 36.7117 33.9327 36.4289C33.9904 36.146 34.1575 35.8973 34.3977 35.7372C34.638 35.5771 34.9317 35.5184 35.215 35.574C35.4983 35.6295 35.7482 35.7949 35.9101 36.0339L41.5486 44.4923L50.6309 30.4563C49.0815 28.9719 47.1917 27.8902 45.127 27.3061C43.0624 26.7219 40.8859 26.6531 38.7885 27.1057C36.6911 27.5583 34.7367 28.5185 33.0967 29.9021C31.4567 31.2858 30.1811 33.0505 29.3817 35.0418C28.5824 37.0331 28.2837 39.19 28.5119 41.3235C28.74 43.4571 29.488 45.5021 30.6904 47.2793C31.8927 49.0565 33.5126 50.5117 35.4081 51.5172C37.3036 52.5227 39.4168 53.048 41.5626 53.0468Z" fill="#B5E7F3"></path><path d="M41.5625 60.703C45.6249 60.7052 49.5977 59.5092 52.9836 57.2645L61.7584 66.0393C62.1472 66.4281 62.6088 66.7365 63.1168 66.9469C63.6248 67.1573 64.1693 67.2656 64.7191 67.2655C65.269 67.2655 65.8135 67.1572 66.3214 66.9468C66.8294 66.7363 67.291 66.4279 67.6798 66.0391C68.0686 65.6502 68.3769 65.1886 68.5873 64.6806C68.7977 64.1726 68.906 63.6282 68.906 63.0783C68.906 62.5285 68.7976 61.984 68.5872 61.476C68.3768 60.968 68.0683 60.5065 67.6795 60.1177L66.3992 58.8373L66.3983 58.836L66.3969 58.835L63.6645 56.1025L63.663 56.101L58.9052 51.3429C61.4453 47.479 62.6233 42.8779 62.2526 38.2688C61.8819 33.6596 59.9836 29.306 56.8586 25.8978C53.7335 22.4895 49.5605 20.2216 45.0007 19.4534C40.4409 18.6852 35.7552 19.4607 31.686 21.6569C27.6168 23.8531 24.3968 27.3445 22.5364 31.5778C20.676 35.811 20.2815 40.5441 21.4154 45.027C22.5493 49.5098 25.1468 53.4861 28.7963 56.3256C32.4457 59.1652 36.9384 60.7057 41.5625 60.703ZM62.8906 58.4215L64.0784 59.6093L61.2498 62.4378L60.062 61.2501L62.8906 58.4215ZM41.5625 24.6093C45.3638 24.6108 49.0273 26.0334 51.8334 28.5978L52.6757 27.2961C52.8337 27.0534 53.0815 26.8833 53.3647 26.823C53.648 26.7628 53.9436 26.8173 54.1867 26.9747C54.4298 27.1321 54.6005 27.3795 54.6615 27.6626C54.7224 27.9457 54.6686 28.2415 54.5118 28.4849L53.3935 30.2131C55.597 32.9019 56.8196 36.2608 56.86 39.737C56.9004 43.2131 55.7562 46.5995 53.6157 49.3388C51.4752 52.078 48.4659 54.007 45.0831 54.8083C41.7003 55.6095 38.1455 55.2352 35.0037 53.7471C31.8619 52.2589 29.3203 49.7456 27.7972 46.6206C26.2741 43.4956 25.8602 39.9452 26.6236 36.5537C27.387 33.1621 29.2823 30.1315 31.9975 27.9606C34.7127 25.7896 38.0861 24.6077 41.5625 24.6093Z" fill="#B5E7F3"></path><path d="M2.1875 24.6008H54.6875C54.9776 24.6008 55.2558 24.4856 55.4609 24.2805C55.666 24.0754 55.7812 23.7972 55.7812 23.5071C55.7812 23.217 55.666 22.9388 55.4609 22.7337C55.2558 22.5286 54.9776 22.4133 54.6875 22.4133H2.1875C1.89742 22.4133 1.61922 22.5286 1.4141 22.7337C1.20898 22.9388 1.09375 23.217 1.09375 23.5071C1.09375 23.7972 1.20898 24.0754 1.4141 24.2805C1.61922 24.4856 1.89742 24.6008 2.1875 24.6008Z" fill="#151A6A"></path><path d="M54.6875 55.2258H2.1875C1.89742 55.2258 1.61922 55.3411 1.4141 55.5462C1.20898 55.7513 1.09375 56.0295 1.09375 56.3196C1.09375 56.6097 1.20898 56.8879 1.4141 57.093C1.61922 57.2981 1.89742 57.4133 2.1875 57.4133H54.6875C54.9776 57.4133 55.2558 57.2981 55.4609 57.093C55.666 56.8879 55.7812 56.6097 55.7812 56.3196C55.7812 56.0295 55.666 55.7513 55.4609 55.5462C55.2558 55.3411 54.9776 55.2258 54.6875 55.2258Z" fill="#151A6A"></path><path d="M2.1875 44.2883H4.375C4.66508 44.2883 4.94328 44.1731 5.1484 43.968C5.35352 43.7629 5.46875 43.4847 5.46875 43.1946C5.46875 42.9045 5.35352 42.6263 5.1484 42.4212C4.94328 42.2161 4.66508 42.1008 4.375 42.1008H2.1875C1.89742 42.1008 1.61922 42.2161 1.4141 42.4212C1.20898 42.6263 1.09375 42.9045 1.09375 43.1946C1.09375 43.4847 1.20898 43.7629 1.4141 43.968C1.61922 44.1731 1.89742 44.2883 2.1875 44.2883Z" fill="#151A6A"></path><path d="M54.6875 42.1008H52.5C52.2099 42.1008 51.9317 42.2161 51.7266 42.4212C51.5215 42.6263 51.4062 42.9045 51.4062 43.1946C51.4062 43.4847 51.5215 43.7629 51.7266 43.968C51.9317 44.1731 52.2099 44.2883 52.5 44.2883H54.6875C54.9776 44.2883 55.2558 44.1731 55.4609 43.968C55.666 43.7629 55.7812 43.4847 55.7812 43.1946C55.7812 42.9045 55.666 42.6263 55.4609 42.4212C55.2558 42.2161 54.9776 42.1008 54.6875 42.1008Z" fill="#151A6A"></path><path d="M28.4375 48.6633C28.1474 48.6633 27.8692 48.7786 27.6641 48.9837C27.459 49.1888 27.3438 49.467 27.3438 49.7571C27.3438 50.0472 27.459 50.3254 27.6641 50.5305C27.8692 50.7356 28.1474 50.8508 28.4375 50.8508H32.8125C33.1026 50.8508 33.3808 50.7356 33.5859 50.5305C33.791 50.3254 33.9062 50.0472 33.9062 49.7571C33.9062 49.467 33.791 49.1888 33.5859 48.9837C33.3808 48.7786 33.1026 48.6633 32.8125 48.6633H28.4375Z" fill="#151A6A"></path><path d="M41.5625 48.6633C41.2724 48.6633 40.9942 48.7786 40.7891 48.9837C40.584 49.1888 40.4688 49.467 40.4688 49.7571C40.4688 50.0472 40.584 50.3254 40.7891 50.5305C40.9942 50.7356 41.2724 50.8508 41.5625 50.8508H45.9375C46.2276 50.8508 46.5058 50.7356 46.7109 50.5305C46.916 50.3254 47.0312 50.0472 47.0312 49.7571C47.0312 49.467 46.916 49.1888 46.7109 48.9837C46.5058 48.7786 46.2276 48.6633 45.9375 48.6633H41.5625Z" fill="#151A6A"></path><path d="M54.6982 48.6633H54.6875C54.3965 48.6647 54.1179 48.7815 53.9128 48.9881C53.7078 49.1946 53.593 49.4741 53.5938 49.7651C53.5945 50.0561 53.7106 50.335 53.9166 50.5406C54.1227 50.7461 54.4018 50.8615 54.6929 50.8615C54.9839 50.8615 55.2631 50.7461 55.4691 50.5406C55.6751 50.335 55.7913 50.0561 55.792 49.7651C55.7927 49.4741 55.6779 49.1946 55.4729 48.9881C55.2678 48.7815 54.9892 48.6647 54.6982 48.6633Z" fill="#151A6A"></path><path d="M2.1875 50.8508H6.5625C6.85258 50.8508 7.13078 50.7356 7.3359 50.5305C7.54102 50.3254 7.65625 50.0472 7.65625 49.7571C7.65625 49.467 7.54102 49.1888 7.3359 48.9837C7.13078 48.7786 6.85258 48.6633 6.5625 48.6633H2.1875C1.89742 48.6633 1.61922 48.7786 1.4141 48.9837C1.20898 49.1888 1.09375 49.467 1.09375 49.7571C1.09375 50.0472 1.20898 50.3254 1.4141 50.5305C1.61922 50.7356 1.89742 50.8508 2.1875 50.8508Z" fill="#151A6A"></path><path d="M15.3125 48.6633C15.0224 48.6633 14.7442 48.7786 14.5391 48.9837C14.334 49.1888 14.2188 49.467 14.2188 49.7571C14.2188 50.0472 14.334 50.3254 14.5391 50.5305C14.7442 50.7356 15.0224 50.8508 15.3125 50.8508H19.6875C19.9776 50.8508 20.2558 50.7356 20.4609 50.5305C20.666 50.3254 20.7812 50.0472 20.7812 49.7571C20.7812 49.467 20.666 49.1888 20.4609 48.9837C20.2558 48.7786 19.9776 48.6633 19.6875 48.6633H15.3125Z" fill="#151A6A"></path><path d="M20.7812 3.81958C20.7812 3.5295 20.666 3.2513 20.4609 3.04618C20.2558 2.84106 19.9776 2.72583 19.6875 2.72583C19.3974 2.72583 19.1192 2.84106 18.9141 3.04618C18.709 3.2513 18.5938 3.5295 18.5938 3.81958C18.5919 5.55948 17.8998 7.22757 16.6695 8.45787C15.4392 9.68817 13.7712 10.3802 12.0312 10.3821C11.7412 10.3821 11.463 10.4973 11.2579 10.7024C11.0527 10.9075 10.9375 11.1857 10.9375 11.4758C10.9375 11.7659 11.0527 12.0441 11.2579 12.2492C11.463 12.4543 11.7412 12.5696 12.0312 12.5696C13.7711 12.5715 15.4392 13.2635 16.6695 14.4938C17.8998 15.7241 18.5918 17.3922 18.5938 19.1321C18.5938 19.4222 18.709 19.7004 18.9141 19.9055C19.1192 20.1106 19.3974 20.2258 19.6875 20.2258C19.9776 20.2258 20.2558 20.1106 20.4609 19.9055C20.666 19.7004 20.7812 19.4222 20.7812 19.1321C20.7832 17.3922 21.4752 15.7241 22.7055 14.4938C23.9358 13.2635 25.6039 12.5715 27.3438 12.5696C27.6338 12.5696 27.912 12.4543 28.1171 12.2492C28.3223 12.0441 28.4375 11.7659 28.4375 11.4758C28.4375 11.1857 28.3223 10.9075 28.1171 10.7024C27.912 10.4973 27.6338 10.3821 27.3438 10.3821C25.6038 10.3802 23.9358 9.68817 22.7055 8.45787C21.4752 7.22757 20.7831 5.55948 20.7812 3.81958ZM19.6875 14.8991C18.8881 13.461 17.7023 12.2752 16.2642 11.4758C17.7023 10.6764 18.8881 9.49065 19.6875 8.05252C20.4869 9.49065 21.6727 10.6764 23.1108 11.4758C21.6727 12.2752 20.4869 13.461 19.6875 14.8991Z" fill="#151A6A"></path><path d="M39.9219 7.10083C39.9219 6.81075 39.8066 6.53255 39.6015 6.32743C39.3964 6.12231 39.1182 6.00708 38.8281 6.00708C38.538 6.00708 38.2598 6.12231 38.0547 6.32743C37.8496 6.53255 37.7344 6.81075 37.7344 7.10083C37.733 8.40576 37.2139 9.65683 36.2912 10.5796C35.3685 11.5023 34.1174 12.0213 32.8125 12.0227C32.5224 12.0227 32.2442 12.1379 32.0391 12.3431C31.834 12.5482 31.7188 12.8264 31.7188 13.1165C31.7188 13.4065 31.834 13.6847 32.0391 13.8899C32.2442 14.095 32.5224 14.2102 32.8125 14.2102C34.1174 14.2116 35.3685 14.7306 36.2912 15.6534C37.2139 16.5761 37.733 17.8272 37.7344 19.1321C37.7344 19.4222 37.8496 19.7004 38.0547 19.9055C38.2598 20.1106 38.538 20.2258 38.8281 20.2258C39.1182 20.2258 39.3964 20.1106 39.6015 19.9055C39.8066 19.7004 39.9219 19.4222 39.9219 19.1321C39.9233 17.8272 40.4423 16.5761 41.365 15.6534C42.2878 14.7306 43.5388 14.2116 44.8438 14.2102C45.1338 14.2102 45.412 14.095 45.6171 13.8899C45.8223 13.6847 45.9375 13.4065 45.9375 13.1165C45.9375 12.8264 45.8223 12.5482 45.6171 12.3431C45.412 12.1379 45.1338 12.0227 44.8438 12.0227C43.5388 12.0213 42.2878 11.5023 41.365 10.5796C40.4423 9.65683 39.9233 8.40576 39.9219 7.10083ZM38.8281 15.3467C38.2595 14.4469 37.4977 13.6851 36.5979 13.1165C37.4977 12.5478 38.2595 11.786 38.8281 10.8862C39.3968 11.786 40.1586 12.5478 41.0583 13.1165C40.1586 13.6851 39.3968 14.4469 38.8281 15.3467Z" fill="#151A6A"></path><path d="M2.1875 32.2571C5.85739 32.2571 6.09147 36.6321 10.9332 36.6321C15.7311 36.6321 16.0498 32.2571 19.6806 32.2571C23.3519 32.2571 23.5879 36.6321 28.4316 36.6321C33.2295 36.6321 33.5488 32.2571 37.1795 32.2571C40.8608 32.2571 41.0771 36.6321 45.9332 36.6321C50.7299 36.6321 51.0628 32.2571 54.6875 32.2571C54.9775 32.2571 55.2557 32.1418 55.4609 31.9367C55.666 31.7316 55.7812 31.4534 55.7812 31.1633C55.7812 30.8732 55.666 30.595 55.4609 30.3899C55.2557 30.1848 54.9775 30.0696 54.6875 30.0696C49.8908 30.0696 49.5578 34.4446 45.9332 34.4446C42.2511 34.4446 42.0365 30.0696 37.1795 30.0696C32.3816 30.0696 32.0624 34.4446 28.4316 34.4446C24.7603 34.4446 24.5243 30.0696 19.6806 30.0696C14.8766 30.0696 14.5765 34.4446 10.9332 34.4446C7.26333 34.4446 7.02926 30.0696 2.1875 30.0696C1.89742 30.0696 1.61922 30.1848 1.4141 30.3899C1.20898 30.595 1.09375 30.8732 1.09375 31.1633C1.09375 31.4534 1.20898 31.7316 1.4141 31.9367C1.61922 32.1418 1.89742 32.2571 2.1875 32.2571Z" fill="#151A6A"></path></svg>
</g>
</svg>
