<svg xmlns="http://www.w3.org/2000/svg" width="70" height="70" viewBox="0 0 70 70" fill="none"><path d="M22.6692 40.927L25.083 42.7371L26.0621 41.847C26.1903 41.7317 38.9179 30.3888 50.4498 39.6147C50.6751 39.7963 50.8193 40.0597 50.8507 40.3473C50.8821 40.6349 50.7983 40.9232 50.6176 41.1492C50.4369 41.3751 50.174 41.5202 49.8865 41.5527C49.599 41.5852 49.3104 41.5025 49.0837 41.3226C38.9917 33.2493 27.6467 43.3622 27.534 43.4653L25.7043 45.1287V46.5281C28.3492 44.3409 31.6024 43.0195 35.0233 42.7428C38.4442 42.4662 41.8675 43.2477 44.8294 44.9815C44.9564 45.0505 45.0683 45.144 45.1589 45.2566C45.2495 45.3691 45.3169 45.4985 45.3571 45.6373C45.3974 45.776 45.4098 45.9214 45.3936 46.0649C45.3774 46.2085 45.333 46.3474 45.2628 46.4737C45.1926 46.6 45.0981 46.7111 44.9847 46.8006C44.8713 46.8902 44.7413 46.9564 44.6022 46.9954C44.4631 47.0344 44.3176 47.0455 44.1742 47.028C44.0308 47.0105 43.8923 46.9647 43.7667 46.8934C37.0957 43.1864 31.4104 44.6504 25.7221 49.394C25.7649 49.9406 26.0119 50.4511 26.4139 50.8239C26.8159 51.1967 27.3435 51.4046 27.8918 51.4062H38.8293V63.8551L32.8713 66.834C32.6518 66.9449 32.476 67.1264 32.3723 67.3493C32.2685 67.5722 32.2428 67.8236 32.2993 68.0629C32.3558 68.3022 32.4912 68.5156 32.6837 68.6685C32.8762 68.8215 33.1146 68.9052 33.3605 68.9062H66.173C66.4189 68.9052 66.6573 68.8215 66.8498 68.6685C67.0424 68.5156 67.1778 68.3022 67.2343 68.0629C67.2908 67.8236 67.2651 67.5722 67.1613 67.3493C67.0575 67.1264 66.8817 66.9449 66.6622 66.834L60.7043 63.8551V27.3437C60.7059 24.974 60.2259 22.6286 59.2935 20.4501C58.3611 18.2715 56.9956 16.3051 55.28 14.6704C53.5645 13.0356 51.5346 11.7666 49.3136 10.9402C47.0926 10.1139 44.7268 9.74757 42.3599 9.86345C37.8078 10.1355 33.5359 12.1527 30.4335 15.495C27.331 18.8374 25.6371 23.2474 25.7043 27.8073V33.5227L22.2735 37.8107C22.0904 38.0394 21.9551 38.3027 21.8757 38.5847C21.7963 38.8668 21.7745 39.1619 21.8114 39.4526C21.8483 39.7433 21.9432 40.0236 22.0906 40.2769C22.238 40.5302 22.4347 40.7512 22.6692 40.927ZM52.0616 51.0057C52.3129 50.8608 52.6114 50.8217 52.8915 50.8968C53.1716 50.972 53.4104 51.1553 53.5554 51.4065C53.7004 51.6577 53.7397 51.9562 53.6647 52.2364C53.5897 52.5165 53.4065 52.7554 53.1554 52.9005L51.9547 53.5937L53.1554 54.2869C53.4065 54.432 53.5897 54.6709 53.6647 54.9511C53.7397 55.2312 53.7004 55.5297 53.5554 55.7809C53.4104 56.0321 53.1716 56.2154 52.8915 56.2906C52.6114 56.3657 52.3129 56.3266 52.0616 56.1817L50.8605 55.4883V56.8749C50.8605 57.165 50.7453 57.4432 50.5402 57.6483C50.3351 57.8535 50.0569 57.9687 49.7668 57.9687C49.4767 57.9687 49.1985 57.8535 48.9934 57.6483C48.7883 57.4432 48.673 57.165 48.673 56.8749V55.4883L47.4719 56.1818C47.3475 56.2537 47.2102 56.3004 47.0677 56.3192C46.9252 56.338 46.7804 56.3285 46.6416 56.2913C46.5028 56.2542 46.3727 56.19 46.2587 56.1025C46.1447 56.015 46.049 55.906 45.9772 55.7815C45.9053 55.657 45.8587 55.5197 45.84 55.3772C45.8213 55.2347 45.8308 55.0899 45.868 54.9511C45.9053 54.8123 45.9695 54.6822 46.057 54.5683C46.1446 54.4543 46.2537 54.3587 46.3782 54.2869L47.5789 53.5937L46.3782 52.9005C46.2537 52.8287 46.1446 52.7331 46.057 52.6191C45.9695 52.5052 45.9053 52.3751 45.868 52.2363C45.8308 52.0975 45.8213 51.9527 45.84 51.8102C45.8587 51.6678 45.9053 51.5304 45.9772 51.4059C46.049 51.2815 46.1447 51.1724 46.2587 51.0849C46.3727 50.9974 46.5028 50.9333 46.6416 50.8961C46.7804 50.8589 46.9252 50.8495 47.0677 50.8683C47.2102 50.8871 47.3475 50.9337 47.4719 51.0056L48.673 51.6991V50.3124C48.673 50.0224 48.7883 49.7442 48.9934 49.539C49.1985 49.3339 49.4767 49.2187 49.7668 49.2187C50.0569 49.2187 50.3351 49.3339 50.5402 49.539C50.7453 49.7442 50.8605 50.0224 50.8605 50.3124V51.6991L52.0616 51.0057Z" fill="#B5E7F3"></path><path d="M10.3906 34.9998V54.6873C10.3906 54.9773 10.5059 55.2555 10.711 55.4607C10.9161 55.6658 11.1943 55.781 11.4844 55.781C11.7745 55.781 12.0527 55.6658 12.2578 55.4607C12.4629 55.2555 12.5781 54.9773 12.5781 54.6873V34.9998C12.5781 34.7097 12.4629 34.4315 12.2578 34.2264C12.0527 34.0212 11.7745 33.906 11.4844 33.906C11.1943 33.906 10.9161 34.0212 10.711 34.2264C10.5059 34.4315 10.3906 34.7097 10.3906 34.9998Z" fill="#151A6A"></path><path d="M3.82812 55.781C4.11821 55.781 4.3964 55.6658 4.60152 55.4607C4.80664 55.2556 4.92188 54.9774 4.92188 54.6873V31.7185C4.92358 30.2687 5.5003 28.8787 6.52552 27.8534C7.55074 26.8282 8.94075 26.2515 10.3906 26.2498H20.2344C20.5245 26.2498 20.8027 26.1346 21.0078 25.9294C21.2129 25.7243 21.3281 25.4461 21.3281 25.156V20.781C21.3281 20.491 21.2129 20.2128 21.0078 20.0077C20.8026 19.8025 20.5245 19.6873 20.2344 19.6873H16.9531V16.406C16.9532 16.2029 16.8966 16.0038 16.7899 15.831C16.6831 15.6581 16.5303 15.5185 16.3486 15.4277L15.2692 14.8883L16.7694 12.6377C16.8891 12.4581 16.953 12.247 16.9531 12.031V10.1645C16.9241 8.4196 17.5691 6.73069 18.7537 5.44918C19.9383 4.16767 21.5714 3.39225 23.3132 3.28425C24.1916 3.25714 25.0665 3.40675 25.886 3.72418C26.7055 4.04162 27.4529 4.52043 28.0839 5.13219C28.7148 5.74395 29.2164 6.47621 29.559 7.28553C29.9016 8.09484 30.0781 8.96471 30.0781 9.84354V25.156C30.0781 25.4461 30.1934 25.7243 30.3985 25.9294C30.6036 26.1346 30.8818 26.2498 31.1719 26.2498H41.0156C42.4655 26.2515 43.8555 26.8282 44.8807 27.8534C45.906 28.8787 46.4827 30.2687 46.4844 31.7185V41.7295C46.4824 43.443 45.8009 45.0858 44.5892 46.2975C43.3775 47.5091 41.7347 48.1907 40.0212 48.1926C36.9057 48.2034 33.8496 47.3409 31.1993 45.7031C28.5491 44.0652 26.4108 41.7175 25.027 38.9262C23.9499 36.6805 23.4314 34.2078 23.5156 31.7185C23.5156 31.1384 23.7461 30.582 24.1563 30.1717C24.5666 29.7615 25.123 29.531 25.7031 29.531C26.2833 29.531 26.8397 29.7615 27.2499 30.1717C27.6602 30.582 27.8906 31.1384 27.8906 31.7185C27.8915 33.3869 28.3268 35.0263 29.1537 36.4754C30.2406 38.3718 31.8084 39.9481 33.699 41.0451C35.5896 42.1422 37.7361 42.7212 39.9219 42.7239C40.212 42.7239 40.4901 42.6086 40.6953 42.4035C40.9004 42.1984 41.0156 41.9202 41.0156 41.6301V32.8801C41.0156 32.59 40.9004 32.3118 40.6953 32.1067C40.4902 31.9016 40.212 31.7864 39.9219 31.7864C39.6318 31.7864 39.3536 31.9016 39.1485 32.1067C38.9434 32.3118 38.8281 32.59 38.8281 32.8801V40.4771C37.2228 40.3024 35.6815 39.7505 34.3302 38.8664C32.9789 37.9823 31.8559 36.7912 31.0528 35.3902C30.4146 34.2717 30.0787 33.0063 30.0781 31.7185C30.0781 30.5582 29.6172 29.4454 28.7967 28.625C27.9762 27.8045 26.8634 27.3435 25.7031 27.3435C24.5428 27.3435 23.43 27.8045 22.6095 28.625C21.7891 29.4454 21.3281 30.5582 21.3281 31.7185C21.1727 34.5534 21.7739 37.3787 23.0702 39.9046C24.5446 42.8779 26.7785 45.4089 29.5457 47.2412C32.3129 49.0735 35.5151 50.1421 38.8281 50.3387V54.6873C38.8281 54.9774 38.9434 55.2556 39.1485 55.4607C39.3536 55.6658 39.6318 55.781 39.9219 55.781C40.212 55.781 40.4902 55.6658 40.6953 55.4607C40.9004 55.2556 41.0156 54.9774 41.0156 54.6873V50.3184C43.1221 50.0726 45.0652 49.0624 46.4764 47.4793C47.8876 45.8962 48.6688 43.8503 48.6719 41.7295V31.7185C48.6696 29.6887 47.8622 27.7426 46.4269 26.3073C44.9916 24.8719 43.0455 24.0646 41.0156 24.0623H32.2656V9.84354C32.2665 8.67167 32.0318 7.51157 31.5755 6.4322C31.1191 5.35282 30.4505 4.3762 29.6092 3.56035C28.768 2.74451 27.7713 2.10611 26.6784 1.68307C25.5856 1.26004 24.4188 1.06101 23.2475 1.09782C20.9384 1.22659 18.768 2.24102 17.188 3.9299C15.6081 5.61878 14.7404 7.85196 14.7656 10.1645V11.6999L12.7619 14.7056C12.6759 14.8346 12.6184 14.9805 12.5931 15.1335C12.5678 15.2865 12.5753 15.4431 12.6151 15.593C12.6549 15.7428 12.726 15.8825 12.8239 16.0028C12.9218 16.1231 13.0441 16.2212 13.1827 16.2907L14.7656 17.0822V20.781C14.7656 21.0711 14.8809 21.3493 15.086 21.5544C15.2911 21.7596 15.5693 21.8748 15.8594 21.8748H19.1406V24.0623H10.3906C8.36076 24.0646 6.41469 24.8719 4.97936 26.3073C3.54402 27.7426 2.73665 29.6887 2.73438 31.7185V54.6873C2.73438 54.9774 2.84961 55.2556 3.05473 55.4607C3.25984 55.6658 3.53804 55.781 3.82812 55.781Z" fill="#151A6A"></path><path d="M27.5704 21.1015L25.3829 18.914C25.1774 18.7109 24.8998 18.5973 24.6109 18.5981C24.3219 18.599 24.045 18.7141 23.8407 18.9185C23.6364 19.1228 23.5212 19.3997 23.5204 19.6887C23.5196 19.9776 23.6332 20.2552 23.8363 20.4607L24.9509 21.5752L24.1204 21.9902C23.9654 22.0678 23.8311 22.181 23.7285 22.3207C23.6259 22.4603 23.558 22.6223 23.5302 22.7934C23.5025 22.9644 23.5158 23.1396 23.569 23.3045C23.6222 23.4694 23.7138 23.6193 23.8363 23.7419L26.0238 25.9294C26.1251 26.0319 26.2457 26.1134 26.3787 26.1691C26.5116 26.2248 26.6542 26.2537 26.7984 26.2541C26.9425 26.2545 27.0853 26.2265 27.2186 26.1715C27.3518 26.1165 27.4729 26.0357 27.5748 25.9338C27.6767 25.8319 27.7575 25.7108 27.8125 25.5776C27.8674 25.4443 27.8955 25.3015 27.8951 25.1574C27.8947 25.0132 27.8658 24.8706 27.8101 24.7377C27.7543 24.6047 27.6729 24.4841 27.5704 24.3828L26.4559 23.2683L27.2863 22.8533C27.4413 22.7757 27.5756 22.6624 27.6782 22.5228C27.7808 22.3832 27.8487 22.2211 27.8765 22.0501C27.9042 21.879 27.8909 21.7039 27.8377 21.5389C27.7845 21.374 27.6929 21.2241 27.5704 21.1015Z" fill="#151A6A"></path></svg>