<svg xmlns="http://www.w3.org/2000/svg" width="70" height="70" viewBox="0 0 70 70" fill="none"><path d="M66.6005 31.5137C65.2979 28.9369 63.3045 26.7741 60.843 25.265C58.3815 23.7558 55.5489 22.9608 52.6616 22.9688C50.9855 22.9635 49.3258 23.2978 47.7824 23.9516C46.2391 24.6053 44.8442 25.5648 43.6819 26.7724C42.5196 25.5648 41.1247 24.6053 39.5814 23.9516C38.038 23.2979 36.3783 22.9636 34.7023 22.9688C31.8151 22.9608 28.9826 23.7557 26.5211 25.2647C24.0596 26.7736 22.0662 28.9372 20.7634 31.5137C19.3387 34.3002 18.5536 37.3694 18.4654 40.4977C18.3772 43.626 18.988 46.7346 20.2534 49.5969L25.3232 61.1187C26.3425 63.4344 28.0134 65.4037 30.1323 66.7864C32.2511 68.1692 34.7265 68.9057 37.2567 68.9063C38.4704 68.9025 39.6698 68.6432 40.7768 68.1455C41.8838 67.6477 42.8736 66.9225 43.6819 66.0171C44.4903 66.9225 45.4801 67.6477 46.5871 68.1455C47.6941 68.6432 48.8934 68.9025 50.1072 68.9063C52.6373 68.9057 55.1127 68.1692 57.2316 66.7864C59.3505 65.4037 61.0214 63.4344 62.0407 61.1187L67.1105 49.5969C68.3759 46.7346 68.9867 43.626 68.8984 40.4977C68.8102 37.3694 68.0251 34.3002 66.6005 31.5137ZM61.1013 34.6647C59.2604 38.5836 58.5613 43.3014 58.9629 49.0885L59.2219 52.8194C59.287 53.7707 59.1536 54.7252 58.83 55.6221C58.5065 56.5191 58 57.339 57.3426 58.0297C56.6321 58.7579 55.7726 59.324 54.823 59.6893C53.8734 60.0545 52.8561 60.2103 51.8407 60.1458C50.8253 60.0814 49.8358 59.7984 48.94 59.3161C48.0441 58.8338 47.2631 58.1636 46.6502 57.3514C46.0256 56.3922 45.6394 55.2976 45.524 54.1588C45.4085 53.0199 45.567 51.87 45.9864 50.805L48.0425 45.0019C48.1162 44.7945 48.1391 44.5724 48.1091 44.3543C48.079 44.1362 47.9971 43.9286 47.87 43.7488C47.743 43.569 47.5746 43.4224 47.379 43.3213C47.1835 43.2202 46.9665 43.1676 46.7464 43.1679H40.6175C40.3974 43.1676 40.1804 43.2203 39.9848 43.3214C39.7893 43.4224 39.6209 43.569 39.4939 43.7488C39.3668 43.9286 39.2848 44.1362 39.2548 44.3543C39.2248 44.5724 39.2476 44.7945 39.3213 45.0019L41.448 51.0058C41.8472 52.1174 41.9503 53.3139 41.7469 54.4775C41.5435 55.6411 41.0407 56.7316 40.288 57.642C35.9128 62.9806 27.701 59.1589 28.1579 52.5856L28.4725 48.0578C28.7886 43.4364 28.0125 38.8055 26.207 34.5397C25.8687 33.7431 25.8285 32.8513 26.094 32.0276C26.3594 31.2039 26.9127 30.5033 27.6524 30.0541C28.3922 29.6049 29.269 29.4372 30.1223 29.5817C30.9756 29.7262 31.7483 30.1732 32.299 30.8408C33.6267 32.6103 35.4439 33.952 37.5258 34.6999C41.5306 35.9779 45.8338 35.9779 49.8385 34.6999C51.9203 33.9518 53.7372 32.6102 55.0648 30.8408C55.6307 30.1509 56.4332 29.6965 57.3159 29.5661C58.1986 29.4358 59.0982 29.6389 59.8393 30.1359C60.5606 30.6115 61.086 31.3319 61.3179 32.1643C61.5497 32.9966 61.4728 33.8846 61.1013 34.6647Z" fill="#B5E7F3"></path><path d="M58.6261 31.9558C58.335 31.7618 57.9823 31.6825 57.6361 31.7334C57.29 31.7844 56.975 31.9618 56.7521 32.2315C55.1608 34.3305 52.9864 35.9142 50.5004 36.7848C46.0652 38.2012 41.299 38.2012 36.8638 36.7848C34.3774 35.9145 32.2025 34.3307 30.611 32.2315C30.3946 31.9696 30.0912 31.7944 29.7561 31.7379C29.4211 31.6815 29.077 31.7475 28.7867 31.924C28.4964 32.1005 28.2794 32.3756 28.1754 32.699C28.0713 33.0224 28.0872 33.3725 28.2201 33.6852C30.16 38.2685 30.9939 43.244 30.6543 48.2094L30.3398 52.7371C30.0304 57.1937 35.5717 59.9424 38.5963 56.2554C39.1087 55.6354 39.451 54.8927 39.5894 54.1004C39.7278 53.308 39.6576 52.4933 39.3856 51.7363L37.2595 45.7324C37.0695 45.195 37.0111 44.6199 37.0893 44.0553C37.1675 43.4907 37.38 42.9531 37.7089 42.4876C38.0378 42.0221 38.4735 41.6423 38.9796 41.38C39.4856 41.1178 40.0472 40.9807 40.6172 40.9803H46.746C47.316 40.9808 47.8775 41.1179 48.3835 41.3802C48.8896 41.6424 49.3253 42.0222 49.6543 42.4877C49.9832 42.9532 50.1957 43.4907 50.274 44.0553C50.3523 44.6199 50.294 45.195 50.1041 45.7324L48.048 51.5354C47.747 52.2749 47.6264 53.0755 47.6962 53.8708C47.7661 54.6661 48.0243 55.4334 48.4496 56.1091C48.8767 56.6549 49.4153 57.1032 50.0295 57.4241C50.6437 57.745 51.3194 57.9311 52.0113 57.9699C52.7032 58.0088 53.3954 57.8994 54.0417 57.6493C54.6879 57.3991 55.2733 57.0138 55.7588 56.5193C56.2066 56.049 56.5517 55.4907 56.7722 54.8798C56.9927 54.2689 57.0837 53.6189 57.0394 52.971L56.7804 49.2401C56.3521 43.0717 57.1174 37.9992 59.1206 33.7353C59.2668 33.4289 59.2972 33.0801 59.2063 32.753C59.1154 32.426 58.9094 32.1429 58.6261 31.9558Z" fill="#B5E7F3"></path><path d="M24.0625 21.3281C24.0625 21.1845 24.0343 21.0422 23.9793 20.9095C23.9244 20.7768 23.8438 20.6562 23.7422 20.5546C23.6407 20.4531 23.5201 20.3725 23.3874 20.3176C23.2546 20.2626 23.1124 20.2343 22.9688 20.2344C22.3886 20.2344 21.8322 20.0039 21.422 19.5937C21.0117 19.1834 20.7812 18.627 20.7812 18.0469C20.7812 17.4667 21.0117 16.9103 21.422 16.5001C21.8322 16.0898 22.3886 15.8594 22.9688 15.8594C23.2588 15.8594 23.537 15.7441 23.7421 15.539C23.9473 15.3339 24.0625 15.0557 24.0625 14.7656C24.0625 14.4755 23.9473 14.1973 23.7421 13.9922C23.537 13.7871 23.2588 13.6719 22.9688 13.6719C21.8084 13.6719 20.6956 14.1328 19.8752 14.9533C19.0547 15.7738 18.5938 16.8866 18.5938 18.0469C18.5938 19.2072 19.0547 20.32 19.8752 21.1405C20.6956 21.9609 21.8084 22.4219 22.9688 22.4219C23.1124 22.4219 23.2546 22.3936 23.3874 22.3387C23.5201 22.2837 23.6407 22.2032 23.7422 22.1016C23.8438 22 23.9244 21.8794 23.9793 21.7467C24.0343 21.614 24.0625 21.4718 24.0625 21.3281Z" fill="#151A6A"></path><path d="M22.9688 41.0156C23.2588 41.0156 23.537 40.9004 23.7421 40.6953C23.9473 40.4902 24.0625 40.212 24.0625 39.9219C24.0625 39.6318 23.9473 39.3536 23.7421 39.1485C23.537 38.9434 23.2588 38.8281 22.9688 38.8281C21.8084 38.8281 20.6956 39.2891 19.8752 40.1095C19.0547 40.93 18.5938 42.0428 18.5938 43.2031C18.5938 44.3634 19.0547 45.4762 19.8752 46.2967C20.6956 47.1172 21.8084 47.5781 22.9688 47.5781C23.2588 47.5781 23.537 47.4629 23.7421 47.2578C23.9473 47.0527 24.0625 46.7745 24.0625 46.4844C24.0625 46.1943 23.9473 45.9161 23.7421 45.711C23.537 45.5059 23.2588 45.3906 22.9688 45.3906C22.3886 45.3906 21.8322 45.1602 21.422 44.7499C21.0117 44.3397 20.7812 43.7833 20.7812 43.2031C20.7812 42.623 21.0117 42.0666 21.422 41.6563C21.8322 41.2461 22.3886 41.0156 22.9688 41.0156Z" fill="#151A6A"></path><path d="M40.4688 34.0441H39.375V31.5543C39.3751 31.1711 39.2745 30.7946 39.0833 30.4625C38.8922 30.1304 38.6171 29.8544 38.2857 29.6621C37.9542 29.4698 37.5781 29.3679 37.1949 29.3667C36.8117 29.3655 36.4349 29.4649 36.1023 29.6551L36.0938 29.6597V24.4536C36.6584 24.1763 37.2168 23.8822 37.7664 23.5669C38.2586 23.2787 38.6663 22.8662 38.9486 22.3707C39.231 21.8752 39.378 21.3142 39.375 20.7439V17.6378H40.4688C41.06 17.6383 41.6452 17.5188 42.1889 17.2867C42.7326 17.0545 43.2236 16.7145 43.6322 16.2871C44.0407 15.8598 44.3584 15.354 44.5659 14.8004C44.7734 14.2468 44.8665 13.6569 44.8395 13.0663C44.7488 11.9177 44.2245 10.8468 43.373 10.0707C42.5215 9.29468 41.4066 8.87176 40.2546 8.88781H39.375V6.39801C39.3753 6.01442 39.2747 5.63749 39.0833 5.30507C38.8919 4.97264 38.6164 4.69641 38.2845 4.50411C37.9526 4.3118 37.5759 4.21019 37.1923 4.20946C36.8087 4.20873 36.4317 4.30892 36.0991 4.49997L36.0937 4.50277V2.1875C36.0937 1.89742 35.9785 1.61922 35.7734 1.4141C35.5682 1.20898 35.2901 1.09375 35 1.09375C34.7099 1.09375 34.4317 1.20898 34.2266 1.4141C34.0215 1.61922 33.9062 1.89742 33.9062 2.1875V5.60413C30.4692 7.15711 26.7405 7.95936 22.9689 7.95739C19.1973 7.95938 15.4686 7.15712 12.0316 5.60413V2.1875C12.0316 1.89742 11.9163 1.61922 11.7112 1.4141C11.5061 1.20898 11.2279 1.09375 10.9378 1.09375C10.6477 1.09375 10.3695 1.20898 10.1644 1.4141C9.9593 1.61922 9.84407 1.89742 9.84407 2.1875V4.50277L9.83869 4.49997C9.50606 4.30892 9.12902 4.20873 8.74543 4.20946C8.36184 4.21019 7.98518 4.3118 7.65327 4.50411C7.32137 4.69641 7.04588 4.97264 6.85447 5.30507C6.66306 5.63749 6.56247 6.01442 6.56278 6.39801V8.88781H5.68318C4.53121 8.87177 3.4163 9.2947 2.56478 10.0707C1.71327 10.8468 1.18897 11.9177 1.09831 13.0663C1.07131 13.6569 1.16437 14.2468 1.37188 14.8004C1.5794 15.354 1.89704 15.8598 2.3056 16.2871C2.71417 16.7145 3.20516 17.0545 3.7489 17.2867C4.29263 17.5188 4.8778 17.6383 5.46903 17.6378H6.56278V20.7439C6.55978 21.3142 6.70683 21.8752 6.98917 22.3707C7.27151 22.8662 7.67921 23.2788 8.17135 23.5669C8.72097 23.8822 9.2794 24.1763 9.84403 24.4536V29.6597L9.83548 29.6552C9.50284 29.465 9.12607 29.3655 8.74289 29.3668C8.35972 29.368 7.98359 29.4699 7.65218 29.6622C7.32076 29.8545 7.04568 30.1305 6.85449 30.4626C6.6633 30.7946 6.5627 31.1711 6.56278 31.5543V34.0441H5.46903C4.3087 34.0441 3.19591 34.505 2.37543 35.3255C1.55496 36.1459 1.09403 37.2587 1.09403 38.4191C1.09403 39.5794 1.55496 40.6922 2.37543 41.5127C3.19591 42.3331 4.3087 42.7941 5.46903 42.7941H6.56278V45.9001C6.56362 46.4784 6.71692 47.0462 7.00721 47.5464C7.2975 48.0465 7.71452 48.4612 8.21622 48.7488C8.75106 49.0544 9.29481 49.3386 9.84403 49.6083V54.6875C9.84403 54.9776 9.95926 55.2558 10.1644 55.4609C10.3695 55.666 10.6477 55.7812 10.9378 55.7812C11.2279 55.7812 11.5061 55.666 11.7112 55.4609C11.9163 55.2558 12.0315 54.9776 12.0315 54.6875V50.5687C15.5146 51.9417 19.2249 52.6473 22.9688 52.6485C26.7128 52.6473 30.4232 51.9417 33.9062 50.5687V54.6875C33.9062 54.9776 34.0215 55.2558 34.2266 55.4609C34.4317 55.666 34.7099 55.7812 35 55.7812C35.2901 55.7812 35.5683 55.666 35.7734 55.4609C35.9785 55.2558 36.0937 54.9776 36.0937 54.6875V49.6083C36.6429 49.3386 37.1867 49.0544 37.7215 48.7488C38.2232 48.4612 38.6403 48.0465 38.9306 47.5463C39.2208 47.0462 39.3741 46.4784 39.375 45.9001V42.7941H40.4687C41.6291 42.7941 42.7419 42.3331 43.5623 41.5127C44.3828 40.6922 44.8437 39.5794 44.8437 38.4191C44.8437 37.2587 44.3828 36.1459 43.5623 35.3255C42.7419 34.505 41.6291 34.0441 40.4688 34.0441ZM9.26084 21.6699C9.10205 21.5738 8.9713 21.4377 8.88169 21.2752C8.79208 21.1127 8.74676 20.9294 8.75028 20.7439V16.5441C8.75032 16.4004 8.72205 16.2582 8.6671 16.1255C8.61215 15.9927 8.53158 15.8721 8.43001 15.7706C8.32844 15.669 8.20785 15.5884 8.07513 15.5335C7.94241 15.4785 7.80017 15.4503 7.65653 15.4503H5.46903C5.17324 15.4505 4.88048 15.3907 4.60849 15.2745C4.33649 15.1583 4.0909 14.9881 3.8866 14.7742C3.6823 14.5603 3.52353 14.3071 3.4199 14.0301C3.31627 13.7531 3.26994 13.4579 3.28371 13.1624C3.34489 12.5753 3.62664 12.0333 4.07203 11.6459C4.51742 11.2585 5.09325 11.0545 5.68318 11.0753H7.65653C7.80017 11.0754 7.94241 11.0471 8.07513 10.9921C8.20785 10.9372 8.32844 10.8566 8.43001 10.755C8.53158 10.6535 8.61214 10.5329 8.6671 10.4002C8.72205 10.2675 8.75031 10.1252 8.75028 9.98156L8.75402 6.39908C13.0855 8.86438 17.9849 10.1576 22.9688 10.1511C27.9527 10.1576 32.8523 8.86437 37.1838 6.39907L37.1875 9.98156C37.1875 10.1252 37.2157 10.2675 37.2707 10.4002C37.3256 10.5329 37.4062 10.6535 37.5078 10.755C37.6094 10.8566 37.7299 10.9372 37.8627 10.9921C37.9954 11.0471 38.1376 11.0754 38.2813 11.0753H40.2546C40.8445 11.0545 41.4203 11.2584 41.8657 11.6458C42.3111 12.0332 42.5929 12.5753 42.6541 13.1624C42.6679 13.4579 42.6215 13.7531 42.5179 14.0301C42.4143 14.3071 42.2555 14.5603 42.0512 14.7742C41.8469 14.9881 41.6013 15.1583 41.3293 15.2745C41.0573 15.3907 40.7645 15.4505 40.4688 15.4503H38.2813C38.1376 15.4503 37.9954 15.4785 37.8627 15.5335C37.7299 15.5884 37.6094 15.669 37.5078 15.7706C37.4062 15.8721 37.3256 15.9927 37.2707 16.1255C37.2157 16.2582 37.1875 16.4004 37.1875 16.5441V20.7439C37.191 20.9294 37.1457 21.1127 37.0561 21.2752C36.9665 21.4377 36.8357 21.5739 36.6769 21.6699C32.5035 24.0582 27.7775 25.3124 22.9689 25.3077C18.1604 25.3124 13.4344 24.0582 9.26084 21.6699ZM22.9689 33.1127C19.1974 33.1147 15.4688 32.3128 12.0316 30.7605V25.4121C15.5143 26.7863 19.2245 27.4927 22.9685 27.4944C26.7126 27.4927 30.4236 26.7863 33.9063 25.4121V30.7605C30.4691 32.3128 26.7404 33.1147 22.9689 33.1127ZM40.4688 40.6066H38.2813C38.1376 40.6065 37.9954 40.6348 37.8627 40.6897C37.7299 40.7447 37.6094 40.8253 37.5078 40.9268C37.4062 41.0284 37.3256 41.149 37.2707 41.2817C37.2157 41.4144 37.1875 41.5567 37.1875 41.7003V45.9001C37.1871 46.0929 37.1359 46.2822 37.0391 46.4489C36.9422 46.6156 36.8031 46.7539 36.6358 46.8497C32.4701 49.2176 27.7606 50.4626 22.9689 50.4626C18.1772 50.4626 13.4677 49.2176 9.30192 46.8497C9.13463 46.7539 8.99554 46.6156 8.89869 46.4489C8.80184 46.2822 8.75064 46.0929 8.75024 45.9001V41.7003C8.75028 41.5567 8.72202 41.4144 8.66707 41.2817C8.61211 41.149 8.53155 41.0284 8.42998 40.9268C8.32841 40.8253 8.20782 40.7447 8.0751 40.6897C7.94238 40.6348 7.80014 40.6065 7.65649 40.6066H5.46899C4.88883 40.6066 4.33243 40.3761 3.9222 39.9659C3.51196 39.5556 3.28149 38.9992 3.28149 38.4191C3.28149 37.8389 3.51196 37.2825 3.9222 36.8723C4.33243 36.462 4.88883 36.2316 5.46899 36.2316H7.65649C7.80014 36.2316 7.94238 36.2033 8.0751 36.1484C8.20781 36.0934 8.3284 36.0129 8.42998 35.9113C8.53155 35.8097 8.61211 35.6891 8.66706 35.5564C8.72202 35.4237 8.75028 35.2815 8.75024 35.1378V31.5543C13.0821 34.0227 17.983 35.3183 22.9688 35.313C27.9546 35.3183 32.8556 34.0227 37.1875 31.5543V35.1378C37.1875 35.2815 37.2157 35.4237 37.2707 35.5564C37.3256 35.6891 37.4062 35.8097 37.5078 35.9113C37.6093 36.0129 37.7299 36.0934 37.8626 36.1484C37.9954 36.2033 38.1376 36.2316 38.2812 36.2316H40.4687C41.0489 36.2316 41.6053 36.462 42.0155 36.8723C42.4258 37.2825 42.6562 37.8389 42.6562 38.4191C42.6562 38.9992 42.4258 39.5556 42.0155 39.9659C41.6053 40.3761 41.0489 40.6066 40.4688 40.6066Z" fill="#151A6A"></path></svg>