<svg xmlns="http://www.w3.org/2000/svg" id="Capa_1" x="0px" y="0px" viewBox="0 0 140 140">
<style type="text/css">
.st0{fill:none;stroke:#5FBCD3;stroke-width:2;}
.st1{fill:#B5E7F3;}
.st2{fill:#151A6A;}
</style>
<circle class="st0" cx="70" cy="70" r="69"/>
<g transform="translate(35,35) scale(1)">
<svg xmlns="http://www.w3.org/2000/svg" width="70" height="70" viewBox="0 0 70 70" fill="none"><path d="M26.25 38.2812C32.8947 38.2812 38.2812 34.8534 38.2812 30.625C38.2812 26.3966 32.8947 22.9688 26.25 22.9688C19.6053 22.9688 14.2188 26.3966 14.2188 30.625C14.2188 34.8534 19.6053 38.2812 26.25 38.2812Z" fill="#B5E7F3"></path><path d="M26.25 40.4687C21.0572 40.4687 16.6925 38.7266 14.2188 36.0029V61.2499C14.2188 65.5427 19.5032 68.9062 26.25 68.9062C32.9968 68.9062 38.2812 65.5427 38.2812 61.2499V36.0029C35.8075 38.7266 31.4428 40.4687 26.25 40.4687ZM32.0776 60.311C28.2933 61.5625 24.2067 61.5625 20.4224 60.311C20.2864 60.2642 20.161 60.1909 20.0534 60.0955C19.9458 60.0001 19.8581 59.8844 19.7953 59.7551C19.7324 59.6257 19.6958 59.4852 19.6873 59.3417C19.6788 59.1981 19.6988 59.0543 19.746 58.9184C19.7932 58.7826 19.8667 58.6574 19.9624 58.55C20.058 58.4426 20.1739 58.3552 20.3034 58.2926C20.4329 58.2301 20.5735 58.1938 20.7171 58.1856C20.8606 58.1775 21.0044 58.1978 21.1401 58.2453C24.463 59.3134 28.037 59.3134 31.3599 58.2453C31.4956 58.1978 31.6394 58.1775 31.7829 58.1856C31.9265 58.1938 32.0671 58.2301 32.1966 58.2926C32.3261 58.3552 32.442 58.4426 32.5377 58.55C32.6333 58.6574 32.7068 58.7826 32.754 58.9184C32.8012 59.0543 32.8212 59.1981 32.8127 59.3417C32.8043 59.4852 32.7676 59.6257 32.7047 59.7551C32.6419 59.8844 32.5542 60.0001 32.4466 60.0955C32.339 60.1909 32.2136 60.2642 32.0776 60.311ZM32.0776 52.6548C28.2933 53.9063 24.2067 53.9063 20.4224 52.6548C20.2864 52.6079 20.161 52.5347 20.0534 52.4393C19.9458 52.3439 19.8581 52.2282 19.7953 52.0988C19.7324 51.9694 19.6958 51.829 19.6873 51.6854C19.6788 51.5418 19.6988 51.398 19.746 51.2622C19.7932 51.1263 19.8667 51.0011 19.9624 50.8938C20.058 50.7864 20.1739 50.6989 20.3034 50.6364C20.4329 50.5739 20.5735 50.5375 20.7171 50.5294C20.8606 50.5213 21.0044 50.5415 21.1401 50.589C24.463 51.6572 28.037 51.6572 31.3599 50.589C31.4956 50.5415 31.6394 50.5213 31.7829 50.5294C31.9265 50.5375 32.0671 50.5739 32.1966 50.6364C32.3261 50.6989 32.442 50.7864 32.5377 50.8938C32.6333 51.0011 32.7068 51.1263 32.754 51.2622C32.8012 51.398 32.8212 51.5418 32.8127 51.6854C32.8043 51.829 32.7676 51.9694 32.7047 52.0988C32.6419 52.2282 32.5542 52.3439 32.4466 52.4393C32.339 52.5347 32.2136 52.6079 32.0776 52.6548ZM32.0776 44.9985C28.2933 46.25 24.2067 46.25 20.4224 44.9985C20.2864 44.9517 20.161 44.8784 20.0534 44.783C19.9458 44.6876 19.8581 44.5719 19.7953 44.4426C19.7324 44.3132 19.6958 44.1727 19.6873 44.0292C19.6788 43.8856 19.6988 43.7418 19.746 43.6059C19.7932 43.4701 19.8667 43.3449 19.9624 43.2375C20.058 43.1301 20.1739 43.0427 20.3034 42.9801C20.4329 42.9176 20.5735 42.8813 20.7171 42.8731C20.8606 42.865 21.0044 42.8853 21.1401 42.9328C24.463 44.0009 28.037 44.0009 31.3599 42.9328C31.4956 42.8853 31.6394 42.865 31.7829 42.8731C31.9265 42.8813 32.0671 42.9176 32.1966 42.9801C32.3261 43.0427 32.442 43.1301 32.5377 43.2375C32.6333 43.3449 32.7068 43.4701 32.754 43.6059C32.8012 43.7418 32.8212 43.8856 32.8127 44.0292C32.8043 44.1727 32.7676 44.3132 32.7047 44.4426C32.6419 44.5719 32.5542 44.6876 32.4466 44.783C32.339 44.8784 32.2136 44.9517 32.0776 44.9985Z" fill="#B5E7F3"></path><path d="M65.625 29.5312H40.4688V62.3438H65.625C66.4949 62.3428 67.329 61.9968 67.9441 61.3816C68.5593 60.7665 68.9053 59.9324 68.9062 59.0625V32.8125C68.9053 31.9425 68.5593 31.1085 67.9441 30.4934C67.329 29.8782 66.4949 29.5322 65.625 29.5312ZM55.7812 59.0625H43.75C43.4599 59.0625 43.1817 58.9473 42.9766 58.7421C42.7715 58.537 42.6562 58.2588 42.6562 57.9688C42.6562 57.6787 42.7715 57.4005 42.9766 57.1954C43.1817 56.9902 43.4599 56.875 43.75 56.875H55.7812C56.0713 56.875 56.3495 56.9902 56.5546 57.1954C56.7598 57.4005 56.875 57.6787 56.875 57.9688C56.875 58.2588 56.7598 58.537 56.5546 58.7421C56.3495 58.9473 56.0713 59.0625 55.7812 59.0625ZM55.7812 50.3125H43.75C43.4599 50.3125 43.1817 50.1973 42.9766 49.9921C42.7715 49.787 42.6562 49.5088 42.6562 49.2188C42.6562 48.9287 42.7715 48.6505 42.9766 48.4454C43.1817 48.2402 43.4599 48.125 43.75 48.125H55.7812C56.0713 48.125 56.3495 48.2402 56.5546 48.4454C56.7598 48.6505 56.875 48.9287 56.875 49.2188C56.875 49.5088 56.7598 49.787 56.5546 49.9921C56.3495 50.1973 56.0713 50.3125 55.7812 50.3125ZM55.7812 44.8438H43.75C43.4599 44.8438 43.1817 44.7285 42.9766 44.5234C42.7715 44.3183 42.6562 44.0401 42.6562 43.75C42.6562 43.4599 42.7715 43.1817 42.9766 42.9766C43.1817 42.7715 43.4599 42.6562 43.75 42.6562H55.7812C56.0713 42.6562 56.3495 42.7715 56.5546 42.9766C56.7598 43.1817 56.875 43.4599 56.875 43.75C56.875 44.0401 56.7598 44.3183 56.5546 44.5234C56.3495 44.7285 56.0713 44.8438 55.7812 44.8438ZM55.7812 36.0938H43.75C43.4599 36.0938 43.1817 35.9785 42.9766 35.7734C42.7715 35.5683 42.6562 35.2901 42.6562 35C42.6562 34.7099 42.7715 34.4317 42.9766 34.2266C43.1817 34.0215 43.4599 33.9062 43.75 33.9062H55.7812C56.0713 33.9062 56.3495 34.0215 56.5546 34.2266C56.7598 34.4317 56.875 34.7099 56.875 35C56.875 35.2901 56.7598 35.5683 56.5546 35.7734C56.3495 35.9785 56.0713 36.0938 55.7812 36.0938ZM65.625 57.9688C65.6251 58.1124 65.5968 58.2547 65.5419 58.3874C65.487 58.5201 65.4064 58.6408 65.3048 58.7423C65.2033 58.8439 65.0826 58.9245 64.9499 58.9794C64.8172 59.0343 64.6749 59.0626 64.5312 59.0625H60.1562C60.0126 59.0626 59.8703 59.0343 59.7376 58.9794C59.6049 58.9245 59.4842 58.8439 59.3827 58.7423C59.2811 58.6408 59.2005 58.5201 59.1456 58.3874C59.0907 58.2547 59.0624 58.1124 59.0625 57.9688V49.2188C59.0624 49.0751 59.0907 48.9328 59.1456 48.8001C59.2005 48.6674 59.2811 48.5467 59.3827 48.4452C59.4842 48.3436 59.6049 48.263 59.7376 48.2081C59.8703 48.1532 60.0126 48.1249 60.1562 48.125H64.5312C64.6749 48.1249 64.8172 48.1532 64.9499 48.2081C65.0826 48.263 65.2033 48.3436 65.3048 48.4452C65.4064 48.5467 65.487 48.6674 65.5419 48.8001C65.5968 48.9328 65.6251 49.0751 65.625 49.2188V57.9688ZM65.625 43.75C65.6251 43.8937 65.5968 44.0359 65.5419 44.1687C65.487 44.3014 65.4064 44.422 65.3048 44.5236C65.2033 44.6252 65.0826 44.7057 64.9499 44.7607C64.8172 44.8156 64.6749 44.8438 64.5312 44.8438H60.1562C60.0126 44.8438 59.8703 44.8156 59.7376 44.7607C59.6049 44.7057 59.4842 44.6252 59.3827 44.5236C59.2811 44.422 59.2005 44.3014 59.1456 44.1687C59.0907 44.0359 59.0624 43.8937 59.0625 43.75V35C59.0624 34.8563 59.0907 34.7141 59.1456 34.5813C59.2005 34.4486 59.2811 34.328 59.3827 34.2264C59.4842 34.1248 59.6049 34.0443 59.7376 33.9893C59.8703 33.9344 60.0126 33.9062 60.1562 33.9062H64.5312C64.6749 33.9062 64.8172 33.9344 64.9499 33.9893C65.0826 34.0443 65.2033 34.1248 65.3048 34.2264C65.4064 34.328 65.487 34.4486 65.5419 34.5813C65.5968 34.7141 65.6251 34.8563 65.625 35V43.75Z" fill="#B5E7F3"></path><path d="M55.7814 32.7569C55.7815 31.3052 55.2057 29.9129 54.1805 28.8852C53.1553 27.8575 51.7643 27.2784 50.3127 27.2749H45.9097C46.5284 26.4656 46.9082 25.4993 47.0062 24.4853C47.1041 23.4713 46.9163 22.4502 46.4639 21.5374C46.0116 20.6246 45.3127 19.8567 44.4465 19.3206C43.5803 18.7844 42.5814 18.5015 41.5627 18.5037H30.7731L35.687 12.5934C36.3509 11.794 36.8364 10.862 37.1109 9.85979C37.3854 8.85757 37.4427 7.80826 37.2788 6.78213C37.1149 5.75599 36.7337 4.77671 36.1606 3.90985C35.5876 3.043 34.836 2.30857 33.9561 1.75574C32.993 1.15636 31.8343 0.95594 30.7258 1.19704C29.6174 1.43813 28.6466 2.10176 28.0195 3.04701C23.5787 9.52594 17.6315 14.83 10.6888 18.5037H2.18767C1.89749 18.5046 1.6195 18.6205 1.41463 18.826C1.20977 19.0315 1.09473 19.3099 1.09473 19.6001C1.09473 19.8903 1.20977 20.1686 1.41463 20.3741C1.6195 20.5797 1.89749 20.6956 2.18767 20.6965H7.75736L10.7005 51.1826C10.0897 50.5587 9.36105 50.0624 8.55683 49.7225C7.75261 49.3827 6.88887 49.206 6.0158 49.2029H2.18767C1.89749 49.2038 1.6195 49.3197 1.41463 49.5252C1.20977 49.7307 1.09473 50.0091 1.09473 50.2993C1.09473 50.5895 1.20977 50.8678 1.41463 51.0733C1.6195 51.2789 1.89749 51.3948 2.18767 51.3957H6.0158C6.69517 51.3977 7.36482 51.5573 7.97215 51.8618C8.57947 52.1662 9.10793 52.6074 9.51602 53.1506C10.1282 53.965 10.9209 54.6264 11.8317 55.0829C12.7426 55.5393 13.7469 55.7784 14.7658 55.7813H39.3752C40.3939 55.7835 41.3928 55.5005 42.259 54.9644C43.1252 54.4282 43.8241 53.6603 44.2764 52.7476C44.7288 51.8348 44.9166 50.8137 44.8187 49.7997C44.7207 48.7857 44.3409 47.8194 43.7222 47.0101H47.0314C48.0612 47.013 49.0707 46.7243 49.9432 46.1775C50.8157 45.6306 51.5155 44.8478 51.9617 43.9198C52.4079 42.9917 52.5822 41.9563 52.4645 40.9333C52.3467 39.9103 51.9418 38.9416 51.2964 38.1392C52.5548 37.9069 53.6923 37.2415 54.5115 36.2584C55.3307 35.2754 55.78 34.0366 55.7814 32.7569ZM27.0922 53.5884L18.9163 22.627L28.5455 20.6965H29.5314V53.5885L27.0922 53.5884ZM27.8443 18.601L18.3555 20.5034C17.7785 18.3781 17.545 17.3248 17.3868 16.9697C19.1184 15.7313 20.7717 14.3868 22.337 12.9439L34.6855 10.0873C34.5073 10.4819 34.2792 10.8521 34.0067 11.1886L27.8443 18.601ZM29.8278 4.28046C30.1392 3.80536 30.6233 3.47014 31.1776 3.34583C31.7318 3.22151 32.3127 3.31787 32.7972 3.61448C33.5007 4.05045 34.0843 4.65499 34.4953 5.37338C34.9063 6.09177 35.1316 6.90131 35.1508 7.72872L25.2709 10.0142C26.9299 8.2185 28.453 6.30197 29.8278 4.28046ZM13.0951 53.227L9.95467 20.6965H10.9377C11.094 20.6966 11.2484 20.663 11.3905 20.598C12.8114 19.912 14.1844 19.131 15.5002 18.2604L24.8291 53.5885H14.7658C14.1904 53.5801 13.6225 53.4572 13.0951 53.227ZM50.3127 36.0461H36.0939C35.8031 36.0461 35.5243 36.1616 35.3187 36.3672C35.113 36.5728 34.9975 36.8517 34.9975 37.1425C34.9975 37.4333 35.113 37.7121 35.3187 37.9178C35.5243 38.1234 35.8031 38.2389 36.0939 38.2389H47.0314C47.9023 38.2411 48.7367 38.5887 49.3518 39.2053C49.9668 39.8219 50.3121 40.6572 50.3121 41.5281C50.3121 42.399 49.9668 43.2343 49.3518 43.8509C48.7367 44.4675 47.9023 44.815 47.0314 44.8173H35.0002C34.71 44.8182 34.432 44.9341 34.2271 45.1396C34.0223 45.3451 33.9072 45.6235 33.9072 45.9137C33.9072 46.2039 34.0223 46.4822 34.2271 46.6877C34.432 46.8933 34.71 47.0092 35.0002 47.0101H39.3752C40.2465 47.0117 41.0816 47.3589 41.6971 47.9756C42.3127 48.5923 42.6584 49.428 42.6584 50.2993C42.6584 51.1706 42.3127 52.0063 41.6971 52.623C41.0816 53.2397 40.2465 53.5869 39.3752 53.5885H31.7189V20.6965H41.5627C42.434 20.6981 43.2691 21.0453 43.8846 21.662C44.5002 22.2787 44.8459 23.1144 44.8459 23.9857C44.8459 24.857 44.5002 25.6927 43.8846 26.3094C43.2691 26.926 42.434 27.2733 41.5627 27.2749H37.1877C36.8975 27.2758 36.6195 27.3917 36.4146 27.5972C36.2098 27.8027 36.0947 28.0811 36.0947 28.3713C36.0947 28.6615 36.2098 28.9398 36.4146 29.1453C36.6195 29.3508 36.8975 29.4668 37.1877 29.4677H50.3127C51.1836 29.4699 52.018 29.8175 52.633 30.4341C53.248 31.0507 53.5934 31.886 53.5934 32.7569C53.5934 33.6278 53.248 34.4631 52.633 35.0797C52.018 35.6963 51.1836 36.0438 50.3127 36.0461Z" fill="#151A6A"></path></svg>
</g>
</svg>
