<svg xmlns="http://www.w3.org/2000/svg" id="Capa_1" x="0px" y="0px" viewBox="0 0 140 140">
<style type="text/css">
.st0{fill:none;stroke:#5FBCD3;stroke-width:2;}
.st1{fill:#B5E7F3;}
.st2{fill:#151A6A;}
</style>
<circle class="st0" cx="70" cy="70" r="69"/>
<g transform="translate(35,35) scale(1)">
<svg xmlns="http://www.w3.org/2000/svg" width="70" height="70" viewBox="0 0 70 70" fill="none"><path d="M31.1226 59.0865L34.2924 53.143C34.6523 52.4681 35.2376 51.9408 35.9462 51.6528C33.94 49.6714 32.5681 47.1383 32.0051 44.3753C31.4421 41.6123 31.7132 38.7443 32.7842 36.1359C33.8551 33.5274 35.6775 31.2962 38.0196 29.726C40.3617 28.1558 43.1177 27.3174 45.9375 27.3174C48.7573 27.3174 51.5133 28.1558 53.8554 29.726C56.1975 31.2962 58.0199 33.5274 59.0908 36.1359C60.1618 38.7443 60.4329 41.6123 59.8699 44.3753C59.3069 47.1383 57.9351 49.6714 55.9288 51.6528C56.6377 51.9411 57.2232 52.4688 57.5832 53.1441L60.7524 59.0865C64.3501 56.0498 66.9278 51.9809 68.1365 47.4308C69.3451 42.8806 69.1263 38.0689 67.5097 33.6472C65.8931 29.2255 62.9567 25.4073 59.0982 22.7098C55.2397 20.0122 50.6455 18.5654 45.9375 18.5654C41.2295 18.5654 36.6353 20.0122 32.7768 22.7098C28.9183 25.4073 25.9819 29.2255 24.3653 33.6472C22.7487 38.0689 22.5299 42.8806 23.7385 47.4308C24.9472 51.9809 27.5249 56.0498 31.1226 59.0865ZM62.6626 36.4163C62.6202 36.2791 62.6053 36.1348 62.6187 35.9918C62.6321 35.8488 62.6735 35.7098 62.7406 35.5828C62.8077 35.4558 62.8992 35.3433 63.0098 35.2516C63.1203 35.1599 63.2479 35.091 63.3852 35.0486C63.5224 35.0062 63.6667 34.9913 63.8097 35.0047C63.9527 35.0181 64.0917 35.0595 64.2187 35.1266C64.3457 35.1937 64.4582 35.2852 64.5499 35.3958C64.6416 35.5064 64.7105 35.6339 64.7529 35.7712C65.9157 39.5445 65.9157 43.5805 64.7529 47.3538C64.7105 47.4911 64.6416 47.6186 64.5499 47.7292C64.4582 47.8398 64.3457 47.9313 64.2187 47.9984C64.0917 48.0655 63.9527 48.1069 63.8097 48.1203C63.6667 48.1337 63.5224 48.1188 63.3852 48.0764C63.2479 48.034 63.1203 47.9651 63.0098 47.8734C62.8992 47.7818 62.8077 47.6692 62.7406 47.5422C62.6735 47.4152 62.6321 47.2762 62.6187 47.1332C62.6053 46.9902 62.6202 46.8459 62.6626 46.7087C63.6958 43.3557 63.6958 39.7693 62.6626 36.4163ZM40.1461 22.7477C43.9202 21.5898 47.9547 21.5898 51.7288 22.7477C51.8662 22.7898 51.994 22.8586 52.1049 22.9502C52.2157 23.0418 52.3074 23.1543 52.3746 23.2814C52.4419 23.4084 52.4835 23.5475 52.4969 23.6906C52.5104 23.8338 52.4955 23.9782 52.4531 24.1155C52.4106 24.2529 52.3416 24.3806 52.2497 24.4912C52.1579 24.6018 52.0452 24.6933 51.918 24.7603C51.7908 24.8273 51.6516 24.8685 51.5084 24.8817C51.3653 24.8948 51.2209 24.8796 51.0836 24.8369C47.7298 23.8094 44.1451 23.8094 40.7913 24.8369C40.654 24.8796 40.5096 24.8948 40.3665 24.8817C40.2233 24.8685 40.0841 24.8273 39.9569 24.7603C39.8297 24.6933 39.717 24.6018 39.6252 24.4912C39.5334 24.3806 39.4643 24.2529 39.4219 24.1155C39.3794 23.9782 39.3645 23.8338 39.378 23.6906C39.3914 23.5475 39.433 23.4084 39.5003 23.2814C39.5676 23.1543 39.6592 23.0418 39.7701 22.9502C39.8809 22.8586 40.0087 22.7898 40.1461 22.7477ZM29.2124 46.7087C29.2979 46.9859 29.2699 47.2857 29.1344 47.5422C28.9988 47.7987 28.767 47.9909 28.4898 48.0764C28.2126 48.162 27.9128 48.1339 27.6563 47.9984C27.3998 47.8629 27.2076 47.631 27.1221 47.3538C25.9593 43.5805 25.9593 39.5445 27.1221 35.7712C27.2076 35.494 27.3998 35.2622 27.6563 35.1266C27.9128 34.9911 28.2126 34.9631 28.4898 35.0486C28.767 35.1342 28.9988 35.3263 29.1344 35.5828C29.2699 35.8393 29.2979 36.1391 29.2124 36.4163C28.1792 39.7693 28.1792 43.3557 29.2124 46.7087Z" fill="#B5E7F3"></path><path d="M4.37719 29.5304H28.4415C29.3702 29.5282 30.283 29.289 31.0935 28.8353C31.9039 28.3817 32.5851 27.7286 33.0725 26.9381C33.9414 28.0793 35.1605 28.9043 36.5429 29.2867C37.9254 29.669 39.3951 29.5877 40.7269 29.0552C42.0588 28.5227 43.1794 27.5683 43.9171 26.3381C44.6548 25.108 44.969 23.67 44.8116 22.2443C44.6541 20.8186 44.0336 19.4838 43.0453 18.4443C42.0569 17.4049 40.755 16.718 39.339 16.489C37.9231 16.2599 36.4711 16.5013 35.2054 17.1762C33.9397 17.851 32.93 18.9221 32.3311 20.2255C31.8239 19.7084 31.2186 19.2976 30.5508 19.0172C29.8829 18.7368 29.1658 18.5924 28.4415 18.5924C23.2523 18.5903 18.0969 19.4272 13.1748 21.0705L7.87714 22.8351L4.64959 20.2534C4.3277 19.9962 3.93974 19.8352 3.53036 19.7887C3.12099 19.7423 2.70682 19.8124 2.33552 19.991C1.96422 20.1695 1.65087 20.4493 1.43154 20.7981C1.21221 21.1468 1.0958 21.5504 1.0957 21.9624V26.249C1.09666 27.119 1.4427 27.9531 2.0579 28.5683C2.67309 29.1834 3.50719 29.5295 4.37719 29.5304ZM38.286 18.5924C39.1513 18.5924 39.9972 18.849 40.7167 19.3298C41.4361 19.8106 41.9969 20.4939 42.328 21.2934C42.6592 22.0928 42.7458 22.9725 42.577 23.8212C42.4081 24.6699 41.9914 25.4495 41.3795 26.0614C40.7677 26.6732 39.9881 27.0899 39.1394 27.2587C38.2907 27.4275 37.411 27.3409 36.6115 27.0097C35.812 26.6786 35.1287 26.1178 34.648 25.3983C34.1673 24.6788 33.9107 23.8329 33.9107 22.9676C33.9119 21.8076 34.3733 20.6954 35.1935 19.8752C36.0138 19.055 37.126 18.5936 38.286 18.5924ZM3.28337 21.9624L6.97558 24.9159C7.11786 25.0306 7.28681 25.1075 7.46674 25.1394C7.64667 25.1713 7.83175 25.1573 8.0048 25.0986L13.867 23.1449C18.5662 21.5769 23.4877 20.7783 28.4415 20.78C28.8729 20.7792 29.3003 20.8635 29.6991 21.0281C30.0979 21.1926 30.4603 21.4342 30.7657 21.739C31.071 22.0438 31.3133 22.4058 31.4785 22.8043C31.6438 23.2028 31.7289 23.63 31.7289 24.0614C31.7289 24.4928 31.6438 24.92 31.4785 25.3185C31.3133 25.717 31.071 26.079 30.7657 26.3838C30.4603 26.6886 30.0979 26.9302 29.6991 27.0947C29.3003 27.2593 28.8729 27.3436 28.4415 27.3428H4.37719C4.08718 27.3425 3.80912 27.2272 3.60405 27.0221C3.39897 26.8171 3.28364 26.539 3.28337 26.249V21.9624Z" fill="#151A6A"></path><path d="M55.6437 20.4393C55.1487 16.1726 53.4083 12.146 50.6395 8.86215C47.8708 5.57825 44.1963 3.1824 40.0745 1.97355C35.9528 0.764696 31.5663 0.796369 27.4624 2.06461C23.3586 3.33286 19.7191 5.78152 16.998 9.10506C16.5389 9.65842 16.2483 10.3319 16.1607 11.0455C16.073 11.7591 16.192 12.4829 16.5034 13.131C16.7834 13.7135 17.2056 14.2162 17.731 14.5928C18.2564 14.9693 18.8681 15.2075 19.5097 15.2855C20.1514 15.3635 20.8023 15.2788 21.4026 15.0391C22.0029 14.7994 22.5332 14.4124 22.9446 13.9139C25.3216 11.0259 28.7414 9.19137 32.4622 8.80828C36.183 8.4252 39.9048 9.52442 42.8204 11.8675C45.736 14.2107 47.6103 17.6088 48.0368 21.3248C48.4634 25.0409 47.4077 28.7753 45.0988 31.7181H2.18907C1.99755 31.7182 1.80943 31.7686 1.6435 31.8643C1.47757 31.9599 1.33965 32.0975 1.24352 32.2631C1.14739 32.4288 1.09643 32.6167 1.09571 32.8083C1.095 32.9998 1.14456 33.1881 1.23945 33.3545L9.3604 47.5653C9.64788 48.0671 10.0626 48.4843 10.5628 48.7746C11.063 49.0649 11.6309 49.2181 12.2093 49.2188H43.7547C44.6247 49.2179 45.4588 48.8719 46.074 48.2567C46.6892 47.6415 47.0352 46.8074 47.0362 45.9374V40.443C50.0861 38.1447 52.4842 35.091 53.9936 31.583C55.5031 28.0751 56.0718 24.2342 55.6437 20.4393ZM44.8485 45.9374C44.8482 46.2275 44.7329 46.5055 44.5278 46.7106C44.3227 46.9156 44.0447 47.0309 43.7547 47.0312H12.2093C12.0165 47.0309 11.8272 46.9797 11.6605 46.883C11.4938 46.7862 11.3555 46.6472 11.2596 46.48L4.0739 33.9057H44.8485V45.9374ZM47.0362 37.6235V32.8119C47.0362 32.8047 47.0322 32.7987 47.0321 32.7916C49.6001 29.3641 50.7253 25.0681 50.1674 20.8218C49.6095 16.5755 47.4126 12.7159 44.0464 10.0681C40.6802 7.42032 36.4118 6.19437 32.1536 6.65234C27.8953 7.11031 23.9852 9.21586 21.259 12.5189C21.0825 12.7341 20.8548 12.9016 20.5967 13.0059C20.3386 13.1102 20.0585 13.148 19.782 13.1159C19.5055 13.0838 19.2415 12.9828 19.0143 12.8221C18.787 12.6614 18.6037 12.4463 18.4812 12.1963C18.3468 11.923 18.2949 11.6164 18.3318 11.3141C18.3686 11.0117 18.4928 10.7267 18.6889 10.4937C20.4067 8.39321 22.5402 6.6707 24.9555 5.43432C27.3709 4.19795 30.0158 3.47443 32.7241 3.30923C35.4325 3.14403 38.1457 3.54071 40.6934 4.47435C43.2411 5.40799 45.5682 6.85842 47.5285 8.73451C49.4888 10.6106 51.0399 12.8718 52.0844 15.3761C53.1289 17.8804 53.6442 20.5736 53.598 23.2866C53.5517 25.9996 52.945 28.6737 51.8157 31.141C50.6865 33.6082 49.0592 35.8152 47.0362 37.6235Z" fill="#151A6A"></path><path d="M15.3165 42.6561H41.5685C41.7121 42.6561 41.8544 42.6278 41.9871 42.5729C42.1198 42.5179 42.2404 42.4374 42.342 42.3358C42.4436 42.2342 42.5241 42.1136 42.5791 41.9809C42.6341 41.8482 42.6623 41.706 42.6623 41.5623V37.1871C42.6623 37.0434 42.6341 36.9012 42.5791 36.7684C42.5242 36.6357 42.4436 36.5151 42.342 36.4135C42.2404 36.312 42.1198 36.2314 41.9871 36.1764C41.8544 36.1215 41.7121 36.0932 41.5685 36.0933H15.3165C15.1728 36.0932 15.0306 36.1215 14.8979 36.1764C14.7651 36.2314 14.6445 36.312 14.5429 36.4135C14.4414 36.5151 14.3608 36.6357 14.3058 36.7684C14.2509 36.9012 14.2226 37.0434 14.2227 37.1871V41.5623C14.2226 41.7059 14.2509 41.8482 14.3058 41.9809C14.3608 42.1136 14.4414 42.2342 14.543 42.3358C14.6445 42.4374 14.7651 42.5179 14.8979 42.5729C15.0306 42.6278 15.1728 42.6561 15.3165 42.6561ZM16.4103 38.2809H40.4746V40.4685H16.4103V38.2809Z" fill="#151A6A"></path><path d="M61.6857 68.9062C61.8704 68.9069 62.0522 68.8607 62.2142 68.772C62.3762 68.6832 62.513 68.5548 62.6119 68.3988C62.7108 68.2428 62.7684 68.0643 62.7795 67.8799C62.7906 67.6956 62.7548 67.5114 62.6754 67.3447C62.0139 65.9589 60.2624 63.0074 55.6526 54.1726C55.5594 53.9977 55.4203 53.8514 55.2503 53.7495C55.0803 53.6475 54.8858 53.5937 54.6876 53.5938H37.1876C36.9894 53.5937 36.7949 53.6475 36.6249 53.7495C36.4549 53.8515 36.3158 53.9977 36.2226 54.1727C31.6137 63.0056 29.8617 65.9577 29.1999 67.3446C29.1205 67.5113 29.0846 67.6955 29.0957 67.8799C29.1068 68.0642 29.1645 68.2428 29.2634 68.3988C29.3622 68.5548 29.4991 68.6832 29.661 68.7719C29.823 68.8607 30.0049 68.9069 30.1896 68.9062H61.6857ZM41.5626 57.9688H50.3126C50.6027 57.9688 50.8809 58.084 51.086 58.2891C51.2911 58.4942 51.4064 58.7724 51.4064 59.0625C51.4064 59.3526 51.2911 59.6308 51.086 59.8359C50.8809 60.041 50.6027 60.1562 50.3126 60.1562H41.5626C41.2725 60.1562 40.9943 60.041 40.7892 59.8359C40.5841 59.6308 40.4689 59.3526 40.4689 59.0625C40.4689 58.7724 40.5841 58.4942 40.7892 58.2891C40.9943 58.084 41.2725 57.9688 41.5626 57.9688Z" fill="#B5E7F3"></path></svg>
</g>
</svg>
