<svg xmlns="http://www.w3.org/2000/svg" id="Capa_1" x="0px" y="0px" viewBox="0 0 140 140">
<style type="text/css">
.st0{fill:none;stroke:#5FBCD3;stroke-width:2;}
.st1{fill:#B5E7F3;}
.st2{fill:#151A6A;}
</style>
<circle class="st0" cx="70" cy="70" r="69"/>
<g transform="translate(35,35) scale(1)">
<svg xmlns="http://www.w3.org/2000/svg" width="70" height="70" viewBox="0 0 70 70" fill="none"><path d="M49.2188 18.0469C49.2188 13.2639 45.7833 9.51563 41.3984 9.51563C39.0238 9.51272 36.7368 10.4119 35 12.0313C33.2632 10.4119 30.9762 9.51272 28.6016 9.51563C24.2167 9.51563 20.7812 13.2672 20.7812 18.0469C20.7812 21.3281 22.5466 27.7124 34.3722 33.5409C34.5674 33.6376 34.7822 33.6878 35 33.6878C35.2178 33.6878 35.4326 33.6376 35.6278 33.5409C47.4523 27.7156 49.2188 21.3358 49.2188 18.0469Z" fill="#B5E7F3"></path><path d="M57.9688 17.5C56.8084 17.5 55.6956 17.9609 54.8752 18.7814C54.0547 19.6019 53.5938 20.7147 53.5938 21.875V41.2344C53.5938 41.5245 53.4785 41.8027 53.2734 42.0078C53.0683 42.2129 52.7901 42.3281 52.5 42.3281C52.2099 42.3281 51.9317 42.2129 51.7266 42.0078C51.5215 41.8027 51.4062 41.5245 51.4062 41.2344V35C51.4062 33.9847 51.0029 33.011 50.285 32.2931C49.5671 31.5752 48.5934 31.1719 47.5781 31.1719C46.5628 31.1719 45.5891 31.5752 44.8712 32.2931C44.1533 33.011 43.75 33.9847 43.75 35V60.1562H41.5625C41.2724 60.1562 40.9942 60.2715 40.7891 60.4766C40.584 60.6817 40.4688 60.9599 40.4688 61.25V67.8125C40.4688 68.1026 40.584 68.3808 40.7891 68.5859C40.9942 68.791 41.2724 68.9062 41.5625 68.9062H57.9688C58.2588 68.9062 58.537 68.791 58.7421 68.5859C58.9473 68.3808 59.0625 68.1026 59.0625 67.8125V61.25C59.0625 60.9599 58.9473 60.6817 58.7421 60.4766C58.537 60.2715 58.2588 60.1562 57.9688 60.1562H55.7812V56.875L62.16 47.3069C62.2792 47.128 62.3432 46.9181 62.3438 46.7031V21.875C62.3438 20.7147 61.8828 19.6019 61.0623 18.7814C60.2419 17.9609 59.1291 17.5 57.9688 17.5ZM56.875 62.3438V66.7188H42.6562V62.3438H56.875Z" fill="#B5E7F3"></path><path d="M45.5265 1.09375C43.5362 1.0976 41.5693 1.52266 39.7551 2.34098C37.9409 3.15931 36.3204 4.35236 35.0002 5.84172C33.68 4.35236 32.0596 3.15931 30.2453 2.34098C28.4311 1.52266 26.4642 1.0976 24.474 1.09375C22.2878 1.10646 20.1531 1.75874 18.3331 2.97016C16.5132 4.18157 15.0876 5.89915 14.2321 7.91109C13.4911 7.63519 12.6941 7.54367 11.9098 7.64444C11.1256 7.74521 10.3776 8.03525 9.73039 8.48953C9.0832 8.94381 8.55623 9.5487 8.19493 10.252C7.83362 10.9554 7.64883 11.736 7.65648 12.5267V39.3236C7.65654 39.6137 7.77182 39.8918 7.97695 40.0969L13.1252 45.2452V46.9798C12.5451 46.9798 11.9887 47.2103 11.5784 47.6205C11.1682 48.0308 10.9377 48.5872 10.9377 49.1673V54.6361C10.9377 54.9262 11.053 55.2044 11.2581 55.4095C11.4632 55.6146 11.7414 55.7298 12.0315 55.7298H25.1565C25.4466 55.7298 25.7248 55.6146 25.9299 55.4095C26.135 55.2044 26.2502 54.9262 26.2502 54.6361V49.1673C26.2502 48.5872 26.0198 48.0308 25.6095 47.6205C25.1993 47.2103 24.6429 46.9798 24.0627 46.9798V32.7031C27.328 35.2 30.825 37.3781 34.5059 39.2077C34.6587 39.2841 34.8272 39.3239 34.998 39.3239C35.1689 39.3239 35.3374 39.2841 35.4902 39.2077C54.329 29.6702 57.1465 19.4469 57.1465 14.2023C57.1465 6.85234 52.042 1.09375 45.5265 1.09375ZM24.0627 53.5423H13.1252V49.1673H24.0627V53.5423ZM15.3127 46.9798V44.7923C15.3127 44.5023 15.1974 44.2241 14.9923 44.0191L9.84398 38.8708V12.5267C9.84398 11.8015 10.1321 11.106 10.6449 10.5932C11.1577 10.0804 11.8532 9.79234 12.5784 9.79234C13.3036 9.79234 13.9991 10.0804 14.5118 10.5932C15.0246 11.106 15.3127 11.8015 15.3127 12.5267V34.9486C15.3127 35.2387 15.428 35.5169 15.6331 35.722C15.8382 35.9271 16.1164 36.0423 16.4065 36.0423C16.6966 36.0423 16.9748 35.9271 17.1799 35.722C17.385 35.5169 17.5002 35.2387 17.5002 34.9486V25.1048C17.5002 24.5247 17.7307 23.9683 18.1409 23.558C18.5512 23.1478 19.1076 22.9173 19.6877 22.9173C20.2679 22.9173 20.8243 23.1478 21.2345 23.558C21.6448 23.9683 21.8752 24.5247 21.8752 25.1048V46.9798H15.3127ZM35.0002 37.0016C31.1007 35.0471 27.432 32.6625 24.0627 29.8922V25.1048C24.0627 23.9445 23.6018 22.8317 22.7813 22.0113C21.9608 21.1908 20.8481 20.7298 19.6877 20.7298C18.9175 20.7344 18.1623 20.9443 17.5002 21.338V12.5267C17.4997 11.2418 16.9946 10.0085 16.0937 9.09234C16.7525 7.39893 17.9022 5.94098 19.3954 4.90557C20.8886 3.87017 22.6571 3.30453 24.474 3.28125C26.349 3.28846 28.196 3.73686 29.8656 4.5902C31.5352 5.44353 32.9806 6.67783 34.0848 8.19328C34.1904 8.33685 34.3282 8.45357 34.4873 8.53402C34.6463 8.61447 34.822 8.65638 35.0002 8.65638C35.1784 8.65638 35.3542 8.61447 35.5132 8.53402C35.6722 8.45357 35.8101 8.33685 35.9157 8.19328C37.0267 6.68502 38.4735 5.45599 40.1416 4.60345C41.8097 3.75091 43.6532 3.29823 45.5265 3.28125C50.9034 3.28125 54.959 7.97563 54.959 14.2013C54.959 18.9 52.3504 28.0722 35.0002 37.0016Z" fill="#151A6A"></path><path d="M41.5625 16.3547H39.375V14.1672C39.375 13.297 39.0293 12.4624 38.4139 11.847C37.7986 11.2317 36.964 10.886 36.0938 10.886H33.9062C33.036 10.886 32.2014 11.2317 31.5861 11.847C30.9707 12.4624 30.625 13.297 30.625 14.1672V16.3547H28.4375C27.5673 16.3547 26.7327 16.7004 26.1173 17.3158C25.502 17.9311 25.1563 18.7657 25.1562 19.636V21.8235C25.1563 22.6937 25.502 23.5283 26.1173 24.1437C26.7327 24.759 27.5673 25.1047 28.4375 25.1047H30.625V27.2922C30.625 28.1625 30.9707 28.9971 31.5861 29.6124C32.2014 30.2278 33.036 30.5735 33.9062 30.5735H36.0938C36.964 30.5735 37.7986 30.2278 38.4139 29.6124C39.0293 28.9971 39.375 28.1625 39.375 27.2922V25.1047H41.5625C42.4327 25.1047 43.2673 24.759 43.8827 24.1437C44.498 23.5283 44.8438 22.6937 44.8438 21.8235V19.636C44.8438 18.7657 44.498 17.9311 43.8827 17.3158C43.2673 16.7004 42.4327 16.3547 41.5625 16.3547ZM42.6562 21.8235C42.6562 22.1136 42.541 22.3918 42.3359 22.5969C42.1308 22.802 41.8526 22.9172 41.5625 22.9172H38.2812C37.9912 22.9172 37.713 23.0325 37.5079 23.2376C37.3027 23.4427 37.1875 23.7209 37.1875 24.011V27.2922C37.1875 27.5823 37.0723 27.8605 36.8671 28.0656C36.662 28.2708 36.3838 28.386 36.0938 28.386H33.9062C33.6162 28.386 33.338 28.2708 33.1329 28.0656C32.9277 27.8605 32.8125 27.5823 32.8125 27.2922V24.011C32.8125 23.7209 32.6973 23.4427 32.4921 23.2376C32.287 23.0325 32.0088 22.9172 31.7188 22.9172H28.4375C28.1474 22.9172 27.8692 22.802 27.6641 22.5969C27.459 22.3918 27.3438 22.1136 27.3438 21.8235V19.636C27.3438 19.3459 27.459 19.0677 27.6641 18.8626C27.8692 18.6575 28.1474 18.5422 28.4375 18.5422H31.7188C32.0088 18.5422 32.287 18.427 32.4921 18.2219C32.6973 18.0168 32.8125 17.7386 32.8125 17.4485V14.1672C32.8125 13.8772 32.9277 13.599 33.1329 13.3938C33.338 13.1887 33.6162 13.0735 33.9062 13.0735H36.0938C36.3838 13.0735 36.662 13.1887 36.8671 13.3938C37.0723 13.599 37.1875 13.8772 37.1875 14.1672V17.4485C37.1875 17.7386 37.3027 18.0168 37.5079 18.2219C37.713 18.427 37.9912 18.5422 38.2812 18.5422H41.5625C41.8526 18.5422 42.1308 18.6575 42.3359 18.8626C42.541 19.0677 42.6562 19.3459 42.6562 19.636V21.8235Z" fill="#151A6A"></path></svg>
</g>
</svg>
