<svg xmlns="http://www.w3.org/2000/svg" width="70" height="70" viewBox="0 0 70 70" fill="none"><path d="M33.9062 48.6719V55.7812C33.9062 56.6515 34.252 57.4861 34.8673 58.1014C35.4827 58.7168 36.3173 59.0625 37.1875 59.0625H43.75V67.8125C43.75 68.1026 43.8652 68.3808 44.0704 68.5859C44.2755 68.791 44.5537 68.9062 44.8438 68.9062H67.8125C68.1026 68.9062 68.3808 68.791 68.5859 68.5859C68.791 68.3808 68.9062 68.1026 68.9062 67.8125V31.7188C68.9062 27.0775 67.0625 22.6263 63.7806 19.3444C60.4987 16.0625 56.0475 14.2188 51.4062 14.2188C46.765 14.2188 42.3138 16.0625 39.0319 19.3444C35.75 22.6263 33.9062 27.0775 33.9062 31.7188V37.9531L29.715 44.24C29.5608 44.4724 29.5012 44.7549 29.5484 45.0297C29.5955 45.3046 29.7459 45.5511 29.9687 45.7188L33.9062 48.6719ZM52.5984 51.4062C52.2942 51.4054 51.997 51.3143 51.7446 51.1445C51.4921 50.9747 51.2957 50.7338 51.1802 50.4524C51.0647 50.1709 51.0352 49.8615 51.0956 49.5633C51.156 49.2651 51.3034 48.9916 51.5193 48.7772C51.7352 48.5628 52.0098 48.4173 52.3084 48.3591C52.6071 48.3008 52.9162 48.3325 53.1969 48.45C53.4775 48.5675 53.717 48.7657 53.885 49.0193C54.0529 49.273 54.1419 49.5708 54.1406 49.875C54.1389 50.2825 53.9755 50.6726 53.6863 50.9597C53.3972 51.2468 53.0059 51.4074 52.5984 51.4062ZM45.1139 29.4744C45.3094 28.0849 45.8879 26.7773 46.7845 25.698C47.6811 24.6186 48.8605 23.8102 50.1906 23.3633C51.5207 22.9163 52.9489 22.8485 54.3154 23.1673C55.6818 23.4862 56.9326 24.1791 57.9275 25.1686C58.9224 26.158 59.6222 27.4049 59.9485 28.7696C60.2749 30.1343 60.2149 31.5629 59.7753 32.8954C59.3356 34.2279 58.5337 35.4117 57.4594 36.3143C56.385 37.2168 55.0806 37.8025 53.6922 38.0056V43.75C53.6922 44.0401 53.577 44.3183 53.3718 44.5234C53.1667 44.7285 52.8885 44.8438 52.5984 44.8438C52.3084 44.8438 52.0302 44.7285 51.825 44.5234C51.6199 44.3183 51.5047 44.0401 51.5047 43.75V36.9906C51.5047 36.7005 51.6199 36.4223 51.825 36.2172C52.0302 36.0121 52.3084 35.8969 52.5984 35.8969C54.0131 35.8971 55.3708 35.3391 56.3763 34.3439C57.3818 33.3488 57.954 31.997 57.9684 30.5823C57.9828 29.1677 57.4383 27.8046 56.4533 26.7891C55.4682 25.7737 54.1222 25.1881 52.7078 25.1595H52.5984C51.3038 25.1587 50.0525 25.6257 49.0749 26.4744C48.0973 27.3231 47.4594 28.4965 47.2784 29.7784C47.2446 30.0271 47.2274 30.2778 47.227 30.5288C47.227 30.8188 47.1118 31.097 46.9067 31.3021C46.7016 31.5073 46.4234 31.6225 46.1333 31.6225C45.8432 31.6225 45.565 31.5073 45.3599 31.3021C45.1548 31.097 45.0395 30.8188 45.0395 30.5288C45.0398 30.176 45.0647 29.8237 45.1139 29.4744Z" fill="#B5E7F3"></path><path d="M52.5 7.65625H49.2188V4.375C49.2188 3.50476 48.873 2.67016 48.2577 2.05481C47.6423 1.43945 46.8077 1.09375 45.9375 1.09375H4.375C3.50476 1.09375 2.67016 1.43945 2.05481 2.05481C1.43945 2.67016 1.09375 3.50476 1.09375 4.375V32.8125C1.09375 33.6827 1.43945 34.5173 2.05481 35.1327C2.67016 35.748 3.50476 36.0938 4.375 36.0938H7.65625V41.5625C7.65622 41.7605 7.70995 41.9548 7.8117 42.1247C7.91345 42.2946 8.05941 42.4336 8.23401 42.5271C8.4086 42.6205 8.60528 42.6647 8.80306 42.6551C9.00085 42.6455 9.19231 42.5824 9.35703 42.4725L17.5 37.0431V39.375C17.5 40.2452 17.8457 41.0798 18.4611 41.6952C19.0764 42.3105 19.911 42.6562 20.7812 42.6562H37.9531L47.5213 49.035C47.6859 49.144 47.8771 49.2064 48.0743 49.2156C48.2716 49.2247 48.4677 49.1803 48.6418 49.087C48.8158 48.9936 48.9614 48.8549 49.063 48.6856C49.1646 48.5162 49.2184 48.3225 49.2188 48.125V42.6562H52.5C53.3702 42.6562 54.2048 42.3105 54.8202 41.6952C55.4355 41.0798 55.7812 40.2452 55.7812 39.375V10.9375C55.7812 10.0673 55.4355 9.23266 54.8202 8.61731C54.2048 8.00195 53.3702 7.65625 52.5 7.65625ZM8.75 33.9062H4.375C4.08492 33.9062 3.80672 33.791 3.6016 33.5859C3.39648 33.3808 3.28125 33.1026 3.28125 32.8125V4.375C3.28125 4.08492 3.39648 3.80672 3.6016 3.6016C3.80672 3.39648 4.08492 3.28125 4.375 3.28125H45.9375C46.2276 3.28125 46.5058 3.39648 46.7109 3.6016C46.916 3.80672 47.0312 4.08492 47.0312 4.375V32.8125C47.0312 33.1026 46.916 33.3808 46.7109 33.5859C46.5058 33.791 46.2276 33.9062 45.9375 33.9062H18.5938C18.3795 33.9177 18.1713 33.9807 17.9867 34.09L9.84375 39.5194V35C9.84375 34.7099 9.72852 34.4317 9.5234 34.2266C9.31828 34.0215 9.04008 33.9062 8.75 33.9062ZM53.5938 39.375C53.5938 39.6651 53.4785 39.9433 53.2734 40.1484C53.0683 40.3535 52.7901 40.4688 52.5 40.4688H48.125C47.8349 40.4688 47.5567 40.584 47.3516 40.7891C47.1465 40.9942 47.0312 41.2724 47.0312 41.5625V46.0819L38.8883 40.6525C38.7084 40.533 38.4972 40.4691 38.2812 40.4688H20.7812C20.4912 40.4688 20.213 40.3535 20.0079 40.1484C19.8027 39.9433 19.6875 39.6651 19.6875 39.375V36.0938H45.9375C46.8077 36.0938 47.6423 35.748 48.2577 35.1327C48.873 34.5173 49.2188 33.6827 49.2188 32.8125V9.84375H52.5C52.7901 9.84375 53.0683 9.95898 53.2734 10.1641C53.4785 10.3692 53.5938 10.6474 53.5938 10.9375V39.375Z" fill="#151A6A"></path><path d="M14.2592 26.9991C15.6121 27.5157 17.1144 27.4764 18.4384 26.8898C19.0028 27.6047 19.7032 28.2008 20.4992 28.6437C21.2951 29.0865 22.1709 29.3673 23.0759 29.4699C24.9813 29.6529 26.9001 29.3054 28.6202 28.4659C29.894 27.9164 31.069 27.1615 32.0983 26.2313C33.3684 26.0627 34.568 25.5489 35.5666 24.746C36.6161 23.9049 37.4887 22.8643 38.1341 21.6843C38.7795 20.5043 39.1849 19.2082 39.3269 17.8707C39.4684 16.5144 39.3217 15.1435 38.8965 13.8478C38.4713 12.5522 37.7771 11.361 36.8594 10.3523C34.1764 7.49321 29.9458 7.46149 26.2839 8.74993C26.0673 8.54974 25.8331 8.36963 25.5839 8.2118C24.8044 7.79018 23.9415 7.54578 23.0567 7.49606C22.1719 7.44634 21.287 7.59251 20.4652 7.92414C18.5356 8.64229 16.7834 9.76786 15.328 11.2242C13.8726 12.6805 12.7482 14.4334 12.0313 16.3635C11.2469 18.1176 10.8836 20.0309 10.9703 21.9504C11.0187 23.0087 11.3491 24.0349 11.9274 24.9225C12.5057 25.8102 13.3107 26.5272 14.2592 26.9991ZM19.8231 19.1143C20.03 18.6777 20.3471 18.3026 20.7432 18.026C21.1393 17.7495 21.6006 17.5809 22.0817 17.5371H22.1036C22.2925 17.5129 22.4835 17.5607 22.6387 17.671C22.794 17.7812 22.902 17.9458 22.9414 18.1321C23.2936 19.3068 22.4022 21.8356 19.367 23.9093C18.8882 22.3126 19.0519 20.5921 19.8231 19.1143ZM31.8664 23.1306C31.664 23.4509 31.4361 23.7545 31.185 24.0384C30.9225 23.9987 30.6693 23.9116 30.438 23.7813C30.0494 23.5167 29.721 23.1729 29.4745 22.7726C29.228 22.3723 29.0688 21.9243 29.0074 21.4582C28.8264 20.4093 28.9858 19.33 29.4624 18.3782C30.2105 16.9071 31.6849 16.2312 32.4855 18.1781C32.7709 18.9954 32.8636 19.8677 32.7562 20.7268C32.6488 21.5859 32.3443 22.4086 31.8664 23.1306ZM27.3547 12.8231C27.5601 12.13 27.5868 11.3963 27.4324 10.6902C30.1066 9.85571 33.2916 9.74633 35.268 11.8496C35.9664 12.6326 36.4944 13.5523 36.8184 14.5502C37.1425 15.5481 37.2555 16.6025 37.1503 17.6465C36.9382 19.6526 35.9746 21.504 34.4531 22.8287C35.1644 21.0737 35.1835 19.1143 34.5067 17.3457C34.3205 16.8221 34.0287 16.3423 33.6494 15.9361C33.2701 15.5299 32.8114 15.2059 32.3017 14.9843C30.3625 14.2526 28.3861 15.6723 27.5133 17.3905C26.8185 18.765 26.5882 20.3278 26.857 21.8443C26.9704 22.6135 27.2455 23.35 27.6642 24.0051C28.0829 24.6602 28.6358 25.2192 29.2863 25.6451C28.7896 25.9589 28.2705 26.2356 27.7331 26.4731C26.3746 27.1422 24.8597 27.4295 23.3505 27.3043C22.2316 27.179 21.1926 26.6636 20.4159 25.8485C24.3163 23.2585 25.7031 19.7093 25.037 17.4999C24.9407 17.1725 24.793 16.8624 24.5995 16.5812C25.9086 15.668 26.8776 14.3462 27.3547 12.8231ZM25.3455 11.5313C25.3475 11.7697 25.3144 12.007 25.247 12.2357C25.0273 12.9599 24.6312 13.6182 24.0941 14.1514C23.5571 14.6846 22.8961 15.076 22.1703 15.2906C22.0325 15.2906 21.9297 15.2906 21.8192 14.9624C21.6595 14.4823 22.5214 13.172 24.5536 11.959C24.8019 11.8124 25.0655 11.6713 25.3455 11.5313ZM14.0634 17.1718C14.659 15.5397 15.5991 14.055 16.8199 12.8188C18.0406 11.5826 19.5133 10.6238 21.1378 10.0077C21.7178 9.81307 22.3243 9.70903 22.9359 9.6993C23.2575 9.69512 23.578 9.73749 23.8875 9.82508C23.7358 9.91039 23.5853 9.99716 23.4358 10.0854C20.5363 11.8146 19.157 13.8982 19.7433 15.6635C19.7794 15.771 19.821 15.8765 19.868 15.9796C19.0503 16.486 18.3786 17.1966 17.9189 18.0413C17.3552 19.0907 17.0181 20.2468 16.9296 21.4348C16.841 22.6227 17.0029 23.816 17.4049 24.9374C16.6705 25.2314 15.8545 25.2493 15.108 24.9877C14.5299 24.6661 14.0455 24.1996 13.7023 23.6341C13.359 23.0686 13.1688 22.4235 13.1502 21.7623C13.0866 20.1814 13.3997 18.608 14.0634 17.1718Z" fill="#151A6A"></path></svg>