<svg xmlns="http://www.w3.org/2000/svg" id="Capa_1" x="0px" y="0px" viewBox="0 0 140 140">
<style type="text/css">
.st0{fill:none;stroke:#5FBCD3;stroke-width:2;}
.st1{fill:#B5E7F3;}
.st2{fill:#151A6A;}
</style>
<circle class="st0" cx="70" cy="70" r="69"/>
<g transform="translate(35,35) scale(1)">
<svg xmlns="http://www.w3.org/2000/svg" width="70" height="70" viewBox="0 0 70 70" fill="none"><path d="M62.3214 44.9619C62.2254 44.7956 62.0873 44.6576 61.921 44.5616C61.7548 44.4656 61.5662 44.415 61.3742 44.415H48.4975C48.3055 44.415 48.1169 44.4656 47.9506 44.5616C47.7843 44.6576 47.6463 44.7956 47.5503 44.9619L41.1114 56.1094C41.0154 56.2757 40.9648 56.4643 40.9648 56.6563C40.9648 56.8483 41.0154 57.0369 41.1114 57.2032L47.5503 68.3594C47.6463 68.5257 47.7843 68.6637 47.9506 68.7597C48.1169 68.8557 48.3055 68.9063 48.4975 68.9063H61.3742C61.5662 68.9063 61.7548 68.8557 61.921 68.7597C62.0873 68.6637 62.2254 68.5257 62.3214 68.3594L68.7603 57.2032C68.8563 57.0369 68.9068 56.8483 68.9068 56.6563C68.9068 56.4643 68.8563 56.2757 68.7603 56.1094L62.3214 44.9619Z" fill="#B5E7F3"></path><path d="M47.5503 42.1094C47.6463 42.2756 47.7843 42.4137 47.9506 42.5097C48.1169 42.6057 48.3055 42.6562 48.4975 42.6562H61.3742C61.5662 42.6562 61.7548 42.6057 61.921 42.5097C62.0873 42.4137 62.2254 42.2756 62.3214 42.1094L68.7603 30.9531C68.8563 30.7869 68.9068 30.5982 68.9068 30.4062C68.9068 30.2143 68.8563 30.0256 68.7603 29.8594L62.3214 18.7031C62.2254 18.5369 62.0873 18.3988 61.921 18.3028C61.7548 18.2068 61.5662 18.1563 61.3742 18.1562H48.4975C48.3055 18.1563 48.1169 18.2068 47.9506 18.3028C47.7843 18.3988 47.6463 18.5369 47.5503 18.7031L41.1114 29.8594C41.0154 30.0256 40.9648 30.2143 40.9648 30.4062C40.9648 30.5982 41.0154 30.7869 41.1114 30.9531L47.5503 42.1094Z" fill="#B5E7F3"></path><path d="M45.7915 42.9844L39.3526 31.8281C39.2566 31.6619 39.1186 31.5238 38.9523 31.4278C38.786 31.3318 38.5974 31.2813 38.4054 31.2812H25.5287C25.3367 31.2813 25.1481 31.3318 24.9819 31.4278C24.8156 31.5238 24.6775 31.6619 24.5815 31.8281L18.1426 42.9844C18.0466 43.1506 17.9961 43.3393 17.9961 43.5312C17.9961 43.7232 18.0466 43.9119 18.1426 44.0781L24.5815 55.2344C24.6775 55.4006 24.8156 55.5387 24.9819 55.6347C25.1481 55.7307 25.3367 55.7812 25.5287 55.7812H38.4054C38.5974 55.7812 38.786 55.7307 38.9523 55.6347C39.1186 55.5387 39.2566 55.4006 39.3526 55.2344L45.7915 44.0781C45.8875 43.9119 45.9381 43.7232 45.9381 43.5312C45.9381 43.3393 45.8875 43.1506 45.7915 42.9844Z" fill="#B5E7F3"></path><path d="M19.6876 1.09375C19.3975 1.09375 19.1193 1.20898 18.9142 1.4141C18.7091 1.61922 18.5938 1.89742 18.5938 2.1875V7.31391C18.5938 7.42328 18.5873 7.54141 18.5851 7.65625H3.2901C3.28791 7.54688 3.28135 7.42766 3.28135 7.31391V2.1875C3.28135 1.89742 3.16611 1.61922 2.96099 1.4141C2.75588 1.20898 2.47768 1.09375 2.1876 1.09375C1.89752 1.09375 1.61932 1.20898 1.4142 1.4141C1.20908 1.61922 1.09385 1.89742 1.09385 2.1875V7.31391C1.07417 15.1607 4.05593 22.7181 9.42822 28.4375C4.05593 34.1569 1.07417 41.7143 1.09385 49.5611V54.6875C1.09385 54.9776 1.20908 55.2558 1.4142 55.4609C1.61932 55.666 1.89752 55.7812 2.1876 55.7812C2.47768 55.7812 2.75588 55.666 2.96099 55.4609C3.16611 55.2558 3.28135 54.9776 3.28135 54.6875V49.5611C3.28135 49.4517 3.28791 49.3336 3.2901 49.2188H18.5851C18.5851 49.3281 18.5938 49.4473 18.5938 49.5611V54.6875C18.5938 54.9776 18.7091 55.2558 18.9142 55.4609C19.1193 55.666 19.3975 55.7812 19.6876 55.7812C19.9777 55.7812 20.2559 55.666 20.461 55.4609C20.6661 55.2558 20.7813 54.9776 20.7813 54.6875V49.5611C20.7989 41.7146 17.8174 34.1581 12.447 28.4375C17.8193 22.7181 20.801 15.1607 20.7813 7.31391V2.1875C20.7813 1.89742 20.6661 1.61922 20.461 1.4141C20.2559 1.20898 19.9777 1.09375 19.6876 1.09375ZM18.4845 9.84375C18.3578 11.3183 18.1179 12.781 17.767 14.2188H4.11369C3.76276 12.781 3.52288 11.3183 3.39619 9.84375H18.4845ZM15.2612 20.7812H6.614C5.8736 19.3772 5.25165 17.9138 4.75463 16.4062H17.126C16.6272 17.9139 16.0035 19.3774 15.2612 20.7812ZM13.9662 22.9688C13.069 24.3472 12.0558 25.6466 10.9376 26.8527C9.81936 25.6466 8.80615 24.3472 7.909 22.9688H13.9662ZM6.614 36.0938H15.2612C16.0035 37.4977 16.6272 38.9611 17.126 40.4688H4.74916C5.24795 38.9611 5.87173 37.4977 6.614 36.0938ZM7.909 33.9062C8.80615 32.5278 9.81936 31.2284 10.9376 30.0223C12.0558 31.2284 13.069 32.5278 13.9662 33.9062H7.909ZM3.39619 47.0312C3.52288 45.5567 3.76276 44.094 4.11369 42.6562H17.7615C18.1124 44.094 18.3523 45.5567 18.479 47.0312H3.39619Z" fill="#151A6A"></path><path d="M52.5 5.46875C52.5 4.30843 52.0391 3.19563 51.2186 2.37516C50.3981 1.55469 49.2853 1.09375 48.125 1.09375C46.9647 1.09375 45.8519 1.55469 45.0314 2.37516C44.2109 3.19563 43.75 4.30843 43.75 5.46875V6.51656C43.7492 12.1794 41.8204 17.6732 38.2813 22.0938C34.7421 17.6732 32.8133 12.1794 32.8125 6.51656V5.46875C32.8125 4.30843 32.3516 3.19563 31.5311 2.37516C30.7106 1.55469 29.5978 1.09375 28.4375 1.09375C27.2772 1.09375 26.1644 1.55469 25.3439 2.37516C24.5234 3.19563 24.0625 4.30843 24.0625 5.46875V6.51656C24.0572 14.5572 26.932 22.3338 32.1661 28.4375C26.932 34.5412 24.0572 42.3178 24.0625 50.3584V51.4062C24.0625 52.5666 24.5234 53.6794 25.3439 54.4998C26.1644 55.3203 27.2772 55.7812 28.4375 55.7812C29.5978 55.7812 30.7106 55.3203 31.5311 54.4998C32.3516 53.6794 32.8125 52.5666 32.8125 51.4062V50.3584C32.8133 44.6956 34.7421 39.2018 38.2813 34.7812C41.8207 39.2021 43.7494 44.6963 43.75 50.3595V51.4062C43.75 52.5666 44.2109 53.6794 45.0314 54.4998C45.8519 55.3203 46.9647 55.7812 48.125 55.7812C49.2853 55.7812 50.3981 55.3203 51.2186 54.4998C52.0391 53.6794 52.5 52.5666 52.5 51.4062V50.3584C52.5053 42.3178 49.6305 34.5412 44.3964 28.4375C49.6305 22.3338 52.5053 14.5572 52.5 6.51656V5.46875ZM50.3125 6.51656C50.3176 14.3511 47.3995 21.9057 42.1291 27.7025C41.9465 27.9037 41.8453 28.1658 41.8453 28.4375C41.8453 28.7092 41.9465 28.9713 42.1291 29.1725C47.3995 34.9693 50.3176 42.5239 50.3125 50.3584V51.4062C50.3125 51.9864 50.082 52.5428 49.6718 52.953C49.2616 53.3633 48.7052 53.5938 48.125 53.5938C47.5448 53.5938 46.9884 53.3633 46.5782 52.953C46.168 52.5428 45.9375 51.9864 45.9375 51.4062V50.3584C45.9366 43.7234 43.5038 37.3188 39.0994 32.3564C38.9967 32.24 38.8705 32.1468 38.7291 32.083C38.5876 32.0191 38.4342 31.9861 38.2791 31.9861C38.1239 31.9861 37.9705 32.0191 37.8291 32.083C37.6876 32.1468 37.5614 32.24 37.4588 32.3564C33.0559 37.3194 30.6247 43.724 30.625 50.3584V51.4062C30.625 51.9864 30.3945 52.5428 29.9843 52.953C29.5741 53.3633 29.0177 53.5938 28.4375 53.5938C27.8573 53.5938 27.3009 53.3633 26.8907 52.953C26.4805 52.5428 26.25 51.9864 26.25 51.4062V50.3584C26.2449 42.5239 29.163 34.9693 34.4334 29.1725C34.6161 28.9713 34.7172 28.7092 34.7172 28.4375C34.7172 28.1658 34.6161 27.9037 34.4334 27.7025C29.163 21.9057 26.2449 14.3511 26.25 6.51656V5.46875C26.25 4.88859 26.4805 4.33219 26.8907 3.92195C27.3009 3.51172 27.8573 3.28125 28.4375 3.28125C29.0177 3.28125 29.5741 3.51172 29.9843 3.92195C30.3945 4.33219 30.625 4.88859 30.625 5.46875V6.51656C30.6259 13.1516 33.0587 19.5562 37.4631 24.5186C37.5686 24.6302 37.6958 24.7191 37.8368 24.7799C37.9779 24.8407 38.1299 24.872 38.2834 24.872C38.437 24.872 38.589 24.8407 38.73 24.7799C38.8711 24.7191 38.9983 24.6302 39.1038 24.5186C43.5066 19.5556 45.9378 13.151 45.9375 6.51656V5.46875C45.9375 4.88859 46.168 4.33219 46.5782 3.92195C46.9884 3.51172 47.5448 3.28125 48.125 3.28125C48.7052 3.28125 49.2616 3.51172 49.6718 3.92195C50.082 4.33219 50.3125 4.88859 50.3125 5.46875V6.51656Z" fill="#151A6A"></path></svg>
</g>
</svg>
