<svg xmlns="http://www.w3.org/2000/svg" width="70" height="70" viewBox="0 0 70 70" fill="none"><path d="M45.7081 42.6562C45.9235 42.6562 46.1341 42.7199 46.3135 42.8392C46.4929 42.9584 46.6331 43.128 46.7165 43.3267L49.9627 51.0387L53.6181 33.6809C53.6679 33.4444 53.7947 33.2311 53.9786 33.0743C54.1625 32.9175 54.3932 32.826 54.6346 32.8142C54.8759 32.8023 55.1145 32.8707 55.3129 33.0087C55.5113 33.1467 55.6584 33.3466 55.7312 33.577L58.5979 42.6562H67.5349C67.7169 41.6333 67.8098 40.5966 67.8127 39.5576V37.2892C67.8483 34.4577 67.1091 31.6704 65.675 29.2287C64.2409 26.787 62.1666 24.7838 59.6763 23.4357C52.9027 19.8581 45.6621 22.412 40.469 30.0781C35.2781 22.4109 28.0374 19.8581 21.2638 23.4347C18.773 24.7825 16.6981 26.7857 15.2637 29.2277C13.8292 31.6696 13.0897 34.4573 13.1252 37.2892V39.5576C13.1287 40.5965 13.2216 41.6332 13.4031 42.6562H45.7081Z" fill="#B5E7F3"></path><path d="M57.7958 44.8438C57.5632 44.8436 57.3368 44.7692 57.1493 44.6315C56.9619 44.4939 56.8232 44.3 56.7534 44.0782L54.8941 38.208L51.3831 54.9129C51.335 55.1408 51.2154 55.3475 51.0417 55.5028C50.8679 55.658 50.6491 55.7537 50.4172 55.7759C50.1853 55.7982 49.9523 55.7457 49.7522 55.6263C49.5522 55.5068 49.3955 55.3266 49.305 55.1119L44.9814 44.8438H13.9102C16.7539 54.6722 27.0745 64.3957 40.1153 68.8483C40.3445 68.9256 40.5927 68.9256 40.8219 68.8483C53.8627 64.3957 64.1822 54.6722 67.027 44.8438H57.7958Z" fill="#B5E7F3"></path><path d="M53.4847 34.5112L48.1253 23.8012C48.0925 20.6995 47.4313 17.6367 46.1817 14.7977C44.9321 11.9587 43.12 9.40242 40.8549 7.28329C38.5898 5.16416 35.9187 3.52613 33.0028 2.46816C30.087 1.41018 26.987 0.954198 23.89 1.12776C18.0661 1.51687 12.6015 4.08181 8.5811 8.31332C4.56071 12.5448 2.27858 18.1335 2.1878 23.9696C2.17053 27.3592 2.90606 30.7104 4.3413 33.7811C5.77654 36.8519 7.87567 39.5657 10.4872 41.7267C11.8866 42.8488 12.9683 44.3173 13.6252 45.9864C14.2821 47.6555 14.4914 49.4674 14.2322 51.2423C14.1876 51.5271 14.2573 51.818 14.4261 52.0517C14.5949 52.2854 14.8491 52.443 15.1334 52.4903L34.8209 55.7715C34.978 55.7976 35.1389 55.7891 35.2923 55.7466C35.4458 55.7041 35.5881 55.6286 35.7093 55.5254C35.8306 55.4221 35.9278 55.2937 35.9943 55.149C36.0607 55.0043 36.0948 54.8468 36.094 54.6876V48.1251C36.094 47.835 36.2093 47.5568 36.4144 47.3517C36.6195 47.1466 36.8977 47.0313 37.1878 47.0313H42.6565C44.1064 47.0296 45.4964 46.4529 46.5216 45.4277C47.5468 44.4025 48.1236 43.0125 48.1253 41.5626V37.9281L52.9072 36.0162C53.0482 35.9605 53.176 35.8762 53.2827 35.7685C53.3894 35.6608 53.4725 35.5322 53.5268 35.3907C53.5811 35.2491 53.6054 35.0979 53.5981 34.9465C53.5909 34.7951 53.5522 34.6469 53.4847 34.5112ZM46.6312 36.1726C46.4272 36.2528 46.2521 36.3925 46.1284 36.5735C46.0048 36.7545 45.9384 36.9684 45.9378 37.1876V41.5626C45.9378 42.4328 45.5921 43.2674 44.9767 43.8828C44.3614 44.4981 43.5268 44.8438 42.6565 44.8438H37.1878C36.3176 44.8438 35.483 45.1896 34.8676 45.8049C34.2522 46.4203 33.9065 47.2549 33.9065 48.1251V53.397L16.5159 50.4974C16.6326 48.5121 16.2733 46.5277 15.468 44.7093C14.6627 42.8909 13.4346 41.2912 11.8861 40.0434C9.52306 38.0885 7.62355 35.6334 6.32469 32.8552C5.02582 30.0771 4.36 27.0451 4.3753 23.9784C4.45663 18.6985 6.52071 13.6423 10.1576 9.81393C13.7945 5.98553 18.7382 3.66497 24.007 3.31307C26.8291 3.15452 29.6538 3.57375 32.3081 4.54507C34.9625 5.5164 37.3906 7.01938 39.4437 8.96195C41.4969 10.9045 43.1319 13.2458 44.2485 15.8424C45.3652 18.4389 45.94 21.2361 45.9378 24.0626C45.9376 24.2324 45.9773 24.3999 46.0537 24.5515L50.9909 34.4259L46.6312 36.1726Z" fill="#151A6A"></path><path d="M37.1875 18.5937H32.8125V16.4062C32.8125 16.1161 32.6973 15.8379 32.4921 15.6328C32.287 15.4277 32.0088 15.3124 31.7188 15.3124H23.0978L20.6719 10.4485C20.5409 10.1914 20.3135 9.99644 20.0394 9.90618C19.7653 9.81593 19.4666 9.83767 19.2084 9.96668C18.9502 10.0957 18.7535 10.3215 18.6611 10.5949C18.5687 10.8683 18.5882 11.1672 18.7152 11.4263L20.6522 15.3124H13.125C12.8349 15.3124 12.5567 15.4277 12.3516 15.6328C12.1465 15.8379 12.0312 16.1161 12.0312 16.4062V29.5312C12.0312 29.8213 12.1465 30.0995 12.3516 30.3046C12.5567 30.5097 12.8349 30.6249 13.125 30.6249H21.7459L24.1784 35.4888C24.242 35.6185 24.3305 35.7342 24.439 35.8295C24.5475 35.9247 24.6737 35.9975 24.8105 36.0438C24.9472 36.09 25.0918 36.1087 25.2358 36.0987C25.3798 36.0888 25.5204 36.0505 25.6495 35.986C25.7787 35.9214 25.8937 35.832 25.9881 35.7228C26.0825 35.6136 26.1543 35.4867 26.1995 35.3496C26.2446 35.2125 26.2622 35.0678 26.2512 34.9239C26.2401 34.78 26.2007 34.6397 26.1352 34.511L24.1916 30.6249H31.7188C32.0088 30.6249 32.287 30.5097 32.4921 30.3046C32.6973 30.0995 32.8125 29.8213 32.8125 29.5312V27.3437H37.1875C37.4776 27.3437 37.7558 27.2285 37.9609 27.0233C38.166 26.8182 38.2812 26.54 38.2812 26.2499V19.6874C38.2812 19.3974 38.166 19.1192 37.9609 18.914C37.7558 18.7089 37.4776 18.5937 37.1875 18.5937ZM14.2188 28.4374V17.4999H21.7459L23.6469 21.3007L19.2817 23.0507C19.1414 23.1069 19.0142 23.1916 18.9082 23.2995C18.8022 23.4073 18.7197 23.5359 18.666 23.6773C18.6122 23.8186 18.5884 23.9695 18.5959 24.1205C18.6034 24.2715 18.6422 24.4194 18.7097 24.5546L20.6522 28.4374H14.2188ZM30.625 19.6874V28.4374H23.0978L21.1969 24.6367L25.5631 22.8867C25.7036 22.8305 25.831 22.7457 25.937 22.6378C26.0431 22.5299 26.1257 22.4011 26.1794 22.2597C26.2332 22.1182 26.257 21.9672 26.2494 21.816C26.2418 21.6649 26.2029 21.517 26.1352 21.3817L24.1916 17.4999H30.625V19.6874ZM36.0938 25.1562H32.8125V20.7812H36.0938V25.1562Z" fill="#151A6A"></path></svg>