<svg xmlns="http://www.w3.org/2000/svg" id="Capa_1" x="0px" y="0px" viewBox="0 0 140 140">
<style type="text/css">
.st0{fill:none;stroke:#5FBCD3;stroke-width:2;}
.st1{fill:#B5E7F3;}
.st2{fill:#151A6A;}
</style>
<circle class="st0" cx="70" cy="70" r="69"/>
<g transform="translate(35,35) scale(1)">
<path fill="#B5E7F3" d="M30.8,42.2L24.2,48c0.2,3.7,1.4,7.3,3.4,10.4l8.7,0.8l3.6-4.9l-2.7-10L30.8,42.2z"/>
<path fill="#B5E7F3" d="M64.3,60.1L57,60.8L54,67.6C58.1,66.1,61.7,63.5,64.3,60.1z"/>
<path fill="#B5E7F3" d="M51.7,53.7l2.6-9.7l-7.8-5.3L38.7,44l2.6,9.7H51.7z"/>
<path fill="#B5E7F3" d="M55.5,60.2l-3.6-4.9H41.2l-3.6,4.9l3.5,8c3.6,0.9,7.3,0.9,10.9,0L55.5,60.2z"/>
<path fill="#B5E7F3" d="M39.1,67.6l-2.9-6.8l-7.3-0.7C31.5,63.5,35,66.1,39.1,67.6z"/>
<path fill="#B5E7F3" d="M28.1,33.8c-2.5,3.6-3.8,7.8-3.9,12.1l5.5-4.9L28.1,33.8z"/>
<path fill="#B5E7F3" d="M37.7,42.8l8.1-5.5v-7.1l-7.5-4.4c-3.4,1.4-6.5,3.6-8.8,6.4l1.9,8.5L37.7,42.8z"/>
<path fill="#B5E7F3" d="M68.9,45.9c-0.1-4.3-1.5-8.5-3.9-12.1L63.4,41L68.9,45.9z"/>
<path fill="#B5E7F3" d="M52.9,25.1c-4.1-1.2-8.6-1.2-12.7,0l6.4,3.7L52.9,25.1z"/>
<path fill="#B5E7F3" d="M47.4,37.3l8.1,5.5l6.4-2.1l1.9-8.5c-2.4-2.8-5.4-5-8.8-6.4l-7.5,4.4V37.3z"/>
<path fill="#B5E7F3" d="M68.9,48l-6.5-5.8L56,44.3l-2.7,10l3.6,4.9l8.7-0.8C67.5,55.3,68.6,51.7,68.9,48L68.9,48z"/>
<path fill="#151A6A" d="M1.7,44.9c-0.3,0.3-0.4,0.6-0.4,1c0,0.4,0.2,0.7,0.4,1l3.2,3.2c0.3,0.3,0.6,0.4,1,0.4c0.4,0,0.8-0.1,1-0.4c0.6-0.6,0.6-1.5,0-2l-0.6-0.6l4.3-4.3l0.2-0.1c3.3-1.1,6.4-2.6,9.7-4.6c0.3-0.2,0.6-0.5,0.7-0.9c0.1-0.4,0-0.8-0.2-1.1c-0.2-0.3-0.5-0.6-0.9-0.7c-0.1,0-0.2,0-0.3,0c-0.3,0-0.5,0.1-0.7,0.2c-1.7,1-3.4,1.9-5.1,2.7l-1.3,0.6l0.6-1.3c1.4-3,3.1-5.8,5.1-8.7l0.3-0.5l0.4,0.4c8,7.1,14.8,11.4,21.9,13.9l4.4,4.4l-0.6,0.6c-0.3,0.3-0.4,0.6-0.4,1s0.1,0.7,0.4,1c0.5,0.5,1.5,0.5,2,0l3.2-3.2c0.3-0.3,0.4-0.6,0.4-1c0-0.4-0.2-0.7-0.4-1c-0.3-0.3-0.6-0.4-1-0.4c0,0,0,0,0,0c-0.4,0-0.7,0.1-1,0.4l-0.6,0.6l-4.4-4.4L43,40.9C39.9,33.1,35.3,26,28.2,18l-0.3-0.4l0.3-0.4c2.7-2.9,5.8-6,9.8-9.8l0.4-0.4l6.3,6.3l0.1,0.1l-0.4,0.4c-2.7,2.8-4.9,5-6.8,7c-0.6,0.6-0.6,1.5,0,2c0.3,0.3,0.6,0.4,1,0.4c0,0,0,0,0,0c0.4,0,0.8-0.1,1-0.4c2-2,4.2-4.2,6.8-7l0.4-0.4l1.4,1.4c0.3,0.3,0.6,0.4,1,0.4c0,0,0,0,0,0c0.4,0,0.8-0.1,1-0.4c0.3-0.3,0.4-0.6,0.4-1c0-0.4-0.2-0.7-0.4-1L37,1.7c-0.3-0.3-0.6-0.4-1-0.4c-0.4,0-0.8,0.1-1,0.4c-0.3,0.3-0.4,0.6-0.4,1c0,0.4,0.1,0.7,0.4,1l1.4,1.4l-0.4,0.4c-3.9,3.8-7,6.8-9.6,9.7l-0.4,0.4l-0.4-0.4c-2.7-2.9-5.7-5.9-9.6-9.7l-0.4-0.4l1.4-1.4c0.3-0.3,0.4-0.6,0.4-1c0-0.4-0.1-0.7-0.4-1c-0.3-0.3-0.6-0.4-1-0.4c0,0,0,0,0,0c-0.4,0-0.8,0.1-1,0.4L1.7,14.9c-0.3,0.3-0.4,0.6-0.4,1c0,0.4,0.2,0.7,0.4,1c0.3,0.3,0.6,0.4,1,0.4c0,0,0,0,0,0c0.4,0,0.8-0.1,1-0.4l1.4-1.4l0.4,0.4c3.2,3.3,7,7.2,10.7,10.7l0.3,0.3l-0.3,0.4c-3.1,4.5-5.6,8.9-7.4,13.6l-4.4,4.5l-0.1,0.1l-0.6-0.6c-0.3-0.3-0.6-0.4-1-0.4c0,0,0,0,0,0C2.3,44.5,1.9,44.6,1.7,44.9z M7.5,13.9l-0.4-0.4l6.4-6.4l0.4,0.4c3.9,3.7,7,6.8,9.6,9.7l0.3,0.4l-2.4,2.4c-0.3,0.3-0.4,0.6-0.4,1c0,0.4,0.2,0.7,0.4,1c0.5,0.5,1.5,0.5,2,0l2.3-2.3l0.4,0.4c5.7,6.4,9.6,12.1,12.5,18l0.6,1.3l-1.3-0.6C27.4,34,17.9,24.6,7.5,13.9z"/>
</g>
</svg>
