<svg xmlns="http://www.w3.org/2000/svg" id="Capa_1" x="0px" y="0px" viewBox="0 0 140 140">
<style type="text/css">
.st0{fill:none;stroke:#5FBCD3;stroke-width:2;}
.st1{fill:#B5E7F3;}
.st2{fill:#151A6A;}
</style>
<circle class="st0" cx="70" cy="70" r="69"/>
<g transform="translate(35,35) scale(1)">
<svg xmlns="http://www.w3.org/2000/svg" width="70" height="70" viewBox="0 0 70 70" fill="none"><path d="M68.7142 24.0246C68.5689 23.6077 68.34 23.225 68.0415 22.8998C67.7429 22.5746 67.3811 22.3138 66.9782 22.1335L49.5831 14.3127C49.4176 14.2396 49.2363 14.2092 49.056 14.2242C48.8756 14.2392 48.7019 14.2992 48.5506 14.3986C48.3994 14.498 48.2755 14.6338 48.1903 14.7934C48.105 14.953 48.0611 15.1315 48.0626 15.3125C48.0626 17.0909 45.5865 18.5937 42.6563 18.5937C39.7262 18.5937 37.2501 17.0909 37.2501 15.3125C37.2515 15.1315 37.2077 14.953 37.1224 14.7934C37.0372 14.6337 36.9133 14.498 36.762 14.3986C36.6108 14.2991 36.4371 14.2392 36.2567 14.2242C36.0763 14.2092 35.8951 14.2396 35.7295 14.3127L18.3344 22.1335C17.9315 22.3138 17.5697 22.5746 17.2712 22.8998C16.9727 23.225 16.7438 23.6077 16.5985 24.0246C16.4493 24.4419 16.3859 24.885 16.412 25.3274C16.4381 25.7698 16.5533 26.2024 16.7505 26.5993L20.2551 33.6894C20.6172 34.4193 21.2402 34.9866 22.0007 35.279C22.7612 35.5714 23.6038 35.5675 24.3616 35.2681L26.4375 34.428V54.6875C26.4203 58.4357 27.8906 62.0377 30.5257 64.7032C33.1608 67.3688 36.7457 68.8804 40.4938 68.9062H44.8188C48.567 68.8803 52.1518 67.3688 54.787 64.7032C57.4221 62.0377 58.8923 58.4357 58.8752 54.6875V34.428L60.9511 35.268C61.7089 35.5673 62.5515 35.5711 63.3121 35.2787C64.0726 34.9862 64.6955 34.4188 65.0575 33.6888L68.5621 26.5992C68.7594 26.2024 68.8745 25.7698 68.9007 25.3274C68.9268 24.885 68.8634 24.4419 68.7142 24.0246ZM39.5213 25.1562C40.645 25.1543 41.7412 25.5038 42.6563 26.156C43.5714 25.5037 44.6676 25.1541 45.7913 25.1562C47.2712 25.1759 48.6829 25.7817 49.7168 26.8407C50.7506 27.8997 51.3223 29.3255 51.3064 30.8055C51.3064 39.0113 43.0365 41.4962 42.953 41.5203C42.7592 41.5765 42.5534 41.5765 42.3596 41.5203C42.2762 41.4962 34.0063 39.0112 34.0063 30.8055C33.9904 29.3255 34.562 27.8997 35.5959 26.8407C36.6298 25.7817 38.0414 25.1759 39.5213 25.1562ZM34.0063 44.8437C34.0054 44.7009 34.0327 44.5593 34.0866 44.427C34.1405 44.2948 34.2199 44.1744 34.3203 44.0728C34.4207 43.9713 34.5402 43.8905 34.6718 43.8351C34.8035 43.7797 34.9448 43.7508 35.0876 43.75H50.2251C50.3679 43.7508 50.5092 43.7797 50.6408 43.8351C50.7725 43.8905 50.8919 43.9713 50.9923 44.0729C51.0927 44.1744 51.1721 44.2948 51.226 44.4271C51.2799 44.5593 51.3072 44.7009 51.3063 44.8437V49.2187C51.3072 49.3616 51.2799 49.5031 51.226 49.6354C51.1721 49.7677 51.0927 49.8881 50.9923 49.9896C50.8919 50.0912 50.7725 50.172 50.6408 50.2274C50.5092 50.2828 50.3679 50.3117 50.2251 50.3125H35.0876C34.9448 50.3117 34.8035 50.2828 34.6718 50.2274C34.5402 50.172 34.4208 50.0912 34.3204 49.9896C34.2199 49.8881 34.1405 49.7677 34.0866 49.6354C34.0328 49.5031 34.0055 49.3616 34.0063 49.2187L34.0063 44.8437ZM40.6279 66.7102C40.4862 66.7274 40.3426 66.7164 40.2051 66.6779C40.0677 66.6394 39.9392 66.5742 39.8271 66.4859C39.7149 66.3976 39.6213 66.2881 39.5516 66.1635C39.482 66.039 39.4376 65.9019 39.421 65.7601C39.065 62.8366 37.9378 60.0603 36.155 57.7161C34.3722 55.3718 31.998 53.5439 29.2758 52.4199C29.0089 52.3087 28.7966 52.0969 28.685 51.8302C28.5733 51.5636 28.5712 51.2637 28.6792 50.9955C28.7313 50.863 28.8093 50.7421 28.9084 50.6399C29.0076 50.5377 29.1261 50.4562 29.257 50.4001C29.388 50.344 29.5287 50.3145 29.6711 50.3132C29.8136 50.3119 29.9548 50.3389 30.0867 50.3926C33.1674 51.6646 35.8542 53.7333 37.8716 56.3863C39.8889 59.0394 41.1642 62.1813 41.5666 65.4899C41.6034 65.7761 41.5252 66.0652 41.3493 66.2939C41.1734 66.5226 40.914 66.6723 40.6279 66.7102ZM56.0369 52.4199C53.3147 53.5439 50.9404 55.3718 49.1576 57.7161C47.3748 60.0603 46.2476 62.8366 45.8916 65.7601C45.8754 65.9022 45.8311 66.0397 45.7614 66.1646C45.6916 66.2895 45.5978 66.3993 45.4853 66.4877C45.3728 66.5761 45.2439 66.6412 45.106 66.6794C44.9681 66.7176 44.8241 66.7281 44.6821 66.7102C44.5402 66.6923 44.4032 66.6465 44.2792 66.5753C44.1551 66.5041 44.0463 66.409 43.9593 66.2955C43.8722 66.182 43.8085 66.0523 43.7719 65.9141C43.7353 65.7758 43.7265 65.6316 43.746 65.4899C44.1484 62.1813 45.4237 59.0394 47.4411 56.3863C49.4585 53.7333 52.1453 51.6646 55.2259 50.3926C55.3578 50.3389 55.4991 50.3119 55.6415 50.3132C55.7839 50.3145 55.9247 50.344 56.0556 50.4001C56.1865 50.4562 56.305 50.5377 56.4042 50.6399C56.5034 50.7421 56.5813 50.863 56.6334 50.9955C56.7414 51.2637 56.7394 51.5636 56.6277 51.8302C56.516 52.0969 56.3037 52.3087 56.0369 52.4199Z" fill="#B5E7F3"></path><path d="M36.1694 45.9375H49.1446V48.125H36.1694V45.9375Z" fill="#B5E7F3"></path><path d="M42.6564 39.3184C43.9805 38.8463 49.1439 36.6299 49.1439 30.8055C49.1572 29.9022 48.8117 29.0306 48.1832 28.3816C47.5548 27.7327 46.6946 27.3594 45.7914 27.3438C45.3497 27.3438 44.9126 27.4331 44.5064 27.6062C44.1001 27.7794 43.733 28.0329 43.4272 28.3515C43.2211 28.5524 42.9447 28.6647 42.6569 28.6647C42.3691 28.6647 42.0927 28.5524 41.8866 28.3515C41.5805 28.033 41.2132 27.7795 40.8068 27.6064C40.4003 27.4332 39.9631 27.3439 39.5214 27.3438C38.6181 27.3594 37.758 27.7327 37.1295 28.3816C36.5011 29.0305 36.1556 29.9022 36.1688 30.8055C36.1688 36.6278 41.3291 38.8447 42.6564 39.3184Z" fill="#B5E7F3"></path><path d="M49.285 25.1752C47.9856 21.0627 45.5005 17.4255 42.1416 14.72C38.7827 12.0145 34.6996 10.3613 30.4046 9.96767C31.6062 8.32859 33.3144 7.13111 35.265 6.56046C35.4049 6.5263 35.5367 6.46482 35.6528 6.37956C35.7689 6.2943 35.867 6.18694 35.9414 6.06364C36.0159 5.94034 36.0652 5.80354 36.0867 5.66111C36.1081 5.51867 36.1011 5.37341 36.0662 5.23366C36.0313 5.09392 35.9692 4.96245 35.8833 4.84682C35.7974 4.73119 35.6895 4.63367 35.5658 4.55987C35.4421 4.48607 35.305 4.43744 35.1625 4.41679C35.0199 4.39613 34.8747 4.40386 34.7352 4.43951C32.6244 5.01429 30.7335 6.2065 29.3049 7.86324C29.1038 5.78132 28.1474 3.84505 26.6165 2.41993C26.0264 1.92931 25.3438 1.56222 24.6091 1.34044C23.8744 1.11866 23.1027 1.04672 22.3397 1.12888C21.332 1.14988 20.3733 1.56771 19.672 2.29158C18.9706 3.01545 18.5833 3.98685 18.5941 4.9947C18.6049 6.00255 19.0131 6.9654 19.7298 7.67402C20.4466 8.38264 21.414 8.77977 22.4219 8.7791C22.5655 8.7791 22.7076 8.75082 22.8402 8.69589C22.9728 8.64096 23.0933 8.56045 23.1948 8.45895C23.2963 8.35745 23.3768 8.23696 23.4318 8.10434C23.4867 7.97173 23.515 7.8296 23.515 7.68606C23.515 7.54252 23.4867 7.40038 23.4318 7.26777C23.3768 7.13515 23.2963 7.01466 23.1948 6.91316C23.0933 6.81166 22.9728 6.73115 22.8402 6.67622C22.7076 6.62129 22.5655 6.59302 22.4219 6.59302C21.9871 6.59302 21.5701 6.42028 21.2626 6.11281C20.9551 5.80534 20.7824 5.38832 20.7824 4.95349C20.7824 4.51866 20.9551 4.10163 21.2626 3.79416C21.5701 3.48669 21.9871 3.31396 22.4219 3.31396C22.4838 3.3133 22.5456 3.30813 22.6067 3.29848C23.0794 3.24834 23.5573 3.2957 24.0109 3.43762C24.4645 3.57954 24.8841 3.81301 25.2439 4.12359C26.467 5.16532 27.1733 7.16033 27.3141 9.91795C22.8641 10.1507 18.5912 11.7362 15.0666 14.4627C11.5419 17.1891 8.93354 20.9265 7.59009 25.1752C5.86156 25.1915 4.20934 25.8895 2.99279 27.1176C1.77624 28.3456 1.09375 30.0043 1.09375 31.7329C1.09375 33.4615 1.77624 35.1202 2.99279 36.3483C4.20934 37.5763 5.86156 38.2744 7.59009 38.2906C8.98401 42.7281 11.7575 46.605 15.507 49.3573C19.2565 52.1096 23.7863 53.5937 28.4376 53.5937C33.0888 53.5937 37.6187 52.1096 41.3682 49.3573C45.1177 46.605 47.8911 42.7281 49.285 38.2906C51.0136 38.2744 52.6658 37.5763 53.8823 36.3483C55.0989 35.1202 55.7814 33.4615 55.7814 31.7329C55.7814 30.0043 55.0989 28.3456 53.8823 27.1176C52.6658 25.8895 51.0136 25.1915 49.285 25.1752ZM28.4376 40.4773C27.3065 40.4785 26.195 40.7723 25.211 41.3299C24.227 41.8876 23.4039 42.6902 22.8217 43.6599C22.1791 43.4924 21.6196 43.0964 21.2481 42.5459C20.8766 41.9955 20.7187 41.3284 20.8038 40.6698C20.8889 40.0112 21.2113 39.4063 21.7106 38.9684C22.2098 38.5305 22.8516 38.2897 23.5157 38.2912H33.3594C34.0235 38.2897 34.6653 38.5305 35.1645 38.9684C35.6638 39.4063 35.9862 40.0112 36.0713 40.6698C36.1564 41.3284 35.9985 41.9954 35.627 42.5459C35.2555 43.0963 34.696 43.4924 34.0534 43.6598C33.4712 42.6902 32.6481 41.8875 31.6641 41.3299C30.6801 40.7722 29.5686 40.4785 28.4376 40.4773ZM24.0626 47.0355C24.062 46.1701 24.3181 45.3239 24.7985 44.6041C25.2789 43.8843 25.962 43.3231 26.7614 42.9915C27.5607 42.6599 28.4405 42.5729 29.2893 42.7414C30.1382 42.9099 30.918 43.3263 31.5302 43.9381C32.1423 44.5498 32.5593 45.3293 32.7283 46.1781C32.8973 47.0268 32.8109 47.9066 32.4798 48.7062C32.1488 49.5058 31.588 50.1893 30.8685 50.6701C30.149 51.151 29.303 51.4077 28.4376 51.4077C27.278 51.4068 26.1661 50.946 25.3459 50.1263C24.5257 49.3066 24.0642 48.1951 24.0626 47.0355ZM49.2188 36.1051C49.0218 36.097 48.8255 36.0756 48.6313 36.041C48.3681 36.0059 48.101 36.0677 47.88 36.2149C47.6589 36.3621 47.4989 36.5846 47.4297 36.8411C46.5482 40.0991 44.8442 43.076 42.4813 45.4861C40.1184 47.8962 37.1758 49.6587 33.9358 50.6045C34.4059 49.8862 34.7295 49.0822 34.888 48.2386C35.0465 47.3949 35.0368 46.5283 34.8596 45.6884C35.8532 45.3781 36.7215 44.7579 37.3372 43.9185C37.9529 43.0792 38.2838 42.0648 38.2813 41.0238C38.2795 39.7193 37.7602 38.4688 36.8375 37.5467C35.9148 36.6245 34.6639 36.1061 33.3594 36.1051H23.5157C22.3434 36.1008 21.2084 36.5166 20.3163 37.2772C19.4241 38.0377 18.834 39.0927 18.6528 40.2509C18.4715 41.4091 18.7112 42.5939 19.3283 43.5906C19.9454 44.5873 20.8992 45.33 22.0167 45.6841C21.8386 46.5246 21.8283 47.392 21.9867 48.2364C22.145 49.0809 22.4688 49.8857 22.9393 50.6045C19.6993 49.6587 16.7567 47.8962 14.3938 45.4861C12.0309 43.076 10.327 40.0991 9.44541 36.8411C9.38308 36.6088 9.24589 36.4036 9.0551 36.2572C8.86432 36.1109 8.63058 36.0315 8.39011 36.0314C8.22701 36.0314 7.88937 36.1051 7.65631 36.1051C7.08157 36.106 6.51229 35.9936 5.98104 35.7743C5.44978 35.555 4.96698 35.233 4.56026 34.827C4.15353 34.4209 3.83086 33.9386 3.6107 33.4077C3.39055 32.8768 3.27723 32.3077 3.27723 31.7329C3.27723 31.1582 3.39055 30.5891 3.6107 30.0582C3.83086 29.5273 4.15353 29.045 4.56026 28.6389C4.96698 28.2328 5.44978 27.9109 5.98104 27.6916C6.51229 27.4723 7.08157 27.3599 7.65631 27.3608C7.85335 27.3689 8.04962 27.3903 8.24378 27.4248C8.50677 27.458 8.77293 27.3955 8.99358 27.2486C9.21422 27.1017 9.37461 26.8802 9.44541 26.6248C10.5672 22.4454 13.0363 18.7527 16.47 16.1192C19.9037 13.4856 24.1102 12.0582 28.4376 12.0582C32.7649 12.0582 36.9714 13.4856 40.4051 16.1192C43.8388 18.7527 46.3079 22.4454 47.4297 26.6248C47.4992 26.881 47.6593 27.1033 47.8803 27.2505C48.1013 27.3976 48.3681 27.4596 48.6313 27.4248C48.8255 27.3905 49.0218 27.3691 49.2188 27.3608C49.7936 27.3599 50.3628 27.4723 50.8941 27.6916C51.4253 27.9109 51.9081 28.2328 52.3149 28.6389C52.7216 29.045 53.0443 29.5273 53.2644 30.0582C53.4846 30.5891 53.5979 31.1582 53.5979 31.7329C53.5979 32.3077 53.4846 32.8768 53.2644 33.4077C53.0443 33.9386 52.7216 34.4209 52.3149 34.827C51.9081 35.233 51.4253 35.555 50.8941 35.7743C50.3628 35.9936 49.7936 36.106 49.2188 36.1051Z" fill="#151A6A"></path></svg>
</g>
</svg>
