<svg xmlns="http://www.w3.org/2000/svg" width="70" height="70" viewBox="0 0 70 70" fill="none"><path d="M55.0977 27.3438C52.9513 27.3539 50.8966 28.2151 49.3844 29.7384C47.8722 31.2616 47.0259 33.3225 47.0313 35.4689C47.0105 36.3388 47.1686 37.2036 47.4958 38.0099C47.823 38.8161 48.3124 39.5465 48.9336 40.1558C48.3124 40.7653 47.823 41.4959 47.4958 42.3023C47.1686 43.1087 47.0105 43.9737 47.0313 44.8438C47.0326 45.2693 47.0715 45.6938 47.1476 46.1125C46.2513 46.4821 45.4599 47.0672 44.8438 47.8159V26.25C44.8438 25.9599 44.7286 25.6817 44.5234 25.4766C44.3183 25.2715 44.0401 25.1562 43.75 25.1562C43.46 25.1562 43.1818 25.2715 42.9766 25.4766C42.7715 25.6817 42.6563 25.9599 42.6563 26.25V44.5346C42.0034 43.7325 41.1421 43.1257 40.167 42.7809C39.8775 41.7787 39.3248 40.8722 38.5665 40.1558C39.1877 39.5465 39.677 38.8161 40.0043 38.0099C40.3315 37.2036 40.4896 36.3388 40.4688 35.4689C40.4742 33.3225 39.6279 31.2616 38.1157 29.7384C36.6035 28.2151 34.5488 27.3539 32.4024 27.3438C29.0185 27.3605 25.7795 28.7188 23.3958 31.1207C21.0121 33.5226 19.6785 36.7719 19.6875 40.1558V49.5317C19.6785 52.9156 21.0121 56.1649 23.3958 58.5668C25.7795 60.9687 29.0185 62.327 32.4024 62.3438C34.5488 62.3336 36.6035 61.4724 38.1157 59.9491C39.6279 58.4259 40.4742 56.365 40.4688 54.2186C40.4896 53.3487 40.3315 52.4839 40.0043 51.6776C39.677 50.8714 39.1877 50.141 38.5665 49.5317C39.6849 48.4431 40.3539 46.9743 40.441 45.4159C41.3352 46.2857 42.0832 47.294 42.6563 48.402V67.8125C42.6563 68.1026 42.7715 68.3808 42.9766 68.5859C43.1818 68.791 43.46 68.9062 43.75 68.9062C44.0401 68.9062 44.3183 68.791 44.5234 68.5859C44.7286 68.3808 44.8438 68.1026 44.8438 67.8125V51.6832C45.6017 50.2502 46.9383 48.4677 47.8809 48.185C48.1584 48.6868 48.5137 49.1413 48.9336 49.5317C48.3124 50.141 47.823 50.8714 47.4958 51.6776C47.1686 52.4839 47.0105 53.3487 47.0313 54.2186C47.0259 56.365 47.8722 58.4259 49.3844 59.9491C50.8966 61.4724 52.9513 62.3336 55.0977 62.3438C58.4816 62.327 61.7206 60.9687 64.1043 58.5668C66.488 56.1649 67.8216 52.9156 67.8125 49.5317V40.1558C67.8216 36.7719 66.488 33.5226 64.1043 31.1207C61.7206 28.7188 58.4816 27.3605 55.0977 27.3438Z" fill="#B5E7F3"></path><path d="M32.8125 41.5625C32.8125 41.4189 32.7843 41.2766 32.7293 41.1439C32.6744 41.0112 32.5938 40.8906 32.4922 40.789C32.3907 40.6874 32.2701 40.6069 32.1374 40.5519C32.0046 40.497 31.8624 40.4687 31.7188 40.4688H25.1562C24.8662 40.4688 24.588 40.584 24.3829 40.7891C24.1777 40.9942 24.0625 41.2724 24.0625 41.5625C24.0625 41.8526 24.1777 42.1308 24.3829 42.3359C24.588 42.541 24.8662 42.6562 25.1562 42.6562H31.7188C31.8624 42.6563 32.0046 42.628 32.1374 42.5731C32.2701 42.5181 32.3907 42.4376 32.4922 42.336C32.5938 42.2344 32.6744 42.1138 32.7293 41.9811C32.7843 41.8484 32.8125 41.7061 32.8125 41.5625Z" fill="#151A6A"></path><path d="M44.8438 1.09375C43.3939 1.09545 42.0039 1.67217 40.9786 2.69739C39.9534 3.72261 39.3767 5.11262 39.375 6.5625V8.81453C36.9702 9.08591 34.7494 10.2326 33.1357 12.0361C31.5221 13.8396 30.6284 16.1737 30.625 18.5938V34.1034C29.1785 33.8405 27.6965 33.8405 26.25 34.1034V18.5938C26.2466 16.1737 25.3529 13.8396 23.7393 12.0361C22.1256 10.2326 19.9048 9.08591 17.5 8.81453V6.5625C17.4983 5.11262 16.9216 3.72261 15.8964 2.69739C14.8711 1.67217 13.4811 1.09545 12.0312 1.09375C9.42143 1.09669 6.91934 2.13474 5.07392 3.98017C3.22849 5.82559 2.19044 8.32768 2.1875 10.9375V13.125C2.19044 15.7348 3.22849 18.2369 5.07392 20.0823C6.91934 21.9278 9.42143 22.9658 12.0312 22.9688C13.4811 22.967 14.8711 22.3903 15.8964 21.3651C16.9216 20.3399 17.4983 18.9499 17.5 17.5V15.514C18.1379 15.7388 18.6907 16.1554 19.0824 16.7068C19.474 17.2583 19.6854 17.9174 19.6875 18.5938V38.0712C18.9849 39.1008 18.6042 40.3161 18.5938 41.5625C18.5938 44.2894 20.3844 46.7461 23.3837 48.1367C23.5794 48.2182 23.7475 48.3543 23.8679 48.5287C23.9882 48.7032 24.0558 48.9086 24.0625 49.1205V54.6875C24.0625 54.9776 24.1777 55.2558 24.3829 55.4609C24.588 55.666 24.8662 55.7812 25.1562 55.7812C25.4463 55.7812 25.7245 55.666 25.9296 55.4609C26.1348 55.2558 26.25 54.9776 26.25 54.6875V49.1205C26.2463 48.4908 26.0606 47.8756 25.7153 47.3489C25.37 46.8223 24.8799 46.4067 24.3039 46.1522C22.0982 45.13 20.7812 43.4135 20.7812 41.5625C20.7812 38.5472 24.2158 36.0938 28.4375 36.0938C32.6592 36.0938 36.0938 38.5472 36.0938 41.5625C36.0938 43.4135 34.7768 45.13 32.5706 46.1522C31.9947 46.4068 31.5047 46.8225 31.1595 47.3491C30.8144 47.8757 30.6287 48.4908 30.625 49.1205V54.6875C30.625 54.9776 30.7402 55.2558 30.9454 55.4609C31.1505 55.666 31.4287 55.7812 31.7188 55.7812C32.0088 55.7812 32.287 55.666 32.4921 55.4609C32.6973 55.2558 32.8125 54.9776 32.8125 54.6875V49.1205C32.8192 48.9087 32.8867 48.7033 33.007 48.5289C33.1272 48.3544 33.2952 48.2183 33.4908 48.1367C36.4906 46.7461 38.2812 44.2894 38.2812 41.5625C38.2708 40.3161 37.8901 39.1008 37.1875 38.0712V18.5938C37.1896 17.9174 37.401 17.2583 37.7926 16.7068C38.1843 16.1554 38.7371 15.7388 39.375 15.514V17.5C39.3767 18.9499 39.9534 20.3399 40.9786 21.3651C42.0039 22.3903 43.3939 22.967 44.8438 22.9688C47.4536 22.9659 49.9557 21.9279 51.8012 20.0824C53.6466 18.237 54.6847 15.7348 54.6875 13.125V10.9375C54.6847 8.32765 53.6466 5.82551 51.8012 3.98006C49.9557 2.13462 47.4536 1.0966 44.8438 1.09375ZM15.3125 17.5C15.3116 18.3699 14.9655 19.204 14.3504 19.8191C13.7352 20.4343 12.9012 20.7803 12.0312 20.7812C10.0014 20.7789 8.05539 19.9715 6.62008 18.5362C5.18477 17.1009 4.37737 15.1548 4.375 13.125V10.9375C4.37737 8.90766 5.18477 6.96164 6.62008 5.52633C8.05539 4.09102 10.0014 3.28362 12.0312 3.28125C12.9012 3.2822 13.7352 3.62821 14.3504 4.24335C14.9655 4.8585 15.3116 5.69255 15.3125 6.5625V17.5ZM21.875 35.8723V18.5938C21.8734 17.3336 21.4373 16.1126 20.6404 15.1364C19.8434 14.1603 18.7343 13.4888 17.5 13.235V11.0155C19.3213 11.2808 20.9864 12.1923 22.1912 13.5837C23.396 14.975 24.0602 16.7533 24.0625 18.5938V34.7143C23.2897 35.0115 22.5553 35.4003 21.875 35.8723ZM35 18.5938V35.8723C34.3197 35.4003 33.5853 35.0115 32.8125 34.7143V18.5938C32.8148 16.7533 33.479 14.975 34.6838 13.5837C35.8886 12.1923 37.5537 11.2808 39.375 11.0155V13.235C38.1407 13.4888 37.0316 14.1603 36.2346 15.1364C35.4377 16.1126 35.0016 17.3336 35 18.5938ZM52.5 13.125C52.4975 15.1548 51.6901 17.1008 50.2548 18.5361C48.8195 19.9714 46.8736 20.7788 44.8438 20.7812C43.9738 20.7803 43.1398 20.4343 42.5246 19.8191C41.9095 19.204 41.5634 18.3699 41.5625 17.5V6.5625C41.5634 5.69255 41.9095 4.8585 42.5246 4.24335C43.1398 3.62821 43.9738 3.2822 44.8438 3.28125C46.8736 3.2837 48.8195 4.09113 50.2548 5.52642C51.6901 6.96172 52.4975 8.90769 52.5 10.9375V13.125Z" fill="#151A6A"></path></svg>