<svg xmlns="http://www.w3.org/2000/svg" xmlns:xlink="http://www.w3.org/1999/xlink" id="Capa_1" x="0px" y="0px" viewBox="0 0 140 140"  ><style type="text/css">	.st0{fill:none;stroke:#5FBCD3;stroke-width:2;}	.st1{fill:#B5E7F3;}	.st2{fill:#151A6A;}</style><circle class="st0" cx="70" cy="70" r="69"></circle><g>	<path class="st1" d="M66.9,74.2h-3.2c-4.1,0-7.4,3.3-7.4,7.4v20c0,0.6,0.5,1.1,1.1,1.1c0,0,0,0,0,0h4.2c0.6,0,1.1-0.5,1.1-1.1  c0,0,0,0,0,0v-20c0-0.6,0.5-1.1,1.1-1.1h3.2c0.4-1.1,0.9-2.1,1.4-3.2C67.8,76.3,67.3,75.3,66.9,74.2L66.9,74.2z"></path>	<path class="st1" d="M88.1,53.4c-6.2-2.1-13.1-0.3-16.8,4.4c-6.6,8.5-2,17.2-0.4,19.6c-1.5,2.4-6.2,11,0.4,19.6  c2.8,3.4,7.1,5.4,11.5,5.3c1.8,0,3.6-0.3,5.3-0.9c8.4-2.9,13.5-11.9,13.5-24C101.5,65.2,96.5,56.3,88.1,53.4L88.1,53.4z M75.1,72.1  c0.1,0,5.6-1,6.5-4.5c0.1-0.6,0.7-0.9,1.3-0.8c0.6,0.1,0.9,0.7,0.8,1.3c-1.2,4.8-7.9,6-8.2,6c-0.6,0.1-1.1-0.3-1.2-0.9  C74.1,72.8,74.5,72.2,75.1,72.1z M82.9,87.8c-0.6,0.1-1.1-0.2-1.3-0.8c0,0,0,0,0,0c-0.9-3.5-6.5-4.5-6.5-4.5  c-0.6-0.1-1-0.6-0.9-1.2c0.1-0.6,0.6-1,1.2-0.9c0.3,0,7,1.2,8.2,6C83.8,87.1,83.4,87.7,82.9,87.8L82.9,87.8z M83.7,78.4h-7.4  c-0.6,0-1.1-0.5-1.1-1.1s0.5-1.1,1.1-1.1h7.4c0.6,0,1.1,0.5,1.1,1.1S84.3,78.4,83.7,78.4z"></path>	<g>		<path class="st2" d="M60.5,50.1c-9.9,0-17.9,6.1-17.9,13.7s8,13.7,17.9,13.7s17.9-6.1,17.9-13.7S70.4,50.1,60.5,50.1L60.5,50.1z    M60.5,52.2c8.4,0,15.3,4.8,15.7,10.9c-4.8,2.5-10.5,2.4-15.2-0.2C56.1,60,50.1,59.7,45,62C46.1,56.5,52.6,52.2,60.5,52.2   L60.5,52.2z M60.5,75.3c-8.4,0-15.3-4.8-15.7-10.9c4.8-2.5,10.5-2.4,15.2,0.2c2.7,1.5,5.7,2.3,8.8,2.3c2.5,0,5-0.5,7.3-1.5   C75,71,68.4,75.3,60.5,75.3L60.5,75.3z"></path>		<path class="st2" d="M77.5,52.3c3.2-4,4.9-8.8,5.1-13.9c0-0.6-0.5-1-1.1-1c0,0,0,0,0,0l-4.2,0.1c-0.6,0-1,0.5-1,1.1   c-0.2,3.7-1.5,7.3-3.9,10.1c-3.7-1.9-7.7-2.8-11.8-2.8c-4.1,0-8.2,0.9-11.8,2.8c-2.4-2.9-3.8-6.4-3.9-10.1c0-0.6-0.5-1.1-1-1.1   l-4.2-0.1c-0.6,0-1.1,0.5-1.1,1c0.1,5.1,1.9,9.9,5.1,13.9c-3.2,2.9-5,7.1-5.1,11.4c0,5.9,3.6,11.4,9.6,14.7   c3.8,2.1,6.2,6.1,6.2,10.5c0,0.6,0.5,1.1,1.1,1.1c0,0,0,0,0,0h10.5c0.6,0,1.1-0.5,1.1-1.1c0,0,0,0,0,0c0-4.4,2.4-8.4,6.2-10.5   c6-3.3,9.6-8.8,9.6-14.7C82.5,59.4,80.7,55.3,77.5,52.3L77.5,52.3z M78.4,39.6l2.1,0c-0.3,4.2-1.9,8.2-4.5,11.4   c-0.5-0.4-1.1-0.8-1.7-1.2C76.6,46.8,78,43.3,78.4,39.6L78.4,39.6z M40.6,39.5l2.1,0c0.3,3.7,1.8,7.3,4.1,10.2   c-0.6,0.4-1.2,0.8-1.7,1.2C42.5,47.7,40.9,43.7,40.6,39.5z M72,76.6c-4.2,2.3-6.9,6.6-7.2,11.3h-8.5c-0.4-4.7-3.1-9-7.2-11.3   c-5.3-3-8.5-7.8-8.5-12.9c0-8.7,9-15.8,20-15.8s20,7.1,20,15.8C80.5,68.8,77.3,73.7,72,76.6z"></path>	</g></g></svg>