<svg xmlns="http://www.w3.org/2000/svg" id="Capa_1" x="0px" y="0px" viewBox="0 0 140 140">
<style type="text/css">
.st0{fill:none;stroke:#5FBCD3;stroke-width:2;}
.st1{fill:#B5E7F3;}
.st2{fill:#151A6A;}
</style>
<circle class="st0" cx="70" cy="70" r="69"/>
<g transform="translate(35,35) scale(1)">
<svg xmlns="http://www.w3.org/2000/svg" width="70" height="70" viewBox="0 0 70 70" fill="none"><path d="M51.4062 29.5312C55.6347 29.5312 59.0625 26.1034 59.0625 21.875C59.0625 17.6466 55.6347 14.2188 51.4062 14.2188C47.1778 14.2188 43.75 17.6466 43.75 21.875C43.75 26.1034 47.1778 29.5312 51.4062 29.5312Z" fill="#B5E7F3"></path><path d="M67.8118 48.1251C67.8081 46.1481 67.1362 44.2304 65.9051 42.6835C64.6741 41.1365 62.9562 40.0512 61.0305 39.6037C60.6891 37.2958 59.4876 35.2025 57.6671 33.7435C55.8466 32.2846 53.5418 31.568 51.215 31.7376C48.8882 31.9071 46.7116 32.9503 45.1219 34.6577C43.5321 36.3651 42.6468 38.6106 42.6435 40.9435L42.6074 59.0713C42.6074 59.3614 42.7227 59.6396 42.9278 59.8447C43.1329 60.0499 43.4111 60.1651 43.7012 60.1651L47.0305 60.1563V67.8126C47.0305 68.1027 47.1458 68.3809 47.3509 68.586C47.556 68.7911 47.8342 68.9063 48.1243 68.9063H54.6868C54.9769 68.9063 55.2551 68.7911 55.4602 68.586C55.6653 68.3809 55.7805 68.1027 55.7805 67.8126V60.1563H62.2435C62.4101 60.1799 62.5798 60.1647 62.7395 60.1119C62.8993 60.0592 63.0447 59.9703 63.1645 59.8522C63.2842 59.7341 63.3752 59.59 63.4302 59.4311C63.4852 59.2721 63.5028 59.1026 63.4816 58.9357L63.0945 55.8907C64.5197 55.1564 65.7144 54.0426 66.5468 52.6723C67.3792 51.302 67.817 49.7284 67.8118 48.1251Z" fill="#B5E7F3"></path><path d="M53.5938 1.09375H5.46875C4.59851 1.09375 3.76391 1.43945 3.14856 2.05481C2.5332 2.67016 2.1875 3.50476 2.1875 4.375V48.125C2.1875 48.9952 2.5332 49.8298 3.14856 50.4452C3.76391 51.0605 4.59851 51.4062 5.46875 51.4062H53.5938C54.464 51.4062 55.2986 51.0605 55.9139 50.4452C56.5293 49.8298 56.875 48.9952 56.875 48.125V4.375C56.875 3.50476 56.5293 2.67016 55.9139 2.05481C55.2986 1.43945 54.464 1.09375 53.5938 1.09375ZM54.6875 48.125C54.6875 48.4151 54.5723 48.6933 54.3671 48.8984C54.162 49.1035 53.8838 49.2188 53.5938 49.2188H5.46875C5.17867 49.2188 4.90047 49.1035 4.69535 48.8984C4.49023 48.6933 4.375 48.4151 4.375 48.125V4.375C4.375 4.08492 4.49023 3.80672 4.69535 3.6016C4.90047 3.39648 5.17867 3.28125 5.46875 3.28125H53.5938C53.8838 3.28125 54.162 3.39648 54.3671 3.6016C54.5723 3.80672 54.6875 4.08492 54.6875 4.375V48.125Z" fill="#151A6A"></path><path d="M51.4062 7.65625C51.6963 7.65625 51.9745 7.54102 52.1796 7.3359C52.3848 7.13078 52.5 6.85258 52.5 6.5625C52.5 6.27242 52.3848 5.99422 52.1796 5.7891C51.9745 5.58398 51.6963 5.46875 51.4062 5.46875H47.0312C46.7412 5.46875 46.463 5.58398 46.2579 5.7891C46.0527 5.99422 45.9375 6.27242 45.9375 6.5625C45.9375 6.85258 46.0527 7.13078 46.2579 7.3359C46.463 7.54102 46.7412 7.65625 47.0312 7.65625H48.125V44.8438H47.0312C46.7412 44.8438 46.463 44.959 46.2579 45.1641C46.0527 45.3692 45.9375 45.6474 45.9375 45.9375C45.9375 46.2276 46.0527 46.5058 46.2579 46.7109C46.463 46.916 46.7412 47.0312 47.0312 47.0312H51.4062C51.6963 47.0312 51.9745 46.916 52.1796 46.7109C52.3848 46.5058 52.5 46.2276 52.5 45.9375C52.5 45.6474 52.3848 45.3692 52.1796 45.1641C51.9745 44.959 51.6963 44.8438 51.4062 44.8438H50.3125V7.65625H51.4062Z" fill="#151A6A"></path><path d="M35.3836 13.7879C35.2481 13.5315 35.0163 13.3394 34.7392 13.2539C34.4621 13.1684 34.1624 13.1964 33.9059 13.3318C31.5494 14.5863 28.9194 15.2393 26.2497 15.2327C23.58 15.2393 20.95 14.5863 18.5934 13.3318C18.4664 13.2644 18.3272 13.2227 18.184 13.2092C18.0408 13.1957 17.8964 13.2105 17.7589 13.2529C17.6214 13.2952 17.4937 13.3643 17.383 13.4561C17.2722 13.5479 17.1807 13.6607 17.1136 13.7879L6.90343 33.1407C6.76838 33.397 6.74055 33.6965 6.82606 33.9733C6.91157 34.2501 7.10343 34.4817 7.35953 34.6173C13.1832 37.6869 19.6666 39.2924 26.2497 39.2952C32.833 39.2918 39.3164 37.6855 45.1398 34.6151C45.3957 34.4794 45.5874 34.2477 45.6727 33.9709C45.758 33.6941 45.73 33.3947 45.5948 33.1385L35.3836 13.7879ZM26.2497 37.1077C20.3926 37.1047 14.614 35.7608 9.35671 33.179L18.5562 15.7501C20.9763 16.8338 23.598 17.394 26.2497 17.394C28.9013 17.394 31.523 16.8338 33.9431 15.7501L43.1427 33.1801C37.8853 35.7615 32.1066 37.1051 26.2497 37.1077Z" fill="#151A6A"></path><path d="M7.65625 7.65625H18.5938C18.8838 7.65625 19.162 7.54102 19.3671 7.3359C19.5723 7.13078 19.6875 6.85258 19.6875 6.5625C19.6875 6.27242 19.5723 5.99422 19.3671 5.7891C19.162 5.58398 18.8838 5.46875 18.5938 5.46875H7.65625C7.36617 5.46875 7.08797 5.58398 6.88285 5.7891C6.67773 5.99422 6.5625 6.27242 6.5625 6.5625C6.5625 6.85258 6.67773 7.13078 6.88285 7.3359C7.08797 7.54102 7.36617 7.65625 7.65625 7.65625Z" fill="#151A6A"></path><path d="M7.65625 12.0312H14.2188C14.5088 12.0312 14.787 11.916 14.9921 11.7109C15.1973 11.5058 15.3125 11.2276 15.3125 10.9375C15.3125 10.6474 15.1973 10.3692 14.9921 10.1641C14.787 9.95898 14.5088 9.84375 14.2188 9.84375H7.65625C7.36617 9.84375 7.08797 9.95898 6.88285 10.1641C6.67773 10.3692 6.5625 10.6474 6.5625 10.9375C6.5625 11.2276 6.67773 11.5058 6.88285 11.7109C7.08797 11.916 7.36617 12.0312 7.65625 12.0312Z" fill="#151A6A"></path><path d="M18.5938 44.8438H7.65625C7.36617 44.8438 7.08797 44.959 6.88285 45.1641C6.67773 45.3692 6.5625 45.6474 6.5625 45.9375C6.5625 46.2276 6.67773 46.5058 6.88285 46.7109C7.08797 46.916 7.36617 47.0312 7.65625 47.0312H18.5938C18.8838 47.0312 19.162 46.916 19.3671 46.7109C19.5723 46.5058 19.6875 46.2276 19.6875 45.9375C19.6875 45.6474 19.5723 45.3692 19.3671 45.1641C19.162 44.959 18.8838 44.8438 18.5938 44.8438Z" fill="#151A6A"></path><path d="M7.65625 42.6562H14.2188C14.5088 42.6562 14.787 42.541 14.9921 42.3359C15.1973 42.1308 15.3125 41.8526 15.3125 41.5625C15.3125 41.2724 15.1973 40.9942 14.9921 40.7891C14.787 40.584 14.5088 40.4688 14.2188 40.4688H7.65625C7.36617 40.4688 7.08797 40.584 6.88285 40.7891C6.67773 40.9942 6.5625 41.2724 6.5625 41.5625C6.5625 41.8526 6.67773 42.1308 6.88285 42.3359C7.08797 42.541 7.36617 42.6562 7.65625 42.6562Z" fill="#151A6A"></path></svg>
</g>
</svg>
