<svg xmlns="http://www.w3.org/2000/svg" id="Capa_1" x="0px" y="0px" viewBox="0 0 140 140">
<style type="text/css">
.st0{fill:none;stroke:#5FBCD3;stroke-width:2;}
.st1{fill:#B5E7F3;}
.st2{fill:#151A6A;}
</style>
<circle class="st0" cx="70" cy="70" r="69"/>
<g transform="translate(35,35) scale(1)">
<svg xmlns="http://www.w3.org/2000/svg" width="70" height="70" viewBox="0 0 70 70" fill="none"><path d="M56.875 48.6719C58.0831 48.6719 59.0625 47.6925 59.0625 46.4844C59.0625 45.2763 58.0831 44.2969 56.875 44.2969C55.6669 44.2969 54.6875 45.2763 54.6875 46.4844C54.6875 47.6925 55.6669 48.6719 56.875 48.6719Z" fill="#B5E7F3"></path><path d="M41.5625 55.2344C42.7706 55.2344 43.75 54.255 43.75 53.0469C43.75 51.8388 42.7706 50.8594 41.5625 50.8594C40.3544 50.8594 39.375 51.8388 39.375 53.0469C39.375 54.255 40.3544 55.2344 41.5625 55.2344Z" fill="#B5E7F3"></path><path d="M53.5939 33.578C52.439 31.9088 50.6691 30.7658 48.6726 30.3998C46.6761 30.0338 44.6159 30.4747 42.944 31.6257C42.7196 31.7961 42.5697 32.0465 42.5253 32.3247C42.481 32.6029 42.5458 32.8875 42.7061 33.1192C42.8664 33.3508 43.1099 33.5117 43.3859 33.5682C43.6619 33.6248 43.9491 33.5727 44.1876 33.4227C44.7787 33.0149 45.4444 32.7275 46.1466 32.5769C46.8488 32.4263 47.5738 32.4155 48.2802 32.5451C48.9865 32.6747 49.6605 32.9421 50.2635 33.3322C50.8665 33.7222 51.3868 34.2272 51.7946 34.8183C51.9647 35.0428 52.2148 35.193 52.4928 35.2377C52.7708 35.2825 53.0554 35.2182 53.2872 35.0584C53.5191 34.8986 53.6803 34.6555 53.7375 34.3797C53.7946 34.104 53.7431 33.8168 53.5939 33.578Z" fill="#B5E7F3"></path><path d="M45.9375 21.3281C41.3947 21.3281 36.9539 22.6752 33.1768 25.1991C29.3996 27.7229 26.4556 31.3101 24.7172 35.5071C22.9787 39.7041 22.5238 44.3224 23.4101 48.7779C24.2964 53.2334 26.4839 57.326 29.6962 60.5382C32.9084 63.7505 37.001 65.938 41.4565 66.8243C45.912 67.7105 50.5303 67.2557 54.7273 65.5172C58.9243 63.7788 62.5115 60.8348 65.0353 57.0576C67.5592 53.2804 68.9063 48.8397 68.9063 44.2969C68.8993 38.2073 66.4772 32.3692 62.1712 28.0632C57.8652 23.7572 52.0271 21.3351 45.9375 21.3281ZM34.4531 43.2031C33.9123 43.2031 33.3837 43.0428 32.934 42.7423C32.4843 42.4418 32.1339 42.0148 31.9269 41.5151C31.7199 41.0155 31.6658 40.4657 31.7713 39.9353C31.8768 39.4049 32.1372 38.9177 32.5196 38.5353C32.902 38.1528 33.3893 37.8924 33.9197 37.7869C34.4501 37.6814 34.9999 37.7356 35.4995 37.9425C35.9992 38.1495 36.4262 38.4999 36.7267 38.9496C37.0271 39.3993 37.1875 39.9279 37.1875 40.4688C37.1875 41.194 36.8994 41.8895 36.3866 42.4022C35.8738 42.915 35.1783 43.2031 34.4531 43.2031ZM45.9375 53.0469C45.9318 53.4399 45.8725 53.8303 45.7614 54.2073L46.8453 54.8341C46.9707 54.9054 47.0808 55.0007 47.1691 55.1147C47.2575 55.2287 47.3225 55.3591 47.3603 55.4983C47.3981 55.6375 47.408 55.7828 47.3894 55.9259C47.3708 56.0689 47.3241 56.2068 47.2519 56.3318C47.1798 56.4567 47.0837 56.5661 46.9691 56.6537C46.8545 56.7413 46.7237 56.8054 46.5843 56.8423C46.4448 56.8792 46.2995 56.8881 46.1566 56.8685C46.0136 56.849 45.876 56.8014 45.7516 56.7284L44.6797 56.1094C44.1223 56.671 43.423 57.0709 42.6563 57.2666V58.5156C42.6563 58.8057 42.541 59.0839 42.3359 59.289C42.1308 59.4941 41.8526 59.6094 41.5625 59.6094C41.2724 59.6094 40.9942 59.4941 40.7891 59.289C40.584 59.0839 40.4688 58.8057 40.4688 58.5156V57.2666C39.702 57.0709 39.0027 56.671 38.4453 56.1094L37.3734 56.7284C37.249 56.8014 37.1114 56.849 36.9685 56.8685C36.8255 56.8881 36.6802 56.8792 36.5407 56.8423C36.4013 56.8054 36.2705 56.7413 36.1559 56.6537C36.0413 56.5661 35.9452 56.4567 35.8731 56.3318C35.801 56.2068 35.7543 56.0689 35.7357 55.9259C35.7171 55.7828 35.727 55.6375 35.7647 55.4983C35.8025 55.3591 35.8675 55.2287 35.9559 55.1147C36.0443 55.0007 36.1543 54.9054 36.2797 54.8341L37.3636 54.2073C37.1288 53.4515 37.1288 52.6422 37.3636 51.8864L36.2797 51.2597C36.0305 51.1136 35.8493 50.8749 35.7754 50.5957C35.7016 50.3165 35.7412 50.0194 35.8856 49.7692C36.0301 49.5191 36.2675 49.3363 36.5463 49.2606C36.825 49.1849 37.1224 49.2226 37.3734 49.3653L38.4453 49.9844C39.0027 49.4228 39.702 49.0228 40.4688 48.8272V47.5781C40.4688 47.288 40.584 47.0098 40.7891 46.8047C40.9942 46.5996 41.2724 46.4844 41.5625 46.4844C41.8526 46.4844 42.1308 46.5996 42.3359 46.8047C42.541 47.0098 42.6563 47.288 42.6563 47.5781V48.8272C43.423 49.0228 44.1223 49.4228 44.6797 49.9844L45.7516 49.3653C46.0027 49.2226 46.3 49.1849 46.5787 49.2606C46.8575 49.3363 47.095 49.5191 47.2394 49.7692C47.3838 50.0194 47.4234 50.3165 47.3496 50.5957C47.2758 50.8749 47.0945 51.1136 46.8453 51.2597L45.7614 51.8864C45.8725 52.2634 45.9318 52.6539 45.9375 53.0469ZM49.9844 36.0609C49.7397 35.7062 49.4276 35.4032 49.0658 35.1691C48.704 34.935 48.2996 34.7745 47.8758 34.6967C47.452 34.6189 47.017 34.6254 46.5956 34.7157C46.1743 34.806 45.7749 34.9784 45.4202 35.2231C45.0657 35.4714 44.6655 35.6471 44.2429 35.7401C43.8202 35.833 43.3833 35.8415 42.9573 35.7649C42.5313 35.6883 42.1247 35.5282 41.7609 35.2939C41.3971 35.0595 41.0832 34.7554 40.8374 34.3992C40.5915 34.043 40.4186 33.6417 40.3285 33.2184C40.2384 32.7951 40.233 32.3581 40.3125 31.9327C40.392 31.5073 40.5549 31.1018 40.7917 30.7396C41.0286 30.3773 41.3348 30.0656 41.6927 29.8222C43.8428 28.3425 46.4922 27.7763 49.0593 28.248C51.6264 28.7196 53.9015 30.1905 55.3853 32.3378C55.85 33.0545 56.0168 33.9241 55.8505 34.7619C55.6841 35.5997 55.1976 36.3396 54.4944 36.8243C53.7911 37.3091 52.9266 37.5006 52.0844 37.358C51.2423 37.2155 50.4889 36.7501 49.9844 36.0609ZM62.5625 49.7656C62.4175 50.0168 62.1786 50.2001 61.8984 50.2752C61.6182 50.3503 61.3197 50.311 61.0684 50.1659L59.9966 49.5469C59.4379 50.1092 58.737 50.5091 57.9688 50.7041V51.9531C57.9688 52.2432 57.8535 52.5214 57.6484 52.7265C57.4433 52.9316 57.1651 53.0469 56.875 53.0469C56.5849 53.0469 56.3067 52.9316 56.1016 52.7265C55.8965 52.5214 55.7813 52.2432 55.7813 51.9531V50.7041C55.0145 50.5084 54.3152 50.1085 53.7578 49.5469L52.6859 50.1659C52.5615 50.2389 52.4239 50.2865 52.281 50.306C52.138 50.3256 51.9927 50.3167 51.8532 50.2798C51.7138 50.2429 51.583 50.1788 51.4684 50.0912C51.3538 50.0036 51.2577 49.8942 51.1856 49.7693C51.1135 49.6443 51.0668 49.5064 51.0482 49.3634C51.0296 49.2203 51.0395 49.075 51.0772 48.9358C51.115 48.7966 51.18 48.6662 51.2684 48.5522C51.3568 48.4382 51.4668 48.3429 51.5922 48.2716L52.6761 47.6448C52.4413 46.889 52.4413 46.0797 52.6761 45.3239L51.5922 44.6972C51.4668 44.6259 51.3568 44.5305 51.2684 44.4165C51.18 44.3025 51.115 44.1722 51.0772 44.0329C51.0395 43.8937 51.0296 43.7484 51.0482 43.6054C51.0668 43.4624 51.1135 43.3244 51.1856 43.1995C51.2577 43.0746 51.3538 42.9651 51.4684 42.8775C51.583 42.7899 51.7138 42.7258 51.8532 42.689C51.9927 42.6521 52.138 42.6432 52.281 42.6627C52.4239 42.6822 52.5615 42.7299 52.6859 42.8028L53.7578 43.4219C54.3152 42.8603 55.0145 42.4603 55.7813 42.2647V41.0156C55.7813 40.7255 55.8965 40.4473 56.1016 40.2422C56.3067 40.0371 56.5849 39.9219 56.875 39.9219C57.1651 39.9219 57.4433 40.0371 57.6484 40.2422C57.8535 40.4473 57.9688 40.7255 57.9688 41.0156V42.2647C58.7355 42.4603 59.4348 42.8603 59.9922 43.4219L61.0641 42.8028C61.3152 42.6601 61.6125 42.6224 61.8912 42.6981C62.17 42.7738 62.4075 42.9566 62.5519 43.2067C62.6963 43.4569 62.7359 43.754 62.6621 44.0332C62.5883 44.3124 62.407 44.5511 62.1578 44.6972L61.0739 45.3239C61.3087 46.0797 61.3087 46.889 61.0739 47.6448L62.1578 48.2716C62.2826 48.343 62.392 48.4384 62.4799 48.5522C62.5677 48.6659 62.6323 48.7959 62.6699 48.9347C62.7075 49.0735 62.7174 49.2183 62.6989 49.3609C62.6805 49.5034 62.6341 49.641 62.5625 49.7656Z" fill="#B5E7F3"></path><path d="M33.9062 46.4844H33.6558L31.8861 39.7513C34.4395 38.0695 36.3825 35.6092 37.4265 32.7355C38.4705 29.8618 38.5598 26.7281 37.6813 23.7995C36.8028 20.871 35.0032 18.3039 32.5498 16.4794C30.0964 14.655 27.1199 13.6704 24.0625 13.6719H12.0312V9.29688C12.0312 8.71671 11.8008 8.16031 11.3905 7.75008C10.9803 7.33984 10.4239 7.10938 9.84375 7.10938V4.92188H10.9375C11.2276 4.92188 11.5058 4.80664 11.7109 4.60152C11.916 4.3964 12.0312 4.11821 12.0312 3.82812C12.0312 3.53804 11.916 3.25984 11.7109 3.05473C11.5058 2.84961 11.2276 2.73438 10.9375 2.73438H2.1875C1.89742 2.73438 1.61922 2.84961 1.4141 3.05473C1.20898 3.25984 1.09375 3.53804 1.09375 3.82812C1.09375 4.11821 1.20898 4.3964 1.4141 4.60152C1.61922 4.80664 1.89742 4.92188 2.1875 4.92188H3.28125V7.10938C2.70109 7.10938 2.14469 7.33984 1.73445 7.75008C1.32422 8.16031 1.09375 8.71671 1.09375 9.29688V25.7031C1.09375 26.2833 1.32422 26.8397 1.73445 27.2499C2.14469 27.6602 2.70109 27.8906 3.28125 27.8906V31.1719C3.28125 31.462 3.39648 31.7402 3.6016 31.9453C3.80672 32.1504 4.08492 32.2656 4.375 32.2656H8.75C9.04008 32.2656 9.31828 32.1504 9.5234 31.9453C9.72852 31.7402 9.84375 31.462 9.84375 31.1719V27.8906C10.4239 27.8906 10.9803 27.6602 11.3905 27.2499C11.8008 26.8397 12.0312 26.2833 12.0312 25.7031V20.2344H24.0625C26.0931 20.2344 28.0405 21.041 29.4763 22.4768C30.9121 23.9127 31.7188 25.8601 31.7188 27.8906C31.7188 29.9212 30.9121 31.8686 29.4763 33.3044C28.0405 34.7402 26.0931 35.5469 24.0625 35.5469H2.1875C1.89742 35.5469 1.61922 35.6621 1.4141 35.8672C1.20898 36.0723 1.09375 36.3505 1.09375 36.6406C1.09375 36.9307 1.20898 37.2089 1.4141 37.414C1.61922 37.6191 1.89742 37.7344 2.1875 37.7344H10.9375V46.4844H4.375C3.50476 46.4844 2.67016 46.8301 2.05481 47.4454C1.43945 48.0608 1.09375 48.8954 1.09375 49.7656V51.9531C1.09375 52.2432 1.20898 52.5214 1.4141 52.7265C1.61922 52.9316 1.89742 53.0469 2.1875 53.0469H36.0938C36.3838 53.0469 36.662 52.9316 36.8671 52.7265C37.0723 52.5214 37.1875 52.2432 37.1875 51.9531V49.7656C37.1875 48.8954 36.8418 48.0608 36.2264 47.4454C35.6111 46.8301 34.7765 46.4844 33.9062 46.4844ZM5.46875 4.92188H7.65625V7.10938H5.46875V4.92188ZM7.65625 30.0781H5.46875V27.8906H7.65625V30.0781ZM3.28125 25.7031V9.29688H9.84375V25.7031H3.28125ZM33.9062 27.8906C33.9034 25.2808 32.8653 22.7787 31.0199 20.9332C29.1745 19.0878 26.6723 18.0498 24.0625 18.0469H12.0312V15.8594H24.0625C27.2534 15.8594 30.3136 17.1269 32.5699 19.3832C34.8262 21.6395 36.0938 24.6997 36.0938 27.8906C36.0938 31.0815 34.8262 34.1417 32.5699 36.398C30.3136 38.6543 27.2534 39.9219 24.0625 39.9219H13.125V37.7344H24.0625C26.6723 37.7315 29.1745 36.6934 31.0199 34.848C32.8653 33.0026 33.9034 30.5005 33.9062 27.8906ZM13.125 42.1094H24.0625C26.08 42.1079 28.0739 41.6741 29.9097 40.8373L31.3906 46.4844H13.125V42.1094ZM35 50.8594H3.28125V49.7656C3.28125 49.4755 3.39648 49.1973 3.6016 48.9922C3.80672 48.7871 4.08492 48.6719 4.375 48.6719H33.9062C34.1963 48.6719 34.4745 48.7871 34.6796 48.9922C34.8848 49.1973 35 49.4755 35 49.7656V50.8594Z" fill="#151A6A"></path></svg>
</g>
</svg>
