<svg xmlns="http://www.w3.org/2000/svg" width="70" height="70" viewBox="0 0 70 70" fill="none"><path d="M43.9961 54.6453L37.1067 52.6772L35.9414 54.4257L43.0284 59.6488C43.3581 59.9641 43.7937 60.1449 44.2498 60.1556C44.7059 60.1662 45.1495 60.0061 45.4936 59.7065L52.651 54.4263L51.4857 52.6772L44.5963 54.6453C44.4003 54.7019 44.1922 54.7019 43.9961 54.6453Z" fill="#B5E7F3"></path><path d="M63.9844 22.9688H24.6094C23.7394 22.9697 22.9054 23.3157 22.2902 23.9309C21.6751 24.546 21.3291 25.38 21.3281 26.25V65.625C21.3291 66.4949 21.6751 67.329 22.2902 67.9441C22.9054 68.5593 23.7394 68.9053 24.6094 68.9062H63.9844C64.8543 68.9053 65.6884 68.5593 66.3035 67.9441C66.9187 67.329 67.2647 66.4949 67.2656 65.625V26.25C67.2647 25.38 66.9187 24.546 66.3035 23.9309C65.6884 23.3157 64.8543 22.9697 63.9844 22.9688ZM56.3281 39.375H45.3906V43.75H51.9531C52.2432 43.75 52.5214 43.8652 52.7265 44.0704C52.9316 44.2755 53.0469 44.5537 53.0469 44.8438C53.0469 45.1338 52.9316 45.412 52.7265 45.6171C52.5214 45.8223 52.2432 45.9375 51.9531 45.9375H45.3906V52.1437L51.653 50.3547C51.8758 50.2914 52.113 50.3004 52.3304 50.3803C52.5478 50.4603 52.7343 50.607 52.8632 50.7996L55.0507 54.0808C55.2066 54.3147 55.2665 54.5997 55.218 54.8766C55.1695 55.1536 55.0162 55.4012 54.79 55.5682L46.8636 61.4102C46.132 62.0231 45.2053 62.3542 44.251 62.3436C43.2966 62.333 42.3775 61.9815 41.6597 61.3525L33.8042 55.5682C33.5779 55.4013 33.4245 55.1537 33.3759 54.8768C33.3272 54.5998 33.3871 54.3148 33.5431 54.0808L35.7306 50.7996C35.8592 50.6068 36.0457 50.4599 36.2632 50.38C36.4807 50.3 36.7179 50.2912 36.9408 50.3547L43.2031 52.1437V45.9375H36.6406C36.3505 45.9375 36.0723 45.8223 35.8672 45.6171C35.6621 45.412 35.5469 45.1338 35.5469 44.8438C35.5469 44.5537 35.6621 44.2755 35.8672 44.0704C36.0723 43.8652 36.3505 43.75 36.6406 43.75H43.2031V39.375H32.2656C31.9755 39.375 31.6973 39.2598 31.4922 39.0546C31.2871 38.8495 31.1719 38.5713 31.1719 38.2812C31.1719 37.9912 31.2871 37.713 31.4922 37.5079C31.6973 37.3027 31.9755 37.1875 32.2656 37.1875H43.2031V31.7188H36.6406C36.3505 31.7188 36.0723 31.6035 35.8672 31.3984C35.6621 31.1933 35.5469 30.9151 35.5469 30.625C35.5469 30.3349 35.6621 30.0567 35.8672 29.8516C36.0723 29.6465 36.3505 29.5312 36.6406 29.5312H51.9531C52.2432 29.5312 52.5214 29.6465 52.7265 29.8516C52.9316 30.0567 53.0469 30.3349 53.0469 30.625C53.0469 30.9151 52.9316 31.1933 52.7265 31.3984C52.5214 31.6035 52.2432 31.7188 51.9531 31.7188H45.3906V37.1875H56.3281C56.6182 37.1875 56.8964 37.3027 57.1015 37.5079C57.3066 37.713 57.4219 37.9912 57.4219 38.2812C57.4219 38.5713 57.3066 38.8495 57.1015 39.0546C56.8964 39.2598 56.6182 39.375 56.3281 39.375Z" fill="#B5E7F3"></path><path d="M49.7656 1.09375H6.01562C5.14567 1.0947 4.31163 1.44071 3.69648 2.05585C3.08133 2.671 2.73532 3.50505 2.73438 4.375V44.8438C2.73532 45.7137 3.08133 46.5477 3.69648 47.1629C4.31163 47.778 5.14567 48.1241 6.01562 48.125H17.8797L17.0985 53.5938H13.6719C13.3818 53.5938 13.1036 53.709 12.8985 53.9141C12.6934 54.1192 12.5781 54.3974 12.5781 54.6875C12.5781 54.9776 12.6934 55.2558 12.8985 55.4609C13.1036 55.666 13.3818 55.7812 13.6719 55.7812H43.2031C43.4932 55.7812 43.7714 55.666 43.9765 55.4609C44.1816 55.2558 44.2969 54.9776 44.2969 54.6875C44.2969 54.3974 44.1816 54.1192 43.9765 53.9141C43.7714 53.709 43.4932 53.5938 43.2031 53.5938H39.7771L38.9958 48.125H49.7656C50.6356 48.1241 51.4696 47.778 52.0848 47.1629C52.6999 46.5477 53.0459 45.7137 53.0469 44.8438V4.375C53.0459 3.50505 52.6999 2.671 52.0848 2.05585C51.4696 1.44071 50.6356 1.0947 49.7656 1.09375ZM37.5672 53.5938H19.3078L20.0891 48.125H36.7859L37.5672 53.5938ZM50.8594 44.8438C50.8591 45.1337 50.7438 45.4118 50.5387 45.6168C50.3336 45.8219 50.0556 45.9372 49.7656 45.9375H6.01562C5.72566 45.9371 5.44768 45.8218 5.24264 45.6167C5.03761 45.4117 4.92225 45.1337 4.92188 44.8438V4.375C4.92225 4.08504 5.03761 3.80705 5.24264 3.60202C5.44768 3.39698 5.72566 3.28163 6.01562 3.28125H49.7656C50.0556 3.28154 50.3336 3.39687 50.5387 3.60192C50.7438 3.80698 50.8591 4.08501 50.8594 4.375V44.8438Z" fill="#151A6A"></path><path d="M46.4844 6.5625H9.29688C9.00679 6.5625 8.7286 6.67773 8.52348 6.88285C8.31836 7.08797 8.20312 7.36617 8.20312 7.65625V38.2812C8.20312 38.5713 8.31836 38.8495 8.52348 39.0546C8.7286 39.2598 9.00679 39.375 9.29688 39.375H46.4844C46.628 39.375 46.7703 39.3468 46.903 39.2918C47.0357 39.2369 47.1563 39.1563 47.2579 39.0547C47.3594 38.9532 47.44 38.8326 47.4949 38.6999C47.5499 38.5671 47.5782 38.4249 47.5781 38.2812V7.65625C47.5782 7.51261 47.5499 7.37036 47.4949 7.23765C47.44 7.10493 47.3594 6.98434 47.2579 6.88277C47.1563 6.7812 47.0357 6.70063 46.903 6.64568C46.7703 6.59073 46.628 6.56246 46.4844 6.5625ZM28.9844 8.75V13.1811C28.9916 13.3409 29.0325 13.4974 29.1043 13.6404C29.1761 13.7834 29.2772 13.9096 29.4011 14.0109C29.5249 14.1122 29.6687 14.1862 29.8231 14.2282C29.9775 14.2702 30.139 14.2791 30.2971 14.2545C30.7577 14.1983 31.225 14.2605 31.6548 14.4353C32.0847 14.6101 32.4628 14.8917 32.7534 15.2535C33.0439 15.6153 33.2374 16.0452 33.3154 16.5026C33.3934 16.96 33.3534 17.4298 33.1991 17.8674C33.0449 18.305 32.7815 18.696 32.4339 19.0034C32.0863 19.3108 31.666 19.5244 31.2128 19.624C30.7596 19.7236 30.2884 19.7058 29.844 19.5725C29.3996 19.4391 28.9965 19.1945 28.673 18.8618C28.571 18.7577 28.4493 18.675 28.315 18.6185C28.1806 18.5621 28.0364 18.533 27.8906 18.533C27.7449 18.533 27.6006 18.5621 27.4663 18.6185C27.3319 18.675 27.2102 18.7577 27.1082 18.8618C26.855 19.1236 26.5517 19.3316 26.2163 19.4734C25.8809 19.6153 25.5204 19.6881 25.1562 19.6875C24.7811 19.6886 24.4098 19.6122 24.0655 19.4632C23.7213 19.3141 23.4114 19.0957 23.1555 18.8214C22.8995 18.5472 22.7029 18.2231 22.5779 17.8694C22.4529 17.5157 22.4023 17.14 22.4291 16.7658C22.456 16.3916 22.5598 16.027 22.734 15.6948C22.9082 15.3625 23.1491 15.0698 23.4416 14.835C23.7342 14.6001 24.072 14.4282 24.434 14.3298C24.7961 14.2315 25.1745 14.209 25.5456 14.2636C25.7009 14.2862 25.8593 14.2751 26.01 14.231C26.1606 14.187 26.3 14.111 26.4187 14.0083C26.5374 13.9057 26.6326 13.7786 26.6979 13.6359C26.7631 13.4931 26.7969 13.338 26.7969 13.1811V8.75H28.9844ZM26.7969 37.1875V32.7564C26.7897 32.5966 26.7489 32.44 26.6772 32.297C26.6054 32.1539 26.5043 32.0276 26.3804 31.9263C26.2565 31.825 26.1127 31.751 25.9582 31.7091C25.8038 31.6671 25.6423 31.6582 25.4842 31.683C25.0236 31.7392 24.5562 31.677 24.1264 31.5022C23.6966 31.3274 23.3185 31.0458 23.0279 30.684C22.7373 30.3222 22.5438 29.8923 22.4658 29.4349C22.3878 28.9775 22.4279 28.5077 22.5821 28.0701C22.7364 27.6325 22.9998 27.2415 23.3474 26.9341C23.695 26.6267 24.1153 26.4131 24.5685 26.3135C25.0217 26.2139 25.4928 26.2317 25.9372 26.365C26.3817 26.4984 26.7847 26.743 27.1082 27.0757C27.3184 27.2781 27.5988 27.3913 27.8906 27.3913C28.1824 27.3913 28.4629 27.2781 28.673 27.0757C28.9262 26.8139 29.2296 26.6059 29.5649 26.4641C29.9003 26.3222 30.2609 26.2494 30.625 26.25C31.0001 26.2489 31.3715 26.3253 31.7157 26.4743C32.06 26.6234 32.3698 26.8418 32.6258 27.1161C32.8818 27.3903 33.0784 27.7144 33.2034 28.0681C33.3284 28.4218 33.379 28.7975 33.3521 29.1717C33.3253 29.5459 33.2215 29.9105 33.0473 30.2427C32.873 30.5749 32.6321 30.8677 32.3396 31.1025C32.0471 31.3374 31.7092 31.5093 31.3472 31.6077C30.9852 31.706 30.6068 31.7285 30.2356 31.6739C30.0803 31.6514 29.922 31.6625 29.7713 31.7065C29.6207 31.7506 29.4813 31.8265 29.3626 31.9292C29.2439 32.0319 29.1487 32.1589 29.0834 32.3017C29.0182 32.4444 28.9844 32.5995 28.9844 32.7564V37.1875H26.7969ZM45.3906 37.1875H31.1719V33.8758C32.4221 33.7361 33.5714 33.123 34.3837 32.1624C35.196 31.2018 35.6096 29.9666 35.5396 28.7105C35.4696 27.4545 34.9213 26.2729 34.0073 25.4085C33.0933 24.544 31.883 24.0624 30.625 24.0625C29.6509 24.0598 28.6985 24.3492 27.8906 24.8935C27.0828 24.3492 26.1303 24.0598 25.1562 24.0625C23.8982 24.0624 22.6879 24.544 21.774 25.4085C20.86 26.2729 20.3117 27.4545 20.2417 28.7105C20.1717 29.9666 20.5853 31.2018 21.3976 32.1624C22.2099 33.123 23.3591 33.7361 24.6094 33.8758V37.1875H10.3906V8.75H24.6094V12.0617C23.3591 12.2014 22.2099 12.8145 21.3976 13.7751C20.5853 14.7357 20.1717 15.9709 20.2417 17.227C20.3117 18.483 20.86 19.6646 21.774 20.529C22.6879 21.3935 23.8982 21.8751 25.1562 21.875C26.1303 21.8777 27.0828 21.5883 27.8906 21.044C28.6985 21.5883 29.6509 21.8777 30.625 21.875C31.883 21.8751 33.0933 21.3935 34.0073 20.529C34.9213 19.6646 35.4696 18.483 35.5396 17.227C35.6096 15.9709 35.196 14.7357 34.3837 13.7751C33.5714 12.8145 32.4221 12.2014 31.1719 12.0617V8.75H45.3906V37.1875Z" fill="#151A6A"></path><path d="M28.9844 41.5625H26.7969C26.5068 41.5625 26.2286 41.6777 26.0235 41.8829C25.8184 42.088 25.7031 42.3662 25.7031 42.6562C25.7031 42.9463 25.8184 43.2245 26.0235 43.4296C26.2286 43.6348 26.5068 43.75 26.7969 43.75H28.9844C29.2745 43.75 29.5527 43.6348 29.7578 43.4296C29.9629 43.2245 30.0781 42.9463 30.0781 42.6562C30.0781 42.3662 29.9629 42.088 29.7578 41.8829C29.5527 41.6777 29.2745 41.5625 28.9844 41.5625Z" fill="#151A6A"></path><path d="M18.0469 41.5625H15.8594C15.5693 41.5625 15.2911 41.6777 15.086 41.8829C14.8809 42.088 14.7656 42.3662 14.7656 42.6562C14.7656 42.9463 14.8809 43.2245 15.086 43.4296C15.2911 43.6348 15.5693 43.75 15.8594 43.75H18.0469C18.337 43.75 18.6152 43.6348 18.8203 43.4296C19.0254 43.2245 19.1406 42.9463 19.1406 42.6562C19.1406 42.3662 19.0254 42.088 18.8203 41.8829C18.6152 41.6777 18.337 41.5625 18.0469 41.5625Z" fill="#151A6A"></path><path d="M39.9219 41.5625H37.7344C37.4443 41.5625 37.1661 41.6777 36.961 41.8829C36.7559 42.088 36.6406 42.3662 36.6406 42.6562C36.6406 42.9463 36.7559 43.2245 36.961 43.4296C37.1661 43.6348 37.4443 43.75 37.7344 43.75H39.9219C40.212 43.75 40.4902 43.6348 40.6953 43.4296C40.9004 43.2245 41.0156 42.9463 41.0156 42.6562C41.0156 42.3662 40.9004 42.088 40.6953 41.8829C40.4902 41.6777 40.212 41.5625 39.9219 41.5625Z" fill="#151A6A"></path></svg>