<svg xmlns="http://www.w3.org/2000/svg" width="71" height="71" viewBox="0 0 71 71" fill="none"><g clip-path="url(#clip0_174_22)"><path d="M0.00662609 20.3347C-0.245123 13.5991 5.07562 7.22721 11.7504 6.06869L46.7979 0.208713C53.425 -1.16535 59.8412 4.43867 61.4606 10.4401L70.5371 47.5802C72.5784 54.2552 67.6386 61.1525 60.6849 61.8462L17.806 70.8517C11.0087 71.8216 3.0072 68.0901 2.36082 60.6203L0.00662609 20.3347Z" fill="#009FDA"></path><path d="M46 31H40V25C40 24.4696 39.7893 23.9609 39.4142 23.5858C39.0391 23.2107 38.5304 23 38 23H32C31.4696 23 30.9609 23.2107 30.5858 23.5858C30.2107 23.9609 30 24.4696 30 25V31H24C23.4696 31 22.9609 31.2107 22.5858 31.5858C22.2107 31.9609 22 32.4696 22 33V39C22 39.5304 22.2107 40.0391 22.5858 40.4142C22.9609 40.7893 23.4696 41 24 41H30V47C30 47.5304 30.2107 48.0391 30.5858 48.4142C30.9609 48.7893 31.4696 49 32 49H38C38.5304 49 39.0391 48.7893 39.4142 48.4142C39.7893 48.0391 40 47.5304 40 47V41H46C46.5304 41 47.0391 40.7893 47.4142 40.4142C47.7893 40.0391 48 39.5304 48 39V33C48 32.4696 47.7893 31.9609 47.4142 31.5858C47.0391 31.2107 46.5304 31 46 31ZM46 39H39C38.7348 39 38.4804 39.1054 38.2929 39.2929C38.1054 39.4804 38 39.7348 38 40V47H32V40C32 39.7348 31.8946 39.4804 31.7071 39.2929C31.5196 39.1054 31.2652 39 31 39H24V33H31C31.2652 33 31.5196 32.8946 31.7071 32.7071C31.8946 32.5196 32 32.2652 32 32V25H38V32C38 32.2652 38.1054 32.5196 38.2929 32.7071C38.4804 32.8946 38.7348 33 39 33H46V39Z" fill="white"></path></g><defs><clipPath id="clip0_174_22"><rect width="71" height="71" fill="white"></rect></clipPath></defs></svg>