<svg xmlns="http://www.w3.org/2000/svg" width="71" height="71" viewBox="0 0 71 71" fill="none"><g clip-path="url(#clip0_174_14)"><path d="M0.00662609 20.3347C-0.245123 13.5991 5.07562 7.22721 11.7504 6.06869L46.7979 0.208713C53.425 -1.16535 59.8412 4.43867 61.4606 10.4401L70.5371 47.5802C72.5784 54.2552 67.6386 61.1525 60.6849 61.8462L17.806 70.8517C11.0087 71.8216 3.0072 68.0901 2.36082 60.6203L0.00662609 20.3347Z" fill="#009FDA"></path><path d="M47 26H23C22.7348 26 22.4804 26.1054 22.2929 26.2929C22.1054 26.4804 22 26.7348 22 27V44C22 44.5304 22.2107 45.0391 22.5858 45.4142C22.9609 45.7893 23.4696 46 24 46H46C46.5304 46 47.0391 45.7893 47.4142 45.4142C47.7893 45.0391 48 44.5304 48 44V27C48 26.7348 47.8946 26.4804 47.7071 26.2929C47.5196 26.1054 47.2652 26 47 26ZM35 36.6437L25.5712 28H44.4287L35 36.6437ZM31.3387 36L24 42.7262V29.2738L31.3387 36ZM32.8188 37.3563L34.3188 38.7375C34.5032 38.9069 34.7446 39.0008 34.995 39.0008C35.2454 39.0008 35.4868 38.9069 35.6712 38.7375L37.1712 37.3563L44.4212 44H25.5712L32.8188 37.3563ZM38.6612 36L46 29.2725V42.7275L38.6612 36Z" fill="white"></path></g><defs><clipPath id="clip0_174_14"><rect width="71" height="71" fill="white"></rect></clipPath></defs></svg>