<svg xmlns="http://www.w3.org/2000/svg" width="71" height="71" viewBox="0 0 71 71" fill="none"><g clip-path="url(#clip0_17_389)"><path d="M0.00662609 20.3347C-0.245123 13.5991 5.07562 7.22721 11.7504 6.06869L46.7979 0.208713C53.425 -1.16535 59.8412 4.43867 61.4606 10.4401L70.5371 47.5802C72.5784 54.2552 67.6386 61.1525 60.6849 61.8462L17.806 70.8517C11.0087 71.8216 3.0072 68.0901 2.36082 60.6203L0.00662609 20.3347Z" fill="#009FDA"></path><path d="M33.97 47.2426C33.9159 47.459 33.7911 47.651 33.6154 47.7883C33.4396 47.9255 33.223 48.0001 33 48.0001C32.9158 48.0005 32.8318 47.9905 32.75 47.9701L28.75 46.9701C28.6387 46.9422 28.5329 46.8952 28.4375 46.8314L25.4375 44.8314C25.2169 44.6842 25.0638 44.4554 25.0118 44.1953C24.9599 43.9352 25.0134 43.6651 25.1606 43.4445C25.3078 43.2239 25.5366 43.0708 25.7967 43.0188C26.0568 42.9669 26.3269 43.0204 26.5475 43.1676L29.4025 45.0714L33.235 46.0301C33.3631 46.0612 33.4837 46.1172 33.59 46.195C33.6964 46.2729 33.7863 46.3709 33.8546 46.4836C33.9229 46.5963 33.9682 46.7213 33.988 46.8516C34.0078 46.9819 34.0017 47.1148 33.97 47.2426ZM50.5563 35.1851C50.4742 35.4344 50.3436 35.6649 50.172 35.8633C50.0003 36.0618 49.7911 36.2243 49.5563 36.3414L46.5963 37.8214L39.7113 44.7076C39.5891 44.8297 39.4373 44.9181 39.2709 44.9641C39.1044 45.0101 38.9288 45.0122 38.7613 44.9701L30.7613 42.9701C30.6396 42.9396 30.5247 42.8866 30.4225 42.8139L23.4825 37.8589L20.4475 36.3414C19.9732 36.1043 19.6124 35.6885 19.4446 35.1854C19.2768 34.6824 19.3156 34.1333 19.5525 33.6589L22.6588 27.4476C22.8959 26.9733 23.3117 26.6126 23.8147 26.4447C24.3177 26.2769 24.8668 26.3157 25.3413 26.5526L28.0988 27.9276L34.7238 26.0351C34.9035 25.9837 35.094 25.9837 35.2738 26.0351L41.8988 27.9276L44.6563 26.5526C45.1307 26.3157 45.6798 26.2769 46.1828 26.4447C46.6859 26.6126 47.1017 26.9733 47.3388 27.4476L50.445 33.6589C50.5635 33.8933 50.6343 34.1489 50.6534 34.4109C50.6725 34.6728 50.6395 34.936 50.5563 35.1851ZM44.7838 36.8026L41.3825 30.0001H37.405L32 35.2501C33.5825 36.2614 36.0638 36.5401 38.29 34.2964C38.4639 34.1211 38.6964 34.0164 38.9429 34.0023C39.1894 33.9882 39.4323 34.0658 39.625 34.2201L43.9263 37.6664L44.7838 36.8026ZM21.3413 34.5526L23.5525 35.6589L26.6588 29.4476L24.4475 28.3414L21.3413 34.5526ZM42.5 39.0826L39.0363 36.3089C36.5938 38.3089 33.4925 38.5726 30.9225 36.9339C30.6697 36.7731 30.4563 36.5575 30.298 36.3031C30.1396 36.0488 30.0405 35.7621 30.0079 35.4642C29.9752 35.1664 30.0099 34.8651 30.1094 34.5824C30.2088 34.2998 30.3705 34.0431 30.5825 33.8314C30.5855 33.8277 30.5889 33.8244 30.5925 33.8214L36.2 28.3826L35 28.0401L28.6975 29.8414L25.2763 36.6826L31.4263 41.0764L38.6938 42.8926L42.5 39.0826ZM48.655 34.5526L45.5525 28.3414L43.3413 29.4476L46.4475 35.6589L48.655 34.5526Z" fill="white"></path></g><defs><clipPath id="clip0_17_389"><rect width="71" height="71" fill="white"></rect></clipPath></defs></svg>