<svg xmlns="http://www.w3.org/2000/svg" width="71" height="71" viewBox="0 0 71 71" fill="none"><g clip-path="url(#clip0_17_393)"><path d="M0.00687023 20.3347C-0.244879 13.5991 5.07587 7.22721 11.7506 6.06869L46.7981 0.208713C53.4253 -1.16535 59.8415 4.43867 61.4608 10.4401L70.5374 47.5802C72.5786 54.2552 67.6389 61.1525 60.6852 61.8462L17.8062 70.8517C11.009 71.8216 3.00745 68.0901 2.36106 60.6203L0.00687023 20.3347Z" fill="#009FDA"></path><path d="M35 23C32.4288 23 29.9154 23.7624 27.7776 25.1909C25.6398 26.6194 23.9735 28.6497 22.9896 31.0251C22.0056 33.4006 21.7482 36.0144 22.2498 38.5362C22.7514 41.0579 23.9895 43.3743 25.8076 45.1924C27.6257 47.0105 29.9421 48.2486 32.4638 48.7502C34.9856 49.2518 37.5995 48.9944 39.9749 48.0104C42.3503 47.0265 44.3807 45.3603 45.8091 43.2224C47.2376 41.0846 48 38.5712 48 36C47.9964 32.5533 46.6256 29.2488 44.1884 26.8116C41.7512 24.3744 38.4467 23.0036 35 23ZM45.9538 35H42.935C42.7105 33.2391 41.9077 31.6027 40.6525 30.3475C39.3973 29.0923 37.7609 28.2895 36 28.065V25.0462C38.5599 25.2833 40.9562 26.4081 42.7741 28.2259C44.5919 30.0438 45.7168 32.4401 45.9538 35ZM34 35H29.085C29.2943 33.7726 29.8797 32.6405 30.7601 31.7601C31.6405 30.8797 32.7726 30.2943 34 30.085V35ZM34 37V41.915C32.7726 41.7057 31.6405 41.1203 30.7601 40.2399C29.8797 39.3595 29.2943 38.2274 29.085 37H34ZM36 37H40.915C40.7057 38.2274 40.1204 39.3595 39.2399 40.2399C38.3595 41.1203 37.2274 41.7057 36 41.915V37ZM36 35V30.085C37.2274 30.2943 38.3595 30.8797 39.2399 31.7601C40.1204 32.6405 40.7057 33.7726 40.915 35H36ZM34 25.0462V28.065C32.2392 28.2895 30.6027 29.0923 29.3475 30.3475C28.0923 31.6027 27.2895 33.2391 27.065 35H24.0463C24.2833 32.4401 25.4081 30.0438 27.2259 28.2259C29.0438 26.4081 31.4401 25.2833 34 25.0462ZM24.0463 37H27.065C27.2895 38.7609 28.0923 40.3973 29.3475 41.6525C30.6027 42.9077 32.2392 43.7105 34 43.935V46.9538C31.4401 46.7167 29.0438 45.5919 27.2259 43.7741C25.4081 41.9562 24.2833 39.5599 24.0463 37ZM36 46.9538V43.935C37.7609 43.7105 39.3973 42.9077 40.6525 41.6525C41.9077 40.3973 42.7105 38.7609 42.935 37H45.9538C45.7168 39.5599 44.5919 41.9562 42.7741 43.7741C40.9562 45.5919 38.5599 46.7167 36 46.9538Z" fill="white"></path></g><defs><clipPath id="clip0_17_393"><rect width="71" height="71" fill="white"></rect></clipPath></defs></svg>