<svg xmlns="http://www.w3.org/2000/svg" viewBox="0 0 504 698"><defs><style>.cls-1{fill:#d3d3d3;}.cls-2{fill:#009fda;}.cls-3{fill:#fff;}</style></defs><g id="Capa_2" data-name="Capa 2"><g id="Layer_1" data-name="Layer 1"><rect class="cls-1" width="504" height="698"></rect><path class="cls-2" d="M346.12,96.36s28.44,14.26,3,67.93c0,0,2.55.91.6,10.31s-2.4,31.08-10.93,31.84c0,0-3.74,29.72-24.1,43.67l-3.3,12.73,13.48,13.65s46.11,23.05,57.19,35.18c0,0,6.58.3,19.46,19.71s12.57,15.16,11.38,24.86,4.19,56.41,4.19,56.41,4.79,47,2.09,68.23l9.58,28.2L398.51,634.62l.9,63.38h-288s-3-28.5,0-47.31c0,0-18.57-13.54-22.56-19s-16.17-8.09-19-11.72-7.59-3.85-7.59-3.85-35.33-53.67-10.18-90.06A23.78,23.78,0,0,0,56,510.59c-.9-9.09,2.39-21.83,1.19-32.44s6-65.81,11.08-89.16,4.49-31.53,6.89-33.35,5.69-19.71,10.18-19.71c0,0,11.67-22.75,41.92-36.7,0,0,41.31-27.89,56.29-28.2l18.86-29.72s14.67-1.51,24.25,0c0,0,6.29-30-.3-42.75,0,0-17.66,1.82-14.37-21.84,0,0-2.1-24.86,5.09-25.47,0,0-8.38-25.78,15.57-60.65,0,0,1.8-16.37,14.37-20.32,0,0,11.68-14.85,26.05-11.22,0,0,13.47-6.36,23.35-3.63s24-1.82,31.44,5.15S350,79.38,346.12,96.36Z"></path><path class="cls-3" d="M384.84,443.88c-3.59-5-8.85,3.15-8.87,3.18a26.32,26.32,0,0,1-6,1.54c2.87-6.06,1.83-16.72-.51-25.88-3.8-15-6.65-32-7.62-38.16h.09l-2.33-16.46.95-.09c-.15-1.63-3.88-38.48-22.52-41.75-1.19-9.86-7.61-54.11-25.54-67.71l-1.12,4.3c15.87,12.05,21,52.9,22,63.3a10.7,10.7,0,0,0-7.59,4.41c-6.86,9.61.36,31,1.21,33.46l.51-.19,4.09,18.36,1.1-.31,15.86,51.92c.1.44,2.61,10.78,11.16,15.07a16.71,16.71,0,0,0,6.33,1.73c-2.81,2-7.38,1-13.3-2.8-3.26-5.61-6.1-6.38-7.9-6a3.14,3.14,0,0,0-2.48,3.48c.62,4.28,9.39,4.41,9.39,4.41l.13-.2c4.2,2.67,7.8,4,10.75,4a7.68,7.68,0,0,0,4.49-1.34,7.94,7.94,0,0,0,1.6-1.52,27.18,27.18,0,0,0,7.88-1.79h0C387.76,450.54,384.84,443.88,384.84,443.88Zm-34.48-10.59-15.85-51.93.25-.07-4.15-18.58.78-.28c-2.07-5.91-6.43-22.65-1.82-29.12,1.29-1.8,3.26-2.65,6-2.58,13.74.31,19.32,27.33,20.31,37.72l.91-.09L359.18,385l.82-.12c1,6.17,3.84,23.32,7.67,38.36,2.95,11.59,2.91,21.12.08,25.57a15.26,15.26,0,0,1-7.18-1.59C352.81,443.29,350.4,433.45,350.36,433.29Z"></path><path class="cls-3" d="M200.14,308.18c2.76,61.87,2.79,113.35,2.79,113.87h1.2v13.19H200.6v-.84a2,2,0,1,0-4,0v20.32a2,2,0,0,0,4,.53h7.33v4.28a3,3,0,0,0,3,3h2.09a3,3,0,0,0,3-3V431a3,3,0,0,0-3-3h-2.09a3,3,0,0,0-3,3v-8.91h1.6c0-.52,0-52.14-2.8-114.17C204,249.34,226.74,243,227,242.89l.81-8C226.59,235.12,197.25,243.48,200.14,308.18Z"></path><path class="cls-3" d="M341.75,604.24l-.12.06Z"></path><path class="cls-3" d="M460.29,512.72v-2.43H419.17v3.94h-48.8L305.7,586.41a21.55,21.55,0,0,1-6.59,9.09c5.69-2.42,26.65-.91,26.65-.91S342.82,591.26,344,597c1.07,5.14-1.67,6.9-2.27,7.22.95-.47,7.34-3.32,7.06,3.7-.3,7.58-10.18,10.31-10.18,10.31,5.39,6.36-12.57,12.43-12.57,12.43-2.7,3.34-11.68,8.79-11.68,8.79L396,633.71,504,513.93Z"></path><path class="cls-3" d="M383.84,423.26s-.6-21.23,3.2-24.06h2.79s1,14.76,0,24.06-1.6,18.6-1.6,18.6H386l1-18.4Z"></path></g></g></svg>