<svg xmlns="http://www.w3.org/2000/svg" viewBox="0 0 558.74 558.74"><defs><style>.cls-1{fill:#e4f2f2;}</style></defs><g id="Capa_2" data-name="Capa 2"><g id="Capa_1-2" data-name="Capa 1"><path class="cls-1" d="M418.68,137.24c0-.2.09-.36.09-.57C418.77,55.91,357.42,0,279.37,0,200.94,0,140,55.91,140,136.67c0,.22.16.35.16.57h39.62c0-.22-.17-.35-.17-.57,0-57.85,44.65-95.13,99.78-95.13s99.79,37.67,99.79,95.13c0,.22-.17.35-.17.57Z"></path><path class="cls-1" d="M418.68,421.51c0,.19.09.35.09.56,0,80.76-61.35,136.67-139.4,136.67C200.94,558.74,140,502.83,140,422.07c0-.22.16-.35.16-.56h39.62c0,.21-.17.34-.17.56,0,57.86,44.65,95.13,99.78,95.13s99.79-37.67,99.79-95.13c0-.22-.17-.35-.17-.56Z"></path><path class="cls-1" d="M137.24,140.06c-.2,0-.36-.09-.57-.09C55.91,140,0,201.32,0,279.37c0,78.43,55.91,139.4,136.67,139.4.22,0,.35-.16.57-.16V379c-.22,0-.35.17-.57.17-57.85,0-95.13-44.65-95.13-99.79s37.67-99.79,95.13-99.79c.22,0,.35.17.57.17Z"></path><path class="cls-1" d="M421.51,140.06c.19,0,.35-.09.56-.09,80.76,0,136.67,61.35,136.67,139.4,0,78.43-55.91,139.4-136.67,139.4-.22,0-.35-.16-.56-.16V379c.21,0,.34.17.56.17,57.86,0,95.13-44.65,95.13-99.79s-37.67-99.79-95.13-99.79c-.22,0-.35.17-.56.17Z"></path></g></g></svg>