<svg xmlns="http://www.w3.org/2000/svg" viewBox="0 0 71 71"><defs><style>.cls-1{fill:#5fbcd3;}.cls-2{fill:#fff;}</style></defs><g id="Capa_2" data-name="Capa 2"><g id="Capa_1-2" data-name="Capa 1"><path class="cls-1" d="M0,20.34A14.47,14.47,0,0,1,11.75,6.07L46.8.21c6.63-1.37,13,4.23,14.66,10.23l9.08,37.14c2,6.68-2.9,13.57-9.85,14.27l-42.88,9C11,71.82,3,68.09,2.36,60.62Z"></path><g id="Layer_3" data-name="Layer 3"><g id="ARC"><path class="cls-2" d="M19.54,42.77h-.12A16.23,16.23,0,0,1,14,41a.83.83,0,0,1-.35-1.12.84.84,0,0,1,1.13-.35,14.74,14.74,0,0,0,4.88,1.6.83.83,0,0,1-.12,1.66Z"></path></g><g id="ARC-2" data-name="ARC"><path class="cls-2" d="M49.22,42.77a.83.83,0,0,1-.12-1.66A14.74,14.74,0,0,0,54,39.51.84.84,0,0,1,54.76,41a16.44,16.44,0,0,1-5.42,1.77Z"></path></g><g id="ARC-3" data-name="ARC"><path class="cls-2" d="M40.51,35.29a.83.83,0,0,1-.7-1.29,6.34,6.34,0,0,1,5.33-2.89.84.84,0,1,1,0,1.67,4.72,4.72,0,0,0-3.94,2.13A.8.8,0,0,1,40.51,35.29Z"></path></g><g id="CIRCLE"><path class="cls-2" d="M47,32.78a5.45,5.45,0,1,1,5.45-5.45A5.53,5.53,0,0,1,47,32.78Zm0-9.23a3.78,3.78,0,1,0,3.78,3.78A3.83,3.83,0,0,0,47,23.55Z"></path></g><g id="ARC-4" data-name="ARC"><path class="cls-2" d="M54.37,38.31a.83.83,0,0,1-.83-.83,4.71,4.71,0,0,0-4.7-4.7.84.84,0,1,1,0-1.67,6.38,6.38,0,0,1,6.37,6.37A.84.84,0,0,1,54.37,38.31Z"></path></g><g id="LINE"><path class="cls-2" d="M48.84,32.78h-3.7a.84.84,0,0,1,0-1.67h3.7a.84.84,0,0,1,0,1.67Z"></path></g><g id="LINE-2" data-name="LINE"><path class="cls-2" d="M54.37,41.08a.83.83,0,0,1-.83-.83V37.48a.83.83,0,0,1,.83-.83.84.84,0,0,1,.84.83v2.77a.84.84,0,0,1-.84.83Z"></path></g><g id="ARC-5" data-name="ARC"><path class="cls-2" d="M24.54,41.7a.84.84,0,0,1-.84-.84,8.22,8.22,0,0,1,8.22-8.21.83.83,0,0,1,.83.83.84.84,0,0,1-.83.84,6.55,6.55,0,0,0-6.55,6.54A.83.83,0,0,1,24.54,41.7Z"></path></g><g id="LINE-3" data-name="LINE"><path class="cls-2" d="M36.84,34.32H31.92a.84.84,0,0,1-.83-.84.83.83,0,0,1,.83-.83h4.92a.83.83,0,0,1,.83.83A.84.84,0,0,1,36.84,34.32Z"></path></g><g id="ARC-6" data-name="ARC"><path class="cls-2" d="M28.25,35.29a.81.81,0,0,1-.69-.38,4.72,4.72,0,0,0-3.94-2.13.84.84,0,1,1,0-1.67A6.34,6.34,0,0,1,29,34a.83.83,0,0,1-.7,1.29Z"></path></g><g id="LINE-4" data-name="LINE"><path class="cls-2" d="M24.54,45.39a.84.84,0,0,1-.84-.83v-3.7a.84.84,0,0,1,.84-.83.83.83,0,0,1,.83.83v3.7A.83.83,0,0,1,24.54,45.39Z"></path></g><g id="CIRCLE-2" data-name="CIRCLE"><path class="cls-2" d="M34.38,34.32a7,7,0,1,1,7-7A7.07,7.07,0,0,1,34.38,34.32Zm0-12.31a5.32,5.32,0,1,0,5.32,5.32A5.4,5.4,0,0,0,34.38,22Z"></path></g><g id="ARC-7" data-name="ARC"><path class="cls-2" d="M44.22,41.7a.83.83,0,0,1-.83-.84,6.55,6.55,0,0,0-6.55-6.54.84.84,0,0,1-.83-.84.83.83,0,0,1,.83-.83,8.22,8.22,0,0,1,8.21,8.21A.83.83,0,0,1,44.22,41.7Z"></path></g><g id="LINE-5" data-name="LINE"><path class="cls-2" d="M44.22,45.39a.83.83,0,0,1-.83-.83v-3.7a.83.83,0,0,1,1.66,0v3.7A.83.83,0,0,1,44.22,45.39Z"></path></g><g id="ARC-8" data-name="ARC"><path class="cls-2" d="M34.38,47.85a21.67,21.67,0,0,1-10.23-2.56.83.83,0,1,1,.78-1.47,20,20,0,0,0,18.9,0,.84.84,0,0,1,1.13.34.85.85,0,0,1-.34,1.13,21.74,21.74,0,0,1-10.24,2.56Z"></path></g><g id="CIRCLE-3" data-name="CIRCLE"><path class="cls-2" d="M21.77,32.78a5.45,5.45,0,1,1,5.45-5.45A5.53,5.53,0,0,1,21.77,32.78Zm0-9.23a3.78,3.78,0,1,0,3.78,3.78A3.83,3.83,0,0,0,21.77,23.55Z"></path></g><g id="ARC-9" data-name="ARC"><path class="cls-2" d="M14.39,38.31a.84.84,0,0,1-.84-.83,6.38,6.38,0,0,1,6.37-6.37.84.84,0,1,1,0,1.67,4.71,4.71,0,0,0-4.7,4.7A.83.83,0,0,1,14.39,38.31Z"></path></g><g id="LINE-6" data-name="LINE"><path class="cls-2" d="M23.62,32.78h-3.7a.84.84,0,0,1,0-1.67h3.7a.84.84,0,0,1,0,1.67Z"></path></g><g id="LINE-7" data-name="LINE"><path class="cls-2" d="M14.39,41.08a.84.84,0,0,1-.84-.83V37.48a.84.84,0,0,1,.84-.83.83.83,0,0,1,.83.83v2.77a.83.83,0,0,1-.83.83Z"></path></g></g></g></g></svg>