<svg xmlns="http://www.w3.org/2000/svg" viewBox="0 0 71 71"><defs><style>.cls-1{fill:#5fbcd3;}.cls-2{fill:#fff;}</style></defs><g id="Capa_2" data-name="Capa 2"><g id="Capa_1-2" data-name="Capa 1"><path class="cls-1" d="M0,20.34A14.47,14.47,0,0,1,11.75,6.07L46.8.21c6.63-1.37,13,4.23,14.66,10.23l9.08,37.14c2,6.68-2.9,13.57-9.85,14.27l-42.88,9C11,71.82,3,68.09,2.36,60.62Z"></path><g id="Layer_3" data-name="Layer 3"><g id="ARC"><path class="cls-2" d="M24.54,41.7a.84.84,0,0,1-.84-.84,8.22,8.22,0,0,1,8.22-8.21.83.83,0,0,1,.83.83.84.84,0,0,1-.83.84,6.55,6.55,0,0,0-6.55,6.54A.83.83,0,0,1,24.54,41.7Z"></path></g><g id="LINE"><path class="cls-2" d="M36.84,34.32H31.92a.84.84,0,0,1-.83-.84.83.83,0,0,1,.83-.83h4.92a.83.83,0,0,1,.83.83A.84.84,0,0,1,36.84,34.32Z"></path></g><g id="LINE-2" data-name="LINE"><path class="cls-2" d="M24.54,45.39a.84.84,0,0,1-.84-.83v-3.7a.84.84,0,0,1,.84-.83.83.83,0,0,1,.83.83v3.7A.83.83,0,0,1,24.54,45.39Z"></path></g><g id="CIRCLE"><path class="cls-2" d="M34.38,34.32a7,7,0,1,1,7-7A7.07,7.07,0,0,1,34.38,34.32Zm0-12.31a5.32,5.32,0,1,0,5.32,5.32A5.4,5.4,0,0,0,34.38,22Z"></path></g><g id="ARC-2" data-name="ARC"><path class="cls-2" d="M44.22,41.7a.83.83,0,0,1-.83-.84,6.55,6.55,0,0,0-6.55-6.54.84.84,0,0,1-.83-.84.83.83,0,0,1,.83-.83,8.22,8.22,0,0,1,8.21,8.21A.83.83,0,0,1,44.22,41.7Z"></path></g><g id="LINE-3" data-name="LINE"><path class="cls-2" d="M44.22,45.39a.83.83,0,0,1-.83-.83v-3.7a.83.83,0,0,1,1.66,0v3.7A.83.83,0,0,1,44.22,45.39Z"></path></g><g id="ARC-3" data-name="ARC"><path class="cls-2" d="M34.38,47.85a21.67,21.67,0,0,1-10.23-2.56.83.83,0,1,1,.78-1.47,20,20,0,0,0,18.9,0,.84.84,0,0,1,1.13.34.85.85,0,0,1-.34,1.13,21.74,21.74,0,0,1-10.24,2.56Z"></path></g></g></g></g></svg>