<?xml version="1.0" encoding="utf-8"?>
<!-- Generator: Adobe Illustrator 16.0.0, SVG Export Plug-In . SVG Version: 6.00 Build 0)  -->
<!DOCTYPE svg PUBLIC "-//W3C//DTD SVG 1.1//EN" "http://www.w3.org/Graphics/SVG/1.1/DTD/svg11.dtd">
<svg version="1.1" id="Capa_1" xmlns="http://www.w3.org/2000/svg" xmlns:xlink="http://www.w3.org/1999/xlink" x="0px" y="0px"
	 width="250px" height="110px" viewBox="0 0 250 110" enable-background="new 0 0 250 110" xml:space="preserve">
<g>
	<g>
		<path fill="#F68523" d="M124.572,85.392c0.354,1.175,1.576,2.075,3.456,2.081c2.258,0.007,3.025-1.025,3.025-2.09
			c0.006-0.681-0.243-1.199-0.761-1.556c-0.487-0.356-1.385-0.792-2.667-1.314c-2.502-0.988-3.723-2.024-3.718-4.014
			c0.006-2.097,1.725-3.615,4.15-3.61c1.854,0.006,3.186,0.8,3.975,2.379l-1.638,0.841c-0.493-0.901-1.256-1.362-2.313-1.367
			c-1.282-0.004-2.158,0.647-2.158,1.766c-0.004,1.112,0.924,1.685,2.99,2.484c2.831,1.098,4.162,2.3,4.157,4.395
			c-0.006,2.18-1.784,3.974-5.05,3.965c-2.616-0.008-4.628-1.215-5.167-3.309L124.572,85.392z"/>
		<path fill="#F68523" d="M133.844,82.232c0.005-2.205,0.659-3.976,1.947-5.305c1.28-1.335,2.944-2.011,4.933-2.007
			c1.883,0.009,3.378,0.665,4.542,2c1.172,1.314,1.761,2.921,1.761,4.855c0,0.299-0.006,0.601-0.032,0.872l-11.141-0.031
			c0.098,3.023,2.032,4.962,4.887,4.966c1.882,0.009,3.001-0.584,4.227-1.89l1.335,1.31c-1.449,1.606-3.303,2.413-5.562,2.409
			c-2.043-0.004-3.734-0.66-5.006-1.948c-1.275-1.282-1.896-2.997-1.893-5.124v-0.107H133.844z M144.875,80.873
			c0-1.121-0.405-2.073-1.216-2.865c-0.815-0.794-1.8-1.199-2.94-1.205c-1.254-0.003-2.346,0.397-3.242,1.188
			c-0.902,0.789-1.396,1.737-1.481,2.854L144.875,80.873z"/>
		<path fill="#F68523" d="M149.612,91.37c1.687,1.229,3.508,1.836,5.442,1.841c1.444,0.004,2.562-0.317,3.406-0.999
			c0.957-0.788,1.428-2.204,1.428-4.245l0.006-1.147c-0.796,1.39-2.407,2.448-4.882,2.443c-1.937-0.007-3.595-0.692-4.927-2.03
			c-1.335-1.364-2.011-3.084-2.005-5.128c0.012-2.038,0.692-3.757,2.032-5.114c1.341-1.358,3.007-2.033,4.936-2.029
			c2.474,0.009,4.081,1.078,4.87,2.468l0.006-2.043l2.018,0.006l-0.033,11.438c-0.007,1.771-0.146,3.187-0.423,4.193
			c-0.243,1.033-0.849,1.906-1.771,2.64c-1.233,0.946-2.759,1.436-4.639,1.429c-2.422-0.009-4.573-0.721-6.503-2.116L149.612,91.37z
			 M158.671,85.893c0.984-1.005,1.476-2.254,1.482-3.752c0.004-1.5-0.487-2.756-1.461-3.766c-0.957-1.011-2.177-1.529-3.647-1.533
			c-1.415-0.002-2.589,0.51-3.546,1.515c-0.93,1.005-1.388,2.257-1.395,3.752c-0.005,1.501,0.454,2.757,1.379,3.764
			c0.945,1.012,2.117,1.502,3.53,1.509C156.487,87.385,157.715,86.9,158.671,85.893"/>
		<path fill="#F68523" d="M164.115,75.396l2.017,0.003l-0.022,8.334c-0.005,2.29,1.298,3.737,3.395,3.744
			c2.179,0.005,3.735-1.571,3.741-3.857l0.022-8.2l2.016,0.006l-0.026,10.541c0,1.198,0.271,1.716,1.033,1.716
			c0.216,0.003,0.466-0.023,0.706-0.048l-0.005,1.523c-0.302,0.132-0.708,0.218-1.279,0.213c-0.736,0-1.309-0.217-1.687-0.629
			c-0.331-0.355-0.541-0.79-0.623-1.364c-0.875,1.331-2.35,1.981-4.394,1.979c-3.016-0.01-4.926-2.061-4.915-5.19L164.115,75.396z"
			/>
		<path fill="#F68523" d="M178.38,89.16l0.032-13.729l2.017,0.006l-0.006,2.317c0.746-1.525,2.244-2.528,4.233-2.522
			c0.297,0,0.601,0.027,0.843,0.055l-0.006,2.178c-0.355-0.078-0.815-0.135-1.362-0.139c-2.15-0.006-3.708,1.574-3.713,3.857
			l-0.021,7.983L178.38,89.16z"/>
		<path fill="#F68523" d="M185.646,82.316c0-2.071,0.713-3.784,2.135-5.168c1.421-1.387,3.141-2.089,5.184-2.083
			c2.043,0.002,3.757,0.72,5.168,2.11c1.41,1.394,2.114,3.111,2.108,5.182c0,2.071-0.719,3.811-2.136,5.197
			c-1.421,1.383-3.134,2.06-5.185,2.058c-2.036-0.009-3.751-0.693-5.166-2.087C186.342,86.129,185.635,84.387,185.646,82.316
			 M187.657,82.322c-0.006,1.551,0.485,2.835,1.492,3.872c0.999,1.01,2.252,1.531,3.777,1.533c1.531,0.004,2.779-0.507,3.794-1.515
			c1.006-1.032,1.503-2.309,1.51-3.859c0-1.555-0.487-2.836-1.488-3.845c-1.009-1.04-2.259-1.561-3.783-1.563
			c-1.53-0.007-2.783,0.509-3.79,1.54C188.155,79.489,187.662,80.77,187.657,82.322"/>
		<path fill="#F68523" d="M202.63,85.604c0.351,1.174,1.571,2.074,3.454,2.081c2.259,0.003,3.028-1.029,3.028-2.095
			c0-0.677-0.245-1.192-0.758-1.553c-0.492-0.353-1.391-0.793-2.665-1.313c-2.502-0.988-3.729-2.025-3.724-4.015
			c0.007-2.099,1.724-3.616,4.152-3.61c1.853,0.007,3.184,0.801,3.972,2.383l-1.637,0.833c-0.486-0.895-1.248-1.359-2.313-1.362
			c-1.281-0.004-2.151,0.648-2.157,1.764c0,1.116,0.923,1.688,2.995,2.487c2.827,1.092,4.157,2.298,4.15,4.395
			c-0.005,2.178-1.783,3.973-5.047,3.96c-2.617-0.006-4.628-1.207-5.17-3.305L202.63,85.604z"/>
	</g>
	<g>
		<path fill="#4F5252" d="M75.802,15.433l-8.296-0.021l-0.048,18.39c-1.306-3.328-5.518-5.824-11.113-5.839
			c-4.91-0.013-9.065,1.704-12.457,5.218c-3.334,3.448-5.002,7.728-5.016,12.912c-0.017,5.188,1.634,9.479,4.946,13.014
			c3.375,3.53,7.521,5.271,12.424,5.282c5.531,0.019,9.548-1.766,11.978-5.429c0.344,1.804,1.303,3.406,2.82,4.449
			c1.204,0.736,2.729,1.085,4.633,1.106L75.802,15.433z M64.915,53.773c-2.009,1.999-4.571,3.031-7.544,3.025
			c-2.975-0.014-5.391-1.058-7.388-3.068c-1.933-2.007-2.894-4.573-2.887-7.613c0.01-3.041,0.98-5.593,2.925-7.597
			c2.011-1.992,4.435-3.03,7.408-3.021c2.973,0.01,5.529,1.055,7.526,3.064c2.069,2.011,3.093,4.567,3.087,7.609
			C68.034,49.213,66.994,51.77,64.915,53.773"/>
		<path fill="#4F5252" d="M84.978,24.723c2.698,0.01,4.918-2.133,4.922-4.898c0.009-2.763-2.2-4.907-4.896-4.915
			c-2.766-0.006-4.988,2.128-4.992,4.894C80.002,22.565,82.211,24.714,84.978,24.723"/>
		<path fill="#4F5252" d="M89.272,29.358l-8.3-0.023l-0.067,26.393c-0.018,5.873,2.951,8.859,8.273,8.867
			C89.258,64.595,89.272,29.358,89.272,29.358"/>
		<path fill="#4F5252" d="M130.322,24.846c2.698,0.01,4.911-2.128,4.921-4.893c0.01-2.769-2.197-4.914-4.893-4.921
			c-2.764-0.01-4.982,2.126-4.988,4.889C125.354,22.688,127.558,24.84,130.322,24.846"/>
		<path fill="#4F5252" d="M133.767,29.48l-8.295-0.023l-0.076,26.391c-0.013,5.878,2.68,8.855,8,8.87
			c0.099,0,0.179-0.004,0.276-0.004L133.767,29.48z"/>
		<path fill="#4F5252" d="M157.414,28.332c-4.9-0.016-8.393,2.811-10.063,6.192l0.015-5.005l-8.229-0.023l-0.093,35.189l8.229,0.018
			l0.052-20.367c0.014-4.761,3.273-8.069,7.905-8.061c4.631,0.015,7.318,2.993,7.306,7.761l-0.033,11.611
			c-0.015,6.083,2.673,9.136,8.135,9.146h0.028l0.061-23.061C170.744,33.763,165.269,28.354,157.414,28.332"/>
		<path fill="#4F5252" d="M211.128,29.208l-8.299-0.024l-0.012,5.044c-1.307-3.317-5.517-5.817-11.117-5.837
			c-4.907-0.015-9.055,1.708-12.45,5.222c-3.33,3.442-5.001,7.728-5.012,12.915c-0.018,5.18,1.628,9.475,4.941,13.006
			c3.372,3.535,7.52,5.274,12.426,5.29c5.532,0.015,9.544-1.772,11.975-5.431c0.34,1.802,1.302,3.187,2.817,4.227
			c1.202,0.736,2.731,1.081,4.636,1.105L211.128,29.208z M200.275,54.204c-2.007,1.998-4.567,3.025-7.544,3.021
			c-2.975-0.008-5.39-1.054-7.385-3.058c-1.936-2.013-2.895-4.579-2.889-7.615c0.01-3.045,0.984-5.602,2.927-7.596
			c2.009-2.003,4.429-3.035,7.401-3.025c2.972,0.009,5.528,1.051,7.531,3.063c2.068,2.008,3.091,4.569,3.088,7.61
			C203.397,49.643,202.354,52.206,200.275,54.204"/>
		<path fill="#F68523" d="M123.326,24.781c0,0-3.04-0.041-4.054-0.016c-2.767,0.095-4.69,2.364-5.629,4.48
			c-0.901,2.051-7.517,23.425-7.517,23.425l0.02,0.015l-0.132,0.214c0,0-2.998-6.723-3.895-8.782
			c-0.925-2.122-3.271-3.125-6.037-3.228c-1.018-0.039-4.052-0.009-4.052-0.009l10.929,23.71l7.041,0.014L123.326,24.781z"/>
	</g>
</g>
</svg>
