<svg xmlns="http://www.w3.org/2000/svg" xmlns:xlink="http://www.w3.org/1999/xlink" id="icons" x="0px" y="0px" viewBox="0 0 70 70" style="enable-background:new 0 0 70 70;" xml:space="preserve"><style type="text/css">	.st0{fill:#B5E7F3;}	.st1{fill:#151A6A;}</style><g>	<path class="st0" d="M44.7,20.4c-13.4,0-24.2,10.8-24.2,24.2s10.8,24.2,24.2,24.2s24.2-10.8,24.2-24.2  C68.9,31.3,58.1,20.5,44.7,20.4z M63.4,40.7v7.9c0,0.7-0.5,1.2-1.2,1.2H49.9v12.3c0,0.7-0.5,1.2-1.2,1.2h-7.9  c-0.7,0-1.2-0.5-1.2-1.2V49.8H27.2c-0.7,0-1.2-0.5-1.2-1.2v-7.9c0-0.7,0.5-1.2,1.2-1.2h12.3V27.2c0-0.7,0.5-1.2,1.2-1.2h7.9  c0.7,0,1.2,0.5,1.2,1.2v12.3h12.3C62.8,39.5,63.4,40,63.4,40.7z"></path>	<path class="st0" d="M47.5,40.7V28.4h-5.6v12.3c0,0.7-0.5,1.2-1.2,1.2H28.4v5.6h12.3c0.7,0,1.2,0.5,1.2,1.2V61h5.6V48.6  c0-0.7,0.5-1.2,1.2-1.2H61v-5.6H48.7C48,41.9,47.5,41.4,47.5,40.7z"></path></g><g>	<path class="st1" d="M9.1,33.4c-4.4,0-8,3.6-8,8c0,4.1,3.1,7.5,7.2,8l0.4,0l0,0.4c0.4,4.1,3.9,7.2,8,7.2c4.4,0,8-3.6,8-8  c0-1.1-0.2-2.1-0.6-3.1l-0.1-0.3l3.8-3.8c0.3-0.3,0.4-0.6,0.4-1c0-0.4-0.1-0.7-0.4-1c-0.5-0.5-1.4-0.5-1.9,0l-5.3,5.3l0.6,0.9  c1.1,1.7,1.2,3.8,0.2,5.6c-0.7,1.2-1.9,2.1-3.3,2.5c-1.6,0.4-3.3,0-4.6-1c-1.3-1-2-2.5-2-4.2c0-0.3,0-0.5,0.1-0.7l0.3-1.9l-1.8,0.3  c-2,0.3-3.8-0.4-5-2c-1-1.3-1.4-3-0.9-4.6c0.3-1.3,1.1-2.4,2.2-3.1c1.8-1.1,4.1-1.1,5.8,0l0.9,0.6l11-11c0.5-0.5,1.3-0.8,2-0.6  c1,0.2,1.8,1.1,1.8,2.2v4.9c0,0.5,0.4,1,0.9,1.1l5.1,1c0.4,0.1,0.7,0,1-0.3l10.9-10.9l0.3,0.1c1,0.4,2,0.6,3.1,0.6c4.4,0,8-3.6,8-8  c0-4.1-3.1-7.5-7.2-8l-0.4,0l0-0.4c-0.4-4.1-3.9-7.2-8-7.2c-4.4,0-8,3.6-8,8c0,1.1,0.2,2.1,0.6,3.1l0.1,0.3l-3.8,3.8  c-0.5,0.5-0.5,1.4,0,1.9c0.5,0.5,1.4,0.5,1.9,0l5.3-5.3L37,12c-0.9-1.4-1.1-3.1-0.6-4.7c0.6-1.8,2.2-3.1,4-3.5  C42,3.6,43.6,4,44.8,5c1.2,1,1.9,2.5,1.9,4.1c0,0.3,0,0.5-0.1,0.8l-0.3,1.9l1.8-0.3c0.3-0.1,0.6-0.1,0.8-0.1c1.7,0,3.2,0.8,4.2,2.1  c1,1.3,1.3,3,0.9,4.7c-0.4,1.4-1.3,2.6-2.6,3.2c-1.8,0.9-3.8,0.8-5.4-0.3l-0.9-0.6l-11,11c-0.5,0.5-1.3,0.8-2,0.6  c-1-0.2-1.8-1.1-1.8-2.2v-4.9c0-0.5-0.4-1-0.9-1.1l-5.1-1c-0.4-0.1-0.7,0-1,0.3L12.5,34.2l-0.3-0.1C11.2,33.6,10.2,33.4,9.1,33.4z"></path></g></svg>